M48
; DRILL file {KiCad 7.0.1} date Sat Apr 29 12:24:15 2023
; FORMAT={-:-/ absolute / metric / decimal}
; #@! TF.CreationDate,2023-04-29T12:24:15+07:00
; #@! TF.GenerationSoftware,Kicad,Pcbnew,7.0.1
; #@! TF.FileFunction,Plated,1,2,PTH
FMAT,2
METRIC
; #@! TA.AperFunction,Plated,PTH,ViaDrill
T1C0.600
; #@! TA.AperFunction,Plated,PTH,ComponentDrill
T2C0.762
; #@! TA.AperFunction,Plated,PTH,ComponentDrill
T3C0.800
; #@! TA.AperFunction,Plated,PTH,ComponentDrill
T4C1.000
; #@! TA.AperFunction,Plated,PTH,ComponentDrill
T5C1.200
%
G90
G05
T1
X13.688Y-23.887
X14.862Y-33.637
X15.612Y-48.137
X16.438Y-18.837
X16.65Y-31.637
X16.938Y-38.587
X17.28Y-21.265
X19.188Y-36.587
X20.613Y-35.137
X20.613Y-55.887
X23.113Y-65.388
X23.862Y-56.387
X23.938Y-59.087
X26.65Y-48.387
X28.679Y-54.049
X30.112Y-35.137
X30.112Y-43.887
X30.438Y-27.512
X30.688Y-22.613
X32.362Y-44.137
X32.362Y-48.887
T2
X10.322Y-51.637
X15.402Y-51.637
X32.322Y-36.637
X37.402Y-36.637
T3
X34.862Y-22.613
X34.862Y-27.512
T4
X18.282Y-11.637
X18.282Y-14.178
X20.822Y-11.637
X20.822Y-14.178
X23.363Y-11.637
X23.363Y-14.178
X25.902Y-11.637
X25.902Y-14.178
X28.442Y-11.637
X28.442Y-14.178
X35.112Y-44.387
X35.112Y-46.927
X35.112Y-49.468
X35.112Y-52.008
T5
X4.0Y-22.5
X4.0Y-65.0
X42.5Y-22.5
X42.75Y-53.5
T0
M30
