%TF.GenerationSoftware,KiCad,Pcbnew,7.0.1*%
%TF.CreationDate,2023-04-27T15:41:12+07:00*%
%TF.ProjectId,BMP,424d502e-6b69-4636-9164-5f7063625858,rev?*%
%TF.SameCoordinates,Original*%
%TF.FileFunction,Copper,L2,Bot*%
%TF.FilePolarity,Positive*%
%FSLAX46Y46*%
G04 Gerber Fmt 4.6, Leading zero omitted, Abs format (unit mm)*
G04 Created by KiCad (PCBNEW 7.0.1) date 2023-04-27 15:41:12*
%MOMM*%
%LPD*%
G01*
G04 APERTURE LIST*
G04 Aperture macros list*
%AMRoundRect*
0 Rectangle with rounded corners*
0 $1 Rounding radius*
0 $2 $3 $4 $5 $6 $7 $8 $9 X,Y pos of 4 corners*
0 Add a 4 corners polygon primitive as box body*
4,1,4,$2,$3,$4,$5,$6,$7,$8,$9,$2,$3,0*
0 Add four circle primitives for the rounded corners*
1,1,$1+$1,$2,$3*
1,1,$1+$1,$4,$5*
1,1,$1+$1,$6,$7*
1,1,$1+$1,$8,$9*
0 Add four rect primitives between the rounded corners*
20,1,$1+$1,$2,$3,$4,$5,0*
20,1,$1+$1,$4,$5,$6,$7,0*
20,1,$1+$1,$6,$7,$8,$9,0*
20,1,$1+$1,$8,$9,$2,$3,0*%
G04 Aperture macros list end*
%TA.AperFunction,NonConductor*%
%ADD10C,0.200000*%
%TD*%
%TA.AperFunction,ComponentPad*%
%ADD11O,1.700000X1.700000*%
%TD*%
%TA.AperFunction,ComponentPad*%
%ADD12R,1.700000X1.700000*%
%TD*%
%TA.AperFunction,ComponentPad*%
%ADD13C,1.700000*%
%TD*%
%TA.AperFunction,ComponentPad*%
%ADD14RoundRect,0.250000X-0.600000X0.600000X-0.600000X-0.600000X0.600000X-0.600000X0.600000X0.600000X0*%
%TD*%
%TA.AperFunction,ComponentPad*%
%ADD15C,1.524000*%
%TD*%
%TA.AperFunction,ComponentPad*%
%ADD16C,1.500000*%
%TD*%
%TA.AperFunction,ViaPad*%
%ADD17C,1.300000*%
%TD*%
%TA.AperFunction,ViaPad*%
%ADD18C,1.500000*%
%TD*%
%TA.AperFunction,ViaPad*%
%ADD19C,1.200000*%
%TD*%
%TA.AperFunction,Conductor*%
%ADD20C,0.500000*%
%TD*%
%TA.AperFunction,Conductor*%
%ADD21C,0.300000*%
%TD*%
%TA.AperFunction,Conductor*%
%ADD22C,0.250000*%
%TD*%
G04 APERTURE END LIST*
D10*
X25500000Y-25000000D02*
G75*
G03*
X25500000Y-25000000I-500000J0D01*
G01*
X29537500Y-46187500D02*
G75*
G03*
X29537500Y-46187500I-500000J0D01*
G01*
X30625000Y-46187500D02*
G75*
G03*
X30625000Y-46187500I-1587500J0D01*
G01*
X29537500Y-88687500D02*
G75*
G03*
X29537500Y-88687500I-500000J0D01*
G01*
X30625000Y-88687500D02*
G75*
G03*
X30625000Y-88687500I-1587500J0D01*
G01*
X68037500Y-78687500D02*
G75*
G03*
X68037500Y-78687500I-500000J0D01*
G01*
X69125000Y-78687500D02*
G75*
G03*
X69125000Y-78687500I-1587500J0D01*
G01*
X69125000Y-46187500D02*
G75*
G03*
X69125000Y-46187500I-1587500J0D01*
G01*
X68037500Y-46187500D02*
G75*
G03*
X68037500Y-46187500I-500000J0D01*
G01*
D11*
%TO.P,J1,4,Pin_4*%
%TO.N,+3.3V*%
X60112500Y-77007500D03*
%TO.P,J1,3,Pin_3*%
%TO.N,/RXD*%
X60112500Y-74467500D03*
%TO.P,J1,2,Pin_2*%
%TO.N,/TXD*%
X60112500Y-71927500D03*
D12*
%TO.P,J1,1,Pin_1*%
%TO.N,GND*%
X60112500Y-69387500D03*
%TD*%
D13*
%TO.P,J2,10,Pin_10*%
%TO.N,/TARGET_RST*%
X43282500Y-39177500D03*
%TO.P,J2,9,Pin_9*%
%TO.N,GND*%
X43282500Y-36637500D03*
%TO.P,J2,8,Pin_8*%
%TO.N,/TARGET_TDI*%
X45822500Y-39177500D03*
%TO.P,J2,7,Pin_7*%
%TO.N,unconnected-(J2-Pin_7-Pad7)*%
X45822500Y-36637500D03*
%TO.P,J2,6,Pin_6*%
%TO.N,/TARGET_TDO*%
X48362500Y-39177500D03*
%TO.P,J2,5,Pin_5*%
%TO.N,GND*%
X48362500Y-36637500D03*
%TO.P,J2,4,Pin_4*%
%TO.N,/TARGET_TCK*%
X50902500Y-39177500D03*
%TO.P,J2,3,Pin_3*%
%TO.N,GND*%
X50902500Y-36637500D03*
%TO.P,J2,2,Pin_2*%
%TO.N,/TARGET_TMS*%
X53442500Y-39177500D03*
D14*
%TO.P,J2,1,Pin_1*%
%TO.N,/TPWR*%
X53442500Y-36637500D03*
%TD*%
D15*
%TO.P,SW1,2,2*%
%TO.N,/FORCE_BOOTLOADER*%
X40402500Y-76637500D03*
%TO.P,SW1,1,1*%
%TO.N,GND*%
X35322500Y-76637500D03*
%TD*%
D16*
%TO.P,Y1,2,2*%
%TO.N,Net-(U1-PD0)*%
X59862500Y-52512500D03*
%TO.P,Y1,1,1*%
%TO.N,Net-(U1-PD1)*%
X59862500Y-47612500D03*
%TD*%
D15*
%TO.P,SW2,2,2*%
%TO.N,+3.3V*%
X62402500Y-61637500D03*
%TO.P,SW2,1,1*%
%TO.N,Net-(U1-BOOT0)*%
X57322500Y-61637500D03*
%TD*%
D17*
%TO.N,GND*%
X48937500Y-84087500D03*
D18*
X41437500Y-43837500D03*
D19*
X40612500Y-73137500D03*
D18*
X38687500Y-48887500D03*
D17*
X57362500Y-69137500D03*
D19*
X45612500Y-80887500D03*
D17*
X57362500Y-73887500D03*
D18*
%TO.N,+3.3V*%
X45612500Y-60137500D03*
D17*
X48112500Y-90387500D03*
X51650000Y-73387500D03*
X55112500Y-68887500D03*
D18*
X55112500Y-60137500D03*
X42279815Y-46264802D03*
%TO.N,Net-(U1-PD0)*%
X55437500Y-52512500D03*
%TO.N,Net-(U1-PD1)*%
X55687500Y-47612500D03*
%TO.N,Net-(CN1-D+)*%
X53679426Y-79049239D03*
D19*
X48862500Y-81387500D03*
%TO.N,/TPWR*%
X51862500Y-43887500D03*
%TO.N,/TARGET_TMS*%
X50112500Y-43887500D03*
%TO.N,/TARGET_TCK*%
X48425000Y-43887500D03*
%TO.N,/TARGET_TDO*%
X46737500Y-43887500D03*
%TO.N,/TARGET_TDI*%
X45050000Y-43887500D03*
%TO.N,/TARGET_RST*%
X43362500Y-43887500D03*
D18*
%TO.N,/RST*%
X44187500Y-61587500D03*
X41650000Y-56637500D03*
%TO.N,/TDI*%
X41937500Y-63587500D03*
X39862500Y-58637500D03*
%TD*%
D20*
%TO.N,+3.3V*%
X51650000Y-73387500D02*
X52150000Y-73887500D01*
X52150000Y-73887500D02*
X55112500Y-73887500D01*
D21*
%TO.N,/RST*%
X44187500Y-61462500D02*
X44187500Y-61587500D01*
X41650000Y-56637500D02*
X41650000Y-58925000D01*
X41650000Y-58925000D02*
X44187500Y-61462500D01*
%TO.N,Net-(U1-PD1)*%
X55687500Y-47612500D02*
X59862500Y-47612500D01*
%TO.N,Net-(U1-PD0)*%
X55437500Y-52512500D02*
X59862500Y-52512500D01*
%TO.N,/TDI*%
X41937500Y-63587500D02*
X39862500Y-61512500D01*
X39862500Y-61512500D02*
X39862500Y-58637500D01*
%TO.N,Net-(CN1-D+)*%
X53679426Y-80320574D02*
X52612500Y-81387500D01*
X52612500Y-81387500D02*
X48862500Y-81387500D01*
X53679426Y-79049239D02*
X53679426Y-80320574D01*
D20*
%TO.N,+3.3V*%
X42279815Y-46264802D02*
X43489802Y-46264802D01*
X55112500Y-57887500D02*
X55112500Y-60137500D01*
X43489802Y-46264802D02*
X55112500Y-57887500D01*
X60902500Y-60137500D02*
X62402500Y-61637500D01*
X55112500Y-68887500D02*
X55112500Y-60137500D01*
X55112500Y-85137500D02*
X55112500Y-73887500D01*
X55112500Y-73887500D02*
X55112500Y-68887500D01*
X55112500Y-60137500D02*
X60902500Y-60137500D01*
X49862500Y-90387500D02*
X48112500Y-90387500D01*
X55112500Y-85137500D02*
X49862500Y-90387500D01*
X45612500Y-60137500D02*
X55112500Y-60137500D01*
%TO.N,/TPWR*%
X54612500Y-36637500D02*
X53442500Y-36637500D01*
X52862500Y-43887500D02*
X55362500Y-41387500D01*
X55362500Y-37387500D02*
X54612500Y-36637500D01*
X55362500Y-41387500D02*
X55362500Y-37387500D01*
X51862500Y-43887500D02*
X52862500Y-43887500D01*
D21*
%TO.N,/TARGET_TMS*%
X53442500Y-40557500D02*
X53442500Y-39177500D01*
X50112500Y-43887500D02*
X53442500Y-40557500D01*
%TO.N,/TARGET_TCK*%
X48425000Y-43075000D02*
X50902500Y-40597500D01*
X50902500Y-40597500D02*
X50902500Y-39177500D01*
X48425000Y-43887500D02*
X48425000Y-43075000D01*
%TO.N,/TARGET_TDO*%
X46737500Y-42512500D02*
X48362500Y-40887500D01*
X46737500Y-43887500D02*
X46737500Y-42512500D01*
X48362500Y-40887500D02*
X48362500Y-39177500D01*
D22*
%TO.N,/TARGET_TDI*%
X45862500Y-39217500D02*
X45822500Y-39177500D01*
D21*
X45050000Y-41950000D02*
X45862500Y-41137500D01*
X45050000Y-43887500D02*
X45050000Y-41950000D01*
X45862500Y-41137500D02*
X45862500Y-39217500D01*
%TO.N,/TARGET_RST*%
X43282500Y-43807500D02*
X43282500Y-39177500D01*
D22*
X43362500Y-43887500D02*
X43282500Y-43807500D01*
%TD*%
%TA.AperFunction,Conductor*%
%TO.N,GND*%
G36*
X64020020Y-32649342D02*
G01*
X64068359Y-32681641D01*
X64100658Y-32729980D01*
X64112000Y-32787000D01*
X64112000Y-96738000D01*
X64100658Y-96795020D01*
X64068359Y-96843359D01*
X64020020Y-96875658D01*
X63963000Y-96887000D01*
X32762000Y-96887000D01*
X32704980Y-96875658D01*
X32656641Y-96843359D01*
X32624342Y-96795020D01*
X32613000Y-96738000D01*
X32613000Y-94137500D01*
X33507051Y-94137500D01*
X33526817Y-94388651D01*
X33585626Y-94633610D01*
X33682033Y-94866358D01*
X33813662Y-95081156D01*
X33813664Y-95081159D01*
X33977276Y-95272724D01*
X34168841Y-95436336D01*
X34383641Y-95567966D01*
X34616389Y-95664373D01*
X34861352Y-95723183D01*
X35112500Y-95742949D01*
X35363648Y-95723183D01*
X35608611Y-95664373D01*
X35841359Y-95567966D01*
X36056159Y-95436336D01*
X36247724Y-95272724D01*
X36411336Y-95081159D01*
X36542966Y-94866359D01*
X36639373Y-94633611D01*
X36698183Y-94388648D01*
X36717949Y-94137500D01*
X36717949Y-94137499D01*
X59857051Y-94137499D01*
X59876817Y-94388651D01*
X59935626Y-94633610D01*
X60032033Y-94866358D01*
X60163662Y-95081156D01*
X60163664Y-95081159D01*
X60327276Y-95272724D01*
X60518841Y-95436336D01*
X60733641Y-95567966D01*
X60966389Y-95664373D01*
X61211352Y-95723183D01*
X61462500Y-95742949D01*
X61713648Y-95723183D01*
X61958611Y-95664373D01*
X62191359Y-95567966D01*
X62406159Y-95436336D01*
X62597724Y-95272724D01*
X62761336Y-95081159D01*
X62892966Y-94866359D01*
X62989373Y-94633611D01*
X63048183Y-94388648D01*
X63067949Y-94137500D01*
X63048183Y-93886352D01*
X62989373Y-93641389D01*
X62892966Y-93408641D01*
X62761336Y-93193841D01*
X62597724Y-93002276D01*
X62406159Y-92838664D01*
X62406156Y-92838662D01*
X62191358Y-92707033D01*
X61958610Y-92610626D01*
X61713651Y-92551817D01*
X61462500Y-92532051D01*
X61211348Y-92551817D01*
X60966389Y-92610626D01*
X60733641Y-92707033D01*
X60518843Y-92838662D01*
X60327276Y-93002276D01*
X60163662Y-93193843D01*
X60032033Y-93408641D01*
X59935626Y-93641389D01*
X59876817Y-93886348D01*
X59857051Y-94137499D01*
X36717949Y-94137499D01*
X36698183Y-93886352D01*
X36639373Y-93641389D01*
X36542966Y-93408641D01*
X36411336Y-93193841D01*
X36247724Y-93002276D01*
X36056159Y-92838664D01*
X36056156Y-92838662D01*
X35841358Y-92707033D01*
X35608610Y-92610626D01*
X35363651Y-92551817D01*
X35112500Y-92532051D01*
X34861348Y-92551817D01*
X34616389Y-92610626D01*
X34383641Y-92707033D01*
X34168843Y-92838662D01*
X33977276Y-93002276D01*
X33813662Y-93193843D01*
X33682033Y-93408641D01*
X33585626Y-93641389D01*
X33526817Y-93886348D01*
X33507051Y-94137500D01*
X32613000Y-94137500D01*
X32613000Y-77689241D01*
X34624311Y-77689241D01*
X34689089Y-77734599D01*
X34889221Y-77827921D01*
X35102518Y-77885075D01*
X35322500Y-77904320D01*
X35542481Y-77885075D01*
X35755777Y-77827922D01*
X35955910Y-77734598D01*
X36020687Y-77689240D01*
X35322500Y-76991053D01*
X34624311Y-77689241D01*
X32613000Y-77689241D01*
X32613000Y-76637500D01*
X34055679Y-76637500D01*
X34074924Y-76857481D01*
X34132078Y-77070778D01*
X34225400Y-77270911D01*
X34270757Y-77335686D01*
X34968946Y-76637500D01*
X35676053Y-76637500D01*
X36374240Y-77335686D01*
X36419598Y-77270910D01*
X36512922Y-77070777D01*
X36570075Y-76857481D01*
X36589320Y-76637499D01*
X39135177Y-76637499D01*
X39154429Y-76857567D01*
X39211605Y-77070950D01*
X39291791Y-77242908D01*
X39304966Y-77271162D01*
X39431674Y-77452120D01*
X39587880Y-77608326D01*
X39768838Y-77735034D01*
X39868944Y-77781714D01*
X39969049Y-77828394D01*
X40123070Y-77869664D01*
X40182432Y-77885570D01*
X40402500Y-77904823D01*
X40622568Y-77885570D01*
X40835950Y-77828394D01*
X41036162Y-77735034D01*
X41217120Y-77608326D01*
X41373326Y-77452120D01*
X41500034Y-77271162D01*
X41593394Y-77070950D01*
X41650570Y-76857568D01*
X41669823Y-76637500D01*
X41650570Y-76417432D01*
X41593394Y-76204050D01*
X41500034Y-76003839D01*
X41475643Y-75969005D01*
X41373327Y-75822881D01*
X41217120Y-75666674D01*
X41143957Y-75615445D01*
X41036162Y-75539966D01*
X41036160Y-75539965D01*
X40835950Y-75446605D01*
X40622567Y-75389429D01*
X40402500Y-75370177D01*
X40182432Y-75389429D01*
X39969050Y-75446605D01*
X39768837Y-75539966D01*
X39587881Y-75666672D01*
X39431672Y-75822881D01*
X39304966Y-76003837D01*
X39211605Y-76204050D01*
X39154429Y-76417432D01*
X39135177Y-76637499D01*
X36589320Y-76637499D01*
X36570075Y-76417518D01*
X36512922Y-76204221D01*
X36419597Y-76004086D01*
X36374241Y-75939312D01*
X36374240Y-75939312D01*
X35676053Y-76637500D01*
X34968946Y-76637500D01*
X34270758Y-75939312D01*
X34225399Y-76004092D01*
X34132077Y-76204221D01*
X34074924Y-76417518D01*
X34055679Y-76637500D01*
X32613000Y-76637500D01*
X32613000Y-75585758D01*
X34624312Y-75585758D01*
X35322499Y-76283945D01*
X36020687Y-75585757D01*
X35955911Y-75540400D01*
X35755778Y-75447078D01*
X35542481Y-75389924D01*
X35322500Y-75370679D01*
X35102518Y-75389924D01*
X34889221Y-75447077D01*
X34689092Y-75540399D01*
X34624312Y-75585758D01*
X32613000Y-75585758D01*
X32613000Y-58637499D01*
X38607223Y-58637499D01*
X38626292Y-58855476D01*
X38682925Y-59066830D01*
X38775399Y-59265142D01*
X38900899Y-59444373D01*
X38900902Y-59444377D01*
X39055623Y-59599098D01*
X39148464Y-59664106D01*
X39195165Y-59717359D01*
X39212000Y-59786159D01*
X39212000Y-61424235D01*
X39209590Y-61446060D01*
X39211926Y-61520348D01*
X39212000Y-61525030D01*
X39212000Y-61553434D01*
X39212406Y-61556651D01*
X39213505Y-61570625D01*
X39214902Y-61615069D01*
X39220274Y-61633561D01*
X39225014Y-61656447D01*
X39227429Y-61675560D01*
X39243800Y-61716910D01*
X39248346Y-61730186D01*
X39260756Y-61772900D01*
X39270556Y-61789470D01*
X39280842Y-61810466D01*
X39287930Y-61828369D01*
X39314069Y-61864347D01*
X39321773Y-61876075D01*
X39344418Y-61914364D01*
X39358034Y-61927980D01*
X39373218Y-61945759D01*
X39384534Y-61961334D01*
X39384536Y-61961335D01*
X39384537Y-61961337D01*
X39418803Y-61989684D01*
X39429186Y-61999132D01*
X40661234Y-63231180D01*
X40699798Y-63297974D01*
X40699798Y-63356307D01*
X40702429Y-63356538D01*
X40682223Y-63587500D01*
X40701292Y-63805476D01*
X40757925Y-64016830D01*
X40850399Y-64215142D01*
X40975899Y-64394374D01*
X41130625Y-64549100D01*
X41309857Y-64674600D01*
X41309860Y-64674601D01*
X41309861Y-64674602D01*
X41508170Y-64767075D01*
X41719523Y-64823707D01*
X41937500Y-64842777D01*
X42155477Y-64823707D01*
X42366830Y-64767075D01*
X42565139Y-64674602D01*
X42744377Y-64549098D01*
X42899098Y-64394377D01*
X43024602Y-64215139D01*
X43117075Y-64016830D01*
X43173707Y-63805477D01*
X43192777Y-63587500D01*
X43173707Y-63369523D01*
X43170166Y-63356307D01*
X43117075Y-63158169D01*
X43024602Y-62959863D01*
X43024602Y-62959862D01*
X42899098Y-62780623D01*
X42744377Y-62625902D01*
X42744374Y-62625899D01*
X42565142Y-62500399D01*
X42366830Y-62407925D01*
X42155476Y-62351292D01*
X41937500Y-62332223D01*
X41706538Y-62352429D01*
X41706307Y-62349798D01*
X41647974Y-62349798D01*
X41581180Y-62311234D01*
X40556641Y-61286695D01*
X40524342Y-61238356D01*
X40513000Y-61181336D01*
X40513000Y-59786159D01*
X40529835Y-59717359D01*
X40576535Y-59664106D01*
X40669377Y-59599098D01*
X40824098Y-59444377D01*
X40897416Y-59339668D01*
X40944967Y-59296095D01*
X41006481Y-59276699D01*
X41070429Y-59285118D01*
X41124827Y-59319773D01*
X41145534Y-59340480D01*
X41160718Y-59358259D01*
X41172034Y-59373834D01*
X41172036Y-59373835D01*
X41172037Y-59373837D01*
X41206303Y-59402184D01*
X41216686Y-59411632D01*
X42937649Y-61132595D01*
X42976213Y-61199390D01*
X42976213Y-61276517D01*
X42951293Y-61369521D01*
X42932223Y-61587500D01*
X42951292Y-61805476D01*
X43007925Y-62016830D01*
X43100399Y-62215142D01*
X43225899Y-62394374D01*
X43380625Y-62549100D01*
X43559857Y-62674600D01*
X43559860Y-62674601D01*
X43559861Y-62674602D01*
X43758170Y-62767075D01*
X43969523Y-62823707D01*
X44187500Y-62842777D01*
X44405477Y-62823707D01*
X44616830Y-62767075D01*
X44815139Y-62674602D01*
X44994377Y-62549098D01*
X45149098Y-62394377D01*
X45274602Y-62215139D01*
X45367075Y-62016830D01*
X45423707Y-61805477D01*
X45442777Y-61587500D01*
X45439776Y-61553204D01*
X45448195Y-61489259D01*
X45482851Y-61434860D01*
X45537251Y-61400205D01*
X45601193Y-61391787D01*
X45612500Y-61392777D01*
X45830477Y-61373707D01*
X46041830Y-61317075D01*
X46240139Y-61224602D01*
X46419377Y-61099098D01*
X46574098Y-60944377D01*
X46574100Y-60944373D01*
X46583315Y-60935159D01*
X46585392Y-60937236D01*
X46622332Y-60904838D01*
X46691137Y-60888000D01*
X54033863Y-60888000D01*
X54102668Y-60904838D01*
X54139607Y-60937236D01*
X54141685Y-60935159D01*
X54150899Y-60944373D01*
X54150902Y-60944377D01*
X54305623Y-61099098D01*
X54305626Y-61099100D01*
X54314841Y-61108315D01*
X54312763Y-61110392D01*
X54345162Y-61147332D01*
X54362000Y-61216137D01*
X54362000Y-67949066D01*
X54349304Y-68009250D01*
X54313381Y-68059178D01*
X54258627Y-68109093D01*
X54130133Y-68279245D01*
X54035095Y-68470108D01*
X53976743Y-68675192D01*
X53957070Y-68887500D01*
X53976743Y-69099807D01*
X54035095Y-69304891D01*
X54130133Y-69495754D01*
X54258627Y-69665906D01*
X54313381Y-69715822D01*
X54349304Y-69765750D01*
X54362000Y-69825934D01*
X54362000Y-72988000D01*
X54350658Y-73045020D01*
X54318359Y-73093359D01*
X54270020Y-73125658D01*
X54213000Y-73137000D01*
X52887409Y-73137000D01*
X52825133Y-73123362D01*
X52774258Y-73084943D01*
X52744097Y-73028777D01*
X52727405Y-72970111D01*
X52632366Y-72779245D01*
X52503872Y-72609093D01*
X52346302Y-72465448D01*
X52346300Y-72465446D01*
X52165024Y-72353204D01*
X52165019Y-72353202D01*
X51966198Y-72276179D01*
X51966195Y-72276178D01*
X51966194Y-72276178D01*
X51756610Y-72237000D01*
X51543390Y-72237000D01*
X51333805Y-72276178D01*
X51134975Y-72353204D01*
X50953699Y-72465446D01*
X50796127Y-72609093D01*
X50667633Y-72779245D01*
X50572595Y-72970108D01*
X50514243Y-73175192D01*
X50494570Y-73387499D01*
X50514243Y-73599807D01*
X50572595Y-73804891D01*
X50667633Y-73995754D01*
X50796127Y-74165906D01*
X50953699Y-74309553D01*
X51134975Y-74421795D01*
X51134978Y-74421796D01*
X51134981Y-74421798D01*
X51333802Y-74498821D01*
X51543390Y-74538000D01*
X51736136Y-74538000D01*
X51799107Y-74551961D01*
X51820989Y-74562165D01*
X51824889Y-74564053D01*
X51894480Y-74599003D01*
X51909143Y-74604100D01*
X51964908Y-74615613D01*
X51985469Y-74619859D01*
X51989655Y-74620787D01*
X52062279Y-74638000D01*
X52062281Y-74638000D01*
X52065445Y-74638750D01*
X52080891Y-74640328D01*
X52084141Y-74640233D01*
X52084144Y-74640234D01*
X52158752Y-74638062D01*
X52163086Y-74638000D01*
X54213000Y-74638000D01*
X54270020Y-74649342D01*
X54318359Y-74681641D01*
X54350658Y-74729980D01*
X54362000Y-74787000D01*
X54362000Y-77753870D01*
X54343632Y-77825537D01*
X54293058Y-77879535D01*
X54222746Y-77902551D01*
X54150031Y-77888910D01*
X54108758Y-77869664D01*
X53897402Y-77813031D01*
X53698495Y-77795630D01*
X53679426Y-77793962D01*
X53679425Y-77793962D01*
X53461449Y-77813031D01*
X53250095Y-77869663D01*
X53051789Y-77962136D01*
X52872548Y-78087641D01*
X52717828Y-78242361D01*
X52592323Y-78421602D01*
X52499850Y-78619908D01*
X52443218Y-78831262D01*
X52424149Y-79049238D01*
X52443218Y-79267215D01*
X52499851Y-79478569D01*
X52592325Y-79676881D01*
X52717825Y-79856112D01*
X52717828Y-79856116D01*
X52865526Y-80003814D01*
X52897823Y-80052150D01*
X52909165Y-80109170D01*
X52897823Y-80166190D01*
X52865524Y-80214529D01*
X52386695Y-80693359D01*
X52338356Y-80725658D01*
X52281336Y-80737000D01*
X49824502Y-80737000D01*
X49758087Y-80721379D01*
X49705597Y-80677792D01*
X49687885Y-80654338D01*
X49679264Y-80642921D01*
X49528541Y-80505519D01*
X49362565Y-80402751D01*
X49355141Y-80398154D01*
X49355138Y-80398153D01*
X49355137Y-80398152D01*
X49164956Y-80324476D01*
X49164953Y-80324475D01*
X49164952Y-80324475D01*
X48964476Y-80287000D01*
X48760524Y-80287000D01*
X48560047Y-80324475D01*
X48369858Y-80398154D01*
X48196461Y-80505517D01*
X48045735Y-80642920D01*
X47922826Y-80805680D01*
X47831918Y-80988247D01*
X47776102Y-81184419D01*
X47757284Y-81387500D01*
X47776102Y-81590580D01*
X47831918Y-81786752D01*
X47891088Y-81905581D01*
X47922827Y-81969321D01*
X47964355Y-82024314D01*
X48045735Y-82132079D01*
X48124937Y-82204280D01*
X48196459Y-82269481D01*
X48369863Y-82376848D01*
X48560044Y-82450524D01*
X48760524Y-82488000D01*
X48964476Y-82488000D01*
X49164956Y-82450524D01*
X49355137Y-82376848D01*
X49528541Y-82269481D01*
X49679264Y-82132079D01*
X49705597Y-82097207D01*
X49758087Y-82053621D01*
X49824502Y-82038000D01*
X52524235Y-82038000D01*
X52546060Y-82040409D01*
X52613009Y-82038304D01*
X52620349Y-82038073D01*
X52625030Y-82038000D01*
X52653422Y-82038000D01*
X52653425Y-82038000D01*
X52656626Y-82037595D01*
X52670624Y-82036494D01*
X52709791Y-82035262D01*
X52715069Y-82035097D01*
X52733560Y-82029724D01*
X52756440Y-82024985D01*
X52775558Y-82022571D01*
X52816911Y-82006197D01*
X52830195Y-82001650D01*
X52872892Y-81989246D01*
X52872892Y-81989245D01*
X52872898Y-81989244D01*
X52889479Y-81979436D01*
X52910461Y-81969158D01*
X52928371Y-81962068D01*
X52964358Y-81935921D01*
X52976077Y-81928224D01*
X53014365Y-81905581D01*
X53027984Y-81891960D01*
X53045765Y-81876776D01*
X53061337Y-81865463D01*
X53089691Y-81831187D01*
X53099119Y-81820825D01*
X54076989Y-80842955D01*
X54094115Y-80829236D01*
X54097362Y-80825778D01*
X54097366Y-80825776D01*
X54104384Y-80818302D01*
X54163409Y-80779795D01*
X54233530Y-80772721D01*
X54299058Y-80798665D01*
X54345332Y-80851822D01*
X54362000Y-80920300D01*
X54362000Y-84764914D01*
X54350658Y-84821934D01*
X54318359Y-84870273D01*
X49595273Y-89593359D01*
X49546934Y-89625658D01*
X49489914Y-89637000D01*
X49054707Y-89637000D01*
X49000881Y-89626938D01*
X48954326Y-89598112D01*
X48949112Y-89593359D01*
X48913826Y-89561191D01*
X48808800Y-89465445D01*
X48627524Y-89353204D01*
X48627519Y-89353202D01*
X48428698Y-89276179D01*
X48428695Y-89276178D01*
X48428694Y-89276178D01*
X48219110Y-89237000D01*
X48005890Y-89237000D01*
X47796305Y-89276178D01*
X47597475Y-89353204D01*
X47416199Y-89465446D01*
X47258627Y-89609093D01*
X47130133Y-89779245D01*
X47035095Y-89970108D01*
X46976743Y-90175192D01*
X46957070Y-90387500D01*
X46976743Y-90599807D01*
X47035095Y-90804891D01*
X47130133Y-90995754D01*
X47258627Y-91165906D01*
X47416199Y-91309553D01*
X47597475Y-91421795D01*
X47597478Y-91421796D01*
X47597481Y-91421798D01*
X47796302Y-91498821D01*
X48005890Y-91538000D01*
X48219110Y-91538000D01*
X48428698Y-91498821D01*
X48627519Y-91421798D01*
X48627524Y-91421795D01*
X48808800Y-91309554D01*
X48954326Y-91176888D01*
X49000881Y-91148062D01*
X49054707Y-91138000D01*
X49796973Y-91138000D01*
X49818567Y-91139572D01*
X49840523Y-91142789D01*
X49840523Y-91142788D01*
X49840524Y-91142789D01*
X49888783Y-91138567D01*
X49901769Y-91138000D01*
X49906207Y-91138000D01*
X49906209Y-91138000D01*
X49936663Y-91134439D01*
X49940910Y-91134006D01*
X50015297Y-91127499D01*
X50015300Y-91127497D01*
X50018534Y-91127215D01*
X50033691Y-91123855D01*
X50036750Y-91122741D01*
X50036755Y-91122741D01*
X50106931Y-91097198D01*
X50110981Y-91095792D01*
X50184921Y-91071291D01*
X50198901Y-91064522D01*
X50201612Y-91062738D01*
X50201617Y-91062737D01*
X50264009Y-91021700D01*
X50267591Y-91019418D01*
X50331156Y-90980212D01*
X50331158Y-90980209D01*
X50333927Y-90978502D01*
X50345957Y-90968702D01*
X50348192Y-90966332D01*
X50348196Y-90966330D01*
X50399419Y-90912035D01*
X50402370Y-90908996D01*
X52929930Y-88381436D01*
X58283168Y-88381436D01*
X58313634Y-88554211D01*
X58349251Y-88636779D01*
X58383123Y-88715304D01*
X58487890Y-88856030D01*
X58622286Y-88968802D01*
X58779067Y-89047540D01*
X58949779Y-89088000D01*
X59081204Y-89088000D01*
X59081209Y-89088000D01*
X59211755Y-89072741D01*
X59376617Y-89012737D01*
X59523196Y-88916330D01*
X59643592Y-88788718D01*
X59731312Y-88636781D01*
X59781630Y-88468710D01*
X59791831Y-88293565D01*
X59776441Y-88206288D01*
X59761365Y-88120788D01*
X59740423Y-88072241D01*
X59691877Y-87959696D01*
X59587110Y-87818970D01*
X59452714Y-87706198D01*
X59452713Y-87706197D01*
X59295935Y-87627461D01*
X59295934Y-87627460D01*
X59295933Y-87627460D01*
X59125221Y-87587000D01*
X58993791Y-87587000D01*
X58921265Y-87595477D01*
X58863241Y-87602259D01*
X58698385Y-87662261D01*
X58551804Y-87758670D01*
X58431408Y-87886282D01*
X58343686Y-88038220D01*
X58293370Y-88206288D01*
X58283168Y-88381436D01*
X52929930Y-88381436D01*
X55596852Y-85714513D01*
X55613227Y-85700362D01*
X55631030Y-85687110D01*
X55662166Y-85650003D01*
X55670953Y-85640413D01*
X55674090Y-85637277D01*
X55693091Y-85613243D01*
X55695824Y-85609890D01*
X55743802Y-85552714D01*
X55743803Y-85552710D01*
X55745891Y-85550223D01*
X55754232Y-85537130D01*
X55755606Y-85534183D01*
X55755611Y-85534177D01*
X55787178Y-85466479D01*
X55789034Y-85462647D01*
X55822540Y-85395933D01*
X55822541Y-85395927D01*
X55824003Y-85393017D01*
X55829096Y-85378364D01*
X55829753Y-85375177D01*
X55829756Y-85375173D01*
X55844854Y-85302046D01*
X55845768Y-85297920D01*
X55863000Y-85225221D01*
X55863000Y-85225219D01*
X55863749Y-85222059D01*
X55865327Y-85206610D01*
X55865232Y-85203358D01*
X55865233Y-85203356D01*
X55863063Y-85128767D01*
X55863000Y-85124435D01*
X55863000Y-83981436D01*
X58283168Y-83981436D01*
X58313634Y-84154211D01*
X58349251Y-84236779D01*
X58383123Y-84315304D01*
X58487890Y-84456030D01*
X58622286Y-84568802D01*
X58779067Y-84647540D01*
X58949779Y-84688000D01*
X59081204Y-84688000D01*
X59081209Y-84688000D01*
X59211755Y-84672741D01*
X59376617Y-84612737D01*
X59523196Y-84516330D01*
X59643592Y-84388718D01*
X59731312Y-84236781D01*
X59781630Y-84068710D01*
X59791831Y-83893565D01*
X59776441Y-83806288D01*
X59761365Y-83720788D01*
X59740423Y-83672241D01*
X59691877Y-83559696D01*
X59587110Y-83418970D01*
X59452714Y-83306198D01*
X59452713Y-83306197D01*
X59295935Y-83227461D01*
X59295934Y-83227460D01*
X59295933Y-83227460D01*
X59125221Y-83187000D01*
X58993791Y-83187000D01*
X58921265Y-83195477D01*
X58863241Y-83202259D01*
X58698385Y-83262261D01*
X58551804Y-83358670D01*
X58431408Y-83486282D01*
X58343686Y-83638220D01*
X58293370Y-83806288D01*
X58283168Y-83981436D01*
X55863000Y-83981436D01*
X55863000Y-77007500D01*
X58756841Y-77007500D01*
X58777436Y-77242907D01*
X58838597Y-77471163D01*
X58938465Y-77685330D01*
X59074005Y-77878901D01*
X59241099Y-78045995D01*
X59434670Y-78181535D01*
X59648837Y-78281403D01*
X59877092Y-78342563D01*
X60112500Y-78363159D01*
X60347908Y-78342563D01*
X60576163Y-78281403D01*
X60790330Y-78181535D01*
X60983901Y-78045995D01*
X61150995Y-77878901D01*
X61286535Y-77685330D01*
X61386403Y-77471163D01*
X61447563Y-77242908D01*
X61468159Y-77007500D01*
X61447563Y-76772092D01*
X61386403Y-76543837D01*
X61286535Y-76329671D01*
X61150995Y-76136099D01*
X60983901Y-75969005D01*
X60983898Y-75969002D01*
X60827588Y-75859552D01*
X60780886Y-75806299D01*
X60764051Y-75737498D01*
X60780887Y-75668698D01*
X60827586Y-75615447D01*
X60983901Y-75505995D01*
X61150995Y-75338901D01*
X61286535Y-75145330D01*
X61386403Y-74931163D01*
X61447563Y-74702908D01*
X61468159Y-74467500D01*
X61447563Y-74232092D01*
X61386403Y-74003837D01*
X61286535Y-73789671D01*
X61150995Y-73596099D01*
X60983901Y-73429005D01*
X60827589Y-73319554D01*
X60780887Y-73266300D01*
X60764052Y-73197500D01*
X60780887Y-73128700D01*
X60827589Y-73075446D01*
X60836023Y-73069539D01*
X60983901Y-72965995D01*
X61150995Y-72798901D01*
X61286535Y-72605330D01*
X61386403Y-72391163D01*
X61447563Y-72162908D01*
X61468159Y-71927500D01*
X61447563Y-71692092D01*
X61386403Y-71463837D01*
X61286535Y-71249671D01*
X61150995Y-71056099D01*
X61056187Y-70961291D01*
X61018582Y-70897911D01*
X61015952Y-70824260D01*
X61048941Y-70758358D01*
X61109478Y-70716327D01*
X61204587Y-70680853D01*
X61319688Y-70594688D01*
X61405852Y-70479588D01*
X61456098Y-70344873D01*
X61462500Y-70285331D01*
X61462500Y-69637500D01*
X58762500Y-69637500D01*
X58762500Y-70285331D01*
X58768901Y-70344873D01*
X58819147Y-70479588D01*
X58905311Y-70594688D01*
X59020411Y-70680852D01*
X59115522Y-70716327D01*
X59176058Y-70758358D01*
X59209047Y-70824260D01*
X59206417Y-70897911D01*
X59168811Y-70961291D01*
X59074008Y-71056094D01*
X58938464Y-71249672D01*
X58838597Y-71463836D01*
X58777436Y-71692092D01*
X58756841Y-71927500D01*
X58777436Y-72162907D01*
X58828426Y-72353204D01*
X58838597Y-72391163D01*
X58938465Y-72605330D01*
X59074005Y-72798901D01*
X59241099Y-72965995D01*
X59330761Y-73028777D01*
X59397411Y-73075446D01*
X59444113Y-73128700D01*
X59460948Y-73197500D01*
X59444113Y-73266300D01*
X59397411Y-73319554D01*
X59241098Y-73429005D01*
X59074005Y-73596098D01*
X58938464Y-73789672D01*
X58838597Y-74003836D01*
X58777436Y-74232092D01*
X58756841Y-74467499D01*
X58777436Y-74702907D01*
X58799969Y-74787000D01*
X58838597Y-74931163D01*
X58938465Y-75145330D01*
X59074005Y-75338901D01*
X59241099Y-75505995D01*
X59355011Y-75585757D01*
X59397411Y-75615446D01*
X59444113Y-75668700D01*
X59460948Y-75737500D01*
X59444113Y-75806300D01*
X59397411Y-75859554D01*
X59241098Y-75969005D01*
X59074005Y-76136098D01*
X58938464Y-76329672D01*
X58838597Y-76543836D01*
X58777436Y-76772092D01*
X58756841Y-77007500D01*
X55863000Y-77007500D01*
X55863000Y-73913679D01*
X55863252Y-73905015D01*
X55866831Y-73843566D01*
X55865264Y-73834680D01*
X55863000Y-73808803D01*
X55863000Y-69825934D01*
X55875696Y-69765750D01*
X55911619Y-69715822D01*
X55930615Y-69698503D01*
X55966372Y-69665907D01*
X56094866Y-69495755D01*
X56189905Y-69304889D01*
X56237532Y-69137500D01*
X58762500Y-69137500D01*
X59862500Y-69137500D01*
X59862500Y-68037500D01*
X60362500Y-68037500D01*
X60362500Y-69137500D01*
X61462500Y-69137500D01*
X61462500Y-68489669D01*
X61456098Y-68430126D01*
X61405852Y-68295411D01*
X61319688Y-68180311D01*
X61204588Y-68094147D01*
X61069873Y-68043901D01*
X61010331Y-68037500D01*
X60362500Y-68037500D01*
X59862500Y-68037500D01*
X59214669Y-68037500D01*
X59155126Y-68043901D01*
X59020411Y-68094147D01*
X58905311Y-68180311D01*
X58819147Y-68295411D01*
X58768901Y-68430126D01*
X58762500Y-68489669D01*
X58762500Y-69137500D01*
X56237532Y-69137500D01*
X56248256Y-69099810D01*
X56267929Y-68887500D01*
X56248256Y-68675190D01*
X56189905Y-68470111D01*
X56094866Y-68279245D01*
X55966372Y-68109093D01*
X55949977Y-68094147D01*
X55911619Y-68059178D01*
X55875696Y-68009250D01*
X55863000Y-67949066D01*
X55863000Y-62167019D01*
X55877890Y-62102092D01*
X55919585Y-62050141D01*
X55979751Y-62021551D01*
X56046362Y-62022035D01*
X56106105Y-62051498D01*
X56147040Y-62104049D01*
X56224965Y-62271160D01*
X56224966Y-62271162D01*
X56351674Y-62452120D01*
X56507880Y-62608326D01*
X56688838Y-62735034D01*
X56786602Y-62780622D01*
X56889049Y-62828394D01*
X57102431Y-62885569D01*
X57102432Y-62885570D01*
X57322500Y-62904823D01*
X57542568Y-62885570D01*
X57755950Y-62828394D01*
X57956162Y-62735034D01*
X58137120Y-62608326D01*
X58293326Y-62452120D01*
X58420034Y-62271162D01*
X58513394Y-62070950D01*
X58570570Y-61857568D01*
X58589823Y-61637500D01*
X58570570Y-61417432D01*
X58523845Y-61243054D01*
X58513394Y-61204049D01*
X58464861Y-61099970D01*
X58451220Y-61027255D01*
X58474236Y-60956942D01*
X58528234Y-60906368D01*
X58599901Y-60888000D01*
X60529914Y-60888000D01*
X60586934Y-60899342D01*
X60635273Y-60931641D01*
X61102615Y-61398983D01*
X61137270Y-61453380D01*
X61145689Y-61517326D01*
X61135176Y-61637498D01*
X61154429Y-61857567D01*
X61211605Y-62070950D01*
X61304965Y-62271160D01*
X61304966Y-62271162D01*
X61431674Y-62452120D01*
X61587880Y-62608326D01*
X61768838Y-62735034D01*
X61866602Y-62780622D01*
X61969049Y-62828394D01*
X62182431Y-62885569D01*
X62182432Y-62885570D01*
X62402500Y-62904823D01*
X62622568Y-62885570D01*
X62835950Y-62828394D01*
X63036162Y-62735034D01*
X63217120Y-62608326D01*
X63373326Y-62452120D01*
X63500034Y-62271162D01*
X63593394Y-62070950D01*
X63650570Y-61857568D01*
X63669823Y-61637500D01*
X63650570Y-61417432D01*
X63593394Y-61204050D01*
X63500034Y-61003839D01*
X63453398Y-60937236D01*
X63373327Y-60822881D01*
X63217120Y-60666674D01*
X63217119Y-60666673D01*
X63036162Y-60539966D01*
X63036160Y-60539965D01*
X62835950Y-60446605D01*
X62622567Y-60389429D01*
X62402498Y-60370176D01*
X62282326Y-60380689D01*
X62218380Y-60372270D01*
X62163983Y-60337615D01*
X61479514Y-59653146D01*
X61465359Y-59636767D01*
X61452110Y-59618970D01*
X61415005Y-59587835D01*
X61405422Y-59579054D01*
X61402277Y-59575909D01*
X61378242Y-59556905D01*
X61374880Y-59554166D01*
X61315227Y-59504111D01*
X61302120Y-59495761D01*
X61262350Y-59477216D01*
X61231508Y-59462834D01*
X61227640Y-59460961D01*
X61160933Y-59427460D01*
X61160931Y-59427459D01*
X61158027Y-59426001D01*
X61143348Y-59420898D01*
X61067047Y-59405142D01*
X61062819Y-59404205D01*
X60987054Y-59386249D01*
X60971608Y-59384671D01*
X60899204Y-59386778D01*
X60893747Y-59386937D01*
X60889414Y-59387000D01*
X56191138Y-59387000D01*
X56122333Y-59370162D01*
X56085393Y-59337763D01*
X56083316Y-59339841D01*
X56008614Y-59265139D01*
X55919377Y-59175902D01*
X55919373Y-59175899D01*
X55910159Y-59166685D01*
X55912236Y-59164607D01*
X55879838Y-59127668D01*
X55863000Y-59058863D01*
X55863000Y-57953027D01*
X55864573Y-57931432D01*
X55867789Y-57909477D01*
X55863566Y-57861218D01*
X55863000Y-57848234D01*
X55863000Y-57843789D01*
X55859444Y-57813370D01*
X55859003Y-57809056D01*
X55852214Y-57731459D01*
X55848854Y-57716304D01*
X55847741Y-57713245D01*
X55822189Y-57643043D01*
X55820798Y-57639038D01*
X55797314Y-57568166D01*
X55797313Y-57568165D01*
X55796293Y-57565085D01*
X55789522Y-57551098D01*
X55787737Y-57548385D01*
X55787737Y-57548383D01*
X55746690Y-57485974D01*
X55744406Y-57482388D01*
X55705212Y-57418844D01*
X55705211Y-57418843D01*
X55703507Y-57416080D01*
X55693697Y-57404036D01*
X55637056Y-57350598D01*
X55633947Y-57347579D01*
X50798867Y-52512499D01*
X54182223Y-52512499D01*
X54201292Y-52730476D01*
X54257925Y-52941830D01*
X54350399Y-53140142D01*
X54475899Y-53319374D01*
X54630625Y-53474100D01*
X54809857Y-53599600D01*
X54809860Y-53599601D01*
X54809861Y-53599602D01*
X55008170Y-53692075D01*
X55219523Y-53748707D01*
X55437500Y-53767777D01*
X55655477Y-53748707D01*
X55866830Y-53692075D01*
X56065139Y-53599602D01*
X56244377Y-53474098D01*
X56399098Y-53319377D01*
X56464106Y-53226535D01*
X56517359Y-53179835D01*
X56586159Y-53163000D01*
X58713841Y-53163000D01*
X58782641Y-53179835D01*
X58835893Y-53226535D01*
X58900902Y-53319377D01*
X59055623Y-53474098D01*
X59055626Y-53474100D01*
X59234857Y-53599600D01*
X59234860Y-53599601D01*
X59234861Y-53599602D01*
X59433170Y-53692075D01*
X59644523Y-53748707D01*
X59862500Y-53767777D01*
X60080477Y-53748707D01*
X60291830Y-53692075D01*
X60490139Y-53599602D01*
X60669377Y-53474098D01*
X60824098Y-53319377D01*
X60949602Y-53140139D01*
X61042075Y-52941830D01*
X61098707Y-52730477D01*
X61117777Y-52512500D01*
X61098707Y-52294523D01*
X61042075Y-52083170D01*
X60949602Y-51884862D01*
X60824098Y-51705623D01*
X60669377Y-51550902D01*
X60669376Y-51550901D01*
X60669374Y-51550899D01*
X60490142Y-51425399D01*
X60291830Y-51332925D01*
X60080476Y-51276292D01*
X59862500Y-51257223D01*
X59644523Y-51276292D01*
X59433169Y-51332924D01*
X59234863Y-51425397D01*
X59055622Y-51550902D01*
X58900902Y-51705622D01*
X58835895Y-51798463D01*
X58782642Y-51845165D01*
X58713841Y-51862000D01*
X56586159Y-51862000D01*
X56517358Y-51845165D01*
X56464105Y-51798463D01*
X56399097Y-51705622D01*
X56244374Y-51550899D01*
X56065142Y-51425399D01*
X55866830Y-51332925D01*
X55655476Y-51276292D01*
X55437500Y-51257223D01*
X55219523Y-51276292D01*
X55008169Y-51332924D01*
X54809863Y-51425397D01*
X54630622Y-51550902D01*
X54475902Y-51705622D01*
X54350397Y-51884863D01*
X54257924Y-52083169D01*
X54201292Y-52294523D01*
X54182223Y-52512499D01*
X50798867Y-52512499D01*
X45898867Y-47612499D01*
X54432223Y-47612499D01*
X54451292Y-47830476D01*
X54507925Y-48041830D01*
X54600399Y-48240142D01*
X54725899Y-48419374D01*
X54880625Y-48574100D01*
X55059857Y-48699600D01*
X55059860Y-48699601D01*
X55059861Y-48699602D01*
X55258170Y-48792075D01*
X55469523Y-48848707D01*
X55687500Y-48867777D01*
X55905477Y-48848707D01*
X56116830Y-48792075D01*
X56315139Y-48699602D01*
X56494377Y-48574098D01*
X56649098Y-48419377D01*
X56714106Y-48326535D01*
X56767359Y-48279835D01*
X56836159Y-48263000D01*
X58713841Y-48263000D01*
X58782641Y-48279835D01*
X58835893Y-48326535D01*
X58900902Y-48419377D01*
X59055623Y-48574098D01*
X59055626Y-48574100D01*
X59234857Y-48699600D01*
X59234860Y-48699601D01*
X59234861Y-48699602D01*
X59433170Y-48792075D01*
X59644523Y-48848707D01*
X59862500Y-48867777D01*
X60080477Y-48848707D01*
X60291830Y-48792075D01*
X60490139Y-48699602D01*
X60669377Y-48574098D01*
X60824098Y-48419377D01*
X60949602Y-48240139D01*
X61042075Y-48041830D01*
X61098707Y-47830477D01*
X61117777Y-47612500D01*
X61098707Y-47394523D01*
X61053659Y-47226402D01*
X61042075Y-47183169D01*
X60949602Y-46984863D01*
X60949602Y-46984862D01*
X60824098Y-46805623D01*
X60669377Y-46650902D01*
X60669374Y-46650899D01*
X60490142Y-46525399D01*
X60291830Y-46432925D01*
X60080476Y-46376292D01*
X59862500Y-46357223D01*
X59644523Y-46376292D01*
X59433169Y-46432924D01*
X59234863Y-46525397D01*
X59055622Y-46650902D01*
X58900902Y-46805622D01*
X58835895Y-46898463D01*
X58782642Y-46945165D01*
X58713841Y-46962000D01*
X56836159Y-46962000D01*
X56767358Y-46945165D01*
X56714105Y-46898463D01*
X56649098Y-46805623D01*
X56494377Y-46650902D01*
X56494374Y-46650899D01*
X56315142Y-46525399D01*
X56116830Y-46432925D01*
X55905476Y-46376292D01*
X55687500Y-46357223D01*
X55469523Y-46376292D01*
X55258169Y-46432924D01*
X55059863Y-46525397D01*
X54880622Y-46650902D01*
X54725902Y-46805622D01*
X54600397Y-46984863D01*
X54507924Y-47183169D01*
X54451292Y-47394523D01*
X54432223Y-47612499D01*
X45898867Y-47612499D01*
X44066816Y-45780448D01*
X44052661Y-45764069D01*
X44039412Y-45746272D01*
X44002307Y-45715137D01*
X43992724Y-45706356D01*
X43989579Y-45703211D01*
X43965544Y-45684207D01*
X43962182Y-45681468D01*
X43902529Y-45631413D01*
X43889422Y-45623063D01*
X43849652Y-45604518D01*
X43818810Y-45590136D01*
X43814942Y-45588263D01*
X43748235Y-45554762D01*
X43748233Y-45554761D01*
X43745329Y-45553303D01*
X43730650Y-45548200D01*
X43654349Y-45532444D01*
X43650121Y-45531507D01*
X43574356Y-45513551D01*
X43558910Y-45511973D01*
X43486506Y-45514080D01*
X43481049Y-45514239D01*
X43476716Y-45514302D01*
X43358453Y-45514302D01*
X43289648Y-45497464D01*
X43252708Y-45465065D01*
X43250631Y-45467143D01*
X43086691Y-45303203D01*
X42973520Y-45223959D01*
X42928752Y-45174298D01*
X42910207Y-45110060D01*
X42921621Y-45044180D01*
X42960694Y-44989924D01*
X43019559Y-44958216D01*
X43086359Y-44955443D01*
X43260524Y-44988000D01*
X43464476Y-44988000D01*
X43664956Y-44950524D01*
X43855137Y-44876848D01*
X44028541Y-44769481D01*
X44105871Y-44698985D01*
X44169905Y-44664599D01*
X44242591Y-44664599D01*
X44306629Y-44698986D01*
X44336659Y-44726361D01*
X44383959Y-44769481D01*
X44557363Y-44876848D01*
X44747544Y-44950524D01*
X44948024Y-44988000D01*
X45151976Y-44988000D01*
X45352456Y-44950524D01*
X45542637Y-44876848D01*
X45716041Y-44769481D01*
X45793371Y-44698985D01*
X45857405Y-44664599D01*
X45930091Y-44664599D01*
X45994129Y-44698986D01*
X46024159Y-44726361D01*
X46071459Y-44769481D01*
X46244863Y-44876848D01*
X46435044Y-44950524D01*
X46635524Y-44988000D01*
X46839476Y-44988000D01*
X47039956Y-44950524D01*
X47230137Y-44876848D01*
X47403541Y-44769481D01*
X47480871Y-44698985D01*
X47544905Y-44664599D01*
X47617591Y-44664599D01*
X47681629Y-44698986D01*
X47711659Y-44726361D01*
X47758959Y-44769481D01*
X47932363Y-44876848D01*
X48122544Y-44950524D01*
X48323024Y-44988000D01*
X48526976Y-44988000D01*
X48727456Y-44950524D01*
X48917637Y-44876848D01*
X49091041Y-44769481D01*
X49168371Y-44698985D01*
X49232405Y-44664599D01*
X49305091Y-44664599D01*
X49369129Y-44698986D01*
X49399159Y-44726361D01*
X49446459Y-44769481D01*
X49619863Y-44876848D01*
X49810044Y-44950524D01*
X50010524Y-44988000D01*
X50214476Y-44988000D01*
X50414956Y-44950524D01*
X50605137Y-44876848D01*
X50778541Y-44769481D01*
X50887120Y-44670497D01*
X50951155Y-44636111D01*
X51023842Y-44636111D01*
X51087879Y-44670498D01*
X51134808Y-44713279D01*
X51196459Y-44769481D01*
X51369863Y-44876848D01*
X51560044Y-44950524D01*
X51760524Y-44988000D01*
X51964476Y-44988000D01*
X52164956Y-44950524D01*
X52355137Y-44876848D01*
X52528541Y-44769481D01*
X52630111Y-44676887D01*
X52676667Y-44648062D01*
X52730492Y-44638000D01*
X52796973Y-44638000D01*
X52818567Y-44639572D01*
X52840523Y-44642789D01*
X52840523Y-44642788D01*
X52840524Y-44642789D01*
X52888783Y-44638567D01*
X52901769Y-44638000D01*
X52906207Y-44638000D01*
X52906209Y-44638000D01*
X52936663Y-44634439D01*
X52940910Y-44634006D01*
X53015297Y-44627499D01*
X53015300Y-44627497D01*
X53018534Y-44627215D01*
X53033691Y-44623855D01*
X53036750Y-44622741D01*
X53036755Y-44622741D01*
X53106931Y-44597198D01*
X53110981Y-44595792D01*
X53184921Y-44571291D01*
X53198901Y-44564522D01*
X53201612Y-44562738D01*
X53201617Y-44562737D01*
X53264009Y-44521700D01*
X53267591Y-44519418D01*
X53331156Y-44480212D01*
X53331158Y-44480209D01*
X53333927Y-44478502D01*
X53345954Y-44468705D01*
X53348192Y-44466332D01*
X53348196Y-44466330D01*
X53399433Y-44412020D01*
X53402387Y-44408979D01*
X55846859Y-41964507D01*
X55863234Y-41950357D01*
X55881030Y-41937110D01*
X55912160Y-41900010D01*
X55920947Y-41890420D01*
X55924091Y-41887277D01*
X55943092Y-41863245D01*
X55945833Y-41859880D01*
X55947557Y-41857825D01*
X55993802Y-41802714D01*
X55993804Y-41802708D01*
X55995893Y-41800220D01*
X56004233Y-41787130D01*
X56005608Y-41784180D01*
X56005611Y-41784177D01*
X56037178Y-41716478D01*
X56039047Y-41712621D01*
X56041049Y-41708635D01*
X56072540Y-41645933D01*
X56072540Y-41645931D01*
X56074003Y-41643019D01*
X56079098Y-41628360D01*
X56079755Y-41625176D01*
X56079757Y-41625173D01*
X56094865Y-41551999D01*
X56095773Y-41547902D01*
X56113000Y-41475221D01*
X56113000Y-41475215D01*
X56113750Y-41472051D01*
X56115328Y-41456608D01*
X56115233Y-41453358D01*
X56115234Y-41453356D01*
X56113062Y-41378747D01*
X56113000Y-41374414D01*
X56113000Y-37453027D01*
X56114573Y-37431432D01*
X56117789Y-37409477D01*
X56113566Y-37361218D01*
X56113000Y-37348234D01*
X56113000Y-37343789D01*
X56109444Y-37313370D01*
X56109003Y-37309056D01*
X56102214Y-37231459D01*
X56098854Y-37216304D01*
X56097741Y-37213245D01*
X56072189Y-37143043D01*
X56070798Y-37139038D01*
X56047314Y-37068166D01*
X56047313Y-37068165D01*
X56046293Y-37065085D01*
X56039522Y-37051098D01*
X56037737Y-37048385D01*
X56037737Y-37048383D01*
X55996690Y-36985974D01*
X55994406Y-36982388D01*
X55955212Y-36918844D01*
X55955211Y-36918843D01*
X55953507Y-36916080D01*
X55943697Y-36904036D01*
X55887056Y-36850598D01*
X55883947Y-36847579D01*
X55189514Y-36153146D01*
X55175359Y-36136767D01*
X55162110Y-36118970D01*
X55125005Y-36087835D01*
X55115422Y-36079054D01*
X55112277Y-36075909D01*
X55088242Y-36056905D01*
X55084880Y-36054166D01*
X55025227Y-36004111D01*
X55012120Y-35995761D01*
X54972350Y-35977216D01*
X54941508Y-35962834D01*
X54937640Y-35960961D01*
X54870933Y-35927460D01*
X54868024Y-35925999D01*
X54846377Y-35918473D01*
X54842295Y-35916569D01*
X54793968Y-35880585D01*
X54763843Y-35828403D01*
X54727314Y-35718167D01*
X54727314Y-35718166D01*
X54677559Y-35637500D01*
X59857051Y-35637500D01*
X59876817Y-35888651D01*
X59935626Y-36133610D01*
X60032033Y-36366358D01*
X60163662Y-36581156D01*
X60163664Y-36581159D01*
X60327276Y-36772724D01*
X60518841Y-36936336D01*
X60733641Y-37067966D01*
X60966389Y-37164373D01*
X61211352Y-37223183D01*
X61462500Y-37242949D01*
X61713648Y-37223183D01*
X61958611Y-37164373D01*
X62191359Y-37067966D01*
X62406159Y-36936336D01*
X62597724Y-36772724D01*
X62761336Y-36581159D01*
X62892966Y-36366359D01*
X62989373Y-36133611D01*
X63048183Y-35888648D01*
X63067949Y-35637500D01*
X63048183Y-35386352D01*
X62989373Y-35141389D01*
X62892966Y-34908641D01*
X62761336Y-34693841D01*
X62597724Y-34502276D01*
X62406159Y-34338664D01*
X62406156Y-34338662D01*
X62191358Y-34207033D01*
X61958610Y-34110626D01*
X61713651Y-34051817D01*
X61462500Y-34032051D01*
X61211348Y-34051817D01*
X60966389Y-34110626D01*
X60733641Y-34207033D01*
X60518843Y-34338662D01*
X60327276Y-34502276D01*
X60163662Y-34693843D01*
X60032033Y-34908641D01*
X59935626Y-35141389D01*
X59876817Y-35386348D01*
X59857051Y-35637500D01*
X54677559Y-35637500D01*
X54635212Y-35568844D01*
X54511156Y-35444788D01*
X54361834Y-35352686D01*
X54195297Y-35297501D01*
X54195295Y-35297500D01*
X54195293Y-35297500D01*
X54092513Y-35287000D01*
X52792495Y-35287000D01*
X52689701Y-35297501D01*
X52523166Y-35352686D01*
X52373843Y-35444788D01*
X52249788Y-35568843D01*
X52157686Y-35718165D01*
X52139924Y-35771768D01*
X52105869Y-35828195D01*
X52050804Y-35864412D01*
X52025712Y-35867839D01*
X51099694Y-36793859D01*
X51051355Y-36826158D01*
X50994335Y-36837500D01*
X50810665Y-36837500D01*
X50753645Y-36826158D01*
X50705306Y-36793859D01*
X49787573Y-35876126D01*
X49787572Y-35876126D01*
X49754553Y-35923283D01*
X49701300Y-35969985D01*
X49632499Y-35986821D01*
X49563698Y-35969985D01*
X49510445Y-35923283D01*
X49477425Y-35876127D01*
X48559694Y-36793859D01*
X48511355Y-36826158D01*
X48454335Y-36837500D01*
X48270665Y-36837500D01*
X48213645Y-36826158D01*
X48165306Y-36793859D01*
X47247573Y-35876126D01*
X47247572Y-35876126D01*
X47214859Y-35922846D01*
X47161606Y-35969548D01*
X47092806Y-35986384D01*
X47024005Y-35969549D01*
X46970751Y-35922847D01*
X46912970Y-35840328D01*
X46860995Y-35766099D01*
X46693901Y-35599005D01*
X46584745Y-35522573D01*
X47601126Y-35522573D01*
X48362499Y-36283946D01*
X49123872Y-35522573D01*
X50141126Y-35522573D01*
X50902499Y-36283946D01*
X51663872Y-35522573D01*
X51580077Y-35463899D01*
X51365991Y-35364069D01*
X51137820Y-35302930D01*
X50902500Y-35282343D01*
X50667179Y-35302930D01*
X50439009Y-35364068D01*
X50224921Y-35463900D01*
X50141126Y-35522573D01*
X49123872Y-35522573D01*
X49040077Y-35463899D01*
X48825991Y-35364069D01*
X48597820Y-35302930D01*
X48362500Y-35282343D01*
X48127179Y-35302930D01*
X47899009Y-35364068D01*
X47684921Y-35463900D01*
X47601126Y-35522573D01*
X46584745Y-35522573D01*
X46500330Y-35463465D01*
X46286163Y-35363597D01*
X46057907Y-35302436D01*
X45822500Y-35281841D01*
X45587092Y-35302436D01*
X45358836Y-35363597D01*
X45144672Y-35463464D01*
X44951098Y-35599005D01*
X44784005Y-35766098D01*
X44674248Y-35922848D01*
X44620994Y-35969550D01*
X44552194Y-35986385D01*
X44483393Y-35969549D01*
X44430140Y-35922847D01*
X44397425Y-35876126D01*
X43282500Y-36991053D01*
X42521125Y-37752426D01*
X42567848Y-37785141D01*
X42614550Y-37838394D01*
X42631385Y-37907195D01*
X42614550Y-37975996D01*
X42567848Y-38029248D01*
X42513949Y-38066988D01*
X42411098Y-38139005D01*
X42244005Y-38306098D01*
X42108464Y-38499672D01*
X42008597Y-38713836D01*
X41947436Y-38942092D01*
X41926841Y-39177500D01*
X41947436Y-39412907D01*
X42008597Y-39641163D01*
X42108465Y-39855330D01*
X42244005Y-40048901D01*
X42411099Y-40215995D01*
X42568464Y-40326183D01*
X42615165Y-40379435D01*
X42632000Y-40448236D01*
X42632000Y-42998491D01*
X42619304Y-43058675D01*
X42583380Y-43108604D01*
X42545735Y-43142920D01*
X42422826Y-43305680D01*
X42331918Y-43488247D01*
X42276102Y-43684419D01*
X42257284Y-43887500D01*
X42276102Y-44090580D01*
X42331918Y-44286752D01*
X42393529Y-44410482D01*
X42422827Y-44469321D01*
X42460651Y-44519408D01*
X42545735Y-44632079D01*
X42671978Y-44747164D01*
X42696459Y-44769481D01*
X42726044Y-44787799D01*
X42775283Y-44837675D01*
X42796273Y-44904545D01*
X42784369Y-44973614D01*
X42742204Y-45029599D01*
X42679107Y-45060113D01*
X42609041Y-45058404D01*
X42497791Y-45028594D01*
X42279815Y-45009525D01*
X42061838Y-45028594D01*
X41850484Y-45085226D01*
X41652178Y-45177699D01*
X41472937Y-45303204D01*
X41318217Y-45457924D01*
X41192712Y-45637165D01*
X41100239Y-45835471D01*
X41043607Y-46046825D01*
X41024538Y-46264802D01*
X41043607Y-46482778D01*
X41100240Y-46694132D01*
X41192714Y-46892444D01*
X41318214Y-47071676D01*
X41472940Y-47226402D01*
X41652172Y-47351902D01*
X41652175Y-47351903D01*
X41652176Y-47351904D01*
X41850485Y-47444377D01*
X42061838Y-47501009D01*
X42279815Y-47520079D01*
X42497792Y-47501009D01*
X42709145Y-47444377D01*
X42907454Y-47351904D01*
X43086692Y-47226400D01*
X43133005Y-47180086D01*
X43181342Y-47147789D01*
X43238362Y-47136447D01*
X43295382Y-47147789D01*
X43343721Y-47180088D01*
X54318359Y-58154726D01*
X54350658Y-58203065D01*
X54362000Y-58260085D01*
X54362000Y-59058862D01*
X54345162Y-59127667D01*
X54312763Y-59164606D01*
X54314841Y-59166684D01*
X54141684Y-59339841D01*
X54139606Y-59337763D01*
X54102667Y-59370162D01*
X54033862Y-59387000D01*
X46691138Y-59387000D01*
X46622333Y-59370162D01*
X46585393Y-59337763D01*
X46583316Y-59339841D01*
X46419374Y-59175899D01*
X46240142Y-59050399D01*
X46041830Y-58957925D01*
X45830476Y-58901292D01*
X45612500Y-58882223D01*
X45394523Y-58901292D01*
X45183169Y-58957924D01*
X44984863Y-59050397D01*
X44805622Y-59175902D01*
X44650902Y-59330622D01*
X44525397Y-59509863D01*
X44432924Y-59708169D01*
X44376292Y-59919523D01*
X44357223Y-60137500D01*
X44360223Y-60171793D01*
X44351805Y-60235738D01*
X44317151Y-60290135D01*
X44262756Y-60324791D01*
X44198810Y-60333212D01*
X44187498Y-60332222D01*
X44063302Y-60343087D01*
X43999356Y-60334668D01*
X43944959Y-60300013D01*
X42344141Y-58699195D01*
X42311842Y-58650856D01*
X42300500Y-58593836D01*
X42300500Y-57786159D01*
X42317335Y-57717359D01*
X42364035Y-57664106D01*
X42456877Y-57599098D01*
X42611598Y-57444377D01*
X42737102Y-57265139D01*
X42829575Y-57066830D01*
X42886207Y-56855477D01*
X42905277Y-56637500D01*
X42886207Y-56419523D01*
X42829575Y-56208170D01*
X42737102Y-56009862D01*
X42611598Y-55830623D01*
X42456877Y-55675902D01*
X42456876Y-55675901D01*
X42456874Y-55675899D01*
X42277642Y-55550399D01*
X42079330Y-55457925D01*
X41867976Y-55401292D01*
X41650000Y-55382223D01*
X41432023Y-55401292D01*
X41220669Y-55457924D01*
X41022363Y-55550397D01*
X40843122Y-55675902D01*
X40688402Y-55830622D01*
X40562897Y-56009863D01*
X40470424Y-56208169D01*
X40413792Y-56419523D01*
X40394723Y-56637499D01*
X40413792Y-56855476D01*
X40470425Y-57066830D01*
X40562898Y-57265140D01*
X40575796Y-57283561D01*
X40602174Y-57356038D01*
X40588780Y-57431993D01*
X40539203Y-57491076D01*
X40466727Y-57517455D01*
X40390771Y-57504062D01*
X40291830Y-57457924D01*
X40080476Y-57401292D01*
X39862500Y-57382223D01*
X39644523Y-57401292D01*
X39433169Y-57457924D01*
X39234863Y-57550397D01*
X39055622Y-57675902D01*
X38900902Y-57830622D01*
X38775397Y-58009863D01*
X38682924Y-58208169D01*
X38626292Y-58419523D01*
X38607223Y-58637499D01*
X32613000Y-58637499D01*
X32613000Y-35637500D01*
X33507051Y-35637500D01*
X33526817Y-35888651D01*
X33585626Y-36133610D01*
X33682033Y-36366358D01*
X33813662Y-36581156D01*
X33813664Y-36581159D01*
X33977276Y-36772724D01*
X34168841Y-36936336D01*
X34383641Y-37067966D01*
X34616389Y-37164373D01*
X34861352Y-37223183D01*
X35112500Y-37242949D01*
X35363648Y-37223183D01*
X35608611Y-37164373D01*
X35841359Y-37067966D01*
X36056159Y-36936336D01*
X36247724Y-36772724D01*
X36363216Y-36637500D01*
X41927343Y-36637500D01*
X41947930Y-36872820D01*
X42009069Y-37100991D01*
X42108899Y-37315077D01*
X42167573Y-37398872D01*
X42928947Y-36637500D01*
X42167573Y-35876126D01*
X42108900Y-35959921D01*
X42009068Y-36174009D01*
X41947930Y-36402179D01*
X41927343Y-36637500D01*
X36363216Y-36637500D01*
X36411336Y-36581159D01*
X36542966Y-36366359D01*
X36639373Y-36133611D01*
X36698183Y-35888648D01*
X36717949Y-35637500D01*
X36708904Y-35522573D01*
X42521126Y-35522573D01*
X43282499Y-36283946D01*
X44043872Y-35522573D01*
X43960077Y-35463899D01*
X43745991Y-35364069D01*
X43517820Y-35302930D01*
X43282500Y-35282343D01*
X43047179Y-35302930D01*
X42819009Y-35364068D01*
X42604921Y-35463900D01*
X42521126Y-35522573D01*
X36708904Y-35522573D01*
X36698183Y-35386352D01*
X36639373Y-35141389D01*
X36542966Y-34908641D01*
X36411336Y-34693841D01*
X36247724Y-34502276D01*
X36056159Y-34338664D01*
X36056156Y-34338662D01*
X35841358Y-34207033D01*
X35608610Y-34110626D01*
X35363651Y-34051817D01*
X35112500Y-34032051D01*
X34861348Y-34051817D01*
X34616389Y-34110626D01*
X34383641Y-34207033D01*
X34168843Y-34338662D01*
X33977276Y-34502276D01*
X33813662Y-34693843D01*
X33682033Y-34908641D01*
X33585626Y-35141389D01*
X33526817Y-35386348D01*
X33507051Y-35637500D01*
X32613000Y-35637500D01*
X32613000Y-32787000D01*
X32624342Y-32729980D01*
X32656641Y-32681641D01*
X32704980Y-32649342D01*
X32762000Y-32638000D01*
X63963000Y-32638000D01*
X64020020Y-32649342D01*
G37*
%TD.AperFunction*%
%TD*%
M02*
