%TF.GenerationSoftware,KiCad,Pcbnew,7.0.1*%
%TF.CreationDate,2023-04-27T15:41:12+07:00*%
%TF.ProjectId,BMP,424d502e-6b69-4636-9164-5f7063625858,rev?*%
%TF.SameCoordinates,Original*%
%TF.FileFunction,Paste,Top*%
%TF.FilePolarity,Positive*%
%FSLAX46Y46*%
G04 Gerber Fmt 4.6, Leading zero omitted, Abs format (unit mm)*
G04 Created by KiCad (PCBNEW 7.0.1) date 2023-04-27 15:41:12*
%MOMM*%
%LPD*%
G01*
G04 APERTURE LIST*
G04 Aperture macros list*
%AMRoundRect*
0 Rectangle with rounded corners*
0 $1 Rounding radius*
0 $2 $3 $4 $5 $6 $7 $8 $9 X,Y pos of 4 corners*
0 Add a 4 corners polygon primitive as box body*
4,1,4,$2,$3,$4,$5,$6,$7,$8,$9,$2,$3,0*
0 Add four circle primitives for the rounded corners*
1,1,$1+$1,$2,$3*
1,1,$1+$1,$4,$5*
1,1,$1+$1,$6,$7*
1,1,$1+$1,$8,$9*
0 Add four rect primitives between the rounded corners*
20,1,$1+$1,$2,$3,$4,$5,0*
20,1,$1+$1,$4,$5,$6,$7,0*
20,1,$1+$1,$6,$7,$8,$9,0*
20,1,$1+$1,$8,$9,$2,$3,0*%
G04 Aperture macros list end*
%ADD10RoundRect,0.237500X0.237500X-0.250000X0.237500X0.250000X-0.237500X0.250000X-0.237500X-0.250000X0*%
%ADD11RoundRect,0.237500X-0.237500X0.250000X-0.237500X-0.250000X0.237500X-0.250000X0.237500X0.250000X0*%
%ADD12RoundRect,0.237500X0.300000X0.237500X-0.300000X0.237500X-0.300000X-0.237500X0.300000X-0.237500X0*%
%ADD13RoundRect,0.250000X0.337500X0.475000X-0.337500X0.475000X-0.337500X-0.475000X0.337500X-0.475000X0*%
%ADD14RoundRect,0.237500X0.250000X0.237500X-0.250000X0.237500X-0.250000X-0.237500X0.250000X-0.237500X0*%
%ADD15RoundRect,0.075000X-0.662500X0.075000X-0.662500X-0.075000X0.662500X-0.075000X0.662500X0.075000X0*%
%ADD16RoundRect,0.075000X-0.075000X0.662500X-0.075000X-0.662500X0.075000X-0.662500X0.075000X0.662500X0*%
%ADD17R,1.700000X2.000000*%
%ADD18R,2.000000X0.500000*%
%ADD19RoundRect,0.150000X-0.150000X0.512500X-0.150000X-0.512500X0.150000X-0.512500X0.150000X0.512500X0*%
%ADD20RoundRect,0.100000X-0.100000X0.637500X-0.100000X-0.637500X0.100000X-0.637500X0.100000X0.637500X0*%
%ADD21RoundRect,0.237500X-0.237500X0.300000X-0.237500X-0.300000X0.237500X-0.300000X0.237500X0.300000X0*%
%ADD22RoundRect,0.237500X0.237500X-0.300000X0.237500X0.300000X-0.237500X0.300000X-0.237500X-0.300000X0*%
%ADD23RoundRect,0.150000X0.150000X-0.587500X0.150000X0.587500X-0.150000X0.587500X-0.150000X-0.587500X0*%
G04 APERTURE END LIST*
D10*
%TO.C,R4*%
X45612500Y-77225000D03*
X45612500Y-79050000D03*
%TD*%
D11*
%TO.C,R1*%
X50112500Y-79050000D03*
X50112500Y-77225000D03*
%TD*%
D12*
%TO.C,C7*%
X53712500Y-55337500D03*
X55437500Y-55337500D03*
%TD*%
D11*
%TO.C,R11*%
X38579166Y-85587500D03*
X38579166Y-83762500D03*
%TD*%
D10*
%TO.C,D3*%
X38579166Y-88050000D03*
X38579166Y-89875000D03*
%TD*%
D13*
%TO.C,C1*%
X45075000Y-82887500D03*
X47150000Y-82887500D03*
%TD*%
D14*
%TO.C,R13*%
X54287500Y-66887500D03*
X56112500Y-66887500D03*
%TD*%
D15*
%TO.C,U1*%
X51025000Y-65137500D03*
X51025000Y-65637500D03*
X51025000Y-66137500D03*
X51025000Y-66637500D03*
X51025000Y-67137500D03*
X51025000Y-67637500D03*
X51025000Y-68137500D03*
X51025000Y-68637500D03*
X51025000Y-69137500D03*
X51025000Y-69637500D03*
X51025000Y-70137500D03*
X51025000Y-70637500D03*
D16*
X49612500Y-72050000D03*
X49112500Y-72050000D03*
X48612500Y-72050000D03*
X48112500Y-72050000D03*
X47612500Y-72050000D03*
X47112500Y-72050000D03*
X46612500Y-72050000D03*
X46112500Y-72050000D03*
X45612500Y-72050000D03*
X45112500Y-72050000D03*
X44612500Y-72050000D03*
X44112500Y-72050000D03*
D15*
X42700000Y-70637500D03*
X42700000Y-70137500D03*
X42700000Y-69637500D03*
X42700000Y-69137500D03*
X42700000Y-68637500D03*
X42700000Y-68137500D03*
X42700000Y-67637500D03*
X42700000Y-67137500D03*
X42700000Y-66637500D03*
X42700000Y-66137500D03*
X42700000Y-65637500D03*
X42700000Y-65137500D03*
D16*
X44112500Y-63725000D03*
X44612500Y-63725000D03*
X45112500Y-63725000D03*
X45612500Y-63725000D03*
X46112500Y-63725000D03*
X46612500Y-63725000D03*
X47112500Y-63725000D03*
X47612500Y-63725000D03*
X48112500Y-63725000D03*
X48612500Y-63725000D03*
X49112500Y-63725000D03*
X49612500Y-63725000D03*
%TD*%
D14*
%TO.C,R8*%
X39950000Y-54387500D03*
X41775000Y-54387500D03*
%TD*%
D17*
%TO.C,CN1*%
X61887500Y-81687500D03*
X56437500Y-81687500D03*
X61887500Y-90587500D03*
X56437500Y-90587500D03*
D18*
X56337500Y-84537500D03*
X56337500Y-85337500D03*
X56337500Y-86137500D03*
X56337500Y-86937500D03*
X56337500Y-87737500D03*
%TD*%
D12*
%TO.C,C6*%
X40000000Y-52512500D03*
X41725000Y-52512500D03*
%TD*%
D19*
%TO.C,U3*%
X48112500Y-88275000D03*
X46212500Y-88275000D03*
X46212500Y-86000000D03*
X47162500Y-86000000D03*
X48112500Y-86000000D03*
%TD*%
D10*
%TO.C,D2*%
X40295834Y-88050000D03*
X40295834Y-89875000D03*
%TD*%
D11*
%TO.C,R12*%
X36862500Y-85587500D03*
X36862500Y-83762500D03*
%TD*%
D20*
%TO.C,U2*%
X50037500Y-53000000D03*
X49387500Y-53000000D03*
X48737500Y-53000000D03*
X48087500Y-53000000D03*
X47437500Y-53000000D03*
X46787500Y-53000000D03*
X46137500Y-53000000D03*
X45487500Y-53000000D03*
X44837500Y-53000000D03*
X44187500Y-53000000D03*
X44187500Y-47275000D03*
X44837500Y-47275000D03*
X45487500Y-47275000D03*
X46137500Y-47275000D03*
X46787500Y-47275000D03*
X47437500Y-47275000D03*
X48087500Y-47275000D03*
X48737500Y-47275000D03*
X49387500Y-47275000D03*
X50037500Y-47275000D03*
%TD*%
D12*
%TO.C,C5*%
X53675000Y-72137500D03*
X55400000Y-72137500D03*
%TD*%
D14*
%TO.C,R6*%
X39950000Y-50637500D03*
X41775000Y-50637500D03*
%TD*%
D21*
%TO.C,C3*%
X53112500Y-65137500D03*
X53112500Y-63412500D03*
%TD*%
D22*
%TO.C,C8*%
X53687500Y-47612500D03*
X53687500Y-49337500D03*
%TD*%
D11*
%TO.C,R5*%
X42112500Y-80800000D03*
X42112500Y-78975000D03*
%TD*%
%TO.C,R2*%
X51862500Y-79050000D03*
X51862500Y-77225000D03*
%TD*%
D10*
%TO.C,D1*%
X42045834Y-88075000D03*
X42045834Y-89900000D03*
%TD*%
D23*
%TO.C,Q1*%
X39500000Y-44387500D03*
X40450000Y-46262500D03*
X38550000Y-46262500D03*
%TD*%
D11*
%TO.C,R7*%
X43862500Y-79050000D03*
X43862500Y-77225000D03*
%TD*%
D10*
%TO.C,D4*%
X36862500Y-88050000D03*
X36862500Y-89875000D03*
%TD*%
D11*
%TO.C,R9*%
X42045834Y-85612500D03*
X42045834Y-83787500D03*
%TD*%
%TO.C,R3*%
X47362500Y-79050000D03*
X47362500Y-77225000D03*
%TD*%
D22*
%TO.C,C4*%
X42362500Y-72775000D03*
X42362500Y-74500000D03*
%TD*%
D11*
%TO.C,R10*%
X40295834Y-85587500D03*
X40295834Y-83762500D03*
%TD*%
D13*
%TO.C,C2*%
X49825000Y-90387500D03*
X51900000Y-90387500D03*
%TD*%
M02*
