%TF.GenerationSoftware,KiCad,Pcbnew,7.0.1*%
%TF.CreationDate,2023-03-17T11:51:17+07:00*%
%TF.ProjectId,BMP,424d502e-6b69-4636-9164-5f7063625858,rev?*%
%TF.SameCoordinates,Original*%
%TF.FileFunction,Copper,L1,Top*%
%TF.FilePolarity,Positive*%
%FSLAX46Y46*%
G04 Gerber Fmt 4.6, Leading zero omitted, Abs format (unit mm)*
G04 Created by KiCad (PCBNEW 7.0.1) date 2023-03-17 11:51:17*
%MOMM*%
%LPD*%
G01*
G04 APERTURE LIST*
G04 Aperture macros list*
%AMRoundRect*
0 Rectangle with rounded corners*
0 $1 Rounding radius*
0 $2 $3 $4 $5 $6 $7 $8 $9 X,Y pos of 4 corners*
0 Add a 4 corners polygon primitive as box body*
4,1,4,$2,$3,$4,$5,$6,$7,$8,$9,$2,$3,0*
0 Add four circle primitives for the rounded corners*
1,1,$1+$1,$2,$3*
1,1,$1+$1,$4,$5*
1,1,$1+$1,$6,$7*
1,1,$1+$1,$8,$9*
0 Add four rect primitives between the rounded corners*
20,1,$1+$1,$2,$3,$4,$5,0*
20,1,$1+$1,$4,$5,$6,$7,0*
20,1,$1+$1,$6,$7,$8,$9,0*
20,1,$1+$1,$8,$9,$2,$3,0*%
G04 Aperture macros list end*
%TA.AperFunction,ComponentPad*%
%ADD10R,1.700000X1.700000*%
%TD*%
%TA.AperFunction,ComponentPad*%
%ADD11O,1.700000X1.700000*%
%TD*%
%TA.AperFunction,SMDPad,CuDef*%
%ADD12RoundRect,0.237500X-0.250000X-0.237500X0.250000X-0.237500X0.250000X0.237500X-0.250000X0.237500X0*%
%TD*%
%TA.AperFunction,SMDPad,CuDef*%
%ADD13RoundRect,0.237500X0.250000X0.237500X-0.250000X0.237500X-0.250000X-0.237500X0.250000X-0.237500X0*%
%TD*%
%TA.AperFunction,SMDPad,CuDef*%
%ADD14RoundRect,0.237500X0.237500X-0.300000X0.237500X0.300000X-0.237500X0.300000X-0.237500X-0.300000X0*%
%TD*%
%TA.AperFunction,ComponentPad*%
%ADD15RoundRect,0.250000X0.600000X0.600000X-0.600000X0.600000X-0.600000X-0.600000X0.600000X-0.600000X0*%
%TD*%
%TA.AperFunction,ComponentPad*%
%ADD16C,1.700000*%
%TD*%
%TA.AperFunction,SMDPad,CuDef*%
%ADD17RoundRect,0.250000X0.475000X-0.337500X0.475000X0.337500X-0.475000X0.337500X-0.475000X-0.337500X0*%
%TD*%
%TA.AperFunction,ComponentPad*%
%ADD18C,1.524000*%
%TD*%
%TA.AperFunction,SMDPad,CuDef*%
%ADD19RoundRect,0.237500X0.237500X-0.250000X0.237500X0.250000X-0.237500X0.250000X-0.237500X-0.250000X0*%
%TD*%
%TA.AperFunction,SMDPad,CuDef*%
%ADD20RoundRect,0.075000X0.662500X0.075000X-0.662500X0.075000X-0.662500X-0.075000X0.662500X-0.075000X0*%
%TD*%
%TA.AperFunction,SMDPad,CuDef*%
%ADD21RoundRect,0.075000X0.075000X0.662500X-0.075000X0.662500X-0.075000X-0.662500X0.075000X-0.662500X0*%
%TD*%
%TA.AperFunction,SMDPad,CuDef*%
%ADD22R,0.500000X2.000000*%
%TD*%
%TA.AperFunction,SMDPad,CuDef*%
%ADD23R,2.000000X1.700000*%
%TD*%
%TA.AperFunction,SMDPad,CuDef*%
%ADD24RoundRect,0.150000X0.512500X0.150000X-0.512500X0.150000X-0.512500X-0.150000X0.512500X-0.150000X0*%
%TD*%
%TA.AperFunction,ComponentPad*%
%ADD25C,1.500000*%
%TD*%
%TA.AperFunction,SMDPad,CuDef*%
%ADD26RoundRect,0.100000X0.637500X0.100000X-0.637500X0.100000X-0.637500X-0.100000X0.637500X-0.100000X0*%
%TD*%
%TA.AperFunction,SMDPad,CuDef*%
%ADD27RoundRect,0.237500X0.300000X0.237500X-0.300000X0.237500X-0.300000X-0.237500X0.300000X-0.237500X0*%
%TD*%
%TA.AperFunction,SMDPad,CuDef*%
%ADD28RoundRect,0.237500X-0.237500X0.300000X-0.237500X-0.300000X0.237500X-0.300000X0.237500X0.300000X0*%
%TD*%
%TA.AperFunction,SMDPad,CuDef*%
%ADD29RoundRect,0.150000X-0.587500X-0.150000X0.587500X-0.150000X0.587500X0.150000X-0.587500X0.150000X0*%
%TD*%
%TA.AperFunction,SMDPad,CuDef*%
%ADD30RoundRect,0.237500X-0.300000X-0.237500X0.300000X-0.237500X0.300000X0.237500X-0.300000X0.237500X0*%
%TD*%
%TA.AperFunction,SMDPad,CuDef*%
%ADD31RoundRect,0.250000X0.337500X0.475000X-0.337500X0.475000X-0.337500X-0.475000X0.337500X-0.475000X0*%
%TD*%
%TA.AperFunction,ViaPad*%
%ADD32C,1.300000*%
%TD*%
%TA.AperFunction,ViaPad*%
%ADD33C,1.200000*%
%TD*%
%TA.AperFunction,Conductor*%
%ADD34C,0.250000*%
%TD*%
%TA.AperFunction,Conductor*%
%ADD35C,0.500000*%
%TD*%
G04 APERTURE END LIST*
D10*
%TO.P,J1,1,Pin_1*%
%TO.N,GND*%
X101000000Y-83250000D03*
D11*
%TO.P,J1,2,Pin_2*%
%TO.N,/TXD*%
X98460000Y-83250000D03*
%TO.P,J1,3,Pin_3*%
%TO.N,/RXD*%
X95920000Y-83250000D03*
%TO.P,J1,4,Pin_4*%
%TO.N,+3.3V*%
X93380000Y-83250000D03*
%TD*%
D12*
%TO.P,R4,1*%
%TO.N,GND*%
X91337500Y-68750000D03*
%TO.P,R4,2*%
%TO.N,/VBUS*%
X93162500Y-68750000D03*
%TD*%
D13*
%TO.P,R1,1*%
%TO.N,/USB_DM*%
X93162500Y-72250000D03*
%TO.P,R1,2*%
%TO.N,Net-(CN1-D-)*%
X91337500Y-72250000D03*
%TD*%
D14*
%TO.P,C7,1*%
%TO.N,GND*%
X115500000Y-82825000D03*
%TO.P,C7,2*%
%TO.N,Net-(U1-PD0)*%
X115500000Y-81100000D03*
%TD*%
D15*
%TO.P,J2,1,Pin_1*%
%TO.N,/TPWR*%
X135500000Y-75080000D03*
D16*
%TO.P,J2,2,Pin_2*%
%TO.N,/TARGET_TMS*%
X132960000Y-75080000D03*
%TO.P,J2,3,Pin_3*%
%TO.N,GND*%
X135500000Y-72540000D03*
%TO.P,J2,4,Pin_4*%
%TO.N,/TARGET_TCK*%
X132960000Y-72540000D03*
%TO.P,J2,5,Pin_5*%
%TO.N,GND*%
X135500000Y-70000000D03*
%TO.P,J2,6,Pin_6*%
%TO.N,/TARGET_TDO*%
X132960000Y-70000000D03*
%TO.P,J2,7,Pin_7*%
%TO.N,unconnected-(J2-Pin_7-Pad7)*%
X135500000Y-67460000D03*
%TO.P,J2,8,Pin_8*%
%TO.N,/TARGET_TDI*%
X132960000Y-67460000D03*
%TO.P,J2,9,Pin_9*%
%TO.N,GND*%
X135500000Y-64920000D03*
%TO.P,J2,10,Pin_10*%
%TO.N,/TARGET_RST*%
X132960000Y-64920000D03*
%TD*%
D13*
%TO.P,R11,1*%
%TO.N,/LED1*%
X89500000Y-60783332D03*
%TO.P,R11,2*%
%TO.N,Net-(D3-A)*%
X87675000Y-60783332D03*
%TD*%
D12*
%TO.P,D3,1,K*%
%TO.N,GND*%
X83387500Y-60783332D03*
%TO.P,D3,2,A*%
%TO.N,Net-(D3-A)*%
X85212500Y-60783332D03*
%TD*%
D17*
%TO.P,C1,1*%
%TO.N,GND*%
X88500000Y-69787500D03*
%TO.P,C1,2*%
%TO.N,+5V*%
X88500000Y-67712500D03*
%TD*%
D18*
%TO.P,SW1,1,1*%
%TO.N,GND*%
X94500000Y-58460000D03*
%TO.P,SW1,2,2*%
%TO.N,/FORCE_BOOTLOADER*%
X94500000Y-63540000D03*
%TD*%
D19*
%TO.P,R13,1*%
%TO.N,GND*%
X103500000Y-79250000D03*
%TO.P,R13,2*%
%TO.N,Net-(U1-BOOT0)*%
X103500000Y-77425000D03*
%TD*%
D20*
%TO.P,U1,1,VBAT*%
%TO.N,+3.3V*%
X106662500Y-72750000D03*
%TO.P,U1,2,PC13*%
%TO.N,unconnected-(U1-PC13-Pad2)*%
X106662500Y-72250000D03*
%TO.P,U1,3,PC14*%
%TO.N,unconnected-(U1-PC14-Pad3)*%
X106662500Y-71750000D03*
%TO.P,U1,4,PC15*%
%TO.N,unconnected-(U1-PC15-Pad4)*%
X106662500Y-71250000D03*
%TO.P,U1,5,PD0*%
%TO.N,Net-(U1-PD0)*%
X106662500Y-70750000D03*
%TO.P,U1,6,PD1*%
%TO.N,Net-(U1-PD1)*%
X106662500Y-70250000D03*
%TO.P,U1,7,NRST*%
%TO.N,unconnected-(U1-NRST-Pad7)*%
X106662500Y-69750000D03*
%TO.P,U1,8,VSSA*%
%TO.N,GND*%
X106662500Y-69250000D03*
%TO.P,U1,9,VDDA*%
%TO.N,+3.3V*%
X106662500Y-68750000D03*
%TO.P,U1,10,PA0*%
%TO.N,unconnected-(U1-PA0-Pad10)*%
X106662500Y-68250000D03*
%TO.P,U1,11,PA1*%
%TO.N,unconnected-(U1-PA1-Pad11)*%
X106662500Y-67750000D03*
%TO.P,U1,12,PA2*%
%TO.N,/RST*%
X106662500Y-67250000D03*
D21*
%TO.P,U1,13,PA3*%
%TO.N,/TDI*%
X105250000Y-65837500D03*
%TO.P,U1,14,PA4*%
%TO.N,/TMS*%
X104750000Y-65837500D03*
%TO.P,U1,15,PA5*%
%TO.N,/TCK*%
X104250000Y-65837500D03*
%TO.P,U1,16,PA6*%
%TO.N,/TDO*%
X103750000Y-65837500D03*
%TO.P,U1,17,PA7*%
%TO.N,unconnected-(U1-PA7-Pad17)*%
X103250000Y-65837500D03*
%TO.P,U1,18,PB0*%
%TO.N,/TARGET_POWER_ADC*%
X102750000Y-65837500D03*
%TO.P,U1,19,PB1*%
%TO.N,/PWR_BR*%
X102250000Y-65837500D03*
%TO.P,U1,20,PB2*%
%TO.N,/LED0*%
X101750000Y-65837500D03*
%TO.P,U1,21,PB10*%
%TO.N,/LED1*%
X101250000Y-65837500D03*
%TO.P,U1,22,PB11*%
%TO.N,/LED2*%
X100750000Y-65837500D03*
%TO.P,U1,23,VSS*%
%TO.N,GND*%
X100250000Y-65837500D03*
%TO.P,U1,24,VDD*%
%TO.N,+3.3V*%
X99750000Y-65837500D03*
D20*
%TO.P,U1,25,PB12*%
%TO.N,/FORCE_BOOTLOADER*%
X98337500Y-67250000D03*
%TO.P,U1,26,PB13*%
%TO.N,/VBUS*%
X98337500Y-67750000D03*
%TO.P,U1,27,PB14*%
%TO.N,unconnected-(U1-PB14-Pad27)*%
X98337500Y-68250000D03*
%TO.P,U1,28,PB15*%
%TO.N,unconnected-(U1-PB15-Pad28)*%
X98337500Y-68750000D03*
%TO.P,U1,29,PA8*%
%TO.N,/USB_ENUMERATE*%
X98337500Y-69250000D03*
%TO.P,U1,30,PA9*%
%TO.N,/TXD*%
X98337500Y-69750000D03*
%TO.P,U1,31,PA10*%
%TO.N,/RXD*%
X98337500Y-70250000D03*
%TO.P,U1,32,PA11*%
%TO.N,/USB_DM*%
X98337500Y-70750000D03*
%TO.P,U1,33,PA12*%
%TO.N,/USB_PM*%
X98337500Y-71250000D03*
%TO.P,U1,34,PA13*%
%TO.N,/RXD*%
X98337500Y-71750000D03*
%TO.P,U1,35,VSS*%
%TO.N,GND*%
X98337500Y-72250000D03*
%TO.P,U1,36,VDD*%
%TO.N,+3.3V*%
X98337500Y-72750000D03*
D21*
%TO.P,U1,37,PA14*%
%TO.N,/TXD*%
X99750000Y-74162500D03*
%TO.P,U1,38,PA15*%
%TO.N,unconnected-(U1-PA15-Pad38)*%
X100250000Y-74162500D03*
%TO.P,U1,39,PB3*%
%TO.N,unconnected-(U1-PB3-Pad39)*%
X100750000Y-74162500D03*
%TO.P,U1,40,PB4*%
%TO.N,+3.3V*%
X101250000Y-74162500D03*
%TO.P,U1,41,PB5*%
X101750000Y-74162500D03*
%TO.P,U1,42,PB6*%
%TO.N,unconnected-(U1-PB6-Pad42)*%
X102250000Y-74162500D03*
%TO.P,U1,43,PB7*%
%TO.N,unconnected-(U1-PB7-Pad43)*%
X102750000Y-74162500D03*
%TO.P,U1,44,BOOT0*%
%TO.N,Net-(U1-BOOT0)*%
X103250000Y-74162500D03*
%TO.P,U1,45,PB8*%
%TO.N,unconnected-(U1-PB8-Pad45)*%
X103750000Y-74162500D03*
%TO.P,U1,46,PB9*%
%TO.N,unconnected-(U1-PB9-Pad46)*%
X104250000Y-74162500D03*
%TO.P,U1,47,VSS*%
%TO.N,GND*%
X104750000Y-74162500D03*
%TO.P,U1,48,VDD*%
%TO.N,+3.3V*%
X105250000Y-74162500D03*
%TD*%
D19*
%TO.P,R8,1*%
%TO.N,/TPWR*%
X116000000Y-63500000D03*
%TO.P,R8,2*%
%TO.N,/TARGET_POWER_ADC*%
X116000000Y-61675000D03*
%TD*%
D22*
%TO.P,CN1,1,VBUS*%
%TO.N,+5V*%
X82650000Y-78200000D03*
%TO.P,CN1,2,D-*%
%TO.N,Net-(CN1-D-)*%
X83450000Y-78200000D03*
%TO.P,CN1,3,D+*%
%TO.N,Net-(CN1-D+)*%
X84250000Y-78200000D03*
%TO.P,CN1,4,ID*%
%TO.N,GND*%
X85050000Y-78200000D03*
%TO.P,CN1,5,GND*%
X85850000Y-78200000D03*
D23*
%TO.P,CN1,6,Shield*%
X79800000Y-78300000D03*
X79800000Y-83750000D03*
X88700000Y-78300000D03*
X88700000Y-83750000D03*
%TD*%
D14*
%TO.P,C6,1*%
%TO.N,GND*%
X117750000Y-63450000D03*
%TO.P,C6,2*%
%TO.N,/TARGET_POWER_ADC*%
X117750000Y-61725000D03*
%TD*%
D24*
%TO.P,U3,1,IN*%
%TO.N,+5V*%
X85275000Y-71250000D03*
%TO.P,U3,2,GND*%
%TO.N,GND*%
X85275000Y-70300000D03*
%TO.P,U3,3,EN*%
%TO.N,+5V*%
X85275000Y-69350000D03*
%TO.P,U3,4,NC*%
%TO.N,unconnected-(U3-NC-Pad4)*%
X83000000Y-69350000D03*
%TO.P,U3,5,OUT*%
%TO.N,+3.3V*%
X83000000Y-71250000D03*
%TD*%
D12*
%TO.P,D2,1,K*%
%TO.N,GND*%
X83387500Y-62500000D03*
%TO.P,D2,2,A*%
%TO.N,Net-(D2-A)*%
X85212500Y-62500000D03*
%TD*%
D13*
%TO.P,R12,1*%
%TO.N,/LED0*%
X89500000Y-59066666D03*
%TO.P,R12,2*%
%TO.N,Net-(D4-A)*%
X87675000Y-59066666D03*
%TD*%
D25*
%TO.P,Y1,1,1*%
%TO.N,Net-(U1-PD1)*%
X119250000Y-76350000D03*
%TO.P,Y1,2,2*%
%TO.N,Net-(U1-PD0)*%
X119250000Y-81250000D03*
%TD*%
D26*
%TO.P,U2,1,A1*%
%TO.N,unconnected-(U2-A1-Pad1)*%
X121862500Y-71275000D03*
%TO.P,U2,2,VCCA*%
%TO.N,/TPWR*%
X121862500Y-70625000D03*
%TO.P,U2,3,A2*%
%TO.N,unconnected-(U2-A2-Pad3)*%
X121862500Y-69975000D03*
%TO.P,U2,4,A3*%
%TO.N,/TARGET_TMS*%
X121862500Y-69325000D03*
%TO.P,U2,5,A4*%
%TO.N,/TARGET_TCK*%
X121862500Y-68675000D03*
%TO.P,U2,6,A5*%
%TO.N,/TARGET_TDO*%
X121862500Y-68025000D03*
%TO.P,U2,7,A6*%
%TO.N,/TARGET_TDI*%
X121862500Y-67375000D03*
%TO.P,U2,8,A7*%
%TO.N,/TARGET_RST*%
X121862500Y-66725000D03*
%TO.P,U2,9,A8*%
%TO.N,unconnected-(U2-A8-Pad9)*%
X121862500Y-66075000D03*
%TO.P,U2,10,OE*%
%TO.N,/TPWR*%
X121862500Y-65425000D03*
%TO.P,U2,11,GND*%
%TO.N,GND*%
X116137500Y-65425000D03*
%TO.P,U2,12,B8*%
X116137500Y-66075000D03*
%TO.P,U2,13,B7*%
%TO.N,/RST*%
X116137500Y-66725000D03*
%TO.P,U2,14,B6*%
%TO.N,/TDI*%
X116137500Y-67375000D03*
%TO.P,U2,15,B5*%
%TO.N,/TDO*%
X116137500Y-68025000D03*
%TO.P,U2,16,B4*%
%TO.N,/TCK*%
X116137500Y-68675000D03*
%TO.P,U2,17,B3*%
%TO.N,/TMS*%
X116137500Y-69325000D03*
%TO.P,U2,18,B2*%
%TO.N,GND*%
X116137500Y-69975000D03*
%TO.P,U2,19,VCCB*%
%TO.N,+3.3V*%
X116137500Y-70625000D03*
%TO.P,U2,20,B1*%
%TO.N,GND*%
X116137500Y-71275000D03*
%TD*%
D14*
%TO.P,C5,1*%
%TO.N,GND*%
X98250000Y-77975000D03*
%TO.P,C5,2*%
%TO.N,+3.3V*%
X98250000Y-76250000D03*
%TD*%
D19*
%TO.P,R6,1*%
%TO.N,GND*%
X119750000Y-63500000D03*
%TO.P,R6,2*%
%TO.N,/TARGET_POWER_ADC*%
X119750000Y-61675000D03*
%TD*%
D18*
%TO.P,SW2,1,1*%
%TO.N,Net-(U1-BOOT0)*%
X108750000Y-80460000D03*
%TO.P,SW2,2,2*%
%TO.N,+3.3V*%
X108750000Y-85540000D03*
%TD*%
D27*
%TO.P,C3,1*%
%TO.N,GND*%
X106975000Y-76250000D03*
%TO.P,C3,2*%
%TO.N,+3.3V*%
X105250000Y-76250000D03*
%TD*%
D28*
%TO.P,C8,1*%
%TO.N,GND*%
X115500000Y-74875000D03*
%TO.P,C8,2*%
%TO.N,Net-(U1-PD1)*%
X115500000Y-76600000D03*
%TD*%
D13*
%TO.P,R5,1*%
%TO.N,/FORCE_BOOTLOADER*%
X93162500Y-65250000D03*
%TO.P,R5,2*%
%TO.N,+3.3V*%
X91337500Y-65250000D03*
%TD*%
%TO.P,R2,1*%
%TO.N,/USB_PM*%
X93162500Y-74000000D03*
%TO.P,R2,2*%
%TO.N,Net-(CN1-D+)*%
X91337500Y-74000000D03*
%TD*%
D12*
%TO.P,D1,1,K*%
%TO.N,GND*%
X83362500Y-64250000D03*
%TO.P,D1,2,A*%
%TO.N,Net-(D1-A)*%
X85187500Y-64250000D03*
%TD*%
D29*
%TO.P,Q1,1,G*%
%TO.N,/PWR_BR*%
X124125000Y-61687500D03*
%TO.P,Q1,2,S*%
%TO.N,+3.3V*%
X124125000Y-63587500D03*
%TO.P,Q1,3,D*%
%TO.N,/TPWR*%
X126000000Y-62637500D03*
%TD*%
D13*
%TO.P,R7,1*%
%TO.N,/VBUS*%
X93162500Y-67000000D03*
%TO.P,R7,2*%
%TO.N,+5V*%
X91337500Y-67000000D03*
%TD*%
D12*
%TO.P,D4,1,K*%
%TO.N,GND*%
X83387500Y-59066666D03*
%TO.P,D4,2,A*%
%TO.N,Net-(D4-A)*%
X85212500Y-59066666D03*
%TD*%
D13*
%TO.P,R9,1*%
%TO.N,+3.3V*%
X89475000Y-64250000D03*
%TO.P,R9,2*%
%TO.N,Net-(D1-A)*%
X87650000Y-64250000D03*
%TD*%
%TO.P,R3,1*%
%TO.N,/USB_ENUMERATE*%
X93162500Y-70500000D03*
%TO.P,R3,2*%
%TO.N,Net-(CN1-D+)*%
X91337500Y-70500000D03*
%TD*%
D30*
%TO.P,C4,1*%
%TO.N,GND*%
X98025000Y-63750000D03*
%TO.P,C4,2*%
%TO.N,+3.3V*%
X99750000Y-63750000D03*
%TD*%
D13*
%TO.P,R10,1*%
%TO.N,/LED2*%
X89500000Y-62500000D03*
%TO.P,R10,2*%
%TO.N,Net-(D2-A)*%
X87675000Y-62500000D03*
%TD*%
D31*
%TO.P,C2,1*%
%TO.N,GND*%
X85037500Y-66750000D03*
%TO.P,C2,2*%
%TO.N,+3.3V*%
X82962500Y-66750000D03*
%TD*%
D32*
%TO.N,GND*%
X87250000Y-71500000D03*
D33*
X96750000Y-65500000D03*
X121500000Y-62250000D03*
D32*
X100000000Y-81000000D03*
X96500000Y-80750000D03*
%TO.N,+3.3V*%
X111250000Y-68750000D03*
X80000000Y-71250000D03*
X96250000Y-78250000D03*
X101500000Y-78250000D03*
X110250000Y-78250000D03*
D33*
X125500000Y-65250000D03*
%TO.N,Net-(CN1-D+)*%
X89000000Y-75750000D03*
X89000000Y-72000000D03*
%TO.N,/RST*%
X109000000Y-67250000D03*
X113250000Y-63000000D03*
%TO.N,/TDI*%
X107000000Y-65000000D03*
X111750000Y-63000000D03*
%TD*%
D34*
%TO.N,GND*%
X91337500Y-68750000D02*
X90000000Y-68750000D01*
X88450000Y-69800000D02*
X88500000Y-69750000D01*
X98025000Y-63750000D02*
X98025000Y-64225000D01*
X88500000Y-69787500D02*
X87962500Y-69787500D01*
X88500000Y-69787500D02*
X88500000Y-70250000D01*
X98337500Y-72250000D02*
X96250000Y-72250000D01*
X106662500Y-69250000D02*
X105250000Y-69250000D01*
X106662500Y-69250000D02*
X107750000Y-69250000D01*
X100250000Y-65837500D02*
X100250000Y-67500000D01*
X98250000Y-77975000D02*
X98250000Y-79250000D01*
X98025000Y-64225000D02*
X96750000Y-65500000D01*
X85325000Y-70250000D02*
X85275000Y-70300000D01*
X104750000Y-74162500D02*
X104750000Y-72750000D01*
X88500000Y-70250000D02*
X87250000Y-71500000D01*
%TO.N,+5V*%
X84675000Y-69350000D02*
X85275000Y-69350000D01*
X85275000Y-69350000D02*
X86862500Y-69350000D01*
X84275000Y-69750000D02*
X84675000Y-69350000D01*
X89787500Y-67712500D02*
X90500000Y-67000000D01*
X84775000Y-71250000D02*
X84275000Y-70750000D01*
X88500000Y-67712500D02*
X89787500Y-67712500D01*
X90500000Y-67000000D02*
X91337500Y-67000000D01*
X85275000Y-71250000D02*
X84775000Y-71250000D01*
X84275000Y-70750000D02*
X84275000Y-69750000D01*
X86862500Y-69350000D02*
X88500000Y-67712500D01*
X82650000Y-73875000D02*
X85275000Y-71250000D01*
X82650000Y-78200000D02*
X82650000Y-73875000D01*
%TO.N,+3.3V*%
X124125000Y-63875000D02*
X125500000Y-65250000D01*
X82962500Y-66750000D02*
X82962500Y-66962500D01*
D35*
X96250000Y-77250000D02*
X96250000Y-78250000D01*
D34*
X84000000Y-68000000D02*
X86250000Y-68000000D01*
X98337500Y-72750000D02*
X98337500Y-76162500D01*
X111250000Y-68750000D02*
X106662500Y-68750000D01*
X105250000Y-76250000D02*
X105250000Y-74162500D01*
X106250000Y-78250000D02*
X105250000Y-77250000D01*
X82962500Y-66962500D02*
X84000000Y-68000000D01*
X89475000Y-65225000D02*
X89500000Y-65250000D01*
X86750000Y-66750000D02*
X88250000Y-65250000D01*
X81500000Y-68212500D02*
X81500000Y-71250000D01*
X81500000Y-71250000D02*
X80000000Y-71250000D01*
X91337500Y-62912500D02*
X92000000Y-62250000D01*
X82962500Y-66750000D02*
X81500000Y-68212500D01*
D35*
X95670000Y-85540000D02*
X108750000Y-85540000D01*
D34*
X105250000Y-73250000D02*
X105250000Y-74162500D01*
X86250000Y-68000000D02*
X86750000Y-67500000D01*
X105750000Y-72750000D02*
X105250000Y-73250000D01*
X113125000Y-70625000D02*
X111250000Y-68750000D01*
X101250000Y-74162500D02*
X101750000Y-74162500D01*
D35*
X101500000Y-78250000D02*
X101500000Y-74250000D01*
X98250000Y-76250000D02*
X97250000Y-76250000D01*
D34*
X105250000Y-77250000D02*
X105250000Y-76250000D01*
X89500000Y-65250000D02*
X91337500Y-65250000D01*
X106662500Y-72750000D02*
X105750000Y-72750000D01*
X83000000Y-71250000D02*
X81500000Y-71250000D01*
X92000000Y-62250000D02*
X98250000Y-62250000D01*
X124125000Y-63587500D02*
X124125000Y-63875000D01*
X91337500Y-65250000D02*
X91337500Y-62912500D01*
X86750000Y-67500000D02*
X86750000Y-66750000D01*
X99750000Y-65837500D02*
X99750000Y-63750000D01*
X89475000Y-64250000D02*
X89475000Y-65225000D01*
X98337500Y-76162500D02*
X98250000Y-76250000D01*
X88250000Y-65250000D02*
X89500000Y-65250000D01*
X98250000Y-62250000D02*
X99750000Y-63750000D01*
X110250000Y-78250000D02*
X106250000Y-78250000D01*
D35*
X97250000Y-76250000D02*
X96250000Y-77250000D01*
X93380000Y-83250000D02*
X95670000Y-85540000D01*
D34*
X116137500Y-70625000D02*
X113125000Y-70625000D01*
%TO.N,/TARGET_POWER_ADC*%
X102750000Y-64340812D02*
X105415812Y-61675000D01*
X102750000Y-65837500D02*
X102750000Y-64340812D01*
X105415812Y-61675000D02*
X119750000Y-61675000D01*
%TO.N,Net-(U1-PD0)*%
X114600000Y-81100000D02*
X115500000Y-81100000D01*
X106662500Y-70750000D02*
X107465685Y-70750000D01*
X113750000Y-77034315D02*
X113750000Y-80250000D01*
X119150000Y-81250000D02*
X119000000Y-81100000D01*
X113750000Y-80250000D02*
X114600000Y-81100000D01*
X107465685Y-70750000D02*
X113750000Y-77034315D01*
X119250000Y-81250000D02*
X119150000Y-81250000D01*
X119000000Y-81100000D02*
X115500000Y-81100000D01*
%TO.N,Net-(U1-PD1)*%
X119250000Y-76350000D02*
X119000000Y-76600000D01*
X106662500Y-70250000D02*
X108250000Y-70250000D01*
X119000000Y-76600000D02*
X115500000Y-76600000D01*
X108250000Y-70250000D02*
X114600000Y-76600000D01*
X114600000Y-76600000D02*
X115500000Y-76600000D01*
%TO.N,Net-(CN1-D-)*%
X89500000Y-73250000D02*
X90500000Y-72250000D01*
X84925000Y-73250000D02*
X89500000Y-73250000D01*
X83450000Y-78200000D02*
X83450000Y-74725000D01*
X83450000Y-74725000D02*
X84925000Y-73250000D01*
X90500000Y-72250000D02*
X91337500Y-72250000D01*
%TO.N,Net-(CN1-D+)*%
X89250000Y-72000000D02*
X90750000Y-70500000D01*
X91337500Y-74000000D02*
X89000000Y-74000000D01*
X84250000Y-74875000D02*
X84250000Y-78200000D01*
X89000000Y-74000000D02*
X89000000Y-75750000D01*
X89000000Y-72000000D02*
X89250000Y-72000000D01*
X85125000Y-74000000D02*
X84250000Y-74875000D01*
X90750000Y-70500000D02*
X91337500Y-70500000D01*
X89000000Y-74000000D02*
X86500000Y-74000000D01*
X86500000Y-74000000D02*
X85125000Y-74000000D01*
%TO.N,Net-(D1-A)*%
X87650000Y-64250000D02*
X85187500Y-64250000D01*
%TO.N,Net-(D2-A)*%
X87675000Y-62500000D02*
X85212500Y-62500000D01*
%TO.N,Net-(D3-A)*%
X87675000Y-60783332D02*
X85212500Y-60783332D01*
%TO.N,Net-(D4-A)*%
X87675000Y-59066666D02*
X85212500Y-59066666D01*
%TO.N,/TXD*%
X99750000Y-74162500D02*
X99750000Y-79250000D01*
X99500000Y-69750000D02*
X98337500Y-69750000D01*
X99750000Y-74162500D02*
X99750000Y-72000000D01*
X99750000Y-79250000D02*
X98460000Y-80540000D01*
X99750000Y-72000000D02*
X100250000Y-71500000D01*
X100250000Y-71500000D02*
X100250000Y-70500000D01*
X98460000Y-80540000D02*
X98460000Y-83250000D01*
X100250000Y-70500000D02*
X99500000Y-69750000D01*
%TO.N,/RXD*%
X99750000Y-71250000D02*
X99750000Y-70750000D01*
X95691852Y-71750000D02*
X94500000Y-72941852D01*
X99250000Y-71750000D02*
X99750000Y-71250000D01*
X94500000Y-81830000D02*
X95920000Y-83250000D01*
X98337500Y-71750000D02*
X95691852Y-71750000D01*
X99750000Y-70750000D02*
X99250000Y-70250000D01*
X94500000Y-72941852D02*
X94500000Y-81830000D01*
X98337500Y-71750000D02*
X99250000Y-71750000D01*
X99250000Y-70250000D02*
X98337500Y-70250000D01*
%TO.N,/TPWR*%
X135670000Y-75080000D02*
X135500000Y-75080000D01*
X117925000Y-65425000D02*
X121862500Y-65425000D01*
X116000000Y-63500000D02*
X117925000Y-65425000D01*
X121862500Y-70625000D02*
X123625000Y-70625000D01*
X133580000Y-77000000D02*
X135500000Y-75080000D01*
X137750000Y-73000000D02*
X135670000Y-75080000D01*
X126000000Y-62637500D02*
X136387500Y-62637500D01*
X130000000Y-77000000D02*
X133580000Y-77000000D01*
X123625000Y-70625000D02*
X130000000Y-77000000D01*
X123362500Y-62637500D02*
X126000000Y-62637500D01*
X136387500Y-62637500D02*
X137750000Y-64000000D01*
X121862500Y-64137500D02*
X123362500Y-62637500D01*
X137750000Y-64000000D02*
X137750000Y-73000000D01*
X121862500Y-65425000D02*
X121862500Y-64137500D01*
%TO.N,/TARGET_TMS*%
X124325000Y-69325000D02*
X130080000Y-75080000D01*
X121862500Y-69325000D02*
X124325000Y-69325000D01*
X130080000Y-75080000D02*
X132960000Y-75080000D01*
%TO.N,/TARGET_TCK*%
X126175000Y-68675000D02*
X130040000Y-72540000D01*
X130040000Y-72540000D02*
X132960000Y-72540000D01*
X121862500Y-68675000D02*
X126175000Y-68675000D01*
%TO.N,/TARGET_TDO*%
X130062500Y-70000000D02*
X132960000Y-70000000D01*
X121862500Y-68025000D02*
X128087500Y-68025000D01*
X128087500Y-68025000D02*
X130062500Y-70000000D01*
%TO.N,/TARGET_TDI*%
X121862500Y-67375000D02*
X132875000Y-67375000D01*
X132875000Y-67375000D02*
X132960000Y-67460000D01*
%TO.N,/TARGET_RST*%
X130205000Y-64920000D02*
X132960000Y-64920000D01*
X121862500Y-66725000D02*
X128400000Y-66725000D01*
X128400000Y-66725000D02*
X130205000Y-64920000D01*
%TO.N,/PWR_BR*%
X102250000Y-65837500D02*
X102250000Y-64204416D01*
X105704416Y-60750000D02*
X123187500Y-60750000D01*
X123187500Y-60750000D02*
X124125000Y-61687500D01*
X102250000Y-64204416D02*
X105704416Y-60750000D01*
%TO.N,/USB_DM*%
X94662500Y-70750000D02*
X98337500Y-70750000D01*
X93162500Y-72250000D02*
X94662500Y-70750000D01*
%TO.N,/USB_PM*%
X95000000Y-71250000D02*
X98337500Y-71250000D01*
X93975000Y-73187500D02*
X93975000Y-72275000D01*
X93162500Y-74000000D02*
X93975000Y-73187500D01*
X93975000Y-72275000D02*
X95000000Y-71250000D01*
%TO.N,/USB_ENUMERATE*%
X97500000Y-69250000D02*
X98337500Y-69250000D01*
X94250000Y-70500000D02*
X94500000Y-70250000D01*
X93162500Y-70500000D02*
X94250000Y-70500000D01*
X94500000Y-70250000D02*
X96500000Y-70250000D01*
X96500000Y-70250000D02*
X97500000Y-69250000D01*
%TO.N,/VBUS*%
X93162500Y-68750000D02*
X96000000Y-68750000D01*
X97000000Y-67750000D02*
X98337500Y-67750000D01*
X96000000Y-68750000D02*
X97000000Y-67750000D01*
X93162500Y-67000000D02*
X93162500Y-68750000D01*
%TO.N,/FORCE_BOOTLOADER*%
X93162500Y-65250000D02*
X94500000Y-65250000D01*
X94500000Y-63540000D02*
X94500000Y-65250000D01*
X96500000Y-67250000D02*
X98337500Y-67250000D01*
X94500000Y-65250000D02*
X96500000Y-67250000D01*
%TO.N,/LED2*%
X91250000Y-61500000D02*
X90350000Y-62400000D01*
X98832995Y-61500000D02*
X91250000Y-61500000D01*
X100750000Y-65837500D02*
X100750000Y-63417005D01*
X90350000Y-62400000D02*
X89600000Y-62400000D01*
X100750000Y-63417005D02*
X98832995Y-61500000D01*
%TO.N,/LED1*%
X101250000Y-65837500D02*
X101250000Y-63280609D01*
X101250000Y-63280609D02*
X98719391Y-60750000D01*
X89533332Y-60750000D02*
X89500000Y-60783332D01*
X98719391Y-60750000D02*
X89533332Y-60750000D01*
%TO.N,/LED0*%
X101750000Y-65837500D02*
X101750000Y-63144213D01*
X91750000Y-60000000D02*
X91000000Y-59250000D01*
X91000000Y-59250000D02*
X89683334Y-59250000D01*
X98605787Y-60000000D02*
X91750000Y-60000000D01*
X101750000Y-63144213D02*
X98605787Y-60000000D01*
X89683334Y-59250000D02*
X89500000Y-59066666D01*
%TO.N,Net-(U1-BOOT0)*%
X104425000Y-77425000D02*
X103500000Y-77425000D01*
X107460000Y-80460000D02*
X104425000Y-77425000D01*
X103250000Y-77175000D02*
X103250000Y-74162500D01*
X108750000Y-80460000D02*
X107460000Y-80460000D01*
X103500000Y-77425000D02*
X103250000Y-77175000D01*
%TO.N,/RST*%
X113250000Y-64526041D02*
X113250000Y-63000000D01*
X116137500Y-66725000D02*
X115448959Y-66725000D01*
X106662500Y-67250000D02*
X109000000Y-67250000D01*
X115448959Y-66725000D02*
X113250000Y-64526041D01*
%TO.N,/TDI*%
X106500000Y-64500000D02*
X107000000Y-65000000D01*
X114875000Y-67375000D02*
X111750000Y-64250000D01*
X105250000Y-64750000D02*
X105500000Y-64500000D01*
X116137500Y-67375000D02*
X114875000Y-67375000D01*
X111750000Y-64250000D02*
X111750000Y-63000000D01*
X105500000Y-64500000D02*
X106500000Y-64500000D01*
X105250000Y-65837500D02*
X105250000Y-64750000D01*
%TO.N,/TMS*%
X104750000Y-64250000D02*
X104750000Y-65837500D01*
X114075000Y-69325000D02*
X108250000Y-63500000D01*
X105500000Y-63500000D02*
X104750000Y-64250000D01*
X116137500Y-69325000D02*
X114075000Y-69325000D01*
X108250000Y-63500000D02*
X105500000Y-63500000D01*
%TO.N,/TCK*%
X104250000Y-64113604D02*
X105313604Y-63050000D01*
X105313604Y-63050000D02*
X108800000Y-63050000D01*
X114425000Y-68675000D02*
X116137500Y-68675000D01*
X108800000Y-63050000D02*
X114425000Y-68675000D01*
X104250000Y-65837500D02*
X104250000Y-64113604D01*
%TO.N,/TDO*%
X114775000Y-68025000D02*
X109350000Y-62600000D01*
X116137500Y-68025000D02*
X114775000Y-68025000D01*
X103750000Y-63977208D02*
X103750000Y-65837500D01*
X109350000Y-62600000D02*
X105127208Y-62600000D01*
X105127208Y-62600000D02*
X103750000Y-63977208D01*
%TD*%
%TA.AperFunction,Conductor*%
%TO.N,GND*%
G36*
X136228841Y-63020536D02*
G01*
X136260959Y-63041996D01*
X137345504Y-64126542D01*
X137366964Y-64158660D01*
X137374500Y-64196546D01*
X137374500Y-72803455D01*
X137366964Y-72841341D01*
X137345503Y-72873459D01*
X136708159Y-73510801D01*
X136657046Y-73537978D01*
X136599473Y-73531927D01*
X136555127Y-73494716D01*
X136539171Y-73439069D01*
X136557060Y-73384012D01*
X136673603Y-73217573D01*
X136773429Y-73003495D01*
X136834569Y-72775318D01*
X136855157Y-72539999D01*
X136834569Y-72304681D01*
X136773429Y-72076504D01*
X136673601Y-71862425D01*
X136614926Y-71778626D01*
X134738626Y-73654926D01*
X134822418Y-73713598D01*
X134987926Y-73790775D01*
X135028161Y-73825139D01*
X135044951Y-73875318D01*
X135033499Y-73926977D01*
X134997077Y-73965359D01*
X134946088Y-73979500D01*
X134852128Y-73979500D01*
X134792515Y-73985909D01*
X134657669Y-74036203D01*
X134542454Y-74122454D01*
X134456203Y-74237669D01*
X134406524Y-74370868D01*
X134405909Y-74372517D01*
X134399520Y-74431945D01*
X134399500Y-74432131D01*
X134399500Y-75608453D01*
X134391964Y-75646339D01*
X134370504Y-75678457D01*
X133453458Y-76595504D01*
X133421340Y-76616964D01*
X133383454Y-76624500D01*
X130196546Y-76624500D01*
X130158660Y-76616964D01*
X130126542Y-76595504D01*
X123925311Y-70394273D01*
X123912435Y-70378416D01*
X123911599Y-70377137D01*
X123905084Y-70367164D01*
X123905083Y-70367162D01*
X123878888Y-70346774D01*
X123869697Y-70338659D01*
X123869696Y-70338658D01*
X123868518Y-70337480D01*
X123852832Y-70326281D01*
X123851170Y-70325094D01*
X123847887Y-70322646D01*
X123802207Y-70287091D01*
X123797040Y-70284431D01*
X123741551Y-70267911D01*
X123737669Y-70266667D01*
X123711940Y-70257835D01*
X123682890Y-70247862D01*
X123677127Y-70247023D01*
X123619299Y-70249415D01*
X123615208Y-70249500D01*
X122944391Y-70249500D01*
X122890815Y-70233751D01*
X122854286Y-70191513D01*
X122846425Y-70136227D01*
X122850500Y-70108258D01*
X122850500Y-69841742D01*
X122848758Y-69829788D01*
X122846425Y-69813772D01*
X122854286Y-69758487D01*
X122890815Y-69716249D01*
X122944391Y-69700500D01*
X124128455Y-69700500D01*
X124166341Y-69708036D01*
X124198459Y-69729496D01*
X129779686Y-75310723D01*
X129792558Y-75326575D01*
X129799916Y-75337836D01*
X129820492Y-75353851D01*
X129826113Y-75358226D01*
X129835305Y-75366342D01*
X129836482Y-75367519D01*
X129853801Y-75379884D01*
X129857083Y-75382331D01*
X129902799Y-75417913D01*
X129907954Y-75420566D01*
X129912798Y-75422008D01*
X129912801Y-75422010D01*
X129963471Y-75437094D01*
X129967320Y-75438328D01*
X130017340Y-75455500D01*
X130017341Y-75455500D01*
X130022109Y-75457137D01*
X130027872Y-75457976D01*
X130032910Y-75457767D01*
X130032912Y-75457768D01*
X130085700Y-75455585D01*
X130089792Y-75455500D01*
X131856293Y-75455500D01*
X131908410Y-75470328D01*
X131944914Y-75510372D01*
X132020325Y-75661818D01*
X132020326Y-75661819D01*
X132020327Y-75661821D01*
X132143236Y-75824579D01*
X132293959Y-75961981D01*
X132467363Y-76069348D01*
X132613535Y-76125975D01*
X132657546Y-76143025D01*
X132858022Y-76180500D01*
X132858024Y-76180500D01*
X133061976Y-76180500D01*
X133061978Y-76180500D01*
X133262453Y-76143025D01*
X133262456Y-76143024D01*
X133452637Y-76069348D01*
X133626041Y-75961981D01*
X133776764Y-75824579D01*
X133899673Y-75661821D01*
X133990582Y-75479250D01*
X134046397Y-75283083D01*
X134065215Y-75080000D01*
X134046397Y-74876917D01*
X133990582Y-74680750D01*
X133899673Y-74498179D01*
X133776764Y-74335421D01*
X133626041Y-74198019D01*
X133452637Y-74090652D01*
X133403316Y-74071545D01*
X133262453Y-74016974D01*
X133061978Y-73979500D01*
X133061976Y-73979500D01*
X132858024Y-73979500D01*
X132858022Y-73979500D01*
X132657546Y-74016974D01*
X132467360Y-74090653D01*
X132293961Y-74198017D01*
X132199451Y-74284174D01*
X132143236Y-74335421D01*
X132112970Y-74375500D01*
X132020325Y-74498181D01*
X131944914Y-74649628D01*
X131908410Y-74689672D01*
X131856293Y-74704500D01*
X130276545Y-74704500D01*
X130238659Y-74696964D01*
X130206541Y-74675504D01*
X124750542Y-69219504D01*
X124723448Y-69168814D01*
X124729082Y-69111614D01*
X124765545Y-69067185D01*
X124820546Y-69050500D01*
X125978455Y-69050500D01*
X126016341Y-69058036D01*
X126048459Y-69079496D01*
X129739686Y-72770723D01*
X129752558Y-72786575D01*
X129759916Y-72797836D01*
X129769172Y-72805040D01*
X129786113Y-72818226D01*
X129795305Y-72826342D01*
X129796482Y-72827519D01*
X129813801Y-72839884D01*
X129817083Y-72842331D01*
X129862799Y-72877913D01*
X129867954Y-72880566D01*
X129872798Y-72882008D01*
X129872801Y-72882010D01*
X129923472Y-72897095D01*
X129927322Y-72898329D01*
X129977340Y-72915500D01*
X129977341Y-72915500D01*
X129982110Y-72917137D01*
X129987871Y-72917976D01*
X129992909Y-72917767D01*
X129992911Y-72917768D01*
X130045699Y-72915585D01*
X130049791Y-72915500D01*
X131856293Y-72915500D01*
X131908410Y-72930328D01*
X131944914Y-72970372D01*
X132020325Y-73121818D01*
X132020326Y-73121819D01*
X132020327Y-73121821D01*
X132143236Y-73284579D01*
X132293959Y-73421981D01*
X132467363Y-73529348D01*
X132608293Y-73583944D01*
X132657546Y-73603025D01*
X132858022Y-73640500D01*
X132858024Y-73640500D01*
X133061976Y-73640500D01*
X133061978Y-73640500D01*
X133262453Y-73603025D01*
X133282835Y-73595129D01*
X133452637Y-73529348D01*
X133626041Y-73421981D01*
X133776764Y-73284579D01*
X133899673Y-73121821D01*
X133990582Y-72939250D01*
X134005168Y-72887985D01*
X134031251Y-72844221D01*
X134075648Y-72819222D01*
X134126598Y-72819614D01*
X134170606Y-72845293D01*
X134196014Y-72889458D01*
X134226570Y-73003495D01*
X134326398Y-73217576D01*
X134385072Y-73301372D01*
X135146445Y-72539999D01*
X134385072Y-71778626D01*
X134326398Y-71862424D01*
X134226570Y-72076505D01*
X134196014Y-72190541D01*
X134170606Y-72234706D01*
X134126598Y-72260385D01*
X134075648Y-72260777D01*
X134031251Y-72235778D01*
X134005167Y-72192012D01*
X133990582Y-72140750D01*
X133899673Y-71958179D01*
X133776764Y-71795421D01*
X133626041Y-71658019D01*
X133620351Y-71654496D01*
X133452639Y-71550653D01*
X133452637Y-71550652D01*
X133401261Y-71530749D01*
X133262453Y-71476974D01*
X133061978Y-71439500D01*
X133061976Y-71439500D01*
X132858024Y-71439500D01*
X132858022Y-71439500D01*
X132657546Y-71476974D01*
X132467360Y-71550653D01*
X132293961Y-71658017D01*
X132151995Y-71787436D01*
X132143236Y-71795421D01*
X132132153Y-71810097D01*
X132020325Y-71958181D01*
X131944914Y-72109628D01*
X131908410Y-72149672D01*
X131856293Y-72164500D01*
X130236546Y-72164500D01*
X130198660Y-72156964D01*
X130166542Y-72135504D01*
X129456110Y-71425072D01*
X134738626Y-71425072D01*
X135499999Y-72186445D01*
X136261372Y-71425072D01*
X136177581Y-71366401D01*
X136163263Y-71359725D01*
X136121606Y-71323193D01*
X136106102Y-71270000D01*
X136121606Y-71216807D01*
X136163263Y-71180275D01*
X136177581Y-71173598D01*
X136261373Y-71114926D01*
X135500000Y-70353553D01*
X134738626Y-71114926D01*
X134822418Y-71173598D01*
X134836737Y-71180275D01*
X134878393Y-71216807D01*
X134893898Y-71269999D01*
X134878394Y-71323192D01*
X134836738Y-71359724D01*
X134822423Y-71366399D01*
X134738626Y-71425072D01*
X129456110Y-71425072D01*
X126600542Y-68569504D01*
X126573448Y-68518814D01*
X126579082Y-68461614D01*
X126615545Y-68417185D01*
X126670546Y-68400500D01*
X127890955Y-68400500D01*
X127928841Y-68408036D01*
X127960958Y-68429495D01*
X128867577Y-69336115D01*
X129762187Y-70230725D01*
X129775058Y-70246575D01*
X129782416Y-70257836D01*
X129808616Y-70278228D01*
X129817797Y-70286335D01*
X129818982Y-70287520D01*
X129836331Y-70299906D01*
X129839615Y-70302355D01*
X129875028Y-70329919D01*
X129885299Y-70337913D01*
X129890454Y-70340566D01*
X129895298Y-70342008D01*
X129895301Y-70342010D01*
X129945971Y-70357094D01*
X129949820Y-70358328D01*
X129999840Y-70375500D01*
X129999841Y-70375500D01*
X130004609Y-70377137D01*
X130010372Y-70377976D01*
X130015410Y-70377767D01*
X130015412Y-70377768D01*
X130068200Y-70375585D01*
X130072292Y-70375500D01*
X131856293Y-70375500D01*
X131908410Y-70390328D01*
X131944914Y-70430372D01*
X132020325Y-70581818D01*
X132020326Y-70581819D01*
X132020327Y-70581821D01*
X132143236Y-70744579D01*
X132293959Y-70881981D01*
X132467363Y-70989348D01*
X132570998Y-71029496D01*
X132657546Y-71063025D01*
X132858022Y-71100500D01*
X132858024Y-71100500D01*
X133061976Y-71100500D01*
X133061978Y-71100500D01*
X133262453Y-71063025D01*
X133265760Y-71061744D01*
X133452637Y-70989348D01*
X133626041Y-70881981D01*
X133776764Y-70744579D01*
X133899673Y-70581821D01*
X133990582Y-70399250D01*
X134005168Y-70347985D01*
X134031251Y-70304221D01*
X134075648Y-70279222D01*
X134126598Y-70279614D01*
X134170606Y-70305293D01*
X134196014Y-70349458D01*
X134226570Y-70463495D01*
X134326398Y-70677576D01*
X134385072Y-70761372D01*
X135146444Y-70000000D01*
X135853553Y-70000000D01*
X136614926Y-70761373D01*
X136673601Y-70677576D01*
X136773429Y-70463495D01*
X136834569Y-70235318D01*
X136855157Y-70000000D01*
X136834569Y-69764681D01*
X136773429Y-69536504D01*
X136673601Y-69322425D01*
X136614926Y-69238626D01*
X135853553Y-70000000D01*
X135146444Y-70000000D01*
X135146445Y-69999999D01*
X134385072Y-69238626D01*
X134326398Y-69322424D01*
X134226570Y-69536505D01*
X134196014Y-69650541D01*
X134170606Y-69694706D01*
X134126598Y-69720385D01*
X134075648Y-69720777D01*
X134031251Y-69695778D01*
X134005167Y-69652012D01*
X133990582Y-69600750D01*
X133899673Y-69418179D01*
X133776764Y-69255421D01*
X133626041Y-69118019D01*
X133620949Y-69114866D01*
X133452639Y-69010653D01*
X133452637Y-69010652D01*
X133399250Y-68989970D01*
X133262453Y-68936974D01*
X133061978Y-68899500D01*
X133061976Y-68899500D01*
X132858024Y-68899500D01*
X132858022Y-68899500D01*
X132657546Y-68936974D01*
X132467360Y-69010653D01*
X132293961Y-69118017D01*
X132190498Y-69212336D01*
X132143236Y-69255421D01*
X132111608Y-69297303D01*
X132020325Y-69418181D01*
X131944914Y-69569628D01*
X131908410Y-69609672D01*
X131856293Y-69624500D01*
X130259045Y-69624500D01*
X130221159Y-69616964D01*
X130189041Y-69595504D01*
X128513042Y-67919504D01*
X128485948Y-67868814D01*
X128491582Y-67811614D01*
X128528045Y-67767185D01*
X128583046Y-67750500D01*
X131823715Y-67750500D01*
X131865093Y-67759562D01*
X131898896Y-67785089D01*
X131918935Y-67822406D01*
X131923812Y-67839546D01*
X131929418Y-67859251D01*
X132020325Y-68041818D01*
X132020326Y-68041819D01*
X132020327Y-68041821D01*
X132143236Y-68204579D01*
X132293959Y-68341981D01*
X132467363Y-68449348D01*
X132598107Y-68499998D01*
X132657546Y-68523025D01*
X132858022Y-68560500D01*
X132858024Y-68560500D01*
X133061976Y-68560500D01*
X133061978Y-68560500D01*
X133262453Y-68523025D01*
X133273323Y-68518814D01*
X133452637Y-68449348D01*
X133626041Y-68341981D01*
X133776764Y-68204579D01*
X133899673Y-68041821D01*
X133990582Y-67859250D01*
X134046397Y-67663083D01*
X134065215Y-67460000D01*
X134394785Y-67460000D01*
X134413603Y-67663083D01*
X134469418Y-67859250D01*
X134469419Y-67859252D01*
X134560325Y-68041818D01*
X134560326Y-68041819D01*
X134560327Y-68041821D01*
X134683236Y-68204579D01*
X134833959Y-68341981D01*
X135007363Y-68449348D01*
X135159658Y-68508347D01*
X135207046Y-68546933D01*
X135222750Y-68605994D01*
X135200784Y-68663022D01*
X135149518Y-68696287D01*
X135036508Y-68726568D01*
X134822424Y-68826398D01*
X134738626Y-68885072D01*
X135499999Y-69646445D01*
X136261372Y-68885072D01*
X136177576Y-68826398D01*
X135963496Y-68726570D01*
X135850481Y-68696288D01*
X135799215Y-68663023D01*
X135777249Y-68605994D01*
X135792953Y-68546933D01*
X135840341Y-68508347D01*
X135992637Y-68449348D01*
X136166041Y-68341981D01*
X136316764Y-68204579D01*
X136439673Y-68041821D01*
X136530582Y-67859250D01*
X136586397Y-67663083D01*
X136605215Y-67460000D01*
X136586397Y-67256917D01*
X136530582Y-67060750D01*
X136439673Y-66878179D01*
X136316764Y-66715421D01*
X136166041Y-66578019D01*
X136166038Y-66578017D01*
X135992639Y-66470653D01*
X135992637Y-66470652D01*
X135840342Y-66411653D01*
X135792952Y-66373065D01*
X135777249Y-66314004D01*
X135799216Y-66256976D01*
X135850482Y-66223711D01*
X135963495Y-66193429D01*
X136177576Y-66093601D01*
X136261373Y-66034926D01*
X135500000Y-65273553D01*
X134738626Y-66034926D01*
X134822423Y-66093601D01*
X135036504Y-66193429D01*
X135149517Y-66223711D01*
X135200783Y-66256976D01*
X135222750Y-66314004D01*
X135207047Y-66373065D01*
X135159657Y-66411653D01*
X135007360Y-66470653D01*
X134833961Y-66578017D01*
X134704679Y-66695873D01*
X134683236Y-66715421D01*
X134663619Y-66741398D01*
X134560325Y-66878181D01*
X134469419Y-67060747D01*
X134469418Y-67060750D01*
X134448955Y-67132669D01*
X134413603Y-67256917D01*
X134394956Y-67458159D01*
X134394785Y-67460000D01*
X134065215Y-67460000D01*
X134046397Y-67256917D01*
X133990582Y-67060750D01*
X133899673Y-66878179D01*
X133776764Y-66715421D01*
X133626041Y-66578019D01*
X133626038Y-66578017D01*
X133452639Y-66470653D01*
X133452637Y-66470652D01*
X133398525Y-66449689D01*
X133262453Y-66396974D01*
X133061978Y-66359500D01*
X133061976Y-66359500D01*
X132858024Y-66359500D01*
X132858022Y-66359500D01*
X132657546Y-66396974D01*
X132467360Y-66470653D01*
X132293961Y-66578017D01*
X132164679Y-66695873D01*
X132143236Y-66715421D01*
X132020327Y-66878179D01*
X131987239Y-66944628D01*
X131950736Y-66984671D01*
X131898619Y-66999500D01*
X128895544Y-66999500D01*
X128840543Y-66982815D01*
X128804080Y-66938386D01*
X128798446Y-66881186D01*
X128825540Y-66830496D01*
X129533734Y-66122303D01*
X130331540Y-65324496D01*
X130363659Y-65303036D01*
X130401545Y-65295500D01*
X131856293Y-65295500D01*
X131908410Y-65310328D01*
X131944914Y-65350372D01*
X132020325Y-65501818D01*
X132020326Y-65501819D01*
X132020327Y-65501821D01*
X132143236Y-65664579D01*
X132293959Y-65801981D01*
X132467363Y-65909348D01*
X132587469Y-65955877D01*
X132657546Y-65983025D01*
X132858022Y-66020500D01*
X132858024Y-66020500D01*
X133061976Y-66020500D01*
X133061978Y-66020500D01*
X133262453Y-65983025D01*
X133262456Y-65983024D01*
X133452637Y-65909348D01*
X133626041Y-65801981D01*
X133776764Y-65664579D01*
X133899673Y-65501821D01*
X133990582Y-65319250D01*
X134005168Y-65267985D01*
X134031251Y-65224221D01*
X134075648Y-65199222D01*
X134126598Y-65199614D01*
X134170606Y-65225293D01*
X134196014Y-65269458D01*
X134226570Y-65383495D01*
X134326398Y-65597576D01*
X134385072Y-65681372D01*
X135146444Y-64920000D01*
X135853553Y-64920000D01*
X136614926Y-65681373D01*
X136673601Y-65597576D01*
X136773429Y-65383495D01*
X136834569Y-65155318D01*
X136855157Y-64920000D01*
X136834569Y-64684681D01*
X136773429Y-64456504D01*
X136673601Y-64242425D01*
X136614926Y-64158626D01*
X135853553Y-64920000D01*
X135146444Y-64920000D01*
X135146445Y-64919999D01*
X134385072Y-64158626D01*
X134326398Y-64242424D01*
X134226570Y-64456505D01*
X134196014Y-64570541D01*
X134170606Y-64614706D01*
X134126598Y-64640385D01*
X134075648Y-64640777D01*
X134031251Y-64615778D01*
X134005167Y-64572012D01*
X133990582Y-64520750D01*
X133899673Y-64338179D01*
X133776764Y-64175421D01*
X133626041Y-64038019D01*
X133601628Y-64022903D01*
X133452639Y-63930653D01*
X133452637Y-63930652D01*
X133402774Y-63911335D01*
X133262453Y-63856974D01*
X133061978Y-63819500D01*
X133061976Y-63819500D01*
X132858024Y-63819500D01*
X132858022Y-63819500D01*
X132657546Y-63856974D01*
X132467360Y-63930653D01*
X132293961Y-64038017D01*
X132174092Y-64147292D01*
X132143236Y-64175421D01*
X132134740Y-64186672D01*
X132020325Y-64338181D01*
X131944914Y-64489628D01*
X131908410Y-64529672D01*
X131856293Y-64544500D01*
X130254210Y-64544500D01*
X130233895Y-64542393D01*
X130220731Y-64539633D01*
X130187784Y-64543740D01*
X130175539Y-64544500D01*
X130173883Y-64544500D01*
X130152873Y-64548005D01*
X130148831Y-64548594D01*
X130091372Y-64555758D01*
X130085822Y-64557536D01*
X130034906Y-64585089D01*
X130031271Y-64586960D01*
X129979265Y-64612384D01*
X129974587Y-64615873D01*
X129935406Y-64658434D01*
X129932574Y-64661386D01*
X128273458Y-66320504D01*
X128241340Y-66341964D01*
X128203454Y-66349500D01*
X122944391Y-66349500D01*
X122890815Y-66333751D01*
X122854286Y-66291513D01*
X122846425Y-66236227D01*
X122850500Y-66208258D01*
X122850500Y-65941743D01*
X122847363Y-65920212D01*
X122840573Y-65873607D01*
X122801400Y-65793477D01*
X122791342Y-65750000D01*
X122801400Y-65706522D01*
X122840573Y-65626393D01*
X122850500Y-65558260D01*
X122850500Y-65291740D01*
X122840573Y-65223607D01*
X122789198Y-65118517D01*
X122706483Y-65035802D01*
X122601393Y-64984427D01*
X122533260Y-64974500D01*
X122533257Y-64974500D01*
X122337000Y-64974500D01*
X122287500Y-64961237D01*
X122251263Y-64925000D01*
X122238000Y-64875500D01*
X122238000Y-64334045D01*
X122245536Y-64296159D01*
X122266996Y-64264042D01*
X122967996Y-63563040D01*
X123018686Y-63535945D01*
X123075885Y-63541579D01*
X123120315Y-63578041D01*
X123137000Y-63633042D01*
X123137000Y-63769020D01*
X123151852Y-63862803D01*
X123206747Y-63970538D01*
X123209450Y-63975842D01*
X123299158Y-64065550D01*
X123412196Y-64123146D01*
X123505981Y-64138000D01*
X123815954Y-64137999D01*
X123853840Y-64145535D01*
X123885958Y-64166995D01*
X124651911Y-64932948D01*
X124678172Y-64979841D01*
X124676062Y-65033544D01*
X124663503Y-65072195D01*
X124647443Y-65224998D01*
X124644815Y-65250000D01*
X124663503Y-65427803D01*
X124718750Y-65597835D01*
X124808141Y-65752665D01*
X124867301Y-65818369D01*
X124927770Y-65885526D01*
X125072406Y-65990612D01*
X125139537Y-66020500D01*
X125235733Y-66063329D01*
X125410609Y-66100500D01*
X125589389Y-66100500D01*
X125589391Y-66100500D01*
X125764267Y-66063329D01*
X125927593Y-65990612D01*
X126072230Y-65885526D01*
X126191859Y-65752665D01*
X126281250Y-65597835D01*
X126336497Y-65427803D01*
X126355185Y-65250000D01*
X126336497Y-65072197D01*
X126281250Y-64902165D01*
X126191859Y-64747335D01*
X126072230Y-64614474D01*
X126072229Y-64614473D01*
X125927593Y-64509387D01*
X125764270Y-64436672D01*
X125764268Y-64436671D01*
X125764267Y-64436671D01*
X125589391Y-64399500D01*
X125410609Y-64399500D01*
X125273445Y-64428654D01*
X125224746Y-64426741D01*
X125182860Y-64401822D01*
X125077197Y-64296159D01*
X124968717Y-64187680D01*
X124943094Y-64143300D01*
X124943094Y-64092054D01*
X124968716Y-64047675D01*
X125040550Y-63975842D01*
X125098146Y-63862804D01*
X125107290Y-63805072D01*
X134738626Y-63805072D01*
X135499999Y-64566445D01*
X136261372Y-63805072D01*
X136177576Y-63746398D01*
X135963495Y-63646570D01*
X135735318Y-63585430D01*
X135500000Y-63564842D01*
X135264681Y-63585430D01*
X135036504Y-63646570D01*
X134822424Y-63746398D01*
X134738626Y-63805072D01*
X125107290Y-63805072D01*
X125113000Y-63769019D01*
X125112999Y-63405982D01*
X125112999Y-63405981D01*
X125112999Y-63405978D01*
X125098147Y-63312196D01*
X125074489Y-63265767D01*
X125063747Y-63217713D01*
X125077484Y-63170427D01*
X125112302Y-63135608D01*
X125159588Y-63121870D01*
X125207641Y-63132610D01*
X125287196Y-63173146D01*
X125380981Y-63188000D01*
X126619018Y-63187999D01*
X126619021Y-63187999D01*
X126712803Y-63173147D01*
X126792358Y-63132611D01*
X126825842Y-63115550D01*
X126899398Y-63041993D01*
X126931513Y-63020536D01*
X126969399Y-63013000D01*
X136190955Y-63013000D01*
X136228841Y-63020536D01*
G37*
%TD.AperFunction*%
%TA.AperFunction,Conductor*%
G36*
X90636845Y-67476036D02*
G01*
X90681503Y-67509464D01*
X90738884Y-67586116D01*
X90794524Y-67627768D01*
X90832479Y-67656181D01*
X90864961Y-67698397D01*
X90870865Y-67751334D01*
X90848482Y-67799669D01*
X90804292Y-67829408D01*
X90773701Y-67839545D01*
X90626962Y-67930055D01*
X90505055Y-68051962D01*
X90414546Y-68198699D01*
X90360318Y-68362350D01*
X90350000Y-68463350D01*
X90350000Y-68499999D01*
X90350001Y-68500000D01*
X91488500Y-68500000D01*
X91538000Y-68513263D01*
X91574237Y-68549500D01*
X91587500Y-68599000D01*
X91587500Y-68901000D01*
X91574237Y-68950500D01*
X91538000Y-68986737D01*
X91488500Y-69000000D01*
X90350002Y-69000000D01*
X90350001Y-69000001D01*
X90350001Y-69036651D01*
X90360317Y-69137648D01*
X90414546Y-69301300D01*
X90505055Y-69448037D01*
X90626962Y-69569944D01*
X90773699Y-69660453D01*
X90804290Y-69670590D01*
X90848481Y-69700329D01*
X90870865Y-69748664D01*
X90864961Y-69801602D01*
X90832479Y-69843818D01*
X90740588Y-69912609D01*
X90738883Y-69913885D01*
X90654787Y-70026221D01*
X90621898Y-70114401D01*
X90602479Y-70146305D01*
X90572622Y-70168744D01*
X90524265Y-70192384D01*
X90519587Y-70195873D01*
X90480406Y-70238434D01*
X90477574Y-70241386D01*
X89497832Y-71221128D01*
X89445869Y-71248466D01*
X89387561Y-71241565D01*
X89331954Y-71216807D01*
X89264268Y-71186671D01*
X89186833Y-71170212D01*
X89089391Y-71149500D01*
X88910609Y-71149500D01*
X88823170Y-71168085D01*
X88735731Y-71186671D01*
X88572409Y-71259387D01*
X88427767Y-71364475D01*
X88308142Y-71497332D01*
X88218750Y-71652164D01*
X88178441Y-71776222D01*
X88163503Y-71822197D01*
X88144815Y-72000000D01*
X88163503Y-72177803D01*
X88218750Y-72347835D01*
X88306602Y-72500000D01*
X88308142Y-72502666D01*
X88427770Y-72635526D01*
X88510189Y-72695408D01*
X88546153Y-72744908D01*
X88546152Y-72806093D01*
X88510189Y-72855593D01*
X88451998Y-72874500D01*
X84974211Y-72874500D01*
X84953895Y-72872393D01*
X84940732Y-72869633D01*
X84907783Y-72873740D01*
X84895538Y-72874500D01*
X84893886Y-72874500D01*
X84888360Y-72875421D01*
X84872882Y-72878004D01*
X84868840Y-72878592D01*
X84811383Y-72885755D01*
X84805821Y-72887537D01*
X84754927Y-72915078D01*
X84751294Y-72916948D01*
X84699263Y-72942386D01*
X84694587Y-72945873D01*
X84655395Y-72988446D01*
X84652563Y-72991398D01*
X83219271Y-74424689D01*
X83203419Y-74437562D01*
X83178652Y-74453745D01*
X83128595Y-74469783D01*
X83077384Y-74457937D01*
X83039454Y-74421546D01*
X83025500Y-74370868D01*
X83025500Y-74071545D01*
X83033036Y-74033659D01*
X83054496Y-74001541D01*
X85226541Y-71829495D01*
X85258659Y-71808035D01*
X85296545Y-71800499D01*
X85819021Y-71800499D01*
X85912803Y-71785647D01*
X85995494Y-71743513D01*
X86025842Y-71728050D01*
X86115550Y-71638342D01*
X86173146Y-71525304D01*
X86188000Y-71431519D01*
X86187999Y-71068482D01*
X86182252Y-71032195D01*
X86185878Y-70986120D01*
X86210030Y-70946708D01*
X86305184Y-70851554D01*
X86388781Y-70710199D01*
X86434599Y-70552492D01*
X86434796Y-70550000D01*
X85124000Y-70550000D01*
X85074500Y-70536737D01*
X85038263Y-70500500D01*
X85025000Y-70451000D01*
X85025000Y-70174973D01*
X87275001Y-70174973D01*
X87285494Y-70277696D01*
X87340642Y-70444122D01*
X87432681Y-70593341D01*
X87556658Y-70717318D01*
X87705878Y-70809357D01*
X87872305Y-70864506D01*
X87975018Y-70875000D01*
X88249999Y-70875000D01*
X88250000Y-70874999D01*
X88250000Y-70874998D01*
X88750000Y-70874998D01*
X88750001Y-70874999D01*
X89024973Y-70874999D01*
X89127696Y-70864505D01*
X89294122Y-70809357D01*
X89443341Y-70717318D01*
X89567318Y-70593341D01*
X89659357Y-70444121D01*
X89714506Y-70277694D01*
X89725000Y-70174982D01*
X89725000Y-70037501D01*
X89724999Y-70037500D01*
X88750001Y-70037500D01*
X88750000Y-70037501D01*
X88750000Y-70874998D01*
X88250000Y-70874998D01*
X88250000Y-70037501D01*
X88249999Y-70037500D01*
X87275002Y-70037500D01*
X87275001Y-70037501D01*
X87275001Y-70174973D01*
X85025000Y-70174973D01*
X85025000Y-70149000D01*
X85038263Y-70099500D01*
X85074500Y-70063263D01*
X85124000Y-70050000D01*
X86434795Y-70050000D01*
X86434599Y-70047507D01*
X86388782Y-69889801D01*
X86379966Y-69874894D01*
X86366183Y-69825277D01*
X86379186Y-69775449D01*
X86415456Y-69738893D01*
X86465180Y-69725500D01*
X86813289Y-69725500D01*
X86833605Y-69727607D01*
X86846768Y-69730367D01*
X86879716Y-69726260D01*
X86891962Y-69725500D01*
X86893612Y-69725500D01*
X86893614Y-69725500D01*
X86914647Y-69721989D01*
X86918643Y-69721407D01*
X86971126Y-69714866D01*
X86971127Y-69714865D01*
X86976137Y-69714241D01*
X86981663Y-69712470D01*
X86986105Y-69710065D01*
X86986110Y-69710065D01*
X87032604Y-69684903D01*
X87036194Y-69683055D01*
X87083711Y-69659826D01*
X87083712Y-69659824D01*
X87088255Y-69657604D01*
X87092900Y-69654140D01*
X87096324Y-69650419D01*
X87096326Y-69650419D01*
X87132140Y-69611513D01*
X87134928Y-69608607D01*
X87177039Y-69566496D01*
X87209158Y-69545036D01*
X87247043Y-69537500D01*
X89724998Y-69537500D01*
X89724999Y-69537499D01*
X89724999Y-69400027D01*
X89714505Y-69297303D01*
X89659357Y-69130877D01*
X89567318Y-68981658D01*
X89443341Y-68857681D01*
X89294121Y-68765642D01*
X89134448Y-68712731D01*
X89085866Y-68677453D01*
X89066605Y-68620588D01*
X89083749Y-68563048D01*
X89130988Y-68525999D01*
X89217331Y-68493796D01*
X89332546Y-68407546D01*
X89418796Y-68292331D01*
X89469091Y-68157483D01*
X89469091Y-68157481D01*
X89470985Y-68152404D01*
X89507281Y-68105680D01*
X89563743Y-68088000D01*
X89738289Y-68088000D01*
X89758605Y-68090107D01*
X89771768Y-68092867D01*
X89804716Y-68088760D01*
X89816962Y-68088000D01*
X89818612Y-68088000D01*
X89818614Y-68088000D01*
X89839647Y-68084489D01*
X89843643Y-68083907D01*
X89896126Y-68077366D01*
X89896127Y-68077365D01*
X89901137Y-68076741D01*
X89906663Y-68074970D01*
X89911105Y-68072565D01*
X89911110Y-68072565D01*
X89957604Y-68047403D01*
X89961194Y-68045555D01*
X90008711Y-68022326D01*
X90008712Y-68022324D01*
X90013255Y-68020104D01*
X90017897Y-68016642D01*
X90021322Y-68012920D01*
X90021326Y-68012919D01*
X90057153Y-67973999D01*
X90059915Y-67971120D01*
X90532247Y-67498788D01*
X90581204Y-67472057D01*
X90636845Y-67476036D01*
G37*
%TD.AperFunction*%
%TA.AperFunction,Conductor*%
G36*
X123028841Y-61133036D02*
G01*
X123060959Y-61154496D01*
X123157296Y-61250833D01*
X123185073Y-61305349D01*
X123175503Y-61365780D01*
X123151854Y-61412196D01*
X123137000Y-61505980D01*
X123137000Y-61869021D01*
X123151852Y-61962803D01*
X123207326Y-62071674D01*
X123209450Y-62075842D01*
X123256712Y-62123104D01*
X123284357Y-62176811D01*
X123275648Y-62236587D01*
X123233825Y-62280174D01*
X123192407Y-62302588D01*
X123188771Y-62304460D01*
X123136765Y-62329884D01*
X123132087Y-62333373D01*
X123092906Y-62375934D01*
X123090074Y-62378886D01*
X121631771Y-63837189D01*
X121615919Y-63850062D01*
X121604662Y-63857417D01*
X121584266Y-63883620D01*
X121576158Y-63892804D01*
X121574980Y-63893981D01*
X121562590Y-63911335D01*
X121560146Y-63914612D01*
X121524595Y-63960288D01*
X121521927Y-63965471D01*
X121505411Y-64020948D01*
X121504164Y-64024841D01*
X121485362Y-64079611D01*
X121484523Y-64085372D01*
X121486915Y-64143201D01*
X121487000Y-64147292D01*
X121487000Y-64875500D01*
X121473737Y-64925000D01*
X121437500Y-64961237D01*
X121388000Y-64974500D01*
X121191740Y-64974500D01*
X121155083Y-64979841D01*
X121123606Y-64984427D01*
X121059197Y-65015914D01*
X121018517Y-65035802D01*
X121018516Y-65035802D01*
X121011074Y-65039441D01*
X120967594Y-65049500D01*
X118121545Y-65049500D01*
X118083659Y-65041964D01*
X118051541Y-65020504D01*
X117528996Y-64497959D01*
X117522006Y-64487498D01*
X118000000Y-64487498D01*
X118000001Y-64487499D01*
X118036651Y-64487499D01*
X118137648Y-64477182D01*
X118301300Y-64422953D01*
X118448037Y-64332444D01*
X118569944Y-64210537D01*
X118665739Y-64055231D01*
X118701752Y-64020757D01*
X118750000Y-64008204D01*
X118798248Y-64020757D01*
X118834261Y-64055231D01*
X118930055Y-64210537D01*
X119051962Y-64332444D01*
X119198699Y-64422953D01*
X119362350Y-64477181D01*
X119463350Y-64487500D01*
X119499999Y-64487500D01*
X119500000Y-64487499D01*
X119500000Y-64487498D01*
X120000000Y-64487498D01*
X120000001Y-64487499D01*
X120036651Y-64487499D01*
X120137648Y-64477182D01*
X120301300Y-64422953D01*
X120448037Y-64332444D01*
X120569944Y-64210537D01*
X120660453Y-64063800D01*
X120714681Y-63900149D01*
X120725000Y-63799150D01*
X120725000Y-63750001D01*
X120724999Y-63750000D01*
X120000001Y-63750000D01*
X120000000Y-63750001D01*
X120000000Y-64487498D01*
X119500000Y-64487498D01*
X119500000Y-63750001D01*
X119499999Y-63750000D01*
X118816007Y-63750000D01*
X118778121Y-63742464D01*
X118746003Y-63721004D01*
X118724999Y-63700000D01*
X118000001Y-63700000D01*
X118000000Y-63700001D01*
X118000000Y-64487498D01*
X117522006Y-64487498D01*
X117507536Y-64465841D01*
X117500000Y-64427955D01*
X117500000Y-63299000D01*
X117513263Y-63249500D01*
X117549500Y-63213263D01*
X117599000Y-63200000D01*
X118683993Y-63200000D01*
X118721879Y-63207536D01*
X118753997Y-63228996D01*
X118775001Y-63250000D01*
X120724998Y-63250000D01*
X120724999Y-63249999D01*
X120724999Y-63200849D01*
X120714682Y-63099851D01*
X120660453Y-62936199D01*
X120569944Y-62789462D01*
X120448037Y-62667555D01*
X120301300Y-62577046D01*
X120215793Y-62548712D01*
X120167211Y-62513434D01*
X120147950Y-62456567D01*
X120165095Y-62399028D01*
X120212340Y-62361978D01*
X120223778Y-62357712D01*
X120232532Y-62351159D01*
X120336116Y-62273616D01*
X120420212Y-62161278D01*
X120469251Y-62029799D01*
X120475500Y-61971674D01*
X120475500Y-61378326D01*
X120469251Y-61320201D01*
X120463712Y-61305349D01*
X120446461Y-61259097D01*
X120440991Y-61212162D01*
X120457898Y-61168038D01*
X120493332Y-61136777D01*
X120539219Y-61125500D01*
X122990955Y-61125500D01*
X123028841Y-61133036D01*
G37*
%TD.AperFunction*%
%TA.AperFunction,Conductor*%
G36*
X140950000Y-55763763D02*
G01*
X140986237Y-55800000D01*
X140999500Y-55849500D01*
X140999500Y-87150500D01*
X140986237Y-87200000D01*
X140950000Y-87236237D01*
X140900500Y-87249500D01*
X73599500Y-87249500D01*
X73550000Y-87236237D01*
X73513763Y-87200000D01*
X73500500Y-87150500D01*
X73500500Y-84647826D01*
X78300000Y-84647826D01*
X78306401Y-84707376D01*
X78356646Y-84842089D01*
X78442811Y-84957188D01*
X78557910Y-85043353D01*
X78692623Y-85093598D01*
X78752174Y-85100000D01*
X79549999Y-85100000D01*
X79550000Y-85099999D01*
X80050000Y-85099999D01*
X80050001Y-85100000D01*
X80847826Y-85100000D01*
X80907376Y-85093598D01*
X81042089Y-85043353D01*
X81157188Y-84957188D01*
X81243353Y-84842089D01*
X81293598Y-84707376D01*
X81300000Y-84647826D01*
X87200000Y-84647826D01*
X87206401Y-84707376D01*
X87256646Y-84842089D01*
X87342811Y-84957188D01*
X87457910Y-85043353D01*
X87592623Y-85093598D01*
X87652174Y-85100000D01*
X88449999Y-85100000D01*
X88450000Y-85099999D01*
X88950000Y-85099999D01*
X88950001Y-85100000D01*
X89747826Y-85100000D01*
X89807376Y-85093598D01*
X89942089Y-85043353D01*
X90057188Y-84957188D01*
X90143353Y-84842089D01*
X90193598Y-84707376D01*
X90200000Y-84647826D01*
X90200000Y-84000001D01*
X90199999Y-84000000D01*
X88950001Y-84000000D01*
X88950000Y-84000001D01*
X88950000Y-85099999D01*
X88450000Y-85099999D01*
X88450000Y-84000001D01*
X88449999Y-84000000D01*
X87200001Y-84000000D01*
X87200000Y-84000001D01*
X87200000Y-84647826D01*
X81300000Y-84647826D01*
X81300000Y-84000001D01*
X81299999Y-84000000D01*
X80050001Y-84000000D01*
X80050000Y-84000001D01*
X80050000Y-85099999D01*
X79550000Y-85099999D01*
X79550000Y-84000001D01*
X79549999Y-84000000D01*
X78300001Y-84000000D01*
X78300000Y-84000001D01*
X78300000Y-84647826D01*
X73500500Y-84647826D01*
X73500500Y-83499999D01*
X78300000Y-83499999D01*
X78300001Y-83500000D01*
X79549999Y-83500000D01*
X79550000Y-83499999D01*
X80050000Y-83499999D01*
X80050001Y-83500000D01*
X81299999Y-83500000D01*
X81300000Y-83499999D01*
X87200000Y-83499999D01*
X87200001Y-83500000D01*
X88449999Y-83500000D01*
X88450000Y-83499999D01*
X88950000Y-83499999D01*
X88950001Y-83500000D01*
X90199999Y-83500000D01*
X90200000Y-83499999D01*
X90200000Y-82852174D01*
X90193598Y-82792623D01*
X90143353Y-82657910D01*
X90057188Y-82542811D01*
X89942089Y-82456646D01*
X89807376Y-82406401D01*
X89747826Y-82400000D01*
X88950001Y-82400000D01*
X88950000Y-82400001D01*
X88950000Y-83499999D01*
X88450000Y-83499999D01*
X88450000Y-82400001D01*
X88449999Y-82400000D01*
X87652174Y-82400000D01*
X87592623Y-82406401D01*
X87457910Y-82456646D01*
X87342811Y-82542811D01*
X87256646Y-82657910D01*
X87206401Y-82792623D01*
X87200000Y-82852174D01*
X87200000Y-83499999D01*
X81300000Y-83499999D01*
X81300000Y-82852174D01*
X81293598Y-82792623D01*
X81243353Y-82657910D01*
X81157188Y-82542811D01*
X81042089Y-82456646D01*
X80907376Y-82406401D01*
X80847826Y-82400000D01*
X80050001Y-82400000D01*
X80050000Y-82400001D01*
X80050000Y-83499999D01*
X79550000Y-83499999D01*
X79550000Y-82400001D01*
X79549999Y-82400000D01*
X78752174Y-82400000D01*
X78692623Y-82406401D01*
X78557910Y-82456646D01*
X78442811Y-82542811D01*
X78356646Y-82657910D01*
X78306401Y-82792623D01*
X78300000Y-82852174D01*
X78300000Y-83499999D01*
X73500500Y-83499999D01*
X73500500Y-80943937D01*
X81295669Y-80943937D01*
X81326134Y-81116712D01*
X81395622Y-81277802D01*
X81395623Y-81277804D01*
X81500390Y-81418530D01*
X81568284Y-81475500D01*
X81634783Y-81531300D01*
X81634784Y-81531300D01*
X81634786Y-81531302D01*
X81791567Y-81610040D01*
X81791569Y-81610041D01*
X81962277Y-81650500D01*
X81962279Y-81650500D01*
X82093704Y-81650500D01*
X82093709Y-81650500D01*
X82224255Y-81635241D01*
X82389117Y-81575237D01*
X82535696Y-81478830D01*
X82656092Y-81351218D01*
X82743812Y-81199281D01*
X82794130Y-81031210D01*
X82799213Y-80943937D01*
X85695669Y-80943937D01*
X85726134Y-81116712D01*
X85795622Y-81277802D01*
X85795623Y-81277804D01*
X85900390Y-81418530D01*
X85968284Y-81475500D01*
X86034783Y-81531300D01*
X86034784Y-81531300D01*
X86034786Y-81531302D01*
X86191567Y-81610040D01*
X86191569Y-81610041D01*
X86362277Y-81650500D01*
X86362279Y-81650500D01*
X86493704Y-81650500D01*
X86493709Y-81650500D01*
X86624255Y-81635241D01*
X86789117Y-81575237D01*
X86935696Y-81478830D01*
X87056092Y-81351218D01*
X87143812Y-81199281D01*
X87194130Y-81031210D01*
X87204331Y-80856065D01*
X87179456Y-80714995D01*
X87173865Y-80683287D01*
X87122289Y-80563721D01*
X87104377Y-80522196D01*
X86999610Y-80381470D01*
X86927765Y-80321185D01*
X86865216Y-80268699D01*
X86708430Y-80189958D01*
X86537723Y-80149500D01*
X86537721Y-80149500D01*
X86406291Y-80149500D01*
X86313043Y-80160399D01*
X86275743Y-80164759D01*
X86110882Y-80224763D01*
X85964304Y-80321169D01*
X85843909Y-80448780D01*
X85756188Y-80600719D01*
X85705870Y-80768789D01*
X85695669Y-80943937D01*
X82799213Y-80943937D01*
X82804331Y-80856065D01*
X82779456Y-80714995D01*
X82773865Y-80683287D01*
X82722289Y-80563721D01*
X82704377Y-80522196D01*
X82599610Y-80381470D01*
X82527765Y-80321185D01*
X82465216Y-80268699D01*
X82308430Y-80189958D01*
X82137723Y-80149500D01*
X82137721Y-80149500D01*
X82006291Y-80149500D01*
X81913043Y-80160399D01*
X81875743Y-80164759D01*
X81710882Y-80224763D01*
X81564304Y-80321169D01*
X81443909Y-80448780D01*
X81356188Y-80600719D01*
X81305870Y-80768789D01*
X81295669Y-80943937D01*
X73500500Y-80943937D01*
X73500500Y-79197826D01*
X78300000Y-79197826D01*
X78306401Y-79257376D01*
X78356646Y-79392089D01*
X78442811Y-79507188D01*
X78557910Y-79593353D01*
X78692623Y-79643598D01*
X78752174Y-79650000D01*
X79549999Y-79650000D01*
X79550000Y-79649999D01*
X80050000Y-79649999D01*
X80050001Y-79650000D01*
X80847826Y-79650000D01*
X80907376Y-79643598D01*
X81042089Y-79593353D01*
X81157188Y-79507188D01*
X81243353Y-79392089D01*
X81293598Y-79257376D01*
X81300000Y-79197826D01*
X81300000Y-78550001D01*
X81299999Y-78550000D01*
X80050001Y-78550000D01*
X80050000Y-78550001D01*
X80050000Y-79649999D01*
X79550000Y-79649999D01*
X79550000Y-78550001D01*
X79549999Y-78550000D01*
X78300001Y-78550000D01*
X78300000Y-78550001D01*
X78300000Y-79197826D01*
X73500500Y-79197826D01*
X73500500Y-78049999D01*
X78300000Y-78049999D01*
X78300001Y-78050000D01*
X79549999Y-78050000D01*
X79550000Y-78049999D01*
X80050000Y-78049999D01*
X80050001Y-78050000D01*
X81299999Y-78050000D01*
X81300000Y-78049999D01*
X81300000Y-77402174D01*
X81293598Y-77342623D01*
X81243353Y-77207910D01*
X81157188Y-77092811D01*
X81042089Y-77006646D01*
X80907376Y-76956401D01*
X80847826Y-76950000D01*
X80050001Y-76950000D01*
X80050000Y-76950001D01*
X80050000Y-78049999D01*
X79550000Y-78049999D01*
X79550000Y-76950001D01*
X79549999Y-76950000D01*
X78752174Y-76950000D01*
X78692623Y-76956401D01*
X78557910Y-77006646D01*
X78442811Y-77092811D01*
X78356646Y-77207910D01*
X78306401Y-77342623D01*
X78300000Y-77402174D01*
X78300000Y-78049999D01*
X73500500Y-78049999D01*
X73500500Y-71250000D01*
X79094540Y-71250000D01*
X79114326Y-71438256D01*
X79160313Y-71579788D01*
X79172821Y-71618284D01*
X79267468Y-71782218D01*
X79394126Y-71922886D01*
X79394129Y-71922888D01*
X79547270Y-72034151D01*
X79720197Y-72111144D01*
X79905354Y-72150500D01*
X80094644Y-72150500D01*
X80094646Y-72150500D01*
X80279803Y-72111144D01*
X80452730Y-72034151D01*
X80605871Y-71922888D01*
X80619546Y-71907701D01*
X80645756Y-71878591D01*
X80732533Y-71782216D01*
X80754878Y-71743513D01*
X80794435Y-71675000D01*
X80830671Y-71638763D01*
X80880171Y-71625500D01*
X81437340Y-71625500D01*
X81480372Y-71625500D01*
X81488547Y-71625838D01*
X81491606Y-71626091D01*
X81531437Y-71629392D01*
X81534844Y-71628529D01*
X81559147Y-71625500D01*
X82105601Y-71625500D01*
X82143487Y-71633036D01*
X82175601Y-71654493D01*
X82249158Y-71728050D01*
X82362196Y-71785646D01*
X82455981Y-71800500D01*
X83544018Y-71800499D01*
X83544021Y-71800499D01*
X83637803Y-71785647D01*
X83720494Y-71743513D01*
X83750842Y-71728050D01*
X83840550Y-71638342D01*
X83898146Y-71525304D01*
X83913000Y-71431519D01*
X83912999Y-71158042D01*
X83929683Y-71103042D01*
X83974113Y-71066579D01*
X84031313Y-71060945D01*
X84082003Y-71088040D01*
X84333004Y-71339042D01*
X84354463Y-71371158D01*
X84362000Y-71409042D01*
X84362000Y-71431519D01*
X84379306Y-71540791D01*
X84378185Y-71540968D01*
X84384757Y-71582465D01*
X84356980Y-71636980D01*
X82419271Y-73574689D01*
X82403419Y-73587562D01*
X82392162Y-73594917D01*
X82371766Y-73621120D01*
X82363658Y-73630304D01*
X82362480Y-73631481D01*
X82350090Y-73648835D01*
X82347646Y-73652112D01*
X82312095Y-73697788D01*
X82309427Y-73702971D01*
X82292911Y-73758448D01*
X82291664Y-73762341D01*
X82272862Y-73817111D01*
X82272023Y-73822872D01*
X82274415Y-73880701D01*
X82274500Y-73884792D01*
X82274500Y-76929665D01*
X82262810Y-76976333D01*
X82230502Y-77011980D01*
X82219399Y-77019398D01*
X82164034Y-77102259D01*
X82164033Y-77102260D01*
X82164034Y-77102260D01*
X82149500Y-77175326D01*
X82149500Y-79224674D01*
X82164034Y-79297740D01*
X82219399Y-79380601D01*
X82302260Y-79435966D01*
X82375326Y-79450500D01*
X82924673Y-79450500D01*
X82924674Y-79450500D01*
X82997740Y-79435966D01*
X82997741Y-79435965D01*
X83007319Y-79434060D01*
X83049996Y-79421113D01*
X83092679Y-79434060D01*
X83102259Y-79435965D01*
X83102260Y-79435966D01*
X83175326Y-79450500D01*
X83724673Y-79450500D01*
X83724674Y-79450500D01*
X83797740Y-79435966D01*
X83797741Y-79435965D01*
X83807319Y-79434060D01*
X83849996Y-79421113D01*
X83892679Y-79434060D01*
X83902259Y-79435965D01*
X83902260Y-79435966D01*
X83975326Y-79450500D01*
X83975327Y-79450500D01*
X84313388Y-79450500D01*
X84357702Y-79460971D01*
X84392641Y-79490171D01*
X84442811Y-79557188D01*
X84557910Y-79643353D01*
X84692623Y-79693598D01*
X84752174Y-79700000D01*
X84799999Y-79700000D01*
X84800000Y-79699999D01*
X85300000Y-79699999D01*
X85300001Y-79700000D01*
X85347826Y-79700000D01*
X85407373Y-79693598D01*
X85415398Y-79690605D01*
X85449997Y-79684362D01*
X85484596Y-79690604D01*
X85492623Y-79693598D01*
X85552174Y-79700000D01*
X85599999Y-79700000D01*
X85600000Y-79699999D01*
X86100000Y-79699999D01*
X86100001Y-79700000D01*
X86147826Y-79700000D01*
X86207376Y-79693598D01*
X86342089Y-79643353D01*
X86457188Y-79557188D01*
X86543353Y-79442089D01*
X86593598Y-79307376D01*
X86600000Y-79247826D01*
X86600000Y-79197826D01*
X87200000Y-79197826D01*
X87206401Y-79257376D01*
X87256646Y-79392089D01*
X87342811Y-79507188D01*
X87457910Y-79593353D01*
X87592623Y-79643598D01*
X87652174Y-79650000D01*
X88449999Y-79650000D01*
X88450000Y-79649999D01*
X88950000Y-79649999D01*
X88950001Y-79650000D01*
X89747826Y-79650000D01*
X89807376Y-79643598D01*
X89942089Y-79593353D01*
X90057188Y-79507188D01*
X90143353Y-79392089D01*
X90193598Y-79257376D01*
X90200000Y-79197826D01*
X90200000Y-78550001D01*
X90199999Y-78550000D01*
X88950001Y-78550000D01*
X88950000Y-78550001D01*
X88950000Y-79649999D01*
X88450000Y-79649999D01*
X88450000Y-78550001D01*
X88449999Y-78550000D01*
X87200001Y-78550000D01*
X87200000Y-78550001D01*
X87200000Y-79197826D01*
X86600000Y-79197826D01*
X86600000Y-78450001D01*
X86599999Y-78450000D01*
X86100001Y-78450000D01*
X86100000Y-78450001D01*
X86100000Y-79699999D01*
X85600000Y-79699999D01*
X85600000Y-78450001D01*
X85599999Y-78450000D01*
X85300001Y-78450000D01*
X85300000Y-78450001D01*
X85300000Y-79699999D01*
X84800000Y-79699999D01*
X84800000Y-78049999D01*
X87200000Y-78049999D01*
X87200001Y-78050000D01*
X88449999Y-78050000D01*
X88450000Y-78049999D01*
X88950000Y-78049999D01*
X88950001Y-78050000D01*
X90199999Y-78050000D01*
X90200000Y-78049999D01*
X90200000Y-77402174D01*
X90193598Y-77342623D01*
X90143353Y-77207910D01*
X90057188Y-77092811D01*
X89942089Y-77006646D01*
X89807376Y-76956401D01*
X89747826Y-76950000D01*
X88950001Y-76950000D01*
X88950000Y-76950001D01*
X88950000Y-78049999D01*
X88450000Y-78049999D01*
X88450000Y-76950001D01*
X88449999Y-76950000D01*
X87652174Y-76950000D01*
X87592623Y-76956401D01*
X87457910Y-77006646D01*
X87342811Y-77092811D01*
X87256646Y-77207910D01*
X87206401Y-77342623D01*
X87200000Y-77402174D01*
X87200000Y-78049999D01*
X84800000Y-78049999D01*
X84800000Y-77949999D01*
X85300000Y-77949999D01*
X85300001Y-77950000D01*
X85599999Y-77950000D01*
X85600000Y-77949999D01*
X86100000Y-77949999D01*
X86100001Y-77950000D01*
X86599999Y-77950000D01*
X86600000Y-77949999D01*
X86600000Y-77152174D01*
X86593598Y-77092623D01*
X86543353Y-76957910D01*
X86457188Y-76842811D01*
X86342089Y-76756646D01*
X86207376Y-76706401D01*
X86147826Y-76700000D01*
X86100001Y-76700000D01*
X86100000Y-76700001D01*
X86100000Y-77949999D01*
X85600000Y-77949999D01*
X85600000Y-76700001D01*
X85599999Y-76700000D01*
X85552174Y-76700000D01*
X85492620Y-76706402D01*
X85484593Y-76709396D01*
X85450000Y-76715637D01*
X85415407Y-76709396D01*
X85407379Y-76706402D01*
X85347826Y-76700000D01*
X85300001Y-76700000D01*
X85300000Y-76700001D01*
X85300000Y-77949999D01*
X84800000Y-77949999D01*
X84800000Y-76700001D01*
X84799999Y-76700000D01*
X84752171Y-76700000D01*
X84735080Y-76701837D01*
X84681241Y-76692453D01*
X84640584Y-76655932D01*
X84625500Y-76603404D01*
X84625500Y-75071545D01*
X84633036Y-75033659D01*
X84654496Y-75001541D01*
X85251542Y-74404496D01*
X85283660Y-74383036D01*
X85321546Y-74375500D01*
X86437340Y-74375500D01*
X86531114Y-74375500D01*
X88525500Y-74375500D01*
X88575000Y-74388763D01*
X88611237Y-74425000D01*
X88624500Y-74474500D01*
X88624500Y-74921903D01*
X88608532Y-74975817D01*
X88579128Y-75000934D01*
X88580826Y-75003272D01*
X88427767Y-75114475D01*
X88308142Y-75247332D01*
X88218750Y-75402164D01*
X88163503Y-75572197D01*
X88144868Y-75749500D01*
X88144815Y-75750000D01*
X88163503Y-75927803D01*
X88218750Y-76097835D01*
X88262776Y-76174091D01*
X88308142Y-76252666D01*
X88427770Y-76385526D01*
X88572406Y-76490612D01*
X88670245Y-76534172D01*
X88735733Y-76563329D01*
X88910609Y-76600500D01*
X89089389Y-76600500D01*
X89089391Y-76600500D01*
X89264267Y-76563329D01*
X89427593Y-76490612D01*
X89572230Y-76385526D01*
X89691859Y-76252665D01*
X89781250Y-76097835D01*
X89836497Y-75927803D01*
X89855185Y-75750000D01*
X89836497Y-75572197D01*
X89781250Y-75402165D01*
X89691859Y-75247335D01*
X89572230Y-75114474D01*
X89556132Y-75102778D01*
X89419175Y-75003271D01*
X89420873Y-75000933D01*
X89391472Y-74975823D01*
X89375500Y-74921903D01*
X89375500Y-74474500D01*
X89388763Y-74425000D01*
X89425000Y-74388763D01*
X89474500Y-74375500D01*
X90549395Y-74375500D01*
X90605857Y-74393179D01*
X90642153Y-74439903D01*
X90654787Y-74473778D01*
X90674788Y-74500495D01*
X90738884Y-74586116D01*
X90803128Y-74634208D01*
X90851221Y-74670212D01*
X90982700Y-74719251D01*
X91002075Y-74721333D01*
X91040826Y-74725500D01*
X91634172Y-74725500D01*
X91634174Y-74725500D01*
X91692299Y-74719251D01*
X91823778Y-74670212D01*
X91936116Y-74586116D01*
X92020212Y-74473778D01*
X92069251Y-74342299D01*
X92075500Y-74284174D01*
X92075500Y-73715826D01*
X92069251Y-73657701D01*
X92067166Y-73652112D01*
X92020212Y-73526221D01*
X91972031Y-73461861D01*
X91936116Y-73413884D01*
X91883140Y-73374226D01*
X91823778Y-73329787D01*
X91692299Y-73280748D01*
X91644458Y-73275605D01*
X91634174Y-73274500D01*
X91040826Y-73274500D01*
X91031377Y-73275515D01*
X90982700Y-73280748D01*
X90851221Y-73329787D01*
X90738884Y-73413884D01*
X90654787Y-73526221D01*
X90642153Y-73560097D01*
X90605857Y-73606821D01*
X90549395Y-73624500D01*
X89895544Y-73624500D01*
X89840543Y-73607816D01*
X89804080Y-73563386D01*
X89798446Y-73506186D01*
X89825540Y-73455496D01*
X90168370Y-73112666D01*
X90532247Y-72748788D01*
X90581204Y-72722057D01*
X90636845Y-72726036D01*
X90681502Y-72759464D01*
X90689931Y-72770723D01*
X90738884Y-72836116D01*
X90783657Y-72869633D01*
X90851221Y-72920212D01*
X90982700Y-72969251D01*
X90988886Y-72969916D01*
X91040826Y-72975500D01*
X91634172Y-72975500D01*
X91634174Y-72975500D01*
X91692299Y-72969251D01*
X91823778Y-72920212D01*
X91936116Y-72836116D01*
X92020212Y-72723778D01*
X92069251Y-72592299D01*
X92075500Y-72534174D01*
X92075500Y-71965826D01*
X92070246Y-71916957D01*
X92069251Y-71907700D01*
X92020212Y-71776221D01*
X91974810Y-71715573D01*
X91936116Y-71663884D01*
X91885293Y-71625838D01*
X91823778Y-71579787D01*
X91692299Y-71530748D01*
X91641652Y-71525304D01*
X91634174Y-71524500D01*
X91040826Y-71524500D01*
X91033348Y-71525304D01*
X90982700Y-71530748D01*
X90851221Y-71579787D01*
X90738884Y-71663884D01*
X90654787Y-71776221D01*
X90642153Y-71810097D01*
X90605857Y-71856821D01*
X90549395Y-71874500D01*
X90549211Y-71874500D01*
X90528895Y-71872393D01*
X90515732Y-71869633D01*
X90482783Y-71873740D01*
X90470538Y-71874500D01*
X90468883Y-71874500D01*
X90447892Y-71878002D01*
X90443849Y-71878591D01*
X90386384Y-71885755D01*
X90380822Y-71887536D01*
X90329914Y-71915086D01*
X90326278Y-71916957D01*
X90274265Y-71942384D01*
X90269587Y-71945873D01*
X90230395Y-71988446D01*
X90227563Y-71991398D01*
X90010144Y-72208817D01*
X89956906Y-72236383D01*
X89897519Y-72228169D01*
X89853763Y-72187186D01*
X89841682Y-72128467D01*
X89855185Y-72000000D01*
X89853068Y-71979863D01*
X89858204Y-71936470D01*
X89881520Y-71899515D01*
X90653084Y-71127951D01*
X90692942Y-71103658D01*
X90739503Y-71100328D01*
X90782415Y-71118704D01*
X90851221Y-71170212D01*
X90982700Y-71219251D01*
X91000160Y-71221128D01*
X91040826Y-71225500D01*
X91634172Y-71225500D01*
X91634174Y-71225500D01*
X91692299Y-71219251D01*
X91823778Y-71170212D01*
X91936116Y-71086116D01*
X92020212Y-70973778D01*
X92069251Y-70842299D01*
X92075500Y-70784174D01*
X92075500Y-70215826D01*
X92069251Y-70157701D01*
X92053526Y-70115541D01*
X92020212Y-70026221D01*
X91969262Y-69958162D01*
X91936116Y-69913884D01*
X91842520Y-69843818D01*
X91810038Y-69801602D01*
X91804134Y-69748663D01*
X91826518Y-69700329D01*
X91870710Y-69670590D01*
X91901299Y-69660453D01*
X92048037Y-69569944D01*
X92169944Y-69448037D01*
X92260454Y-69301299D01*
X92288787Y-69215794D01*
X92324064Y-69167211D01*
X92380929Y-69147950D01*
X92438469Y-69165093D01*
X92475520Y-69212336D01*
X92479787Y-69223778D01*
X92527880Y-69288022D01*
X92563884Y-69336116D01*
X92615045Y-69374415D01*
X92676221Y-69420212D01*
X92807700Y-69469251D01*
X92813886Y-69469916D01*
X92865826Y-69475500D01*
X93459172Y-69475500D01*
X93459174Y-69475500D01*
X93517299Y-69469251D01*
X93648778Y-69420212D01*
X93761116Y-69336116D01*
X93845212Y-69223778D01*
X93857846Y-69189903D01*
X93894143Y-69143179D01*
X93950605Y-69125500D01*
X95950789Y-69125500D01*
X95971105Y-69127607D01*
X95984268Y-69130367D01*
X96017216Y-69126260D01*
X96029462Y-69125500D01*
X96031112Y-69125500D01*
X96031114Y-69125500D01*
X96052147Y-69121989D01*
X96056143Y-69121407D01*
X96108626Y-69114866D01*
X96108627Y-69114865D01*
X96113637Y-69114241D01*
X96119163Y-69112470D01*
X96123605Y-69110065D01*
X96123610Y-69110065D01*
X96170104Y-69084903D01*
X96173694Y-69083055D01*
X96221211Y-69059826D01*
X96221212Y-69059824D01*
X96225755Y-69057604D01*
X96230397Y-69054142D01*
X96233822Y-69050420D01*
X96233826Y-69050419D01*
X96269652Y-69011499D01*
X96272440Y-69008596D01*
X97126542Y-68154496D01*
X97158659Y-68133036D01*
X97196545Y-68125500D01*
X97250500Y-68125500D01*
X97300000Y-68138763D01*
X97336236Y-68175000D01*
X97349500Y-68224499D01*
X97349500Y-68363141D01*
X97355740Y-68410542D01*
X97355740Y-68410543D01*
X97355741Y-68410545D01*
X97364578Y-68429496D01*
X97377944Y-68458160D01*
X97387219Y-68499998D01*
X97377945Y-68541836D01*
X97355741Y-68589455D01*
X97349500Y-68636861D01*
X97349500Y-68843806D01*
X97334481Y-68896229D01*
X97293982Y-68932746D01*
X97274264Y-68942385D01*
X97269587Y-68945873D01*
X97230395Y-68988446D01*
X97227563Y-68991398D01*
X96373458Y-69845504D01*
X96341340Y-69866964D01*
X96303454Y-69874500D01*
X94549210Y-69874500D01*
X94528895Y-69872393D01*
X94515731Y-69869633D01*
X94482784Y-69873740D01*
X94470539Y-69874500D01*
X94468883Y-69874500D01*
X94447873Y-69878005D01*
X94443831Y-69878594D01*
X94386372Y-69885758D01*
X94380822Y-69887536D01*
X94329906Y-69915089D01*
X94326271Y-69916960D01*
X94274265Y-69942384D01*
X94269587Y-69945873D01*
X94230394Y-69988447D01*
X94227562Y-69991398D01*
X94123459Y-70095503D01*
X94091341Y-70116964D01*
X94053455Y-70124500D01*
X93950605Y-70124500D01*
X93894143Y-70106821D01*
X93857847Y-70060097D01*
X93845212Y-70026221D01*
X93794262Y-69958162D01*
X93761116Y-69913884D01*
X93708392Y-69874415D01*
X93648778Y-69829787D01*
X93517299Y-69780748D01*
X93468001Y-69775449D01*
X93459174Y-69774500D01*
X92865826Y-69774500D01*
X92856999Y-69775449D01*
X92807700Y-69780748D01*
X92676221Y-69829787D01*
X92563884Y-69913884D01*
X92479787Y-70026221D01*
X92430748Y-70157700D01*
X92424500Y-70215828D01*
X92424500Y-70784172D01*
X92430748Y-70842299D01*
X92479787Y-70973778D01*
X92521498Y-71029496D01*
X92563884Y-71086116D01*
X92607416Y-71118704D01*
X92676221Y-71170212D01*
X92807700Y-71219251D01*
X92825160Y-71221128D01*
X92865826Y-71225500D01*
X92865828Y-71225500D01*
X93416954Y-71225500D01*
X93471955Y-71242185D01*
X93508418Y-71286614D01*
X93514052Y-71343814D01*
X93486958Y-71394504D01*
X93385958Y-71495504D01*
X93353840Y-71516964D01*
X93315954Y-71524500D01*
X92865826Y-71524500D01*
X92858348Y-71525304D01*
X92807700Y-71530748D01*
X92676221Y-71579787D01*
X92563884Y-71663884D01*
X92479787Y-71776221D01*
X92430748Y-71907700D01*
X92424500Y-71965828D01*
X92424500Y-72534172D01*
X92430748Y-72592299D01*
X92479787Y-72723778D01*
X92514931Y-72770723D01*
X92563884Y-72836116D01*
X92619019Y-72877390D01*
X92676221Y-72920212D01*
X92807700Y-72969251D01*
X92813886Y-72969916D01*
X92865826Y-72975500D01*
X92865828Y-72975500D01*
X93416955Y-72975500D01*
X93471956Y-72992185D01*
X93508419Y-73036614D01*
X93514053Y-73093814D01*
X93486959Y-73144504D01*
X93385959Y-73245504D01*
X93353841Y-73266964D01*
X93315955Y-73274500D01*
X92865826Y-73274500D01*
X92856377Y-73275515D01*
X92807700Y-73280748D01*
X92676221Y-73329787D01*
X92563884Y-73413884D01*
X92479787Y-73526221D01*
X92430748Y-73657700D01*
X92424500Y-73715828D01*
X92424500Y-74284172D01*
X92430748Y-74342299D01*
X92479787Y-74473778D01*
X92499788Y-74500495D01*
X92563884Y-74586116D01*
X92628128Y-74634208D01*
X92676221Y-74670212D01*
X92807700Y-74719251D01*
X92827075Y-74721333D01*
X92865826Y-74725500D01*
X93459172Y-74725500D01*
X93459174Y-74725500D01*
X93517299Y-74719251D01*
X93648778Y-74670212D01*
X93761116Y-74586116D01*
X93845212Y-74473778D01*
X93894251Y-74342299D01*
X93900500Y-74284174D01*
X93900500Y-73834045D01*
X93908036Y-73796159D01*
X93929496Y-73764041D01*
X93955496Y-73738041D01*
X94006186Y-73710947D01*
X94063386Y-73716581D01*
X94107815Y-73753044D01*
X94124500Y-73808045D01*
X94124500Y-81780789D01*
X94122393Y-81801105D01*
X94119633Y-81814267D01*
X94123740Y-81847217D01*
X94124500Y-81859462D01*
X94124500Y-81861118D01*
X94128003Y-81882115D01*
X94128593Y-81886159D01*
X94135756Y-81943622D01*
X94137536Y-81949178D01*
X94165088Y-82000091D01*
X94166958Y-82003724D01*
X94186067Y-82042811D01*
X94192390Y-82055743D01*
X94195867Y-82060407D01*
X94199580Y-82063825D01*
X94199581Y-82063826D01*
X94238473Y-82099629D01*
X94241400Y-82102437D01*
X94872389Y-82733426D01*
X94900093Y-82787486D01*
X94891863Y-82841908D01*
X94891929Y-82841927D01*
X94891784Y-82842436D01*
X94891011Y-82847549D01*
X94889420Y-82850744D01*
X94889419Y-82850747D01*
X94889418Y-82850750D01*
X94833603Y-83046917D01*
X94814785Y-83250000D01*
X94833603Y-83453083D01*
X94871344Y-83585729D01*
X94889419Y-83649252D01*
X94980325Y-83831818D01*
X95079087Y-83962600D01*
X95098977Y-84017689D01*
X95084254Y-84074378D01*
X95040071Y-84112826D01*
X94981892Y-84119575D01*
X94930079Y-84092265D01*
X94468661Y-83630847D01*
X94442844Y-83585729D01*
X94443443Y-83533753D01*
X94466397Y-83453083D01*
X94485215Y-83250000D01*
X94466397Y-83046917D01*
X94410582Y-82850750D01*
X94319673Y-82668179D01*
X94196764Y-82505421D01*
X94046041Y-82368019D01*
X94046038Y-82368017D01*
X93872639Y-82260653D01*
X93872637Y-82260652D01*
X93818737Y-82239771D01*
X93682453Y-82186974D01*
X93481978Y-82149500D01*
X93481976Y-82149500D01*
X93278024Y-82149500D01*
X93278022Y-82149500D01*
X93077546Y-82186974D01*
X92887360Y-82260653D01*
X92713961Y-82368017D01*
X92563237Y-82505420D01*
X92440325Y-82668181D01*
X92349419Y-82850747D01*
X92349418Y-82850750D01*
X92293603Y-83046917D01*
X92274785Y-83250000D01*
X92293603Y-83453083D01*
X92331344Y-83585729D01*
X92349419Y-83649252D01*
X92440325Y-83831818D01*
X92440326Y-83831819D01*
X92440327Y-83831821D01*
X92563236Y-83994579D01*
X92713959Y-84131981D01*
X92887363Y-84239348D01*
X93037254Y-84297415D01*
X93077546Y-84313025D01*
X93278022Y-84350500D01*
X93278024Y-84350500D01*
X93481976Y-84350500D01*
X93481978Y-84350500D01*
X93675606Y-84314305D01*
X93723082Y-84317049D01*
X93763801Y-84341615D01*
X95270518Y-85848332D01*
X95283798Y-85864812D01*
X95287858Y-85871130D01*
X95326058Y-85904230D01*
X95331228Y-85909043D01*
X95341405Y-85919219D01*
X95341407Y-85919221D01*
X95352936Y-85927851D01*
X95358407Y-85932259D01*
X95396627Y-85965377D01*
X95403460Y-85968497D01*
X95421652Y-85979292D01*
X95427669Y-85983796D01*
X95462007Y-85996603D01*
X95475029Y-86001460D01*
X95481560Y-86004165D01*
X95527543Y-86025165D01*
X95534978Y-86026233D01*
X95555481Y-86031466D01*
X95562517Y-86034091D01*
X95612957Y-86037698D01*
X95619959Y-86038452D01*
X95627283Y-86039505D01*
X95634199Y-86040500D01*
X95634201Y-86040500D01*
X95648582Y-86040500D01*
X95655644Y-86040752D01*
X95706073Y-86044359D01*
X95713409Y-86042762D01*
X95734454Y-86040500D01*
X107810123Y-86040500D01*
X107861020Y-86054585D01*
X107897434Y-86092833D01*
X107904064Y-86105238D01*
X107967327Y-86182323D01*
X108030590Y-86259410D01*
X108107676Y-86322672D01*
X108184763Y-86385937D01*
X108360657Y-86479954D01*
X108456086Y-86508902D01*
X108551515Y-86537850D01*
X108750000Y-86557399D01*
X108948485Y-86537850D01*
X109139342Y-86479954D01*
X109139341Y-86479954D01*
X109315236Y-86385937D01*
X109329059Y-86374592D01*
X109469410Y-86259410D01*
X109595936Y-86105237D01*
X109602567Y-86092833D01*
X109689954Y-85929342D01*
X109714528Y-85848332D01*
X109747850Y-85738485D01*
X109767399Y-85540000D01*
X109747850Y-85341515D01*
X109689954Y-85150658D01*
X109689954Y-85150657D01*
X109595937Y-84974763D01*
X109532672Y-84897676D01*
X109469410Y-84820590D01*
X109406145Y-84768670D01*
X109315236Y-84694062D01*
X109139342Y-84600045D01*
X108948483Y-84542149D01*
X108750000Y-84522600D01*
X108551516Y-84542149D01*
X108360657Y-84600045D01*
X108184763Y-84694062D01*
X108030590Y-84820590D01*
X107904064Y-84974761D01*
X107897434Y-84987167D01*
X107861020Y-85025415D01*
X107810123Y-85039500D01*
X95918322Y-85039500D01*
X95880436Y-85031964D01*
X95848318Y-85010504D01*
X95068622Y-84230808D01*
X95040992Y-84177194D01*
X95049601Y-84117497D01*
X95091253Y-84073874D01*
X95150489Y-84062517D01*
X95205320Y-84087641D01*
X95253959Y-84131981D01*
X95427363Y-84239348D01*
X95577254Y-84297415D01*
X95617546Y-84313025D01*
X95818022Y-84350500D01*
X95818024Y-84350500D01*
X96021976Y-84350500D01*
X96021978Y-84350500D01*
X96222453Y-84313025D01*
X96222456Y-84313024D01*
X96412637Y-84239348D01*
X96586041Y-84131981D01*
X96736764Y-83994579D01*
X96859673Y-83831821D01*
X96950582Y-83649250D01*
X97006397Y-83453083D01*
X97025215Y-83250000D01*
X97006397Y-83046917D01*
X96950582Y-82850750D01*
X96859673Y-82668179D01*
X96736764Y-82505421D01*
X96586041Y-82368019D01*
X96586038Y-82368017D01*
X96412639Y-82260653D01*
X96412637Y-82260652D01*
X96358737Y-82239771D01*
X96222453Y-82186974D01*
X96021978Y-82149500D01*
X96021976Y-82149500D01*
X95818024Y-82149500D01*
X95818022Y-82149500D01*
X95617545Y-82186975D01*
X95512256Y-82227763D01*
X95456059Y-82232316D01*
X95406490Y-82205452D01*
X94904496Y-81703458D01*
X94883036Y-81671340D01*
X94875500Y-81633454D01*
X94875500Y-73138397D01*
X94883036Y-73100511D01*
X94904496Y-73068393D01*
X95818393Y-72154496D01*
X95850511Y-72133036D01*
X95888397Y-72125500D01*
X97527278Y-72125500D01*
X97569116Y-72134775D01*
X97573583Y-72136858D01*
X97589455Y-72144259D01*
X97636861Y-72150500D01*
X98388501Y-72150499D01*
X98438000Y-72163762D01*
X98474236Y-72199999D01*
X98487500Y-72249499D01*
X98487500Y-72250500D01*
X98474237Y-72300000D01*
X98438000Y-72336236D01*
X98388500Y-72349500D01*
X97636858Y-72349500D01*
X97589456Y-72355740D01*
X97550419Y-72373943D01*
X97514432Y-72390724D01*
X97472595Y-72400000D01*
X97104912Y-72400000D01*
X97114799Y-72475104D01*
X97172738Y-72614982D01*
X97264904Y-72735095D01*
X97310767Y-72770287D01*
X97339289Y-72805040D01*
X97349500Y-72848824D01*
X97349500Y-72863139D01*
X97355740Y-72910545D01*
X97404251Y-73014576D01*
X97404252Y-73014577D01*
X97404253Y-73014579D01*
X97485421Y-73095747D01*
X97589455Y-73144259D01*
X97629672Y-73149553D01*
X97636860Y-73150500D01*
X97636861Y-73150500D01*
X97863000Y-73150500D01*
X97912500Y-73163763D01*
X97948737Y-73200000D01*
X97962000Y-73249500D01*
X97962000Y-75379260D01*
X97944320Y-75435722D01*
X97897596Y-75472018D01*
X97776222Y-75517287D01*
X97663884Y-75601384D01*
X97582702Y-75709829D01*
X97547763Y-75739028D01*
X97503449Y-75749500D01*
X97314454Y-75749500D01*
X97293409Y-75747237D01*
X97286073Y-75745641D01*
X97235644Y-75749248D01*
X97228582Y-75749500D01*
X97214201Y-75749500D01*
X97199959Y-75751547D01*
X97192940Y-75752301D01*
X97180639Y-75753181D01*
X97142515Y-75755909D01*
X97135474Y-75758535D01*
X97114982Y-75763764D01*
X97107545Y-75764833D01*
X97061566Y-75785831D01*
X97055040Y-75788534D01*
X97007667Y-75806204D01*
X97001649Y-75810709D01*
X96983458Y-75821503D01*
X96976626Y-75824623D01*
X96938429Y-75857720D01*
X96932936Y-75862147D01*
X96921406Y-75870779D01*
X96911231Y-75880953D01*
X96906067Y-75885760D01*
X96867857Y-75918870D01*
X96863795Y-75925191D01*
X96850519Y-75941665D01*
X95941665Y-76850519D01*
X95925191Y-76863795D01*
X95918870Y-76867857D01*
X95885760Y-76906067D01*
X95880953Y-76911231D01*
X95870779Y-76921406D01*
X95862147Y-76932936D01*
X95857720Y-76938429D01*
X95824623Y-76976626D01*
X95821503Y-76983458D01*
X95810709Y-77001649D01*
X95806204Y-77007667D01*
X95788534Y-77055040D01*
X95785831Y-77061566D01*
X95764833Y-77107545D01*
X95763764Y-77114982D01*
X95758535Y-77135474D01*
X95755909Y-77142515D01*
X95752302Y-77192939D01*
X95751547Y-77199959D01*
X95749500Y-77214201D01*
X95749500Y-77228582D01*
X95749248Y-77235644D01*
X95745641Y-77286073D01*
X95747237Y-77293409D01*
X95749500Y-77314454D01*
X95749500Y-77450113D01*
X95738709Y-77495058D01*
X95708690Y-77530206D01*
X95644128Y-77577111D01*
X95517468Y-77717781D01*
X95422821Y-77881715D01*
X95396181Y-77963705D01*
X95364326Y-78061744D01*
X95344540Y-78250000D01*
X95364326Y-78438256D01*
X95381319Y-78490555D01*
X95422821Y-78618284D01*
X95517468Y-78782218D01*
X95644126Y-78922886D01*
X95644129Y-78922888D01*
X95797270Y-79034151D01*
X95970197Y-79111144D01*
X96155354Y-79150500D01*
X96344644Y-79150500D01*
X96344646Y-79150500D01*
X96529803Y-79111144D01*
X96702730Y-79034151D01*
X96855871Y-78922888D01*
X96982533Y-78782216D01*
X97077179Y-78618284D01*
X97118681Y-78490552D01*
X97154528Y-78441140D01*
X97212547Y-78422148D01*
X97270676Y-78440802D01*
X97306810Y-78490008D01*
X97339546Y-78588800D01*
X97430055Y-78735537D01*
X97551962Y-78857444D01*
X97698699Y-78947953D01*
X97862350Y-79002181D01*
X97963350Y-79012500D01*
X97999999Y-79012500D01*
X98000000Y-79012499D01*
X98000000Y-77824000D01*
X98013263Y-77774500D01*
X98049500Y-77738263D01*
X98099000Y-77725000D01*
X98401000Y-77725000D01*
X98450500Y-77738263D01*
X98486737Y-77774500D01*
X98500000Y-77824000D01*
X98500000Y-79012498D01*
X98500001Y-79012499D01*
X98536651Y-79012499D01*
X98637648Y-79002182D01*
X98801300Y-78947953D01*
X98948037Y-78857444D01*
X99069944Y-78735537D01*
X99160453Y-78588800D01*
X99181525Y-78525210D01*
X99212751Y-78479776D01*
X99263435Y-78458088D01*
X99317860Y-78466870D01*
X99359150Y-78503400D01*
X99374500Y-78556350D01*
X99374500Y-79053454D01*
X99366964Y-79091340D01*
X99345504Y-79123458D01*
X98229271Y-80239689D01*
X98213419Y-80252562D01*
X98202162Y-80259917D01*
X98181766Y-80286120D01*
X98173658Y-80295304D01*
X98172480Y-80296481D01*
X98160090Y-80313835D01*
X98157646Y-80317112D01*
X98122095Y-80362788D01*
X98119427Y-80367971D01*
X98102911Y-80423448D01*
X98101667Y-80427328D01*
X98093410Y-80451384D01*
X98082862Y-80482111D01*
X98082023Y-80487872D01*
X98084415Y-80545701D01*
X98084500Y-80549792D01*
X98084500Y-82147456D01*
X98067175Y-82203404D01*
X98021263Y-82239771D01*
X97967360Y-82260653D01*
X97793961Y-82368017D01*
X97643237Y-82505420D01*
X97520325Y-82668181D01*
X97429419Y-82850747D01*
X97429418Y-82850750D01*
X97373603Y-83046917D01*
X97354785Y-83250000D01*
X97373603Y-83453083D01*
X97411344Y-83585729D01*
X97429419Y-83649252D01*
X97520325Y-83831818D01*
X97520326Y-83831819D01*
X97520327Y-83831821D01*
X97643236Y-83994579D01*
X97793959Y-84131981D01*
X97967363Y-84239348D01*
X98117254Y-84297415D01*
X98157546Y-84313025D01*
X98358022Y-84350500D01*
X98358024Y-84350500D01*
X98561976Y-84350500D01*
X98561978Y-84350500D01*
X98762453Y-84313025D01*
X98762456Y-84313024D01*
X98952637Y-84239348D01*
X99126041Y-84131981D01*
X99276764Y-83994579D01*
X99399673Y-83831821D01*
X99462378Y-83705890D01*
X99497337Y-83666824D01*
X99547342Y-83651086D01*
X99598373Y-83663088D01*
X99636120Y-83699465D01*
X99650000Y-83750018D01*
X99650000Y-84147826D01*
X99656401Y-84207376D01*
X99706646Y-84342089D01*
X99792811Y-84457188D01*
X99907910Y-84543353D01*
X100042623Y-84593598D01*
X100102174Y-84600000D01*
X100749999Y-84600000D01*
X100750000Y-84599999D01*
X101250000Y-84599999D01*
X101250001Y-84600000D01*
X101897826Y-84600000D01*
X101957376Y-84593598D01*
X102092089Y-84543353D01*
X102207188Y-84457188D01*
X102293353Y-84342089D01*
X102343598Y-84207376D01*
X102350000Y-84147826D01*
X102350000Y-83500001D01*
X102349999Y-83500000D01*
X101250001Y-83500000D01*
X101250000Y-83500001D01*
X101250000Y-84599999D01*
X100750000Y-84599999D01*
X100750000Y-83174151D01*
X114525001Y-83174151D01*
X114535317Y-83275148D01*
X114589546Y-83438800D01*
X114680055Y-83585537D01*
X114801962Y-83707444D01*
X114948699Y-83797953D01*
X115112350Y-83852181D01*
X115213350Y-83862500D01*
X115249999Y-83862500D01*
X115250000Y-83862499D01*
X115250000Y-83862498D01*
X115750000Y-83862498D01*
X115750001Y-83862499D01*
X115786651Y-83862499D01*
X115887648Y-83852182D01*
X116051300Y-83797953D01*
X116198037Y-83707444D01*
X116319944Y-83585537D01*
X116410453Y-83438800D01*
X116464681Y-83275149D01*
X116475000Y-83174150D01*
X116475000Y-83075001D01*
X116474999Y-83075000D01*
X115750001Y-83075000D01*
X115750000Y-83075001D01*
X115750000Y-83862498D01*
X115250000Y-83862498D01*
X115250000Y-83075001D01*
X115249999Y-83075000D01*
X114525002Y-83075000D01*
X114525001Y-83075001D01*
X114525001Y-83174151D01*
X100750000Y-83174151D01*
X100750000Y-82999999D01*
X101250000Y-82999999D01*
X101250001Y-83000000D01*
X102349999Y-83000000D01*
X102350000Y-82999999D01*
X102350000Y-82352174D01*
X102343598Y-82292623D01*
X102293353Y-82157910D01*
X102207188Y-82042811D01*
X102092089Y-81956646D01*
X101957376Y-81906401D01*
X101897826Y-81900000D01*
X101250001Y-81900000D01*
X101250000Y-81900001D01*
X101250000Y-82999999D01*
X100750000Y-82999999D01*
X100750000Y-81900001D01*
X100749999Y-81900000D01*
X100102174Y-81900000D01*
X100042623Y-81906401D01*
X99907910Y-81956646D01*
X99792811Y-82042811D01*
X99706646Y-82157910D01*
X99656401Y-82292623D01*
X99650000Y-82352174D01*
X99650000Y-82749982D01*
X99636120Y-82800535D01*
X99598373Y-82836912D01*
X99547342Y-82848914D01*
X99497337Y-82833176D01*
X99462379Y-82794110D01*
X99399674Y-82668181D01*
X99399673Y-82668180D01*
X99399673Y-82668179D01*
X99276764Y-82505421D01*
X99126041Y-82368019D01*
X99126038Y-82368017D01*
X98952639Y-82260653D01*
X98952637Y-82260652D01*
X98898737Y-82239771D01*
X98852825Y-82203404D01*
X98835500Y-82147456D01*
X98835500Y-80736545D01*
X98843036Y-80698659D01*
X98864496Y-80666541D01*
X99116949Y-80414088D01*
X99980727Y-79550308D01*
X99982152Y-79549151D01*
X102525001Y-79549151D01*
X102535317Y-79650148D01*
X102589546Y-79813800D01*
X102680055Y-79960537D01*
X102801962Y-80082444D01*
X102948699Y-80172953D01*
X103112350Y-80227181D01*
X103213350Y-80237500D01*
X103249999Y-80237500D01*
X103250000Y-80237499D01*
X103250000Y-80237498D01*
X103750000Y-80237498D01*
X103750001Y-80237499D01*
X103786651Y-80237499D01*
X103887648Y-80227182D01*
X104051300Y-80172953D01*
X104198037Y-80082444D01*
X104319944Y-79960537D01*
X104410453Y-79813800D01*
X104464681Y-79650149D01*
X104475000Y-79549150D01*
X104475000Y-79500001D01*
X104474999Y-79500000D01*
X103750001Y-79500000D01*
X103750000Y-79500001D01*
X103750000Y-80237498D01*
X103250000Y-80237498D01*
X103250000Y-79500001D01*
X103249999Y-79500000D01*
X102525002Y-79500000D01*
X102525001Y-79500001D01*
X102525001Y-79549151D01*
X99982152Y-79549151D01*
X99996577Y-79537438D01*
X100007836Y-79530084D01*
X100028226Y-79503885D01*
X100036344Y-79494692D01*
X100037519Y-79493518D01*
X100049904Y-79476169D01*
X100052305Y-79472948D01*
X100084809Y-79431189D01*
X100084810Y-79431185D01*
X100087918Y-79427193D01*
X100090565Y-79422052D01*
X100092010Y-79417199D01*
X100107096Y-79366525D01*
X100108319Y-79362704D01*
X100125500Y-79312660D01*
X100125500Y-79312656D01*
X100127137Y-79307887D01*
X100127976Y-79302128D01*
X100125585Y-79244300D01*
X100125500Y-79240209D01*
X100125500Y-75249500D01*
X100138763Y-75200000D01*
X100175000Y-75163764D01*
X100224499Y-75150500D01*
X100363141Y-75150499D01*
X100410541Y-75144260D01*
X100410542Y-75144259D01*
X100410545Y-75144259D01*
X100458163Y-75122054D01*
X100500000Y-75112779D01*
X100541837Y-75122054D01*
X100589455Y-75144259D01*
X100636861Y-75150500D01*
X100863138Y-75150499D01*
X100863140Y-75150499D01*
X100887580Y-75147282D01*
X100942340Y-75155711D01*
X100983996Y-75192243D01*
X100999500Y-75245435D01*
X100999500Y-77450113D01*
X100988709Y-77495058D01*
X100958690Y-77530206D01*
X100894128Y-77577111D01*
X100767468Y-77717781D01*
X100672821Y-77881715D01*
X100646181Y-77963705D01*
X100614326Y-78061744D01*
X100594540Y-78250000D01*
X100614326Y-78438256D01*
X100631319Y-78490555D01*
X100672821Y-78618284D01*
X100767468Y-78782218D01*
X100894126Y-78922886D01*
X100894129Y-78922888D01*
X101047270Y-79034151D01*
X101220197Y-79111144D01*
X101405354Y-79150500D01*
X101594644Y-79150500D01*
X101594646Y-79150500D01*
X101779803Y-79111144D01*
X101952730Y-79034151D01*
X102105871Y-78922888D01*
X102232533Y-78782216D01*
X102327179Y-78618284D01*
X102385674Y-78438256D01*
X102405460Y-78250000D01*
X102385674Y-78061744D01*
X102327179Y-77881716D01*
X102232533Y-77717784D01*
X102232532Y-77717783D01*
X102232531Y-77717781D01*
X102105871Y-77577111D01*
X102041310Y-77530206D01*
X102011291Y-77495058D01*
X102000500Y-77450113D01*
X102000500Y-75245436D01*
X102016004Y-75192244D01*
X102057660Y-75155712D01*
X102112421Y-75147283D01*
X102122601Y-75148622D01*
X102136861Y-75150500D01*
X102363138Y-75150499D01*
X102363141Y-75150499D01*
X102410541Y-75144260D01*
X102410542Y-75144259D01*
X102410545Y-75144259D01*
X102458163Y-75122054D01*
X102500000Y-75112779D01*
X102541837Y-75122054D01*
X102589455Y-75144259D01*
X102636861Y-75150500D01*
X102775500Y-75150499D01*
X102825000Y-75163762D01*
X102861236Y-75199999D01*
X102874500Y-75249499D01*
X102874500Y-76846043D01*
X102869434Y-76877307D01*
X102854753Y-76905372D01*
X102829787Y-76938721D01*
X102780748Y-77070200D01*
X102777302Y-77102259D01*
X102774848Y-77125094D01*
X102774500Y-77128328D01*
X102774500Y-77721672D01*
X102780748Y-77779799D01*
X102829787Y-77911278D01*
X102852611Y-77941766D01*
X102913884Y-78023616D01*
X102949129Y-78050000D01*
X103026222Y-78107712D01*
X103037661Y-78111979D01*
X103084904Y-78149029D01*
X103102048Y-78206568D01*
X103082787Y-78263434D01*
X103034206Y-78298712D01*
X102948698Y-78327046D01*
X102801962Y-78417555D01*
X102680055Y-78539462D01*
X102589546Y-78686199D01*
X102535318Y-78849850D01*
X102525000Y-78950850D01*
X102525000Y-78999999D01*
X102525001Y-79000000D01*
X104474998Y-79000000D01*
X104474999Y-78999999D01*
X104474999Y-78950849D01*
X104464682Y-78849851D01*
X104410453Y-78686199D01*
X104319944Y-78539462D01*
X104198037Y-78417555D01*
X104051300Y-78327046D01*
X103965793Y-78298712D01*
X103917211Y-78263434D01*
X103897950Y-78206567D01*
X103915095Y-78149028D01*
X103962340Y-78111978D01*
X103973778Y-78107712D01*
X103973777Y-78107712D01*
X104086116Y-78023616D01*
X104170212Y-77911278D01*
X104171486Y-77907861D01*
X104173434Y-77902641D01*
X104201360Y-77862418D01*
X104245148Y-77840500D01*
X104294083Y-77842247D01*
X104336196Y-77867233D01*
X107159686Y-80690723D01*
X107172558Y-80706575D01*
X107179916Y-80717836D01*
X107200492Y-80733851D01*
X107206113Y-80738226D01*
X107215305Y-80746342D01*
X107216482Y-80747519D01*
X107233801Y-80759884D01*
X107237083Y-80762331D01*
X107282799Y-80797913D01*
X107287954Y-80800566D01*
X107292798Y-80802008D01*
X107292801Y-80802010D01*
X107343471Y-80817094D01*
X107347320Y-80818328D01*
X107397340Y-80835500D01*
X107397341Y-80835500D01*
X107402109Y-80837137D01*
X107407872Y-80837976D01*
X107412910Y-80837767D01*
X107412912Y-80837768D01*
X107465700Y-80835585D01*
X107469792Y-80835500D01*
X107743309Y-80835500D01*
X107794205Y-80849585D01*
X107830619Y-80887832D01*
X107904062Y-81025236D01*
X107978670Y-81116146D01*
X108030590Y-81179410D01*
X108107676Y-81242673D01*
X108184763Y-81305937D01*
X108360657Y-81399954D01*
X108456086Y-81428901D01*
X108551515Y-81457850D01*
X108650757Y-81467624D01*
X108749999Y-81477399D01*
X108749999Y-81477398D01*
X108750000Y-81477399D01*
X108948485Y-81457850D01*
X109139342Y-81399954D01*
X109230519Y-81351219D01*
X109315236Y-81305937D01*
X109349516Y-81277804D01*
X109469410Y-81179410D01*
X109595936Y-81025237D01*
X109689954Y-80849342D01*
X109747850Y-80658485D01*
X109767399Y-80460000D01*
X109747850Y-80261515D01*
X109694153Y-80084500D01*
X109689954Y-80070657D01*
X109595937Y-79894763D01*
X109529492Y-79813800D01*
X109469410Y-79740590D01*
X109400896Y-79684362D01*
X109315236Y-79614062D01*
X109139342Y-79520045D01*
X108948483Y-79462149D01*
X108750000Y-79442600D01*
X108551516Y-79462149D01*
X108360657Y-79520045D01*
X108184763Y-79614062D01*
X108030590Y-79740590D01*
X107904062Y-79894763D01*
X107830619Y-80032168D01*
X107794205Y-80070415D01*
X107743309Y-80084500D01*
X107656545Y-80084500D01*
X107618659Y-80076964D01*
X107586541Y-80055504D01*
X106325542Y-78794504D01*
X106298448Y-78743814D01*
X106304082Y-78686614D01*
X106340545Y-78642185D01*
X106395546Y-78625500D01*
X109369829Y-78625500D01*
X109419329Y-78638763D01*
X109455565Y-78675000D01*
X109517465Y-78782214D01*
X109644126Y-78922886D01*
X109644129Y-78922888D01*
X109797270Y-79034151D01*
X109970197Y-79111144D01*
X110155354Y-79150500D01*
X110344644Y-79150500D01*
X110344646Y-79150500D01*
X110529803Y-79111144D01*
X110702730Y-79034151D01*
X110855871Y-78922888D01*
X110982533Y-78782216D01*
X111077179Y-78618284D01*
X111135674Y-78438256D01*
X111155460Y-78250000D01*
X111135674Y-78061744D01*
X111077179Y-77881716D01*
X110982533Y-77717784D01*
X110982532Y-77717783D01*
X110982531Y-77717781D01*
X110855873Y-77577113D01*
X110708750Y-77470223D01*
X110702730Y-77465849D01*
X110702728Y-77465848D01*
X110529804Y-77388856D01*
X110466967Y-77375500D01*
X110344646Y-77349500D01*
X110155354Y-77349500D01*
X110083062Y-77364866D01*
X109970195Y-77388856D01*
X109797271Y-77465848D01*
X109644126Y-77577113D01*
X109517465Y-77717785D01*
X109455565Y-77825000D01*
X109419329Y-77861237D01*
X109369829Y-77874500D01*
X106446545Y-77874500D01*
X106408659Y-77866964D01*
X106376541Y-77845504D01*
X105654496Y-77123458D01*
X105633036Y-77091340D01*
X105625500Y-77053454D01*
X105625500Y-77048916D01*
X105643179Y-76992454D01*
X105689903Y-76956158D01*
X105712124Y-76947870D01*
X105786278Y-76920212D01*
X105897348Y-76837064D01*
X105947870Y-76817712D01*
X106001026Y-76827811D01*
X106040933Y-76864347D01*
X106092552Y-76948034D01*
X106214462Y-77069944D01*
X106361199Y-77160453D01*
X106524850Y-77214681D01*
X106625850Y-77225000D01*
X106724999Y-77225000D01*
X106725000Y-77224999D01*
X106725000Y-77224998D01*
X107225000Y-77224998D01*
X107225001Y-77224999D01*
X107324151Y-77224999D01*
X107425148Y-77214682D01*
X107588800Y-77160453D01*
X107735537Y-77069944D01*
X107857444Y-76948037D01*
X107947953Y-76801300D01*
X108002181Y-76637649D01*
X108012500Y-76536650D01*
X108012500Y-76500001D01*
X108012499Y-76500000D01*
X107225001Y-76500000D01*
X107225000Y-76500001D01*
X107225000Y-77224998D01*
X106725000Y-77224998D01*
X106725000Y-75999999D01*
X107225000Y-75999999D01*
X107225001Y-76000000D01*
X108012498Y-76000000D01*
X108012499Y-75999999D01*
X108012499Y-75963349D01*
X108002182Y-75862351D01*
X107947953Y-75698699D01*
X107857444Y-75551962D01*
X107735537Y-75430055D01*
X107588800Y-75339546D01*
X107425149Y-75285318D01*
X107324150Y-75275000D01*
X107225001Y-75275000D01*
X107225000Y-75275001D01*
X107225000Y-75999999D01*
X106725000Y-75999999D01*
X106725000Y-75275002D01*
X106724999Y-75275001D01*
X106625849Y-75275001D01*
X106524851Y-75285317D01*
X106361199Y-75339546D01*
X106214462Y-75430055D01*
X106092552Y-75551965D01*
X106040933Y-75635652D01*
X106001025Y-75672188D01*
X105947870Y-75682287D01*
X105897344Y-75662932D01*
X105786278Y-75579787D01*
X105689903Y-75543842D01*
X105643179Y-75507546D01*
X105625500Y-75451084D01*
X105625500Y-74972722D01*
X105634775Y-74930884D01*
X105636259Y-74927700D01*
X105644259Y-74910545D01*
X105650500Y-74863139D01*
X105650499Y-73461862D01*
X105650498Y-73461858D01*
X105647411Y-73438399D01*
X105651818Y-73393655D01*
X105675558Y-73355478D01*
X105855479Y-73175556D01*
X105893657Y-73151818D01*
X105938399Y-73147411D01*
X105961861Y-73150500D01*
X107363138Y-73150499D01*
X107363142Y-73150499D01*
X107410545Y-73144259D01*
X107433710Y-73133457D01*
X107514579Y-73095747D01*
X107595747Y-73014579D01*
X107644259Y-72910545D01*
X107650500Y-72863139D01*
X107650499Y-72636862D01*
X107650499Y-72636861D01*
X107650499Y-72636858D01*
X107644259Y-72589456D01*
X107622055Y-72541839D01*
X107612779Y-72499999D01*
X107622054Y-72458163D01*
X107644259Y-72410545D01*
X107650500Y-72363139D01*
X107650499Y-72136862D01*
X107650499Y-72136861D01*
X107650499Y-72136858D01*
X107644259Y-72089456D01*
X107644258Y-72089454D01*
X107622054Y-72041837D01*
X107612779Y-71999998D01*
X107622053Y-71958162D01*
X107644259Y-71910545D01*
X107650500Y-71863139D01*
X107650499Y-71704859D01*
X107667183Y-71649858D01*
X107711613Y-71613395D01*
X107768813Y-71607761D01*
X107819503Y-71634855D01*
X113345504Y-77160856D01*
X113366964Y-77192974D01*
X113374500Y-77230860D01*
X113374500Y-80200789D01*
X113372393Y-80221105D01*
X113369633Y-80234267D01*
X113373740Y-80267217D01*
X113374500Y-80279462D01*
X113374500Y-80281118D01*
X113378003Y-80302115D01*
X113378593Y-80306159D01*
X113385756Y-80363622D01*
X113387536Y-80369178D01*
X113415088Y-80420091D01*
X113416959Y-80423726D01*
X113442390Y-80475743D01*
X113445867Y-80480407D01*
X113449580Y-80483825D01*
X113449581Y-80483826D01*
X113488473Y-80519629D01*
X113491400Y-80522437D01*
X114299686Y-81330723D01*
X114312558Y-81346575D01*
X114319916Y-81357836D01*
X114340492Y-81373851D01*
X114346113Y-81378226D01*
X114355305Y-81386342D01*
X114356483Y-81387520D01*
X114373825Y-81399902D01*
X114377102Y-81402346D01*
X114418811Y-81434809D01*
X114418812Y-81434809D01*
X114422800Y-81437913D01*
X114427956Y-81440567D01*
X114432799Y-81442008D01*
X114432801Y-81442010D01*
X114483480Y-81457097D01*
X114487315Y-81458326D01*
X114537340Y-81475500D01*
X114537342Y-81475500D01*
X114542116Y-81477139D01*
X114547870Y-81477977D01*
X114552910Y-81477768D01*
X114552912Y-81477769D01*
X114605714Y-81475584D01*
X114609805Y-81475500D01*
X114701084Y-81475500D01*
X114757546Y-81493179D01*
X114793842Y-81539903D01*
X114829787Y-81636278D01*
X114912932Y-81747344D01*
X114932287Y-81797870D01*
X114922188Y-81851025D01*
X114885652Y-81890933D01*
X114801965Y-81942552D01*
X114680055Y-82064462D01*
X114589546Y-82211199D01*
X114535318Y-82374850D01*
X114525000Y-82475850D01*
X114525000Y-82574999D01*
X114525001Y-82575000D01*
X116474998Y-82575000D01*
X116474999Y-82574999D01*
X116474999Y-82475849D01*
X116464682Y-82374851D01*
X116410453Y-82211199D01*
X116319944Y-82064462D01*
X116198034Y-81942552D01*
X116114347Y-81890933D01*
X116077811Y-81851026D01*
X116067712Y-81797870D01*
X116087064Y-81747348D01*
X116170212Y-81636278D01*
X116206157Y-81539903D01*
X116242454Y-81493179D01*
X116298916Y-81475500D01*
X118199462Y-81475500D01*
X118240320Y-81484325D01*
X118273894Y-81509225D01*
X118294199Y-81545762D01*
X118321185Y-81634728D01*
X118414088Y-81808536D01*
X118433929Y-81832712D01*
X118539117Y-81960883D01*
X118654704Y-82055743D01*
X118691463Y-82085911D01*
X118865272Y-82178814D01*
X118892179Y-82186976D01*
X119053868Y-82236024D01*
X119250000Y-82255341D01*
X119446132Y-82236024D01*
X119634727Y-82178814D01*
X119808538Y-82085910D01*
X119960883Y-81960883D01*
X120085910Y-81808538D01*
X120178814Y-81634727D01*
X120236024Y-81446132D01*
X120255341Y-81250000D01*
X120236024Y-81053868D01*
X120178814Y-80865273D01*
X120178814Y-80865272D01*
X120085911Y-80691463D01*
X120054106Y-80652709D01*
X119960883Y-80539117D01*
X119850808Y-80448780D01*
X119808536Y-80414088D01*
X119634727Y-80321185D01*
X119446130Y-80263975D01*
X119250000Y-80244658D01*
X119053869Y-80263975D01*
X118865272Y-80321185D01*
X118691463Y-80414088D01*
X118539119Y-80539115D01*
X118539117Y-80539117D01*
X118445894Y-80652709D01*
X118416680Y-80688306D01*
X118382480Y-80714995D01*
X118340152Y-80724500D01*
X116298916Y-80724500D01*
X116242454Y-80706821D01*
X116206158Y-80660097D01*
X116170212Y-80563721D01*
X116134208Y-80515628D01*
X116086116Y-80451384D01*
X116036295Y-80414088D01*
X115973778Y-80367287D01*
X115842299Y-80318248D01*
X115794458Y-80313105D01*
X115784174Y-80312000D01*
X115215826Y-80312000D01*
X115206377Y-80313015D01*
X115157700Y-80318248D01*
X115026221Y-80367287D01*
X114913884Y-80451384D01*
X114829788Y-80563720D01*
X114819774Y-80590569D01*
X114791847Y-80630791D01*
X114748059Y-80652709D01*
X114699124Y-80650961D01*
X114657012Y-80625975D01*
X114412507Y-80381470D01*
X114154496Y-80123458D01*
X114133036Y-80091340D01*
X114125500Y-80053454D01*
X114125500Y-77083526D01*
X114127607Y-77063210D01*
X114128627Y-77058346D01*
X114130367Y-77050047D01*
X114126260Y-77017098D01*
X114125500Y-77004853D01*
X114125500Y-77003199D01*
X114121994Y-76982191D01*
X114121407Y-76978166D01*
X114114866Y-76925690D01*
X114114865Y-76925688D01*
X114114241Y-76920680D01*
X114108996Y-76904306D01*
X114107344Y-76894399D01*
X114109763Y-76893995D01*
X114103822Y-76866237D01*
X114123427Y-76814088D01*
X114168089Y-76780784D01*
X114223664Y-76776871D01*
X114272552Y-76803589D01*
X114299686Y-76830723D01*
X114312558Y-76846575D01*
X114319916Y-76857836D01*
X114330710Y-76866237D01*
X114346113Y-76878226D01*
X114355305Y-76886342D01*
X114356482Y-76887519D01*
X114373801Y-76899884D01*
X114377083Y-76902331D01*
X114422799Y-76937913D01*
X114427954Y-76940566D01*
X114432798Y-76942008D01*
X114432801Y-76942010D01*
X114483471Y-76957094D01*
X114487320Y-76958328D01*
X114537340Y-76975500D01*
X114537341Y-76975500D01*
X114542109Y-76977137D01*
X114547872Y-76977976D01*
X114552910Y-76977767D01*
X114552912Y-76977768D01*
X114605700Y-76975585D01*
X114609792Y-76975500D01*
X114701084Y-76975500D01*
X114757546Y-76993179D01*
X114793842Y-77039903D01*
X114829787Y-77136278D01*
X114873740Y-77194990D01*
X114913884Y-77248616D01*
X114963920Y-77286073D01*
X115026221Y-77332712D01*
X115157700Y-77381751D01*
X115177075Y-77383833D01*
X115215826Y-77388000D01*
X115784172Y-77388000D01*
X115784174Y-77388000D01*
X115842299Y-77381751D01*
X115973778Y-77332712D01*
X116086116Y-77248616D01*
X116170212Y-77136278D01*
X116202374Y-77050047D01*
X116206158Y-77039903D01*
X116242454Y-76993179D01*
X116298916Y-76975500D01*
X118422222Y-76975500D01*
X118464550Y-76985005D01*
X118498748Y-77011693D01*
X118539117Y-77060883D01*
X118638588Y-77142517D01*
X118691463Y-77185911D01*
X118865272Y-77278814D01*
X118959570Y-77307419D01*
X119053868Y-77336024D01*
X119250000Y-77355341D01*
X119446132Y-77336024D01*
X119634727Y-77278814D01*
X119808538Y-77185910D01*
X119960883Y-77060883D01*
X120085910Y-76908538D01*
X120178814Y-76734727D01*
X120236024Y-76546132D01*
X120255341Y-76350000D01*
X120236024Y-76153868D01*
X120200738Y-76037545D01*
X120178814Y-75965272D01*
X120085911Y-75791463D01*
X120042878Y-75739028D01*
X119960883Y-75639117D01*
X119828837Y-75530749D01*
X119808536Y-75514088D01*
X119634727Y-75421185D01*
X119446130Y-75363975D01*
X119250000Y-75344658D01*
X119053869Y-75363975D01*
X118865272Y-75421185D01*
X118691463Y-75514088D01*
X118539117Y-75639117D01*
X118414088Y-75791463D01*
X118321185Y-75965272D01*
X118263864Y-76154238D01*
X118243559Y-76190775D01*
X118209985Y-76215675D01*
X118169127Y-76224500D01*
X116298916Y-76224500D01*
X116242454Y-76206821D01*
X116206158Y-76160097D01*
X116170212Y-76063721D01*
X116119052Y-75995381D01*
X116087066Y-75952653D01*
X116067712Y-75902129D01*
X116077811Y-75848973D01*
X116114348Y-75809065D01*
X116198035Y-75757446D01*
X116319944Y-75635537D01*
X116410453Y-75488800D01*
X116464681Y-75325149D01*
X116475000Y-75224150D01*
X116475000Y-75125001D01*
X116474999Y-75125000D01*
X114525002Y-75125000D01*
X114525001Y-75125001D01*
X114525001Y-75224151D01*
X114535317Y-75325148D01*
X114589546Y-75488800D01*
X114680055Y-75635537D01*
X114801965Y-75757447D01*
X114885651Y-75809066D01*
X114922187Y-75848973D01*
X114932286Y-75902128D01*
X114912932Y-75952655D01*
X114829787Y-76063723D01*
X114819774Y-76090569D01*
X114791847Y-76130791D01*
X114748059Y-76152709D01*
X114699124Y-76150961D01*
X114657012Y-76125975D01*
X113156036Y-74624999D01*
X114525000Y-74624999D01*
X114525001Y-74625000D01*
X115249999Y-74625000D01*
X115250000Y-74624999D01*
X115750000Y-74624999D01*
X115750001Y-74625000D01*
X116474998Y-74625000D01*
X116474999Y-74624999D01*
X116474999Y-74525849D01*
X116464682Y-74424851D01*
X116410453Y-74261199D01*
X116319944Y-74114462D01*
X116198037Y-73992555D01*
X116051300Y-73902046D01*
X115887649Y-73847818D01*
X115786650Y-73837500D01*
X115750001Y-73837500D01*
X115750000Y-73837501D01*
X115750000Y-74624999D01*
X115250000Y-74624999D01*
X115250000Y-73837502D01*
X115249999Y-73837501D01*
X115213349Y-73837501D01*
X115112351Y-73847817D01*
X114948699Y-73902046D01*
X114801962Y-73992555D01*
X114680055Y-74114462D01*
X114589546Y-74261199D01*
X114535318Y-74424850D01*
X114525000Y-74525850D01*
X114525000Y-74624999D01*
X113156036Y-74624999D01*
X111647603Y-73116566D01*
X110006038Y-71475000D01*
X114907989Y-71475000D01*
X114915444Y-71531631D01*
X114975901Y-71677588D01*
X115072074Y-71802925D01*
X115197409Y-71899098D01*
X115343369Y-71959556D01*
X115460676Y-71975000D01*
X115937499Y-71975000D01*
X115937500Y-71974999D01*
X115937500Y-71974998D01*
X116337500Y-71974998D01*
X116337501Y-71974999D01*
X116814323Y-71974999D01*
X116931630Y-71959556D01*
X117077590Y-71899098D01*
X117202925Y-71802925D01*
X117299098Y-71677590D01*
X117359556Y-71531630D01*
X117367011Y-71475000D01*
X116337501Y-71475000D01*
X116337500Y-71475001D01*
X116337500Y-71974998D01*
X115937500Y-71974998D01*
X115937500Y-71475001D01*
X115937499Y-71475000D01*
X114907989Y-71475000D01*
X110006038Y-71475000D01*
X108550311Y-70019273D01*
X108537435Y-70003416D01*
X108535203Y-70000000D01*
X108530084Y-69992164D01*
X108530083Y-69992162D01*
X108503888Y-69971774D01*
X108494697Y-69963659D01*
X108494696Y-69963658D01*
X108493518Y-69962480D01*
X108484931Y-69956349D01*
X108476170Y-69950094D01*
X108472887Y-69947646D01*
X108427207Y-69912091D01*
X108422040Y-69909431D01*
X108366551Y-69892911D01*
X108362669Y-69891667D01*
X108341638Y-69884447D01*
X108307890Y-69872862D01*
X108302127Y-69872023D01*
X108244299Y-69874415D01*
X108240208Y-69874500D01*
X107828878Y-69874500D01*
X107776599Y-69859571D01*
X107740088Y-69819287D01*
X107730355Y-69765796D01*
X107750336Y-69715233D01*
X107827261Y-69614981D01*
X107885200Y-69475104D01*
X107895088Y-69400000D01*
X107527405Y-69400000D01*
X107485567Y-69390724D01*
X107410545Y-69355741D01*
X107363139Y-69349500D01*
X105961857Y-69349500D01*
X105914456Y-69355740D01*
X105879538Y-69372023D01*
X105839432Y-69390724D01*
X105797595Y-69400000D01*
X105429912Y-69400000D01*
X105439799Y-69475104D01*
X105497738Y-69614982D01*
X105589904Y-69735095D01*
X105635767Y-69770287D01*
X105664289Y-69805040D01*
X105674500Y-69848824D01*
X105674500Y-69863139D01*
X105680740Y-69910544D01*
X105702944Y-69958162D01*
X105712219Y-70000000D01*
X105702944Y-70041838D01*
X105680741Y-70089454D01*
X105674500Y-70136861D01*
X105674500Y-70363141D01*
X105680740Y-70410544D01*
X105702944Y-70458162D01*
X105712219Y-70500000D01*
X105702944Y-70541838D01*
X105680741Y-70589454D01*
X105674500Y-70636861D01*
X105674500Y-70863141D01*
X105680740Y-70910544D01*
X105702944Y-70958162D01*
X105712219Y-71000000D01*
X105702944Y-71041838D01*
X105680741Y-71089454D01*
X105674500Y-71136861D01*
X105674500Y-71363141D01*
X105680740Y-71410544D01*
X105702944Y-71458162D01*
X105712219Y-71500000D01*
X105702944Y-71541838D01*
X105680741Y-71589454D01*
X105674500Y-71636861D01*
X105674500Y-71863141D01*
X105680740Y-71910544D01*
X105702944Y-71958162D01*
X105712219Y-72000000D01*
X105702944Y-72041838D01*
X105680741Y-72089454D01*
X105674500Y-72136861D01*
X105674500Y-72304907D01*
X105660546Y-72355584D01*
X105622618Y-72391975D01*
X105579928Y-72415077D01*
X105576294Y-72416948D01*
X105524263Y-72442386D01*
X105519587Y-72445873D01*
X105480383Y-72488459D01*
X105477550Y-72491411D01*
X105057393Y-72911566D01*
X105019213Y-72935308D01*
X104974469Y-72939715D01*
X104900000Y-72929911D01*
X104900000Y-73095213D01*
X104895883Y-73123466D01*
X104892908Y-73133457D01*
X104891661Y-73137348D01*
X104872862Y-73192108D01*
X104872023Y-73197872D01*
X104874415Y-73255701D01*
X104874500Y-73259792D01*
X104874500Y-73352278D01*
X104865225Y-73394116D01*
X104855741Y-73414454D01*
X104852500Y-73439069D01*
X104849500Y-73461861D01*
X104849500Y-74122454D01*
X104849501Y-74213500D01*
X104836238Y-74263000D01*
X104800001Y-74299236D01*
X104750501Y-74312500D01*
X104749500Y-74312500D01*
X104700000Y-74299237D01*
X104663764Y-74263000D01*
X104650500Y-74213500D01*
X104650499Y-73461858D01*
X104644259Y-73414456D01*
X104644259Y-73414455D01*
X104609275Y-73339432D01*
X104600000Y-73297595D01*
X104600000Y-72929912D01*
X104599999Y-72929911D01*
X104524895Y-72939799D01*
X104385018Y-72997738D01*
X104264905Y-73089904D01*
X104229711Y-73135769D01*
X104194958Y-73164290D01*
X104151175Y-73174500D01*
X104136860Y-73174500D01*
X104089455Y-73180740D01*
X104041837Y-73202944D01*
X103999999Y-73212219D01*
X103958161Y-73202944D01*
X103910545Y-73180741D01*
X103910544Y-73180740D01*
X103863138Y-73174500D01*
X103636858Y-73174500D01*
X103589455Y-73180740D01*
X103541837Y-73202944D01*
X103499999Y-73212219D01*
X103458161Y-73202944D01*
X103410545Y-73180741D01*
X103410544Y-73180740D01*
X103363138Y-73174500D01*
X103136858Y-73174500D01*
X103089455Y-73180740D01*
X103041837Y-73202944D01*
X102999999Y-73212219D01*
X102958161Y-73202944D01*
X102910545Y-73180741D01*
X102910544Y-73180740D01*
X102863138Y-73174500D01*
X102636858Y-73174500D01*
X102589455Y-73180740D01*
X102541837Y-73202944D01*
X102499999Y-73212219D01*
X102458161Y-73202944D01*
X102410545Y-73180741D01*
X102410544Y-73180740D01*
X102363138Y-73174500D01*
X102136858Y-73174500D01*
X102089455Y-73180740D01*
X102041837Y-73202944D01*
X101999999Y-73212219D01*
X101958161Y-73202944D01*
X101910545Y-73180741D01*
X101910544Y-73180740D01*
X101863138Y-73174500D01*
X101636858Y-73174500D01*
X101589455Y-73180740D01*
X101541837Y-73202944D01*
X101499999Y-73212219D01*
X101458161Y-73202944D01*
X101410545Y-73180741D01*
X101410544Y-73180740D01*
X101363138Y-73174500D01*
X101136858Y-73174500D01*
X101089455Y-73180740D01*
X101041837Y-73202944D01*
X100999999Y-73212219D01*
X100958161Y-73202944D01*
X100910545Y-73180741D01*
X100910544Y-73180740D01*
X100863138Y-73174500D01*
X100636858Y-73174500D01*
X100589455Y-73180740D01*
X100541837Y-73202944D01*
X100499999Y-73212219D01*
X100458161Y-73202944D01*
X100410545Y-73180741D01*
X100410544Y-73180740D01*
X100363139Y-73174500D01*
X100363138Y-73174500D01*
X100363136Y-73174500D01*
X100224499Y-73174500D01*
X100175000Y-73161238D01*
X100138764Y-73125001D01*
X100125500Y-73075501D01*
X100125500Y-72196545D01*
X100133036Y-72158659D01*
X100154496Y-72126542D01*
X100480723Y-71800314D01*
X100496582Y-71787436D01*
X100507836Y-71780084D01*
X100528223Y-71753890D01*
X100536341Y-71744696D01*
X100537520Y-71743518D01*
X100549921Y-71726146D01*
X100552319Y-71722930D01*
X100584809Y-71681189D01*
X100584809Y-71681187D01*
X100587917Y-71677195D01*
X100590565Y-71672051D01*
X100592009Y-71667200D01*
X100592010Y-71667199D01*
X100607093Y-71616531D01*
X100608325Y-71612687D01*
X100625500Y-71562660D01*
X100625500Y-71562656D01*
X100627137Y-71557888D01*
X100627976Y-71552127D01*
X100627507Y-71540791D01*
X100625585Y-71494299D01*
X100625500Y-71490208D01*
X100625500Y-70549211D01*
X100627607Y-70528895D01*
X100627821Y-70527869D01*
X100630367Y-70515732D01*
X100626260Y-70482783D01*
X100625500Y-70470538D01*
X100625500Y-70468887D01*
X100623710Y-70458162D01*
X100621990Y-70447857D01*
X100621405Y-70443839D01*
X100618883Y-70423607D01*
X100614866Y-70391374D01*
X100614242Y-70386367D01*
X100612469Y-70380834D01*
X100610065Y-70376392D01*
X100610065Y-70376390D01*
X100584906Y-70329900D01*
X100583062Y-70326318D01*
X100559826Y-70278789D01*
X100559824Y-70278787D01*
X100557608Y-70274254D01*
X100554134Y-70269595D01*
X100550420Y-70266176D01*
X100550419Y-70266174D01*
X100511527Y-70230371D01*
X100508599Y-70227562D01*
X99800311Y-69519273D01*
X99787435Y-69503416D01*
X99780083Y-69492162D01*
X99753888Y-69471774D01*
X99744697Y-69463659D01*
X99744696Y-69463658D01*
X99743518Y-69462480D01*
X99734931Y-69456349D01*
X99726170Y-69450094D01*
X99722887Y-69447646D01*
X99677207Y-69412091D01*
X99672040Y-69409431D01*
X99616551Y-69392911D01*
X99612669Y-69391667D01*
X99586346Y-69382631D01*
X99557890Y-69372862D01*
X99552127Y-69372023D01*
X99494299Y-69374415D01*
X99490208Y-69374500D01*
X99424500Y-69374500D01*
X99375000Y-69361237D01*
X99338764Y-69325000D01*
X99325500Y-69275501D01*
X99325499Y-69136858D01*
X99320647Y-69099999D01*
X105429911Y-69099999D01*
X105429912Y-69100000D01*
X105797595Y-69100000D01*
X105839432Y-69109275D01*
X105914455Y-69144259D01*
X105961861Y-69150500D01*
X107363138Y-69150499D01*
X107363142Y-69150499D01*
X107410545Y-69144259D01*
X107430883Y-69134776D01*
X107472722Y-69125500D01*
X110369829Y-69125500D01*
X110419329Y-69138763D01*
X110455565Y-69175000D01*
X110517465Y-69282214D01*
X110644126Y-69422886D01*
X110674482Y-69444940D01*
X110797270Y-69534151D01*
X110970197Y-69611144D01*
X111155354Y-69650500D01*
X111344644Y-69650500D01*
X111344646Y-69650500D01*
X111518713Y-69613501D01*
X111567410Y-69615415D01*
X111609297Y-69640334D01*
X112824686Y-70855723D01*
X112837558Y-70871575D01*
X112844916Y-70882836D01*
X112865492Y-70898851D01*
X112871113Y-70903226D01*
X112880305Y-70911342D01*
X112881482Y-70912519D01*
X112898801Y-70924884D01*
X112902083Y-70927331D01*
X112947799Y-70962913D01*
X112952954Y-70965566D01*
X112957798Y-70967008D01*
X112957801Y-70967010D01*
X113008472Y-70982095D01*
X113012322Y-70983329D01*
X113062340Y-71000500D01*
X113062341Y-71000500D01*
X113067110Y-71002137D01*
X113072871Y-71002976D01*
X113077909Y-71002767D01*
X113077911Y-71002768D01*
X113130699Y-71000585D01*
X113134791Y-71000500D01*
X114804908Y-71000500D01*
X114858100Y-71016004D01*
X114894632Y-71057660D01*
X114895025Y-71060218D01*
X114907988Y-71075000D01*
X115456134Y-71075000D01*
X115463035Y-71075500D01*
X115466740Y-71075500D01*
X116808260Y-71075500D01*
X116811965Y-71075500D01*
X116818866Y-71075000D01*
X117367011Y-71075000D01*
X117367011Y-71074999D01*
X117359555Y-71018368D01*
X117299099Y-70872411D01*
X117202924Y-70747074D01*
X117164233Y-70717386D01*
X117135710Y-70682631D01*
X117125500Y-70638844D01*
X117125500Y-70611156D01*
X117135710Y-70567369D01*
X117164233Y-70532614D01*
X117202924Y-70502925D01*
X117299098Y-70377589D01*
X117359556Y-70231630D01*
X117367011Y-70175000D01*
X116818866Y-70175000D01*
X116811965Y-70174500D01*
X116808260Y-70174500D01*
X115466740Y-70174500D01*
X115463035Y-70174500D01*
X115456134Y-70175000D01*
X114907989Y-70175000D01*
X114895026Y-70189781D01*
X114894632Y-70192342D01*
X114858101Y-70233996D01*
X114804909Y-70249500D01*
X113321546Y-70249500D01*
X113283660Y-70241964D01*
X113251542Y-70220504D01*
X112137769Y-69106731D01*
X112111508Y-69059838D01*
X112113619Y-69006134D01*
X112135673Y-68938259D01*
X112135672Y-68938259D01*
X112135674Y-68938256D01*
X112155460Y-68750000D01*
X112135674Y-68561744D01*
X112077179Y-68381716D01*
X111982533Y-68217784D01*
X111982532Y-68217783D01*
X111982531Y-68217781D01*
X111855873Y-68077113D01*
X111772641Y-68016642D01*
X111702730Y-67965849D01*
X111686494Y-67958620D01*
X111529804Y-67888856D01*
X111468084Y-67875737D01*
X111344646Y-67849500D01*
X111155354Y-67849500D01*
X111091178Y-67863141D01*
X110970195Y-67888856D01*
X110797271Y-67965848D01*
X110644126Y-68077113D01*
X110517465Y-68217785D01*
X110455565Y-68325000D01*
X110419329Y-68361237D01*
X110369829Y-68374500D01*
X107749500Y-68374500D01*
X107700000Y-68361237D01*
X107663764Y-68325000D01*
X107650500Y-68275501D01*
X107650499Y-68136858D01*
X107644259Y-68089456D01*
X107643934Y-68088760D01*
X107622054Y-68041836D01*
X107612779Y-67999999D01*
X107622054Y-67958163D01*
X107644259Y-67910545D01*
X107650500Y-67863139D01*
X107650499Y-67724499D01*
X107663762Y-67675000D01*
X107699999Y-67638764D01*
X107749499Y-67625500D01*
X108177565Y-67625500D01*
X108227065Y-67638764D01*
X108263299Y-67674997D01*
X108302446Y-67742801D01*
X108308142Y-67752667D01*
X108427770Y-67885526D01*
X108572406Y-67990612D01*
X108679898Y-68038470D01*
X108735733Y-68063329D01*
X108910609Y-68100500D01*
X109089389Y-68100500D01*
X109089391Y-68100500D01*
X109264267Y-68063329D01*
X109427593Y-67990612D01*
X109572230Y-67885526D01*
X109691859Y-67752665D01*
X109781250Y-67597835D01*
X109836497Y-67427803D01*
X109855185Y-67250000D01*
X109836497Y-67072197D01*
X109781250Y-66902165D01*
X109691859Y-66747335D01*
X109572230Y-66614474D01*
X109561697Y-66606821D01*
X109427593Y-66509387D01*
X109264270Y-66436672D01*
X109264268Y-66436671D01*
X109264267Y-66436671D01*
X109089391Y-66399500D01*
X108910609Y-66399500D01*
X108853434Y-66411653D01*
X108735731Y-66436671D01*
X108572409Y-66509387D01*
X108427767Y-66614475D01*
X108308142Y-66747332D01*
X108294624Y-66770747D01*
X108263299Y-66825002D01*
X108227065Y-66861236D01*
X108177565Y-66874500D01*
X107472722Y-66874500D01*
X107430884Y-66865225D01*
X107410545Y-66855741D01*
X107363139Y-66849500D01*
X105961857Y-66849500D01*
X105914454Y-66855740D01*
X105810423Y-66904251D01*
X105729251Y-66985423D01*
X105680741Y-67089453D01*
X105674500Y-67136861D01*
X105674500Y-67363141D01*
X105680740Y-67410544D01*
X105702944Y-67458162D01*
X105712219Y-67500000D01*
X105702944Y-67541838D01*
X105680741Y-67589454D01*
X105674500Y-67636861D01*
X105674500Y-67863141D01*
X105680740Y-67910542D01*
X105680740Y-67910543D01*
X105680741Y-67910545D01*
X105689839Y-67930055D01*
X105702944Y-67958160D01*
X105712219Y-67999998D01*
X105702945Y-68041836D01*
X105680741Y-68089455D01*
X105674500Y-68136861D01*
X105674500Y-68363141D01*
X105680740Y-68410542D01*
X105680740Y-68410543D01*
X105680741Y-68410545D01*
X105689578Y-68429496D01*
X105702944Y-68458160D01*
X105712219Y-68499998D01*
X105702945Y-68541836D01*
X105680741Y-68589455D01*
X105674500Y-68636860D01*
X105674500Y-68651171D01*
X105664291Y-68694957D01*
X105635768Y-68729712D01*
X105589905Y-68764904D01*
X105497738Y-68885018D01*
X105439799Y-69024895D01*
X105429911Y-69099999D01*
X99320647Y-69099999D01*
X99319259Y-69089456D01*
X99318121Y-69087016D01*
X99297054Y-69041838D01*
X99287779Y-68999999D01*
X99297054Y-68958163D01*
X99319259Y-68910545D01*
X99325500Y-68863139D01*
X99325499Y-68636862D01*
X99325499Y-68636860D01*
X99325499Y-68636858D01*
X99319259Y-68589456D01*
X99309955Y-68569504D01*
X99297054Y-68541836D01*
X99287779Y-68499998D01*
X99297055Y-68458160D01*
X99319259Y-68410545D01*
X99325500Y-68363139D01*
X99325499Y-68136862D01*
X99325499Y-68136861D01*
X99325499Y-68136858D01*
X99319259Y-68089456D01*
X99318934Y-68088760D01*
X99297054Y-68041836D01*
X99287779Y-67999999D01*
X99297054Y-67958163D01*
X99319259Y-67910545D01*
X99325500Y-67863139D01*
X99325499Y-67636862D01*
X99325499Y-67636861D01*
X99325499Y-67636858D01*
X99319259Y-67589456D01*
X99319258Y-67589454D01*
X99297054Y-67541838D01*
X99287779Y-67499999D01*
X99297054Y-67458163D01*
X99319259Y-67410545D01*
X99325500Y-67363139D01*
X99325499Y-67136862D01*
X99325499Y-67136861D01*
X99325499Y-67136858D01*
X99319259Y-67089454D01*
X99270748Y-66985423D01*
X99270747Y-66985422D01*
X99270747Y-66985421D01*
X99189579Y-66904253D01*
X99189577Y-66904252D01*
X99189576Y-66904251D01*
X99085546Y-66855741D01*
X99038139Y-66849500D01*
X97636857Y-66849500D01*
X97589454Y-66855740D01*
X97569117Y-66865224D01*
X97527278Y-66874500D01*
X96696545Y-66874500D01*
X96658659Y-66866964D01*
X96626541Y-66845504D01*
X94904496Y-65123458D01*
X94883036Y-65091340D01*
X94875500Y-65053454D01*
X94875500Y-64546691D01*
X94889585Y-64495795D01*
X94927832Y-64459381D01*
X95065236Y-64385937D01*
X95087846Y-64367381D01*
X95219410Y-64259410D01*
X95345936Y-64105237D01*
X95351696Y-64094462D01*
X95382596Y-64036651D01*
X96987501Y-64036651D01*
X96997817Y-64137648D01*
X97052046Y-64301300D01*
X97142555Y-64448037D01*
X97264462Y-64569944D01*
X97411199Y-64660453D01*
X97574850Y-64714681D01*
X97675850Y-64725000D01*
X97774999Y-64725000D01*
X97775000Y-64724999D01*
X97775000Y-64000001D01*
X97774999Y-64000000D01*
X96987502Y-64000000D01*
X96987501Y-64000001D01*
X96987501Y-64036651D01*
X95382596Y-64036651D01*
X95439954Y-63929342D01*
X95461772Y-63857417D01*
X95497850Y-63738485D01*
X95517399Y-63540000D01*
X95497850Y-63341515D01*
X95454922Y-63200000D01*
X95439954Y-63150657D01*
X95345937Y-62974763D01*
X95278982Y-62893179D01*
X95219410Y-62820590D01*
X95195572Y-62801027D01*
X95162964Y-62750905D01*
X95165165Y-62691148D01*
X95201373Y-62643559D01*
X95258378Y-62625500D01*
X97443649Y-62625500D01*
X97496599Y-62640850D01*
X97533129Y-62682139D01*
X97541911Y-62736565D01*
X97520223Y-62787249D01*
X97474789Y-62818475D01*
X97411199Y-62839546D01*
X97264462Y-62930055D01*
X97142555Y-63051962D01*
X97052046Y-63198699D01*
X96997818Y-63362350D01*
X96987500Y-63463350D01*
X96987500Y-63499999D01*
X96987501Y-63500000D01*
X98176000Y-63500000D01*
X98225500Y-63513263D01*
X98261737Y-63549500D01*
X98275000Y-63599000D01*
X98275000Y-64724998D01*
X98275001Y-64724999D01*
X98374151Y-64724999D01*
X98475148Y-64714682D01*
X98638800Y-64660453D01*
X98785537Y-64569944D01*
X98907446Y-64448035D01*
X98959065Y-64364348D01*
X98998973Y-64327811D01*
X99052129Y-64317712D01*
X99102653Y-64337066D01*
X99143149Y-64367381D01*
X99213721Y-64420212D01*
X99310097Y-64456158D01*
X99356821Y-64492454D01*
X99374500Y-64548916D01*
X99374500Y-65027278D01*
X99365225Y-65069116D01*
X99355741Y-65089454D01*
X99349500Y-65136860D01*
X99349500Y-66538142D01*
X99355740Y-66585545D01*
X99404251Y-66689576D01*
X99404252Y-66689577D01*
X99404253Y-66689579D01*
X99485421Y-66770747D01*
X99589455Y-66819259D01*
X99636861Y-66825500D01*
X99651169Y-66825499D01*
X99694954Y-66835708D01*
X99729712Y-66864231D01*
X99764906Y-66910096D01*
X99885017Y-67002261D01*
X100024895Y-67060200D01*
X100099999Y-67070088D01*
X100100000Y-67070088D01*
X100100000Y-66702405D01*
X100109276Y-66660565D01*
X100144259Y-66585545D01*
X100150500Y-66538139D01*
X100150499Y-65786498D01*
X100163762Y-65737000D01*
X100199999Y-65700764D01*
X100249499Y-65687500D01*
X100250500Y-65687500D01*
X100300000Y-65700763D01*
X100336236Y-65737000D01*
X100349500Y-65786500D01*
X100349500Y-66538141D01*
X100355740Y-66585543D01*
X100355741Y-66585545D01*
X100379985Y-66637537D01*
X100390724Y-66660565D01*
X100400000Y-66702405D01*
X100400000Y-67070088D01*
X100475104Y-67060200D01*
X100614981Y-67002261D01*
X100735095Y-66910094D01*
X100770287Y-66864232D01*
X100805042Y-66835709D01*
X100848828Y-66825499D01*
X100863138Y-66825499D01*
X100863142Y-66825499D01*
X100910541Y-66819260D01*
X100910542Y-66819259D01*
X100910545Y-66819259D01*
X100958163Y-66797054D01*
X101000000Y-66787779D01*
X101041837Y-66797054D01*
X101089455Y-66819259D01*
X101136861Y-66825500D01*
X101363138Y-66825499D01*
X101363141Y-66825499D01*
X101410541Y-66819260D01*
X101410542Y-66819259D01*
X101410545Y-66819259D01*
X101458163Y-66797054D01*
X101500000Y-66787779D01*
X101541837Y-66797054D01*
X101589455Y-66819259D01*
X101636861Y-66825500D01*
X101863138Y-66825499D01*
X101863141Y-66825499D01*
X101910541Y-66819260D01*
X101910542Y-66819259D01*
X101910545Y-66819259D01*
X101958163Y-66797054D01*
X102000000Y-66787779D01*
X102041837Y-66797054D01*
X102089455Y-66819259D01*
X102136861Y-66825500D01*
X102363138Y-66825499D01*
X102363141Y-66825499D01*
X102410541Y-66819260D01*
X102410542Y-66819259D01*
X102410545Y-66819259D01*
X102458163Y-66797054D01*
X102500000Y-66787779D01*
X102541837Y-66797054D01*
X102589455Y-66819259D01*
X102636861Y-66825500D01*
X102863138Y-66825499D01*
X102863141Y-66825499D01*
X102910541Y-66819260D01*
X102910542Y-66819259D01*
X102910545Y-66819259D01*
X102958163Y-66797054D01*
X103000000Y-66787779D01*
X103041837Y-66797054D01*
X103089455Y-66819259D01*
X103136861Y-66825500D01*
X103363138Y-66825499D01*
X103363141Y-66825499D01*
X103410541Y-66819260D01*
X103410542Y-66819259D01*
X103410545Y-66819259D01*
X103458163Y-66797054D01*
X103500000Y-66787779D01*
X103541837Y-66797054D01*
X103589455Y-66819259D01*
X103636861Y-66825500D01*
X103863138Y-66825499D01*
X103863141Y-66825499D01*
X103910541Y-66819260D01*
X103910542Y-66819259D01*
X103910545Y-66819259D01*
X103958163Y-66797054D01*
X104000000Y-66787779D01*
X104041837Y-66797054D01*
X104089455Y-66819259D01*
X104136861Y-66825500D01*
X104363138Y-66825499D01*
X104363141Y-66825499D01*
X104410541Y-66819260D01*
X104410542Y-66819259D01*
X104410545Y-66819259D01*
X104458163Y-66797054D01*
X104500000Y-66787779D01*
X104541837Y-66797054D01*
X104589455Y-66819259D01*
X104636861Y-66825500D01*
X104863138Y-66825499D01*
X104863141Y-66825499D01*
X104910541Y-66819260D01*
X104910542Y-66819259D01*
X104910545Y-66819259D01*
X104958163Y-66797054D01*
X105000000Y-66787779D01*
X105041837Y-66797054D01*
X105089455Y-66819259D01*
X105136861Y-66825500D01*
X105363138Y-66825499D01*
X105363141Y-66825499D01*
X105410545Y-66819259D01*
X105458161Y-66797055D01*
X105514579Y-66770747D01*
X105595747Y-66689579D01*
X105644259Y-66585545D01*
X105650500Y-66538139D01*
X105650499Y-65136862D01*
X105650499Y-65136860D01*
X105650499Y-65136857D01*
X105644259Y-65089454D01*
X105634776Y-65069117D01*
X105625500Y-65027278D01*
X105625500Y-64974500D01*
X105638763Y-64925000D01*
X105675000Y-64888763D01*
X105724500Y-64875500D01*
X106047950Y-64875500D01*
X106100412Y-64890543D01*
X106136930Y-64931101D01*
X106146407Y-64984846D01*
X106144815Y-65000000D01*
X106163503Y-65177803D01*
X106218750Y-65347835D01*
X106308141Y-65502665D01*
X106358196Y-65558257D01*
X106427770Y-65635526D01*
X106572406Y-65740612D01*
X106681864Y-65789345D01*
X106735733Y-65813329D01*
X106910609Y-65850500D01*
X107089389Y-65850500D01*
X107089391Y-65850500D01*
X107264267Y-65813329D01*
X107427593Y-65740612D01*
X107572230Y-65635526D01*
X107691859Y-65502665D01*
X107781250Y-65347835D01*
X107836497Y-65177803D01*
X107855185Y-65000000D01*
X107836497Y-64822197D01*
X107781250Y-64652165D01*
X107691859Y-64497335D01*
X107572230Y-64364474D01*
X107558047Y-64354169D01*
X107427593Y-64259387D01*
X107264270Y-64186672D01*
X107264268Y-64186671D01*
X107264267Y-64186671D01*
X107089391Y-64149500D01*
X106910609Y-64149500D01*
X106826914Y-64167290D01*
X106759613Y-64181595D01*
X106716847Y-64181241D01*
X106687995Y-64167527D01*
X106687305Y-64167290D01*
X106684994Y-64166100D01*
X106678221Y-64162881D01*
X106677207Y-64162092D01*
X106672035Y-64159429D01*
X106616551Y-64142911D01*
X106612669Y-64141667D01*
X106573858Y-64128344D01*
X106557890Y-64122862D01*
X106552127Y-64122023D01*
X106494299Y-64124415D01*
X106490208Y-64124500D01*
X105645544Y-64124500D01*
X105590543Y-64107815D01*
X105554080Y-64063386D01*
X105548446Y-64006186D01*
X105575539Y-63955497D01*
X105626542Y-63904494D01*
X105658658Y-63883036D01*
X105696544Y-63875500D01*
X108053455Y-63875500D01*
X108091341Y-63883036D01*
X108123459Y-63904496D01*
X113774687Y-69555725D01*
X113787558Y-69571575D01*
X113794916Y-69582836D01*
X113821116Y-69603228D01*
X113830297Y-69611335D01*
X113831482Y-69612520D01*
X113834931Y-69614982D01*
X113848831Y-69624906D01*
X113852115Y-69627355D01*
X113897799Y-69662913D01*
X113902954Y-69665566D01*
X113907798Y-69667008D01*
X113907801Y-69667010D01*
X113958471Y-69682094D01*
X113962320Y-69683328D01*
X114012340Y-69700500D01*
X114012341Y-69700500D01*
X114017109Y-69702137D01*
X114022872Y-69702976D01*
X114027910Y-69702767D01*
X114027912Y-69702768D01*
X114080700Y-69700585D01*
X114084792Y-69700500D01*
X114804908Y-69700500D01*
X114858100Y-69716004D01*
X114894632Y-69757660D01*
X114895025Y-69760218D01*
X114907988Y-69775000D01*
X115456134Y-69775000D01*
X115463035Y-69775500D01*
X115466740Y-69775500D01*
X116808260Y-69775500D01*
X116811965Y-69775500D01*
X116818866Y-69775000D01*
X117367011Y-69775000D01*
X117367011Y-69774999D01*
X117359555Y-69718368D01*
X117299099Y-69572411D01*
X117202924Y-69447074D01*
X117164233Y-69417386D01*
X117135710Y-69382631D01*
X117125500Y-69338844D01*
X117125500Y-69191743D01*
X117125232Y-69189903D01*
X117115573Y-69123607D01*
X117076400Y-69043478D01*
X117066342Y-68999999D01*
X117076399Y-68956524D01*
X117115573Y-68876393D01*
X117125500Y-68808260D01*
X117125500Y-68541740D01*
X117115573Y-68473607D01*
X117076400Y-68393477D01*
X117066342Y-68350000D01*
X117076400Y-68306522D01*
X117115573Y-68226393D01*
X117125500Y-68158260D01*
X117125500Y-67891740D01*
X117115573Y-67823607D01*
X117076400Y-67743477D01*
X117066342Y-67700000D01*
X117076400Y-67656522D01*
X117115573Y-67576393D01*
X117125500Y-67508260D01*
X117125500Y-67241740D01*
X117115573Y-67173607D01*
X117076400Y-67093477D01*
X117066342Y-67050000D01*
X117076400Y-67006522D01*
X117115573Y-66926393D01*
X117125500Y-66858260D01*
X117125500Y-66711156D01*
X117135710Y-66667369D01*
X117164233Y-66632614D01*
X117202924Y-66602925D01*
X117299098Y-66477589D01*
X117359556Y-66331630D01*
X117367011Y-66275000D01*
X116818866Y-66275000D01*
X116811965Y-66274500D01*
X116808260Y-66274500D01*
X116036500Y-66274500D01*
X115987000Y-66261237D01*
X115950763Y-66225000D01*
X115937500Y-66175500D01*
X115937500Y-65625001D01*
X115937499Y-65625000D01*
X114921004Y-65625000D01*
X114883118Y-65617464D01*
X114851000Y-65596004D01*
X114574247Y-65319251D01*
X114479996Y-65225000D01*
X114907988Y-65225000D01*
X115937499Y-65225000D01*
X115937500Y-65224999D01*
X115937500Y-64725002D01*
X115937499Y-64725001D01*
X115460677Y-64725001D01*
X115343369Y-64740443D01*
X115197409Y-64800901D01*
X115072074Y-64897074D01*
X114975901Y-65022409D01*
X114915443Y-65168369D01*
X114907988Y-65224999D01*
X114907988Y-65225000D01*
X114479996Y-65225000D01*
X113654496Y-64399499D01*
X113633036Y-64367381D01*
X113625500Y-64329495D01*
X113625500Y-63828097D01*
X113641472Y-63774177D01*
X113670873Y-63749066D01*
X113669175Y-63746729D01*
X113794094Y-63655968D01*
X113822230Y-63635526D01*
X113941859Y-63502665D01*
X114031250Y-63347835D01*
X114086497Y-63177803D01*
X114105185Y-63000000D01*
X114086497Y-62822197D01*
X114031250Y-62652165D01*
X113941859Y-62497335D01*
X113822230Y-62364474D01*
X113812923Y-62357712D01*
X113677593Y-62259387D01*
X113633915Y-62239941D01*
X113592888Y-62206001D01*
X113575376Y-62155717D01*
X113586447Y-62103634D01*
X113622896Y-62064819D01*
X113674181Y-62050500D01*
X115219733Y-62050500D01*
X115276195Y-62068180D01*
X115312491Y-62114904D01*
X115329787Y-62161277D01*
X115332986Y-62165550D01*
X115413884Y-62273616D01*
X115465800Y-62312480D01*
X115526221Y-62357712D01*
X115657700Y-62406751D01*
X115677075Y-62408833D01*
X115715826Y-62413000D01*
X116284172Y-62413000D01*
X116284174Y-62413000D01*
X116342299Y-62406751D01*
X116473778Y-62357712D01*
X116586116Y-62273616D01*
X116670212Y-62161278D01*
X116681953Y-62129799D01*
X116687509Y-62114904D01*
X116723805Y-62068180D01*
X116780267Y-62050500D01*
X116933296Y-62050500D01*
X116979703Y-62062051D01*
X117015281Y-62094008D01*
X117024396Y-62118896D01*
X117026403Y-62118148D01*
X117079787Y-62261278D01*
X117162932Y-62372344D01*
X117182287Y-62422870D01*
X117172188Y-62476025D01*
X117135652Y-62515933D01*
X117051965Y-62567552D01*
X116930055Y-62689462D01*
X116839546Y-62836199D01*
X116806440Y-62936107D01*
X116776700Y-62980298D01*
X116728366Y-63002682D01*
X116675428Y-62996778D01*
X116633212Y-62964296D01*
X116612178Y-62936199D01*
X116586116Y-62901384D01*
X116527887Y-62857794D01*
X116473778Y-62817287D01*
X116342299Y-62768248D01*
X116294458Y-62763105D01*
X116284174Y-62762000D01*
X115715826Y-62762000D01*
X115706377Y-62763015D01*
X115657700Y-62768248D01*
X115526221Y-62817287D01*
X115413884Y-62901384D01*
X115329787Y-63013721D01*
X115280748Y-63145200D01*
X115277244Y-63177802D01*
X115274500Y-63203326D01*
X115274500Y-63796674D01*
X115274766Y-63799150D01*
X115280748Y-63854799D01*
X115329787Y-63986278D01*
X115377880Y-64050522D01*
X115413884Y-64098616D01*
X115472277Y-64142329D01*
X115526221Y-64182712D01*
X115657700Y-64231751D01*
X115677076Y-64233834D01*
X115715826Y-64238000D01*
X116165955Y-64238000D01*
X116203841Y-64245536D01*
X116235959Y-64266996D01*
X116524959Y-64555996D01*
X116552053Y-64606686D01*
X116546419Y-64663886D01*
X116509956Y-64708315D01*
X116454955Y-64725000D01*
X116337501Y-64725000D01*
X116337500Y-64725001D01*
X116337500Y-65874999D01*
X116337501Y-65875000D01*
X117367011Y-65875000D01*
X117367011Y-65874999D01*
X117359556Y-65818369D01*
X117346929Y-65787885D01*
X117339393Y-65749998D01*
X117346930Y-65712111D01*
X117359556Y-65681630D01*
X117367211Y-65623487D01*
X117388836Y-65573604D01*
X117433541Y-65542663D01*
X117487845Y-65539995D01*
X117535368Y-65566405D01*
X117624686Y-65655723D01*
X117637558Y-65671575D01*
X117644916Y-65682836D01*
X117653996Y-65689903D01*
X117671113Y-65703226D01*
X117680305Y-65711342D01*
X117681482Y-65712519D01*
X117698801Y-65724884D01*
X117702083Y-65727331D01*
X117747799Y-65762913D01*
X117752954Y-65765566D01*
X117757798Y-65767008D01*
X117757801Y-65767010D01*
X117808471Y-65782094D01*
X117812320Y-65783328D01*
X117862340Y-65800500D01*
X117862341Y-65800500D01*
X117867109Y-65802137D01*
X117872872Y-65802976D01*
X117877910Y-65802767D01*
X117877912Y-65802768D01*
X117930700Y-65800585D01*
X117934792Y-65800500D01*
X120780609Y-65800500D01*
X120834185Y-65816249D01*
X120870714Y-65858487D01*
X120878574Y-65913772D01*
X120874500Y-65941740D01*
X120874500Y-66208260D01*
X120876939Y-66225000D01*
X120884427Y-66276394D01*
X120923598Y-66356519D01*
X120933657Y-66399999D01*
X120923598Y-66443478D01*
X120891378Y-66509388D01*
X120884427Y-66523607D01*
X120874500Y-66591740D01*
X120874500Y-66858260D01*
X120880727Y-66901000D01*
X120884427Y-66926394D01*
X120923598Y-67006520D01*
X120933657Y-67050000D01*
X120923598Y-67093480D01*
X120884427Y-67173605D01*
X120884427Y-67173606D01*
X120884427Y-67173607D01*
X120874500Y-67241740D01*
X120874500Y-67508260D01*
X120880157Y-67547088D01*
X120884427Y-67576394D01*
X120923598Y-67656520D01*
X120933657Y-67700000D01*
X120923598Y-67743480D01*
X120884427Y-67823605D01*
X120882105Y-67839545D01*
X120874500Y-67891740D01*
X120874500Y-68158260D01*
X120875542Y-68165412D01*
X120884427Y-68226394D01*
X120923598Y-68306520D01*
X120933657Y-68350000D01*
X120923598Y-68393480D01*
X120884427Y-68473605D01*
X120884427Y-68473606D01*
X120884427Y-68473607D01*
X120877841Y-68518814D01*
X120874500Y-68541743D01*
X120874500Y-68808257D01*
X120884427Y-68876394D01*
X120896817Y-68901737D01*
X120923597Y-68956518D01*
X120923598Y-68956519D01*
X120933657Y-68999999D01*
X120923598Y-69043478D01*
X120885380Y-69121657D01*
X120884427Y-69123607D01*
X120874500Y-69191740D01*
X120874500Y-69458260D01*
X120879440Y-69492162D01*
X120884427Y-69526394D01*
X120923598Y-69606520D01*
X120933657Y-69650000D01*
X120923598Y-69693480D01*
X120884427Y-69773605D01*
X120883386Y-69780749D01*
X120874500Y-69841740D01*
X120874500Y-70108260D01*
X120876866Y-70124500D01*
X120884427Y-70176394D01*
X120923598Y-70256519D01*
X120933657Y-70299999D01*
X120923598Y-70343478D01*
X120884428Y-70423604D01*
X120884427Y-70423607D01*
X120874500Y-70491740D01*
X120874500Y-70758260D01*
X120878276Y-70784174D01*
X120884427Y-70826394D01*
X120923598Y-70906520D01*
X120933657Y-70950000D01*
X120923598Y-70993480D01*
X120884427Y-71073605D01*
X120882604Y-71086116D01*
X120874500Y-71141740D01*
X120874500Y-71408260D01*
X120884427Y-71476393D01*
X120935802Y-71581483D01*
X121018517Y-71664198D01*
X121123607Y-71715573D01*
X121191740Y-71725500D01*
X122533257Y-71725500D01*
X122533260Y-71725500D01*
X122601393Y-71715573D01*
X122706483Y-71664198D01*
X122789198Y-71581483D01*
X122840573Y-71476393D01*
X122850500Y-71408260D01*
X122850500Y-71141740D01*
X122846425Y-71113772D01*
X122854286Y-71058487D01*
X122890815Y-71016249D01*
X122944391Y-71000500D01*
X123428455Y-71000500D01*
X123466341Y-71008036D01*
X123498459Y-71029496D01*
X129699686Y-77230723D01*
X129712558Y-77246575D01*
X129719916Y-77257836D01*
X129739802Y-77273314D01*
X129746113Y-77278226D01*
X129755305Y-77286342D01*
X129756482Y-77287519D01*
X129773801Y-77299884D01*
X129777083Y-77302331D01*
X129822799Y-77337913D01*
X129827954Y-77340566D01*
X129832798Y-77342008D01*
X129832801Y-77342010D01*
X129883472Y-77357095D01*
X129887322Y-77358329D01*
X129937340Y-77375500D01*
X129937341Y-77375500D01*
X129942110Y-77377137D01*
X129947871Y-77377976D01*
X129952909Y-77377767D01*
X129952911Y-77377768D01*
X130005699Y-77375585D01*
X130009791Y-77375500D01*
X133530789Y-77375500D01*
X133551105Y-77377607D01*
X133564268Y-77380367D01*
X133597216Y-77376260D01*
X133609462Y-77375500D01*
X133611112Y-77375500D01*
X133611114Y-77375500D01*
X133632147Y-77371989D01*
X133636143Y-77371407D01*
X133688626Y-77364866D01*
X133688627Y-77364865D01*
X133693637Y-77364241D01*
X133699163Y-77362470D01*
X133703605Y-77360065D01*
X133703610Y-77360065D01*
X133750104Y-77334903D01*
X133753694Y-77333055D01*
X133801211Y-77309826D01*
X133801212Y-77309824D01*
X133805755Y-77307604D01*
X133810397Y-77304142D01*
X133813822Y-77300420D01*
X133813826Y-77300419D01*
X133849653Y-77261499D01*
X133852415Y-77258620D01*
X134901541Y-76209494D01*
X134933659Y-76188035D01*
X134971545Y-76180499D01*
X136147872Y-76180499D01*
X136207483Y-76174091D01*
X136342331Y-76123796D01*
X136457546Y-76037546D01*
X136543796Y-75922331D01*
X136594091Y-75787483D01*
X136600500Y-75727873D01*
X136600499Y-74721543D01*
X136608035Y-74683658D01*
X136629492Y-74651543D01*
X137980727Y-73300308D01*
X137996577Y-73287438D01*
X138007836Y-73280084D01*
X138028226Y-73253885D01*
X138036344Y-73244692D01*
X138037519Y-73243518D01*
X138049904Y-73226169D01*
X138052305Y-73222948D01*
X138084809Y-73181189D01*
X138084810Y-73181185D01*
X138087918Y-73177193D01*
X138090565Y-73172052D01*
X138093033Y-73163762D01*
X138107096Y-73116525D01*
X138108319Y-73112704D01*
X138125500Y-73062660D01*
X138125500Y-73062656D01*
X138127137Y-73057887D01*
X138127976Y-73052128D01*
X138126423Y-73014579D01*
X138125585Y-72994300D01*
X138125500Y-72990209D01*
X138125500Y-64049211D01*
X138127607Y-64028895D01*
X138129313Y-64020757D01*
X138130367Y-64015732D01*
X138126260Y-63982783D01*
X138125500Y-63970538D01*
X138125500Y-63968887D01*
X138125500Y-63968886D01*
X138121990Y-63947857D01*
X138121405Y-63943839D01*
X138119761Y-63930652D01*
X138114866Y-63891374D01*
X138114242Y-63886367D01*
X138112469Y-63880834D01*
X138110065Y-63876392D01*
X138110065Y-63876390D01*
X138084906Y-63829900D01*
X138083062Y-63826318D01*
X138059826Y-63778789D01*
X138059824Y-63778787D01*
X138057608Y-63774254D01*
X138054134Y-63769595D01*
X138050420Y-63766176D01*
X138050419Y-63766174D01*
X138011527Y-63730371D01*
X138008599Y-63727562D01*
X136687811Y-62406773D01*
X136674935Y-62390916D01*
X136667583Y-62379662D01*
X136641388Y-62359274D01*
X136632197Y-62351159D01*
X136631018Y-62349980D01*
X136622431Y-62343849D01*
X136613670Y-62337594D01*
X136610387Y-62335146D01*
X136564707Y-62299591D01*
X136559540Y-62296931D01*
X136504051Y-62280411D01*
X136500169Y-62279167D01*
X136461358Y-62265844D01*
X136445390Y-62260362D01*
X136439627Y-62259523D01*
X136381799Y-62261915D01*
X136377708Y-62262000D01*
X126969399Y-62262000D01*
X126931513Y-62254464D01*
X126899398Y-62233006D01*
X126825842Y-62159450D01*
X126712804Y-62101854D01*
X126712803Y-62101853D01*
X126712802Y-62101853D01*
X126619019Y-62087000D01*
X125380978Y-62087000D01*
X125287197Y-62101852D01*
X125207643Y-62142388D01*
X125159588Y-62153129D01*
X125112303Y-62139391D01*
X125077484Y-62104573D01*
X125063747Y-62057287D01*
X125074488Y-62009234D01*
X125098146Y-61962804D01*
X125113000Y-61869019D01*
X125112999Y-61505982D01*
X125112999Y-61505980D01*
X125112999Y-61505978D01*
X125098147Y-61412196D01*
X125040551Y-61299160D01*
X125040550Y-61299158D01*
X124950842Y-61209450D01*
X124837804Y-61151854D01*
X124837803Y-61151853D01*
X124837802Y-61151853D01*
X124744019Y-61137000D01*
X124146545Y-61137000D01*
X124108659Y-61129464D01*
X124076541Y-61108004D01*
X123487811Y-60519273D01*
X123474935Y-60503416D01*
X123467583Y-60492162D01*
X123441388Y-60471774D01*
X123432197Y-60463659D01*
X123431018Y-60462480D01*
X123422431Y-60456349D01*
X123413670Y-60450094D01*
X123410387Y-60447646D01*
X123364707Y-60412091D01*
X123359540Y-60409431D01*
X123304051Y-60392911D01*
X123300169Y-60391667D01*
X123279138Y-60384447D01*
X123245390Y-60372862D01*
X123239627Y-60372023D01*
X123181799Y-60374415D01*
X123177708Y-60374500D01*
X105753627Y-60374500D01*
X105733311Y-60372393D01*
X105720148Y-60369633D01*
X105687199Y-60373740D01*
X105674954Y-60374500D01*
X105673302Y-60374500D01*
X105667776Y-60375421D01*
X105652298Y-60378004D01*
X105648256Y-60378592D01*
X105590799Y-60385755D01*
X105585237Y-60387537D01*
X105534343Y-60415078D01*
X105530710Y-60416948D01*
X105478679Y-60442386D01*
X105474003Y-60445873D01*
X105434810Y-60488447D01*
X105431978Y-60491399D01*
X102294504Y-63628874D01*
X102243814Y-63655968D01*
X102186614Y-63650334D01*
X102142185Y-63613871D01*
X102125500Y-63558870D01*
X102125500Y-63193424D01*
X102127607Y-63173108D01*
X102128214Y-63170212D01*
X102130367Y-63159945D01*
X102126260Y-63126996D01*
X102125500Y-63114751D01*
X102125500Y-63113100D01*
X102124823Y-63109045D01*
X102121990Y-63092070D01*
X102121405Y-63088052D01*
X102118910Y-63068037D01*
X102114866Y-63035587D01*
X102114242Y-63030580D01*
X102112469Y-63025047D01*
X102110065Y-63020605D01*
X102110065Y-63020603D01*
X102084906Y-62974113D01*
X102083062Y-62970531D01*
X102059826Y-62923002D01*
X102059824Y-62923000D01*
X102057608Y-62918467D01*
X102054134Y-62913808D01*
X102050420Y-62910389D01*
X102050419Y-62910387D01*
X102011526Y-62874583D01*
X102008598Y-62871774D01*
X98906098Y-59769273D01*
X98893222Y-59753416D01*
X98885870Y-59742162D01*
X98859675Y-59721774D01*
X98850484Y-59713659D01*
X98849305Y-59712480D01*
X98840718Y-59706349D01*
X98831957Y-59700094D01*
X98828674Y-59697646D01*
X98782994Y-59662091D01*
X98777827Y-59659431D01*
X98722338Y-59642911D01*
X98718456Y-59641667D01*
X98697425Y-59634447D01*
X98663677Y-59622862D01*
X98657914Y-59622023D01*
X98600086Y-59624415D01*
X98595995Y-59624500D01*
X95296361Y-59624500D01*
X95244389Y-59609761D01*
X95207892Y-59569932D01*
X95197738Y-59516872D01*
X95198186Y-59511741D01*
X94499999Y-58813554D01*
X93801811Y-59511741D01*
X93802260Y-59516872D01*
X93792106Y-59569932D01*
X93755609Y-59609761D01*
X93703637Y-59624500D01*
X91946545Y-59624500D01*
X91908659Y-59616964D01*
X91876541Y-59595504D01*
X91597704Y-59316667D01*
X91300311Y-59019273D01*
X91287435Y-59003416D01*
X91280083Y-58992162D01*
X91253888Y-58971774D01*
X91244697Y-58963659D01*
X91244696Y-58963658D01*
X91243518Y-58962480D01*
X91234931Y-58956349D01*
X91226170Y-58950094D01*
X91222887Y-58947646D01*
X91177207Y-58912091D01*
X91172040Y-58909431D01*
X91116551Y-58892911D01*
X91112669Y-58891667D01*
X91091638Y-58884447D01*
X91057890Y-58872862D01*
X91052127Y-58872023D01*
X90994299Y-58874415D01*
X90990208Y-58874500D01*
X90336819Y-58874500D01*
X90290411Y-58862949D01*
X90254832Y-58830990D01*
X90238386Y-58786082D01*
X90231751Y-58724366D01*
X90182712Y-58592887D01*
X90124678Y-58515365D01*
X90098616Y-58480550D01*
X90071164Y-58459999D01*
X93233178Y-58459999D01*
X93252424Y-58679978D01*
X93309578Y-58893277D01*
X93402902Y-59093413D01*
X93448257Y-59158186D01*
X94146444Y-58459999D01*
X94853554Y-58459999D01*
X95551741Y-59158186D01*
X95597098Y-59093411D01*
X95690421Y-58893277D01*
X95747575Y-58679978D01*
X95766821Y-58459999D01*
X95747575Y-58240021D01*
X95690420Y-58026717D01*
X95597100Y-57826592D01*
X95551741Y-57761812D01*
X94853554Y-58459999D01*
X94146444Y-58459999D01*
X93448257Y-57761812D01*
X93402899Y-57826592D01*
X93309579Y-58026717D01*
X93252424Y-58240021D01*
X93233178Y-58459999D01*
X90071164Y-58459999D01*
X90050522Y-58444546D01*
X89986278Y-58396453D01*
X89854799Y-58347414D01*
X89806958Y-58342271D01*
X89796674Y-58341166D01*
X89203326Y-58341166D01*
X89193877Y-58342181D01*
X89145200Y-58347414D01*
X89013721Y-58396453D01*
X88901384Y-58480550D01*
X88817287Y-58592887D01*
X88768248Y-58724366D01*
X88762000Y-58782494D01*
X88762000Y-59350838D01*
X88768248Y-59408965D01*
X88817287Y-59540444D01*
X88858506Y-59595504D01*
X88901384Y-59652782D01*
X88961315Y-59697646D01*
X89013721Y-59736878D01*
X89145200Y-59785917D01*
X89164576Y-59788000D01*
X89203326Y-59792166D01*
X89796672Y-59792166D01*
X89796674Y-59792166D01*
X89854799Y-59785917D01*
X89986278Y-59736878D01*
X90035415Y-59700094D01*
X90108682Y-59645247D01*
X90136747Y-59630566D01*
X90168011Y-59625500D01*
X90803455Y-59625500D01*
X90841341Y-59633036D01*
X90873459Y-59654496D01*
X91424459Y-60205496D01*
X91451553Y-60256186D01*
X91445919Y-60313386D01*
X91409456Y-60357815D01*
X91354455Y-60374500D01*
X90275672Y-60374500D01*
X90219210Y-60356821D01*
X90191306Y-60320900D01*
X90191242Y-60320949D01*
X90188535Y-60317333D01*
X90182915Y-60310098D01*
X90182712Y-60309554D01*
X90098616Y-60197216D01*
X90050522Y-60161212D01*
X89986278Y-60113119D01*
X89854799Y-60064080D01*
X89806958Y-60058937D01*
X89796674Y-60057832D01*
X89203326Y-60057832D01*
X89193877Y-60058847D01*
X89145200Y-60064080D01*
X89013721Y-60113119D01*
X88901384Y-60197216D01*
X88817287Y-60309553D01*
X88768248Y-60441032D01*
X88762000Y-60499160D01*
X88762000Y-61067504D01*
X88768248Y-61125631D01*
X88817287Y-61257110D01*
X88864517Y-61320200D01*
X88901384Y-61369448D01*
X88958488Y-61412196D01*
X89013721Y-61453544D01*
X89145200Y-61502583D01*
X89164576Y-61504666D01*
X89203326Y-61508832D01*
X89796672Y-61508832D01*
X89796674Y-61508832D01*
X89854799Y-61502583D01*
X89986278Y-61453544D01*
X90098616Y-61369448D01*
X90182712Y-61257110D01*
X90207778Y-61189903D01*
X90244075Y-61143179D01*
X90300537Y-61125500D01*
X90854454Y-61125500D01*
X90909455Y-61142185D01*
X90945918Y-61186614D01*
X90951552Y-61243814D01*
X90924458Y-61294504D01*
X90267792Y-61951169D01*
X90218832Y-61977903D01*
X90163191Y-61973923D01*
X90118537Y-61940495D01*
X90098616Y-61913884D01*
X90051141Y-61878344D01*
X89986278Y-61829787D01*
X89854799Y-61780748D01*
X89806958Y-61775605D01*
X89796674Y-61774500D01*
X89203326Y-61774500D01*
X89193877Y-61775515D01*
X89145200Y-61780748D01*
X89013721Y-61829787D01*
X88901384Y-61913884D01*
X88817287Y-62026221D01*
X88768248Y-62157700D01*
X88762000Y-62215828D01*
X88762000Y-62784172D01*
X88768248Y-62842299D01*
X88817287Y-62973778D01*
X88847189Y-63013721D01*
X88901384Y-63086116D01*
X88955993Y-63126996D01*
X89013721Y-63170212D01*
X89145200Y-63219251D01*
X89164575Y-63221333D01*
X89203326Y-63225500D01*
X89796672Y-63225500D01*
X89796674Y-63225500D01*
X89854799Y-63219251D01*
X89986278Y-63170212D01*
X90098616Y-63086116D01*
X90182712Y-62973778D01*
X90230859Y-62844689D01*
X90256842Y-62806197D01*
X90297519Y-62783788D01*
X90317970Y-62783173D01*
X90317875Y-62782410D01*
X90334267Y-62780366D01*
X90334268Y-62780367D01*
X90367216Y-62776260D01*
X90379462Y-62775500D01*
X90381112Y-62775500D01*
X90381114Y-62775500D01*
X90402147Y-62771989D01*
X90406143Y-62771407D01*
X90458626Y-62764866D01*
X90458627Y-62764865D01*
X90463637Y-62764241D01*
X90469163Y-62762470D01*
X90473605Y-62760065D01*
X90473610Y-62760065D01*
X90520104Y-62734903D01*
X90523694Y-62733055D01*
X90571211Y-62709826D01*
X90571212Y-62709824D01*
X90575755Y-62707604D01*
X90580397Y-62704142D01*
X90583822Y-62700420D01*
X90583826Y-62700419D01*
X90619652Y-62661499D01*
X90622440Y-62658596D01*
X91376542Y-61904496D01*
X91408659Y-61883036D01*
X91446545Y-61875500D01*
X91604453Y-61875500D01*
X91659454Y-61892185D01*
X91695917Y-61936614D01*
X91701551Y-61993814D01*
X91674457Y-62044504D01*
X91106771Y-62612189D01*
X91090919Y-62625062D01*
X91079662Y-62632417D01*
X91059266Y-62658620D01*
X91051158Y-62667804D01*
X91049980Y-62668981D01*
X91037590Y-62686335D01*
X91035146Y-62689612D01*
X90999595Y-62735288D01*
X90996927Y-62740471D01*
X90980411Y-62795948D01*
X90979167Y-62799828D01*
X90972767Y-62818475D01*
X90960362Y-62854611D01*
X90959523Y-62860372D01*
X90961915Y-62918201D01*
X90962000Y-62922292D01*
X90962000Y-64469733D01*
X90944320Y-64526195D01*
X90897596Y-64562491D01*
X90851222Y-64579787D01*
X90738884Y-64663884D01*
X90654787Y-64776221D01*
X90642153Y-64810097D01*
X90605857Y-64856821D01*
X90549395Y-64874500D01*
X90242660Y-64874500D01*
X90190630Y-64859725D01*
X90154130Y-64819812D01*
X90144054Y-64766672D01*
X90155051Y-64737977D01*
X90152738Y-64737115D01*
X90206751Y-64592299D01*
X90208096Y-64579787D01*
X90213000Y-64534174D01*
X90213000Y-63965826D01*
X90206751Y-63907701D01*
X90203934Y-63900149D01*
X90157712Y-63776221D01*
X90099678Y-63698699D01*
X90073616Y-63663884D01*
X89999562Y-63608447D01*
X89961278Y-63579787D01*
X89829799Y-63530748D01*
X89781958Y-63525605D01*
X89771674Y-63524500D01*
X89178326Y-63524500D01*
X89168877Y-63525515D01*
X89120200Y-63530748D01*
X88988721Y-63579787D01*
X88876384Y-63663884D01*
X88792287Y-63776221D01*
X88743248Y-63907700D01*
X88738928Y-63947895D01*
X88737215Y-63963831D01*
X88737000Y-63965828D01*
X88737000Y-64534172D01*
X88743248Y-64592299D01*
X88797262Y-64737115D01*
X88794948Y-64737977D01*
X88805946Y-64766672D01*
X88795870Y-64819812D01*
X88759370Y-64859725D01*
X88707340Y-64874500D01*
X88417660Y-64874500D01*
X88365630Y-64859725D01*
X88329130Y-64819812D01*
X88319054Y-64766672D01*
X88330051Y-64737977D01*
X88327738Y-64737115D01*
X88381751Y-64592299D01*
X88383096Y-64579787D01*
X88388000Y-64534174D01*
X88388000Y-63965826D01*
X88381751Y-63907701D01*
X88378934Y-63900149D01*
X88332712Y-63776221D01*
X88274678Y-63698699D01*
X88248616Y-63663884D01*
X88174562Y-63608447D01*
X88136278Y-63579787D01*
X88004799Y-63530748D01*
X87956958Y-63525605D01*
X87946674Y-63524500D01*
X87353326Y-63524500D01*
X87343877Y-63525515D01*
X87295200Y-63530748D01*
X87163721Y-63579787D01*
X87051384Y-63663884D01*
X86967287Y-63776221D01*
X86954653Y-63810097D01*
X86918357Y-63856821D01*
X86861895Y-63874500D01*
X85975605Y-63874500D01*
X85919143Y-63856821D01*
X85882847Y-63810097D01*
X85870212Y-63776221D01*
X85812178Y-63698699D01*
X85786116Y-63663884D01*
X85712062Y-63608447D01*
X85673778Y-63579787D01*
X85542299Y-63530748D01*
X85494458Y-63525605D01*
X85484174Y-63524500D01*
X84890826Y-63524500D01*
X84881377Y-63525515D01*
X84832700Y-63530748D01*
X84701221Y-63579787D01*
X84588884Y-63663884D01*
X84504786Y-63776223D01*
X84500519Y-63787664D01*
X84463467Y-63834906D01*
X84405928Y-63852048D01*
X84349064Y-63832786D01*
X84313787Y-63784205D01*
X84285453Y-63698699D01*
X84194944Y-63551962D01*
X84100486Y-63457504D01*
X84074863Y-63413123D01*
X84074863Y-63361877D01*
X84100486Y-63317496D01*
X84219944Y-63198037D01*
X84310454Y-63051299D01*
X84338787Y-62965794D01*
X84374064Y-62917211D01*
X84430929Y-62897950D01*
X84488469Y-62915093D01*
X84525520Y-62962336D01*
X84529787Y-62973778D01*
X84559689Y-63013721D01*
X84613884Y-63086116D01*
X84668493Y-63126996D01*
X84726221Y-63170212D01*
X84857700Y-63219251D01*
X84877075Y-63221333D01*
X84915826Y-63225500D01*
X85509172Y-63225500D01*
X85509174Y-63225500D01*
X85567299Y-63219251D01*
X85698778Y-63170212D01*
X85811116Y-63086116D01*
X85895212Y-62973778D01*
X85907846Y-62939903D01*
X85944143Y-62893179D01*
X86000605Y-62875500D01*
X86886895Y-62875500D01*
X86943357Y-62893179D01*
X86979653Y-62939903D01*
X86992287Y-62973778D01*
X87022189Y-63013721D01*
X87076384Y-63086116D01*
X87130993Y-63126996D01*
X87188721Y-63170212D01*
X87320200Y-63219251D01*
X87339575Y-63221333D01*
X87378326Y-63225500D01*
X87971672Y-63225500D01*
X87971674Y-63225500D01*
X88029799Y-63219251D01*
X88161278Y-63170212D01*
X88273616Y-63086116D01*
X88357712Y-62973778D01*
X88406751Y-62842299D01*
X88413000Y-62784174D01*
X88413000Y-62215826D01*
X88407136Y-62161278D01*
X88406751Y-62157700D01*
X88357712Y-62026221D01*
X88310237Y-61962804D01*
X88273616Y-61913884D01*
X88225522Y-61877880D01*
X88161278Y-61829787D01*
X88029799Y-61780748D01*
X87981958Y-61775605D01*
X87971674Y-61774500D01*
X87378326Y-61774500D01*
X87368877Y-61775515D01*
X87320200Y-61780748D01*
X87188721Y-61829787D01*
X87076384Y-61913884D01*
X86992287Y-62026221D01*
X86979653Y-62060097D01*
X86943357Y-62106821D01*
X86886895Y-62124500D01*
X86000605Y-62124500D01*
X85944143Y-62106821D01*
X85907847Y-62060097D01*
X85895212Y-62026221D01*
X85847737Y-61962804D01*
X85811116Y-61913884D01*
X85763022Y-61877880D01*
X85698778Y-61829787D01*
X85567299Y-61780748D01*
X85519458Y-61775605D01*
X85509174Y-61774500D01*
X84915826Y-61774500D01*
X84906377Y-61775515D01*
X84857700Y-61780748D01*
X84726221Y-61829787D01*
X84613884Y-61913884D01*
X84529786Y-62026223D01*
X84525519Y-62037664D01*
X84488467Y-62084906D01*
X84430928Y-62102048D01*
X84374064Y-62082786D01*
X84338787Y-62034205D01*
X84310453Y-61948699D01*
X84219944Y-61801962D01*
X84129652Y-61711670D01*
X84104029Y-61667289D01*
X84104029Y-61616043D01*
X84129652Y-61571662D01*
X84219944Y-61481369D01*
X84310454Y-61334631D01*
X84338787Y-61249126D01*
X84374064Y-61200543D01*
X84430929Y-61181282D01*
X84488469Y-61198425D01*
X84525520Y-61245668D01*
X84529787Y-61257110D01*
X84577017Y-61320200D01*
X84613884Y-61369448D01*
X84670988Y-61412196D01*
X84726221Y-61453544D01*
X84857700Y-61502583D01*
X84877076Y-61504666D01*
X84915826Y-61508832D01*
X85509172Y-61508832D01*
X85509174Y-61508832D01*
X85567299Y-61502583D01*
X85698778Y-61453544D01*
X85811116Y-61369448D01*
X85895212Y-61257110D01*
X85907846Y-61223235D01*
X85944143Y-61176511D01*
X86000605Y-61158832D01*
X86886895Y-61158832D01*
X86943357Y-61176511D01*
X86979653Y-61223235D01*
X86992287Y-61257110D01*
X87039517Y-61320200D01*
X87076384Y-61369448D01*
X87133488Y-61412196D01*
X87188721Y-61453544D01*
X87320200Y-61502583D01*
X87339576Y-61504666D01*
X87378326Y-61508832D01*
X87971672Y-61508832D01*
X87971674Y-61508832D01*
X88029799Y-61502583D01*
X88161278Y-61453544D01*
X88273616Y-61369448D01*
X88357712Y-61257110D01*
X88406751Y-61125631D01*
X88413000Y-61067506D01*
X88413000Y-60499158D01*
X88407263Y-60445797D01*
X88406751Y-60441032D01*
X88357712Y-60309553D01*
X88317761Y-60256186D01*
X88273616Y-60197216D01*
X88225522Y-60161212D01*
X88161278Y-60113119D01*
X88029799Y-60064080D01*
X87981958Y-60058937D01*
X87971674Y-60057832D01*
X87378326Y-60057832D01*
X87368877Y-60058847D01*
X87320200Y-60064080D01*
X87188721Y-60113119D01*
X87076384Y-60197216D01*
X86992287Y-60309553D01*
X86979653Y-60343429D01*
X86943357Y-60390153D01*
X86886895Y-60407832D01*
X86000605Y-60407832D01*
X85944143Y-60390153D01*
X85907847Y-60343429D01*
X85895212Y-60309553D01*
X85855261Y-60256186D01*
X85811116Y-60197216D01*
X85763022Y-60161212D01*
X85698778Y-60113119D01*
X85567299Y-60064080D01*
X85519458Y-60058937D01*
X85509174Y-60057832D01*
X84915826Y-60057832D01*
X84906377Y-60058847D01*
X84857700Y-60064080D01*
X84726221Y-60113119D01*
X84613884Y-60197216D01*
X84529786Y-60309555D01*
X84525519Y-60320996D01*
X84488467Y-60368238D01*
X84430928Y-60385380D01*
X84374064Y-60366118D01*
X84338787Y-60317537D01*
X84310453Y-60232031D01*
X84219944Y-60085294D01*
X84129653Y-59995003D01*
X84104030Y-59950622D01*
X84104030Y-59899376D01*
X84129653Y-59854995D01*
X84219944Y-59764703D01*
X84310454Y-59617965D01*
X84338787Y-59532460D01*
X84374064Y-59483877D01*
X84430929Y-59464616D01*
X84488469Y-59481759D01*
X84525520Y-59529002D01*
X84529787Y-59540444D01*
X84571006Y-59595504D01*
X84613884Y-59652782D01*
X84673815Y-59697646D01*
X84726221Y-59736878D01*
X84857700Y-59785917D01*
X84877076Y-59788000D01*
X84915826Y-59792166D01*
X85509172Y-59792166D01*
X85509174Y-59792166D01*
X85567299Y-59785917D01*
X85698778Y-59736878D01*
X85811116Y-59652782D01*
X85895212Y-59540444D01*
X85907846Y-59506569D01*
X85944143Y-59459845D01*
X86000605Y-59442166D01*
X86886895Y-59442166D01*
X86943357Y-59459845D01*
X86979653Y-59506569D01*
X86992287Y-59540444D01*
X87033506Y-59595504D01*
X87076384Y-59652782D01*
X87136315Y-59697646D01*
X87188721Y-59736878D01*
X87320200Y-59785917D01*
X87339576Y-59788000D01*
X87378326Y-59792166D01*
X87971672Y-59792166D01*
X87971674Y-59792166D01*
X88029799Y-59785917D01*
X88161278Y-59736878D01*
X88273616Y-59652782D01*
X88357712Y-59540444D01*
X88406751Y-59408965D01*
X88413000Y-59350840D01*
X88413000Y-58782492D01*
X88406751Y-58724367D01*
X88378809Y-58649452D01*
X88357712Y-58592887D01*
X88299678Y-58515365D01*
X88273616Y-58480550D01*
X88225522Y-58444546D01*
X88161278Y-58396453D01*
X88029799Y-58347414D01*
X87981958Y-58342271D01*
X87971674Y-58341166D01*
X87378326Y-58341166D01*
X87368877Y-58342181D01*
X87320200Y-58347414D01*
X87188721Y-58396453D01*
X87076384Y-58480550D01*
X86992287Y-58592887D01*
X86979653Y-58626763D01*
X86943357Y-58673487D01*
X86886895Y-58691166D01*
X86000605Y-58691166D01*
X85944143Y-58673487D01*
X85907847Y-58626763D01*
X85895212Y-58592887D01*
X85837178Y-58515365D01*
X85811116Y-58480550D01*
X85763022Y-58444546D01*
X85698778Y-58396453D01*
X85567299Y-58347414D01*
X85519458Y-58342271D01*
X85509174Y-58341166D01*
X84915826Y-58341166D01*
X84906377Y-58342181D01*
X84857700Y-58347414D01*
X84726221Y-58396453D01*
X84613884Y-58480550D01*
X84529786Y-58592889D01*
X84525519Y-58604330D01*
X84488467Y-58651572D01*
X84430928Y-58668714D01*
X84374064Y-58649452D01*
X84338787Y-58600871D01*
X84310453Y-58515365D01*
X84219944Y-58368628D01*
X84098037Y-58246721D01*
X83951300Y-58156212D01*
X83787649Y-58101984D01*
X83686650Y-58091666D01*
X83637501Y-58091666D01*
X83637500Y-58091667D01*
X83637500Y-63448993D01*
X83629964Y-63486879D01*
X83612500Y-63513016D01*
X83612500Y-65224998D01*
X83612501Y-65224999D01*
X83661651Y-65224999D01*
X83762648Y-65214682D01*
X83926300Y-65160453D01*
X84073037Y-65069944D01*
X84194944Y-64948037D01*
X84285454Y-64801299D01*
X84313787Y-64715794D01*
X84349064Y-64667211D01*
X84405929Y-64647950D01*
X84463469Y-64665093D01*
X84500520Y-64712336D01*
X84504787Y-64723778D01*
X84531804Y-64759867D01*
X84588884Y-64836116D01*
X84653128Y-64884208D01*
X84701221Y-64920212D01*
X84832700Y-64969251D01*
X84852075Y-64971333D01*
X84890826Y-64975500D01*
X85484172Y-64975500D01*
X85484174Y-64975500D01*
X85542299Y-64969251D01*
X85673778Y-64920212D01*
X85786116Y-64836116D01*
X85870212Y-64723778D01*
X85875696Y-64709074D01*
X85882847Y-64689903D01*
X85919143Y-64643179D01*
X85975605Y-64625500D01*
X86861895Y-64625500D01*
X86918357Y-64643179D01*
X86954653Y-64689903D01*
X86967287Y-64723778D01*
X86994304Y-64759867D01*
X87051384Y-64836116D01*
X87115628Y-64884208D01*
X87163721Y-64920212D01*
X87295200Y-64969251D01*
X87314575Y-64971333D01*
X87353326Y-64975500D01*
X87353328Y-64975500D01*
X87754453Y-64975500D01*
X87809454Y-64992185D01*
X87845917Y-65036614D01*
X87851551Y-65093814D01*
X87824457Y-65144504D01*
X86519271Y-66449689D01*
X86503419Y-66462562D01*
X86492162Y-66469917D01*
X86471766Y-66496120D01*
X86463658Y-66505304D01*
X86462480Y-66506481D01*
X86450090Y-66523835D01*
X86447646Y-66527112D01*
X86412095Y-66572788D01*
X86409427Y-66577971D01*
X86392911Y-66633448D01*
X86391667Y-66637328D01*
X86384675Y-66657700D01*
X86372862Y-66692111D01*
X86372023Y-66697872D01*
X86374415Y-66755701D01*
X86374500Y-66759792D01*
X86374500Y-67303456D01*
X86366964Y-67341342D01*
X86345503Y-67373460D01*
X86285476Y-67433486D01*
X86232309Y-67461040D01*
X86172982Y-67452900D01*
X86129201Y-67412043D01*
X86116986Y-67353420D01*
X86125000Y-67274982D01*
X86125000Y-67000001D01*
X86124999Y-67000000D01*
X84886500Y-67000000D01*
X84837000Y-66986737D01*
X84800763Y-66950500D01*
X84787500Y-66901000D01*
X84787500Y-66499999D01*
X85287500Y-66499999D01*
X85287501Y-66500000D01*
X86124998Y-66500000D01*
X86124999Y-66499999D01*
X86124999Y-66225027D01*
X86114505Y-66122303D01*
X86059357Y-65955877D01*
X85967318Y-65806658D01*
X85843341Y-65682681D01*
X85694121Y-65590642D01*
X85527694Y-65535493D01*
X85424982Y-65525000D01*
X85287501Y-65525000D01*
X85287500Y-65525001D01*
X85287500Y-66499999D01*
X84787500Y-66499999D01*
X84787500Y-65525002D01*
X84787499Y-65525001D01*
X84650027Y-65525001D01*
X84547303Y-65535494D01*
X84380877Y-65590642D01*
X84231658Y-65682681D01*
X84107681Y-65806658D01*
X84015642Y-65955877D01*
X83962731Y-66115552D01*
X83927453Y-66164133D01*
X83870588Y-66183394D01*
X83813048Y-66166250D01*
X83775998Y-66119007D01*
X83743796Y-66032669D01*
X83706632Y-65983025D01*
X83657546Y-65917454D01*
X83548893Y-65836116D01*
X83542330Y-65831203D01*
X83441188Y-65793480D01*
X83407483Y-65780909D01*
X83347873Y-65774500D01*
X83347869Y-65774500D01*
X82577128Y-65774500D01*
X82517515Y-65780909D01*
X82382669Y-65831203D01*
X82267454Y-65917454D01*
X82181203Y-66032669D01*
X82130910Y-66167514D01*
X82130909Y-66167517D01*
X82124729Y-66225000D01*
X82124500Y-66227131D01*
X82124500Y-67015953D01*
X82116964Y-67053839D01*
X82095504Y-67085957D01*
X81269271Y-67912189D01*
X81253419Y-67925062D01*
X81242162Y-67932417D01*
X81221766Y-67958620D01*
X81213658Y-67967804D01*
X81212480Y-67968981D01*
X81200090Y-67986335D01*
X81197645Y-67989612D01*
X81162094Y-68035288D01*
X81159431Y-68040461D01*
X81142911Y-68095948D01*
X81141667Y-68099828D01*
X81130823Y-68131419D01*
X81122862Y-68154611D01*
X81122023Y-68160372D01*
X81124415Y-68218201D01*
X81124500Y-68222292D01*
X81124500Y-70775500D01*
X81111237Y-70825000D01*
X81075000Y-70861237D01*
X81025500Y-70874500D01*
X80880171Y-70874500D01*
X80830671Y-70861237D01*
X80794435Y-70825000D01*
X80732534Y-70717785D01*
X80605873Y-70577113D01*
X80488366Y-70491740D01*
X80452730Y-70465849D01*
X80419379Y-70451000D01*
X80279804Y-70388856D01*
X80177749Y-70367164D01*
X80094646Y-70349500D01*
X79905354Y-70349500D01*
X79841192Y-70363138D01*
X79720195Y-70388856D01*
X79547271Y-70465848D01*
X79394126Y-70577113D01*
X79267468Y-70717781D01*
X79172821Y-70881715D01*
X79133421Y-71002976D01*
X79114326Y-71061744D01*
X79094540Y-71250000D01*
X73500500Y-71250000D01*
X73500500Y-64536651D01*
X82375001Y-64536651D01*
X82385317Y-64637648D01*
X82439546Y-64801300D01*
X82530055Y-64948037D01*
X82651962Y-65069944D01*
X82798699Y-65160453D01*
X82962350Y-65214681D01*
X83063350Y-65225000D01*
X83112499Y-65225000D01*
X83112500Y-65224999D01*
X83112500Y-64500001D01*
X83112499Y-64500000D01*
X82375002Y-64500000D01*
X82375001Y-64500001D01*
X82375001Y-64536651D01*
X73500500Y-64536651D01*
X73500500Y-63999999D01*
X82375000Y-63999999D01*
X82375001Y-64000000D01*
X83112499Y-64000000D01*
X83112500Y-63999999D01*
X83112500Y-63301007D01*
X83120036Y-63263121D01*
X83137500Y-63236984D01*
X83137500Y-62750001D01*
X83137499Y-62750000D01*
X82400002Y-62750000D01*
X82400001Y-62750001D01*
X82400001Y-62786651D01*
X82410317Y-62887648D01*
X82464546Y-63051300D01*
X82555055Y-63198037D01*
X82649514Y-63292496D01*
X82675137Y-63336877D01*
X82675137Y-63388123D01*
X82649514Y-63432504D01*
X82530055Y-63551962D01*
X82439546Y-63698699D01*
X82385318Y-63862350D01*
X82375000Y-63963350D01*
X82375000Y-63999999D01*
X73500500Y-63999999D01*
X73500500Y-62249999D01*
X82400000Y-62249999D01*
X82400001Y-62250000D01*
X83137499Y-62250000D01*
X83137500Y-62249999D01*
X83137500Y-61033333D01*
X83137499Y-61033332D01*
X82400002Y-61033332D01*
X82400001Y-61033333D01*
X82400001Y-61069983D01*
X82410317Y-61170980D01*
X82464546Y-61334632D01*
X82555056Y-61481371D01*
X82645347Y-61571663D01*
X82670970Y-61616043D01*
X82670970Y-61667289D01*
X82645347Y-61711669D01*
X82555056Y-61801960D01*
X82464546Y-61948699D01*
X82410318Y-62112350D01*
X82400000Y-62213350D01*
X82400000Y-62249999D01*
X73500500Y-62249999D01*
X73500500Y-60533331D01*
X82400000Y-60533331D01*
X82400001Y-60533332D01*
X83137499Y-60533332D01*
X83137500Y-60533331D01*
X83137500Y-59316667D01*
X83137499Y-59316666D01*
X82400002Y-59316666D01*
X82400001Y-59316667D01*
X82400001Y-59353317D01*
X82410317Y-59454314D01*
X82464546Y-59617966D01*
X82555055Y-59764703D01*
X82645347Y-59854995D01*
X82670970Y-59899376D01*
X82670970Y-59950622D01*
X82645347Y-59995003D01*
X82555055Y-60085294D01*
X82464546Y-60232031D01*
X82410318Y-60395682D01*
X82400000Y-60496682D01*
X82400000Y-60533331D01*
X73500500Y-60533331D01*
X73500500Y-58816665D01*
X82400000Y-58816665D01*
X82400001Y-58816666D01*
X83137499Y-58816666D01*
X83137500Y-58816665D01*
X83137500Y-58091668D01*
X83137499Y-58091667D01*
X83088349Y-58091667D01*
X82987351Y-58101983D01*
X82823699Y-58156212D01*
X82676962Y-58246721D01*
X82555055Y-58368628D01*
X82464546Y-58515365D01*
X82410318Y-58679016D01*
X82400000Y-58780016D01*
X82400000Y-58816665D01*
X73500500Y-58816665D01*
X73500500Y-57408257D01*
X93801812Y-57408257D01*
X94499999Y-58106444D01*
X95198186Y-57408257D01*
X95133413Y-57362902D01*
X94933277Y-57269578D01*
X94719978Y-57212424D01*
X94500000Y-57193178D01*
X94280021Y-57212424D01*
X94066717Y-57269579D01*
X93866592Y-57362899D01*
X93801812Y-57408257D01*
X73500500Y-57408257D01*
X73500500Y-55849500D01*
X73513763Y-55800000D01*
X73550000Y-55763763D01*
X73599500Y-55750500D01*
X140900500Y-55750500D01*
X140950000Y-55763763D01*
G37*
%TD.AperFunction*%
%TD*%
M02*
