%TF.GenerationSoftware,KiCad,Pcbnew,7.0.1*%
%TF.CreationDate,2023-03-17T11:51:17+07:00*%
%TF.ProjectId,BMP,424d502e-6b69-4636-9164-5f7063625858,rev?*%
%TF.SameCoordinates,Original*%
%TF.FileFunction,Paste,Top*%
%TF.FilePolarity,Positive*%
%FSLAX46Y46*%
G04 Gerber Fmt 4.6, Leading zero omitted, Abs format (unit mm)*
G04 Created by KiCad (PCBNEW 7.0.1) date 2023-03-17 11:51:17*
%MOMM*%
%LPD*%
G01*
G04 APERTURE LIST*
G04 Aperture macros list*
%AMRoundRect*
0 Rectangle with rounded corners*
0 $1 Rounding radius*
0 $2 $3 $4 $5 $6 $7 $8 $9 X,Y pos of 4 corners*
0 Add a 4 corners polygon primitive as box body*
4,1,4,$2,$3,$4,$5,$6,$7,$8,$9,$2,$3,0*
0 Add four circle primitives for the rounded corners*
1,1,$1+$1,$2,$3*
1,1,$1+$1,$4,$5*
1,1,$1+$1,$6,$7*
1,1,$1+$1,$8,$9*
0 Add four rect primitives between the rounded corners*
20,1,$1+$1,$2,$3,$4,$5,0*
20,1,$1+$1,$4,$5,$6,$7,0*
20,1,$1+$1,$6,$7,$8,$9,0*
20,1,$1+$1,$8,$9,$2,$3,0*%
G04 Aperture macros list end*
%ADD10RoundRect,0.237500X-0.250000X-0.237500X0.250000X-0.237500X0.250000X0.237500X-0.250000X0.237500X0*%
%ADD11RoundRect,0.237500X0.250000X0.237500X-0.250000X0.237500X-0.250000X-0.237500X0.250000X-0.237500X0*%
%ADD12RoundRect,0.237500X0.237500X-0.300000X0.237500X0.300000X-0.237500X0.300000X-0.237500X-0.300000X0*%
%ADD13RoundRect,0.250000X0.475000X-0.337500X0.475000X0.337500X-0.475000X0.337500X-0.475000X-0.337500X0*%
%ADD14RoundRect,0.237500X0.237500X-0.250000X0.237500X0.250000X-0.237500X0.250000X-0.237500X-0.250000X0*%
%ADD15RoundRect,0.075000X0.662500X0.075000X-0.662500X0.075000X-0.662500X-0.075000X0.662500X-0.075000X0*%
%ADD16RoundRect,0.075000X0.075000X0.662500X-0.075000X0.662500X-0.075000X-0.662500X0.075000X-0.662500X0*%
%ADD17R,0.500000X2.000000*%
%ADD18R,2.000000X1.700000*%
%ADD19RoundRect,0.150000X0.512500X0.150000X-0.512500X0.150000X-0.512500X-0.150000X0.512500X-0.150000X0*%
%ADD20RoundRect,0.100000X0.637500X0.100000X-0.637500X0.100000X-0.637500X-0.100000X0.637500X-0.100000X0*%
%ADD21RoundRect,0.237500X0.300000X0.237500X-0.300000X0.237500X-0.300000X-0.237500X0.300000X-0.237500X0*%
%ADD22RoundRect,0.237500X-0.237500X0.300000X-0.237500X-0.300000X0.237500X-0.300000X0.237500X0.300000X0*%
%ADD23RoundRect,0.150000X-0.587500X-0.150000X0.587500X-0.150000X0.587500X0.150000X-0.587500X0.150000X0*%
%ADD24RoundRect,0.237500X-0.300000X-0.237500X0.300000X-0.237500X0.300000X0.237500X-0.300000X0.237500X0*%
%ADD25RoundRect,0.250000X0.337500X0.475000X-0.337500X0.475000X-0.337500X-0.475000X0.337500X-0.475000X0*%
G04 APERTURE END LIST*
D10*
%TO.C,R4*%
X91337500Y-68750000D03*
X93162500Y-68750000D03*
%TD*%
D11*
%TO.C,R1*%
X93162500Y-72250000D03*
X91337500Y-72250000D03*
%TD*%
D12*
%TO.C,C7*%
X115500000Y-82825000D03*
X115500000Y-81100000D03*
%TD*%
D11*
%TO.C,R11*%
X89500000Y-60783332D03*
X87675000Y-60783332D03*
%TD*%
D10*
%TO.C,D3*%
X83387500Y-60783332D03*
X85212500Y-60783332D03*
%TD*%
D13*
%TO.C,C1*%
X88500000Y-69787500D03*
X88500000Y-67712500D03*
%TD*%
D14*
%TO.C,R13*%
X103500000Y-79250000D03*
X103500000Y-77425000D03*
%TD*%
D15*
%TO.C,U1*%
X106662500Y-72750000D03*
X106662500Y-72250000D03*
X106662500Y-71750000D03*
X106662500Y-71250000D03*
X106662500Y-70750000D03*
X106662500Y-70250000D03*
X106662500Y-69750000D03*
X106662500Y-69250000D03*
X106662500Y-68750000D03*
X106662500Y-68250000D03*
X106662500Y-67750000D03*
X106662500Y-67250000D03*
D16*
X105250000Y-65837500D03*
X104750000Y-65837500D03*
X104250000Y-65837500D03*
X103750000Y-65837500D03*
X103250000Y-65837500D03*
X102750000Y-65837500D03*
X102250000Y-65837500D03*
X101750000Y-65837500D03*
X101250000Y-65837500D03*
X100750000Y-65837500D03*
X100250000Y-65837500D03*
X99750000Y-65837500D03*
D15*
X98337500Y-67250000D03*
X98337500Y-67750000D03*
X98337500Y-68250000D03*
X98337500Y-68750000D03*
X98337500Y-69250000D03*
X98337500Y-69750000D03*
X98337500Y-70250000D03*
X98337500Y-70750000D03*
X98337500Y-71250000D03*
X98337500Y-71750000D03*
X98337500Y-72250000D03*
X98337500Y-72750000D03*
D16*
X99750000Y-74162500D03*
X100250000Y-74162500D03*
X100750000Y-74162500D03*
X101250000Y-74162500D03*
X101750000Y-74162500D03*
X102250000Y-74162500D03*
X102750000Y-74162500D03*
X103250000Y-74162500D03*
X103750000Y-74162500D03*
X104250000Y-74162500D03*
X104750000Y-74162500D03*
X105250000Y-74162500D03*
%TD*%
D14*
%TO.C,R8*%
X116000000Y-63500000D03*
X116000000Y-61675000D03*
%TD*%
D17*
%TO.C,CN1*%
X82650000Y-78200000D03*
X83450000Y-78200000D03*
X84250000Y-78200000D03*
X85050000Y-78200000D03*
X85850000Y-78200000D03*
D18*
X79800000Y-78300000D03*
X79800000Y-83750000D03*
X88700000Y-78300000D03*
X88700000Y-83750000D03*
%TD*%
D12*
%TO.C,C6*%
X117750000Y-63450000D03*
X117750000Y-61725000D03*
%TD*%
D19*
%TO.C,U3*%
X85275000Y-71250000D03*
X85275000Y-70300000D03*
X85275000Y-69350000D03*
X83000000Y-69350000D03*
X83000000Y-71250000D03*
%TD*%
D10*
%TO.C,D2*%
X83387500Y-62500000D03*
X85212500Y-62500000D03*
%TD*%
D11*
%TO.C,R12*%
X89500000Y-59066666D03*
X87675000Y-59066666D03*
%TD*%
D20*
%TO.C,U2*%
X121862500Y-71275000D03*
X121862500Y-70625000D03*
X121862500Y-69975000D03*
X121862500Y-69325000D03*
X121862500Y-68675000D03*
X121862500Y-68025000D03*
X121862500Y-67375000D03*
X121862500Y-66725000D03*
X121862500Y-66075000D03*
X121862500Y-65425000D03*
X116137500Y-65425000D03*
X116137500Y-66075000D03*
X116137500Y-66725000D03*
X116137500Y-67375000D03*
X116137500Y-68025000D03*
X116137500Y-68675000D03*
X116137500Y-69325000D03*
X116137500Y-69975000D03*
X116137500Y-70625000D03*
X116137500Y-71275000D03*
%TD*%
D12*
%TO.C,C5*%
X98250000Y-77975000D03*
X98250000Y-76250000D03*
%TD*%
D14*
%TO.C,R6*%
X119750000Y-63500000D03*
X119750000Y-61675000D03*
%TD*%
D21*
%TO.C,C3*%
X106975000Y-76250000D03*
X105250000Y-76250000D03*
%TD*%
D22*
%TO.C,C8*%
X115500000Y-74875000D03*
X115500000Y-76600000D03*
%TD*%
D11*
%TO.C,R5*%
X93162500Y-65250000D03*
X91337500Y-65250000D03*
%TD*%
%TO.C,R2*%
X93162500Y-74000000D03*
X91337500Y-74000000D03*
%TD*%
D10*
%TO.C,D1*%
X83362500Y-64250000D03*
X85187500Y-64250000D03*
%TD*%
D23*
%TO.C,Q1*%
X124125000Y-61687500D03*
X124125000Y-63587500D03*
X126000000Y-62637500D03*
%TD*%
D11*
%TO.C,R7*%
X93162500Y-67000000D03*
X91337500Y-67000000D03*
%TD*%
D10*
%TO.C,D4*%
X83387500Y-59066666D03*
X85212500Y-59066666D03*
%TD*%
D11*
%TO.C,R9*%
X89475000Y-64250000D03*
X87650000Y-64250000D03*
%TD*%
%TO.C,R3*%
X93162500Y-70500000D03*
X91337500Y-70500000D03*
%TD*%
D24*
%TO.C,C4*%
X98025000Y-63750000D03*
X99750000Y-63750000D03*
%TD*%
D11*
%TO.C,R10*%
X89500000Y-62500000D03*
X87675000Y-62500000D03*
%TD*%
D25*
%TO.C,C2*%
X85037500Y-66750000D03*
X82962500Y-66750000D03*
%TD*%
M02*
