%TF.GenerationSoftware,KiCad,Pcbnew,7.0.1*%
%TF.CreationDate,2023-03-18T11:39:06+07:00*%
%TF.ProjectId,BMP,424d502e-6b69-4636-9164-5f7063625858,rev?*%
%TF.SameCoordinates,Original*%
%TF.FileFunction,Copper,L2,Bot*%
%TF.FilePolarity,Positive*%
%FSLAX46Y46*%
G04 Gerber Fmt 4.6, Leading zero omitted, Abs format (unit mm)*
G04 Created by KiCad (PCBNEW 7.0.1) date 2023-03-18 11:39:06*
%MOMM*%
%LPD*%
G01*
G04 APERTURE LIST*
G04 Aperture macros list*
%AMRoundRect*
0 Rectangle with rounded corners*
0 $1 Rounding radius*
0 $2 $3 $4 $5 $6 $7 $8 $9 X,Y pos of 4 corners*
0 Add a 4 corners polygon primitive as box body*
4,1,4,$2,$3,$4,$5,$6,$7,$8,$9,$2,$3,0*
0 Add four circle primitives for the rounded corners*
1,1,$1+$1,$2,$3*
1,1,$1+$1,$4,$5*
1,1,$1+$1,$6,$7*
1,1,$1+$1,$8,$9*
0 Add four rect primitives between the rounded corners*
20,1,$1+$1,$2,$3,$4,$5,0*
20,1,$1+$1,$4,$5,$6,$7,0*
20,1,$1+$1,$6,$7,$8,$9,0*
20,1,$1+$1,$8,$9,$2,$3,0*%
G04 Aperture macros list end*
%TA.AperFunction,ComponentPad*%
%ADD10C,1.700000*%
%TD*%
%TA.AperFunction,ComponentPad*%
%ADD11RoundRect,0.250000X-0.600000X0.600000X-0.600000X-0.600000X0.600000X-0.600000X0.600000X0.600000X0*%
%TD*%
%TA.AperFunction,ComponentPad*%
%ADD12O,1.700000X1.700000*%
%TD*%
%TA.AperFunction,ComponentPad*%
%ADD13R,1.700000X1.700000*%
%TD*%
%TA.AperFunction,ComponentPad*%
%ADD14C,1.524000*%
%TD*%
%TA.AperFunction,ComponentPad*%
%ADD15C,1.500000*%
%TD*%
%TA.AperFunction,ViaPad*%
%ADD16C,1.200000*%
%TD*%
%TA.AperFunction,ViaPad*%
%ADD17C,1.300000*%
%TD*%
%TA.AperFunction,Conductor*%
%ADD18C,0.250000*%
%TD*%
%TA.AperFunction,Conductor*%
%ADD19C,0.500000*%
%TD*%
G04 APERTURE END LIST*
D10*
%TO.P,J2,10,Pin_10*%
%TO.N,/TARGET_RST*%
X12670000Y-8040000D03*
%TO.P,J2,9,Pin_9*%
%TO.N,GND*%
X12670000Y-5500000D03*
%TO.P,J2,8,Pin_8*%
%TO.N,/TARGET_TDI*%
X15210000Y-8040000D03*
%TO.P,J2,7,Pin_7*%
%TO.N,unconnected-(J2-Pin_7-Pad7)*%
X15210000Y-5500000D03*
%TO.P,J2,6,Pin_6*%
%TO.N,/TARGET_TDO*%
X17750000Y-8040000D03*
%TO.P,J2,5,Pin_5*%
%TO.N,GND*%
X17750000Y-5500000D03*
%TO.P,J2,4,Pin_4*%
%TO.N,/TARGET_TCK*%
X20290000Y-8040000D03*
%TO.P,J2,3,Pin_3*%
%TO.N,GND*%
X20290000Y-5500000D03*
%TO.P,J2,2,Pin_2*%
%TO.N,/TARGET_TMS*%
X22830000Y-8040000D03*
D11*
%TO.P,J2,1,Pin_1*%
%TO.N,/TPWR*%
X22830000Y-5500000D03*
%TD*%
D12*
%TO.P,J1,4,Pin_4*%
%TO.N,+3.3V*%
X29500000Y-45870000D03*
%TO.P,J1,3,Pin_3*%
%TO.N,/RXD*%
X29500000Y-43330000D03*
%TO.P,J1,2,Pin_2*%
%TO.N,/TXD*%
X29500000Y-40790000D03*
D13*
%TO.P,J1,1,Pin_1*%
%TO.N,GND*%
X29500000Y-38250000D03*
%TD*%
D14*
%TO.P,SW1,2,2*%
%TO.N,/FORCE_BOOTLOADER*%
X9790000Y-45500000D03*
%TO.P,SW1,1,1*%
%TO.N,GND*%
X4710000Y-45500000D03*
%TD*%
D15*
%TO.P,Y1,2,2*%
%TO.N,Net-(U1-PD0)*%
X29250000Y-21375000D03*
%TO.P,Y1,1,1*%
%TO.N,Net-(U1-PD1)*%
X29250000Y-16475000D03*
%TD*%
D14*
%TO.P,SW2,2,2*%
%TO.N,+3.3V*%
X31790000Y-30500000D03*
%TO.P,SW2,1,1*%
%TO.N,Net-(U1-BOOT0)*%
X26710000Y-30500000D03*
%TD*%
D16*
%TO.N,Net-(U1-PD0)*%
X25600000Y-21400000D03*
%TO.N,Net-(U1-PD1)*%
X25600000Y-16500000D03*
%TO.N,GND*%
X11000000Y-12750000D03*
%TO.N,/TPWR*%
X21250000Y-12750000D03*
%TO.N,/TARGET_TMS*%
X19500000Y-12750000D03*
%TO.N,/TARGET_TCK*%
X17812500Y-12750000D03*
%TO.N,/TARGET_TDI*%
X14437500Y-12750000D03*
%TO.N,/TARGET_TDO*%
X16125000Y-12750000D03*
%TO.N,/TARGET_RST*%
X12750000Y-12750000D03*
D17*
%TO.N,GND*%
X18250000Y-52250000D03*
D16*
X10000000Y-42000000D03*
X8500000Y-17750000D03*
D17*
X26750000Y-38000000D03*
D16*
X15000000Y-49750000D03*
D17*
X26750000Y-42750000D03*
%TO.N,+3.3V*%
X15000000Y-29000000D03*
X17500000Y-59250000D03*
X20750000Y-42750000D03*
X24500000Y-37750000D03*
X24500000Y-29000000D03*
D16*
X11667315Y-15127302D03*
%TO.N,Net-(CN1-D+)*%
X23066926Y-47911739D03*
X18250000Y-50250000D03*
%TO.N,/RST*%
X13500000Y-30250000D03*
X11250000Y-25750000D03*
%TO.N,/TDI*%
X11250000Y-32250000D03*
X9250000Y-27500000D03*
%TD*%
D18*
%TO.N,Net-(U1-PD0)*%
X25625000Y-21375000D02*
X29250000Y-21375000D01*
X25600000Y-21400000D02*
X25625000Y-21375000D01*
%TO.N,Net-(U1-PD1)*%
X25625000Y-16475000D02*
X29250000Y-16475000D01*
D19*
%TO.N,/TPWR*%
X24750000Y-6250000D02*
X24000000Y-5500000D01*
X22250000Y-12750000D02*
X24750000Y-10250000D01*
X21250000Y-12750000D02*
X22250000Y-12750000D01*
X24000000Y-5500000D02*
X22830000Y-5500000D01*
X24750000Y-10250000D02*
X24750000Y-6250000D01*
D18*
%TO.N,/TARGET_TMS*%
X22830000Y-9420000D02*
X22830000Y-8040000D01*
X19500000Y-12750000D02*
X22830000Y-9420000D01*
%TO.N,/TARGET_TCK*%
X20290000Y-9460000D02*
X20290000Y-8040000D01*
X17812500Y-11937500D02*
X20290000Y-9460000D01*
X17812500Y-12750000D02*
X17812500Y-11937500D01*
%TO.N,/TARGET_TDO*%
X17750000Y-9750000D02*
X17750000Y-8040000D01*
X16125000Y-11375000D02*
X17750000Y-9750000D01*
X16125000Y-12750000D02*
X16125000Y-11375000D01*
%TO.N,/TARGET_TDI*%
X15250000Y-8080000D02*
X15210000Y-8040000D01*
X15250000Y-10000000D02*
X15250000Y-8080000D01*
X14437500Y-10812500D02*
X15250000Y-10000000D01*
X14437500Y-12750000D02*
X14437500Y-10812500D01*
%TO.N,/TARGET_RST*%
X12670000Y-12670000D02*
X12670000Y-8040000D01*
X12750000Y-12750000D02*
X12670000Y-12670000D01*
D19*
%TO.N,+3.3V*%
X11667315Y-15127302D02*
X12877302Y-15127302D01*
X20750000Y-42750000D02*
X24500000Y-42750000D01*
X24500000Y-26750000D02*
X24500000Y-29000000D01*
X12877302Y-15127302D02*
X24500000Y-26750000D01*
X30290000Y-29000000D02*
X31790000Y-30500000D01*
X24500000Y-37750000D02*
X24500000Y-29000000D01*
X24500000Y-54000000D02*
X24500000Y-42750000D01*
X24500000Y-42750000D02*
X24500000Y-37750000D01*
X24500000Y-29000000D02*
X30290000Y-29000000D01*
X19250000Y-59250000D02*
X17500000Y-59250000D01*
X24500000Y-54000000D02*
X19250000Y-59250000D01*
X15000000Y-29000000D02*
X24500000Y-29000000D01*
D18*
%TO.N,Net-(CN1-D+)*%
X23066926Y-47911739D02*
X23066926Y-49683074D01*
X22500000Y-50250000D02*
X18250000Y-50250000D01*
X23066926Y-49683074D02*
X22500000Y-50250000D01*
%TO.N,/RST*%
X11250000Y-25750000D02*
X11250000Y-28000000D01*
X11250000Y-28000000D02*
X13500000Y-30250000D01*
%TO.N,/TDI*%
X11250000Y-32250000D02*
X9250000Y-30250000D01*
X9250000Y-30250000D02*
X9250000Y-27500000D01*
%TD*%
%TA.AperFunction,Conductor*%
%TO.N,GND*%
G36*
X33450000Y-1513763D02*
G01*
X33486237Y-1550000D01*
X33499500Y-1599500D01*
X33499500Y-65650500D01*
X33486237Y-65700000D01*
X33450000Y-65736237D01*
X33400500Y-65749500D01*
X2099500Y-65749500D01*
X2050000Y-65736237D01*
X2013763Y-65700000D01*
X2000500Y-65650500D01*
X2000500Y-62999999D01*
X2894551Y-62999999D01*
X2914316Y-63251146D01*
X2973127Y-63496112D01*
X3069535Y-63728862D01*
X3201163Y-63943658D01*
X3364775Y-64135224D01*
X3556341Y-64298836D01*
X3771137Y-64430464D01*
X3771139Y-64430464D01*
X3771141Y-64430466D01*
X4003889Y-64526873D01*
X4248852Y-64585683D01*
X4500000Y-64605449D01*
X4751148Y-64585683D01*
X4996111Y-64526873D01*
X5228859Y-64430466D01*
X5443659Y-64298836D01*
X5635224Y-64135224D01*
X5798836Y-63943659D01*
X5930466Y-63728859D01*
X6026873Y-63496111D01*
X6085683Y-63251148D01*
X6105449Y-63000000D01*
X6105449Y-62999999D01*
X29244551Y-62999999D01*
X29264316Y-63251146D01*
X29323127Y-63496112D01*
X29419535Y-63728862D01*
X29551163Y-63943658D01*
X29714775Y-64135224D01*
X29906341Y-64298836D01*
X30121137Y-64430464D01*
X30121139Y-64430464D01*
X30121141Y-64430466D01*
X30353889Y-64526873D01*
X30598852Y-64585683D01*
X30850000Y-64605449D01*
X31101148Y-64585683D01*
X31346111Y-64526873D01*
X31578859Y-64430466D01*
X31793659Y-64298836D01*
X31985224Y-64135224D01*
X32148836Y-63943659D01*
X32280466Y-63728859D01*
X32376873Y-63496111D01*
X32435683Y-63251148D01*
X32455449Y-63000000D01*
X32435683Y-62748852D01*
X32376873Y-62503889D01*
X32280466Y-62271141D01*
X32148836Y-62056341D01*
X31985224Y-61864775D01*
X31793658Y-61701163D01*
X31578862Y-61569535D01*
X31346112Y-61473127D01*
X31101146Y-61414316D01*
X30850000Y-61394551D01*
X30598853Y-61414316D01*
X30353887Y-61473127D01*
X30121137Y-61569535D01*
X29906341Y-61701163D01*
X29714775Y-61864775D01*
X29551163Y-62056341D01*
X29419535Y-62271137D01*
X29323127Y-62503887D01*
X29264316Y-62748853D01*
X29244551Y-62999999D01*
X6105449Y-62999999D01*
X6085683Y-62748852D01*
X6026873Y-62503889D01*
X5930466Y-62271141D01*
X5798836Y-62056341D01*
X5635224Y-61864775D01*
X5443658Y-61701163D01*
X5228862Y-61569535D01*
X4996112Y-61473127D01*
X4751146Y-61414316D01*
X4500000Y-61394551D01*
X4248853Y-61414316D01*
X4003887Y-61473127D01*
X3771137Y-61569535D01*
X3556341Y-61701163D01*
X3364775Y-61864775D01*
X3201163Y-62056341D01*
X3069535Y-62271137D01*
X2973127Y-62503887D01*
X2914316Y-62748853D01*
X2894551Y-62999999D01*
X2000500Y-62999999D01*
X2000500Y-46551741D01*
X4011811Y-46551741D01*
X4076586Y-46597097D01*
X4276722Y-46690421D01*
X4490021Y-46747575D01*
X4710000Y-46766821D01*
X4929978Y-46747575D01*
X5143277Y-46690421D01*
X5343411Y-46597098D01*
X5408186Y-46551741D01*
X4709999Y-45853554D01*
X4011811Y-46551741D01*
X2000500Y-46551741D01*
X2000500Y-45500000D01*
X3443178Y-45500000D01*
X3462424Y-45719978D01*
X3519578Y-45933277D01*
X3612902Y-46133413D01*
X3658257Y-46198186D01*
X4356444Y-45499999D01*
X5063554Y-45499999D01*
X5761741Y-46198186D01*
X5807098Y-46133411D01*
X5900421Y-45933277D01*
X5957575Y-45719978D01*
X5976821Y-45500000D01*
X5976821Y-45499999D01*
X8772600Y-45499999D01*
X8792149Y-45698483D01*
X8850045Y-45889342D01*
X8944062Y-46065236D01*
X9000014Y-46133413D01*
X9070590Y-46219410D01*
X9131323Y-46269252D01*
X9224763Y-46345937D01*
X9400657Y-46439954D01*
X9439768Y-46451818D01*
X9591515Y-46497850D01*
X9790000Y-46517399D01*
X9988485Y-46497850D01*
X10179342Y-46439954D01*
X10179342Y-46439953D01*
X10355236Y-46345937D01*
X10369059Y-46334592D01*
X10509410Y-46219410D01*
X10635936Y-46065237D01*
X10729954Y-45889342D01*
X10787850Y-45698485D01*
X10807399Y-45500000D01*
X10787850Y-45301515D01*
X10740810Y-45146444D01*
X10729954Y-45110657D01*
X10635937Y-44934763D01*
X10531064Y-44806976D01*
X10509410Y-44780590D01*
X10446145Y-44728670D01*
X10355236Y-44654062D01*
X10179342Y-44560045D01*
X9988483Y-44502149D01*
X9789999Y-44482600D01*
X9591516Y-44502149D01*
X9400657Y-44560045D01*
X9224763Y-44654062D01*
X9070590Y-44780590D01*
X8944062Y-44934763D01*
X8850045Y-45110657D01*
X8792149Y-45301516D01*
X8772600Y-45499999D01*
X5976821Y-45499999D01*
X5957575Y-45280021D01*
X5900420Y-45066717D01*
X5807100Y-44866592D01*
X5761741Y-44801812D01*
X5063554Y-45499999D01*
X4356444Y-45499999D01*
X3658257Y-44801812D01*
X3612899Y-44866592D01*
X3519579Y-45066717D01*
X3462424Y-45280021D01*
X3443178Y-45500000D01*
X2000500Y-45500000D01*
X2000500Y-44448257D01*
X4011812Y-44448257D01*
X4709999Y-45146444D01*
X5408186Y-44448257D01*
X5343413Y-44402902D01*
X5143277Y-44309578D01*
X4929978Y-44252424D01*
X4710000Y-44233178D01*
X4490021Y-44252424D01*
X4276717Y-44309579D01*
X4076592Y-44402899D01*
X4011812Y-44448257D01*
X2000500Y-44448257D01*
X2000500Y-27500000D01*
X8394815Y-27500000D01*
X8413503Y-27677803D01*
X8468750Y-27847835D01*
X8558141Y-28002665D01*
X8606307Y-28056159D01*
X8677770Y-28135526D01*
X8830825Y-28246729D01*
X8829126Y-28249066D01*
X8858528Y-28274177D01*
X8874500Y-28328097D01*
X8874500Y-30200789D01*
X8872393Y-30221105D01*
X8869633Y-30234267D01*
X8873740Y-30267217D01*
X8874500Y-30279462D01*
X8874500Y-30281118D01*
X8878003Y-30302115D01*
X8878593Y-30306159D01*
X8885756Y-30363622D01*
X8887536Y-30369178D01*
X8915088Y-30420091D01*
X8916959Y-30423726D01*
X8942390Y-30475743D01*
X8945867Y-30480407D01*
X8949580Y-30483825D01*
X8949581Y-30483826D01*
X8988473Y-30519629D01*
X8991400Y-30522437D01*
X10401911Y-31932948D01*
X10428172Y-31979841D01*
X10426062Y-32033544D01*
X10413503Y-32072195D01*
X10394815Y-32250000D01*
X10413503Y-32427802D01*
X10468750Y-32597835D01*
X10558142Y-32752666D01*
X10677770Y-32885526D01*
X10822406Y-32990612D01*
X10931864Y-33039345D01*
X10985733Y-33063329D01*
X11160609Y-33100500D01*
X11339389Y-33100500D01*
X11339391Y-33100500D01*
X11514267Y-33063329D01*
X11677593Y-32990612D01*
X11822230Y-32885526D01*
X11941859Y-32752665D01*
X12031250Y-32597835D01*
X12086497Y-32427803D01*
X12105185Y-32250000D01*
X12086497Y-32072197D01*
X12031250Y-31902165D01*
X11941859Y-31747335D01*
X11822230Y-31614474D01*
X11822229Y-31614473D01*
X11677593Y-31509387D01*
X11514270Y-31436672D01*
X11514268Y-31436671D01*
X11514267Y-31436671D01*
X11339391Y-31399500D01*
X11160609Y-31399500D01*
X11023445Y-31428654D01*
X10974745Y-31426740D01*
X10932859Y-31401821D01*
X9654496Y-30123458D01*
X9633036Y-30091340D01*
X9625500Y-30053454D01*
X9625500Y-28328097D01*
X9641472Y-28274177D01*
X9670873Y-28249066D01*
X9669175Y-28246729D01*
X9769653Y-28173726D01*
X9822230Y-28135526D01*
X9941859Y-28002665D01*
X10031250Y-27847835D01*
X10086497Y-27677803D01*
X10105185Y-27500000D01*
X10086497Y-27322197D01*
X10031250Y-27152165D01*
X9941859Y-26997335D01*
X9822230Y-26864474D01*
X9822229Y-26864473D01*
X9677593Y-26759387D01*
X9514270Y-26686672D01*
X9514268Y-26686671D01*
X9514267Y-26686671D01*
X9339391Y-26649500D01*
X9160609Y-26649500D01*
X9073170Y-26668085D01*
X8985731Y-26686671D01*
X8822409Y-26759387D01*
X8677767Y-26864475D01*
X8558142Y-26997332D01*
X8468750Y-27152164D01*
X8468750Y-27152165D01*
X8413503Y-27322197D01*
X8394815Y-27500000D01*
X2000500Y-27500000D01*
X2000500Y-25749999D01*
X10394815Y-25749999D01*
X10413503Y-25927802D01*
X10468750Y-26097835D01*
X10558142Y-26252666D01*
X10677770Y-26385526D01*
X10830825Y-26496729D01*
X10829126Y-26499066D01*
X10858528Y-26524177D01*
X10874500Y-26578097D01*
X10874500Y-27950789D01*
X10872393Y-27971105D01*
X10869633Y-27984267D01*
X10873740Y-28017217D01*
X10874500Y-28029462D01*
X10874500Y-28031118D01*
X10878003Y-28052115D01*
X10878593Y-28056159D01*
X10885756Y-28113622D01*
X10887536Y-28119178D01*
X10915088Y-28170091D01*
X10916958Y-28173724D01*
X10929859Y-28200113D01*
X10942390Y-28225743D01*
X10945867Y-28230407D01*
X10949580Y-28233825D01*
X10949581Y-28233826D01*
X10988473Y-28269629D01*
X10991400Y-28272437D01*
X12651911Y-29932948D01*
X12678172Y-29979841D01*
X12676062Y-30033544D01*
X12663503Y-30072195D01*
X12646364Y-30235259D01*
X12644815Y-30250000D01*
X12663503Y-30427803D01*
X12693331Y-30519604D01*
X12718750Y-30597835D01*
X12808142Y-30752666D01*
X12927770Y-30885526D01*
X13072406Y-30990612D01*
X13181864Y-31039345D01*
X13235733Y-31063329D01*
X13410609Y-31100500D01*
X13589389Y-31100500D01*
X13589391Y-31100500D01*
X13764267Y-31063329D01*
X13927593Y-30990612D01*
X14072230Y-30885526D01*
X14191859Y-30752665D01*
X14281250Y-30597835D01*
X14336497Y-30427803D01*
X14355185Y-30250000D01*
X14336497Y-30072197D01*
X14281250Y-29902165D01*
X14191859Y-29747335D01*
X14072230Y-29614474D01*
X14005716Y-29566148D01*
X13927593Y-29509387D01*
X13764270Y-29436672D01*
X13764268Y-29436671D01*
X13764267Y-29436671D01*
X13589391Y-29399500D01*
X13410609Y-29399500D01*
X13273445Y-29428654D01*
X13224745Y-29426740D01*
X13182859Y-29401821D01*
X11654496Y-27873458D01*
X11633036Y-27841340D01*
X11625500Y-27803454D01*
X11625500Y-26578097D01*
X11641472Y-26524177D01*
X11670873Y-26499066D01*
X11669175Y-26496729D01*
X11756989Y-26432927D01*
X11822230Y-26385526D01*
X11941859Y-26252665D01*
X12031250Y-26097835D01*
X12086497Y-25927803D01*
X12105185Y-25750000D01*
X12086497Y-25572197D01*
X12031250Y-25402165D01*
X11941859Y-25247335D01*
X11822230Y-25114474D01*
X11822229Y-25114473D01*
X11677593Y-25009387D01*
X11514270Y-24936672D01*
X11514268Y-24936671D01*
X11514267Y-24936671D01*
X11339391Y-24899500D01*
X11160609Y-24899500D01*
X11073171Y-24918085D01*
X10985731Y-24936671D01*
X10822409Y-25009387D01*
X10677767Y-25114475D01*
X10558142Y-25247332D01*
X10468750Y-25402164D01*
X10413503Y-25572197D01*
X10394815Y-25749999D01*
X2000500Y-25749999D01*
X2000500Y-15127302D01*
X10812130Y-15127302D01*
X10830818Y-15305105D01*
X10886065Y-15475137D01*
X10975456Y-15629967D01*
X10993044Y-15649500D01*
X11095085Y-15762828D01*
X11239721Y-15867914D01*
X11348763Y-15916462D01*
X11403048Y-15940631D01*
X11577924Y-15977802D01*
X11756704Y-15977802D01*
X11756706Y-15977802D01*
X11931582Y-15940631D01*
X12094908Y-15867914D01*
X12239545Y-15762828D01*
X12331628Y-15660558D01*
X12364934Y-15636361D01*
X12405201Y-15627802D01*
X12628980Y-15627802D01*
X12666866Y-15635338D01*
X12698984Y-15656798D01*
X23970504Y-26928318D01*
X23991964Y-26960436D01*
X23999500Y-26998322D01*
X23999500Y-28200113D01*
X23988709Y-28245058D01*
X23958690Y-28280206D01*
X23894128Y-28327111D01*
X23768403Y-28466744D01*
X23735099Y-28490941D01*
X23694832Y-28499500D01*
X15805168Y-28499500D01*
X15764901Y-28490941D01*
X15731597Y-28466744D01*
X15605873Y-28327113D01*
X15472767Y-28230407D01*
X15452730Y-28215849D01*
X15417387Y-28200113D01*
X15279804Y-28138856D01*
X15218084Y-28125737D01*
X15094646Y-28099500D01*
X14905354Y-28099500D01*
X14838915Y-28113622D01*
X14720195Y-28138856D01*
X14547271Y-28215848D01*
X14394126Y-28327113D01*
X14267468Y-28467781D01*
X14172821Y-28631715D01*
X14114326Y-28811744D01*
X14094540Y-29000000D01*
X14114326Y-29188255D01*
X14172821Y-29368284D01*
X14267468Y-29532218D01*
X14394126Y-29672886D01*
X14394129Y-29672888D01*
X14547270Y-29784151D01*
X14720197Y-29861144D01*
X14905354Y-29900500D01*
X15094644Y-29900500D01*
X15094646Y-29900500D01*
X15279803Y-29861144D01*
X15452730Y-29784151D01*
X15605871Y-29672888D01*
X15648176Y-29625904D01*
X15731597Y-29533256D01*
X15764901Y-29509059D01*
X15805168Y-29500500D01*
X23694832Y-29500500D01*
X23735099Y-29509059D01*
X23768403Y-29533256D01*
X23894128Y-29672888D01*
X23958690Y-29719794D01*
X23988709Y-29754942D01*
X23999500Y-29799887D01*
X23999500Y-36950113D01*
X23988709Y-36995058D01*
X23958690Y-37030206D01*
X23894128Y-37077111D01*
X23767468Y-37217781D01*
X23672821Y-37381715D01*
X23614326Y-37561744D01*
X23594540Y-37749999D01*
X23614326Y-37938255D01*
X23672821Y-38118284D01*
X23767468Y-38282218D01*
X23894128Y-38422888D01*
X23958690Y-38469794D01*
X23988709Y-38504942D01*
X23999500Y-38549887D01*
X23999500Y-42150500D01*
X23986237Y-42200000D01*
X23950000Y-42236237D01*
X23900500Y-42249500D01*
X21555168Y-42249500D01*
X21514901Y-42240941D01*
X21481597Y-42216744D01*
X21355873Y-42077113D01*
X21279300Y-42021480D01*
X21202730Y-41965849D01*
X21202728Y-41965848D01*
X21029804Y-41888856D01*
X20968083Y-41875737D01*
X20844646Y-41849500D01*
X20655354Y-41849500D01*
X20562775Y-41869178D01*
X20470195Y-41888856D01*
X20297271Y-41965848D01*
X20144126Y-42077113D01*
X20017468Y-42217781D01*
X19922821Y-42381715D01*
X19864326Y-42561744D01*
X19844540Y-42750000D01*
X19864326Y-42938255D01*
X19922821Y-43118284D01*
X20017468Y-43282218D01*
X20144126Y-43422886D01*
X20144129Y-43422888D01*
X20297270Y-43534151D01*
X20470197Y-43611144D01*
X20655354Y-43650500D01*
X20844644Y-43650500D01*
X20844646Y-43650500D01*
X21029803Y-43611144D01*
X21202730Y-43534151D01*
X21355871Y-43422888D01*
X21439509Y-43329999D01*
X21481597Y-43283256D01*
X21514901Y-43259059D01*
X21555168Y-43250500D01*
X23900500Y-43250500D01*
X23950000Y-43263763D01*
X23986237Y-43300000D01*
X23999500Y-43349500D01*
X23999500Y-47456532D01*
X23986236Y-47506032D01*
X23950000Y-47542269D01*
X23900500Y-47555532D01*
X23851000Y-47542268D01*
X23814764Y-47506033D01*
X23758785Y-47409074D01*
X23758784Y-47409073D01*
X23758783Y-47409071D01*
X23639155Y-47276212D01*
X23494519Y-47171126D01*
X23331196Y-47098411D01*
X23331194Y-47098410D01*
X23331193Y-47098410D01*
X23156317Y-47061239D01*
X22977535Y-47061239D01*
X22890096Y-47079824D01*
X22802657Y-47098410D01*
X22639335Y-47171126D01*
X22494693Y-47276214D01*
X22375068Y-47409071D01*
X22285676Y-47563903D01*
X22285676Y-47563904D01*
X22230429Y-47733936D01*
X22211741Y-47911739D01*
X22230429Y-48089542D01*
X22285676Y-48259574D01*
X22319088Y-48317446D01*
X22375068Y-48414405D01*
X22494696Y-48547265D01*
X22647751Y-48658468D01*
X22646052Y-48660805D01*
X22675454Y-48685916D01*
X22691426Y-48739836D01*
X22691426Y-49486528D01*
X22683890Y-49524414D01*
X22662430Y-49556532D01*
X22373458Y-49845504D01*
X22341340Y-49866964D01*
X22303454Y-49874500D01*
X19072435Y-49874500D01*
X19022935Y-49861236D01*
X18986700Y-49825002D01*
X18941859Y-49747335D01*
X18941858Y-49747334D01*
X18941857Y-49747332D01*
X18822229Y-49614473D01*
X18677593Y-49509387D01*
X18514270Y-49436672D01*
X18514268Y-49436671D01*
X18514267Y-49436671D01*
X18339391Y-49399500D01*
X18160609Y-49399500D01*
X18073171Y-49418085D01*
X17985731Y-49436671D01*
X17822409Y-49509387D01*
X17677767Y-49614475D01*
X17558142Y-49747332D01*
X17468750Y-49902164D01*
X17442359Y-49983387D01*
X17413503Y-50072197D01*
X17394815Y-50250000D01*
X17413503Y-50427803D01*
X17453344Y-50550419D01*
X17468750Y-50597835D01*
X17558142Y-50752666D01*
X17677770Y-50885526D01*
X17822406Y-50990612D01*
X17931864Y-51039345D01*
X17985733Y-51063329D01*
X18160609Y-51100500D01*
X18339389Y-51100500D01*
X18339391Y-51100500D01*
X18514267Y-51063329D01*
X18677593Y-50990612D01*
X18822230Y-50885526D01*
X18941859Y-50752665D01*
X18986700Y-50674997D01*
X19022935Y-50638764D01*
X19072435Y-50625500D01*
X22450789Y-50625500D01*
X22471105Y-50627607D01*
X22484268Y-50630367D01*
X22517216Y-50626260D01*
X22529462Y-50625500D01*
X22531112Y-50625500D01*
X22531114Y-50625500D01*
X22552147Y-50621989D01*
X22556143Y-50621407D01*
X22608626Y-50614866D01*
X22608627Y-50614865D01*
X22613637Y-50614241D01*
X22619163Y-50612470D01*
X22623605Y-50610065D01*
X22623610Y-50610065D01*
X22670104Y-50584903D01*
X22673694Y-50583055D01*
X22721211Y-50559826D01*
X22721212Y-50559824D01*
X22725755Y-50557604D01*
X22730397Y-50554142D01*
X22733822Y-50550420D01*
X22733826Y-50550419D01*
X22769653Y-50511499D01*
X22772415Y-50508620D01*
X23297653Y-49983382D01*
X23313503Y-49970512D01*
X23324762Y-49963158D01*
X23345152Y-49936959D01*
X23353270Y-49927766D01*
X23354445Y-49926592D01*
X23366830Y-49909243D01*
X23369231Y-49906022D01*
X23401735Y-49864263D01*
X23401736Y-49864259D01*
X23404844Y-49860267D01*
X23407491Y-49855126D01*
X23408936Y-49850273D01*
X23424022Y-49799599D01*
X23425245Y-49795778D01*
X23442426Y-49745734D01*
X23442426Y-49745730D01*
X23444063Y-49740961D01*
X23444902Y-49735202D01*
X23442511Y-49677374D01*
X23442426Y-49673283D01*
X23442426Y-48739836D01*
X23458398Y-48685916D01*
X23487799Y-48660805D01*
X23486101Y-48658468D01*
X23570906Y-48596851D01*
X23639156Y-48547265D01*
X23758785Y-48414404D01*
X23814764Y-48317444D01*
X23851000Y-48281210D01*
X23900500Y-48267946D01*
X23950000Y-48281209D01*
X23986236Y-48317446D01*
X23999500Y-48366946D01*
X23999500Y-53751678D01*
X23991964Y-53789564D01*
X23970504Y-53821682D01*
X19071682Y-58720504D01*
X19039564Y-58741964D01*
X19001678Y-58749500D01*
X18305168Y-58749500D01*
X18264901Y-58740941D01*
X18231597Y-58716744D01*
X18105873Y-58577113D01*
X18029300Y-58521480D01*
X17952730Y-58465849D01*
X17952728Y-58465848D01*
X17779804Y-58388856D01*
X17718084Y-58375737D01*
X17594646Y-58349500D01*
X17405354Y-58349500D01*
X17312775Y-58369178D01*
X17220195Y-58388856D01*
X17047271Y-58465848D01*
X16894126Y-58577113D01*
X16767468Y-58717781D01*
X16672821Y-58881715D01*
X16614326Y-59061744D01*
X16594540Y-59249999D01*
X16614326Y-59438255D01*
X16672821Y-59618284D01*
X16767468Y-59782218D01*
X16894126Y-59922886D01*
X16894129Y-59922888D01*
X17047270Y-60034151D01*
X17220197Y-60111144D01*
X17405354Y-60150500D01*
X17594644Y-60150500D01*
X17594646Y-60150500D01*
X17779803Y-60111144D01*
X17952730Y-60034151D01*
X18105871Y-59922888D01*
X18231595Y-59783256D01*
X18264901Y-59759059D01*
X18305168Y-59750500D01*
X19185546Y-59750500D01*
X19206590Y-59752762D01*
X19213927Y-59754359D01*
X19264355Y-59750752D01*
X19271418Y-59750500D01*
X19285801Y-59750500D01*
X19294391Y-59749264D01*
X19300037Y-59748452D01*
X19307043Y-59747698D01*
X19357483Y-59744091D01*
X19364517Y-59741467D01*
X19385022Y-59736233D01*
X19392457Y-59735165D01*
X19438450Y-59714159D01*
X19444952Y-59711466D01*
X19492331Y-59693796D01*
X19498349Y-59689290D01*
X19516548Y-59678493D01*
X19523373Y-59675377D01*
X19523374Y-59675375D01*
X19523376Y-59675375D01*
X19561563Y-59642284D01*
X19567053Y-59637858D01*
X19578593Y-59629221D01*
X19588779Y-59619033D01*
X19593907Y-59614258D01*
X19632143Y-59581128D01*
X19636199Y-59574814D01*
X19649477Y-59558335D01*
X21963875Y-57243937D01*
X27670669Y-57243937D01*
X27701134Y-57416712D01*
X27770622Y-57577802D01*
X27770623Y-57577804D01*
X27875390Y-57718530D01*
X27947253Y-57778830D01*
X28009783Y-57831300D01*
X28009784Y-57831300D01*
X28009786Y-57831302D01*
X28166567Y-57910040D01*
X28166569Y-57910041D01*
X28337277Y-57950500D01*
X28337279Y-57950500D01*
X28468704Y-57950500D01*
X28468709Y-57950500D01*
X28599255Y-57935241D01*
X28764117Y-57875237D01*
X28910696Y-57778830D01*
X29031092Y-57651218D01*
X29118812Y-57499281D01*
X29169130Y-57331210D01*
X29179331Y-57156065D01*
X29148865Y-56983289D01*
X29148865Y-56983287D01*
X29079377Y-56822197D01*
X29079377Y-56822196D01*
X28974610Y-56681470D01*
X28907411Y-56625083D01*
X28840216Y-56568699D01*
X28683430Y-56489958D01*
X28512723Y-56449500D01*
X28512721Y-56449500D01*
X28381291Y-56449500D01*
X28288043Y-56460399D01*
X28250743Y-56464759D01*
X28085882Y-56524763D01*
X27939304Y-56621169D01*
X27818909Y-56748780D01*
X27731188Y-56900719D01*
X27680870Y-57068789D01*
X27670669Y-57243937D01*
X21963875Y-57243937D01*
X24808335Y-54399477D01*
X24824816Y-54386199D01*
X24831128Y-54382143D01*
X24864258Y-54343907D01*
X24869033Y-54338779D01*
X24879221Y-54328593D01*
X24887858Y-54317053D01*
X24892284Y-54311563D01*
X24925375Y-54273376D01*
X24925375Y-54273374D01*
X24925377Y-54273373D01*
X24928493Y-54266548D01*
X24939290Y-54248349D01*
X24943796Y-54242331D01*
X24961466Y-54194952D01*
X24964159Y-54188450D01*
X24985165Y-54142457D01*
X24986233Y-54135022D01*
X24991467Y-54114517D01*
X24994091Y-54107483D01*
X24997698Y-54057043D01*
X24998453Y-54050032D01*
X25000500Y-54035801D01*
X25000500Y-54021418D01*
X25000752Y-54014356D01*
X25000791Y-54013797D01*
X25004359Y-53963927D01*
X25002762Y-53956590D01*
X25000500Y-53935546D01*
X25000500Y-52843937D01*
X27670669Y-52843937D01*
X27701134Y-53016712D01*
X27770622Y-53177802D01*
X27770623Y-53177804D01*
X27875390Y-53318530D01*
X27947253Y-53378830D01*
X28009783Y-53431300D01*
X28009784Y-53431300D01*
X28009786Y-53431302D01*
X28166567Y-53510040D01*
X28166569Y-53510041D01*
X28337277Y-53550500D01*
X28337279Y-53550500D01*
X28468704Y-53550500D01*
X28468709Y-53550500D01*
X28599255Y-53535241D01*
X28764117Y-53475237D01*
X28910696Y-53378830D01*
X29031092Y-53251218D01*
X29118812Y-53099281D01*
X29169130Y-52931210D01*
X29179331Y-52756065D01*
X29148865Y-52583289D01*
X29148865Y-52583287D01*
X29079377Y-52422197D01*
X29079377Y-52422196D01*
X28974610Y-52281470D01*
X28907412Y-52225084D01*
X28840216Y-52168699D01*
X28683430Y-52089958D01*
X28512723Y-52049500D01*
X28512721Y-52049500D01*
X28381291Y-52049500D01*
X28288043Y-52060399D01*
X28250743Y-52064759D01*
X28085882Y-52124763D01*
X27939304Y-52221169D01*
X27818909Y-52348780D01*
X27731188Y-52500719D01*
X27680870Y-52668789D01*
X27670669Y-52843937D01*
X25000500Y-52843937D01*
X25000500Y-45870000D01*
X28394785Y-45870000D01*
X28413603Y-46073083D01*
X28455237Y-46219410D01*
X28469419Y-46269252D01*
X28560325Y-46451818D01*
X28560326Y-46451819D01*
X28560327Y-46451821D01*
X28683236Y-46614579D01*
X28833959Y-46751981D01*
X29007363Y-46859348D01*
X29157254Y-46917415D01*
X29197546Y-46933025D01*
X29398022Y-46970500D01*
X29398024Y-46970500D01*
X29601976Y-46970500D01*
X29601978Y-46970500D01*
X29802453Y-46933025D01*
X29802456Y-46933024D01*
X29992637Y-46859348D01*
X30166041Y-46751981D01*
X30316764Y-46614579D01*
X30439673Y-46451821D01*
X30530582Y-46269250D01*
X30586397Y-46073083D01*
X30605215Y-45870000D01*
X30586397Y-45666917D01*
X30530582Y-45470750D01*
X30439673Y-45288179D01*
X30316764Y-45125421D01*
X30166041Y-44988019D01*
X30166038Y-44988017D01*
X29992639Y-44880653D01*
X29992637Y-44880652D01*
X29952347Y-44865043D01*
X29802453Y-44806974D01*
X29601978Y-44769500D01*
X29601976Y-44769500D01*
X29398024Y-44769500D01*
X29398022Y-44769500D01*
X29197546Y-44806974D01*
X29007360Y-44880653D01*
X28833961Y-44988017D01*
X28683237Y-45125420D01*
X28560325Y-45288181D01*
X28469419Y-45470747D01*
X28469418Y-45470750D01*
X28413603Y-45666917D01*
X28394785Y-45870000D01*
X25000500Y-45870000D01*
X25000500Y-43330000D01*
X28394785Y-43330000D01*
X28413603Y-43533083D01*
X28447011Y-43650500D01*
X28469419Y-43729252D01*
X28560325Y-43911818D01*
X28560326Y-43911819D01*
X28560327Y-43911821D01*
X28683236Y-44074579D01*
X28833959Y-44211981D01*
X29007363Y-44319348D01*
X29157254Y-44377415D01*
X29197546Y-44393025D01*
X29398022Y-44430500D01*
X29398024Y-44430500D01*
X29601976Y-44430500D01*
X29601978Y-44430500D01*
X29802453Y-44393025D01*
X29802456Y-44393024D01*
X29992637Y-44319348D01*
X30166041Y-44211981D01*
X30316764Y-44074579D01*
X30439673Y-43911821D01*
X30530582Y-43729250D01*
X30586397Y-43533083D01*
X30605215Y-43330000D01*
X30586397Y-43126917D01*
X30530582Y-42930750D01*
X30439673Y-42748179D01*
X30316764Y-42585421D01*
X30166041Y-42448019D01*
X29992637Y-42340652D01*
X29952347Y-42325043D01*
X29802453Y-42266974D01*
X29601978Y-42229500D01*
X29601976Y-42229500D01*
X29398024Y-42229500D01*
X29398022Y-42229500D01*
X29197546Y-42266974D01*
X29007360Y-42340653D01*
X28833961Y-42448017D01*
X28683237Y-42585420D01*
X28560325Y-42748181D01*
X28469419Y-42930747D01*
X28413603Y-43126917D01*
X28399213Y-43282218D01*
X28394785Y-43330000D01*
X25000500Y-43330000D01*
X25000500Y-39147826D01*
X28150000Y-39147826D01*
X28156401Y-39207376D01*
X28206646Y-39342089D01*
X28292811Y-39457188D01*
X28407910Y-39543353D01*
X28542623Y-39593598D01*
X28602174Y-39600000D01*
X28995702Y-39600000D01*
X29047819Y-39614829D01*
X29084323Y-39654872D01*
X29094280Y-39708135D01*
X29074706Y-39758661D01*
X29031465Y-39791315D01*
X29007360Y-39800653D01*
X28833961Y-39908017D01*
X28683237Y-40045420D01*
X28560325Y-40208181D01*
X28469419Y-40390747D01*
X28413603Y-40586917D01*
X28394785Y-40790000D01*
X28413603Y-40993082D01*
X28469419Y-41189252D01*
X28560325Y-41371818D01*
X28560326Y-41371819D01*
X28560327Y-41371821D01*
X28683236Y-41534579D01*
X28833959Y-41671981D01*
X29007363Y-41779348D01*
X29157254Y-41837415D01*
X29197546Y-41853025D01*
X29398022Y-41890500D01*
X29398024Y-41890500D01*
X29601976Y-41890500D01*
X29601978Y-41890500D01*
X29802453Y-41853025D01*
X29802456Y-41853024D01*
X29992637Y-41779348D01*
X30166041Y-41671981D01*
X30316764Y-41534579D01*
X30439673Y-41371821D01*
X30530582Y-41189250D01*
X30586397Y-40993083D01*
X30605215Y-40790000D01*
X30586397Y-40586917D01*
X30530582Y-40390750D01*
X30439673Y-40208179D01*
X30316764Y-40045421D01*
X30166041Y-39908019D01*
X29992637Y-39800652D01*
X29968534Y-39791314D01*
X29925294Y-39758661D01*
X29905720Y-39708135D01*
X29915677Y-39654872D01*
X29952181Y-39614829D01*
X30004298Y-39600000D01*
X30397826Y-39600000D01*
X30457376Y-39593598D01*
X30592089Y-39543353D01*
X30707188Y-39457188D01*
X30793353Y-39342089D01*
X30843598Y-39207376D01*
X30850000Y-39147826D01*
X30850000Y-38500001D01*
X30849999Y-38500000D01*
X28150001Y-38500000D01*
X28150000Y-38500001D01*
X28150000Y-39147826D01*
X25000500Y-39147826D01*
X25000500Y-38549887D01*
X25011291Y-38504942D01*
X25041310Y-38469794D01*
X25105871Y-38422888D01*
X25232531Y-38282218D01*
X25232530Y-38282218D01*
X25232533Y-38282216D01*
X25327179Y-38118284D01*
X25365612Y-37999999D01*
X28150000Y-37999999D01*
X28150001Y-38000000D01*
X29249999Y-38000000D01*
X29250000Y-37999999D01*
X29750000Y-37999999D01*
X29750001Y-38000000D01*
X30849999Y-38000000D01*
X30850000Y-37999999D01*
X30850000Y-37352174D01*
X30843598Y-37292623D01*
X30793353Y-37157910D01*
X30707188Y-37042811D01*
X30592089Y-36956646D01*
X30457376Y-36906401D01*
X30397826Y-36900000D01*
X29750001Y-36900000D01*
X29750000Y-36900001D01*
X29750000Y-37999999D01*
X29250000Y-37999999D01*
X29250000Y-36900001D01*
X29249999Y-36900000D01*
X28602174Y-36900000D01*
X28542623Y-36906401D01*
X28407910Y-36956646D01*
X28292811Y-37042811D01*
X28206646Y-37157910D01*
X28156401Y-37292623D01*
X28150000Y-37352174D01*
X28150000Y-37999999D01*
X25365612Y-37999999D01*
X25385674Y-37938256D01*
X25405460Y-37750000D01*
X25385674Y-37561744D01*
X25327179Y-37381716D01*
X25232533Y-37217784D01*
X25232532Y-37217783D01*
X25232531Y-37217781D01*
X25105871Y-37077111D01*
X25041310Y-37030206D01*
X25011291Y-36995058D01*
X25000500Y-36950113D01*
X25000500Y-29799887D01*
X25011291Y-29754942D01*
X25041310Y-29719794D01*
X25105871Y-29672888D01*
X25231597Y-29533256D01*
X25264901Y-29509059D01*
X25305168Y-29500500D01*
X26055194Y-29500500D01*
X26112199Y-29518559D01*
X26148407Y-29566148D01*
X26150608Y-29625904D01*
X26117999Y-29676028D01*
X25990590Y-29780590D01*
X25864062Y-29934763D01*
X25770045Y-30110657D01*
X25712149Y-30301516D01*
X25692600Y-30499999D01*
X25712149Y-30698483D01*
X25770045Y-30889342D01*
X25864062Y-31065236D01*
X25893003Y-31100500D01*
X25990590Y-31219410D01*
X26067676Y-31282673D01*
X26144763Y-31345937D01*
X26320657Y-31439954D01*
X26416086Y-31468901D01*
X26511515Y-31497850D01*
X26710000Y-31517399D01*
X26908485Y-31497850D01*
X27099342Y-31439954D01*
X27175026Y-31399500D01*
X27275236Y-31345937D01*
X27289059Y-31334592D01*
X27429410Y-31219410D01*
X27555936Y-31065237D01*
X27649954Y-30889342D01*
X27707850Y-30698485D01*
X27727399Y-30500000D01*
X27707850Y-30301515D01*
X27677295Y-30200789D01*
X27649954Y-30110657D01*
X27555937Y-29934763D01*
X27492672Y-29857676D01*
X27429410Y-29780590D01*
X27353590Y-29718366D01*
X27302001Y-29676028D01*
X27269392Y-29625904D01*
X27271593Y-29566148D01*
X27307801Y-29518559D01*
X27364806Y-29500500D01*
X30041678Y-29500500D01*
X30079564Y-29508036D01*
X30111682Y-29529496D01*
X30443330Y-29861144D01*
X30771499Y-30189312D01*
X30797528Y-30235259D01*
X30796233Y-30288051D01*
X30792149Y-30301514D01*
X30772600Y-30499999D01*
X30792149Y-30698483D01*
X30850045Y-30889342D01*
X30944062Y-31065236D01*
X30973003Y-31100500D01*
X31070590Y-31219410D01*
X31147676Y-31282673D01*
X31224763Y-31345937D01*
X31400657Y-31439954D01*
X31496086Y-31468901D01*
X31591515Y-31497850D01*
X31790000Y-31517399D01*
X31988485Y-31497850D01*
X32179342Y-31439954D01*
X32255026Y-31399500D01*
X32355236Y-31345937D01*
X32369059Y-31334592D01*
X32509410Y-31219410D01*
X32635936Y-31065237D01*
X32729954Y-30889342D01*
X32787850Y-30698485D01*
X32807399Y-30500000D01*
X32787850Y-30301515D01*
X32757295Y-30200789D01*
X32729954Y-30110657D01*
X32635937Y-29934763D01*
X32572672Y-29857676D01*
X32509410Y-29780590D01*
X32435330Y-29719794D01*
X32355236Y-29654062D01*
X32179342Y-29560045D01*
X31988483Y-29502149D01*
X31790000Y-29482600D01*
X31591514Y-29502149D01*
X31578051Y-29506233D01*
X31525259Y-29507528D01*
X31479312Y-29481499D01*
X30689481Y-28691667D01*
X30676200Y-28675184D01*
X30672143Y-28668872D01*
X30633948Y-28635776D01*
X30628777Y-28630962D01*
X30618596Y-28620782D01*
X30618595Y-28620781D01*
X30618593Y-28620779D01*
X30607062Y-28612147D01*
X30601575Y-28607725D01*
X30563373Y-28574623D01*
X30563372Y-28574622D01*
X30556544Y-28571504D01*
X30538345Y-28560706D01*
X30532330Y-28556203D01*
X30484970Y-28538539D01*
X30478442Y-28535835D01*
X30432457Y-28514835D01*
X30425017Y-28513765D01*
X30404518Y-28508532D01*
X30397486Y-28505909D01*
X30347061Y-28502302D01*
X30340041Y-28501547D01*
X30325799Y-28499500D01*
X30311418Y-28499500D01*
X30304356Y-28499248D01*
X30276240Y-28497237D01*
X30253927Y-28495641D01*
X30253926Y-28495641D01*
X30246591Y-28497237D01*
X30225546Y-28499500D01*
X25305168Y-28499500D01*
X25264901Y-28490941D01*
X25231597Y-28466744D01*
X25105871Y-28327111D01*
X25041310Y-28280206D01*
X25011291Y-28245058D01*
X25000500Y-28200113D01*
X25000500Y-26814454D01*
X25002763Y-26793409D01*
X25004359Y-26786073D01*
X25000752Y-26735644D01*
X25000500Y-26728582D01*
X25000500Y-26714199D01*
X24998453Y-26699968D01*
X24997698Y-26692957D01*
X24994091Y-26642517D01*
X24991466Y-26635481D01*
X24986233Y-26614975D01*
X24985165Y-26607543D01*
X24964165Y-26561560D01*
X24961460Y-26555029D01*
X24949953Y-26524177D01*
X24943796Y-26507669D01*
X24939292Y-26501652D01*
X24928497Y-26483460D01*
X24925377Y-26476627D01*
X24892259Y-26438407D01*
X24887851Y-26432936D01*
X24879221Y-26421407D01*
X24879218Y-26421404D01*
X24869043Y-26411228D01*
X24864230Y-26406058D01*
X24831130Y-26367858D01*
X24824812Y-26363798D01*
X24808332Y-26350518D01*
X19857814Y-21400000D01*
X24744815Y-21400000D01*
X24763503Y-21577803D01*
X24818750Y-21747835D01*
X24908141Y-21902665D01*
X24935939Y-21933538D01*
X25027770Y-22035526D01*
X25172406Y-22140612D01*
X25281864Y-22189345D01*
X25335733Y-22213329D01*
X25510609Y-22250500D01*
X25689389Y-22250500D01*
X25689391Y-22250500D01*
X25864267Y-22213329D01*
X26027593Y-22140612D01*
X26172230Y-22035526D01*
X26291859Y-21902665D01*
X26351132Y-21799999D01*
X26387369Y-21763764D01*
X26436869Y-21750500D01*
X28256915Y-21750500D01*
X28307811Y-21764585D01*
X28344225Y-21802832D01*
X28414088Y-21933536D01*
X28414090Y-21933538D01*
X28539117Y-22085883D01*
X28668298Y-22191900D01*
X28691463Y-22210911D01*
X28865272Y-22303814D01*
X28959570Y-22332418D01*
X29053868Y-22361024D01*
X29250000Y-22380341D01*
X29446132Y-22361024D01*
X29634727Y-22303814D01*
X29808538Y-22210910D01*
X29960883Y-22085883D01*
X30085910Y-21933538D01*
X30178814Y-21759727D01*
X30236024Y-21571132D01*
X30255341Y-21375000D01*
X30236024Y-21178868D01*
X30178814Y-20990273D01*
X30178814Y-20990272D01*
X30085911Y-20816463D01*
X30043243Y-20764473D01*
X29960883Y-20664117D01*
X29808538Y-20539090D01*
X29808539Y-20539090D01*
X29808536Y-20539088D01*
X29634727Y-20446185D01*
X29446130Y-20388975D01*
X29250000Y-20369658D01*
X29053869Y-20388975D01*
X28865272Y-20446185D01*
X28691463Y-20539088D01*
X28539117Y-20664117D01*
X28414088Y-20816463D01*
X28344225Y-20947168D01*
X28307811Y-20985415D01*
X28256915Y-20999500D01*
X26408002Y-20999500D01*
X26358502Y-20986237D01*
X26322266Y-20950000D01*
X26291860Y-20897336D01*
X26172229Y-20764473D01*
X26027593Y-20659387D01*
X25864270Y-20586672D01*
X25864268Y-20586671D01*
X25864267Y-20586671D01*
X25689391Y-20549500D01*
X25510609Y-20549500D01*
X25423171Y-20568085D01*
X25335731Y-20586671D01*
X25172409Y-20659387D01*
X25027767Y-20764475D01*
X24908142Y-20897332D01*
X24818750Y-21052164D01*
X24777581Y-21178869D01*
X24763503Y-21222197D01*
X24744815Y-21400000D01*
X19857814Y-21400000D01*
X14957814Y-16500000D01*
X24744815Y-16500000D01*
X24763503Y-16677803D01*
X24818750Y-16847835D01*
X24908141Y-17002665D01*
X24935939Y-17033538D01*
X25027770Y-17135526D01*
X25172406Y-17240612D01*
X25281864Y-17289345D01*
X25335733Y-17313329D01*
X25510609Y-17350500D01*
X25689389Y-17350500D01*
X25689391Y-17350500D01*
X25864267Y-17313329D01*
X26027593Y-17240612D01*
X26172230Y-17135526D01*
X26291859Y-17002665D01*
X26351132Y-16899999D01*
X26387369Y-16863764D01*
X26436869Y-16850500D01*
X28256915Y-16850500D01*
X28307811Y-16864585D01*
X28344225Y-16902832D01*
X28414088Y-17033536D01*
X28414090Y-17033538D01*
X28539117Y-17185883D01*
X28668298Y-17291900D01*
X28691463Y-17310911D01*
X28865272Y-17403814D01*
X28959570Y-17432418D01*
X29053868Y-17461024D01*
X29250000Y-17480341D01*
X29446132Y-17461024D01*
X29634727Y-17403814D01*
X29808538Y-17310910D01*
X29960883Y-17185883D01*
X30085910Y-17033538D01*
X30178814Y-16859727D01*
X30236024Y-16671132D01*
X30255341Y-16475000D01*
X30236024Y-16278868D01*
X30178814Y-16090273D01*
X30178814Y-16090272D01*
X30085911Y-15916463D01*
X30043243Y-15864473D01*
X29960883Y-15764117D01*
X29808538Y-15639090D01*
X29808539Y-15639090D01*
X29808536Y-15639088D01*
X29634727Y-15546185D01*
X29446130Y-15488975D01*
X29250000Y-15469658D01*
X29053869Y-15488975D01*
X28865272Y-15546185D01*
X28691463Y-15639088D01*
X28539117Y-15764117D01*
X28414088Y-15916463D01*
X28344225Y-16047168D01*
X28307811Y-16085415D01*
X28256915Y-16099500D01*
X26408002Y-16099500D01*
X26358502Y-16086237D01*
X26322266Y-16050000D01*
X26291860Y-15997336D01*
X26172229Y-15864473D01*
X26027593Y-15759387D01*
X25864270Y-15686672D01*
X25864268Y-15686671D01*
X25864267Y-15686671D01*
X25689391Y-15649500D01*
X25510609Y-15649500D01*
X25423171Y-15668085D01*
X25335731Y-15686671D01*
X25172409Y-15759387D01*
X25027767Y-15864475D01*
X24908142Y-15997332D01*
X24818750Y-16152164D01*
X24777581Y-16278869D01*
X24763503Y-16322197D01*
X24744815Y-16500000D01*
X14957814Y-16500000D01*
X13276782Y-14818968D01*
X13263500Y-14802484D01*
X13259444Y-14796173D01*
X13221250Y-14763078D01*
X13216079Y-14758264D01*
X13205898Y-14748084D01*
X13205895Y-14748081D01*
X13194364Y-14739449D01*
X13188877Y-14735027D01*
X13150675Y-14701925D01*
X13150674Y-14701924D01*
X13143846Y-14698806D01*
X13125647Y-14688008D01*
X13119632Y-14683505D01*
X13072272Y-14665841D01*
X13065744Y-14663137D01*
X13019759Y-14642137D01*
X13012319Y-14641067D01*
X12991820Y-14635834D01*
X12984788Y-14633211D01*
X12934363Y-14629604D01*
X12927343Y-14628849D01*
X12913101Y-14626802D01*
X12898720Y-14626802D01*
X12891658Y-14626550D01*
X12884416Y-14626032D01*
X12841229Y-14622943D01*
X12841228Y-14622943D01*
X12833893Y-14624539D01*
X12812848Y-14626802D01*
X12405201Y-14626802D01*
X12364934Y-14618243D01*
X12331630Y-14594046D01*
X12239544Y-14491775D01*
X12094908Y-14386689D01*
X11931585Y-14313974D01*
X11931583Y-14313973D01*
X11931582Y-14313973D01*
X11756706Y-14276802D01*
X11577924Y-14276802D01*
X11490485Y-14295387D01*
X11403046Y-14313973D01*
X11239724Y-14386689D01*
X11095082Y-14491777D01*
X10975457Y-14624634D01*
X10886065Y-14779466D01*
X10873230Y-14818968D01*
X10830818Y-14949499D01*
X10812130Y-15127302D01*
X2000500Y-15127302D01*
X2000500Y-8040000D01*
X11564785Y-8040000D01*
X11583603Y-8243082D01*
X11639419Y-8439252D01*
X11730325Y-8621818D01*
X11730326Y-8621819D01*
X11730327Y-8621821D01*
X11853236Y-8784579D01*
X12003959Y-8921981D01*
X12177363Y-9029348D01*
X12226461Y-9048368D01*
X12231263Y-9050229D01*
X12277175Y-9086596D01*
X12294500Y-9142544D01*
X12294500Y-11979222D01*
X12283710Y-12024167D01*
X12253693Y-12059311D01*
X12187082Y-12107707D01*
X12177767Y-12114476D01*
X12058142Y-12247333D01*
X11968750Y-12402164D01*
X11944809Y-12475846D01*
X11913503Y-12572197D01*
X11894815Y-12750000D01*
X11913503Y-12927803D01*
X11968750Y-13097835D01*
X12055709Y-13248453D01*
X12058142Y-13252666D01*
X12177770Y-13385526D01*
X12322406Y-13490612D01*
X12431864Y-13539345D01*
X12485733Y-13563329D01*
X12660609Y-13600500D01*
X12839389Y-13600500D01*
X12839391Y-13600500D01*
X13014267Y-13563329D01*
X13177593Y-13490612D01*
X13322230Y-13385526D01*
X13441859Y-13252665D01*
X13508015Y-13138078D01*
X13544250Y-13101845D01*
X13593750Y-13088581D01*
X13643250Y-13101845D01*
X13679484Y-13138078D01*
X13722566Y-13212697D01*
X13745642Y-13252667D01*
X13865270Y-13385526D01*
X14009906Y-13490612D01*
X14119364Y-13539345D01*
X14173233Y-13563329D01*
X14348109Y-13600500D01*
X14526889Y-13600500D01*
X14526891Y-13600500D01*
X14701767Y-13563329D01*
X14865093Y-13490612D01*
X15009730Y-13385526D01*
X15129359Y-13252665D01*
X15195515Y-13138078D01*
X15231750Y-13101845D01*
X15281250Y-13088581D01*
X15330750Y-13101845D01*
X15366984Y-13138078D01*
X15410066Y-13212697D01*
X15433142Y-13252667D01*
X15552770Y-13385526D01*
X15697406Y-13490612D01*
X15806864Y-13539345D01*
X15860733Y-13563329D01*
X16035609Y-13600500D01*
X16214389Y-13600500D01*
X16214391Y-13600500D01*
X16389267Y-13563329D01*
X16552593Y-13490612D01*
X16697230Y-13385526D01*
X16816859Y-13252665D01*
X16883015Y-13138078D01*
X16919250Y-13101845D01*
X16968750Y-13088581D01*
X17018250Y-13101845D01*
X17054484Y-13138078D01*
X17097566Y-13212697D01*
X17120642Y-13252667D01*
X17240270Y-13385526D01*
X17384906Y-13490612D01*
X17494364Y-13539345D01*
X17548233Y-13563329D01*
X17723109Y-13600500D01*
X17901889Y-13600500D01*
X17901891Y-13600500D01*
X18076767Y-13563329D01*
X18240093Y-13490612D01*
X18384730Y-13385526D01*
X18504359Y-13252665D01*
X18570515Y-13138078D01*
X18606750Y-13101845D01*
X18656250Y-13088581D01*
X18705750Y-13101845D01*
X18741984Y-13138078D01*
X18785066Y-13212697D01*
X18808142Y-13252667D01*
X18927770Y-13385526D01*
X19072406Y-13490612D01*
X19181864Y-13539345D01*
X19235733Y-13563329D01*
X19410609Y-13600500D01*
X19589389Y-13600500D01*
X19589391Y-13600500D01*
X19764267Y-13563329D01*
X19927593Y-13490612D01*
X20072230Y-13385526D01*
X20191859Y-13252665D01*
X20281250Y-13097835D01*
X20281250Y-13097832D01*
X20286452Y-13088824D01*
X20287112Y-13089205D01*
X20307229Y-13057505D01*
X20350379Y-13033782D01*
X20399621Y-13033782D01*
X20442771Y-13057505D01*
X20462887Y-13089205D01*
X20463548Y-13088824D01*
X20468749Y-13097833D01*
X20468750Y-13097835D01*
X20556891Y-13250500D01*
X20558142Y-13252666D01*
X20677770Y-13385526D01*
X20822406Y-13490612D01*
X20931864Y-13539345D01*
X20985733Y-13563329D01*
X21160609Y-13600500D01*
X21339389Y-13600500D01*
X21339391Y-13600500D01*
X21514267Y-13563329D01*
X21677593Y-13490612D01*
X21822230Y-13385526D01*
X21914313Y-13283256D01*
X21947619Y-13259059D01*
X21987886Y-13250500D01*
X22185546Y-13250500D01*
X22206590Y-13252762D01*
X22213927Y-13254359D01*
X22264355Y-13250752D01*
X22271418Y-13250500D01*
X22285801Y-13250500D01*
X22294391Y-13249264D01*
X22300037Y-13248452D01*
X22307043Y-13247698D01*
X22357483Y-13244091D01*
X22364517Y-13241467D01*
X22385022Y-13236233D01*
X22392457Y-13235165D01*
X22438450Y-13214159D01*
X22444952Y-13211466D01*
X22492331Y-13193796D01*
X22498349Y-13189290D01*
X22516548Y-13178493D01*
X22523373Y-13175377D01*
X22523374Y-13175375D01*
X22523376Y-13175375D01*
X22561563Y-13142284D01*
X22567053Y-13137858D01*
X22578593Y-13129221D01*
X22588779Y-13119033D01*
X22593907Y-13114258D01*
X22632143Y-13081128D01*
X22636199Y-13074814D01*
X22649477Y-13058335D01*
X25058335Y-10649477D01*
X25074816Y-10636199D01*
X25081128Y-10632143D01*
X25114258Y-10593907D01*
X25119033Y-10588779D01*
X25129221Y-10578593D01*
X25137858Y-10567053D01*
X25142284Y-10561563D01*
X25144835Y-10558620D01*
X25155911Y-10545836D01*
X25175375Y-10523376D01*
X25175375Y-10523374D01*
X25175377Y-10523373D01*
X25178493Y-10516548D01*
X25189290Y-10498349D01*
X25193796Y-10492331D01*
X25211466Y-10444952D01*
X25214159Y-10438450D01*
X25235165Y-10392457D01*
X25236233Y-10385022D01*
X25241467Y-10364517D01*
X25244091Y-10357483D01*
X25247698Y-10307043D01*
X25248453Y-10300032D01*
X25250500Y-10285801D01*
X25250500Y-10271418D01*
X25250752Y-10264356D01*
X25251848Y-10249033D01*
X25254359Y-10213927D01*
X25252762Y-10206590D01*
X25250500Y-10185546D01*
X25250500Y-6314454D01*
X25252763Y-6293409D01*
X25254359Y-6286073D01*
X25250752Y-6235644D01*
X25250500Y-6228582D01*
X25250500Y-6214199D01*
X25248453Y-6199968D01*
X25247698Y-6192957D01*
X25244091Y-6142517D01*
X25241466Y-6135481D01*
X25236233Y-6114975D01*
X25235165Y-6107543D01*
X25214165Y-6061560D01*
X25211460Y-6055029D01*
X25206603Y-6042007D01*
X25193796Y-6007669D01*
X25189292Y-6001652D01*
X25178497Y-5983460D01*
X25175377Y-5976627D01*
X25142259Y-5938407D01*
X25137851Y-5932936D01*
X25129221Y-5921407D01*
X25129218Y-5921404D01*
X25119043Y-5911228D01*
X25114230Y-5906058D01*
X25081130Y-5867858D01*
X25074812Y-5863798D01*
X25058332Y-5850518D01*
X24399480Y-5191666D01*
X24386198Y-5175182D01*
X24382142Y-5168871D01*
X24343948Y-5135776D01*
X24338777Y-5130962D01*
X24328596Y-5120782D01*
X24328596Y-5120781D01*
X24328593Y-5120779D01*
X24317062Y-5112147D01*
X24311575Y-5107725D01*
X24273373Y-5074623D01*
X24273372Y-5074622D01*
X24266544Y-5071504D01*
X24248345Y-5060706D01*
X24242330Y-5056203D01*
X24194970Y-5038539D01*
X24188442Y-5035835D01*
X24142457Y-5014835D01*
X24135017Y-5013765D01*
X24114518Y-5008532D01*
X24107486Y-5005909D01*
X24057061Y-5002302D01*
X24050041Y-5001547D01*
X24035799Y-4999500D01*
X24029499Y-4999500D01*
X23979999Y-4986237D01*
X23943762Y-4950000D01*
X23930499Y-4900500D01*
X23930499Y-4852128D01*
X23930499Y-4852127D01*
X23924091Y-4792517D01*
X23873796Y-4657669D01*
X23787546Y-4542454D01*
X23730835Y-4500000D01*
X29244551Y-4500000D01*
X29264316Y-4751146D01*
X29323127Y-4996112D01*
X29419535Y-5228862D01*
X29551163Y-5443658D01*
X29714775Y-5635224D01*
X29906341Y-5798836D01*
X30121137Y-5930464D01*
X30121139Y-5930464D01*
X30121141Y-5930466D01*
X30353889Y-6026873D01*
X30598852Y-6085683D01*
X30850000Y-6105449D01*
X31101148Y-6085683D01*
X31346111Y-6026873D01*
X31578859Y-5930466D01*
X31793659Y-5798836D01*
X31985224Y-5635224D01*
X32148836Y-5443659D01*
X32280466Y-5228859D01*
X32376873Y-4996111D01*
X32435683Y-4751148D01*
X32455449Y-4500000D01*
X32435683Y-4248852D01*
X32376873Y-4003889D01*
X32280466Y-3771141D01*
X32148836Y-3556341D01*
X32148835Y-3556340D01*
X31985224Y-3364775D01*
X31793658Y-3201163D01*
X31578862Y-3069535D01*
X31346112Y-2973127D01*
X31101146Y-2914316D01*
X30871453Y-2896239D01*
X30850000Y-2894551D01*
X30849999Y-2894551D01*
X30598853Y-2914316D01*
X30353887Y-2973127D01*
X30121137Y-3069535D01*
X29906341Y-3201163D01*
X29714775Y-3364775D01*
X29551163Y-3556341D01*
X29419535Y-3771137D01*
X29323127Y-4003887D01*
X29264316Y-4248853D01*
X29244551Y-4500000D01*
X23730835Y-4500000D01*
X23672331Y-4456204D01*
X23672330Y-4456203D01*
X23576366Y-4420411D01*
X23537483Y-4405909D01*
X23477873Y-4399500D01*
X23477869Y-4399500D01*
X22182128Y-4399500D01*
X22122515Y-4405909D01*
X21987669Y-4456203D01*
X21872454Y-4542454D01*
X21786203Y-4657669D01*
X21749745Y-4755420D01*
X21735909Y-4792517D01*
X21731155Y-4836738D01*
X21729500Y-4852131D01*
X21729500Y-4946085D01*
X21715360Y-4997074D01*
X21676978Y-5033497D01*
X21625319Y-5044949D01*
X21575140Y-5028160D01*
X21540776Y-4987924D01*
X21463601Y-4822425D01*
X21404926Y-4738626D01*
X20643553Y-5500000D01*
X21404926Y-6261373D01*
X21463598Y-6177581D01*
X21540775Y-6012073D01*
X21575139Y-5971838D01*
X21625318Y-5955048D01*
X21676977Y-5966500D01*
X21715359Y-6002922D01*
X21729500Y-6053911D01*
X21729500Y-6147871D01*
X21735909Y-6207484D01*
X21786203Y-6342330D01*
X21807886Y-6371295D01*
X21872454Y-6457546D01*
X21987669Y-6543796D01*
X22122517Y-6594091D01*
X22182127Y-6600500D01*
X23477872Y-6600499D01*
X23537483Y-6594091D01*
X23672331Y-6543796D01*
X23787546Y-6457546D01*
X23873796Y-6342331D01*
X23890789Y-6296769D01*
X23918714Y-6256550D01*
X23962501Y-6234631D01*
X24011437Y-6236378D01*
X24053550Y-6261364D01*
X24220504Y-6428318D01*
X24241964Y-6460436D01*
X24249500Y-6498322D01*
X24249500Y-10001678D01*
X24241964Y-10039564D01*
X24220504Y-10071682D01*
X22071682Y-12220504D01*
X22039564Y-12241964D01*
X22001678Y-12249500D01*
X21987886Y-12249500D01*
X21947619Y-12240941D01*
X21914315Y-12216744D01*
X21822229Y-12114473D01*
X21677593Y-12009387D01*
X21514270Y-11936672D01*
X21514268Y-11936671D01*
X21514267Y-11936671D01*
X21339391Y-11899500D01*
X21160609Y-11899500D01*
X21133119Y-11905343D01*
X21082931Y-11902976D01*
X21040369Y-11876276D01*
X21016395Y-11832120D01*
X21017184Y-11781883D01*
X21042531Y-11738504D01*
X23060727Y-9720308D01*
X23076577Y-9707438D01*
X23087836Y-9700084D01*
X23108226Y-9673885D01*
X23116344Y-9664692D01*
X23117519Y-9663518D01*
X23129904Y-9646169D01*
X23132305Y-9642948D01*
X23164809Y-9601189D01*
X23164809Y-9601187D01*
X23167917Y-9597195D01*
X23170565Y-9592051D01*
X23172009Y-9587200D01*
X23172010Y-9587199D01*
X23187093Y-9536531D01*
X23188325Y-9532687D01*
X23205500Y-9482660D01*
X23205500Y-9482656D01*
X23207137Y-9477888D01*
X23207976Y-9472127D01*
X23205585Y-9414299D01*
X23205500Y-9410208D01*
X23205500Y-9142544D01*
X23222825Y-9086596D01*
X23268737Y-9050229D01*
X23272115Y-9048920D01*
X23322637Y-9029348D01*
X23496041Y-8921981D01*
X23646764Y-8784579D01*
X23769673Y-8621821D01*
X23860582Y-8439250D01*
X23916397Y-8243083D01*
X23935215Y-8040000D01*
X23916397Y-7836917D01*
X23860582Y-7640750D01*
X23769673Y-7458179D01*
X23646764Y-7295421D01*
X23496041Y-7158019D01*
X23322637Y-7050652D01*
X23282347Y-7035043D01*
X23132453Y-6976974D01*
X22931978Y-6939500D01*
X22931976Y-6939500D01*
X22728024Y-6939500D01*
X22728022Y-6939500D01*
X22527546Y-6976974D01*
X22337360Y-7050653D01*
X22163961Y-7158017D01*
X22013237Y-7295420D01*
X21890325Y-7458181D01*
X21799419Y-7640747D01*
X21743603Y-7836917D01*
X21724785Y-8039999D01*
X21743603Y-8243082D01*
X21799419Y-8439252D01*
X21890325Y-8621818D01*
X21890326Y-8621819D01*
X21890327Y-8621821D01*
X22013236Y-8784579D01*
X22163959Y-8921981D01*
X22337363Y-9029348D01*
X22386461Y-9048368D01*
X22391263Y-9050229D01*
X22437175Y-9086596D01*
X22454500Y-9142544D01*
X22454500Y-9223455D01*
X22446964Y-9261341D01*
X22425504Y-9293459D01*
X19817139Y-11901821D01*
X19775253Y-11926740D01*
X19726552Y-11928654D01*
X19656932Y-11913856D01*
X19589391Y-11899500D01*
X19410609Y-11899500D01*
X19323170Y-11918085D01*
X19235731Y-11936671D01*
X19072409Y-12009387D01*
X18927767Y-12114475D01*
X18808142Y-12247332D01*
X18741987Y-12361918D01*
X18705750Y-12398155D01*
X18656250Y-12411418D01*
X18606750Y-12398155D01*
X18570513Y-12361918D01*
X18504357Y-12247332D01*
X18384730Y-12114473D01*
X18352146Y-12090800D01*
X18317912Y-12046186D01*
X18313499Y-11990124D01*
X18340330Y-11940705D01*
X20520727Y-9760308D01*
X20536577Y-9747438D01*
X20547836Y-9740084D01*
X20568226Y-9713885D01*
X20576344Y-9704692D01*
X20577519Y-9703518D01*
X20589904Y-9686169D01*
X20592305Y-9682948D01*
X20624809Y-9641189D01*
X20624809Y-9641187D01*
X20627917Y-9637195D01*
X20630565Y-9632051D01*
X20632009Y-9627200D01*
X20632010Y-9627199D01*
X20647093Y-9576531D01*
X20648325Y-9572687D01*
X20665500Y-9522660D01*
X20665500Y-9522656D01*
X20667137Y-9517888D01*
X20667976Y-9512127D01*
X20665585Y-9454299D01*
X20665500Y-9450208D01*
X20665500Y-9142544D01*
X20682825Y-9086596D01*
X20728737Y-9050229D01*
X20732115Y-9048920D01*
X20782637Y-9029348D01*
X20956041Y-8921981D01*
X21106764Y-8784579D01*
X21229673Y-8621821D01*
X21320582Y-8439250D01*
X21376397Y-8243083D01*
X21395215Y-8040000D01*
X21376397Y-7836917D01*
X21320582Y-7640750D01*
X21229673Y-7458179D01*
X21106764Y-7295421D01*
X20956041Y-7158019D01*
X20782637Y-7050652D01*
X20630342Y-6991653D01*
X20582952Y-6953065D01*
X20567249Y-6894004D01*
X20589216Y-6836976D01*
X20640482Y-6803711D01*
X20753495Y-6773429D01*
X20967576Y-6673601D01*
X21051373Y-6614926D01*
X20290000Y-5853553D01*
X19528626Y-6614926D01*
X19612423Y-6673601D01*
X19826504Y-6773429D01*
X19939517Y-6803711D01*
X19990783Y-6836976D01*
X20012750Y-6894004D01*
X19997047Y-6953065D01*
X19949657Y-6991653D01*
X19797360Y-7050653D01*
X19623961Y-7158017D01*
X19473237Y-7295420D01*
X19350325Y-7458181D01*
X19259419Y-7640747D01*
X19203603Y-7836917D01*
X19184785Y-8039999D01*
X19203603Y-8243082D01*
X19259419Y-8439252D01*
X19350325Y-8621818D01*
X19350326Y-8621819D01*
X19350327Y-8621821D01*
X19473236Y-8784579D01*
X19623959Y-8921981D01*
X19797363Y-9029348D01*
X19846461Y-9048368D01*
X19851263Y-9050229D01*
X19897175Y-9086596D01*
X19914500Y-9142544D01*
X19914500Y-9263455D01*
X19906964Y-9301341D01*
X19885504Y-9333459D01*
X17581771Y-11637189D01*
X17565919Y-11650062D01*
X17554662Y-11657417D01*
X17534266Y-11683620D01*
X17526158Y-11692804D01*
X17524980Y-11693981D01*
X17512590Y-11711335D01*
X17510146Y-11714612D01*
X17474595Y-11760288D01*
X17471927Y-11765471D01*
X17455411Y-11820948D01*
X17454164Y-11824841D01*
X17435362Y-11879611D01*
X17434523Y-11885368D01*
X17435884Y-11918273D01*
X17421103Y-11974538D01*
X17391327Y-12000521D01*
X17393326Y-12003272D01*
X17240267Y-12114475D01*
X17120642Y-12247332D01*
X17054487Y-12361918D01*
X17018250Y-12398155D01*
X16968750Y-12411418D01*
X16919250Y-12398155D01*
X16883013Y-12361918D01*
X16816859Y-12247335D01*
X16697230Y-12114474D01*
X16664646Y-12090800D01*
X16544175Y-12003271D01*
X16545873Y-12000933D01*
X16516472Y-11975823D01*
X16500500Y-11921903D01*
X16500500Y-11571545D01*
X16508036Y-11533659D01*
X16529496Y-11501541D01*
X16882202Y-11148835D01*
X17980727Y-10050308D01*
X17996577Y-10037438D01*
X18007836Y-10030084D01*
X18028226Y-10003885D01*
X18036344Y-9994692D01*
X18037519Y-9993518D01*
X18049904Y-9976169D01*
X18052305Y-9972948D01*
X18084809Y-9931189D01*
X18084809Y-9931187D01*
X18087917Y-9927195D01*
X18090565Y-9922051D01*
X18092009Y-9917200D01*
X18092010Y-9917199D01*
X18107093Y-9866531D01*
X18108325Y-9862687D01*
X18125500Y-9812660D01*
X18125500Y-9812656D01*
X18127137Y-9807888D01*
X18127976Y-9802127D01*
X18125585Y-9744299D01*
X18125500Y-9740208D01*
X18125500Y-9142544D01*
X18142825Y-9086596D01*
X18188737Y-9050229D01*
X18192115Y-9048920D01*
X18242637Y-9029348D01*
X18416041Y-8921981D01*
X18566764Y-8784579D01*
X18689673Y-8621821D01*
X18780582Y-8439250D01*
X18836397Y-8243083D01*
X18855215Y-8040000D01*
X18836397Y-7836917D01*
X18780582Y-7640750D01*
X18689673Y-7458179D01*
X18566764Y-7295421D01*
X18416041Y-7158019D01*
X18242637Y-7050652D01*
X18090342Y-6991653D01*
X18042952Y-6953065D01*
X18027249Y-6894004D01*
X18049216Y-6836976D01*
X18100482Y-6803711D01*
X18213495Y-6773429D01*
X18427576Y-6673601D01*
X18511373Y-6614926D01*
X17750000Y-5853553D01*
X16988626Y-6614926D01*
X17072423Y-6673601D01*
X17286504Y-6773429D01*
X17399517Y-6803711D01*
X17450783Y-6836976D01*
X17472750Y-6894004D01*
X17457047Y-6953065D01*
X17409657Y-6991653D01*
X17257360Y-7050653D01*
X17083961Y-7158017D01*
X16933237Y-7295420D01*
X16810325Y-7458181D01*
X16719419Y-7640747D01*
X16663603Y-7836917D01*
X16644785Y-8039999D01*
X16663603Y-8243082D01*
X16719419Y-8439252D01*
X16810325Y-8621818D01*
X16810326Y-8621819D01*
X16810327Y-8621821D01*
X16933236Y-8784579D01*
X17083959Y-8921981D01*
X17257363Y-9029348D01*
X17306461Y-9048368D01*
X17311263Y-9050229D01*
X17357175Y-9086596D01*
X17374500Y-9142544D01*
X17374500Y-9553455D01*
X17366964Y-9591341D01*
X17345503Y-9623459D01*
X15894270Y-11074689D01*
X15878419Y-11087562D01*
X15867162Y-11094917D01*
X15846766Y-11121120D01*
X15838658Y-11130304D01*
X15837480Y-11131481D01*
X15825090Y-11148835D01*
X15822646Y-11152112D01*
X15787095Y-11197788D01*
X15784427Y-11202971D01*
X15767911Y-11258448D01*
X15766664Y-11262341D01*
X15747862Y-11317111D01*
X15747023Y-11322872D01*
X15749415Y-11380701D01*
X15749500Y-11384792D01*
X15749500Y-11921903D01*
X15733532Y-11975817D01*
X15704128Y-12000934D01*
X15705826Y-12003272D01*
X15552767Y-12114475D01*
X15433142Y-12247332D01*
X15366987Y-12361918D01*
X15330750Y-12398155D01*
X15281250Y-12411418D01*
X15231750Y-12398155D01*
X15195513Y-12361918D01*
X15129359Y-12247335D01*
X15009730Y-12114474D01*
X14977146Y-12090800D01*
X14856675Y-12003271D01*
X14858373Y-12000933D01*
X14828972Y-11975823D01*
X14813000Y-11921903D01*
X14813000Y-11009045D01*
X14820536Y-10971159D01*
X14841996Y-10939042D01*
X15480722Y-10300314D01*
X15496577Y-10287438D01*
X15507836Y-10280084D01*
X15528226Y-10253885D01*
X15536344Y-10244692D01*
X15537520Y-10243517D01*
X15549916Y-10226153D01*
X15552332Y-10222913D01*
X15584809Y-10181189D01*
X15584810Y-10181185D01*
X15587917Y-10177194D01*
X15590565Y-10172051D01*
X15592009Y-10167200D01*
X15592010Y-10167199D01*
X15607094Y-10116528D01*
X15608332Y-10112666D01*
X15622403Y-10071682D01*
X15625500Y-10062660D01*
X15625500Y-10062659D01*
X15627139Y-10057885D01*
X15627977Y-10052129D01*
X15627586Y-10042686D01*
X15625584Y-9994285D01*
X15625500Y-9990195D01*
X15625500Y-9127048D01*
X15642825Y-9071100D01*
X15688736Y-9034734D01*
X15697816Y-9031215D01*
X15702637Y-9029348D01*
X15876041Y-8921981D01*
X16026764Y-8784579D01*
X16149673Y-8621821D01*
X16240582Y-8439250D01*
X16296397Y-8243083D01*
X16315215Y-8040000D01*
X16296397Y-7836917D01*
X16240582Y-7640750D01*
X16149673Y-7458179D01*
X16026764Y-7295421D01*
X15876041Y-7158019D01*
X15702637Y-7050652D01*
X15662347Y-7035043D01*
X15512453Y-6976974D01*
X15311978Y-6939500D01*
X15311976Y-6939500D01*
X15108024Y-6939500D01*
X15108022Y-6939500D01*
X14907546Y-6976974D01*
X14717360Y-7050653D01*
X14543961Y-7158017D01*
X14393237Y-7295420D01*
X14270325Y-7458181D01*
X14179419Y-7640747D01*
X14123603Y-7836917D01*
X14104785Y-8040000D01*
X14123603Y-8243082D01*
X14179419Y-8439252D01*
X14270325Y-8621818D01*
X14270326Y-8621819D01*
X14270327Y-8621821D01*
X14393236Y-8784579D01*
X14543959Y-8921981D01*
X14717363Y-9029348D01*
X14794500Y-9059231D01*
X14811263Y-9065725D01*
X14857175Y-9102092D01*
X14874500Y-9158040D01*
X14874500Y-9803456D01*
X14866964Y-9841342D01*
X14845503Y-9873460D01*
X14206773Y-10512187D01*
X14190922Y-10525060D01*
X14179662Y-10532417D01*
X14159266Y-10558620D01*
X14151158Y-10567804D01*
X14149980Y-10568981D01*
X14137590Y-10586335D01*
X14135146Y-10589612D01*
X14099595Y-10635288D01*
X14096927Y-10640471D01*
X14080411Y-10695948D01*
X14079164Y-10699841D01*
X14060362Y-10754611D01*
X14059523Y-10760372D01*
X14061915Y-10818201D01*
X14062000Y-10822292D01*
X14062000Y-11921903D01*
X14046032Y-11975817D01*
X14016628Y-12000934D01*
X14018326Y-12003272D01*
X13865267Y-12114475D01*
X13745642Y-12247332D01*
X13679487Y-12361918D01*
X13643250Y-12398155D01*
X13593750Y-12411418D01*
X13544250Y-12398155D01*
X13508013Y-12361918D01*
X13441859Y-12247335D01*
X13322230Y-12114474D01*
X13289646Y-12090800D01*
X13177594Y-12009388D01*
X13104233Y-11976726D01*
X13061472Y-11940204D01*
X13045500Y-11886285D01*
X13045500Y-9142544D01*
X13062825Y-9086596D01*
X13108737Y-9050229D01*
X13112115Y-9048920D01*
X13162637Y-9029348D01*
X13336041Y-8921981D01*
X13486764Y-8784579D01*
X13609673Y-8621821D01*
X13700582Y-8439250D01*
X13756397Y-8243083D01*
X13775215Y-8040000D01*
X13756397Y-7836917D01*
X13700582Y-7640750D01*
X13609673Y-7458179D01*
X13486764Y-7295421D01*
X13336041Y-7158019D01*
X13162637Y-7050652D01*
X13010342Y-6991653D01*
X12962952Y-6953065D01*
X12947249Y-6894004D01*
X12969216Y-6836976D01*
X13020482Y-6803711D01*
X13133495Y-6773429D01*
X13347576Y-6673601D01*
X13431373Y-6614926D01*
X12670000Y-5853553D01*
X11908626Y-6614926D01*
X11992423Y-6673601D01*
X12206504Y-6773429D01*
X12319517Y-6803711D01*
X12370783Y-6836976D01*
X12392750Y-6894004D01*
X12377047Y-6953065D01*
X12329657Y-6991653D01*
X12177360Y-7050653D01*
X12003961Y-7158017D01*
X11853237Y-7295420D01*
X11730325Y-7458181D01*
X11639419Y-7640747D01*
X11583603Y-7836917D01*
X11564785Y-8040000D01*
X2000500Y-8040000D01*
X2000500Y-4499999D01*
X2894551Y-4499999D01*
X2914316Y-4751146D01*
X2973127Y-4996112D01*
X3069535Y-5228862D01*
X3201163Y-5443658D01*
X3364775Y-5635224D01*
X3556341Y-5798836D01*
X3771137Y-5930464D01*
X3771139Y-5930464D01*
X3771141Y-5930466D01*
X4003889Y-6026873D01*
X4248852Y-6085683D01*
X4500000Y-6105449D01*
X4751148Y-6085683D01*
X4996111Y-6026873D01*
X5228859Y-5930466D01*
X5443659Y-5798836D01*
X5635224Y-5635224D01*
X5750717Y-5499999D01*
X11314842Y-5499999D01*
X11335430Y-5735318D01*
X11396570Y-5963495D01*
X11496398Y-6177576D01*
X11555072Y-6261372D01*
X12316444Y-5500000D01*
X13023553Y-5500000D01*
X13784926Y-6261373D01*
X13843601Y-6177576D01*
X13943429Y-5963495D01*
X13973985Y-5849458D01*
X13999393Y-5805294D01*
X14043400Y-5779614D01*
X14094350Y-5779222D01*
X14138747Y-5804220D01*
X14164832Y-5847986D01*
X14179418Y-5899250D01*
X14179419Y-5899252D01*
X14270325Y-6081818D01*
X14270326Y-6081819D01*
X14270327Y-6081821D01*
X14393236Y-6244579D01*
X14543959Y-6381981D01*
X14717363Y-6489348D01*
X14867254Y-6547415D01*
X14907546Y-6563025D01*
X15108022Y-6600500D01*
X15108024Y-6600500D01*
X15311976Y-6600500D01*
X15311978Y-6600500D01*
X15512453Y-6563025D01*
X15512456Y-6563024D01*
X15702637Y-6489348D01*
X15876041Y-6381981D01*
X16026764Y-6244579D01*
X16149673Y-6081821D01*
X16240582Y-5899250D01*
X16255168Y-5847985D01*
X16281251Y-5804221D01*
X16325648Y-5779222D01*
X16376598Y-5779614D01*
X16420606Y-5805293D01*
X16446014Y-5849458D01*
X16476570Y-5963495D01*
X16576398Y-6177576D01*
X16635072Y-6261372D01*
X17396444Y-5500000D01*
X18103553Y-5500000D01*
X18864926Y-6261373D01*
X18923598Y-6177581D01*
X18930275Y-6163263D01*
X18966807Y-6121606D01*
X19020000Y-6106102D01*
X19073193Y-6121606D01*
X19109725Y-6163263D01*
X19116401Y-6177581D01*
X19175072Y-6261372D01*
X19936445Y-5499999D01*
X19175072Y-4738626D01*
X19116399Y-4822423D01*
X19109724Y-4836738D01*
X19073192Y-4878394D01*
X19020000Y-4893898D01*
X18966808Y-4878394D01*
X18930276Y-4836738D01*
X18923600Y-4822423D01*
X18864926Y-4738626D01*
X18103553Y-5500000D01*
X17396444Y-5500000D01*
X17396445Y-5499999D01*
X16635072Y-4738626D01*
X16576398Y-4822424D01*
X16476570Y-5036505D01*
X16446014Y-5150541D01*
X16420606Y-5194706D01*
X16376598Y-5220385D01*
X16325648Y-5220777D01*
X16281251Y-5195778D01*
X16255167Y-5152012D01*
X16240582Y-5100750D01*
X16149673Y-4918179D01*
X16026764Y-4755421D01*
X15876041Y-4618019D01*
X15702637Y-4510652D01*
X15662347Y-4495043D01*
X15512453Y-4436974D01*
X15311978Y-4399500D01*
X15311976Y-4399500D01*
X15108024Y-4399500D01*
X15108022Y-4399500D01*
X14907546Y-4436974D01*
X14717360Y-4510653D01*
X14543961Y-4618017D01*
X14397925Y-4751146D01*
X14393236Y-4755421D01*
X14352266Y-4809673D01*
X14270325Y-4918181D01*
X14179417Y-5100751D01*
X14164832Y-5152012D01*
X14138747Y-5195779D01*
X14094350Y-5220778D01*
X14043400Y-5220385D01*
X13999393Y-5194705D01*
X13973985Y-5150541D01*
X13943429Y-5036504D01*
X13843601Y-4822425D01*
X13784926Y-4738626D01*
X13023553Y-5500000D01*
X12316444Y-5500000D01*
X12316445Y-5499999D01*
X11555072Y-4738626D01*
X11496398Y-4822424D01*
X11396570Y-5036504D01*
X11335430Y-5264681D01*
X11314842Y-5499999D01*
X5750717Y-5499999D01*
X5798836Y-5443659D01*
X5930466Y-5228859D01*
X6026873Y-4996111D01*
X6085683Y-4751148D01*
X6105449Y-4500000D01*
X6096404Y-4385072D01*
X11908626Y-4385072D01*
X12669999Y-5146445D01*
X13431372Y-4385072D01*
X16988626Y-4385072D01*
X17749999Y-5146445D01*
X18511372Y-4385072D01*
X19528626Y-4385072D01*
X20289999Y-5146445D01*
X21051372Y-4385072D01*
X20967576Y-4326398D01*
X20753495Y-4226570D01*
X20525318Y-4165430D01*
X20290000Y-4144842D01*
X20054681Y-4165430D01*
X19826504Y-4226570D01*
X19612424Y-4326398D01*
X19528626Y-4385072D01*
X18511372Y-4385072D01*
X18427576Y-4326398D01*
X18213495Y-4226570D01*
X17985318Y-4165430D01*
X17750000Y-4144842D01*
X17514681Y-4165430D01*
X17286504Y-4226570D01*
X17072424Y-4326398D01*
X16988626Y-4385072D01*
X13431372Y-4385072D01*
X13347576Y-4326398D01*
X13133495Y-4226570D01*
X12905318Y-4165430D01*
X12670000Y-4144842D01*
X12434681Y-4165430D01*
X12206504Y-4226570D01*
X11992424Y-4326398D01*
X11908626Y-4385072D01*
X6096404Y-4385072D01*
X6085683Y-4248852D01*
X6026873Y-4003889D01*
X5930466Y-3771141D01*
X5798836Y-3556341D01*
X5798835Y-3556340D01*
X5635224Y-3364775D01*
X5443658Y-3201163D01*
X5228862Y-3069535D01*
X4996112Y-2973127D01*
X4751146Y-2914316D01*
X4500000Y-2894551D01*
X4248853Y-2914316D01*
X4003887Y-2973127D01*
X3771137Y-3069535D01*
X3556341Y-3201163D01*
X3364775Y-3364775D01*
X3201163Y-3556341D01*
X3069535Y-3771137D01*
X2973127Y-4003887D01*
X2914316Y-4248853D01*
X2894551Y-4499999D01*
X2000500Y-4499999D01*
X2000500Y-1599500D01*
X2013763Y-1550000D01*
X2050000Y-1513763D01*
X2099500Y-1500500D01*
X33400500Y-1500500D01*
X33450000Y-1513763D01*
G37*
%TD.AperFunction*%
%TD*%
M02*
