%TF.GenerationSoftware,KiCad,Pcbnew,7.0.1*%
%TF.CreationDate,2023-03-18T11:39:06+07:00*%
%TF.ProjectId,BMP,424d502e-6b69-4636-9164-5f7063625858,rev?*%
%TF.SameCoordinates,Original*%
%TF.FileFunction,Copper,L1,Top*%
%TF.FilePolarity,Positive*%
%FSLAX46Y46*%
G04 Gerber Fmt 4.6, Leading zero omitted, Abs format (unit mm)*
G04 Created by KiCad (PCBNEW 7.0.1) date 2023-03-18 11:39:06*
%MOMM*%
%LPD*%
G01*
G04 APERTURE LIST*
G04 Aperture macros list*
%AMRoundRect*
0 Rectangle with rounded corners*
0 $1 Rounding radius*
0 $2 $3 $4 $5 $6 $7 $8 $9 X,Y pos of 4 corners*
0 Add a 4 corners polygon primitive as box body*
4,1,4,$2,$3,$4,$5,$6,$7,$8,$9,$2,$3,0*
0 Add four circle primitives for the rounded corners*
1,1,$1+$1,$2,$3*
1,1,$1+$1,$4,$5*
1,1,$1+$1,$6,$7*
1,1,$1+$1,$8,$9*
0 Add four rect primitives between the rounded corners*
20,1,$1+$1,$2,$3,$4,$5,0*
20,1,$1+$1,$4,$5,$6,$7,0*
20,1,$1+$1,$6,$7,$8,$9,0*
20,1,$1+$1,$8,$9,$2,$3,0*%
G04 Aperture macros list end*
%TA.AperFunction,ComponentPad*%
%ADD10C,1.700000*%
%TD*%
%TA.AperFunction,ComponentPad*%
%ADD11RoundRect,0.250000X-0.600000X0.600000X-0.600000X-0.600000X0.600000X-0.600000X0.600000X0.600000X0*%
%TD*%
%TA.AperFunction,ComponentPad*%
%ADD12O,1.700000X1.700000*%
%TD*%
%TA.AperFunction,ComponentPad*%
%ADD13R,1.700000X1.700000*%
%TD*%
%TA.AperFunction,SMDPad,CuDef*%
%ADD14RoundRect,0.237500X0.237500X-0.250000X0.237500X0.250000X-0.237500X0.250000X-0.237500X-0.250000X0*%
%TD*%
%TA.AperFunction,SMDPad,CuDef*%
%ADD15RoundRect,0.237500X-0.237500X0.250000X-0.237500X-0.250000X0.237500X-0.250000X0.237500X0.250000X0*%
%TD*%
%TA.AperFunction,SMDPad,CuDef*%
%ADD16RoundRect,0.237500X0.237500X-0.300000X0.237500X0.300000X-0.237500X0.300000X-0.237500X-0.300000X0*%
%TD*%
%TA.AperFunction,SMDPad,CuDef*%
%ADD17RoundRect,0.250000X0.337500X0.475000X-0.337500X0.475000X-0.337500X-0.475000X0.337500X-0.475000X0*%
%TD*%
%TA.AperFunction,ComponentPad*%
%ADD18C,1.524000*%
%TD*%
%TA.AperFunction,SMDPad,CuDef*%
%ADD19RoundRect,0.237500X0.250000X0.237500X-0.250000X0.237500X-0.250000X-0.237500X0.250000X-0.237500X0*%
%TD*%
%TA.AperFunction,SMDPad,CuDef*%
%ADD20RoundRect,0.075000X-0.662500X0.075000X-0.662500X-0.075000X0.662500X-0.075000X0.662500X0.075000X0*%
%TD*%
%TA.AperFunction,SMDPad,CuDef*%
%ADD21RoundRect,0.075000X-0.075000X0.662500X-0.075000X-0.662500X0.075000X-0.662500X0.075000X0.662500X0*%
%TD*%
%TA.AperFunction,SMDPad,CuDef*%
%ADD22R,1.700000X2.000000*%
%TD*%
%TA.AperFunction,SMDPad,CuDef*%
%ADD23R,2.000000X0.500000*%
%TD*%
%TA.AperFunction,SMDPad,CuDef*%
%ADD24RoundRect,0.237500X0.300000X0.237500X-0.300000X0.237500X-0.300000X-0.237500X0.300000X-0.237500X0*%
%TD*%
%TA.AperFunction,SMDPad,CuDef*%
%ADD25RoundRect,0.150000X-0.150000X0.512500X-0.150000X-0.512500X0.150000X-0.512500X0.150000X0.512500X0*%
%TD*%
%TA.AperFunction,ComponentPad*%
%ADD26C,1.500000*%
%TD*%
%TA.AperFunction,SMDPad,CuDef*%
%ADD27RoundRect,0.100000X-0.100000X0.637500X-0.100000X-0.637500X0.100000X-0.637500X0.100000X0.637500X0*%
%TD*%
%TA.AperFunction,SMDPad,CuDef*%
%ADD28RoundRect,0.237500X-0.237500X0.300000X-0.237500X-0.300000X0.237500X-0.300000X0.237500X0.300000X0*%
%TD*%
%TA.AperFunction,SMDPad,CuDef*%
%ADD29RoundRect,0.150000X0.150000X-0.587500X0.150000X0.587500X-0.150000X0.587500X-0.150000X-0.587500X0*%
%TD*%
%TA.AperFunction,ViaPad*%
%ADD30C,1.200000*%
%TD*%
%TA.AperFunction,ViaPad*%
%ADD31C,1.300000*%
%TD*%
%TA.AperFunction,Conductor*%
%ADD32C,0.500000*%
%TD*%
%TA.AperFunction,Conductor*%
%ADD33C,0.250000*%
%TD*%
%TA.AperFunction,Conductor*%
%ADD34C,0.300000*%
%TD*%
G04 APERTURE END LIST*
D10*
%TO.P,J2,10,Pin_10*%
%TO.N,/TARGET_RST*%
X12670000Y-8040000D03*
%TO.P,J2,9,Pin_9*%
%TO.N,GND*%
X12670000Y-5500000D03*
%TO.P,J2,8,Pin_8*%
%TO.N,/TARGET_TDI*%
X15210000Y-8040000D03*
%TO.P,J2,7,Pin_7*%
%TO.N,unconnected-(J2-Pin_7-Pad7)*%
X15210000Y-5500000D03*
%TO.P,J2,6,Pin_6*%
%TO.N,/TARGET_TDO*%
X17750000Y-8040000D03*
%TO.P,J2,5,Pin_5*%
%TO.N,GND*%
X17750000Y-5500000D03*
%TO.P,J2,4,Pin_4*%
%TO.N,/TARGET_TCK*%
X20290000Y-8040000D03*
%TO.P,J2,3,Pin_3*%
%TO.N,GND*%
X20290000Y-5500000D03*
%TO.P,J2,2,Pin_2*%
%TO.N,/TARGET_TMS*%
X22830000Y-8040000D03*
D11*
%TO.P,J2,1,Pin_1*%
%TO.N,/TPWR*%
X22830000Y-5500000D03*
%TD*%
D12*
%TO.P,J1,4,Pin_4*%
%TO.N,+3.3V*%
X29500000Y-45870000D03*
%TO.P,J1,3,Pin_3*%
%TO.N,/RXD*%
X29500000Y-43330000D03*
%TO.P,J1,2,Pin_2*%
%TO.N,/TXD*%
X29500000Y-40790000D03*
D13*
%TO.P,J1,1,Pin_1*%
%TO.N,GND*%
X29500000Y-38250000D03*
%TD*%
D14*
%TO.P,R4,2*%
%TO.N,/VBUS*%
X15000000Y-46087500D03*
%TO.P,R4,1*%
%TO.N,GND*%
X15000000Y-47912500D03*
%TD*%
D15*
%TO.P,R1,2*%
%TO.N,Net-(CN1-D-)*%
X19500000Y-47912500D03*
%TO.P,R1,1*%
%TO.N,/USB_DM*%
X19500000Y-46087500D03*
%TD*%
D16*
%TO.P,C7,2*%
%TO.N,Net-(U1-PD0)*%
X24000000Y-21400000D03*
%TO.P,C7,1*%
%TO.N,GND*%
X24000000Y-23125000D03*
%TD*%
D15*
%TO.P,R11,2*%
%TO.N,Net-(D3-A)*%
X7966666Y-54450000D03*
%TO.P,R11,1*%
%TO.N,/LED1*%
X7966666Y-52625000D03*
%TD*%
D14*
%TO.P,D3,2,A*%
%TO.N,Net-(D3-A)*%
X7966666Y-56912500D03*
%TO.P,D3,1,K*%
%TO.N,GND*%
X7966666Y-58737500D03*
%TD*%
D17*
%TO.P,C1,2*%
%TO.N,+5V*%
X14462500Y-51750000D03*
%TO.P,C1,1*%
%TO.N,GND*%
X16537500Y-51750000D03*
%TD*%
D18*
%TO.P,SW1,2,2*%
%TO.N,/FORCE_BOOTLOADER*%
X9790000Y-45500000D03*
%TO.P,SW1,1,1*%
%TO.N,GND*%
X4710000Y-45500000D03*
%TD*%
D19*
%TO.P,R13,2*%
%TO.N,Net-(U1-BOOT0)*%
X23675000Y-35750000D03*
%TO.P,R13,1*%
%TO.N,GND*%
X25500000Y-35750000D03*
%TD*%
D20*
%TO.P,U1,48,VDD*%
%TO.N,+3.3V*%
X20412500Y-34000000D03*
%TO.P,U1,47,VSS*%
%TO.N,GND*%
X20412500Y-34500000D03*
%TO.P,U1,46,PB9*%
%TO.N,unconnected-(U1-PB9-Pad46)*%
X20412500Y-35000000D03*
%TO.P,U1,45,PB8*%
%TO.N,unconnected-(U1-PB8-Pad45)*%
X20412500Y-35500000D03*
%TO.P,U1,44,BOOT0*%
%TO.N,Net-(U1-BOOT0)*%
X20412500Y-36000000D03*
%TO.P,U1,43,PB7*%
%TO.N,unconnected-(U1-PB7-Pad43)*%
X20412500Y-36500000D03*
%TO.P,U1,42,PB6*%
%TO.N,unconnected-(U1-PB6-Pad42)*%
X20412500Y-37000000D03*
%TO.P,U1,41,PB5*%
%TO.N,+3.3V*%
X20412500Y-37500000D03*
%TO.P,U1,40,PB4*%
X20412500Y-38000000D03*
%TO.P,U1,39,PB3*%
%TO.N,unconnected-(U1-PB3-Pad39)*%
X20412500Y-38500000D03*
%TO.P,U1,38,PA15*%
%TO.N,unconnected-(U1-PA15-Pad38)*%
X20412500Y-39000000D03*
%TO.P,U1,37,PA14*%
%TO.N,/TXD*%
X20412500Y-39500000D03*
D21*
%TO.P,U1,36,VDD*%
%TO.N,+3.3V*%
X19000000Y-40912500D03*
%TO.P,U1,35,VSS*%
%TO.N,GND*%
X18500000Y-40912500D03*
%TO.P,U1,34,PA13*%
%TO.N,/RXD*%
X18000000Y-40912500D03*
%TO.P,U1,33,PA12*%
%TO.N,/USB_PM*%
X17500000Y-40912500D03*
%TO.P,U1,32,PA11*%
%TO.N,/USB_DM*%
X17000000Y-40912500D03*
%TO.P,U1,31,PA10*%
%TO.N,/RXD*%
X16500000Y-40912500D03*
%TO.P,U1,30,PA9*%
%TO.N,/TXD*%
X16000000Y-40912500D03*
%TO.P,U1,29,PA8*%
%TO.N,/USB_ENUMERATE*%
X15500000Y-40912500D03*
%TO.P,U1,28,PB15*%
%TO.N,unconnected-(U1-PB15-Pad28)*%
X15000000Y-40912500D03*
%TO.P,U1,27,PB14*%
%TO.N,unconnected-(U1-PB14-Pad27)*%
X14500000Y-40912500D03*
%TO.P,U1,26,PB13*%
%TO.N,/VBUS*%
X14000000Y-40912500D03*
%TO.P,U1,25,PB12*%
%TO.N,/FORCE_BOOTLOADER*%
X13500000Y-40912500D03*
D20*
%TO.P,U1,24,VDD*%
%TO.N,+3.3V*%
X12087500Y-39500000D03*
%TO.P,U1,23,VSS*%
%TO.N,GND*%
X12087500Y-39000000D03*
%TO.P,U1,22,PB11*%
%TO.N,/LED2*%
X12087500Y-38500000D03*
%TO.P,U1,21,PB10*%
%TO.N,/LED1*%
X12087500Y-38000000D03*
%TO.P,U1,20,PB2*%
%TO.N,/LED0*%
X12087500Y-37500000D03*
%TO.P,U1,19,PB1*%
%TO.N,/PWR_BR*%
X12087500Y-37000000D03*
%TO.P,U1,18,PB0*%
%TO.N,/TARGET_POWER_ADC*%
X12087500Y-36500000D03*
%TO.P,U1,17,PA7*%
%TO.N,unconnected-(U1-PA7-Pad17)*%
X12087500Y-36000000D03*
%TO.P,U1,16,PA6*%
%TO.N,/TDO*%
X12087500Y-35500000D03*
%TO.P,U1,15,PA5*%
%TO.N,/TCK*%
X12087500Y-35000000D03*
%TO.P,U1,14,PA4*%
%TO.N,/TMS*%
X12087500Y-34500000D03*
%TO.P,U1,13,PA3*%
%TO.N,/TDI*%
X12087500Y-34000000D03*
D21*
%TO.P,U1,12,PA2*%
%TO.N,/RST*%
X13500000Y-32587500D03*
%TO.P,U1,11,PA1*%
%TO.N,unconnected-(U1-PA1-Pad11)*%
X14000000Y-32587500D03*
%TO.P,U1,10,PA0*%
%TO.N,unconnected-(U1-PA0-Pad10)*%
X14500000Y-32587500D03*
%TO.P,U1,9,VDDA*%
%TO.N,+3.3V*%
X15000000Y-32587500D03*
%TO.P,U1,8,VSSA*%
%TO.N,GND*%
X15500000Y-32587500D03*
%TO.P,U1,7,NRST*%
%TO.N,unconnected-(U1-NRST-Pad7)*%
X16000000Y-32587500D03*
%TO.P,U1,6,PD1*%
%TO.N,Net-(U1-PD1)*%
X16500000Y-32587500D03*
%TO.P,U1,5,PD0*%
%TO.N,Net-(U1-PD0)*%
X17000000Y-32587500D03*
%TO.P,U1,4,PC15*%
%TO.N,unconnected-(U1-PC15-Pad4)*%
X17500000Y-32587500D03*
%TO.P,U1,3,PC14*%
%TO.N,unconnected-(U1-PC14-Pad3)*%
X18000000Y-32587500D03*
%TO.P,U1,2,PC13*%
%TO.N,unconnected-(U1-PC13-Pad2)*%
X18500000Y-32587500D03*
%TO.P,U1,1,VBAT*%
%TO.N,+3.3V*%
X19000000Y-32587500D03*
%TD*%
D19*
%TO.P,R8,2*%
%TO.N,/TARGET_POWER_ADC*%
X9337500Y-23250000D03*
%TO.P,R8,1*%
%TO.N,/TPWR*%
X11162500Y-23250000D03*
%TD*%
D22*
%TO.P,CN1,6,Shield*%
%TO.N,GND*%
X31275000Y-50550000D03*
X25825000Y-50550000D03*
X31275000Y-59450000D03*
X25825000Y-59450000D03*
D23*
%TO.P,CN1,5,GND*%
X25725000Y-53400000D03*
%TO.P,CN1,4,ID*%
X25725000Y-54200000D03*
%TO.P,CN1,3,D+*%
%TO.N,Net-(CN1-D+)*%
X25725000Y-55000000D03*
%TO.P,CN1,2,D-*%
%TO.N,Net-(CN1-D-)*%
X25725000Y-55800000D03*
%TO.P,CN1,1,VBUS*%
%TO.N,+5V*%
X25725000Y-56600000D03*
%TD*%
D24*
%TO.P,C6,2*%
%TO.N,/TARGET_POWER_ADC*%
X9387500Y-21375000D03*
%TO.P,C6,1*%
%TO.N,GND*%
X11112500Y-21375000D03*
%TD*%
D25*
%TO.P,U3,5,OUT*%
%TO.N,+3.3V*%
X17500000Y-57137500D03*
%TO.P,U3,4,NC*%
%TO.N,unconnected-(U3-NC-Pad4)*%
X15600000Y-57137500D03*
%TO.P,U3,3,EN*%
%TO.N,+5V*%
X15600000Y-54862500D03*
%TO.P,U3,2,GND*%
%TO.N,GND*%
X16550000Y-54862500D03*
%TO.P,U3,1,IN*%
%TO.N,+5V*%
X17500000Y-54862500D03*
%TD*%
D14*
%TO.P,D2,2,A*%
%TO.N,Net-(D2-A)*%
X9683334Y-56912500D03*
%TO.P,D2,1,K*%
%TO.N,GND*%
X9683334Y-58737500D03*
%TD*%
D15*
%TO.P,R12,2*%
%TO.N,Net-(D4-A)*%
X6250000Y-54450000D03*
%TO.P,R12,1*%
%TO.N,/LED0*%
X6250000Y-52625000D03*
%TD*%
D26*
%TO.P,Y1,2,2*%
%TO.N,Net-(U1-PD0)*%
X29250000Y-21375000D03*
%TO.P,Y1,1,1*%
%TO.N,Net-(U1-PD1)*%
X29250000Y-16475000D03*
%TD*%
D27*
%TO.P,U2,20,B1*%
%TO.N,GND*%
X19425000Y-21862500D03*
%TO.P,U2,19,VCCB*%
%TO.N,+3.3V*%
X18775000Y-21862500D03*
%TO.P,U2,18,B2*%
%TO.N,GND*%
X18125000Y-21862500D03*
%TO.P,U2,17,B3*%
%TO.N,/TMS*%
X17475000Y-21862500D03*
%TO.P,U2,16,B4*%
%TO.N,/TCK*%
X16825000Y-21862500D03*
%TO.P,U2,15,B5*%
%TO.N,/TDO*%
X16175000Y-21862500D03*
%TO.P,U2,14,B6*%
%TO.N,/TDI*%
X15525000Y-21862500D03*
%TO.P,U2,13,B7*%
%TO.N,/RST*%
X14875000Y-21862500D03*
%TO.P,U2,12,B8*%
%TO.N,GND*%
X14225000Y-21862500D03*
%TO.P,U2,11,GND*%
X13575000Y-21862500D03*
%TO.P,U2,10,OE*%
%TO.N,/TPWR*%
X13575000Y-16137500D03*
%TO.P,U2,9,A8*%
%TO.N,unconnected-(U2-A8-Pad9)*%
X14225000Y-16137500D03*
%TO.P,U2,8,A7*%
%TO.N,/TARGET_RST*%
X14875000Y-16137500D03*
%TO.P,U2,7,A6*%
%TO.N,/TARGET_TDI*%
X15525000Y-16137500D03*
%TO.P,U2,6,A5*%
%TO.N,/TARGET_TDO*%
X16175000Y-16137500D03*
%TO.P,U2,5,A4*%
%TO.N,/TARGET_TCK*%
X16825000Y-16137500D03*
%TO.P,U2,4,A3*%
%TO.N,/TARGET_TMS*%
X17475000Y-16137500D03*
%TO.P,U2,3,A2*%
%TO.N,unconnected-(U2-A2-Pad3)*%
X18125000Y-16137500D03*
%TO.P,U2,2,VCCA*%
%TO.N,/TPWR*%
X18775000Y-16137500D03*
%TO.P,U2,1,A1*%
%TO.N,unconnected-(U2-A1-Pad1)*%
X19425000Y-16137500D03*
%TD*%
D24*
%TO.P,C5,2*%
%TO.N,+3.3V*%
X22500000Y-41000000D03*
%TO.P,C5,1*%
%TO.N,GND*%
X24225000Y-41000000D03*
%TD*%
D19*
%TO.P,R6,2*%
%TO.N,/TARGET_POWER_ADC*%
X9337500Y-19500000D03*
%TO.P,R6,1*%
%TO.N,GND*%
X11162500Y-19500000D03*
%TD*%
D18*
%TO.P,SW2,2,2*%
%TO.N,+3.3V*%
X31790000Y-30500000D03*
%TO.P,SW2,1,1*%
%TO.N,Net-(U1-BOOT0)*%
X26710000Y-30500000D03*
%TD*%
D28*
%TO.P,C3,2*%
%TO.N,+3.3V*%
X22500000Y-34000000D03*
%TO.P,C3,1*%
%TO.N,GND*%
X22500000Y-32275000D03*
%TD*%
%TO.P,C8,2*%
%TO.N,Net-(U1-PD1)*%
X24000000Y-16475000D03*
%TO.P,C8,1*%
%TO.N,GND*%
X24000000Y-14750000D03*
%TD*%
D15*
%TO.P,R5,2*%
%TO.N,+3.3V*%
X11500000Y-49662500D03*
%TO.P,R5,1*%
%TO.N,/FORCE_BOOTLOADER*%
X11500000Y-47837500D03*
%TD*%
%TO.P,R2,2*%
%TO.N,Net-(CN1-D+)*%
X21250000Y-47912500D03*
%TO.P,R2,1*%
%TO.N,/USB_PM*%
X21250000Y-46087500D03*
%TD*%
D14*
%TO.P,D1,2,A*%
%TO.N,Net-(D1-A)*%
X11433334Y-56937500D03*
%TO.P,D1,1,K*%
%TO.N,GND*%
X11433334Y-58762500D03*
%TD*%
D29*
%TO.P,Q1,3,D*%
%TO.N,/TPWR*%
X8887500Y-13250000D03*
%TO.P,Q1,2,S*%
%TO.N,+3.3V*%
X9837500Y-15125000D03*
%TO.P,Q1,1,G*%
%TO.N,/PWR_BR*%
X7937500Y-15125000D03*
%TD*%
D15*
%TO.P,R7,2*%
%TO.N,+5V*%
X13250000Y-47912500D03*
%TO.P,R7,1*%
%TO.N,/VBUS*%
X13250000Y-46087500D03*
%TD*%
D14*
%TO.P,D4,2,A*%
%TO.N,Net-(D4-A)*%
X6250000Y-56912500D03*
%TO.P,D4,1,K*%
%TO.N,GND*%
X6250000Y-58737500D03*
%TD*%
D15*
%TO.P,R9,2*%
%TO.N,Net-(D1-A)*%
X11433334Y-54475000D03*
%TO.P,R9,1*%
%TO.N,+3.3V*%
X11433334Y-52650000D03*
%TD*%
%TO.P,R3,2*%
%TO.N,Net-(CN1-D+)*%
X16750000Y-47912500D03*
%TO.P,R3,1*%
%TO.N,/USB_ENUMERATE*%
X16750000Y-46087500D03*
%TD*%
D16*
%TO.P,C4,1*%
%TO.N,GND*%
X11750000Y-43362500D03*
%TO.P,C4,2*%
%TO.N,+3.3V*%
X11750000Y-41637500D03*
%TD*%
D15*
%TO.P,R10,2*%
%TO.N,Net-(D2-A)*%
X9683334Y-54450000D03*
%TO.P,R10,1*%
%TO.N,/LED2*%
X9683334Y-52625000D03*
%TD*%
D17*
%TO.P,C2,2*%
%TO.N,+3.3V*%
X19212500Y-59250000D03*
%TO.P,C2,1*%
%TO.N,GND*%
X21287500Y-59250000D03*
%TD*%
D30*
%TO.N,Net-(U1-PD0)*%
X25600000Y-21400000D03*
%TO.N,Net-(U1-PD1)*%
X25600000Y-16500000D03*
%TO.N,GND*%
X11000000Y-12750000D03*
%TO.N,/TPWR*%
X21250000Y-12750000D03*
%TO.N,/TARGET_TMS*%
X19500000Y-12750000D03*
%TO.N,/TARGET_TCK*%
X17812500Y-12750000D03*
%TO.N,/TARGET_TDI*%
X14437500Y-12750000D03*
%TO.N,/TARGET_TDO*%
X16125000Y-12750000D03*
%TO.N,/TARGET_RST*%
X12750000Y-12750000D03*
D31*
%TO.N,GND*%
X18250000Y-52250000D03*
D30*
X10000000Y-42000000D03*
X8500000Y-17750000D03*
D31*
X26750000Y-38000000D03*
D30*
X15000000Y-49750000D03*
D31*
X26750000Y-42750000D03*
%TO.N,+3.3V*%
X15000000Y-29000000D03*
X17500000Y-59250000D03*
X20750000Y-42750000D03*
X24500000Y-37750000D03*
X24500000Y-29000000D03*
D30*
X11667315Y-15127302D03*
%TO.N,Net-(CN1-D+)*%
X23066926Y-47911739D03*
X18250000Y-50250000D03*
%TO.N,/RST*%
X13500000Y-30250000D03*
X11250000Y-25750000D03*
%TO.N,/TDI*%
X11250000Y-32250000D03*
X9250000Y-27500000D03*
%TD*%
D32*
%TO.N,+3.3V*%
X11750000Y-40500000D02*
X11750000Y-41637500D01*
X10162500Y-49662500D02*
X11500000Y-49662500D01*
X11750000Y-40500000D02*
X9637500Y-40500000D01*
X12071546Y-39655843D02*
X12071546Y-40178454D01*
X8367121Y-47867121D02*
X10162500Y-49662500D01*
X12071546Y-40178454D02*
X11750000Y-40500000D01*
X9637500Y-40500000D02*
X8943750Y-41193750D01*
X8943750Y-41193750D02*
X8367121Y-41770379D01*
X8367121Y-41770379D02*
X8367121Y-47867121D01*
D33*
%TO.N,Net-(U1-PD1)*%
X22275000Y-16475000D02*
X25575000Y-16475000D01*
%TO.N,Net-(U1-PD0)*%
X22600000Y-21400000D02*
X25600000Y-21400000D01*
%TO.N,GND*%
X11112500Y-19550000D02*
X11162500Y-19500000D01*
D32*
X11112500Y-21375000D02*
X11112500Y-19550000D01*
D34*
%TO.N,/TPWR*%
X8887500Y-11612500D02*
X8887500Y-13250000D01*
X9750000Y-10750000D02*
X8887500Y-11612500D01*
X21250000Y-11750000D02*
X20250000Y-10750000D01*
X20250000Y-10750000D02*
X9750000Y-10750000D01*
X21250000Y-12750000D02*
X21250000Y-11750000D01*
X18775000Y-14975000D02*
X18775000Y-16137500D01*
X19250000Y-14500000D02*
X18775000Y-14975000D01*
X20500000Y-14500000D02*
X19250000Y-14500000D01*
X21250000Y-13750000D02*
X20500000Y-14500000D01*
X21250000Y-12750000D02*
X21250000Y-13750000D01*
X8887500Y-15887500D02*
X8887500Y-13250000D01*
X10750000Y-17750000D02*
X8887500Y-15887500D01*
X13575000Y-17750000D02*
X10750000Y-17750000D01*
X11750000Y-23250000D02*
X11162500Y-23250000D01*
X12500000Y-19750000D02*
X12500000Y-22500000D01*
X12500000Y-22500000D02*
X11750000Y-23250000D01*
X13575000Y-18675000D02*
X12500000Y-19750000D01*
X13575000Y-16137500D02*
X13575000Y-18675000D01*
%TO.N,/TARGET_POWER_ADC*%
X9387500Y-24940749D02*
X9387500Y-19550000D01*
X9750000Y-36500000D02*
X8275000Y-35025000D01*
X8275000Y-35025000D02*
X8275000Y-26053249D01*
X9387500Y-19550000D02*
X9337500Y-19500000D01*
X12087500Y-36500000D02*
X9750000Y-36500000D01*
X8275000Y-26053249D02*
X9387500Y-24940749D01*
D33*
%TO.N,/TARGET_TDI*%
X15525000Y-13837500D02*
X15525000Y-16137500D01*
X14437500Y-12750000D02*
X15525000Y-13837500D01*
%TO.N,/TARGET_TMS*%
X17475000Y-14775000D02*
X17475000Y-16137500D01*
X19500000Y-12750000D02*
X17475000Y-14775000D01*
%TO.N,/TARGET_TCK*%
X16825000Y-13737500D02*
X16825000Y-16137500D01*
X17812500Y-12750000D02*
X16825000Y-13737500D01*
%TO.N,/TARGET_TDO*%
X16175000Y-12800000D02*
X16175000Y-16137500D01*
X16125000Y-12750000D02*
X16175000Y-12800000D01*
%TO.N,/TARGET_RST*%
X14875000Y-14875000D02*
X14875000Y-16137500D01*
X12750000Y-12750000D02*
X14875000Y-14875000D01*
D32*
%TO.N,GND*%
X15000000Y-47912500D02*
X15000000Y-49500000D01*
X16550000Y-54862500D02*
X16550000Y-51550000D01*
D33*
X15500000Y-32587500D02*
X15500000Y-34000000D01*
X15500000Y-32587500D02*
X15500000Y-31500000D01*
X12087500Y-39000000D02*
X13750000Y-39000000D01*
X24225000Y-41000000D02*
X25500000Y-41000000D01*
X18500000Y-40912500D02*
X18500000Y-42750000D01*
X20412500Y-34500000D02*
X19000000Y-34500000D01*
D32*
X14750000Y-49500000D02*
X15000000Y-49750000D01*
X16550000Y-51550000D02*
X16500000Y-51500000D01*
D34*
%TO.N,+5V*%
X16012500Y-55875000D02*
X16987500Y-55875000D01*
D32*
X15112500Y-54862500D02*
X14425000Y-54175000D01*
X13500000Y-51750000D02*
X13250000Y-51500000D01*
X25725000Y-56600000D02*
X20100000Y-56600000D01*
X18362500Y-54862500D02*
X17500000Y-54862500D01*
X15600000Y-54862500D02*
X15112500Y-54862500D01*
X14462500Y-51750000D02*
X13500000Y-51750000D01*
X14425000Y-51787500D02*
X14462500Y-51750000D01*
D34*
X15600000Y-55462500D02*
X16012500Y-55875000D01*
X16987500Y-55875000D02*
X17500000Y-55362500D01*
D32*
X13250000Y-51500000D02*
X13250000Y-47912500D01*
X20100000Y-56600000D02*
X18362500Y-54862500D01*
X14425000Y-54175000D02*
X14425000Y-51787500D01*
%TO.N,+3.3V*%
X10875000Y-15125000D02*
X9837500Y-15125000D01*
X20750000Y-42750000D02*
X21750000Y-42750000D01*
X11667315Y-15127302D02*
X10877302Y-15127302D01*
D33*
X19000000Y-40912500D02*
X22412500Y-40912500D01*
X22500000Y-34000000D02*
X20412500Y-34000000D01*
D32*
X23250000Y-34000000D02*
X22500000Y-34000000D01*
X11500000Y-52583334D02*
X11433334Y-52650000D01*
X31790000Y-43580000D02*
X31790000Y-30500000D01*
D33*
X19500000Y-34000000D02*
X20412500Y-34000000D01*
D32*
X12650000Y-52650000D02*
X11433334Y-52650000D01*
X13500000Y-53500000D02*
X12650000Y-52650000D01*
D33*
X19000000Y-33500000D02*
X19500000Y-34000000D01*
D32*
X24500000Y-29000000D02*
X24500000Y-32750000D01*
X17500000Y-59250000D02*
X15500000Y-59250000D01*
X22500000Y-42000000D02*
X22500000Y-41000000D01*
X24500000Y-37750000D02*
X20500000Y-37750000D01*
X17500000Y-57137500D02*
X17500000Y-59250000D01*
D33*
X19000000Y-32587500D02*
X19000000Y-33500000D01*
D32*
X24500000Y-32750000D02*
X23250000Y-34000000D01*
X15500000Y-59250000D02*
X13500000Y-57250000D01*
X10877302Y-15127302D02*
X10875000Y-15125000D01*
D33*
X22412500Y-40912500D02*
X22500000Y-41000000D01*
D32*
X13500000Y-57250000D02*
X13500000Y-53500000D01*
D34*
X15000000Y-29000000D02*
X15000000Y-28000000D01*
D32*
X11500000Y-49662500D02*
X11500000Y-52583334D01*
X19212500Y-59250000D02*
X17500000Y-59250000D01*
D34*
X15000000Y-28000000D02*
X18775000Y-24225000D01*
X15000000Y-29000000D02*
X15000000Y-32587500D01*
D32*
X21750000Y-42750000D02*
X22500000Y-42000000D01*
D34*
X18775000Y-24225000D02*
X18775000Y-21862500D01*
D32*
X29500000Y-45870000D02*
X31790000Y-43580000D01*
D33*
%TO.N,Net-(U1-PD0)*%
X22000000Y-24000000D02*
X22000000Y-22000000D01*
X17000000Y-29000000D02*
X22000000Y-24000000D01*
X17000000Y-32587500D02*
X17000000Y-29000000D01*
X22000000Y-22000000D02*
X22600000Y-21400000D01*
%TO.N,Net-(U1-PD1)*%
X21000000Y-17750000D02*
X22275000Y-16475000D01*
X21000000Y-23500000D02*
X21000000Y-17750000D01*
X16500000Y-32587500D02*
X16500000Y-28000000D01*
X16500000Y-28000000D02*
X21000000Y-23500000D01*
%TO.N,Net-(CN1-D-)*%
X19500000Y-54325000D02*
X19500000Y-47912500D01*
X25725000Y-55800000D02*
X20975000Y-55800000D01*
X20975000Y-55800000D02*
X19500000Y-54325000D01*
%TO.N,Net-(CN1-D+)*%
X21250000Y-47912500D02*
X21250000Y-54000000D01*
X16750000Y-49000000D02*
X16750000Y-47912500D01*
X23066926Y-47911739D02*
X22413261Y-47911739D01*
X22412500Y-47912500D02*
X21250000Y-47912500D01*
X21250000Y-54000000D02*
X22250000Y-55000000D01*
X22413261Y-47911739D02*
X22412500Y-47912500D01*
X18250000Y-50250000D02*
X18000000Y-50250000D01*
X18000000Y-50250000D02*
X16750000Y-49000000D01*
X22250000Y-55000000D02*
X25725000Y-55000000D01*
%TO.N,Net-(D1-A)*%
X11433334Y-54475000D02*
X11433334Y-56937500D01*
%TO.N,Net-(D2-A)*%
X9683334Y-54450000D02*
X9683334Y-56912500D01*
%TO.N,Net-(D3-A)*%
X7966666Y-54450000D02*
X7966666Y-56912500D01*
%TO.N,Net-(D4-A)*%
X6250000Y-54450000D02*
X6250000Y-56912500D01*
%TO.N,/TXD*%
X20412500Y-39500000D02*
X25500000Y-39500000D01*
X16000000Y-39750000D02*
X16000000Y-40912500D01*
X20412500Y-39500000D02*
X18250000Y-39500000D01*
X25500000Y-39500000D02*
X26790000Y-40790000D01*
X18250000Y-39500000D02*
X17750000Y-39000000D01*
X17750000Y-39000000D02*
X16750000Y-39000000D01*
X26790000Y-40790000D02*
X29500000Y-40790000D01*
X16750000Y-39000000D02*
X16000000Y-39750000D01*
%TO.N,/RXD*%
X17500000Y-39500000D02*
X17000000Y-39500000D01*
X28330000Y-44500000D02*
X29500000Y-43330000D01*
X18000000Y-40912500D02*
X18000000Y-43558148D01*
X18000000Y-40000000D02*
X17500000Y-39500000D01*
X18941852Y-44500000D02*
X28330000Y-44500000D01*
X17000000Y-39500000D02*
X16500000Y-40000000D01*
X18000000Y-43558148D02*
X18941852Y-44500000D01*
X18000000Y-40912500D02*
X18000000Y-40000000D01*
X16500000Y-40000000D02*
X16500000Y-40912500D01*
%TO.N,/PWR_BR*%
X7000000Y-35250000D02*
X7000000Y-16062500D01*
X8750000Y-37000000D02*
X7000000Y-35250000D01*
X7000000Y-16062500D02*
X7937500Y-15125000D01*
X12087500Y-37000000D02*
X8750000Y-37000000D01*
%TO.N,/USB_DM*%
X17000000Y-44500000D02*
X17000000Y-40912500D01*
X18587500Y-46087500D02*
X17000000Y-44500000D01*
X19500000Y-46087500D02*
X18587500Y-46087500D01*
%TO.N,/USB_PM*%
X17500000Y-44000000D02*
X17500000Y-40912500D01*
X18700000Y-45200000D02*
X17500000Y-44000000D01*
X20362500Y-45200000D02*
X18700000Y-45200000D01*
X21250000Y-46087500D02*
X20362500Y-45200000D01*
%TO.N,/USB_ENUMERATE*%
X16000000Y-45337500D02*
X16000000Y-43875000D01*
X16000000Y-43875000D02*
X15500000Y-43375000D01*
X15500000Y-43375000D02*
X15500000Y-40912500D01*
X16750000Y-46087500D02*
X16000000Y-45337500D01*
D34*
%TO.N,/VBUS*%
X14000000Y-44585876D02*
X13250000Y-45335876D01*
X15000000Y-46087500D02*
X13250000Y-46087500D01*
X13250000Y-45335876D02*
X13250000Y-46087500D01*
X14000000Y-40912500D02*
X14000000Y-44585876D01*
D33*
%TO.N,/FORCE_BOOTLOADER*%
X11750000Y-45500000D02*
X13500000Y-43750000D01*
X9790000Y-45500000D02*
X11750000Y-45500000D01*
X11500000Y-47837500D02*
X11500000Y-45500000D01*
X13500000Y-43750000D02*
X13500000Y-40912500D01*
%TO.N,/LED2*%
X12087500Y-38500000D02*
X9667005Y-38500000D01*
X9683334Y-50683334D02*
X9683334Y-52625000D01*
X9667005Y-38500000D02*
X7631019Y-40535986D01*
X7631019Y-48631019D02*
X9683334Y-50683334D01*
X7631019Y-40535986D02*
X7631019Y-48631019D01*
%TO.N,/LED1*%
X7000000Y-40250000D02*
X7000000Y-51658334D01*
X7000000Y-51658334D02*
X7966666Y-52625000D01*
X12087500Y-38000000D02*
X9250000Y-38000000D01*
X9250000Y-38000000D02*
X7000000Y-40250000D01*
%TO.N,/LED0*%
X6250000Y-40000000D02*
X6250000Y-52625000D01*
X8750000Y-37500000D02*
X6250000Y-40000000D01*
X12087500Y-37500000D02*
X8750000Y-37500000D01*
%TO.N,Net-(U1-BOOT0)*%
X23675000Y-34825000D02*
X23675000Y-35750000D01*
X26710000Y-31790000D02*
X23675000Y-34825000D01*
X22250000Y-36000000D02*
X20412500Y-36000000D01*
X26710000Y-30500000D02*
X26710000Y-31790000D01*
X22500000Y-35750000D02*
X22250000Y-36000000D01*
X22500000Y-35750000D02*
X23675000Y-35750000D01*
%TO.N,/RST*%
X12000000Y-25750000D02*
X11250000Y-25750000D01*
X13500000Y-32587500D02*
X13500000Y-30250000D01*
X14875000Y-21862500D02*
X14875000Y-22875000D01*
X14875000Y-22875000D02*
X12000000Y-25750000D01*
%TO.N,/TDI*%
X10750000Y-32750000D02*
X11250000Y-32250000D01*
X15525000Y-21862500D02*
X15525000Y-23323442D01*
X11000000Y-34000000D02*
X10750000Y-33750000D01*
X15525000Y-23323442D02*
X11348442Y-27500000D01*
X11348442Y-27500000D02*
X9250000Y-27500000D01*
X10750000Y-33750000D02*
X10750000Y-32750000D01*
X12087500Y-34000000D02*
X11000000Y-34000000D01*
%TO.N,/TMS*%
X10500000Y-34500000D02*
X12087500Y-34500000D01*
X17475000Y-24275000D02*
X10000000Y-31750000D01*
X10000000Y-34000000D02*
X10500000Y-34500000D01*
X17475000Y-21862500D02*
X17475000Y-24275000D01*
X10000000Y-31750000D02*
X10000000Y-34000000D01*
%TO.N,/TCK*%
X12087500Y-35000000D02*
X10363604Y-35000000D01*
X9372698Y-34009094D02*
X9372698Y-31377302D01*
X9372698Y-31377302D02*
X16825000Y-23925000D01*
X16825000Y-23925000D02*
X16825000Y-21862500D01*
X10363604Y-35000000D02*
X9372698Y-34009094D01*
%TO.N,/TDO*%
X16175000Y-21862500D02*
X16175000Y-23551041D01*
X8750000Y-30976041D02*
X8750000Y-34261396D01*
X9988604Y-35500000D02*
X12087500Y-35500000D01*
X16175000Y-23551041D02*
X8750000Y-30976041D01*
X8750000Y-34261396D02*
X9988604Y-35500000D01*
%TD*%
%TA.AperFunction,Conductor*%
%TO.N,GND*%
G36*
X15200500Y-47675763D02*
G01*
X15236737Y-47712000D01*
X15250000Y-47761500D01*
X15250000Y-48899998D01*
X15250001Y-48899999D01*
X15286651Y-48899999D01*
X15387648Y-48889682D01*
X15551300Y-48835453D01*
X15698037Y-48744944D01*
X15819944Y-48623037D01*
X15910453Y-48476299D01*
X15920590Y-48445710D01*
X15950329Y-48401518D01*
X15998663Y-48379134D01*
X16051602Y-48385038D01*
X16093818Y-48417520D01*
X16163884Y-48511116D01*
X16209829Y-48545510D01*
X16276221Y-48595212D01*
X16310097Y-48607847D01*
X16356821Y-48644143D01*
X16374500Y-48700605D01*
X16374500Y-48950789D01*
X16372393Y-48971105D01*
X16369633Y-48984267D01*
X16373740Y-49017217D01*
X16374500Y-49029462D01*
X16374500Y-49031118D01*
X16378003Y-49052115D01*
X16378593Y-49056159D01*
X16385756Y-49113622D01*
X16387536Y-49119178D01*
X16415088Y-49170091D01*
X16416958Y-49173724D01*
X16426289Y-49192811D01*
X16442390Y-49225743D01*
X16445867Y-49230406D01*
X16449579Y-49233824D01*
X16449581Y-49233826D01*
X16488473Y-49269628D01*
X16491399Y-49272436D01*
X17368477Y-50149514D01*
X17391794Y-50186470D01*
X17396931Y-50229864D01*
X17394815Y-50250000D01*
X17400070Y-50299999D01*
X17413503Y-50427804D01*
X17451363Y-50544325D01*
X17451924Y-50603724D01*
X17418385Y-50652752D01*
X17362821Y-50673758D01*
X17305236Y-50659178D01*
X17194121Y-50590642D01*
X17027694Y-50535493D01*
X16924982Y-50525000D01*
X16787501Y-50525000D01*
X16787500Y-50525001D01*
X16787500Y-51499999D01*
X16787501Y-51500000D01*
X17624998Y-51500000D01*
X17624999Y-51499999D01*
X17624999Y-51225027D01*
X17614505Y-51122303D01*
X17587903Y-51042023D01*
X17584546Y-50992785D01*
X17605377Y-50948044D01*
X17645220Y-50918919D01*
X17694172Y-50912648D01*
X17740069Y-50930790D01*
X17822406Y-50990612D01*
X17916869Y-51032669D01*
X17985733Y-51063329D01*
X18160609Y-51100500D01*
X18339389Y-51100500D01*
X18339391Y-51100500D01*
X18514267Y-51063329D01*
X18677593Y-50990612D01*
X18822230Y-50885526D01*
X18941859Y-50752665D01*
X18941858Y-50752665D01*
X18948822Y-50744932D01*
X18950034Y-50746023D01*
X18976003Y-50720057D01*
X19025502Y-50706795D01*
X19075001Y-50720059D01*
X19111237Y-50756296D01*
X19124500Y-50805795D01*
X19124500Y-54275789D01*
X19122393Y-54296105D01*
X19119633Y-54309267D01*
X19123740Y-54342217D01*
X19124500Y-54354462D01*
X19124500Y-54356118D01*
X19128003Y-54377115D01*
X19128593Y-54381159D01*
X19135756Y-54438622D01*
X19137536Y-54444178D01*
X19165088Y-54495091D01*
X19166958Y-54498724D01*
X19186004Y-54537682D01*
X19192390Y-54550743D01*
X19195867Y-54555406D01*
X19199579Y-54558824D01*
X19199581Y-54558826D01*
X19238473Y-54594628D01*
X19241399Y-54597436D01*
X20574458Y-55930496D01*
X20601552Y-55981186D01*
X20595918Y-56038386D01*
X20559455Y-56082815D01*
X20504454Y-56099500D01*
X20348322Y-56099500D01*
X20310436Y-56091964D01*
X20278318Y-56070504D01*
X18761980Y-54554166D01*
X18748698Y-54537682D01*
X18744642Y-54531371D01*
X18706448Y-54498276D01*
X18701277Y-54493462D01*
X18691096Y-54483282D01*
X18691095Y-54483281D01*
X18691093Y-54483279D01*
X18679562Y-54474647D01*
X18674075Y-54470225D01*
X18635873Y-54437123D01*
X18635872Y-54437122D01*
X18629044Y-54434004D01*
X18610845Y-54423206D01*
X18604830Y-54418703D01*
X18557470Y-54401039D01*
X18550942Y-54398335D01*
X18504957Y-54377335D01*
X18497517Y-54376265D01*
X18477018Y-54371032D01*
X18469986Y-54368409D01*
X18419561Y-54364802D01*
X18412541Y-54364047D01*
X18398299Y-54362000D01*
X18383918Y-54362000D01*
X18376856Y-54361748D01*
X18348740Y-54359737D01*
X18326427Y-54358141D01*
X18326426Y-54358141D01*
X18319091Y-54359737D01*
X18298046Y-54362000D01*
X18141946Y-54362000D01*
X18097000Y-54351209D01*
X18061852Y-54321190D01*
X18044165Y-54278485D01*
X18035646Y-54224696D01*
X17978051Y-54111660D01*
X17978050Y-54111658D01*
X17888342Y-54021950D01*
X17775304Y-53964354D01*
X17775303Y-53964353D01*
X17775302Y-53964353D01*
X17681519Y-53949500D01*
X17318480Y-53949500D01*
X17282198Y-53955247D01*
X17236119Y-53951620D01*
X17196708Y-53927470D01*
X17101552Y-53832314D01*
X16960199Y-53748718D01*
X16802492Y-53702900D01*
X16800000Y-53702704D01*
X16800000Y-55013500D01*
X16786737Y-55063000D01*
X16750500Y-55099237D01*
X16701000Y-55112500D01*
X16399000Y-55112500D01*
X16349500Y-55099237D01*
X16313263Y-55063000D01*
X16300000Y-55013500D01*
X16300000Y-53702704D01*
X16297507Y-53702900D01*
X16139800Y-53748718D01*
X15998444Y-53832316D01*
X15903291Y-53927469D01*
X15863881Y-53951620D01*
X15817802Y-53955246D01*
X15781521Y-53949500D01*
X15418478Y-53949500D01*
X15324696Y-53964352D01*
X15211657Y-54021949D01*
X15165714Y-54067893D01*
X15121334Y-54093516D01*
X15070088Y-54093516D01*
X15025707Y-54067893D01*
X14954496Y-53996682D01*
X14933036Y-53964564D01*
X14925500Y-53926678D01*
X14925500Y-52781108D01*
X14943180Y-52724645D01*
X14989901Y-52688350D01*
X15042331Y-52668796D01*
X15157546Y-52582546D01*
X15243796Y-52467331D01*
X15275999Y-52380988D01*
X15313048Y-52333749D01*
X15370588Y-52316605D01*
X15427453Y-52335866D01*
X15462731Y-52384448D01*
X15515642Y-52544121D01*
X15607681Y-52693341D01*
X15731658Y-52817318D01*
X15880878Y-52909357D01*
X16047305Y-52964506D01*
X16150018Y-52975000D01*
X16287499Y-52975000D01*
X16287500Y-52974999D01*
X16287500Y-52974998D01*
X16787500Y-52974998D01*
X16787501Y-52974999D01*
X16924973Y-52974999D01*
X17027696Y-52964505D01*
X17194122Y-52909357D01*
X17343341Y-52817318D01*
X17467318Y-52693341D01*
X17559357Y-52544121D01*
X17614506Y-52377694D01*
X17625000Y-52274982D01*
X17625000Y-52000001D01*
X17624999Y-52000000D01*
X16787501Y-52000000D01*
X16787500Y-52000001D01*
X16787500Y-52974998D01*
X16287500Y-52974998D01*
X16287500Y-50525002D01*
X16287499Y-50525001D01*
X16150027Y-50525001D01*
X16047303Y-50535494D01*
X15880877Y-50590642D01*
X15731658Y-50682681D01*
X15607681Y-50806658D01*
X15515642Y-50955877D01*
X15462731Y-51115552D01*
X15427453Y-51164133D01*
X15370588Y-51183394D01*
X15313048Y-51166250D01*
X15275998Y-51119007D01*
X15243796Y-51032669D01*
X15243795Y-51032668D01*
X15157546Y-50917454D01*
X15042331Y-50831204D01*
X15042330Y-50831203D01*
X14915234Y-50783800D01*
X14907483Y-50780909D01*
X14847873Y-50774500D01*
X14847869Y-50774500D01*
X14077128Y-50774500D01*
X14017515Y-50780909D01*
X13884096Y-50830671D01*
X13837162Y-50836141D01*
X13793038Y-50819233D01*
X13761777Y-50783800D01*
X13750500Y-50737913D01*
X13750500Y-48624763D01*
X13760972Y-48580449D01*
X13790171Y-48545510D01*
X13836116Y-48511116D01*
X13906182Y-48417518D01*
X13948396Y-48385038D01*
X14001334Y-48379134D01*
X14049669Y-48401517D01*
X14079409Y-48445708D01*
X14089546Y-48476301D01*
X14180055Y-48623037D01*
X14301962Y-48744944D01*
X14448699Y-48835453D01*
X14612350Y-48889681D01*
X14713350Y-48900000D01*
X14749999Y-48900000D01*
X14750000Y-48899999D01*
X14750000Y-47761500D01*
X14763263Y-47712000D01*
X14799500Y-47675763D01*
X14849000Y-47662500D01*
X15151000Y-47662500D01*
X15200500Y-47675763D01*
G37*
%TD.AperFunction*%
%TA.AperFunction,Conductor*%
G36*
X12819617Y-45033977D02*
G01*
X12864165Y-45061276D01*
X12888613Y-45107450D01*
X12886152Y-45159638D01*
X12881250Y-45174725D01*
X12875305Y-45189076D01*
X12864352Y-45210571D01*
X12860577Y-45234404D01*
X12856953Y-45249500D01*
X12849500Y-45272441D01*
X12849500Y-45308720D01*
X12831820Y-45365183D01*
X12785096Y-45401478D01*
X12778163Y-45404063D01*
X12776219Y-45404789D01*
X12663884Y-45488884D01*
X12579787Y-45601221D01*
X12530748Y-45732700D01*
X12524500Y-45790828D01*
X12524500Y-46384172D01*
X12530748Y-46442299D01*
X12579787Y-46573778D01*
X12627880Y-46638022D01*
X12663884Y-46686116D01*
X12728128Y-46734208D01*
X12776221Y-46770212D01*
X12907700Y-46819251D01*
X12927076Y-46821334D01*
X12965826Y-46825500D01*
X13534172Y-46825500D01*
X13534174Y-46825500D01*
X13592299Y-46819251D01*
X13723778Y-46770212D01*
X13836116Y-46686116D01*
X13920212Y-46573778D01*
X13928184Y-46552403D01*
X13964479Y-46505680D01*
X14020942Y-46488000D01*
X14229058Y-46488000D01*
X14285521Y-46505680D01*
X14321815Y-46552403D01*
X14325311Y-46561775D01*
X14329788Y-46573780D01*
X14385852Y-46648670D01*
X14413884Y-46686116D01*
X14501870Y-46751982D01*
X14526222Y-46770212D01*
X14537661Y-46774479D01*
X14584904Y-46811529D01*
X14602048Y-46869068D01*
X14582787Y-46925934D01*
X14534206Y-46961212D01*
X14448698Y-46989546D01*
X14301962Y-47080055D01*
X14180055Y-47201962D01*
X14089545Y-47348701D01*
X14079408Y-47379292D01*
X14049669Y-47423482D01*
X14001334Y-47445865D01*
X13948397Y-47439961D01*
X13906181Y-47407479D01*
X13885080Y-47379292D01*
X13836116Y-47313884D01*
X13785793Y-47276212D01*
X13723778Y-47229787D01*
X13592299Y-47180748D01*
X13544458Y-47175605D01*
X13534174Y-47174500D01*
X12965826Y-47174500D01*
X12956377Y-47175515D01*
X12907700Y-47180748D01*
X12776221Y-47229787D01*
X12663884Y-47313884D01*
X12579787Y-47426221D01*
X12530748Y-47557700D01*
X12524500Y-47615828D01*
X12524500Y-48209172D01*
X12530748Y-48267299D01*
X12579787Y-48398778D01*
X12614921Y-48445710D01*
X12663884Y-48511116D01*
X12709829Y-48545510D01*
X12739028Y-48580449D01*
X12749500Y-48624763D01*
X12749500Y-51435546D01*
X12747237Y-51456591D01*
X12745641Y-51463926D01*
X12749248Y-51514356D01*
X12749500Y-51521418D01*
X12749500Y-51535799D01*
X12751547Y-51550041D01*
X12752302Y-51557061D01*
X12755909Y-51607486D01*
X12758532Y-51614518D01*
X12763765Y-51635017D01*
X12764835Y-51642457D01*
X12785835Y-51688442D01*
X12788539Y-51694970D01*
X12806203Y-51742330D01*
X12810706Y-51748345D01*
X12821504Y-51766544D01*
X12824622Y-51773372D01*
X12824623Y-51773373D01*
X12857725Y-51811575D01*
X12862147Y-51817062D01*
X12870779Y-51828593D01*
X12870781Y-51828595D01*
X12870782Y-51828596D01*
X12880962Y-51838777D01*
X12885776Y-51843948D01*
X12897955Y-51858004D01*
X12918872Y-51882143D01*
X12923579Y-51885168D01*
X12925182Y-51886198D01*
X12941666Y-51899480D01*
X13100518Y-52058332D01*
X13113797Y-52074810D01*
X13117857Y-52081128D01*
X13150980Y-52109829D01*
X13156057Y-52114228D01*
X13161230Y-52119044D01*
X13171409Y-52129223D01*
X13182922Y-52137841D01*
X13188427Y-52142276D01*
X13226627Y-52175377D01*
X13226628Y-52175377D01*
X13226630Y-52175379D01*
X13233455Y-52178496D01*
X13251657Y-52189294D01*
X13257669Y-52193795D01*
X13257670Y-52193795D01*
X13257671Y-52193796D01*
X13305027Y-52211459D01*
X13311557Y-52214164D01*
X13357540Y-52235164D01*
X13357541Y-52235164D01*
X13357543Y-52235165D01*
X13364980Y-52236234D01*
X13385486Y-52241468D01*
X13392517Y-52244091D01*
X13442944Y-52247696D01*
X13449934Y-52248448D01*
X13464201Y-52250500D01*
X13478591Y-52250500D01*
X13485652Y-52250752D01*
X13490509Y-52251099D01*
X13536073Y-52254358D01*
X13536074Y-52254357D01*
X13540651Y-52254685D01*
X13584099Y-52268287D01*
X13616865Y-52299895D01*
X13624524Y-52321592D01*
X13626563Y-52320832D01*
X13681203Y-52467330D01*
X13767452Y-52582544D01*
X13767453Y-52582544D01*
X13767454Y-52582546D01*
X13768447Y-52583289D01*
X13884830Y-52670414D01*
X13914029Y-52705353D01*
X13924500Y-52749667D01*
X13924500Y-52977678D01*
X13907815Y-53032679D01*
X13863386Y-53069142D01*
X13806186Y-53074776D01*
X13755496Y-53047682D01*
X13049480Y-52341666D01*
X13036198Y-52325182D01*
X13033891Y-52321592D01*
X13032143Y-52318872D01*
X12993948Y-52285776D01*
X12988777Y-52280962D01*
X12978596Y-52270782D01*
X12978595Y-52270781D01*
X12978593Y-52270779D01*
X12967062Y-52262147D01*
X12961575Y-52257725D01*
X12923373Y-52224623D01*
X12923372Y-52224622D01*
X12916544Y-52221504D01*
X12898345Y-52210706D01*
X12892330Y-52206203D01*
X12844970Y-52188539D01*
X12838442Y-52185835D01*
X12792457Y-52164835D01*
X12785017Y-52163765D01*
X12764518Y-52158532D01*
X12757486Y-52155909D01*
X12707061Y-52152302D01*
X12700041Y-52151547D01*
X12685799Y-52149500D01*
X12671418Y-52149500D01*
X12664356Y-52149248D01*
X12636240Y-52147237D01*
X12613927Y-52145641D01*
X12613926Y-52145641D01*
X12606591Y-52147237D01*
X12585546Y-52149500D01*
X12142455Y-52149500D01*
X12098141Y-52139028D01*
X12063202Y-52109830D01*
X12020244Y-52052445D01*
X12005566Y-52024383D01*
X12000500Y-51993119D01*
X12000500Y-50374763D01*
X12010972Y-50330449D01*
X12040171Y-50295510D01*
X12086116Y-50261116D01*
X12170212Y-50148778D01*
X12219251Y-50017299D01*
X12225500Y-49959174D01*
X12225500Y-49365826D01*
X12221334Y-49327076D01*
X12219251Y-49307700D01*
X12170212Y-49176221D01*
X12123350Y-49113622D01*
X12086116Y-49063884D01*
X12023777Y-49017217D01*
X11973778Y-48979787D01*
X11842299Y-48930748D01*
X11794458Y-48925605D01*
X11784174Y-48924500D01*
X11215826Y-48924500D01*
X11206377Y-48925515D01*
X11157700Y-48930748D01*
X11026221Y-48979787D01*
X10913883Y-49063884D01*
X10870132Y-49122329D01*
X10835193Y-49151528D01*
X10790879Y-49162000D01*
X10410821Y-49162000D01*
X10372935Y-49154464D01*
X10340817Y-49133004D01*
X8896617Y-47688803D01*
X8875157Y-47656685D01*
X8867621Y-47618799D01*
X8867621Y-46248777D01*
X8885680Y-46191772D01*
X8933269Y-46155564D01*
X8993026Y-46153363D01*
X9043147Y-46185970D01*
X9070590Y-46219410D01*
X9131323Y-46269252D01*
X9224763Y-46345937D01*
X9400657Y-46439954D01*
X9496086Y-46468901D01*
X9591515Y-46497850D01*
X9790000Y-46517399D01*
X9988485Y-46497850D01*
X10179342Y-46439954D01*
X10207525Y-46424890D01*
X10355236Y-46345937D01*
X10369685Y-46334079D01*
X10509410Y-46219410D01*
X10635936Y-46065237D01*
X10706471Y-45933277D01*
X10709381Y-45927832D01*
X10745795Y-45889585D01*
X10796691Y-45875500D01*
X11025500Y-45875500D01*
X11075000Y-45888763D01*
X11111237Y-45925000D01*
X11124500Y-45974500D01*
X11124500Y-47049395D01*
X11106821Y-47105857D01*
X11060097Y-47142153D01*
X11026221Y-47154787D01*
X10913884Y-47238884D01*
X10829787Y-47351221D01*
X10780748Y-47482700D01*
X10774500Y-47540828D01*
X10774500Y-48134172D01*
X10780748Y-48192299D01*
X10829787Y-48323778D01*
X10851217Y-48352404D01*
X10913884Y-48436116D01*
X10978128Y-48484208D01*
X11026221Y-48520212D01*
X11157700Y-48569251D01*
X11177076Y-48571334D01*
X11215826Y-48575500D01*
X11784172Y-48575500D01*
X11784174Y-48575500D01*
X11842299Y-48569251D01*
X11973778Y-48520212D01*
X12086116Y-48436116D01*
X12170212Y-48323778D01*
X12219251Y-48192299D01*
X12225500Y-48134174D01*
X12225500Y-47540826D01*
X12219251Y-47482701D01*
X12198185Y-47426222D01*
X12170212Y-47351221D01*
X12114060Y-47276213D01*
X12086116Y-47238884D01*
X12036794Y-47201962D01*
X11973778Y-47154787D01*
X11939903Y-47142153D01*
X11893179Y-47105857D01*
X11875500Y-47049395D01*
X11875500Y-45918416D01*
X11890519Y-45865993D01*
X11931018Y-45829476D01*
X11949984Y-45820203D01*
X11971211Y-45809826D01*
X11971212Y-45809824D01*
X11975754Y-45807604D01*
X11980397Y-45804142D01*
X11983822Y-45800420D01*
X11983826Y-45800419D01*
X12019653Y-45761499D01*
X12022415Y-45758620D01*
X12721996Y-45059040D01*
X12767377Y-45033156D01*
X12819617Y-45033977D01*
G37*
%TD.AperFunction*%
%TA.AperFunction,Conductor*%
G36*
X20080985Y-11158036D02*
G01*
X20113103Y-11179496D01*
X20810287Y-11876680D01*
X20837120Y-11926101D01*
X20832708Y-11982162D01*
X20798474Y-12026777D01*
X20677767Y-12114475D01*
X20558142Y-12247332D01*
X20502629Y-12343485D01*
X20471066Y-12398155D01*
X20463548Y-12411176D01*
X20462248Y-12410425D01*
X20433190Y-12450420D01*
X20375000Y-12469327D01*
X20316810Y-12450420D01*
X20287751Y-12410425D01*
X20286452Y-12411176D01*
X20281250Y-12402167D01*
X20281250Y-12402165D01*
X20191859Y-12247335D01*
X20072230Y-12114474D01*
X20072229Y-12114473D01*
X19927593Y-12009387D01*
X19764270Y-11936672D01*
X19764268Y-11936671D01*
X19764267Y-11936671D01*
X19589391Y-11899500D01*
X19410609Y-11899500D01*
X19333486Y-11915893D01*
X19235731Y-11936671D01*
X19072409Y-12009387D01*
X18927767Y-12114475D01*
X18808142Y-12247332D01*
X18741987Y-12361918D01*
X18705750Y-12398155D01*
X18656250Y-12411418D01*
X18606750Y-12398155D01*
X18570513Y-12361918D01*
X18537998Y-12305600D01*
X18504359Y-12247335D01*
X18384730Y-12114474D01*
X18384729Y-12114473D01*
X18240093Y-12009387D01*
X18076770Y-11936672D01*
X18076768Y-11936671D01*
X18076767Y-11936671D01*
X17901891Y-11899500D01*
X17723109Y-11899500D01*
X17645986Y-11915893D01*
X17548231Y-11936671D01*
X17384909Y-12009387D01*
X17240267Y-12114475D01*
X17120642Y-12247332D01*
X17054487Y-12361918D01*
X17018250Y-12398155D01*
X16968750Y-12411418D01*
X16919250Y-12398155D01*
X16883013Y-12361918D01*
X16850498Y-12305600D01*
X16816859Y-12247335D01*
X16697230Y-12114474D01*
X16697229Y-12114473D01*
X16552593Y-12009387D01*
X16389270Y-11936672D01*
X16389268Y-11936671D01*
X16389267Y-11936671D01*
X16214391Y-11899500D01*
X16035609Y-11899500D01*
X15958486Y-11915893D01*
X15860731Y-11936671D01*
X15697409Y-12009387D01*
X15552767Y-12114475D01*
X15433142Y-12247332D01*
X15366987Y-12361918D01*
X15330750Y-12398155D01*
X15281250Y-12411418D01*
X15231750Y-12398155D01*
X15195513Y-12361918D01*
X15162998Y-12305600D01*
X15129359Y-12247335D01*
X15009730Y-12114474D01*
X15009729Y-12114473D01*
X14865093Y-12009387D01*
X14701770Y-11936672D01*
X14701768Y-11936671D01*
X14701767Y-11936671D01*
X14526891Y-11899500D01*
X14348109Y-11899500D01*
X14270986Y-11915893D01*
X14173231Y-11936671D01*
X14009909Y-12009387D01*
X13865267Y-12114475D01*
X13745642Y-12247332D01*
X13679487Y-12361918D01*
X13643250Y-12398155D01*
X13593750Y-12411418D01*
X13544250Y-12398155D01*
X13508013Y-12361918D01*
X13475498Y-12305600D01*
X13441859Y-12247335D01*
X13322230Y-12114474D01*
X13322229Y-12114473D01*
X13177593Y-12009387D01*
X13014270Y-11936672D01*
X13014268Y-11936671D01*
X13014267Y-11936671D01*
X12839391Y-11899500D01*
X12660609Y-11899500D01*
X12583486Y-11915893D01*
X12485731Y-11936671D01*
X12322409Y-12009387D01*
X12177767Y-12114475D01*
X12058142Y-12247332D01*
X11968750Y-12402164D01*
X11913503Y-12572197D01*
X11894815Y-12749999D01*
X11913503Y-12927802D01*
X11968750Y-13097835D01*
X12058142Y-13252666D01*
X12177770Y-13385526D01*
X12322406Y-13490612D01*
X12378967Y-13515794D01*
X12485733Y-13563329D01*
X12660609Y-13600500D01*
X12839389Y-13600500D01*
X12839391Y-13600500D01*
X12976554Y-13571345D01*
X13025254Y-13573259D01*
X13067140Y-13598178D01*
X14451849Y-14982887D01*
X14479578Y-15037101D01*
X14470332Y-15097288D01*
X14427609Y-15140679D01*
X14367572Y-15150856D01*
X14358260Y-15149500D01*
X14091740Y-15149500D01*
X14050860Y-15155456D01*
X14023605Y-15159427D01*
X13943480Y-15198598D01*
X13900000Y-15208657D01*
X13856520Y-15198598D01*
X13776394Y-15159427D01*
X13759359Y-15156945D01*
X13708260Y-15149500D01*
X13441740Y-15149500D01*
X13390640Y-15156945D01*
X13373606Y-15159427D01*
X13268518Y-15210801D01*
X13185801Y-15293518D01*
X13134427Y-15398606D01*
X13124500Y-15466743D01*
X13124500Y-16808257D01*
X13134427Y-16876394D01*
X13164441Y-16937788D01*
X13174500Y-16981268D01*
X13174500Y-17250500D01*
X13161237Y-17300000D01*
X13125000Y-17336237D01*
X13075500Y-17349500D01*
X10956901Y-17349500D01*
X10919015Y-17341964D01*
X10886897Y-17320504D01*
X9848396Y-16282003D01*
X9821302Y-16231313D01*
X9826936Y-16174113D01*
X9863399Y-16129684D01*
X9918400Y-16112999D01*
X10019021Y-16112999D01*
X10112803Y-16098147D01*
X10180129Y-16063842D01*
X10225842Y-16040550D01*
X10315550Y-15950842D01*
X10373146Y-15837804D01*
X10388000Y-15744019D01*
X10388000Y-15724500D01*
X10401263Y-15675000D01*
X10437500Y-15638763D01*
X10487000Y-15625500D01*
X10818413Y-15625500D01*
X10832501Y-15626507D01*
X10841503Y-15627802D01*
X10855884Y-15627802D01*
X10862946Y-15628054D01*
X10913375Y-15631661D01*
X10913376Y-15631660D01*
X10927572Y-15632676D01*
X10927538Y-15633144D01*
X10961814Y-15634816D01*
X11005019Y-15662800D01*
X11095085Y-15762828D01*
X11239721Y-15867914D01*
X11348763Y-15916462D01*
X11403048Y-15940631D01*
X11577924Y-15977802D01*
X11756704Y-15977802D01*
X11756706Y-15977802D01*
X11931582Y-15940631D01*
X12094908Y-15867914D01*
X12239545Y-15762828D01*
X12359174Y-15629967D01*
X12448565Y-15475137D01*
X12503812Y-15305105D01*
X12522500Y-15127302D01*
X12503812Y-14949499D01*
X12448565Y-14779467D01*
X12359174Y-14624637D01*
X12239545Y-14491776D01*
X12218593Y-14476553D01*
X12094908Y-14386689D01*
X11931585Y-14313974D01*
X11931583Y-14313973D01*
X11931582Y-14313973D01*
X11756706Y-14276802D01*
X11577924Y-14276802D01*
X11490485Y-14295387D01*
X11403046Y-14313973D01*
X11239724Y-14386689D01*
X11095082Y-14491777D01*
X11003511Y-14593478D01*
X10963652Y-14620317D01*
X10915851Y-14625226D01*
X10910802Y-14624500D01*
X10910799Y-14624500D01*
X10896418Y-14624500D01*
X10889356Y-14624248D01*
X10861240Y-14622237D01*
X10838927Y-14620641D01*
X10838926Y-14620641D01*
X10831591Y-14622237D01*
X10810546Y-14624500D01*
X10486999Y-14624500D01*
X10437499Y-14611237D01*
X10401262Y-14575000D01*
X10387999Y-14525500D01*
X10387999Y-14505979D01*
X10373147Y-14412196D01*
X10315551Y-14299160D01*
X10315550Y-14299158D01*
X10225842Y-14209450D01*
X10112804Y-14151854D01*
X10112803Y-14151853D01*
X10112802Y-14151853D01*
X10019019Y-14137000D01*
X9655978Y-14137000D01*
X9562197Y-14151852D01*
X9515766Y-14175511D01*
X9467711Y-14186252D01*
X9420426Y-14172514D01*
X9385607Y-14137696D01*
X9371870Y-14090410D01*
X9382611Y-14042356D01*
X9423146Y-13962804D01*
X9438000Y-13869019D01*
X9437999Y-12630982D01*
X9437999Y-12630980D01*
X9437999Y-12630978D01*
X9423147Y-12537196D01*
X9365550Y-12424157D01*
X9316996Y-12375603D01*
X9295536Y-12343485D01*
X9288000Y-12305600D01*
X9288000Y-11819401D01*
X9295536Y-11781515D01*
X9316996Y-11749397D01*
X9886896Y-11179496D01*
X9919014Y-11158036D01*
X9956900Y-11150500D01*
X20043099Y-11150500D01*
X20080985Y-11158036D01*
G37*
%TD.AperFunction*%
%TA.AperFunction,Conductor*%
G36*
X33450000Y-1513763D02*
G01*
X33486237Y-1550000D01*
X33499500Y-1599500D01*
X33499500Y-65650500D01*
X33486237Y-65700000D01*
X33450000Y-65736237D01*
X33400500Y-65749500D01*
X2099500Y-65749500D01*
X2050000Y-65736237D01*
X2013763Y-65700000D01*
X2000500Y-65650500D01*
X2000500Y-62999999D01*
X2894551Y-62999999D01*
X2914316Y-63251146D01*
X2973127Y-63496112D01*
X3069535Y-63728862D01*
X3201163Y-63943658D01*
X3364775Y-64135224D01*
X3556341Y-64298836D01*
X3771137Y-64430464D01*
X3771139Y-64430464D01*
X3771141Y-64430466D01*
X4003889Y-64526873D01*
X4248852Y-64585683D01*
X4500000Y-64605449D01*
X4751148Y-64585683D01*
X4996111Y-64526873D01*
X5228859Y-64430466D01*
X5443659Y-64298836D01*
X5635224Y-64135224D01*
X5798836Y-63943659D01*
X5930466Y-63728859D01*
X6026873Y-63496111D01*
X6085683Y-63251148D01*
X6105449Y-63000000D01*
X6105449Y-62999999D01*
X29244551Y-62999999D01*
X29264316Y-63251146D01*
X29323127Y-63496112D01*
X29419535Y-63728862D01*
X29551163Y-63943658D01*
X29714775Y-64135224D01*
X29906341Y-64298836D01*
X30121137Y-64430464D01*
X30121139Y-64430464D01*
X30121141Y-64430466D01*
X30353889Y-64526873D01*
X30598852Y-64585683D01*
X30850000Y-64605449D01*
X31101148Y-64585683D01*
X31346111Y-64526873D01*
X31578859Y-64430466D01*
X31793659Y-64298836D01*
X31985224Y-64135224D01*
X32148836Y-63943659D01*
X32280466Y-63728859D01*
X32376873Y-63496111D01*
X32435683Y-63251148D01*
X32455449Y-63000000D01*
X32435683Y-62748852D01*
X32376873Y-62503889D01*
X32280466Y-62271141D01*
X32148836Y-62056341D01*
X31985224Y-61864775D01*
X31793658Y-61701163D01*
X31578862Y-61569535D01*
X31346112Y-61473127D01*
X31101146Y-61414316D01*
X30850000Y-61394551D01*
X30598853Y-61414316D01*
X30353887Y-61473127D01*
X30121137Y-61569535D01*
X29906341Y-61701163D01*
X29714775Y-61864775D01*
X29551163Y-62056341D01*
X29419535Y-62271137D01*
X29323127Y-62503887D01*
X29264316Y-62748853D01*
X29244551Y-62999999D01*
X6105449Y-62999999D01*
X6085683Y-62748852D01*
X6026873Y-62503889D01*
X5930466Y-62271141D01*
X5798836Y-62056341D01*
X5635224Y-61864775D01*
X5443658Y-61701163D01*
X5228862Y-61569535D01*
X4996112Y-61473127D01*
X4751146Y-61414316D01*
X4500000Y-61394551D01*
X4248853Y-61414316D01*
X4003887Y-61473127D01*
X3771137Y-61569535D01*
X3556341Y-61701163D01*
X3364775Y-61864775D01*
X3201163Y-62056341D01*
X3069535Y-62271137D01*
X2973127Y-62503887D01*
X2914316Y-62748853D01*
X2894551Y-62999999D01*
X2000500Y-62999999D01*
X2000500Y-60497826D01*
X24475000Y-60497826D01*
X24481401Y-60557376D01*
X24531646Y-60692089D01*
X24617811Y-60807188D01*
X24732910Y-60893353D01*
X24867623Y-60943598D01*
X24927174Y-60950000D01*
X25574999Y-60950000D01*
X25575000Y-60949999D01*
X26075000Y-60949999D01*
X26075001Y-60950000D01*
X26722826Y-60950000D01*
X26782376Y-60943598D01*
X26917089Y-60893353D01*
X27032188Y-60807188D01*
X27118353Y-60692089D01*
X27168598Y-60557376D01*
X27175000Y-60497826D01*
X29925000Y-60497826D01*
X29931401Y-60557376D01*
X29981646Y-60692089D01*
X30067811Y-60807188D01*
X30182910Y-60893353D01*
X30317623Y-60943598D01*
X30377174Y-60950000D01*
X31024999Y-60950000D01*
X31025000Y-60949999D01*
X31525000Y-60949999D01*
X31525001Y-60950000D01*
X32172826Y-60950000D01*
X32232376Y-60943598D01*
X32367089Y-60893353D01*
X32482188Y-60807188D01*
X32568353Y-60692089D01*
X32618598Y-60557376D01*
X32625000Y-60497826D01*
X32625000Y-59700001D01*
X32624999Y-59700000D01*
X31525001Y-59700000D01*
X31525000Y-59700001D01*
X31525000Y-60949999D01*
X31025000Y-60949999D01*
X31025000Y-59700001D01*
X31024999Y-59700000D01*
X29925001Y-59700000D01*
X29925000Y-59700001D01*
X29925000Y-60497826D01*
X27175000Y-60497826D01*
X27175000Y-59700001D01*
X27174999Y-59700000D01*
X26075001Y-59700000D01*
X26075000Y-59700001D01*
X26075000Y-60949999D01*
X25575000Y-60949999D01*
X25575000Y-59700001D01*
X25574999Y-59700000D01*
X24475001Y-59700000D01*
X24475000Y-59700001D01*
X24475000Y-60497826D01*
X2000500Y-60497826D01*
X2000500Y-59036651D01*
X5275001Y-59036651D01*
X5285317Y-59137648D01*
X5339546Y-59301300D01*
X5430055Y-59448037D01*
X5551962Y-59569944D01*
X5698699Y-59660453D01*
X5862350Y-59714681D01*
X5963350Y-59725000D01*
X5999999Y-59725000D01*
X6000000Y-59724999D01*
X6000000Y-59724998D01*
X6500000Y-59724998D01*
X6500001Y-59724999D01*
X6536651Y-59724999D01*
X6637648Y-59714682D01*
X6801300Y-59660453D01*
X6948037Y-59569944D01*
X7038329Y-59479653D01*
X7082710Y-59454030D01*
X7133956Y-59454030D01*
X7178337Y-59479653D01*
X7268628Y-59569944D01*
X7415365Y-59660453D01*
X7579016Y-59714681D01*
X7680016Y-59725000D01*
X7716665Y-59725000D01*
X7716666Y-59724999D01*
X7716666Y-59724998D01*
X8216666Y-59724998D01*
X8216667Y-59724999D01*
X8253317Y-59724999D01*
X8354314Y-59714682D01*
X8517966Y-59660453D01*
X8664703Y-59569944D01*
X8754996Y-59479652D01*
X8799377Y-59454029D01*
X8850623Y-59454029D01*
X8895004Y-59479652D01*
X8985296Y-59569944D01*
X9132033Y-59660453D01*
X9295684Y-59714681D01*
X9396684Y-59725000D01*
X9433333Y-59725000D01*
X9433334Y-59724999D01*
X9433334Y-59724998D01*
X9933334Y-59724998D01*
X9933335Y-59724999D01*
X9969985Y-59724999D01*
X10070982Y-59714682D01*
X10234634Y-59660453D01*
X10381373Y-59569943D01*
X10475829Y-59475487D01*
X10520209Y-59449863D01*
X10571456Y-59449863D01*
X10615836Y-59475486D01*
X10735294Y-59594943D01*
X10882033Y-59685453D01*
X11045684Y-59739681D01*
X11146684Y-59750000D01*
X11183333Y-59750000D01*
X11183334Y-59749999D01*
X11183334Y-59749998D01*
X11683334Y-59749998D01*
X11683335Y-59749999D01*
X11719985Y-59749999D01*
X11820982Y-59739682D01*
X11984634Y-59685453D01*
X12131371Y-59594944D01*
X12253278Y-59473037D01*
X12343787Y-59326300D01*
X12398015Y-59162649D01*
X12408334Y-59061650D01*
X12408334Y-59012501D01*
X12408333Y-59012500D01*
X11683335Y-59012500D01*
X11683334Y-59012501D01*
X11683334Y-59749998D01*
X11183334Y-59749998D01*
X11183334Y-59012501D01*
X11183333Y-59012500D01*
X10484341Y-59012500D01*
X10446455Y-59004964D01*
X10420318Y-58987500D01*
X9933335Y-58987500D01*
X9933334Y-58987501D01*
X9933334Y-59724998D01*
X9433334Y-59724998D01*
X9433334Y-58987501D01*
X9433333Y-58987500D01*
X8216667Y-58987500D01*
X8216666Y-58987501D01*
X8216666Y-59724998D01*
X7716666Y-59724998D01*
X7716666Y-58987501D01*
X7716665Y-58987500D01*
X6500001Y-58987500D01*
X6500000Y-58987501D01*
X6500000Y-59724998D01*
X6000000Y-59724998D01*
X6000000Y-58987501D01*
X5999999Y-58987500D01*
X5275002Y-58987500D01*
X5275001Y-58987501D01*
X5275001Y-59036651D01*
X2000500Y-59036651D01*
X2000500Y-58487499D01*
X5275000Y-58487499D01*
X5275001Y-58487500D01*
X10632327Y-58487500D01*
X10670213Y-58495036D01*
X10696350Y-58512500D01*
X12408332Y-58512500D01*
X12408333Y-58512499D01*
X12408333Y-58463349D01*
X12398016Y-58362351D01*
X12343787Y-58198699D01*
X12253278Y-58051962D01*
X12131371Y-57930055D01*
X11984634Y-57839546D01*
X11899127Y-57811212D01*
X11850545Y-57775934D01*
X11831284Y-57719067D01*
X11848429Y-57661528D01*
X11895674Y-57624478D01*
X11907112Y-57620212D01*
X11907111Y-57620212D01*
X12019450Y-57536116D01*
X12103546Y-57423778D01*
X12152585Y-57292299D01*
X12158834Y-57234174D01*
X12158834Y-56640826D01*
X12152585Y-56582701D01*
X12147362Y-56568698D01*
X12103546Y-56451221D01*
X12055214Y-56386659D01*
X12019450Y-56338884D01*
X11934780Y-56275500D01*
X11907112Y-56254787D01*
X11873237Y-56242153D01*
X11826513Y-56205857D01*
X11808834Y-56149395D01*
X11808834Y-55263105D01*
X11826513Y-55206643D01*
X11873237Y-55170347D01*
X11907112Y-55157712D01*
X11907111Y-55157712D01*
X12019450Y-55073616D01*
X12103546Y-54961278D01*
X12152585Y-54829799D01*
X12158834Y-54771674D01*
X12158834Y-54178326D01*
X12152585Y-54120201D01*
X12152203Y-54119178D01*
X12103546Y-53988721D01*
X12038756Y-53902174D01*
X12019450Y-53876384D01*
X11960580Y-53832314D01*
X11907112Y-53792287D01*
X11775633Y-53743248D01*
X11727792Y-53738105D01*
X11717508Y-53737000D01*
X11149160Y-53737000D01*
X11139711Y-53738015D01*
X11091034Y-53743248D01*
X10959555Y-53792287D01*
X10847218Y-53876384D01*
X10763121Y-53988721D01*
X10714082Y-54120200D01*
X10707834Y-54178328D01*
X10707834Y-54771672D01*
X10714082Y-54829799D01*
X10763121Y-54961278D01*
X10802215Y-55013500D01*
X10847218Y-55073616D01*
X10911462Y-55121708D01*
X10959555Y-55157712D01*
X10993431Y-55170347D01*
X11040155Y-55206643D01*
X11057834Y-55263105D01*
X11057834Y-56149395D01*
X11040155Y-56205857D01*
X10993431Y-56242153D01*
X10959555Y-56254787D01*
X10847218Y-56338884D01*
X10763121Y-56451221D01*
X10714082Y-56582700D01*
X10707834Y-56640828D01*
X10707834Y-57234172D01*
X10714082Y-57292299D01*
X10763121Y-57423778D01*
X10778986Y-57444970D01*
X10847218Y-57536116D01*
X10959556Y-57620212D01*
X10970995Y-57624479D01*
X11018238Y-57661529D01*
X11035382Y-57719068D01*
X11016121Y-57775934D01*
X10967540Y-57811212D01*
X10882032Y-57839546D01*
X10735293Y-57930056D01*
X10640836Y-58024513D01*
X10596455Y-58050136D01*
X10545210Y-58050136D01*
X10500829Y-58024513D01*
X10381371Y-57905055D01*
X10234634Y-57814546D01*
X10149127Y-57786212D01*
X10100545Y-57750934D01*
X10081284Y-57694067D01*
X10098429Y-57636528D01*
X10145674Y-57599478D01*
X10157112Y-57595212D01*
X10180366Y-57577804D01*
X10269450Y-57511116D01*
X10353546Y-57398778D01*
X10402585Y-57267299D01*
X10408834Y-57209174D01*
X10408834Y-56615826D01*
X10402585Y-56557701D01*
X10380950Y-56499696D01*
X10353546Y-56426221D01*
X10311918Y-56370614D01*
X10269450Y-56313884D01*
X10221356Y-56277880D01*
X10157112Y-56229787D01*
X10123237Y-56217153D01*
X10076513Y-56180857D01*
X10058834Y-56124395D01*
X10058834Y-55238105D01*
X10076513Y-55181643D01*
X10123237Y-55145347D01*
X10157112Y-55132712D01*
X10157111Y-55132712D01*
X10269450Y-55048616D01*
X10353546Y-54936278D01*
X10402585Y-54804799D01*
X10408834Y-54746674D01*
X10408834Y-54153326D01*
X10402585Y-54095201D01*
X10378683Y-54031118D01*
X10353546Y-53963721D01*
X10307471Y-53902174D01*
X10269450Y-53851384D01*
X10190508Y-53792288D01*
X10157112Y-53767287D01*
X10025633Y-53718248D01*
X9977792Y-53713105D01*
X9967508Y-53712000D01*
X9399160Y-53712000D01*
X9389711Y-53713015D01*
X9341034Y-53718248D01*
X9209555Y-53767287D01*
X9097218Y-53851384D01*
X9013121Y-53963721D01*
X8964082Y-54095200D01*
X8957834Y-54153328D01*
X8957834Y-54746672D01*
X8964082Y-54804799D01*
X9013121Y-54936278D01*
X9061214Y-55000522D01*
X9097218Y-55048616D01*
X9130614Y-55073616D01*
X9209555Y-55132712D01*
X9243431Y-55145347D01*
X9290155Y-55181643D01*
X9307834Y-55238105D01*
X9307834Y-56124395D01*
X9290155Y-56180857D01*
X9243431Y-56217153D01*
X9209555Y-56229787D01*
X9097218Y-56313884D01*
X9013121Y-56426221D01*
X8964082Y-56557700D01*
X8957834Y-56615828D01*
X8957834Y-57209172D01*
X8964082Y-57267299D01*
X9013121Y-57398778D01*
X9042814Y-57438442D01*
X9097218Y-57511116D01*
X9171959Y-57567067D01*
X9209556Y-57595212D01*
X9220995Y-57599479D01*
X9268238Y-57636529D01*
X9285382Y-57694068D01*
X9266121Y-57750934D01*
X9217540Y-57786212D01*
X9132032Y-57814546D01*
X8985294Y-57905056D01*
X8895003Y-57995347D01*
X8850623Y-58020970D01*
X8799377Y-58020970D01*
X8754997Y-57995347D01*
X8664705Y-57905056D01*
X8517966Y-57814546D01*
X8432459Y-57786212D01*
X8383877Y-57750934D01*
X8364616Y-57694067D01*
X8381761Y-57636528D01*
X8429006Y-57599478D01*
X8440444Y-57595212D01*
X8463698Y-57577804D01*
X8552782Y-57511116D01*
X8636878Y-57398778D01*
X8685917Y-57267299D01*
X8692166Y-57209174D01*
X8692166Y-56615826D01*
X8685917Y-56557701D01*
X8664282Y-56499696D01*
X8636878Y-56426221D01*
X8595250Y-56370614D01*
X8552782Y-56313884D01*
X8504688Y-56277880D01*
X8440444Y-56229787D01*
X8406569Y-56217153D01*
X8359845Y-56180857D01*
X8342166Y-56124395D01*
X8342166Y-55238105D01*
X8359845Y-55181643D01*
X8406569Y-55145347D01*
X8440444Y-55132712D01*
X8440443Y-55132712D01*
X8552782Y-55048616D01*
X8636878Y-54936278D01*
X8685917Y-54804799D01*
X8692166Y-54746674D01*
X8692166Y-54153326D01*
X8685917Y-54095201D01*
X8662015Y-54031118D01*
X8636878Y-53963721D01*
X8590803Y-53902174D01*
X8552782Y-53851384D01*
X8473840Y-53792288D01*
X8440444Y-53767287D01*
X8308965Y-53718248D01*
X8261124Y-53713105D01*
X8250840Y-53712000D01*
X7682492Y-53712000D01*
X7673043Y-53713015D01*
X7624366Y-53718248D01*
X7492887Y-53767287D01*
X7380550Y-53851384D01*
X7296453Y-53963721D01*
X7247414Y-54095200D01*
X7241166Y-54153328D01*
X7241166Y-54746672D01*
X7247414Y-54804799D01*
X7296453Y-54936278D01*
X7344546Y-55000522D01*
X7380550Y-55048616D01*
X7413946Y-55073616D01*
X7492887Y-55132712D01*
X7526763Y-55145347D01*
X7573487Y-55181643D01*
X7591166Y-55238105D01*
X7591166Y-56124395D01*
X7573487Y-56180857D01*
X7526763Y-56217153D01*
X7492887Y-56229787D01*
X7380550Y-56313884D01*
X7296453Y-56426221D01*
X7247414Y-56557700D01*
X7241166Y-56615828D01*
X7241166Y-57209172D01*
X7247414Y-57267299D01*
X7296453Y-57398778D01*
X7326146Y-57438442D01*
X7380550Y-57511116D01*
X7455291Y-57567067D01*
X7492888Y-57595212D01*
X7504327Y-57599479D01*
X7551570Y-57636529D01*
X7568714Y-57694068D01*
X7549453Y-57750934D01*
X7500872Y-57786212D01*
X7415364Y-57814546D01*
X7268628Y-57905055D01*
X7178337Y-57995347D01*
X7133956Y-58020970D01*
X7082710Y-58020970D01*
X7038329Y-57995347D01*
X6948037Y-57905055D01*
X6801300Y-57814546D01*
X6715793Y-57786212D01*
X6667211Y-57750934D01*
X6647950Y-57694067D01*
X6665095Y-57636528D01*
X6712340Y-57599478D01*
X6723778Y-57595212D01*
X6747032Y-57577804D01*
X6836116Y-57511116D01*
X6920212Y-57398778D01*
X6969251Y-57267299D01*
X6975500Y-57209174D01*
X6975500Y-56615826D01*
X6969251Y-56557701D01*
X6947616Y-56499696D01*
X6920212Y-56426221D01*
X6878584Y-56370614D01*
X6836116Y-56313884D01*
X6788022Y-56277880D01*
X6723778Y-56229787D01*
X6689903Y-56217153D01*
X6643179Y-56180857D01*
X6625500Y-56124395D01*
X6625500Y-55238105D01*
X6643179Y-55181643D01*
X6689903Y-55145347D01*
X6723778Y-55132712D01*
X6723777Y-55132712D01*
X6836116Y-55048616D01*
X6920212Y-54936278D01*
X6969251Y-54804799D01*
X6975500Y-54746674D01*
X6975500Y-54153326D01*
X6969251Y-54095201D01*
X6945349Y-54031118D01*
X6920212Y-53963721D01*
X6874137Y-53902174D01*
X6836116Y-53851384D01*
X6757174Y-53792288D01*
X6723778Y-53767287D01*
X6592299Y-53718248D01*
X6544458Y-53713105D01*
X6534174Y-53712000D01*
X5965826Y-53712000D01*
X5956377Y-53713015D01*
X5907700Y-53718248D01*
X5776221Y-53767287D01*
X5663884Y-53851384D01*
X5579787Y-53963721D01*
X5530748Y-54095200D01*
X5524500Y-54153328D01*
X5524500Y-54746672D01*
X5530748Y-54804799D01*
X5579787Y-54936278D01*
X5627880Y-55000522D01*
X5663884Y-55048616D01*
X5697280Y-55073616D01*
X5776221Y-55132712D01*
X5810097Y-55145347D01*
X5856821Y-55181643D01*
X5874500Y-55238105D01*
X5874500Y-56124395D01*
X5856821Y-56180857D01*
X5810097Y-56217153D01*
X5776221Y-56229787D01*
X5663884Y-56313884D01*
X5579787Y-56426221D01*
X5530748Y-56557700D01*
X5524500Y-56615828D01*
X5524500Y-57209172D01*
X5530748Y-57267299D01*
X5579787Y-57398778D01*
X5609480Y-57438442D01*
X5663884Y-57511116D01*
X5738625Y-57567067D01*
X5776222Y-57595212D01*
X5787661Y-57599479D01*
X5834904Y-57636529D01*
X5852048Y-57694068D01*
X5832787Y-57750934D01*
X5784206Y-57786212D01*
X5698698Y-57814546D01*
X5551962Y-57905055D01*
X5430055Y-58026962D01*
X5339546Y-58173699D01*
X5285318Y-58337350D01*
X5275000Y-58438350D01*
X5275000Y-58487499D01*
X2000500Y-58487499D01*
X2000500Y-46551741D01*
X4011811Y-46551741D01*
X4076586Y-46597097D01*
X4276722Y-46690421D01*
X4490021Y-46747575D01*
X4710000Y-46766821D01*
X4929978Y-46747575D01*
X5143277Y-46690421D01*
X5343411Y-46597098D01*
X5408186Y-46551741D01*
X4709999Y-45853554D01*
X4011811Y-46551741D01*
X2000500Y-46551741D01*
X2000500Y-45500000D01*
X3443178Y-45500000D01*
X3462424Y-45719978D01*
X3519578Y-45933277D01*
X3612902Y-46133413D01*
X3658257Y-46198186D01*
X4356444Y-45499999D01*
X5063554Y-45499999D01*
X5761741Y-46198186D01*
X5766872Y-46197738D01*
X5819932Y-46207892D01*
X5859761Y-46244389D01*
X5874500Y-46296361D01*
X5874500Y-51836895D01*
X5856821Y-51893357D01*
X5810097Y-51929653D01*
X5776221Y-51942287D01*
X5663884Y-52026384D01*
X5579787Y-52138721D01*
X5530748Y-52270200D01*
X5524500Y-52328328D01*
X5524500Y-52921672D01*
X5530748Y-52979799D01*
X5579787Y-53111278D01*
X5614791Y-53158036D01*
X5663884Y-53223616D01*
X5697280Y-53248616D01*
X5776221Y-53307712D01*
X5907700Y-53356751D01*
X5927075Y-53358833D01*
X5965826Y-53363000D01*
X6534172Y-53363000D01*
X6534174Y-53363000D01*
X6592299Y-53356751D01*
X6723778Y-53307712D01*
X6836116Y-53223616D01*
X6920212Y-53111278D01*
X6969251Y-52979799D01*
X6975500Y-52921674D01*
X6975500Y-52403879D01*
X6992185Y-52348878D01*
X7036614Y-52312415D01*
X7093814Y-52306781D01*
X7144504Y-52333875D01*
X7212170Y-52401541D01*
X7233630Y-52433659D01*
X7241166Y-52471545D01*
X7241166Y-52921672D01*
X7247414Y-52979799D01*
X7296453Y-53111278D01*
X7331457Y-53158036D01*
X7380550Y-53223616D01*
X7413946Y-53248616D01*
X7492887Y-53307712D01*
X7624366Y-53356751D01*
X7643741Y-53358833D01*
X7682492Y-53363000D01*
X8250838Y-53363000D01*
X8250840Y-53363000D01*
X8308965Y-53356751D01*
X8440444Y-53307712D01*
X8552782Y-53223616D01*
X8636878Y-53111278D01*
X8685917Y-52979799D01*
X8692166Y-52921674D01*
X8692166Y-52328326D01*
X8686204Y-52272872D01*
X8685917Y-52270200D01*
X8636878Y-52138721D01*
X8589035Y-52074812D01*
X8552782Y-52026384D01*
X8473840Y-51967288D01*
X8440444Y-51942287D01*
X8308965Y-51893248D01*
X8261124Y-51888105D01*
X8250840Y-51887000D01*
X8250838Y-51887000D01*
X7800712Y-51887000D01*
X7762826Y-51879464D01*
X7730708Y-51858004D01*
X7404496Y-51531792D01*
X7383036Y-51499674D01*
X7375500Y-51461788D01*
X7375500Y-49145545D01*
X7392185Y-49090544D01*
X7436614Y-49054081D01*
X7493814Y-49048447D01*
X7544504Y-49075541D01*
X9278838Y-50809875D01*
X9300298Y-50841993D01*
X9307834Y-50879879D01*
X9307834Y-51836895D01*
X9290155Y-51893357D01*
X9243431Y-51929653D01*
X9209555Y-51942287D01*
X9097218Y-52026384D01*
X9013121Y-52138721D01*
X8964082Y-52270200D01*
X8957834Y-52328328D01*
X8957834Y-52921672D01*
X8964082Y-52979799D01*
X9013121Y-53111278D01*
X9048125Y-53158036D01*
X9097218Y-53223616D01*
X9130614Y-53248616D01*
X9209555Y-53307712D01*
X9341034Y-53356751D01*
X9360409Y-53358833D01*
X9399160Y-53363000D01*
X9967506Y-53363000D01*
X9967508Y-53363000D01*
X10025633Y-53356751D01*
X10157112Y-53307712D01*
X10269450Y-53223616D01*
X10353546Y-53111278D01*
X10402585Y-52979799D01*
X10408834Y-52921674D01*
X10408834Y-52328326D01*
X10402872Y-52272872D01*
X10402585Y-52270200D01*
X10353546Y-52138721D01*
X10305703Y-52074812D01*
X10269450Y-52026384D01*
X10190508Y-51967288D01*
X10157112Y-51942287D01*
X10123237Y-51929653D01*
X10076513Y-51893357D01*
X10058834Y-51836895D01*
X10058834Y-50732545D01*
X10060941Y-50712229D01*
X10062080Y-50706795D01*
X10063701Y-50699066D01*
X10059594Y-50666117D01*
X10058834Y-50653872D01*
X10058834Y-50652221D01*
X10058834Y-50652220D01*
X10055324Y-50631191D01*
X10054739Y-50627173D01*
X10051816Y-50603724D01*
X10048200Y-50574708D01*
X10047576Y-50569701D01*
X10045803Y-50564168D01*
X10043399Y-50559726D01*
X10043399Y-50559724D01*
X10018240Y-50513234D01*
X10016396Y-50509652D01*
X9993160Y-50462123D01*
X9993158Y-50462121D01*
X9990942Y-50457588D01*
X9987468Y-50452929D01*
X9983754Y-50449510D01*
X9983753Y-50449508D01*
X9944861Y-50413705D01*
X9941933Y-50410895D01*
X9779790Y-50248751D01*
X9753366Y-50201170D01*
X9756087Y-50146811D01*
X9787129Y-50102105D01*
X9837111Y-50080564D01*
X9890920Y-50088696D01*
X9895965Y-50091000D01*
X9914152Y-50101792D01*
X9920169Y-50106296D01*
X9954507Y-50119103D01*
X9967529Y-50123960D01*
X9974060Y-50126665D01*
X10020043Y-50147665D01*
X10027478Y-50148733D01*
X10047981Y-50153966D01*
X10055017Y-50156591D01*
X10105457Y-50160198D01*
X10112459Y-50160952D01*
X10119783Y-50162005D01*
X10126699Y-50163000D01*
X10126701Y-50163000D01*
X10141082Y-50163000D01*
X10148144Y-50163252D01*
X10198573Y-50166859D01*
X10205909Y-50165262D01*
X10226954Y-50163000D01*
X10790879Y-50163000D01*
X10835193Y-50173472D01*
X10870132Y-50202671D01*
X10913882Y-50261114D01*
X10913883Y-50261114D01*
X10913884Y-50261116D01*
X10959829Y-50295510D01*
X10989028Y-50330449D01*
X10999500Y-50374763D01*
X10999500Y-51887831D01*
X10989028Y-51932145D01*
X10959829Y-51967084D01*
X10959556Y-51967287D01*
X10959556Y-51967288D01*
X10915857Y-52000001D01*
X10847218Y-52051384D01*
X10763121Y-52163721D01*
X10714082Y-52295200D01*
X10707834Y-52353328D01*
X10707834Y-52946672D01*
X10714082Y-53004799D01*
X10763121Y-53136278D01*
X10794208Y-53177804D01*
X10847218Y-53248616D01*
X10911462Y-53296708D01*
X10959555Y-53332712D01*
X11091034Y-53381751D01*
X11110410Y-53383834D01*
X11149160Y-53388000D01*
X11717506Y-53388000D01*
X11717508Y-53388000D01*
X11775633Y-53381751D01*
X11907112Y-53332712D01*
X12019450Y-53248616D01*
X12063202Y-53190171D01*
X12098141Y-53160972D01*
X12142455Y-53150500D01*
X12401678Y-53150500D01*
X12439564Y-53158036D01*
X12471682Y-53179496D01*
X12970504Y-53678318D01*
X12991964Y-53710436D01*
X12999500Y-53748322D01*
X12999500Y-57185546D01*
X12997237Y-57206591D01*
X12995641Y-57213926D01*
X12999248Y-57264356D01*
X12999500Y-57271418D01*
X12999500Y-57285799D01*
X13001547Y-57300041D01*
X13002302Y-57307061D01*
X13005909Y-57357486D01*
X13008532Y-57364518D01*
X13013765Y-57385017D01*
X13014835Y-57392457D01*
X13035835Y-57438442D01*
X13038539Y-57444970D01*
X13056203Y-57492330D01*
X13060706Y-57498345D01*
X13071504Y-57516544D01*
X13074622Y-57523372D01*
X13074623Y-57523373D01*
X13107725Y-57561575D01*
X13112147Y-57567062D01*
X13120779Y-57578593D01*
X13120781Y-57578595D01*
X13120782Y-57578596D01*
X13130962Y-57588777D01*
X13135776Y-57593948D01*
X13168872Y-57632143D01*
X13175182Y-57636198D01*
X13191666Y-57649480D01*
X15100518Y-59558332D01*
X15113798Y-59574812D01*
X15117858Y-59581130D01*
X15156058Y-59614230D01*
X15161228Y-59619043D01*
X15171405Y-59629219D01*
X15171407Y-59629221D01*
X15182936Y-59637851D01*
X15188407Y-59642259D01*
X15226627Y-59675377D01*
X15233460Y-59678497D01*
X15251652Y-59689292D01*
X15257669Y-59693796D01*
X15274306Y-59700001D01*
X15305029Y-59711460D01*
X15311560Y-59714165D01*
X15357543Y-59735165D01*
X15364978Y-59736233D01*
X15385481Y-59741466D01*
X15392517Y-59744091D01*
X15442957Y-59747698D01*
X15449959Y-59748452D01*
X15457283Y-59749505D01*
X15464199Y-59750500D01*
X15464201Y-59750500D01*
X15478582Y-59750500D01*
X15485644Y-59750752D01*
X15536073Y-59754359D01*
X15543409Y-59752762D01*
X15564454Y-59750500D01*
X16694832Y-59750500D01*
X16735099Y-59759059D01*
X16768403Y-59783256D01*
X16894126Y-59922886D01*
X16894129Y-59922888D01*
X17047270Y-60034151D01*
X17220197Y-60111144D01*
X17405354Y-60150500D01*
X17594644Y-60150500D01*
X17594646Y-60150500D01*
X17779803Y-60111144D01*
X17952730Y-60034151D01*
X18105871Y-59922888D01*
X18214929Y-59801766D01*
X18256898Y-59774191D01*
X18307002Y-59770757D01*
X18352344Y-59792351D01*
X18381256Y-59833415D01*
X18431203Y-59967331D01*
X18480528Y-60033220D01*
X18517454Y-60082546D01*
X18632669Y-60168796D01*
X18767517Y-60219091D01*
X18827127Y-60225500D01*
X19597872Y-60225499D01*
X19657483Y-60219091D01*
X19792331Y-60168796D01*
X19907546Y-60082546D01*
X19993796Y-59967331D01*
X20025999Y-59880988D01*
X20063048Y-59833749D01*
X20120588Y-59816605D01*
X20177453Y-59835866D01*
X20212731Y-59884448D01*
X20265642Y-60044121D01*
X20357681Y-60193341D01*
X20481658Y-60317318D01*
X20630878Y-60409357D01*
X20797305Y-60464506D01*
X20900018Y-60475000D01*
X21037499Y-60475000D01*
X21037500Y-60474999D01*
X21037500Y-60474998D01*
X21537500Y-60474998D01*
X21537501Y-60474999D01*
X21674973Y-60474999D01*
X21777696Y-60464505D01*
X21944122Y-60409357D01*
X22093341Y-60317318D01*
X22217318Y-60193341D01*
X22309357Y-60044121D01*
X22364506Y-59877694D01*
X22375000Y-59774982D01*
X22375000Y-59500001D01*
X22374999Y-59500000D01*
X21537501Y-59500000D01*
X21537500Y-59500001D01*
X21537500Y-60474998D01*
X21037500Y-60474998D01*
X21037500Y-59199999D01*
X24475000Y-59199999D01*
X24475001Y-59200000D01*
X25574999Y-59200000D01*
X25575000Y-59199999D01*
X26075000Y-59199999D01*
X26075001Y-59200000D01*
X27174999Y-59200000D01*
X27175000Y-59199999D01*
X29925000Y-59199999D01*
X29925001Y-59200000D01*
X31024999Y-59200000D01*
X31025000Y-59199999D01*
X31525000Y-59199999D01*
X31525001Y-59200000D01*
X32624999Y-59200000D01*
X32625000Y-59199999D01*
X32625000Y-58402174D01*
X32618598Y-58342623D01*
X32568353Y-58207910D01*
X32482188Y-58092811D01*
X32367089Y-58006646D01*
X32232376Y-57956401D01*
X32172826Y-57950000D01*
X31525001Y-57950000D01*
X31525000Y-57950001D01*
X31525000Y-59199999D01*
X31025000Y-59199999D01*
X31025000Y-57950001D01*
X31024999Y-57950000D01*
X30377174Y-57950000D01*
X30317623Y-57956401D01*
X30182910Y-58006646D01*
X30067811Y-58092811D01*
X29981646Y-58207910D01*
X29931401Y-58342623D01*
X29925000Y-58402174D01*
X29925000Y-59199999D01*
X27175000Y-59199999D01*
X27175000Y-58402174D01*
X27168598Y-58342623D01*
X27118353Y-58207910D01*
X27032188Y-58092811D01*
X26917089Y-58006646D01*
X26782376Y-57956401D01*
X26722826Y-57950000D01*
X26075001Y-57950000D01*
X26075000Y-57950001D01*
X26075000Y-59199999D01*
X25575000Y-59199999D01*
X25575000Y-57950001D01*
X25574999Y-57950000D01*
X24927174Y-57950000D01*
X24867623Y-57956401D01*
X24732910Y-58006646D01*
X24617811Y-58092811D01*
X24531646Y-58207910D01*
X24481401Y-58342623D01*
X24475000Y-58402174D01*
X24475000Y-59199999D01*
X21037500Y-59199999D01*
X21037500Y-58999999D01*
X21537500Y-58999999D01*
X21537501Y-59000000D01*
X22374998Y-59000000D01*
X22374999Y-58999999D01*
X22374999Y-58725027D01*
X22364505Y-58622303D01*
X22309357Y-58455877D01*
X22217318Y-58306658D01*
X22093341Y-58182681D01*
X21944121Y-58090642D01*
X21777694Y-58035493D01*
X21674982Y-58025000D01*
X21537501Y-58025000D01*
X21537500Y-58025001D01*
X21537500Y-58999999D01*
X21037500Y-58999999D01*
X21037500Y-58025002D01*
X21037499Y-58025001D01*
X20900027Y-58025001D01*
X20797303Y-58035494D01*
X20630877Y-58090642D01*
X20481658Y-58182681D01*
X20357681Y-58306658D01*
X20265642Y-58455877D01*
X20212731Y-58615552D01*
X20177453Y-58664133D01*
X20120588Y-58683394D01*
X20063048Y-58666250D01*
X20025998Y-58619007D01*
X19993796Y-58532669D01*
X19959982Y-58487500D01*
X19907546Y-58417454D01*
X19792331Y-58331204D01*
X19792330Y-58331203D01*
X19696366Y-58295411D01*
X19657483Y-58280909D01*
X19597873Y-58274500D01*
X19597869Y-58274500D01*
X18827128Y-58274500D01*
X18767515Y-58280909D01*
X18632669Y-58331203D01*
X18517454Y-58417454D01*
X18431203Y-58532669D01*
X18381257Y-58666583D01*
X18352346Y-58707648D01*
X18307004Y-58729242D01*
X18256900Y-58725809D01*
X18214928Y-58698231D01*
X18105871Y-58577111D01*
X18041310Y-58530206D01*
X18011291Y-58495058D01*
X18000500Y-58450113D01*
X18000500Y-57868050D01*
X18011290Y-57823105D01*
X18017350Y-57811212D01*
X18035646Y-57775304D01*
X18050500Y-57681519D01*
X18050500Y-57243937D01*
X27670669Y-57243937D01*
X27701134Y-57416712D01*
X27770622Y-57577802D01*
X27770623Y-57577804D01*
X27875390Y-57718530D01*
X27943052Y-57775305D01*
X28009783Y-57831300D01*
X28009784Y-57831300D01*
X28009786Y-57831302D01*
X28123359Y-57888340D01*
X28166569Y-57910041D01*
X28337277Y-57950500D01*
X28337279Y-57950500D01*
X28468704Y-57950500D01*
X28468709Y-57950500D01*
X28599255Y-57935241D01*
X28764117Y-57875237D01*
X28910696Y-57778830D01*
X29031092Y-57651218D01*
X29118812Y-57499281D01*
X29169130Y-57331210D01*
X29179331Y-57156065D01*
X29157208Y-57030601D01*
X29148865Y-56983287D01*
X29079377Y-56822197D01*
X29079377Y-56822196D01*
X28974610Y-56681470D01*
X28907411Y-56625083D01*
X28840216Y-56568699D01*
X28683430Y-56489958D01*
X28512723Y-56449500D01*
X28512721Y-56449500D01*
X28381291Y-56449500D01*
X28288043Y-56460399D01*
X28250743Y-56464759D01*
X28085882Y-56524763D01*
X27939304Y-56621169D01*
X27818909Y-56748780D01*
X27731188Y-56900719D01*
X27680870Y-57068789D01*
X27670669Y-57243937D01*
X18050500Y-57243937D01*
X18050499Y-56593482D01*
X18050499Y-56593480D01*
X18050499Y-56593478D01*
X18035647Y-56499696D01*
X17978051Y-56386660D01*
X17978050Y-56386658D01*
X17888342Y-56296950D01*
X17775304Y-56239354D01*
X17775303Y-56239353D01*
X17775302Y-56239353D01*
X17681519Y-56224500D01*
X17443399Y-56224500D01*
X17388398Y-56207815D01*
X17351935Y-56163386D01*
X17346301Y-56106186D01*
X17373393Y-56055499D01*
X17625357Y-55803534D01*
X17650414Y-55785331D01*
X17679873Y-55775760D01*
X17751605Y-55764399D01*
X17775304Y-55760646D01*
X17888342Y-55703050D01*
X17978050Y-55613342D01*
X18035646Y-55500304D01*
X18040369Y-55470483D01*
X18062868Y-55421677D01*
X18107555Y-55391817D01*
X18161260Y-55389706D01*
X18208153Y-55415967D01*
X19700518Y-56908332D01*
X19713798Y-56924812D01*
X19717858Y-56931130D01*
X19756058Y-56964230D01*
X19761228Y-56969043D01*
X19771404Y-56979218D01*
X19771407Y-56979221D01*
X19782936Y-56987851D01*
X19788407Y-56992259D01*
X19826627Y-57025377D01*
X19833460Y-57028497D01*
X19851652Y-57039292D01*
X19857669Y-57043796D01*
X19892007Y-57056603D01*
X19905029Y-57061460D01*
X19911560Y-57064165D01*
X19928020Y-57071682D01*
X19957543Y-57085165D01*
X19964978Y-57086233D01*
X19985481Y-57091466D01*
X19992517Y-57094091D01*
X20042957Y-57097698D01*
X20049959Y-57098452D01*
X20057283Y-57099505D01*
X20064199Y-57100500D01*
X20064201Y-57100500D01*
X20078582Y-57100500D01*
X20085644Y-57100752D01*
X20136073Y-57104359D01*
X20143409Y-57102762D01*
X20164454Y-57100500D01*
X26749673Y-57100500D01*
X26749674Y-57100500D01*
X26822740Y-57085966D01*
X26905601Y-57030601D01*
X26960966Y-56947740D01*
X26975500Y-56874674D01*
X26975500Y-56325326D01*
X26960966Y-56252260D01*
X26960965Y-56252258D01*
X26959059Y-56242676D01*
X26946113Y-56200000D01*
X26959059Y-56157323D01*
X26960964Y-56147741D01*
X26960966Y-56147740D01*
X26975500Y-56074674D01*
X26975500Y-55525326D01*
X26960966Y-55452260D01*
X26960965Y-55452259D01*
X26959060Y-55442679D01*
X26946113Y-55399996D01*
X26959060Y-55357319D01*
X26960965Y-55347741D01*
X26960966Y-55347740D01*
X26975500Y-55274674D01*
X26975500Y-54936612D01*
X26985971Y-54892298D01*
X27015171Y-54857359D01*
X27082188Y-54807188D01*
X27168353Y-54692089D01*
X27218598Y-54557376D01*
X27225000Y-54497826D01*
X27225000Y-54450001D01*
X27224999Y-54450000D01*
X24225001Y-54450000D01*
X24225000Y-54450001D01*
X24225000Y-54497829D01*
X24226837Y-54514920D01*
X24217453Y-54568759D01*
X24180932Y-54609416D01*
X24128404Y-54624500D01*
X22446545Y-54624500D01*
X22408659Y-54616964D01*
X22376541Y-54595504D01*
X21731037Y-53949999D01*
X24225000Y-53949999D01*
X24225001Y-53950000D01*
X25474999Y-53950000D01*
X25475000Y-53949999D01*
X25975000Y-53949999D01*
X25975001Y-53950000D01*
X27224999Y-53950000D01*
X27225000Y-53949999D01*
X27225000Y-53902174D01*
X27218598Y-53842623D01*
X27215604Y-53834596D01*
X27209362Y-53799997D01*
X27215605Y-53765398D01*
X27218598Y-53757373D01*
X27225000Y-53697826D01*
X27225000Y-53650001D01*
X27224999Y-53650000D01*
X25975001Y-53650000D01*
X25975000Y-53650001D01*
X25975000Y-53949999D01*
X25475000Y-53949999D01*
X25475000Y-53650001D01*
X25474999Y-53650000D01*
X24225001Y-53650000D01*
X24225000Y-53650001D01*
X24225000Y-53697826D01*
X24231401Y-53757375D01*
X24234396Y-53765404D01*
X24240637Y-53799997D01*
X24234397Y-53834591D01*
X24231402Y-53842621D01*
X24225000Y-53902174D01*
X24225000Y-53949999D01*
X21731037Y-53949999D01*
X21654496Y-53873458D01*
X21633036Y-53841340D01*
X21625500Y-53803454D01*
X21625500Y-53149999D01*
X24225000Y-53149999D01*
X24225001Y-53150000D01*
X25474999Y-53150000D01*
X25475000Y-53149999D01*
X25975000Y-53149999D01*
X25975001Y-53150000D01*
X27224999Y-53150000D01*
X27225000Y-53149999D01*
X27225000Y-53102174D01*
X27218598Y-53042623D01*
X27168353Y-52907910D01*
X27120462Y-52843937D01*
X27670669Y-52843937D01*
X27701134Y-53016712D01*
X27770622Y-53177802D01*
X27770623Y-53177804D01*
X27875390Y-53318530D01*
X27920940Y-53356751D01*
X28009783Y-53431300D01*
X28009784Y-53431300D01*
X28009786Y-53431302D01*
X28166567Y-53510040D01*
X28166569Y-53510041D01*
X28337277Y-53550500D01*
X28337279Y-53550500D01*
X28468704Y-53550500D01*
X28468709Y-53550500D01*
X28599255Y-53535241D01*
X28764117Y-53475237D01*
X28910696Y-53378830D01*
X29031092Y-53251218D01*
X29118812Y-53099281D01*
X29169130Y-52931210D01*
X29179331Y-52756065D01*
X29161757Y-52656401D01*
X29148865Y-52583287D01*
X29098846Y-52467330D01*
X29079377Y-52422196D01*
X28974610Y-52281470D01*
X28903146Y-52221504D01*
X28840216Y-52168699D01*
X28683430Y-52089958D01*
X28512723Y-52049500D01*
X28512721Y-52049500D01*
X28381291Y-52049500D01*
X28288043Y-52060399D01*
X28250743Y-52064759D01*
X28085882Y-52124763D01*
X27939304Y-52221169D01*
X27818909Y-52348780D01*
X27731188Y-52500719D01*
X27680870Y-52668789D01*
X27670669Y-52843937D01*
X27120462Y-52843937D01*
X27082188Y-52792811D01*
X26967089Y-52706646D01*
X26832376Y-52656401D01*
X26772826Y-52650000D01*
X25975001Y-52650000D01*
X25975000Y-52650001D01*
X25975000Y-53149999D01*
X25475000Y-53149999D01*
X25475000Y-52650001D01*
X25474999Y-52650000D01*
X24677174Y-52650000D01*
X24617623Y-52656401D01*
X24482910Y-52706646D01*
X24367811Y-52792811D01*
X24281646Y-52907910D01*
X24231401Y-53042623D01*
X24225000Y-53102174D01*
X24225000Y-53149999D01*
X21625500Y-53149999D01*
X21625500Y-51597826D01*
X24475000Y-51597826D01*
X24481401Y-51657376D01*
X24531646Y-51792089D01*
X24617811Y-51907188D01*
X24732910Y-51993353D01*
X24867623Y-52043598D01*
X24927174Y-52050000D01*
X25574999Y-52050000D01*
X25575000Y-52049999D01*
X26075000Y-52049999D01*
X26075001Y-52050000D01*
X26722826Y-52050000D01*
X26782376Y-52043598D01*
X26917089Y-51993353D01*
X27032188Y-51907188D01*
X27118353Y-51792089D01*
X27168598Y-51657376D01*
X27175000Y-51597826D01*
X29925000Y-51597826D01*
X29931401Y-51657376D01*
X29981646Y-51792089D01*
X30067811Y-51907188D01*
X30182910Y-51993353D01*
X30317623Y-52043598D01*
X30377174Y-52050000D01*
X31024999Y-52050000D01*
X31025000Y-52049999D01*
X31525000Y-52049999D01*
X31525001Y-52050000D01*
X32172826Y-52050000D01*
X32232376Y-52043598D01*
X32367089Y-51993353D01*
X32482188Y-51907188D01*
X32568353Y-51792089D01*
X32618598Y-51657376D01*
X32625000Y-51597826D01*
X32625000Y-50800001D01*
X32624999Y-50800000D01*
X31525001Y-50800000D01*
X31525000Y-50800001D01*
X31525000Y-52049999D01*
X31025000Y-52049999D01*
X31025000Y-50800001D01*
X31024999Y-50800000D01*
X29925001Y-50800000D01*
X29925000Y-50800001D01*
X29925000Y-51597826D01*
X27175000Y-51597826D01*
X27175000Y-50800001D01*
X27174999Y-50800000D01*
X26075001Y-50800000D01*
X26075000Y-50800001D01*
X26075000Y-52049999D01*
X25575000Y-52049999D01*
X25575000Y-50800001D01*
X25574999Y-50800000D01*
X24475001Y-50800000D01*
X24475000Y-50800001D01*
X24475000Y-51597826D01*
X21625500Y-51597826D01*
X21625500Y-50299999D01*
X24475000Y-50299999D01*
X24475001Y-50300000D01*
X25574999Y-50300000D01*
X25575000Y-50299999D01*
X26075000Y-50299999D01*
X26075001Y-50300000D01*
X27174999Y-50300000D01*
X27175000Y-50299999D01*
X29925000Y-50299999D01*
X29925001Y-50300000D01*
X31024999Y-50300000D01*
X31025000Y-50299999D01*
X31525000Y-50299999D01*
X31525001Y-50300000D01*
X32624999Y-50300000D01*
X32625000Y-50299999D01*
X32625000Y-49502174D01*
X32618598Y-49442623D01*
X32568353Y-49307910D01*
X32482188Y-49192811D01*
X32367089Y-49106646D01*
X32232376Y-49056401D01*
X32172826Y-49050000D01*
X31525001Y-49050000D01*
X31525000Y-49050001D01*
X31525000Y-50299999D01*
X31025000Y-50299999D01*
X31025000Y-49050001D01*
X31024999Y-49050000D01*
X30377174Y-49050000D01*
X30317623Y-49056401D01*
X30182910Y-49106646D01*
X30067811Y-49192811D01*
X29981646Y-49307910D01*
X29931401Y-49442623D01*
X29925000Y-49502174D01*
X29925000Y-50299999D01*
X27175000Y-50299999D01*
X27175000Y-49502174D01*
X27168598Y-49442623D01*
X27118353Y-49307910D01*
X27032188Y-49192811D01*
X26917089Y-49106646D01*
X26782376Y-49056401D01*
X26722826Y-49050000D01*
X26075001Y-49050000D01*
X26075000Y-49050001D01*
X26075000Y-50299999D01*
X25575000Y-50299999D01*
X25575000Y-49050001D01*
X25574999Y-49050000D01*
X24927174Y-49050000D01*
X24867623Y-49056401D01*
X24732910Y-49106646D01*
X24617811Y-49192811D01*
X24531646Y-49307910D01*
X24481401Y-49442623D01*
X24475000Y-49502174D01*
X24475000Y-50299999D01*
X21625500Y-50299999D01*
X21625500Y-48700605D01*
X21643179Y-48644143D01*
X21689903Y-48607847D01*
X21723778Y-48595212D01*
X21723778Y-48595211D01*
X21836116Y-48511116D01*
X21920212Y-48398778D01*
X21937509Y-48352404D01*
X21973805Y-48305680D01*
X22030267Y-48288000D01*
X22244930Y-48288000D01*
X22294430Y-48301263D01*
X22330666Y-48337499D01*
X22367627Y-48401518D01*
X22375068Y-48414405D01*
X22494696Y-48547265D01*
X22639332Y-48652351D01*
X22747714Y-48700605D01*
X22802659Y-48725068D01*
X22977535Y-48762239D01*
X23156315Y-48762239D01*
X23156317Y-48762239D01*
X23331193Y-48725068D01*
X23494519Y-48652351D01*
X23639156Y-48547265D01*
X23758785Y-48414404D01*
X23848176Y-48259574D01*
X23903423Y-48089542D01*
X23922111Y-47911739D01*
X23903423Y-47733936D01*
X23848176Y-47563904D01*
X23758785Y-47409074D01*
X23639156Y-47276213D01*
X23587778Y-47238884D01*
X23494519Y-47171126D01*
X23331196Y-47098411D01*
X23331194Y-47098410D01*
X23331193Y-47098410D01*
X23156317Y-47061239D01*
X22977535Y-47061239D01*
X22890096Y-47079824D01*
X22802657Y-47098410D01*
X22639335Y-47171126D01*
X22494693Y-47276214D01*
X22375065Y-47409075D01*
X22329787Y-47487500D01*
X22293551Y-47523737D01*
X22244051Y-47537000D01*
X22030267Y-47537000D01*
X21973805Y-47519320D01*
X21937509Y-47472596D01*
X21920212Y-47426222D01*
X21907375Y-47409074D01*
X21836116Y-47313884D01*
X21785793Y-47276212D01*
X21723778Y-47229787D01*
X21592299Y-47180748D01*
X21544458Y-47175605D01*
X21534174Y-47174500D01*
X20965826Y-47174500D01*
X20956377Y-47175515D01*
X20907700Y-47180748D01*
X20776221Y-47229787D01*
X20663884Y-47313884D01*
X20579787Y-47426221D01*
X20530748Y-47557700D01*
X20524500Y-47615828D01*
X20524500Y-48209172D01*
X20530748Y-48267299D01*
X20579787Y-48398778D01*
X20614921Y-48445710D01*
X20663884Y-48511116D01*
X20709829Y-48545510D01*
X20776221Y-48595212D01*
X20810097Y-48607847D01*
X20856821Y-48644143D01*
X20874500Y-48700605D01*
X20874500Y-53950789D01*
X20872393Y-53971105D01*
X20869633Y-53984267D01*
X20873740Y-54017217D01*
X20874500Y-54029462D01*
X20874500Y-54031118D01*
X20878003Y-54052115D01*
X20878593Y-54056159D01*
X20885756Y-54113622D01*
X20887536Y-54119178D01*
X20915088Y-54170091D01*
X20916959Y-54173726D01*
X20942390Y-54225743D01*
X20945867Y-54230407D01*
X20949580Y-54233825D01*
X20949581Y-54233826D01*
X20988473Y-54269629D01*
X20991400Y-54272437D01*
X21949686Y-55230723D01*
X21962561Y-55246579D01*
X21978746Y-55271352D01*
X21994782Y-55321409D01*
X21982935Y-55372619D01*
X21946544Y-55410546D01*
X21895867Y-55424500D01*
X21171545Y-55424500D01*
X21133659Y-55416964D01*
X21101541Y-55395504D01*
X19904496Y-54198458D01*
X19883036Y-54166340D01*
X19875500Y-54128454D01*
X19875500Y-48700605D01*
X19893179Y-48644143D01*
X19939903Y-48607847D01*
X19973778Y-48595212D01*
X19973778Y-48595211D01*
X20086116Y-48511116D01*
X20170212Y-48398778D01*
X20219251Y-48267299D01*
X20225500Y-48209174D01*
X20225500Y-47615826D01*
X20219251Y-47557701D01*
X20193067Y-47487500D01*
X20170212Y-47426221D01*
X20114066Y-47351221D01*
X20086116Y-47313884D01*
X20035793Y-47276212D01*
X19973778Y-47229787D01*
X19842299Y-47180748D01*
X19794458Y-47175605D01*
X19784174Y-47174500D01*
X19215826Y-47174500D01*
X19206377Y-47175515D01*
X19157700Y-47180748D01*
X19026221Y-47229787D01*
X18913884Y-47313884D01*
X18829787Y-47426221D01*
X18780748Y-47557700D01*
X18774500Y-47615828D01*
X18774500Y-48209172D01*
X18780748Y-48267299D01*
X18829787Y-48398778D01*
X18864921Y-48445710D01*
X18913884Y-48511116D01*
X18959829Y-48545510D01*
X19026221Y-48595212D01*
X19060097Y-48607847D01*
X19106821Y-48644143D01*
X19124500Y-48700605D01*
X19124500Y-49694205D01*
X19111237Y-49743704D01*
X19075001Y-49779941D01*
X19025502Y-49793205D01*
X18976003Y-49779943D01*
X18950034Y-49753976D01*
X18948822Y-49755068D01*
X18822229Y-49614473D01*
X18677593Y-49509387D01*
X18514270Y-49436672D01*
X18514268Y-49436671D01*
X18514267Y-49436671D01*
X18339391Y-49399500D01*
X18160609Y-49399500D01*
X17985733Y-49436671D01*
X17985732Y-49436671D01*
X17985729Y-49436672D01*
X17862435Y-49491565D01*
X17804127Y-49498466D01*
X17752165Y-49471128D01*
X17457259Y-49176222D01*
X17154496Y-48873458D01*
X17133036Y-48841340D01*
X17125500Y-48803454D01*
X17125500Y-48700605D01*
X17143179Y-48644143D01*
X17189903Y-48607847D01*
X17223778Y-48595212D01*
X17223778Y-48595211D01*
X17336116Y-48511116D01*
X17420212Y-48398778D01*
X17469251Y-48267299D01*
X17475500Y-48209174D01*
X17475500Y-47615826D01*
X17469251Y-47557701D01*
X17443067Y-47487500D01*
X17420212Y-47426221D01*
X17364066Y-47351221D01*
X17336116Y-47313884D01*
X17285793Y-47276212D01*
X17223778Y-47229787D01*
X17092299Y-47180748D01*
X17044458Y-47175605D01*
X17034174Y-47174500D01*
X16465826Y-47174500D01*
X16456377Y-47175515D01*
X16407700Y-47180748D01*
X16276221Y-47229787D01*
X16163885Y-47313883D01*
X16093818Y-47407480D01*
X16051602Y-47439961D01*
X15998664Y-47445865D01*
X15950329Y-47423481D01*
X15920590Y-47379290D01*
X15910453Y-47348699D01*
X15819944Y-47201962D01*
X15698037Y-47080055D01*
X15551300Y-46989546D01*
X15465793Y-46961212D01*
X15417211Y-46925934D01*
X15397950Y-46869067D01*
X15415095Y-46811528D01*
X15462340Y-46774478D01*
X15473778Y-46770212D01*
X15498130Y-46751982D01*
X15586116Y-46686116D01*
X15670212Y-46573778D01*
X15719251Y-46442299D01*
X15725500Y-46384174D01*
X15725500Y-45833045D01*
X15742185Y-45778044D01*
X15786614Y-45741581D01*
X15843814Y-45735947D01*
X15894504Y-45763041D01*
X15995504Y-45864041D01*
X16016964Y-45896159D01*
X16024500Y-45934045D01*
X16024500Y-46384172D01*
X16030748Y-46442299D01*
X16079787Y-46573778D01*
X16127880Y-46638022D01*
X16163884Y-46686116D01*
X16228128Y-46734208D01*
X16276221Y-46770212D01*
X16407700Y-46819251D01*
X16427076Y-46821334D01*
X16465826Y-46825500D01*
X17034172Y-46825500D01*
X17034174Y-46825500D01*
X17092299Y-46819251D01*
X17223778Y-46770212D01*
X17336116Y-46686116D01*
X17420212Y-46573778D01*
X17469251Y-46442299D01*
X17475500Y-46384174D01*
X17475500Y-45790826D01*
X17471251Y-45751309D01*
X17483220Y-45692510D01*
X17526957Y-45651424D01*
X17586391Y-45643149D01*
X17639688Y-45670725D01*
X18287186Y-46318223D01*
X18300058Y-46334075D01*
X18307416Y-46345336D01*
X18327992Y-46361351D01*
X18333613Y-46365726D01*
X18342805Y-46373842D01*
X18343982Y-46375019D01*
X18361301Y-46387384D01*
X18364583Y-46389831D01*
X18410299Y-46425413D01*
X18415454Y-46428066D01*
X18420298Y-46429508D01*
X18420301Y-46429510D01*
X18470971Y-46444594D01*
X18474820Y-46445828D01*
X18524840Y-46463000D01*
X18524841Y-46463000D01*
X18529609Y-46464637D01*
X18535372Y-46465476D01*
X18540410Y-46465267D01*
X18540412Y-46465268D01*
X18593200Y-46463085D01*
X18597292Y-46463000D01*
X18719733Y-46463000D01*
X18776195Y-46480680D01*
X18812491Y-46527404D01*
X18829787Y-46573777D01*
X18829788Y-46573778D01*
X18913884Y-46686116D01*
X18978128Y-46734208D01*
X19026221Y-46770212D01*
X19157700Y-46819251D01*
X19177076Y-46821334D01*
X19215826Y-46825500D01*
X19784172Y-46825500D01*
X19784174Y-46825500D01*
X19842299Y-46819251D01*
X19973778Y-46770212D01*
X20086116Y-46686116D01*
X20170212Y-46573778D01*
X20219251Y-46442299D01*
X20225500Y-46384174D01*
X20225500Y-45833045D01*
X20242185Y-45778044D01*
X20286614Y-45741581D01*
X20343814Y-45735947D01*
X20394504Y-45763041D01*
X20495504Y-45864041D01*
X20516964Y-45896159D01*
X20524500Y-45934045D01*
X20524500Y-46384172D01*
X20530748Y-46442299D01*
X20579787Y-46573778D01*
X20627880Y-46638022D01*
X20663884Y-46686116D01*
X20728128Y-46734208D01*
X20776221Y-46770212D01*
X20907700Y-46819251D01*
X20927076Y-46821334D01*
X20965826Y-46825500D01*
X21534172Y-46825500D01*
X21534174Y-46825500D01*
X21592299Y-46819251D01*
X21723778Y-46770212D01*
X21836116Y-46686116D01*
X21920212Y-46573778D01*
X21969251Y-46442299D01*
X21975500Y-46384174D01*
X21975500Y-45790826D01*
X21969251Y-45732701D01*
X21952205Y-45687000D01*
X21920212Y-45601221D01*
X21867112Y-45530290D01*
X21836116Y-45488884D01*
X21769143Y-45438748D01*
X21723778Y-45404787D01*
X21592299Y-45355748D01*
X21544458Y-45350605D01*
X21534174Y-45349500D01*
X21534172Y-45349500D01*
X21084046Y-45349500D01*
X21046160Y-45341964D01*
X21014042Y-45320504D01*
X20738042Y-45044504D01*
X20710948Y-44993814D01*
X20716582Y-44936614D01*
X20753045Y-44892185D01*
X20808046Y-44875500D01*
X28280789Y-44875500D01*
X28301105Y-44877607D01*
X28314268Y-44880367D01*
X28347216Y-44876260D01*
X28359462Y-44875500D01*
X28361112Y-44875500D01*
X28361114Y-44875500D01*
X28382147Y-44871989D01*
X28386143Y-44871407D01*
X28438626Y-44864866D01*
X28438627Y-44864865D01*
X28443637Y-44864241D01*
X28449163Y-44862470D01*
X28453605Y-44860065D01*
X28453610Y-44860065D01*
X28500104Y-44834903D01*
X28503694Y-44833055D01*
X28551211Y-44809826D01*
X28551212Y-44809824D01*
X28555755Y-44807604D01*
X28560397Y-44804142D01*
X28563822Y-44800420D01*
X28563826Y-44800419D01*
X28599652Y-44761500D01*
X28602414Y-44758621D01*
X28986491Y-44374544D01*
X29036059Y-44347682D01*
X29092256Y-44352235D01*
X29197546Y-44393025D01*
X29398022Y-44430500D01*
X29398024Y-44430500D01*
X29601976Y-44430500D01*
X29601978Y-44430500D01*
X29802453Y-44393025D01*
X29811085Y-44389681D01*
X29992637Y-44319348D01*
X30166041Y-44211981D01*
X30214672Y-44167647D01*
X30269502Y-44142523D01*
X30328738Y-44153880D01*
X30370391Y-44197502D01*
X30379000Y-44257200D01*
X30351370Y-44310814D01*
X29883800Y-44778384D01*
X29843081Y-44802949D01*
X29795605Y-44805694D01*
X29601979Y-44769500D01*
X29601976Y-44769500D01*
X29398024Y-44769500D01*
X29398022Y-44769500D01*
X29197546Y-44806974D01*
X29007360Y-44880653D01*
X28833961Y-44988017D01*
X28833958Y-44988019D01*
X28833959Y-44988019D01*
X28683236Y-45125421D01*
X28671506Y-45140954D01*
X28560325Y-45288181D01*
X28474218Y-45461110D01*
X28469418Y-45470750D01*
X28413603Y-45666917D01*
X28394785Y-45870000D01*
X28413603Y-46073083D01*
X28462344Y-46244389D01*
X28469419Y-46269252D01*
X28560325Y-46451818D01*
X28560326Y-46451819D01*
X28560327Y-46451821D01*
X28683236Y-46614579D01*
X28833959Y-46751981D01*
X29007363Y-46859348D01*
X29157254Y-46917415D01*
X29197546Y-46933025D01*
X29398022Y-46970500D01*
X29398024Y-46970500D01*
X29601976Y-46970500D01*
X29601978Y-46970500D01*
X29802453Y-46933025D01*
X29802456Y-46933024D01*
X29992637Y-46859348D01*
X30166041Y-46751981D01*
X30316764Y-46614579D01*
X30439673Y-46451821D01*
X30530582Y-46269250D01*
X30586397Y-46073083D01*
X30605215Y-45870000D01*
X30586397Y-45666917D01*
X30563443Y-45586246D01*
X30562844Y-45534269D01*
X30588659Y-45489153D01*
X32098335Y-43979477D01*
X32114816Y-43966199D01*
X32121128Y-43962143D01*
X32154258Y-43923907D01*
X32159033Y-43918779D01*
X32169221Y-43908593D01*
X32177858Y-43897053D01*
X32182284Y-43891563D01*
X32183005Y-43890732D01*
X32211556Y-43857783D01*
X32215375Y-43853376D01*
X32215375Y-43853374D01*
X32215377Y-43853373D01*
X32218493Y-43846548D01*
X32229290Y-43828349D01*
X32233796Y-43822331D01*
X32251466Y-43774952D01*
X32254159Y-43768450D01*
X32275165Y-43722457D01*
X32276233Y-43715022D01*
X32281467Y-43694517D01*
X32284091Y-43687483D01*
X32287698Y-43637043D01*
X32288453Y-43630032D01*
X32290500Y-43615801D01*
X32290500Y-43601418D01*
X32290752Y-43594356D01*
X32293677Y-43553455D01*
X32294359Y-43543927D01*
X32292762Y-43536590D01*
X32290500Y-43515546D01*
X32290500Y-31439877D01*
X32304585Y-31388980D01*
X32342833Y-31352566D01*
X32355237Y-31345936D01*
X32509410Y-31219410D01*
X32635936Y-31065237D01*
X32672555Y-30996729D01*
X32729954Y-30889342D01*
X32771414Y-30752666D01*
X32787850Y-30698485D01*
X32807399Y-30500000D01*
X32787850Y-30301515D01*
X32729954Y-30110658D01*
X32729954Y-30110657D01*
X32635937Y-29934763D01*
X32572672Y-29857676D01*
X32509410Y-29780590D01*
X32435330Y-29719794D01*
X32355236Y-29654062D01*
X32179342Y-29560045D01*
X31988483Y-29502149D01*
X31790000Y-29482600D01*
X31591516Y-29502149D01*
X31400657Y-29560045D01*
X31224763Y-29654062D01*
X31070590Y-29780590D01*
X30944062Y-29934763D01*
X30850045Y-30110657D01*
X30792149Y-30301516D01*
X30772600Y-30499999D01*
X30792149Y-30698483D01*
X30850045Y-30889342D01*
X30944062Y-31065236D01*
X31018670Y-31156146D01*
X31070590Y-31219410D01*
X31164519Y-31296495D01*
X31224761Y-31345935D01*
X31237167Y-31352566D01*
X31275415Y-31388980D01*
X31289500Y-31439877D01*
X31289500Y-43331678D01*
X31281964Y-43369564D01*
X31260504Y-43401682D01*
X30489922Y-44172263D01*
X30438109Y-44199573D01*
X30379930Y-44192824D01*
X30335746Y-44154376D01*
X30321024Y-44097687D01*
X30340913Y-44042600D01*
X30439673Y-43911821D01*
X30530582Y-43729250D01*
X30586397Y-43533083D01*
X30605215Y-43330000D01*
X30586397Y-43126917D01*
X30530582Y-42930750D01*
X30439673Y-42748179D01*
X30316764Y-42585421D01*
X30166041Y-42448019D01*
X30166038Y-42448017D01*
X29992639Y-42340653D01*
X29992637Y-42340652D01*
X29931775Y-42317074D01*
X29802453Y-42266974D01*
X29601978Y-42229500D01*
X29601976Y-42229500D01*
X29398024Y-42229500D01*
X29398022Y-42229500D01*
X29197546Y-42266974D01*
X29007360Y-42340653D01*
X28833961Y-42448017D01*
X28683237Y-42585420D01*
X28560325Y-42748181D01*
X28469419Y-42930747D01*
X28413603Y-43126917D01*
X28399213Y-43282218D01*
X28394785Y-43330000D01*
X28413603Y-43533083D01*
X28469418Y-43729250D01*
X28469419Y-43729252D01*
X28471008Y-43732443D01*
X28471780Y-43737551D01*
X28471929Y-43738073D01*
X28471862Y-43738091D01*
X28480093Y-43792508D01*
X28452389Y-43846571D01*
X28203459Y-44095503D01*
X28171341Y-44116964D01*
X28133455Y-44124500D01*
X19138397Y-44124500D01*
X19100511Y-44116964D01*
X19068393Y-44095504D01*
X18404496Y-43431606D01*
X18383036Y-43399488D01*
X18375500Y-43361602D01*
X18375500Y-41722722D01*
X18384775Y-41680884D01*
X18389751Y-41670212D01*
X18394259Y-41660545D01*
X18400500Y-41613139D01*
X18400499Y-40861498D01*
X18413762Y-40812000D01*
X18449999Y-40775764D01*
X18499499Y-40762500D01*
X18500500Y-40762500D01*
X18550000Y-40775763D01*
X18586236Y-40812000D01*
X18599500Y-40861500D01*
X18599500Y-41613141D01*
X18605740Y-41660543D01*
X18605741Y-41660545D01*
X18625182Y-41702237D01*
X18640724Y-41735565D01*
X18650000Y-41777405D01*
X18650000Y-42145088D01*
X18725104Y-42135200D01*
X18864981Y-42077261D01*
X18985095Y-41985094D01*
X19020287Y-41939232D01*
X19055042Y-41910709D01*
X19098828Y-41900499D01*
X19113138Y-41900499D01*
X19113142Y-41900499D01*
X19160545Y-41894259D01*
X19208161Y-41872055D01*
X19264579Y-41845747D01*
X19345747Y-41764579D01*
X19394259Y-41660545D01*
X19400500Y-41613139D01*
X19400500Y-41387000D01*
X19413763Y-41337500D01*
X19450000Y-41301263D01*
X19499500Y-41288000D01*
X21629260Y-41288000D01*
X21685722Y-41305680D01*
X21722018Y-41352404D01*
X21767287Y-41473777D01*
X21767288Y-41473778D01*
X21851384Y-41586116D01*
X21935323Y-41648953D01*
X21959829Y-41667298D01*
X21989028Y-41702237D01*
X21999500Y-41746551D01*
X21999500Y-41751678D01*
X21991964Y-41789564D01*
X21970503Y-41821682D01*
X21599827Y-42192357D01*
X21553774Y-42218412D01*
X21500879Y-42217027D01*
X21456253Y-42188597D01*
X21355873Y-42077113D01*
X21249045Y-41999499D01*
X21202730Y-41965849D01*
X21198411Y-41963926D01*
X21029804Y-41888856D01*
X20950760Y-41872055D01*
X20844646Y-41849500D01*
X20655354Y-41849500D01*
X20592881Y-41862779D01*
X20470195Y-41888856D01*
X20297271Y-41965848D01*
X20144126Y-42077113D01*
X20017468Y-42217781D01*
X19922821Y-42381715D01*
X19864325Y-42561744D01*
X19864326Y-42561744D01*
X19844540Y-42750000D01*
X19864326Y-42938256D01*
X19888726Y-43013350D01*
X19922821Y-43118284D01*
X20017468Y-43282218D01*
X20144126Y-43422886D01*
X20144129Y-43422888D01*
X20297270Y-43534151D01*
X20470197Y-43611144D01*
X20655354Y-43650500D01*
X20844644Y-43650500D01*
X20844646Y-43650500D01*
X21029803Y-43611144D01*
X21202730Y-43534151D01*
X21355871Y-43422888D01*
X21370971Y-43406118D01*
X21481597Y-43283256D01*
X21514901Y-43259059D01*
X21555168Y-43250500D01*
X21685546Y-43250500D01*
X21706590Y-43252762D01*
X21713927Y-43254359D01*
X21764355Y-43250752D01*
X21771418Y-43250500D01*
X21785801Y-43250500D01*
X21794391Y-43249264D01*
X21800037Y-43248452D01*
X21807043Y-43247698D01*
X21857483Y-43244091D01*
X21864517Y-43241467D01*
X21885022Y-43236233D01*
X21892457Y-43235165D01*
X21938450Y-43214159D01*
X21944952Y-43211466D01*
X21992331Y-43193796D01*
X21998349Y-43189290D01*
X22016548Y-43178493D01*
X22023373Y-43175377D01*
X22023374Y-43175375D01*
X22023376Y-43175375D01*
X22061563Y-43142284D01*
X22067053Y-43137858D01*
X22078593Y-43129221D01*
X22088779Y-43119033D01*
X22093907Y-43114258D01*
X22132143Y-43081128D01*
X22136199Y-43074814D01*
X22149477Y-43058335D01*
X22808335Y-42399477D01*
X22824816Y-42386199D01*
X22831128Y-42382143D01*
X22864258Y-42343907D01*
X22869033Y-42338779D01*
X22879221Y-42328593D01*
X22887858Y-42317053D01*
X22892284Y-42311563D01*
X22925375Y-42273376D01*
X22925375Y-42273374D01*
X22925377Y-42273373D01*
X22928493Y-42266548D01*
X22939290Y-42248349D01*
X22943796Y-42242331D01*
X22961466Y-42194952D01*
X22964159Y-42188450D01*
X22985165Y-42142457D01*
X22986233Y-42135022D01*
X22991467Y-42114517D01*
X22994091Y-42107483D01*
X22997698Y-42057043D01*
X22998453Y-42050032D01*
X23000500Y-42035801D01*
X23000500Y-42021418D01*
X23000752Y-42014356D01*
X23000791Y-42013797D01*
X23004359Y-41963927D01*
X23002762Y-41956590D01*
X23000500Y-41935546D01*
X23000500Y-41746551D01*
X23010971Y-41702238D01*
X23040168Y-41667299D01*
X23147348Y-41587064D01*
X23197870Y-41567712D01*
X23251026Y-41577811D01*
X23290933Y-41614347D01*
X23342552Y-41698034D01*
X23464462Y-41819944D01*
X23611199Y-41910453D01*
X23774850Y-41964681D01*
X23875850Y-41975000D01*
X23974999Y-41975000D01*
X23975000Y-41974999D01*
X23975000Y-41974998D01*
X24475000Y-41974998D01*
X24475001Y-41974999D01*
X24574151Y-41974999D01*
X24675148Y-41964682D01*
X24838800Y-41910453D01*
X24985537Y-41819944D01*
X25107444Y-41698037D01*
X25197953Y-41551300D01*
X25252181Y-41387649D01*
X25262500Y-41286650D01*
X25262500Y-41250001D01*
X25262499Y-41250000D01*
X24475001Y-41250000D01*
X24475000Y-41250001D01*
X24475000Y-41974998D01*
X23975000Y-41974998D01*
X23975000Y-40849000D01*
X23988263Y-40799500D01*
X24024500Y-40763263D01*
X24074000Y-40750000D01*
X25262498Y-40750000D01*
X25262499Y-40749999D01*
X25262499Y-40713349D01*
X25252182Y-40612351D01*
X25197953Y-40448699D01*
X25107444Y-40301962D01*
X24985537Y-40180055D01*
X24838800Y-40089546D01*
X24775210Y-40068475D01*
X24729776Y-40037249D01*
X24708088Y-39986565D01*
X24716870Y-39932140D01*
X24753400Y-39890850D01*
X24806350Y-39875500D01*
X25303455Y-39875500D01*
X25341341Y-39883036D01*
X25373459Y-39904496D01*
X26489686Y-41020723D01*
X26502558Y-41036575D01*
X26509916Y-41047836D01*
X26530492Y-41063851D01*
X26536113Y-41068226D01*
X26545305Y-41076342D01*
X26546482Y-41077519D01*
X26563801Y-41089884D01*
X26567083Y-41092331D01*
X26612799Y-41127913D01*
X26617954Y-41130566D01*
X26622798Y-41132008D01*
X26622801Y-41132010D01*
X26673472Y-41147095D01*
X26677322Y-41148329D01*
X26727340Y-41165500D01*
X26727341Y-41165500D01*
X26732110Y-41167137D01*
X26737871Y-41167976D01*
X26742909Y-41167767D01*
X26742911Y-41167768D01*
X26795699Y-41165585D01*
X26799791Y-41165500D01*
X28396293Y-41165500D01*
X28448410Y-41180328D01*
X28484914Y-41220372D01*
X28560325Y-41371818D01*
X28560326Y-41371819D01*
X28560327Y-41371821D01*
X28683236Y-41534579D01*
X28833959Y-41671981D01*
X29007363Y-41779348D01*
X29157254Y-41837415D01*
X29197546Y-41853025D01*
X29398022Y-41890500D01*
X29398024Y-41890500D01*
X29601976Y-41890500D01*
X29601978Y-41890500D01*
X29802453Y-41853025D01*
X29803692Y-41852545D01*
X29992637Y-41779348D01*
X30166041Y-41671981D01*
X30316764Y-41534579D01*
X30439673Y-41371821D01*
X30530582Y-41189250D01*
X30586397Y-40993083D01*
X30605215Y-40790000D01*
X30586397Y-40586917D01*
X30530582Y-40390750D01*
X30439673Y-40208179D01*
X30316764Y-40045421D01*
X30166041Y-39908019D01*
X30160351Y-39904496D01*
X29992639Y-39800653D01*
X29992637Y-39800652D01*
X29968534Y-39791314D01*
X29925294Y-39758661D01*
X29905720Y-39708135D01*
X29915677Y-39654872D01*
X29952181Y-39614829D01*
X30004298Y-39600000D01*
X30397826Y-39600000D01*
X30457376Y-39593598D01*
X30592089Y-39543353D01*
X30707188Y-39457188D01*
X30793353Y-39342089D01*
X30843598Y-39207376D01*
X30850000Y-39147826D01*
X30850000Y-38500001D01*
X30849999Y-38500000D01*
X28150001Y-38500000D01*
X28150000Y-38500001D01*
X28150000Y-39147826D01*
X28156401Y-39207376D01*
X28206646Y-39342089D01*
X28292811Y-39457188D01*
X28407910Y-39543353D01*
X28542623Y-39593598D01*
X28602174Y-39600000D01*
X28995702Y-39600000D01*
X29047819Y-39614829D01*
X29084323Y-39654872D01*
X29094280Y-39708135D01*
X29074706Y-39758661D01*
X29031465Y-39791315D01*
X29007360Y-39800653D01*
X28833961Y-39908017D01*
X28723698Y-40008535D01*
X28683236Y-40045421D01*
X28663540Y-40071503D01*
X28560325Y-40208181D01*
X28484914Y-40359628D01*
X28448410Y-40399672D01*
X28396293Y-40414500D01*
X26986546Y-40414500D01*
X26948660Y-40406964D01*
X26916542Y-40385504D01*
X25800311Y-39269273D01*
X25787435Y-39253416D01*
X25780083Y-39242162D01*
X25753888Y-39221774D01*
X25744697Y-39213659D01*
X25743518Y-39212480D01*
X25734931Y-39206349D01*
X25726170Y-39200094D01*
X25722887Y-39197646D01*
X25677207Y-39162091D01*
X25672040Y-39159431D01*
X25616551Y-39142911D01*
X25612669Y-39141667D01*
X25591638Y-39134447D01*
X25557890Y-39122862D01*
X25552127Y-39122023D01*
X25494299Y-39124415D01*
X25490208Y-39124500D01*
X21499500Y-39124500D01*
X21450000Y-39111237D01*
X21413764Y-39075000D01*
X21400500Y-39025501D01*
X21400499Y-38886858D01*
X21394259Y-38839456D01*
X21394258Y-38839454D01*
X21372054Y-38791838D01*
X21362779Y-38749999D01*
X21372054Y-38708163D01*
X21394259Y-38660545D01*
X21400500Y-38613139D01*
X21400499Y-38386862D01*
X21400498Y-38386858D01*
X21397282Y-38362420D01*
X21405711Y-38307660D01*
X21442243Y-38266004D01*
X21495435Y-38250500D01*
X23694832Y-38250500D01*
X23735099Y-38259059D01*
X23768403Y-38283256D01*
X23894126Y-38422886D01*
X23894129Y-38422888D01*
X24047270Y-38534151D01*
X24220197Y-38611144D01*
X24405354Y-38650500D01*
X24594644Y-38650500D01*
X24594646Y-38650500D01*
X24779803Y-38611144D01*
X24952730Y-38534151D01*
X25105871Y-38422888D01*
X25232533Y-38282216D01*
X25327179Y-38118284D01*
X25365612Y-37999999D01*
X28150000Y-37999999D01*
X28150001Y-38000000D01*
X29249999Y-38000000D01*
X29250000Y-37999999D01*
X29750000Y-37999999D01*
X29750001Y-38000000D01*
X30849999Y-38000000D01*
X30850000Y-37999999D01*
X30850000Y-37352174D01*
X30843598Y-37292623D01*
X30793353Y-37157910D01*
X30707188Y-37042811D01*
X30592089Y-36956646D01*
X30457376Y-36906401D01*
X30397826Y-36900000D01*
X29750001Y-36900000D01*
X29750000Y-36900001D01*
X29750000Y-37999999D01*
X29250000Y-37999999D01*
X29250000Y-36900001D01*
X29249999Y-36900000D01*
X28602174Y-36900000D01*
X28542623Y-36906401D01*
X28407910Y-36956646D01*
X28292811Y-37042811D01*
X28206646Y-37157910D01*
X28156401Y-37292623D01*
X28150000Y-37352174D01*
X28150000Y-37999999D01*
X25365612Y-37999999D01*
X25385674Y-37938256D01*
X25405460Y-37750000D01*
X25385674Y-37561744D01*
X25327179Y-37381716D01*
X25232533Y-37217784D01*
X25232532Y-37217783D01*
X25232531Y-37217781D01*
X25105873Y-37077113D01*
X25029300Y-37021480D01*
X24952730Y-36965849D01*
X24932060Y-36956646D01*
X24779804Y-36888856D01*
X24718084Y-36875737D01*
X24594646Y-36849500D01*
X24405354Y-36849500D01*
X24312775Y-36869177D01*
X24220195Y-36888856D01*
X24047271Y-36965848D01*
X23894126Y-37077113D01*
X23768403Y-37216744D01*
X23735099Y-37240941D01*
X23694832Y-37249500D01*
X21495436Y-37249500D01*
X21442244Y-37233996D01*
X21405712Y-37192340D01*
X21397283Y-37137579D01*
X21398496Y-37128359D01*
X21400500Y-37113139D01*
X21400499Y-36886862D01*
X21400499Y-36886861D01*
X21400499Y-36886858D01*
X21394259Y-36839456D01*
X21394258Y-36839454D01*
X21372054Y-36791838D01*
X21362779Y-36749999D01*
X21372054Y-36708163D01*
X21394259Y-36660545D01*
X21400500Y-36613139D01*
X21400499Y-36474499D01*
X21413762Y-36425000D01*
X21449999Y-36388764D01*
X21499499Y-36375500D01*
X22200789Y-36375500D01*
X22221105Y-36377607D01*
X22234268Y-36380367D01*
X22267216Y-36376260D01*
X22279462Y-36375500D01*
X22281112Y-36375500D01*
X22281114Y-36375500D01*
X22302147Y-36371989D01*
X22306143Y-36371407D01*
X22358626Y-36364866D01*
X22358627Y-36364865D01*
X22363637Y-36364241D01*
X22369163Y-36362470D01*
X22373605Y-36360065D01*
X22373610Y-36360065D01*
X22420104Y-36334903D01*
X22423694Y-36333055D01*
X22471211Y-36309826D01*
X22471212Y-36309824D01*
X22475755Y-36307604D01*
X22480397Y-36304142D01*
X22483822Y-36300420D01*
X22483826Y-36300419D01*
X22519665Y-36261486D01*
X22522426Y-36258609D01*
X22626540Y-36154496D01*
X22658659Y-36133036D01*
X22696544Y-36125500D01*
X22886895Y-36125500D01*
X22943357Y-36143179D01*
X22979653Y-36189903D01*
X22992287Y-36223778D01*
X23040380Y-36288022D01*
X23076384Y-36336116D01*
X23135496Y-36380367D01*
X23188721Y-36420212D01*
X23320200Y-36469251D01*
X23339576Y-36471334D01*
X23378326Y-36475500D01*
X23971672Y-36475500D01*
X23971674Y-36475500D01*
X24029799Y-36469251D01*
X24161278Y-36420212D01*
X24273616Y-36336116D01*
X24357712Y-36223778D01*
X24361978Y-36212337D01*
X24399028Y-36165095D01*
X24456568Y-36147951D01*
X24513434Y-36167212D01*
X24548712Y-36215793D01*
X24577047Y-36301301D01*
X24667555Y-36448037D01*
X24789462Y-36569944D01*
X24936199Y-36660453D01*
X25099850Y-36714681D01*
X25200850Y-36725000D01*
X25249999Y-36725000D01*
X25250000Y-36724999D01*
X25250000Y-36724998D01*
X25750000Y-36724998D01*
X25750001Y-36724999D01*
X25799151Y-36724999D01*
X25900148Y-36714682D01*
X26063800Y-36660453D01*
X26210537Y-36569944D01*
X26332444Y-36448037D01*
X26422953Y-36301300D01*
X26477181Y-36137649D01*
X26487500Y-36036650D01*
X26487500Y-36000001D01*
X26487499Y-36000000D01*
X25750001Y-36000000D01*
X25750000Y-36000001D01*
X25750000Y-36724998D01*
X25250000Y-36724998D01*
X25250000Y-35499999D01*
X25750000Y-35499999D01*
X25750001Y-35500000D01*
X26487498Y-35500000D01*
X26487499Y-35499999D01*
X26487499Y-35463349D01*
X26477182Y-35362351D01*
X26422953Y-35198699D01*
X26332444Y-35051962D01*
X26210537Y-34930055D01*
X26063800Y-34839546D01*
X25900149Y-34785318D01*
X25799150Y-34775000D01*
X25750001Y-34775000D01*
X25750000Y-34775001D01*
X25750000Y-35499999D01*
X25250000Y-35499999D01*
X25250000Y-34775002D01*
X25249999Y-34775001D01*
X25200849Y-34775001D01*
X25099851Y-34785317D01*
X24936199Y-34839546D01*
X24789462Y-34930055D01*
X24667555Y-35051962D01*
X24577047Y-35198698D01*
X24548712Y-35284207D01*
X24513434Y-35332788D01*
X24456568Y-35352049D01*
X24399028Y-35334905D01*
X24361978Y-35287662D01*
X24357712Y-35276222D01*
X24273616Y-35163884D01*
X24161278Y-35079788D01*
X24161277Y-35079787D01*
X24152637Y-35076564D01*
X24112416Y-35048637D01*
X24090499Y-35004850D01*
X24092247Y-34955915D01*
X24117231Y-34913805D01*
X26940727Y-32090308D01*
X26956577Y-32077438D01*
X26967836Y-32070084D01*
X26988226Y-32043885D01*
X26996344Y-32034692D01*
X26997519Y-32033518D01*
X27009904Y-32016169D01*
X27012305Y-32012948D01*
X27044809Y-31971189D01*
X27044809Y-31971187D01*
X27047917Y-31967195D01*
X27050565Y-31962051D01*
X27052009Y-31957200D01*
X27052010Y-31957199D01*
X27067093Y-31906531D01*
X27068325Y-31902687D01*
X27085500Y-31852660D01*
X27085500Y-31852656D01*
X27087137Y-31847888D01*
X27087976Y-31842127D01*
X27085585Y-31784299D01*
X27085500Y-31780208D01*
X27085500Y-31506691D01*
X27099585Y-31455795D01*
X27137832Y-31419381D01*
X27275236Y-31345937D01*
X27328717Y-31302046D01*
X27429410Y-31219410D01*
X27555936Y-31065237D01*
X27592555Y-30996729D01*
X27649954Y-30889342D01*
X27691414Y-30752666D01*
X27707850Y-30698485D01*
X27727399Y-30500000D01*
X27707850Y-30301515D01*
X27649954Y-30110658D01*
X27649954Y-30110657D01*
X27555937Y-29934763D01*
X27492672Y-29857676D01*
X27429410Y-29780590D01*
X27355330Y-29719794D01*
X27275236Y-29654062D01*
X27099342Y-29560045D01*
X26908483Y-29502149D01*
X26710000Y-29482600D01*
X26511516Y-29502149D01*
X26320657Y-29560045D01*
X26144763Y-29654062D01*
X25990590Y-29780590D01*
X25864062Y-29934763D01*
X25770045Y-30110657D01*
X25712149Y-30301516D01*
X25692600Y-30499999D01*
X25712149Y-30698483D01*
X25770045Y-30889342D01*
X25864062Y-31065236D01*
X25938670Y-31156146D01*
X25990590Y-31219410D01*
X26066711Y-31281881D01*
X26144763Y-31345937D01*
X26282168Y-31419381D01*
X26320415Y-31455795D01*
X26334500Y-31506691D01*
X26334500Y-31593455D01*
X26326964Y-31631341D01*
X26305504Y-31663459D01*
X25172736Y-32796225D01*
X25120309Y-32823648D01*
X25061605Y-32816274D01*
X25017590Y-32776736D01*
X25003984Y-32719159D01*
X25004359Y-32713927D01*
X25002762Y-32706590D01*
X25000500Y-32685546D01*
X25000500Y-29799887D01*
X25011291Y-29754942D01*
X25041310Y-29719794D01*
X25105871Y-29672888D01*
X25182360Y-29587939D01*
X25232533Y-29532216D01*
X25327179Y-29368284D01*
X25385674Y-29188256D01*
X25405460Y-29000000D01*
X25385674Y-28811744D01*
X25327179Y-28631716D01*
X25232533Y-28467784D01*
X25232532Y-28467783D01*
X25232531Y-28467781D01*
X25105873Y-28327113D01*
X25029300Y-28271480D01*
X24952730Y-28215849D01*
X24909373Y-28196545D01*
X24779804Y-28138856D01*
X24718084Y-28125737D01*
X24594646Y-28099500D01*
X24405354Y-28099500D01*
X24312775Y-28119178D01*
X24220195Y-28138856D01*
X24047271Y-28215848D01*
X23894126Y-28327113D01*
X23767468Y-28467781D01*
X23672821Y-28631715D01*
X23672821Y-28631716D01*
X23614326Y-28811744D01*
X23594540Y-29000000D01*
X23614326Y-29188256D01*
X23672820Y-29368283D01*
X23672821Y-29368284D01*
X23767468Y-29532218D01*
X23894128Y-29672888D01*
X23958690Y-29719794D01*
X23988709Y-29754942D01*
X23999500Y-29799887D01*
X23999500Y-32501678D01*
X23991964Y-32539564D01*
X23970503Y-32571682D01*
X23585429Y-32956755D01*
X23539935Y-32982669D01*
X23487585Y-32981756D01*
X23443022Y-32954269D01*
X23418711Y-32907897D01*
X23421451Y-32855611D01*
X23464681Y-32725149D01*
X23475000Y-32624150D01*
X23475000Y-32525001D01*
X23474999Y-32525000D01*
X21525002Y-32525000D01*
X21525001Y-32525001D01*
X21525001Y-32624151D01*
X21535317Y-32725148D01*
X21589546Y-32888800D01*
X21680055Y-33035537D01*
X21801965Y-33157447D01*
X21885651Y-33209066D01*
X21922187Y-33248973D01*
X21932286Y-33302128D01*
X21912932Y-33352655D01*
X21829787Y-33463723D01*
X21793842Y-33560097D01*
X21757546Y-33606821D01*
X21701084Y-33624500D01*
X21222722Y-33624500D01*
X21180884Y-33615225D01*
X21160545Y-33605741D01*
X21113139Y-33599500D01*
X19711862Y-33599500D01*
X19688397Y-33602589D01*
X19643655Y-33598180D01*
X19605476Y-33574439D01*
X19551784Y-33520747D01*
X19425558Y-33394520D01*
X19401818Y-33356340D01*
X19397411Y-33311598D01*
X19400500Y-33288139D01*
X19400499Y-32024999D01*
X21525000Y-32024999D01*
X21525001Y-32025000D01*
X22249999Y-32025000D01*
X22250000Y-32024999D01*
X22750000Y-32024999D01*
X22750001Y-32025000D01*
X23474998Y-32025000D01*
X23474999Y-32024999D01*
X23474999Y-31925849D01*
X23464682Y-31824851D01*
X23410453Y-31661199D01*
X23319944Y-31514462D01*
X23198037Y-31392555D01*
X23051300Y-31302046D01*
X22887649Y-31247818D01*
X22786650Y-31237500D01*
X22750001Y-31237500D01*
X22750000Y-31237501D01*
X22750000Y-32024999D01*
X22250000Y-32024999D01*
X22250000Y-31237502D01*
X22249999Y-31237501D01*
X22213349Y-31237501D01*
X22112351Y-31247817D01*
X21948699Y-31302046D01*
X21801962Y-31392555D01*
X21680055Y-31514462D01*
X21589546Y-31661199D01*
X21535318Y-31824850D01*
X21525000Y-31925850D01*
X21525000Y-32024999D01*
X19400499Y-32024999D01*
X19400499Y-31886862D01*
X19400499Y-31886860D01*
X19400499Y-31886857D01*
X19394259Y-31839454D01*
X19345748Y-31735423D01*
X19345747Y-31735422D01*
X19345747Y-31735421D01*
X19264579Y-31654253D01*
X19264577Y-31654252D01*
X19264576Y-31654251D01*
X19160546Y-31605741D01*
X19124502Y-31600996D01*
X19113138Y-31599500D01*
X18886858Y-31599500D01*
X18839455Y-31605740D01*
X18791837Y-31627944D01*
X18749999Y-31637219D01*
X18708161Y-31627944D01*
X18660545Y-31605741D01*
X18660544Y-31605740D01*
X18613138Y-31599500D01*
X18386858Y-31599500D01*
X18339455Y-31605740D01*
X18291837Y-31627944D01*
X18249999Y-31637219D01*
X18208161Y-31627944D01*
X18160545Y-31605741D01*
X18160544Y-31605740D01*
X18113138Y-31599500D01*
X17886858Y-31599500D01*
X17839455Y-31605740D01*
X17791837Y-31627944D01*
X17749999Y-31637219D01*
X17708161Y-31627944D01*
X17660545Y-31605741D01*
X17660544Y-31605740D01*
X17613139Y-31599500D01*
X17613138Y-31599500D01*
X17613136Y-31599500D01*
X17474499Y-31599500D01*
X17425000Y-31586238D01*
X17388764Y-31550001D01*
X17375500Y-31500501D01*
X17375500Y-29196545D01*
X17383036Y-29158659D01*
X17404496Y-29126541D01*
X19811449Y-26719588D01*
X22230728Y-24300308D01*
X22246582Y-24287436D01*
X22257836Y-24280084D01*
X22278223Y-24253890D01*
X22286341Y-24244696D01*
X22287520Y-24243518D01*
X22299921Y-24226146D01*
X22302319Y-24222930D01*
X22334809Y-24181189D01*
X22334809Y-24181187D01*
X22337917Y-24177195D01*
X22340565Y-24172051D01*
X22342009Y-24167200D01*
X22342010Y-24167199D01*
X22357093Y-24116531D01*
X22358325Y-24112687D01*
X22375500Y-24062660D01*
X22375500Y-24062656D01*
X22377137Y-24057888D01*
X22377976Y-24052127D01*
X22375585Y-23994299D01*
X22375500Y-23990208D01*
X22375500Y-23474151D01*
X23025001Y-23474151D01*
X23035317Y-23575148D01*
X23089546Y-23738800D01*
X23180055Y-23885537D01*
X23301962Y-24007444D01*
X23448699Y-24097953D01*
X23612350Y-24152181D01*
X23713350Y-24162500D01*
X23749999Y-24162500D01*
X23750000Y-24162499D01*
X23750000Y-24162498D01*
X24250000Y-24162498D01*
X24250001Y-24162499D01*
X24286651Y-24162499D01*
X24387648Y-24152182D01*
X24551300Y-24097953D01*
X24698037Y-24007444D01*
X24819944Y-23885537D01*
X24910453Y-23738800D01*
X24964681Y-23575149D01*
X24975000Y-23474150D01*
X24975000Y-23375001D01*
X24974999Y-23375000D01*
X24250001Y-23375000D01*
X24250000Y-23375001D01*
X24250000Y-24162498D01*
X23750000Y-24162498D01*
X23750000Y-23375001D01*
X23749999Y-23375000D01*
X23025002Y-23375000D01*
X23025001Y-23375001D01*
X23025001Y-23474151D01*
X22375500Y-23474151D01*
X22375500Y-22196545D01*
X22383036Y-22158659D01*
X22404496Y-22126541D01*
X22726541Y-21804496D01*
X22758659Y-21783036D01*
X22796545Y-21775500D01*
X23201084Y-21775500D01*
X23257546Y-21793179D01*
X23293842Y-21839903D01*
X23329787Y-21936278D01*
X23412932Y-22047344D01*
X23432287Y-22097870D01*
X23422188Y-22151025D01*
X23385652Y-22190933D01*
X23301965Y-22242552D01*
X23180055Y-22364462D01*
X23089546Y-22511199D01*
X23035318Y-22674850D01*
X23025000Y-22775850D01*
X23025000Y-22874999D01*
X23025001Y-22875000D01*
X24974998Y-22875000D01*
X24974999Y-22874999D01*
X24974999Y-22775849D01*
X24964682Y-22674851D01*
X24910453Y-22511199D01*
X24819944Y-22364462D01*
X24698034Y-22242552D01*
X24614347Y-22190933D01*
X24577811Y-22151026D01*
X24567712Y-22097870D01*
X24587064Y-22047348D01*
X24670212Y-21936278D01*
X24697777Y-21862371D01*
X24730737Y-21818068D01*
X24782299Y-21798310D01*
X24836423Y-21809244D01*
X24876271Y-21847465D01*
X24897046Y-21883448D01*
X24908142Y-21902667D01*
X25027770Y-22035526D01*
X25172406Y-22140612D01*
X25195797Y-22151026D01*
X25335733Y-22213329D01*
X25510609Y-22250500D01*
X25689389Y-22250500D01*
X25689391Y-22250500D01*
X25864267Y-22213329D01*
X26027593Y-22140612D01*
X26172230Y-22035526D01*
X26291859Y-21902665D01*
X26381250Y-21747835D01*
X26436497Y-21577803D01*
X26455185Y-21400000D01*
X26452557Y-21375000D01*
X28244658Y-21375000D01*
X28263975Y-21571130D01*
X28321185Y-21759727D01*
X28414088Y-21933536D01*
X28429907Y-21952811D01*
X28539117Y-22085883D01*
X28655932Y-22181751D01*
X28691463Y-22210911D01*
X28865272Y-22303814D01*
X28954850Y-22330987D01*
X29053868Y-22361024D01*
X29250000Y-22380341D01*
X29446132Y-22361024D01*
X29634727Y-22303814D01*
X29808538Y-22210910D01*
X29960883Y-22085883D01*
X30085910Y-21933538D01*
X30178814Y-21759727D01*
X30236024Y-21571132D01*
X30255341Y-21375000D01*
X30236024Y-21178868D01*
X30193482Y-21038626D01*
X30178814Y-20990272D01*
X30085911Y-20816463D01*
X30040452Y-20761072D01*
X29960883Y-20664117D01*
X29854864Y-20577109D01*
X29808536Y-20539088D01*
X29634727Y-20446185D01*
X29446130Y-20388975D01*
X29250000Y-20369658D01*
X29053869Y-20388975D01*
X28865272Y-20446185D01*
X28691463Y-20539088D01*
X28539117Y-20664117D01*
X28414088Y-20816463D01*
X28321185Y-20990272D01*
X28263975Y-21178869D01*
X28244658Y-21375000D01*
X26452557Y-21375000D01*
X26436497Y-21222197D01*
X26381250Y-21052165D01*
X26291859Y-20897335D01*
X26172230Y-20764474D01*
X26166970Y-20760652D01*
X26027593Y-20659387D01*
X25864270Y-20586672D01*
X25864268Y-20586671D01*
X25864267Y-20586671D01*
X25689391Y-20549500D01*
X25510609Y-20549500D01*
X25423171Y-20568085D01*
X25335731Y-20586671D01*
X25172409Y-20659387D01*
X25027767Y-20764475D01*
X24908139Y-20897336D01*
X24876272Y-20952532D01*
X24836423Y-20990755D01*
X24782298Y-21001689D01*
X24730737Y-20981931D01*
X24697778Y-20937629D01*
X24670212Y-20863721D01*
X24634208Y-20815628D01*
X24586116Y-20751384D01*
X24523872Y-20704788D01*
X24473778Y-20667287D01*
X24342299Y-20618248D01*
X24294458Y-20613105D01*
X24284174Y-20612000D01*
X23715826Y-20612000D01*
X23706377Y-20613015D01*
X23657700Y-20618248D01*
X23526221Y-20667287D01*
X23413884Y-20751384D01*
X23329787Y-20863721D01*
X23293842Y-20960097D01*
X23257546Y-21006821D01*
X23201084Y-21024500D01*
X22649211Y-21024500D01*
X22628895Y-21022393D01*
X22615732Y-21019633D01*
X22582783Y-21023740D01*
X22570538Y-21024500D01*
X22568886Y-21024500D01*
X22563360Y-21025421D01*
X22547882Y-21028004D01*
X22543840Y-21028592D01*
X22486383Y-21035755D01*
X22480821Y-21037537D01*
X22429927Y-21065078D01*
X22426294Y-21066948D01*
X22374263Y-21092386D01*
X22369587Y-21095873D01*
X22330395Y-21138446D01*
X22327563Y-21141398D01*
X21769271Y-21699689D01*
X21753419Y-21712562D01*
X21742162Y-21719917D01*
X21721766Y-21746120D01*
X21713658Y-21755304D01*
X21712480Y-21756481D01*
X21700090Y-21773835D01*
X21697646Y-21777112D01*
X21662095Y-21822788D01*
X21659427Y-21827971D01*
X21642911Y-21883448D01*
X21641664Y-21887341D01*
X21622862Y-21942111D01*
X21622023Y-21947872D01*
X21624415Y-22005701D01*
X21624500Y-22009792D01*
X21624500Y-23803455D01*
X21616964Y-23841341D01*
X21595504Y-23873459D01*
X17044504Y-28424458D01*
X16993814Y-28451552D01*
X16936614Y-28445918D01*
X16892185Y-28409455D01*
X16875500Y-28354454D01*
X16875500Y-28196545D01*
X16883036Y-28158659D01*
X16904496Y-28126541D01*
X17956037Y-27075000D01*
X21230727Y-23800308D01*
X21246577Y-23787438D01*
X21257836Y-23780084D01*
X21278226Y-23753885D01*
X21286344Y-23744692D01*
X21287519Y-23743518D01*
X21299904Y-23726169D01*
X21302305Y-23722948D01*
X21334809Y-23681189D01*
X21334809Y-23681187D01*
X21337917Y-23677195D01*
X21340565Y-23672051D01*
X21342009Y-23667200D01*
X21342010Y-23667199D01*
X21357093Y-23616531D01*
X21358325Y-23612687D01*
X21375500Y-23562660D01*
X21375500Y-23562656D01*
X21377137Y-23557888D01*
X21377976Y-23552127D01*
X21375585Y-23494299D01*
X21375500Y-23490208D01*
X21375500Y-17946545D01*
X21383036Y-17908659D01*
X21404496Y-17876541D01*
X22401541Y-16879496D01*
X22433659Y-16858036D01*
X22471545Y-16850500D01*
X23201084Y-16850500D01*
X23257546Y-16868179D01*
X23293842Y-16914903D01*
X23329787Y-17011278D01*
X23355542Y-17045681D01*
X23413884Y-17123616D01*
X23478128Y-17171708D01*
X23526221Y-17207712D01*
X23657700Y-17256751D01*
X23677076Y-17258834D01*
X23715826Y-17263000D01*
X24284172Y-17263000D01*
X24284174Y-17263000D01*
X24342299Y-17256751D01*
X24473778Y-17207712D01*
X24586116Y-17123616D01*
X24670212Y-17011278D01*
X24692112Y-16952559D01*
X24725071Y-16908256D01*
X24776633Y-16888498D01*
X24830758Y-16899432D01*
X24870607Y-16937654D01*
X24908141Y-17002665D01*
X24935939Y-17033538D01*
X25027770Y-17135526D01*
X25172406Y-17240612D01*
X25281864Y-17289345D01*
X25335733Y-17313329D01*
X25510609Y-17350500D01*
X25689389Y-17350500D01*
X25689391Y-17350500D01*
X25864267Y-17313329D01*
X26027593Y-17240612D01*
X26172230Y-17135526D01*
X26291859Y-17002665D01*
X26381250Y-16847835D01*
X26436497Y-16677803D01*
X26455185Y-16500000D01*
X26452557Y-16474999D01*
X28244658Y-16474999D01*
X28263975Y-16671130D01*
X28321185Y-16859727D01*
X28414088Y-17033536D01*
X28439252Y-17064198D01*
X28539117Y-17185883D01*
X28633084Y-17263000D01*
X28691463Y-17310911D01*
X28865272Y-17403814D01*
X28959570Y-17432418D01*
X29053868Y-17461024D01*
X29250000Y-17480341D01*
X29446132Y-17461024D01*
X29634727Y-17403814D01*
X29808538Y-17310910D01*
X29960883Y-17185883D01*
X30085910Y-17033538D01*
X30178814Y-16859727D01*
X30236024Y-16671132D01*
X30255341Y-16475000D01*
X30236024Y-16278868D01*
X30197589Y-16152164D01*
X30178814Y-16090272D01*
X30085911Y-15916463D01*
X30021513Y-15837995D01*
X29960883Y-15764117D01*
X29808538Y-15639090D01*
X29808539Y-15639090D01*
X29808536Y-15639088D01*
X29634727Y-15546185D01*
X29446130Y-15488975D01*
X29250000Y-15469658D01*
X29053869Y-15488975D01*
X28865272Y-15546185D01*
X28691463Y-15639088D01*
X28539117Y-15764117D01*
X28414088Y-15916463D01*
X28321185Y-16090272D01*
X28263975Y-16278869D01*
X28244658Y-16474999D01*
X26452557Y-16474999D01*
X26436497Y-16322197D01*
X26381250Y-16152165D01*
X26291859Y-15997335D01*
X26172230Y-15864474D01*
X26138011Y-15839612D01*
X26027593Y-15759387D01*
X25864270Y-15686672D01*
X25864268Y-15686671D01*
X25864267Y-15686671D01*
X25689391Y-15649500D01*
X25510609Y-15649500D01*
X25423171Y-15668085D01*
X25335731Y-15686671D01*
X25172409Y-15759387D01*
X25027767Y-15864475D01*
X24908141Y-15997334D01*
X24881937Y-16042721D01*
X24842088Y-16080943D01*
X24787963Y-16091877D01*
X24736402Y-16072119D01*
X24703443Y-16027817D01*
X24670212Y-15938721D01*
X24587067Y-15827655D01*
X24567712Y-15777129D01*
X24577811Y-15723973D01*
X24614348Y-15684065D01*
X24698035Y-15632446D01*
X24819944Y-15510537D01*
X24910453Y-15363800D01*
X24964681Y-15200149D01*
X24975000Y-15099150D01*
X24975000Y-15000001D01*
X24974999Y-15000000D01*
X23025002Y-15000000D01*
X23025001Y-15000001D01*
X23025001Y-15099151D01*
X23035317Y-15200148D01*
X23089546Y-15363800D01*
X23180055Y-15510537D01*
X23301965Y-15632447D01*
X23385651Y-15684066D01*
X23422187Y-15723973D01*
X23432286Y-15777128D01*
X23412932Y-15827655D01*
X23329787Y-15938723D01*
X23293842Y-16035097D01*
X23257546Y-16081821D01*
X23201084Y-16099500D01*
X22324211Y-16099500D01*
X22303895Y-16097393D01*
X22290732Y-16094633D01*
X22257785Y-16098740D01*
X22245540Y-16099500D01*
X22243885Y-16099500D01*
X22222877Y-16103005D01*
X22218834Y-16103594D01*
X22161372Y-16110758D01*
X22155822Y-16112535D01*
X22104909Y-16140088D01*
X22101274Y-16141959D01*
X22049264Y-16167385D01*
X22044587Y-16170873D01*
X22005395Y-16213446D01*
X22002563Y-16216398D01*
X20769271Y-17449689D01*
X20753419Y-17462562D01*
X20742162Y-17469917D01*
X20721766Y-17496120D01*
X20713658Y-17505304D01*
X20712480Y-17506481D01*
X20700090Y-17523835D01*
X20697646Y-17527112D01*
X20662095Y-17572788D01*
X20659427Y-17577971D01*
X20642911Y-17633448D01*
X20641664Y-17637341D01*
X20622862Y-17692111D01*
X20622023Y-17697872D01*
X20624415Y-17755701D01*
X20624500Y-17759792D01*
X20624500Y-23303455D01*
X20616964Y-23341341D01*
X20595504Y-23373459D01*
X16269271Y-27699689D01*
X16253419Y-27712562D01*
X16242162Y-27719917D01*
X16221766Y-27746120D01*
X16213658Y-27755304D01*
X16212480Y-27756481D01*
X16200090Y-27773835D01*
X16197646Y-27777112D01*
X16162095Y-27822788D01*
X16159427Y-27827971D01*
X16142911Y-27883448D01*
X16141664Y-27887341D01*
X16122862Y-27942111D01*
X16122023Y-27947872D01*
X16124415Y-28005701D01*
X16124500Y-28009792D01*
X16124500Y-31421122D01*
X16109571Y-31473401D01*
X16069287Y-31509912D01*
X16015796Y-31519645D01*
X15965233Y-31499664D01*
X15864981Y-31422738D01*
X15725104Y-31364799D01*
X15650000Y-31354911D01*
X15650000Y-31722595D01*
X15640724Y-31764432D01*
X15612551Y-31824851D01*
X15605741Y-31839455D01*
X15599500Y-31886860D01*
X15599500Y-33288142D01*
X15605740Y-33335543D01*
X15640724Y-33410565D01*
X15650000Y-33452405D01*
X15650000Y-33820088D01*
X15725104Y-33810200D01*
X15864981Y-33752261D01*
X15985095Y-33660094D01*
X16020287Y-33614232D01*
X16055042Y-33585709D01*
X16098828Y-33575499D01*
X16113138Y-33575499D01*
X16113142Y-33575499D01*
X16160541Y-33569260D01*
X16160542Y-33569259D01*
X16160545Y-33569259D01*
X16208163Y-33547054D01*
X16250000Y-33537779D01*
X16291837Y-33547054D01*
X16339455Y-33569259D01*
X16386861Y-33575500D01*
X16613138Y-33575499D01*
X16613141Y-33575499D01*
X16660541Y-33569260D01*
X16660542Y-33569259D01*
X16660545Y-33569259D01*
X16708163Y-33547054D01*
X16750000Y-33537779D01*
X16791837Y-33547054D01*
X16839455Y-33569259D01*
X16886861Y-33575500D01*
X17113138Y-33575499D01*
X17113141Y-33575499D01*
X17160541Y-33569260D01*
X17160542Y-33569259D01*
X17160545Y-33569259D01*
X17208163Y-33547054D01*
X17250000Y-33537779D01*
X17291837Y-33547054D01*
X17339455Y-33569259D01*
X17386861Y-33575500D01*
X17613138Y-33575499D01*
X17613141Y-33575499D01*
X17660541Y-33569260D01*
X17660542Y-33569259D01*
X17660545Y-33569259D01*
X17708163Y-33547054D01*
X17750000Y-33537779D01*
X17791837Y-33547054D01*
X17839455Y-33569259D01*
X17886861Y-33575500D01*
X18113138Y-33575499D01*
X18113141Y-33575499D01*
X18160541Y-33569260D01*
X18160542Y-33569259D01*
X18160545Y-33569259D01*
X18208163Y-33547054D01*
X18250000Y-33537779D01*
X18291837Y-33547054D01*
X18339455Y-33569259D01*
X18386861Y-33575500D01*
X18554906Y-33575499D01*
X18605584Y-33589453D01*
X18641976Y-33627382D01*
X18665088Y-33670091D01*
X18666959Y-33673726D01*
X18692390Y-33725743D01*
X18695867Y-33730407D01*
X18699580Y-33733825D01*
X18699581Y-33733826D01*
X18738484Y-33769639D01*
X18741412Y-33772449D01*
X19161567Y-34192605D01*
X19185309Y-34230786D01*
X19189716Y-34275530D01*
X19179911Y-34349999D01*
X19179912Y-34350000D01*
X19345215Y-34350000D01*
X19373457Y-34354114D01*
X19380221Y-34356127D01*
X19383450Y-34357088D01*
X19387301Y-34358321D01*
X19437340Y-34375500D01*
X19437343Y-34375500D01*
X19442111Y-34377137D01*
X19447872Y-34377976D01*
X19452910Y-34377767D01*
X19452912Y-34377768D01*
X19505700Y-34375585D01*
X19509792Y-34375500D01*
X19602278Y-34375500D01*
X19644116Y-34384775D01*
X19664455Y-34394259D01*
X19711861Y-34400500D01*
X20463501Y-34400499D01*
X20513000Y-34413762D01*
X20549236Y-34449999D01*
X20562500Y-34499499D01*
X20562500Y-34500500D01*
X20549237Y-34550000D01*
X20513000Y-34586236D01*
X20463500Y-34599500D01*
X19711858Y-34599500D01*
X19664456Y-34605740D01*
X19625419Y-34623943D01*
X19589432Y-34640724D01*
X19547595Y-34650000D01*
X19179912Y-34650000D01*
X19189799Y-34725104D01*
X19247738Y-34864982D01*
X19339904Y-34985095D01*
X19385767Y-35020287D01*
X19414289Y-35055040D01*
X19424500Y-35098824D01*
X19424500Y-35113139D01*
X19430740Y-35160544D01*
X19452944Y-35208162D01*
X19462219Y-35250000D01*
X19452944Y-35291838D01*
X19430741Y-35339454D01*
X19424500Y-35386861D01*
X19424500Y-35613141D01*
X19430740Y-35660544D01*
X19452944Y-35708162D01*
X19462219Y-35750000D01*
X19452944Y-35791838D01*
X19430741Y-35839454D01*
X19424500Y-35886861D01*
X19424500Y-36113141D01*
X19430740Y-36160544D01*
X19452944Y-36208162D01*
X19462219Y-36250000D01*
X19452944Y-36291838D01*
X19430741Y-36339454D01*
X19424500Y-36386861D01*
X19424500Y-36613141D01*
X19430740Y-36660544D01*
X19452944Y-36708162D01*
X19462219Y-36750000D01*
X19452944Y-36791838D01*
X19430741Y-36839454D01*
X19424500Y-36886861D01*
X19424500Y-37113141D01*
X19430740Y-37160542D01*
X19452944Y-37208160D01*
X19462219Y-37249998D01*
X19452945Y-37291836D01*
X19430741Y-37339455D01*
X19424500Y-37386861D01*
X19424500Y-37613141D01*
X19430740Y-37660542D01*
X19452944Y-37708160D01*
X19462219Y-37749998D01*
X19452945Y-37791836D01*
X19430741Y-37839455D01*
X19424500Y-37886861D01*
X19424500Y-38113141D01*
X19430740Y-38160544D01*
X19452944Y-38208162D01*
X19462219Y-38250000D01*
X19452944Y-38291838D01*
X19430741Y-38339454D01*
X19424500Y-38386861D01*
X19424500Y-38613141D01*
X19430740Y-38660544D01*
X19452944Y-38708162D01*
X19462219Y-38750000D01*
X19452944Y-38791838D01*
X19430741Y-38839454D01*
X19424500Y-38886861D01*
X19424501Y-39025499D01*
X19411238Y-39075000D01*
X19375001Y-39111236D01*
X19325501Y-39124500D01*
X18446544Y-39124500D01*
X18408658Y-39116964D01*
X18376540Y-39095503D01*
X18050313Y-38769275D01*
X18037437Y-38753419D01*
X18035203Y-38750000D01*
X18030084Y-38742164D01*
X18030083Y-38742162D01*
X18003888Y-38721774D01*
X17994697Y-38713659D01*
X17993518Y-38712480D01*
X17984931Y-38706349D01*
X17976170Y-38700094D01*
X17972887Y-38697646D01*
X17927207Y-38662091D01*
X17922040Y-38659431D01*
X17866551Y-38642911D01*
X17862669Y-38641667D01*
X17841638Y-38634447D01*
X17807890Y-38622862D01*
X17802127Y-38622023D01*
X17744299Y-38624415D01*
X17740208Y-38624500D01*
X16799211Y-38624500D01*
X16778895Y-38622393D01*
X16765732Y-38619633D01*
X16732783Y-38623740D01*
X16720538Y-38624500D01*
X16718886Y-38624500D01*
X16713360Y-38625421D01*
X16697882Y-38628004D01*
X16693840Y-38628592D01*
X16636383Y-38635755D01*
X16630821Y-38637537D01*
X16579927Y-38665078D01*
X16576294Y-38666948D01*
X16524263Y-38692386D01*
X16519587Y-38695873D01*
X16480395Y-38738446D01*
X16477563Y-38741398D01*
X15769271Y-39449689D01*
X15753419Y-39462562D01*
X15742162Y-39469917D01*
X15721766Y-39496120D01*
X15713658Y-39505304D01*
X15712480Y-39506481D01*
X15700090Y-39523835D01*
X15697646Y-39527112D01*
X15662095Y-39572788D01*
X15659427Y-39577971D01*
X15642911Y-39633448D01*
X15641664Y-39637341D01*
X15622862Y-39692111D01*
X15622023Y-39697872D01*
X15624415Y-39755701D01*
X15624500Y-39759792D01*
X15624500Y-39825500D01*
X15611237Y-39875000D01*
X15575000Y-39911236D01*
X15525501Y-39924500D01*
X15386858Y-39924500D01*
X15339455Y-39930740D01*
X15291837Y-39952944D01*
X15249999Y-39962219D01*
X15208161Y-39952944D01*
X15160545Y-39930741D01*
X15124502Y-39925996D01*
X15113138Y-39924500D01*
X14886858Y-39924500D01*
X14839455Y-39930740D01*
X14791837Y-39952944D01*
X14749999Y-39962219D01*
X14708161Y-39952944D01*
X14660545Y-39930741D01*
X14624502Y-39925996D01*
X14613138Y-39924500D01*
X14386858Y-39924500D01*
X14339455Y-39930740D01*
X14291837Y-39952944D01*
X14249999Y-39962219D01*
X14208161Y-39952944D01*
X14160545Y-39930741D01*
X14124502Y-39925996D01*
X14113138Y-39924500D01*
X13886858Y-39924500D01*
X13839455Y-39930740D01*
X13791837Y-39952944D01*
X13749999Y-39962219D01*
X13708161Y-39952944D01*
X13660545Y-39930741D01*
X13624502Y-39925996D01*
X13613138Y-39924500D01*
X13386858Y-39924500D01*
X13339454Y-39930740D01*
X13235423Y-39979251D01*
X13154251Y-40060423D01*
X13105741Y-40164453D01*
X13099500Y-40211860D01*
X13099500Y-41613142D01*
X13105740Y-41660545D01*
X13115224Y-41680883D01*
X13124500Y-41722722D01*
X13124500Y-43553455D01*
X13116964Y-43591341D01*
X13095503Y-43623459D01*
X12889648Y-43829313D01*
X12836481Y-43856867D01*
X12777153Y-43848726D01*
X12733373Y-43807869D01*
X12721158Y-43749245D01*
X12725000Y-43711647D01*
X12725000Y-43612501D01*
X12724999Y-43612500D01*
X12000001Y-43612500D01*
X12000000Y-43612501D01*
X12000000Y-44399998D01*
X12000001Y-44399999D01*
X12036648Y-44399999D01*
X12074246Y-44396158D01*
X12132870Y-44408374D01*
X12173726Y-44452155D01*
X12181866Y-44511482D01*
X12154312Y-44564649D01*
X11623458Y-45095504D01*
X11591340Y-45116964D01*
X11553454Y-45124500D01*
X11519628Y-45124500D01*
X11511453Y-45124162D01*
X11490819Y-45122452D01*
X11468563Y-45120608D01*
X11468562Y-45120608D01*
X11465155Y-45121471D01*
X11440853Y-45124500D01*
X10796691Y-45124500D01*
X10745795Y-45110415D01*
X10709381Y-45072168D01*
X10635937Y-44934763D01*
X10572673Y-44857676D01*
X10509410Y-44780590D01*
X10443908Y-44726834D01*
X10355236Y-44654062D01*
X10179342Y-44560045D01*
X9988483Y-44502149D01*
X9789999Y-44482600D01*
X9591516Y-44502149D01*
X9400657Y-44560045D01*
X9224763Y-44654062D01*
X9083538Y-44769964D01*
X9070590Y-44780590D01*
X9043147Y-44814029D01*
X8993026Y-44846637D01*
X8933269Y-44844436D01*
X8885680Y-44808228D01*
X8867621Y-44751223D01*
X8867621Y-43711651D01*
X10775001Y-43711651D01*
X10785317Y-43812648D01*
X10839546Y-43976300D01*
X10930055Y-44123037D01*
X11051962Y-44244944D01*
X11198699Y-44335453D01*
X11362350Y-44389681D01*
X11463350Y-44400000D01*
X11499999Y-44400000D01*
X11500000Y-44399999D01*
X11500000Y-43612501D01*
X11499999Y-43612500D01*
X10775002Y-43612500D01*
X10775001Y-43612501D01*
X10775001Y-43711651D01*
X8867621Y-43711651D01*
X8867621Y-42018701D01*
X8875157Y-41980815D01*
X8896617Y-41948697D01*
X9815818Y-41029496D01*
X9847936Y-41008036D01*
X9885822Y-41000500D01*
X10974768Y-41000500D01*
X11020655Y-41011777D01*
X11056089Y-41043038D01*
X11072996Y-41087162D01*
X11067526Y-41134097D01*
X11030748Y-41232700D01*
X11024500Y-41290828D01*
X11024500Y-41984172D01*
X11030748Y-42042299D01*
X11079787Y-42173778D01*
X11162932Y-42284844D01*
X11182287Y-42335370D01*
X11172188Y-42388525D01*
X11135652Y-42428433D01*
X11051965Y-42480052D01*
X10930055Y-42601962D01*
X10839546Y-42748699D01*
X10785318Y-42912350D01*
X10775000Y-43013350D01*
X10775000Y-43112499D01*
X10775001Y-43112500D01*
X12724998Y-43112500D01*
X12724999Y-43112499D01*
X12724999Y-43013349D01*
X12714682Y-42912351D01*
X12660453Y-42748699D01*
X12569944Y-42601962D01*
X12448034Y-42480052D01*
X12364347Y-42428433D01*
X12327811Y-42388526D01*
X12317712Y-42335370D01*
X12337064Y-42284848D01*
X12420212Y-42173778D01*
X12431895Y-42142456D01*
X12469251Y-42042299D01*
X12475500Y-41984172D01*
X12475500Y-41290828D01*
X12469251Y-41232700D01*
X12420212Y-41101221D01*
X12380247Y-41047836D01*
X12336116Y-40988884D01*
X12290170Y-40954489D01*
X12260972Y-40919551D01*
X12250500Y-40875237D01*
X12250500Y-40748321D01*
X12258036Y-40710436D01*
X12279496Y-40678318D01*
X12345462Y-40612351D01*
X12379878Y-40577934D01*
X12396353Y-40564658D01*
X12402674Y-40560597D01*
X12435804Y-40522361D01*
X12440579Y-40517233D01*
X12450767Y-40507047D01*
X12459404Y-40495507D01*
X12463830Y-40490017D01*
X12496921Y-40451830D01*
X12496921Y-40451828D01*
X12496923Y-40451827D01*
X12500039Y-40445002D01*
X12510836Y-40426803D01*
X12515342Y-40420785D01*
X12533012Y-40373406D01*
X12535705Y-40366904D01*
X12556711Y-40320911D01*
X12557779Y-40313476D01*
X12563013Y-40292971D01*
X12565637Y-40285937D01*
X12569244Y-40235497D01*
X12569999Y-40228486D01*
X12572046Y-40214255D01*
X12572046Y-40199872D01*
X12572298Y-40192810D01*
X12572380Y-40191664D01*
X12575905Y-40142381D01*
X12574308Y-40135044D01*
X12572046Y-40114000D01*
X12572046Y-39999499D01*
X12585309Y-39949999D01*
X12621546Y-39913762D01*
X12671046Y-39900499D01*
X12788142Y-39900499D01*
X12835545Y-39894259D01*
X12873865Y-39876390D01*
X12939579Y-39845747D01*
X13020747Y-39764579D01*
X13069259Y-39660545D01*
X13075500Y-39613139D01*
X13075499Y-39598827D01*
X13085708Y-39555042D01*
X13114233Y-39520284D01*
X13160095Y-39485094D01*
X13252261Y-39364981D01*
X13310200Y-39225104D01*
X13320088Y-39150000D01*
X12952405Y-39150000D01*
X12910567Y-39140724D01*
X12835545Y-39105741D01*
X12788139Y-39099500D01*
X11386857Y-39099500D01*
X11339456Y-39105740D01*
X11315387Y-39116964D01*
X11264432Y-39140724D01*
X11222595Y-39150000D01*
X10854912Y-39150000D01*
X10864799Y-39225104D01*
X10922738Y-39364982D01*
X11014904Y-39485095D01*
X11060767Y-39520287D01*
X11089289Y-39555040D01*
X11099500Y-39598824D01*
X11099500Y-39613139D01*
X11105740Y-39660545D01*
X11154251Y-39764576D01*
X11154252Y-39764577D01*
X11154253Y-39764579D01*
X11220172Y-39830498D01*
X11247265Y-39881186D01*
X11241631Y-39938386D01*
X11205168Y-39982815D01*
X11150167Y-39999500D01*
X9701954Y-39999500D01*
X9680909Y-39997237D01*
X9673573Y-39995641D01*
X9623144Y-39999248D01*
X9616082Y-39999500D01*
X9601701Y-39999500D01*
X9587459Y-40001547D01*
X9580440Y-40002301D01*
X9568139Y-40003181D01*
X9530015Y-40005909D01*
X9522974Y-40008535D01*
X9502482Y-40013764D01*
X9495045Y-40014833D01*
X9449066Y-40035831D01*
X9442540Y-40038534D01*
X9395167Y-40056204D01*
X9389149Y-40060709D01*
X9370958Y-40071503D01*
X9364126Y-40074623D01*
X9325929Y-40107720D01*
X9320436Y-40112147D01*
X9308906Y-40120779D01*
X9298731Y-40130953D01*
X9293567Y-40135760D01*
X9255357Y-40168870D01*
X9251295Y-40175191D01*
X9238019Y-40191664D01*
X8615157Y-40814528D01*
X8615156Y-40814529D01*
X8175522Y-41254162D01*
X8124833Y-41281256D01*
X8067633Y-41275622D01*
X8023203Y-41239159D01*
X8006519Y-41184158D01*
X8006519Y-40732531D01*
X8014055Y-40694645D01*
X8035515Y-40662527D01*
X9793547Y-38904496D01*
X9825665Y-38883036D01*
X9863551Y-38875500D01*
X11277278Y-38875500D01*
X11319116Y-38884775D01*
X11339455Y-38894259D01*
X11386861Y-38900500D01*
X12788138Y-38900499D01*
X12788142Y-38900499D01*
X12819742Y-38896339D01*
X12835545Y-38894259D01*
X12910567Y-38859275D01*
X12952405Y-38850000D01*
X13320088Y-38850000D01*
X13320088Y-38849999D01*
X13310200Y-38774895D01*
X13252261Y-38635017D01*
X13160096Y-38514906D01*
X13114231Y-38479712D01*
X13085709Y-38444957D01*
X13075499Y-38401170D01*
X13075499Y-38386858D01*
X13069259Y-38339456D01*
X13069258Y-38339454D01*
X13047054Y-38291838D01*
X13037779Y-38249999D01*
X13047054Y-38208163D01*
X13069259Y-38160545D01*
X13075500Y-38113139D01*
X13075499Y-37886862D01*
X13075499Y-37886861D01*
X13075499Y-37886858D01*
X13069259Y-37839456D01*
X13047055Y-37791839D01*
X13037779Y-37749998D01*
X13047055Y-37708160D01*
X13069259Y-37660545D01*
X13075500Y-37613139D01*
X13075499Y-37386862D01*
X13075499Y-37386861D01*
X13075499Y-37386858D01*
X13069259Y-37339456D01*
X13047055Y-37291839D01*
X13037779Y-37249999D01*
X13047054Y-37208163D01*
X13069259Y-37160545D01*
X13075500Y-37113139D01*
X13075499Y-36886862D01*
X13075499Y-36886861D01*
X13075499Y-36886858D01*
X13069259Y-36839456D01*
X13069258Y-36839454D01*
X13047054Y-36791838D01*
X13037779Y-36749999D01*
X13047054Y-36708163D01*
X13069259Y-36660545D01*
X13075500Y-36613139D01*
X13075499Y-36386862D01*
X13075499Y-36386861D01*
X13075499Y-36386858D01*
X13069259Y-36339456D01*
X13069258Y-36339454D01*
X13047054Y-36291838D01*
X13037779Y-36249999D01*
X13047054Y-36208163D01*
X13069259Y-36160545D01*
X13075500Y-36113139D01*
X13075499Y-35886862D01*
X13075499Y-35886861D01*
X13075499Y-35886858D01*
X13069259Y-35839456D01*
X13069258Y-35839454D01*
X13047054Y-35791838D01*
X13037779Y-35749999D01*
X13047054Y-35708163D01*
X13069259Y-35660545D01*
X13075500Y-35613139D01*
X13075499Y-35386862D01*
X13075499Y-35386861D01*
X13075499Y-35386858D01*
X13069259Y-35339456D01*
X13069258Y-35339454D01*
X13047054Y-35291838D01*
X13037779Y-35249999D01*
X13047054Y-35208163D01*
X13069259Y-35160545D01*
X13075500Y-35113139D01*
X13075499Y-34886862D01*
X13075499Y-34886861D01*
X13075499Y-34886858D01*
X13069259Y-34839456D01*
X13067084Y-34834792D01*
X13047054Y-34791838D01*
X13037779Y-34749999D01*
X13047054Y-34708163D01*
X13069259Y-34660545D01*
X13075500Y-34613139D01*
X13075499Y-34386862D01*
X13075499Y-34386858D01*
X13069259Y-34339456D01*
X13067092Y-34334809D01*
X13047054Y-34291838D01*
X13037779Y-34249999D01*
X13047054Y-34208163D01*
X13069259Y-34160545D01*
X13075500Y-34113139D01*
X13075499Y-33886862D01*
X13075499Y-33886858D01*
X13069259Y-33839454D01*
X13020748Y-33735423D01*
X13020747Y-33735422D01*
X13020747Y-33735421D01*
X12939579Y-33654253D01*
X12939577Y-33654252D01*
X12939576Y-33654251D01*
X12835546Y-33605741D01*
X12788139Y-33599500D01*
X11386857Y-33599500D01*
X11339454Y-33605740D01*
X11319117Y-33615224D01*
X11277278Y-33624500D01*
X11224500Y-33624500D01*
X11175000Y-33611237D01*
X11138763Y-33575000D01*
X11125500Y-33525500D01*
X11125500Y-33199500D01*
X11138763Y-33150000D01*
X11175000Y-33113763D01*
X11224500Y-33100500D01*
X11339389Y-33100500D01*
X11339391Y-33100500D01*
X11514267Y-33063329D01*
X11677593Y-32990612D01*
X11822230Y-32885526D01*
X11941859Y-32752665D01*
X12031250Y-32597835D01*
X12086497Y-32427803D01*
X12105185Y-32250000D01*
X12086497Y-32072197D01*
X12031250Y-31902165D01*
X11941859Y-31747335D01*
X11822230Y-31614474D01*
X11822229Y-31614473D01*
X11677593Y-31509387D01*
X11514270Y-31436672D01*
X11514268Y-31436671D01*
X11514267Y-31436671D01*
X11339391Y-31399500D01*
X11160609Y-31399500D01*
X11160606Y-31399500D01*
X11133118Y-31405342D01*
X11082931Y-31402974D01*
X11040369Y-31376274D01*
X11016395Y-31332119D01*
X11017185Y-31281881D01*
X11042531Y-31238505D01*
X12651301Y-29629735D01*
X12700721Y-29602903D01*
X12756782Y-29607315D01*
X12801397Y-29641549D01*
X12820168Y-29694558D01*
X12807041Y-29749240D01*
X12718750Y-29902164D01*
X12718750Y-29902165D01*
X12663503Y-30072197D01*
X12644815Y-30250000D01*
X12663503Y-30427803D01*
X12693298Y-30519503D01*
X12718750Y-30597835D01*
X12808142Y-30752666D01*
X12927770Y-30885526D01*
X13080825Y-30996729D01*
X13079126Y-30999066D01*
X13108528Y-31024177D01*
X13124500Y-31078097D01*
X13124500Y-31777278D01*
X13115225Y-31819116D01*
X13105741Y-31839454D01*
X13099500Y-31886860D01*
X13099500Y-33288142D01*
X13105740Y-33335545D01*
X13154251Y-33439576D01*
X13154252Y-33439577D01*
X13154253Y-33439579D01*
X13235421Y-33520747D01*
X13339455Y-33569259D01*
X13386861Y-33575500D01*
X13613138Y-33575499D01*
X13613141Y-33575499D01*
X13660541Y-33569260D01*
X13660542Y-33569259D01*
X13660545Y-33569259D01*
X13708163Y-33547054D01*
X13750000Y-33537779D01*
X13791837Y-33547054D01*
X13839455Y-33569259D01*
X13886861Y-33575500D01*
X14113138Y-33575499D01*
X14113141Y-33575499D01*
X14160541Y-33569260D01*
X14160542Y-33569259D01*
X14160545Y-33569259D01*
X14208163Y-33547054D01*
X14250000Y-33537779D01*
X14291837Y-33547054D01*
X14339455Y-33569259D01*
X14386861Y-33575500D01*
X14613138Y-33575499D01*
X14613141Y-33575499D01*
X14660541Y-33569260D01*
X14660542Y-33569259D01*
X14660545Y-33569259D01*
X14708163Y-33547054D01*
X14750000Y-33537779D01*
X14791837Y-33547054D01*
X14839455Y-33569259D01*
X14886861Y-33575500D01*
X14901169Y-33575499D01*
X14944954Y-33585708D01*
X14979712Y-33614231D01*
X15014906Y-33660096D01*
X15135017Y-33752261D01*
X15274895Y-33810200D01*
X15349999Y-33820088D01*
X15350000Y-33820088D01*
X15350000Y-33452405D01*
X15359276Y-33410565D01*
X15394259Y-33335545D01*
X15400500Y-33288139D01*
X15400500Y-32597835D01*
X15400500Y-29871696D01*
X15416472Y-29817776D01*
X15445986Y-29792569D01*
X15444313Y-29790266D01*
X15605871Y-29672888D01*
X15682360Y-29587939D01*
X15732533Y-29532216D01*
X15827179Y-29368284D01*
X15885674Y-29188256D01*
X15905460Y-29000000D01*
X15885674Y-28811744D01*
X15827179Y-28631716D01*
X15732533Y-28467784D01*
X15732532Y-28467783D01*
X15732531Y-28467781D01*
X15605871Y-28327111D01*
X15487322Y-28240981D01*
X15453088Y-28196367D01*
X15448675Y-28140305D01*
X15475506Y-28090886D01*
X19080483Y-24485909D01*
X19080483Y-24485908D01*
X19103050Y-24463342D01*
X19114000Y-24441847D01*
X19122113Y-24428608D01*
X19136296Y-24409090D01*
X19143751Y-24386144D01*
X19149695Y-24371796D01*
X19160645Y-24350305D01*
X19160646Y-24350304D01*
X19164419Y-24326473D01*
X19168045Y-24311370D01*
X19175499Y-24288433D01*
X19175499Y-24264718D01*
X19175500Y-24264706D01*
X19175500Y-23180278D01*
X19184325Y-23139420D01*
X19209225Y-23105846D01*
X19225000Y-23092012D01*
X19225000Y-23092011D01*
X19625000Y-23092011D01*
X19681631Y-23084555D01*
X19827588Y-23024098D01*
X19952925Y-22927925D01*
X20049098Y-22802590D01*
X20109556Y-22656630D01*
X20125000Y-22539324D01*
X20125000Y-22062501D01*
X20124999Y-22062500D01*
X19625001Y-22062500D01*
X19625000Y-22062501D01*
X19625000Y-23092011D01*
X19225000Y-23092011D01*
X19225000Y-22543866D01*
X19225500Y-22536965D01*
X19225500Y-21188035D01*
X19225000Y-21181134D01*
X19225000Y-20632989D01*
X19224999Y-20632988D01*
X19625000Y-20632988D01*
X19625000Y-21662499D01*
X19625001Y-21662500D01*
X20124998Y-21662500D01*
X20124999Y-21662499D01*
X20124999Y-21185677D01*
X20109556Y-21068369D01*
X20049098Y-20922409D01*
X19952925Y-20797074D01*
X19827590Y-20700901D01*
X19681630Y-20640443D01*
X19625000Y-20632988D01*
X19224999Y-20632988D01*
X19168368Y-20640444D01*
X19022411Y-20700900D01*
X18897074Y-20797075D01*
X18867386Y-20835767D01*
X18832631Y-20864290D01*
X18788844Y-20874500D01*
X18761156Y-20874500D01*
X18717369Y-20864290D01*
X18682614Y-20835767D01*
X18652925Y-20797075D01*
X18527589Y-20700901D01*
X18381630Y-20640443D01*
X18325000Y-20632988D01*
X18325000Y-21181134D01*
X18324500Y-21188035D01*
X18324500Y-22536965D01*
X18325000Y-22543866D01*
X18325000Y-23092011D01*
X18340776Y-23105846D01*
X18365676Y-23139420D01*
X18374500Y-23180278D01*
X18374500Y-24018100D01*
X18366964Y-24055986D01*
X18345503Y-24088104D01*
X18019516Y-24414090D01*
X17974608Y-24439853D01*
X17922836Y-24439424D01*
X17878360Y-24412921D01*
X17853344Y-24367592D01*
X17854065Y-24338569D01*
X17853451Y-24338595D01*
X17850585Y-24269300D01*
X17850500Y-24265209D01*
X17850500Y-23195092D01*
X17866004Y-23141900D01*
X17907660Y-23105368D01*
X17910218Y-23104974D01*
X17925000Y-23092012D01*
X17925000Y-22543866D01*
X17925500Y-22536965D01*
X17925500Y-21188035D01*
X17925000Y-21181134D01*
X17925000Y-20632989D01*
X17924999Y-20632988D01*
X17868368Y-20640444D01*
X17722411Y-20700900D01*
X17597074Y-20797075D01*
X17567386Y-20835767D01*
X17532631Y-20864290D01*
X17488844Y-20874500D01*
X17341740Y-20874500D01*
X17300860Y-20880456D01*
X17273605Y-20884427D01*
X17193480Y-20923598D01*
X17150000Y-20933657D01*
X17106520Y-20923598D01*
X17026394Y-20884427D01*
X17009359Y-20881945D01*
X16958260Y-20874500D01*
X16691740Y-20874500D01*
X16650860Y-20880456D01*
X16623605Y-20884427D01*
X16543480Y-20923598D01*
X16500000Y-20933657D01*
X16456520Y-20923598D01*
X16376394Y-20884427D01*
X16359359Y-20881945D01*
X16308260Y-20874500D01*
X16041740Y-20874500D01*
X16000860Y-20880456D01*
X15973605Y-20884427D01*
X15893480Y-20923598D01*
X15850000Y-20933657D01*
X15806520Y-20923598D01*
X15726394Y-20884427D01*
X15709359Y-20881945D01*
X15658260Y-20874500D01*
X15391740Y-20874500D01*
X15350860Y-20880456D01*
X15323605Y-20884427D01*
X15243480Y-20923598D01*
X15200000Y-20933657D01*
X15156520Y-20923598D01*
X15076394Y-20884427D01*
X15059359Y-20881945D01*
X15008260Y-20874500D01*
X14861156Y-20874500D01*
X14817369Y-20864290D01*
X14782614Y-20835767D01*
X14752925Y-20797075D01*
X14627589Y-20700901D01*
X14481630Y-20640443D01*
X14425000Y-20632988D01*
X14425000Y-21181134D01*
X14424500Y-21188035D01*
X14424500Y-21963500D01*
X14411237Y-22013000D01*
X14375000Y-22049237D01*
X14325500Y-22062500D01*
X13775001Y-22062500D01*
X13775000Y-22062501D01*
X13775000Y-23092011D01*
X13831631Y-23084556D01*
X13862112Y-23071930D01*
X13899997Y-23064393D01*
X13937883Y-23071928D01*
X13948885Y-23076485D01*
X13987528Y-23105144D01*
X14008099Y-23148635D01*
X14005738Y-23196688D01*
X13981005Y-23237954D01*
X12029730Y-25189230D01*
X11983676Y-25215285D01*
X11930781Y-25213900D01*
X11886155Y-25185470D01*
X11880411Y-25179091D01*
X11822230Y-25114474D01*
X11804921Y-25101898D01*
X11677593Y-25009387D01*
X11514270Y-24936672D01*
X11514268Y-24936671D01*
X11514267Y-24936671D01*
X11339391Y-24899500D01*
X11160609Y-24899500D01*
X11073171Y-24918085D01*
X10985731Y-24936671D01*
X10822409Y-25009387D01*
X10677767Y-25114475D01*
X10558142Y-25247332D01*
X10468750Y-25402164D01*
X10468750Y-25402165D01*
X10413503Y-25572197D01*
X10394815Y-25750000D01*
X10413503Y-25927803D01*
X10440220Y-26010028D01*
X10468750Y-26097835D01*
X10558142Y-26252666D01*
X10677770Y-26385526D01*
X10822406Y-26490612D01*
X10931864Y-26539345D01*
X10985733Y-26563329D01*
X11160609Y-26600500D01*
X11339388Y-26600500D01*
X11339391Y-26600500D01*
X11491895Y-26568084D01*
X11542079Y-26570451D01*
X11584642Y-26597151D01*
X11608616Y-26641306D01*
X11607827Y-26691544D01*
X11582478Y-26734924D01*
X11221900Y-27095503D01*
X11189782Y-27116964D01*
X11151896Y-27124500D01*
X10072435Y-27124500D01*
X10022935Y-27111236D01*
X9986700Y-27075002D01*
X9941859Y-26997335D01*
X9941858Y-26997334D01*
X9941857Y-26997332D01*
X9822229Y-26864473D01*
X9677593Y-26759387D01*
X9514270Y-26686672D01*
X9514268Y-26686671D01*
X9514267Y-26686671D01*
X9339391Y-26649500D01*
X9160609Y-26649500D01*
X9073170Y-26668085D01*
X8985731Y-26686671D01*
X8814767Y-26762790D01*
X8766732Y-26771044D01*
X8720581Y-26755377D01*
X8687497Y-26719588D01*
X8675500Y-26672349D01*
X8675500Y-26260150D01*
X8683036Y-26222264D01*
X8704496Y-26190146D01*
X9704344Y-25190298D01*
X9704346Y-25190293D01*
X9715550Y-25179091D01*
X9726499Y-25157602D01*
X9734615Y-25144356D01*
X9748797Y-25124838D01*
X9756250Y-25101895D01*
X9762196Y-25087543D01*
X9773144Y-25066056D01*
X9773146Y-25066053D01*
X9776921Y-25042216D01*
X9780545Y-25027125D01*
X9788000Y-25004182D01*
X9788000Y-23996551D01*
X9798472Y-23952237D01*
X9827671Y-23917298D01*
X9843186Y-23905683D01*
X9936116Y-23836116D01*
X10020212Y-23723778D01*
X10069251Y-23592299D01*
X10075500Y-23534174D01*
X10075500Y-22965826D01*
X10069251Y-22907701D01*
X10057054Y-22875000D01*
X10020212Y-22776221D01*
X9977990Y-22719821D01*
X9936116Y-22663884D01*
X9827671Y-22582702D01*
X9798472Y-22547763D01*
X9788000Y-22503449D01*
X9788000Y-22164591D01*
X9805680Y-22108129D01*
X9852404Y-22071833D01*
X9877427Y-22062500D01*
X9923778Y-22045212D01*
X10034848Y-21962064D01*
X10085370Y-21942712D01*
X10138526Y-21952811D01*
X10178433Y-21989347D01*
X10230052Y-22073034D01*
X10351962Y-22194944D01*
X10498699Y-22285453D01*
X10662350Y-22339681D01*
X10756814Y-22349332D01*
X10805745Y-22368315D01*
X10838095Y-22409643D01*
X10844774Y-22461701D01*
X10823903Y-22509857D01*
X10781349Y-22540577D01*
X10676221Y-22579787D01*
X10563884Y-22663884D01*
X10479787Y-22776221D01*
X10430748Y-22907700D01*
X10424500Y-22965828D01*
X10424500Y-23534172D01*
X10430748Y-23592299D01*
X10479787Y-23723778D01*
X10527440Y-23787433D01*
X10563884Y-23836116D01*
X10613768Y-23873459D01*
X10676221Y-23920212D01*
X10807700Y-23969251D01*
X10811998Y-23969713D01*
X10865826Y-23975500D01*
X11459172Y-23975500D01*
X11459174Y-23975500D01*
X11517299Y-23969251D01*
X11648778Y-23920212D01*
X11761116Y-23836116D01*
X11845212Y-23723778D01*
X11863990Y-23673428D01*
X11888261Y-23636539D01*
X11926157Y-23613873D01*
X11934090Y-23611296D01*
X11953606Y-23597115D01*
X11966846Y-23589002D01*
X11988342Y-23578050D01*
X11999543Y-23566848D01*
X11999549Y-23566844D01*
X12192934Y-23373459D01*
X12791335Y-22775056D01*
X12832599Y-22750324D01*
X12880651Y-22747963D01*
X12924142Y-22768533D01*
X12942179Y-22792853D01*
X12942967Y-22792249D01*
X13047074Y-22927925D01*
X13172409Y-23024098D01*
X13318369Y-23084556D01*
X13374999Y-23092011D01*
X13375000Y-23092012D01*
X13375000Y-21662499D01*
X13775000Y-21662499D01*
X13775001Y-21662500D01*
X14024999Y-21662500D01*
X14025000Y-21662499D01*
X14025000Y-20632989D01*
X14024999Y-20632988D01*
X13968370Y-20640443D01*
X13937884Y-20653071D01*
X13900000Y-20660606D01*
X13862115Y-20653070D01*
X13831632Y-20640443D01*
X13775000Y-20632988D01*
X13775000Y-21662499D01*
X13375000Y-21662499D01*
X13375000Y-20632989D01*
X13374999Y-20632988D01*
X13318368Y-20640444D01*
X13172410Y-20700901D01*
X13059767Y-20787335D01*
X13009203Y-20807316D01*
X12955713Y-20797583D01*
X12915429Y-20761072D01*
X12900500Y-20708793D01*
X12900500Y-19956901D01*
X12908036Y-19919015D01*
X12929496Y-19886897D01*
X13891844Y-18924549D01*
X13891846Y-18924544D01*
X13903050Y-18913342D01*
X13913999Y-18891853D01*
X13922115Y-18878607D01*
X13936297Y-18859089D01*
X13943750Y-18836146D01*
X13949696Y-18821794D01*
X13960644Y-18800307D01*
X13960646Y-18800304D01*
X13964421Y-18776467D01*
X13968045Y-18761376D01*
X13975500Y-18738433D01*
X13975500Y-17789310D01*
X13976719Y-17773823D01*
X13980492Y-17749999D01*
X13976719Y-17726177D01*
X13975500Y-17710690D01*
X13975500Y-17223033D01*
X13991250Y-17169456D01*
X14033489Y-17132927D01*
X14084566Y-17125667D01*
X14084566Y-17125500D01*
X14085738Y-17125500D01*
X14088775Y-17125068D01*
X14091740Y-17125500D01*
X14358257Y-17125500D01*
X14358260Y-17125500D01*
X14426393Y-17115573D01*
X14506522Y-17076400D01*
X14550000Y-17066342D01*
X14593477Y-17076400D01*
X14673607Y-17115573D01*
X14741740Y-17125500D01*
X15008257Y-17125500D01*
X15008260Y-17125500D01*
X15076393Y-17115573D01*
X15156522Y-17076400D01*
X15200000Y-17066342D01*
X15243477Y-17076400D01*
X15323607Y-17115573D01*
X15391740Y-17125500D01*
X15658257Y-17125500D01*
X15658260Y-17125500D01*
X15726393Y-17115573D01*
X15806522Y-17076400D01*
X15850000Y-17066342D01*
X15893477Y-17076400D01*
X15973607Y-17115573D01*
X16041740Y-17125500D01*
X16308257Y-17125500D01*
X16308260Y-17125500D01*
X16376393Y-17115573D01*
X16456522Y-17076400D01*
X16500000Y-17066342D01*
X16543477Y-17076400D01*
X16623607Y-17115573D01*
X16691740Y-17125500D01*
X16958257Y-17125500D01*
X16958260Y-17125500D01*
X17026393Y-17115573D01*
X17106522Y-17076400D01*
X17150000Y-17066342D01*
X17193477Y-17076400D01*
X17273607Y-17115573D01*
X17341740Y-17125500D01*
X17608257Y-17125500D01*
X17608260Y-17125500D01*
X17676393Y-17115573D01*
X17756522Y-17076400D01*
X17800000Y-17066342D01*
X17843477Y-17076400D01*
X17923607Y-17115573D01*
X17991740Y-17125500D01*
X18258257Y-17125500D01*
X18258260Y-17125500D01*
X18326393Y-17115573D01*
X18406522Y-17076400D01*
X18450000Y-17066342D01*
X18493477Y-17076400D01*
X18573607Y-17115573D01*
X18641740Y-17125500D01*
X18908257Y-17125500D01*
X18908260Y-17125500D01*
X18976393Y-17115573D01*
X19056522Y-17076400D01*
X19100000Y-17066342D01*
X19143477Y-17076400D01*
X19223607Y-17115573D01*
X19291740Y-17125500D01*
X19558257Y-17125500D01*
X19558260Y-17125500D01*
X19626393Y-17115573D01*
X19731483Y-17064198D01*
X19814198Y-16981483D01*
X19865573Y-16876393D01*
X19875500Y-16808260D01*
X19875500Y-15466740D01*
X19865573Y-15398607D01*
X19814198Y-15293517D01*
X19731483Y-15210802D01*
X19626393Y-15159427D01*
X19558260Y-15149500D01*
X19405899Y-15149500D01*
X19350898Y-15132815D01*
X19314435Y-15088386D01*
X19308801Y-15031186D01*
X19335893Y-14980498D01*
X19386898Y-14929493D01*
X19419013Y-14908036D01*
X19456899Y-14900500D01*
X20563432Y-14900500D01*
X20563433Y-14900500D01*
X20586382Y-14893043D01*
X20601462Y-14889421D01*
X20625304Y-14885646D01*
X20646798Y-14874693D01*
X20661146Y-14868749D01*
X20684090Y-14861296D01*
X20703606Y-14847115D01*
X20716846Y-14839002D01*
X20738342Y-14828050D01*
X20749543Y-14816848D01*
X20749549Y-14816844D01*
X21066394Y-14499999D01*
X23025000Y-14499999D01*
X23025001Y-14500000D01*
X23749999Y-14500000D01*
X23750000Y-14499999D01*
X24250000Y-14499999D01*
X24250001Y-14500000D01*
X24974998Y-14500000D01*
X24974999Y-14499999D01*
X24974999Y-14400849D01*
X24964682Y-14299851D01*
X24910453Y-14136199D01*
X24819944Y-13989462D01*
X24698037Y-13867555D01*
X24551300Y-13777046D01*
X24387649Y-13722818D01*
X24286650Y-13712500D01*
X24250001Y-13712500D01*
X24250000Y-13712501D01*
X24250000Y-14499999D01*
X23750000Y-14499999D01*
X23750000Y-13712502D01*
X23749999Y-13712501D01*
X23713349Y-13712501D01*
X23612351Y-13722817D01*
X23448699Y-13777046D01*
X23301962Y-13867555D01*
X23180055Y-13989462D01*
X23089546Y-14136199D01*
X23035318Y-14299850D01*
X23025000Y-14400850D01*
X23025000Y-14499999D01*
X21066394Y-14499999D01*
X21569407Y-13996985D01*
X21569408Y-13996983D01*
X21578050Y-13988342D01*
X21589005Y-13966837D01*
X21597109Y-13953614D01*
X21611296Y-13934090D01*
X21618751Y-13911142D01*
X21624695Y-13896794D01*
X21625019Y-13896159D01*
X21635646Y-13875304D01*
X21639421Y-13851462D01*
X21643043Y-13836382D01*
X21650500Y-13813433D01*
X21650500Y-13686567D01*
X21650500Y-13560739D01*
X21661290Y-13515794D01*
X21691309Y-13480647D01*
X21734575Y-13449211D01*
X21822230Y-13385526D01*
X21941859Y-13252665D01*
X22031250Y-13097835D01*
X22086497Y-12927803D01*
X22105185Y-12750000D01*
X22086497Y-12572197D01*
X22031250Y-12402165D01*
X21941859Y-12247335D01*
X21822230Y-12114474D01*
X21691309Y-12019353D01*
X21661290Y-11984206D01*
X21650500Y-11939261D01*
X21650500Y-11686566D01*
X21643045Y-11663622D01*
X21639419Y-11648522D01*
X21635646Y-11624696D01*
X21624692Y-11603199D01*
X21618752Y-11588857D01*
X21616193Y-11580981D01*
X21611297Y-11565911D01*
X21597111Y-11546386D01*
X21588999Y-11533148D01*
X21578050Y-11511658D01*
X21555486Y-11489094D01*
X21555484Y-11489091D01*
X20510909Y-10444516D01*
X20510908Y-10444515D01*
X20505934Y-10439541D01*
X20505934Y-10439540D01*
X20505931Y-10439538D01*
X20488342Y-10421949D01*
X20466850Y-10410998D01*
X20453610Y-10402885D01*
X20434090Y-10388704D01*
X20411141Y-10381247D01*
X20396796Y-10375305D01*
X20375304Y-10364354D01*
X20375303Y-10364353D01*
X20375302Y-10364353D01*
X20351474Y-10360579D01*
X20336373Y-10356953D01*
X20313433Y-10349500D01*
X20281519Y-10349500D01*
X9718481Y-10349500D01*
X9710294Y-10349500D01*
X9710282Y-10349501D01*
X9686566Y-10349501D01*
X9663626Y-10356954D01*
X9648523Y-10360580D01*
X9624693Y-10364354D01*
X9603198Y-10375306D01*
X9588852Y-10381249D01*
X9565910Y-10388703D01*
X9552244Y-10398632D01*
X9546391Y-10402885D01*
X9533152Y-10410998D01*
X9524742Y-10415283D01*
X9511657Y-10421950D01*
X9489088Y-10444519D01*
X9489091Y-10444517D01*
X8582016Y-11351591D01*
X8559449Y-11374158D01*
X8548497Y-11395651D01*
X8540387Y-11408886D01*
X8526204Y-11428408D01*
X8518749Y-11451353D01*
X8512805Y-11465700D01*
X8501852Y-11487195D01*
X8498077Y-11511028D01*
X8494453Y-11526124D01*
X8487000Y-11549065D01*
X8487000Y-12305600D01*
X8479464Y-12343485D01*
X8458004Y-12375603D01*
X8409451Y-12424156D01*
X8351853Y-12537197D01*
X8337000Y-12630980D01*
X8337000Y-13869021D01*
X8351852Y-13962803D01*
X8392387Y-14042355D01*
X8403129Y-14090410D01*
X8389392Y-14137696D01*
X8354574Y-14172514D01*
X8307288Y-14186252D01*
X8259233Y-14175511D01*
X8214823Y-14152883D01*
X8212804Y-14151854D01*
X8212803Y-14151853D01*
X8212802Y-14151853D01*
X8119019Y-14137000D01*
X7755978Y-14137000D01*
X7662196Y-14151852D01*
X7549160Y-14209448D01*
X7459449Y-14299159D01*
X7401853Y-14412197D01*
X7387000Y-14505981D01*
X7387000Y-15103454D01*
X7379464Y-15141340D01*
X7358003Y-15173458D01*
X6769270Y-15762189D01*
X6753419Y-15775062D01*
X6742162Y-15782417D01*
X6721766Y-15808620D01*
X6713658Y-15817804D01*
X6712480Y-15818981D01*
X6700090Y-15836335D01*
X6697646Y-15839612D01*
X6662095Y-15885288D01*
X6659427Y-15890471D01*
X6642911Y-15945948D01*
X6641664Y-15949841D01*
X6622862Y-16004611D01*
X6622023Y-16010372D01*
X6624415Y-16068201D01*
X6624500Y-16072292D01*
X6624500Y-35200789D01*
X6622393Y-35221105D01*
X6619633Y-35234267D01*
X6623740Y-35267217D01*
X6624500Y-35279462D01*
X6624500Y-35281118D01*
X6628003Y-35302115D01*
X6628593Y-35306159D01*
X6635756Y-35363622D01*
X6637536Y-35369178D01*
X6665088Y-35420091D01*
X6666958Y-35423724D01*
X6687541Y-35465826D01*
X6692390Y-35475743D01*
X6695867Y-35480407D01*
X6699580Y-35483825D01*
X6699581Y-35483826D01*
X6738473Y-35519629D01*
X6741400Y-35522437D01*
X8398958Y-37179995D01*
X8424581Y-37224376D01*
X8424581Y-37275622D01*
X8398958Y-37320003D01*
X6019271Y-39699689D01*
X6003419Y-39712562D01*
X5992162Y-39719917D01*
X5971766Y-39746120D01*
X5963658Y-39755304D01*
X5962480Y-39756481D01*
X5950090Y-39773835D01*
X5947646Y-39777112D01*
X5912095Y-39822788D01*
X5909427Y-39827971D01*
X5892911Y-39883448D01*
X5891667Y-39887328D01*
X5885775Y-39904496D01*
X5872862Y-39942111D01*
X5872023Y-39947872D01*
X5874415Y-40005701D01*
X5874500Y-40009792D01*
X5874500Y-44703637D01*
X5859761Y-44755609D01*
X5819932Y-44792106D01*
X5766872Y-44802260D01*
X5761742Y-44801811D01*
X5063554Y-45499999D01*
X4356444Y-45499999D01*
X3658257Y-44801812D01*
X3612899Y-44866592D01*
X3519579Y-45066717D01*
X3462424Y-45280021D01*
X3443178Y-45500000D01*
X2000500Y-45500000D01*
X2000500Y-44448257D01*
X4011812Y-44448257D01*
X4709999Y-45146444D01*
X5408186Y-44448257D01*
X5343413Y-44402902D01*
X5143277Y-44309578D01*
X4929978Y-44252424D01*
X4710000Y-44233178D01*
X4490021Y-44252424D01*
X4276717Y-44309579D01*
X4076592Y-44402899D01*
X4011812Y-44448257D01*
X2000500Y-44448257D01*
X2000500Y-8040000D01*
X11564785Y-8040000D01*
X11583603Y-8243082D01*
X11639419Y-8439252D01*
X11730325Y-8621818D01*
X11730326Y-8621819D01*
X11730327Y-8621821D01*
X11853236Y-8784579D01*
X12003959Y-8921981D01*
X12177363Y-9029348D01*
X12327254Y-9087415D01*
X12367546Y-9103025D01*
X12568022Y-9140500D01*
X12568024Y-9140500D01*
X12771976Y-9140500D01*
X12771978Y-9140500D01*
X12972453Y-9103025D01*
X12972456Y-9103024D01*
X13162637Y-9029348D01*
X13336041Y-8921981D01*
X13486764Y-8784579D01*
X13609673Y-8621821D01*
X13700582Y-8439250D01*
X13756397Y-8243083D01*
X13775215Y-8040000D01*
X14104785Y-8040000D01*
X14123603Y-8243082D01*
X14179419Y-8439252D01*
X14270325Y-8621818D01*
X14270326Y-8621819D01*
X14270327Y-8621821D01*
X14393236Y-8784579D01*
X14543959Y-8921981D01*
X14717363Y-9029348D01*
X14867254Y-9087415D01*
X14907546Y-9103025D01*
X15108022Y-9140500D01*
X15108024Y-9140500D01*
X15311976Y-9140500D01*
X15311978Y-9140500D01*
X15512453Y-9103025D01*
X15512456Y-9103024D01*
X15702637Y-9029348D01*
X15876041Y-8921981D01*
X16026764Y-8784579D01*
X16149673Y-8621821D01*
X16240582Y-8439250D01*
X16296397Y-8243083D01*
X16315215Y-8040000D01*
X16315215Y-8039999D01*
X16644785Y-8039999D01*
X16663603Y-8243082D01*
X16719419Y-8439252D01*
X16810325Y-8621818D01*
X16810326Y-8621819D01*
X16810327Y-8621821D01*
X16933236Y-8784579D01*
X17083959Y-8921981D01*
X17257363Y-9029348D01*
X17407254Y-9087415D01*
X17447546Y-9103025D01*
X17648022Y-9140500D01*
X17648024Y-9140500D01*
X17851976Y-9140500D01*
X17851978Y-9140500D01*
X18052453Y-9103025D01*
X18052456Y-9103024D01*
X18242637Y-9029348D01*
X18416041Y-8921981D01*
X18566764Y-8784579D01*
X18689673Y-8621821D01*
X18780582Y-8439250D01*
X18836397Y-8243083D01*
X18855215Y-8040000D01*
X18855215Y-8039999D01*
X19184785Y-8039999D01*
X19203603Y-8243082D01*
X19259419Y-8439252D01*
X19350325Y-8621818D01*
X19350326Y-8621819D01*
X19350327Y-8621821D01*
X19473236Y-8784579D01*
X19623959Y-8921981D01*
X19797363Y-9029348D01*
X19947254Y-9087415D01*
X19987546Y-9103025D01*
X20188022Y-9140500D01*
X20188024Y-9140500D01*
X20391976Y-9140500D01*
X20391978Y-9140500D01*
X20592453Y-9103025D01*
X20592456Y-9103024D01*
X20782637Y-9029348D01*
X20956041Y-8921981D01*
X21106764Y-8784579D01*
X21229673Y-8621821D01*
X21320582Y-8439250D01*
X21376397Y-8243083D01*
X21395215Y-8040000D01*
X21395215Y-8039999D01*
X21724785Y-8039999D01*
X21743603Y-8243082D01*
X21799419Y-8439252D01*
X21890325Y-8621818D01*
X21890326Y-8621819D01*
X21890327Y-8621821D01*
X22013236Y-8784579D01*
X22163959Y-8921981D01*
X22337363Y-9029348D01*
X22487254Y-9087415D01*
X22527546Y-9103025D01*
X22728022Y-9140500D01*
X22728024Y-9140500D01*
X22931976Y-9140500D01*
X22931978Y-9140500D01*
X23132453Y-9103025D01*
X23132456Y-9103024D01*
X23322637Y-9029348D01*
X23496041Y-8921981D01*
X23646764Y-8784579D01*
X23769673Y-8621821D01*
X23860582Y-8439250D01*
X23916397Y-8243083D01*
X23935215Y-8040000D01*
X23916397Y-7836917D01*
X23860582Y-7640750D01*
X23769673Y-7458179D01*
X23646764Y-7295421D01*
X23496041Y-7158019D01*
X23322637Y-7050652D01*
X23282347Y-7035043D01*
X23132453Y-6976974D01*
X22931978Y-6939500D01*
X22931976Y-6939500D01*
X22728024Y-6939500D01*
X22728022Y-6939500D01*
X22527546Y-6976974D01*
X22337360Y-7050653D01*
X22163961Y-7158017D01*
X22013237Y-7295420D01*
X21890325Y-7458181D01*
X21799419Y-7640747D01*
X21743603Y-7836917D01*
X21724785Y-8039999D01*
X21395215Y-8039999D01*
X21376397Y-7836917D01*
X21320582Y-7640750D01*
X21229673Y-7458179D01*
X21106764Y-7295421D01*
X20956041Y-7158019D01*
X20782637Y-7050652D01*
X20630342Y-6991653D01*
X20582952Y-6953065D01*
X20567249Y-6894004D01*
X20589216Y-6836976D01*
X20640482Y-6803711D01*
X20753495Y-6773429D01*
X20967576Y-6673601D01*
X21051373Y-6614926D01*
X20290000Y-5853553D01*
X19528626Y-6614926D01*
X19612423Y-6673601D01*
X19826504Y-6773429D01*
X19939517Y-6803711D01*
X19990783Y-6836976D01*
X20012750Y-6894004D01*
X19997047Y-6953065D01*
X19949657Y-6991653D01*
X19797360Y-7050653D01*
X19623961Y-7158017D01*
X19473237Y-7295420D01*
X19350325Y-7458181D01*
X19259419Y-7640747D01*
X19203603Y-7836917D01*
X19184785Y-8039999D01*
X18855215Y-8039999D01*
X18836397Y-7836917D01*
X18780582Y-7640750D01*
X18689673Y-7458179D01*
X18566764Y-7295421D01*
X18416041Y-7158019D01*
X18242637Y-7050652D01*
X18090342Y-6991653D01*
X18042952Y-6953065D01*
X18027249Y-6894004D01*
X18049216Y-6836976D01*
X18100482Y-6803711D01*
X18213495Y-6773429D01*
X18427576Y-6673601D01*
X18511373Y-6614926D01*
X17750000Y-5853553D01*
X16988626Y-6614926D01*
X17072423Y-6673601D01*
X17286504Y-6773429D01*
X17399517Y-6803711D01*
X17450783Y-6836976D01*
X17472750Y-6894004D01*
X17457047Y-6953065D01*
X17409657Y-6991653D01*
X17257360Y-7050653D01*
X17083961Y-7158017D01*
X16933237Y-7295420D01*
X16810325Y-7458181D01*
X16719419Y-7640747D01*
X16663603Y-7836917D01*
X16644785Y-8039999D01*
X16315215Y-8039999D01*
X16296397Y-7836917D01*
X16240582Y-7640750D01*
X16149673Y-7458179D01*
X16026764Y-7295421D01*
X15876041Y-7158019D01*
X15702637Y-7050652D01*
X15662347Y-7035043D01*
X15512453Y-6976974D01*
X15311978Y-6939500D01*
X15311976Y-6939500D01*
X15108024Y-6939500D01*
X15108022Y-6939500D01*
X14907546Y-6976974D01*
X14717360Y-7050653D01*
X14543961Y-7158017D01*
X14393237Y-7295420D01*
X14270325Y-7458181D01*
X14179419Y-7640747D01*
X14123603Y-7836917D01*
X14104785Y-8040000D01*
X13775215Y-8040000D01*
X13756397Y-7836917D01*
X13700582Y-7640750D01*
X13609673Y-7458179D01*
X13486764Y-7295421D01*
X13336041Y-7158019D01*
X13162637Y-7050652D01*
X13010342Y-6991653D01*
X12962952Y-6953065D01*
X12947249Y-6894004D01*
X12969216Y-6836976D01*
X13020482Y-6803711D01*
X13133495Y-6773429D01*
X13347576Y-6673601D01*
X13431373Y-6614926D01*
X12670000Y-5853553D01*
X11908626Y-6614926D01*
X11992423Y-6673601D01*
X12206504Y-6773429D01*
X12319517Y-6803711D01*
X12370783Y-6836976D01*
X12392750Y-6894004D01*
X12377047Y-6953065D01*
X12329657Y-6991653D01*
X12177360Y-7050653D01*
X12003961Y-7158017D01*
X11853237Y-7295420D01*
X11730325Y-7458181D01*
X11639419Y-7640747D01*
X11583603Y-7836917D01*
X11564785Y-8040000D01*
X2000500Y-8040000D01*
X2000500Y-4499999D01*
X2894551Y-4499999D01*
X2914316Y-4751146D01*
X2973127Y-4996112D01*
X3069535Y-5228862D01*
X3201163Y-5443658D01*
X3364775Y-5635224D01*
X3556341Y-5798836D01*
X3771137Y-5930464D01*
X3771139Y-5930464D01*
X3771141Y-5930466D01*
X4003889Y-6026873D01*
X4248852Y-6085683D01*
X4500000Y-6105449D01*
X4751148Y-6085683D01*
X4996111Y-6026873D01*
X5228859Y-5930466D01*
X5443659Y-5798836D01*
X5635224Y-5635224D01*
X5750717Y-5499999D01*
X11314842Y-5499999D01*
X11335430Y-5735318D01*
X11396570Y-5963495D01*
X11496398Y-6177576D01*
X11555072Y-6261372D01*
X12316444Y-5500000D01*
X13023553Y-5500000D01*
X13784926Y-6261373D01*
X13843601Y-6177576D01*
X13943429Y-5963495D01*
X13973985Y-5849458D01*
X13999393Y-5805294D01*
X14043400Y-5779614D01*
X14094350Y-5779222D01*
X14138747Y-5804220D01*
X14164832Y-5847986D01*
X14179418Y-5899250D01*
X14179419Y-5899252D01*
X14270325Y-6081818D01*
X14270326Y-6081819D01*
X14270327Y-6081821D01*
X14393236Y-6244579D01*
X14543959Y-6381981D01*
X14717363Y-6489348D01*
X14867254Y-6547415D01*
X14907546Y-6563025D01*
X15108022Y-6600500D01*
X15108024Y-6600500D01*
X15311976Y-6600500D01*
X15311978Y-6600500D01*
X15512453Y-6563025D01*
X15512456Y-6563024D01*
X15702637Y-6489348D01*
X15876041Y-6381981D01*
X16026764Y-6244579D01*
X16149673Y-6081821D01*
X16240582Y-5899250D01*
X16255168Y-5847985D01*
X16281251Y-5804221D01*
X16325648Y-5779222D01*
X16376598Y-5779614D01*
X16420606Y-5805293D01*
X16446014Y-5849458D01*
X16476570Y-5963495D01*
X16576398Y-6177576D01*
X16635072Y-6261372D01*
X17396444Y-5500000D01*
X18103553Y-5500000D01*
X18864926Y-6261373D01*
X18923598Y-6177581D01*
X18930275Y-6163263D01*
X18966807Y-6121606D01*
X19020000Y-6106102D01*
X19073193Y-6121606D01*
X19109725Y-6163263D01*
X19116401Y-6177581D01*
X19175072Y-6261372D01*
X19936444Y-5500000D01*
X20643553Y-5500000D01*
X21404926Y-6261373D01*
X21463598Y-6177581D01*
X21540775Y-6012073D01*
X21575139Y-5971838D01*
X21625318Y-5955048D01*
X21676977Y-5966500D01*
X21715359Y-6002922D01*
X21729500Y-6053911D01*
X21729500Y-6147871D01*
X21735909Y-6207484D01*
X21786203Y-6342330D01*
X21786204Y-6342331D01*
X21872454Y-6457546D01*
X21987669Y-6543796D01*
X22122517Y-6594091D01*
X22182127Y-6600500D01*
X23477872Y-6600499D01*
X23537483Y-6594091D01*
X23672331Y-6543796D01*
X23787546Y-6457546D01*
X23873796Y-6342331D01*
X23924091Y-6207483D01*
X23930500Y-6147873D01*
X23930499Y-4852128D01*
X23924091Y-4792517D01*
X23873796Y-4657669D01*
X23787546Y-4542454D01*
X23730835Y-4500000D01*
X29244551Y-4500000D01*
X29264316Y-4751146D01*
X29323127Y-4996112D01*
X29419535Y-5228862D01*
X29551163Y-5443658D01*
X29714775Y-5635224D01*
X29906341Y-5798836D01*
X30121137Y-5930464D01*
X30121139Y-5930464D01*
X30121141Y-5930466D01*
X30353889Y-6026873D01*
X30598852Y-6085683D01*
X30850000Y-6105449D01*
X31101148Y-6085683D01*
X31346111Y-6026873D01*
X31578859Y-5930466D01*
X31793659Y-5798836D01*
X31985224Y-5635224D01*
X32148836Y-5443659D01*
X32280466Y-5228859D01*
X32376873Y-4996111D01*
X32435683Y-4751148D01*
X32455449Y-4500000D01*
X32435683Y-4248852D01*
X32376873Y-4003889D01*
X32280466Y-3771141D01*
X32148836Y-3556341D01*
X32148835Y-3556340D01*
X31985224Y-3364775D01*
X31793658Y-3201163D01*
X31578862Y-3069535D01*
X31346112Y-2973127D01*
X31101146Y-2914316D01*
X30871453Y-2896239D01*
X30850000Y-2894551D01*
X30849999Y-2894551D01*
X30598853Y-2914316D01*
X30353887Y-2973127D01*
X30121137Y-3069535D01*
X29906341Y-3201163D01*
X29714775Y-3364775D01*
X29551163Y-3556341D01*
X29419535Y-3771137D01*
X29323127Y-4003887D01*
X29264316Y-4248853D01*
X29244551Y-4500000D01*
X23730835Y-4500000D01*
X23672331Y-4456204D01*
X23672330Y-4456203D01*
X23576366Y-4420411D01*
X23537483Y-4405909D01*
X23477873Y-4399500D01*
X23477869Y-4399500D01*
X22182128Y-4399500D01*
X22122515Y-4405909D01*
X21987669Y-4456203D01*
X21872454Y-4542454D01*
X21786203Y-4657669D01*
X21749745Y-4755420D01*
X21735909Y-4792517D01*
X21731155Y-4836738D01*
X21729500Y-4852131D01*
X21729500Y-4946085D01*
X21715360Y-4997074D01*
X21676978Y-5033497D01*
X21625319Y-5044949D01*
X21575140Y-5028160D01*
X21540776Y-4987924D01*
X21463601Y-4822425D01*
X21404926Y-4738626D01*
X20643553Y-5500000D01*
X19936444Y-5500000D01*
X19936445Y-5499999D01*
X19175072Y-4738626D01*
X19116399Y-4822423D01*
X19109724Y-4836738D01*
X19073192Y-4878394D01*
X19020000Y-4893898D01*
X18966808Y-4878394D01*
X18930276Y-4836738D01*
X18923600Y-4822423D01*
X18864926Y-4738626D01*
X18103553Y-5500000D01*
X17396444Y-5500000D01*
X17396445Y-5499999D01*
X16635072Y-4738626D01*
X16576398Y-4822424D01*
X16476570Y-5036505D01*
X16446014Y-5150541D01*
X16420606Y-5194706D01*
X16376598Y-5220385D01*
X16325648Y-5220777D01*
X16281251Y-5195778D01*
X16255167Y-5152012D01*
X16240582Y-5100750D01*
X16149673Y-4918179D01*
X16026764Y-4755421D01*
X15876041Y-4618019D01*
X15702637Y-4510652D01*
X15662347Y-4495043D01*
X15512453Y-4436974D01*
X15311978Y-4399500D01*
X15311976Y-4399500D01*
X15108024Y-4399500D01*
X15108022Y-4399500D01*
X14907546Y-4436974D01*
X14717360Y-4510653D01*
X14543961Y-4618017D01*
X14397925Y-4751146D01*
X14393236Y-4755421D01*
X14352266Y-4809673D01*
X14270325Y-4918181D01*
X14179417Y-5100751D01*
X14164832Y-5152012D01*
X14138747Y-5195779D01*
X14094350Y-5220778D01*
X14043400Y-5220385D01*
X13999393Y-5194705D01*
X13973985Y-5150541D01*
X13943429Y-5036504D01*
X13843601Y-4822425D01*
X13784926Y-4738626D01*
X13023553Y-5500000D01*
X12316444Y-5500000D01*
X12316445Y-5499999D01*
X11555072Y-4738626D01*
X11496398Y-4822424D01*
X11396570Y-5036504D01*
X11335430Y-5264681D01*
X11314842Y-5499999D01*
X5750717Y-5499999D01*
X5798836Y-5443659D01*
X5930466Y-5228859D01*
X6026873Y-4996111D01*
X6085683Y-4751148D01*
X6105449Y-4500000D01*
X6096404Y-4385072D01*
X11908626Y-4385072D01*
X12669999Y-5146445D01*
X13431372Y-4385072D01*
X16988626Y-4385072D01*
X17749999Y-5146445D01*
X18511372Y-4385072D01*
X19528626Y-4385072D01*
X20289999Y-5146445D01*
X21051372Y-4385072D01*
X20967576Y-4326398D01*
X20753495Y-4226570D01*
X20525318Y-4165430D01*
X20290000Y-4144842D01*
X20054681Y-4165430D01*
X19826504Y-4226570D01*
X19612424Y-4326398D01*
X19528626Y-4385072D01*
X18511372Y-4385072D01*
X18427576Y-4326398D01*
X18213495Y-4226570D01*
X17985318Y-4165430D01*
X17750000Y-4144842D01*
X17514681Y-4165430D01*
X17286504Y-4226570D01*
X17072424Y-4326398D01*
X16988626Y-4385072D01*
X13431372Y-4385072D01*
X13347576Y-4326398D01*
X13133495Y-4226570D01*
X12905318Y-4165430D01*
X12670000Y-4144842D01*
X12434681Y-4165430D01*
X12206504Y-4226570D01*
X11992424Y-4326398D01*
X11908626Y-4385072D01*
X6096404Y-4385072D01*
X6085683Y-4248852D01*
X6026873Y-4003889D01*
X5930466Y-3771141D01*
X5798836Y-3556341D01*
X5798835Y-3556340D01*
X5635224Y-3364775D01*
X5443658Y-3201163D01*
X5228862Y-3069535D01*
X4996112Y-2973127D01*
X4751146Y-2914316D01*
X4500000Y-2894551D01*
X4248853Y-2914316D01*
X4003887Y-2973127D01*
X3771137Y-3069535D01*
X3556341Y-3201163D01*
X3364775Y-3364775D01*
X3201163Y-3556341D01*
X3069535Y-3771137D01*
X2973127Y-4003887D01*
X2914316Y-4248853D01*
X2894551Y-4499999D01*
X2000500Y-4499999D01*
X2000500Y-1599500D01*
X2013763Y-1550000D01*
X2050000Y-1513763D01*
X2099500Y-1500500D01*
X33400500Y-1500500D01*
X33450000Y-1513763D01*
G37*
%TD.AperFunction*%
%TD*%
%TA.AperFunction,NonConductor*%
G36*
X8492423Y-16008476D02*
G01*
X8519377Y-16050580D01*
X8526204Y-16071590D01*
X8540385Y-16091110D01*
X8548498Y-16104350D01*
X8559449Y-16125842D01*
X8582016Y-16148409D01*
X10489091Y-18055484D01*
X10489094Y-18055486D01*
X10511658Y-18078050D01*
X10533151Y-18089001D01*
X10546387Y-18097112D01*
X10565909Y-18111295D01*
X10565910Y-18111295D01*
X10565911Y-18111296D01*
X10588861Y-18118752D01*
X10603201Y-18124693D01*
X10624696Y-18135646D01*
X10648534Y-18139421D01*
X10663611Y-18143041D01*
X10686567Y-18150500D01*
X10718481Y-18150500D01*
X10813433Y-18150500D01*
X13075500Y-18150500D01*
X13125000Y-18163763D01*
X13161237Y-18200000D01*
X13174500Y-18249500D01*
X13174500Y-18468099D01*
X13166964Y-18505985D01*
X13145504Y-18538103D01*
X12319003Y-19364604D01*
X12268313Y-19391698D01*
X12211113Y-19386064D01*
X12166684Y-19349601D01*
X12149999Y-19294600D01*
X12149999Y-19213349D01*
X12139682Y-19112351D01*
X12085453Y-18948699D01*
X11994944Y-18801962D01*
X11873037Y-18680055D01*
X11726300Y-18589546D01*
X11562649Y-18535318D01*
X11461650Y-18525000D01*
X11412501Y-18525000D01*
X11412500Y-18525001D01*
X11412500Y-20423993D01*
X11404964Y-20461879D01*
X11383504Y-20493997D01*
X11362500Y-20515001D01*
X11362500Y-21526000D01*
X11349237Y-21575500D01*
X11313000Y-21611737D01*
X11263500Y-21625000D01*
X10961500Y-21625000D01*
X10912000Y-21611737D01*
X10875763Y-21575500D01*
X10862500Y-21526000D01*
X10862500Y-20451007D01*
X10870036Y-20413121D01*
X10891496Y-20381003D01*
X10912500Y-20359999D01*
X10912500Y-18525002D01*
X10912499Y-18525001D01*
X10863349Y-18525001D01*
X10762351Y-18535317D01*
X10598699Y-18589546D01*
X10451962Y-18680055D01*
X10330055Y-18801962D01*
X10239547Y-18948698D01*
X10211212Y-19034207D01*
X10175934Y-19082788D01*
X10119068Y-19102049D01*
X10061528Y-19084905D01*
X10024478Y-19037662D01*
X10020212Y-19026222D01*
X9936116Y-18913884D01*
X9888022Y-18877880D01*
X9823778Y-18829787D01*
X9692299Y-18780748D01*
X9644458Y-18775605D01*
X9634174Y-18774500D01*
X9040826Y-18774500D01*
X9031377Y-18775515D01*
X8982700Y-18780748D01*
X8851221Y-18829787D01*
X8738884Y-18913884D01*
X8654787Y-19026221D01*
X8605748Y-19157700D01*
X8599500Y-19215828D01*
X8599500Y-19784172D01*
X8605748Y-19842299D01*
X8654787Y-19973778D01*
X8702880Y-20038022D01*
X8738884Y-20086116D01*
X8847329Y-20167298D01*
X8851222Y-20170212D01*
X8922596Y-20196833D01*
X8969320Y-20233129D01*
X8987000Y-20289591D01*
X8987000Y-20585409D01*
X8969320Y-20641871D01*
X8922596Y-20678167D01*
X8851222Y-20704787D01*
X8738884Y-20788884D01*
X8654787Y-20901221D01*
X8605748Y-21032700D01*
X8603656Y-21052165D01*
X8599500Y-21090826D01*
X8599500Y-21659174D01*
X8599858Y-21662500D01*
X8605748Y-21717299D01*
X8654787Y-21848778D01*
X8682205Y-21885403D01*
X8738884Y-21961116D01*
X8838283Y-22035526D01*
X8851222Y-22045212D01*
X8922596Y-22071833D01*
X8969320Y-22108129D01*
X8987000Y-22164591D01*
X8987000Y-22460409D01*
X8969320Y-22516871D01*
X8922596Y-22553167D01*
X8851222Y-22579787D01*
X8738884Y-22663884D01*
X8654787Y-22776221D01*
X8605748Y-22907700D01*
X8599500Y-22965828D01*
X8599500Y-23534172D01*
X8605748Y-23592299D01*
X8654787Y-23723778D01*
X8702440Y-23787433D01*
X8738884Y-23836116D01*
X8847329Y-23917298D01*
X8851222Y-23920212D01*
X8922596Y-23946833D01*
X8969320Y-23983129D01*
X8987000Y-24039591D01*
X8987000Y-24733848D01*
X8979464Y-24771734D01*
X8958004Y-24803852D01*
X7946949Y-25814907D01*
X7935997Y-25836400D01*
X7927887Y-25849635D01*
X7913704Y-25869157D01*
X7906249Y-25892102D01*
X7900305Y-25906449D01*
X7889352Y-25927944D01*
X7885577Y-25951777D01*
X7881953Y-25966873D01*
X7874500Y-25989814D01*
X7874500Y-35088433D01*
X7881953Y-35111373D01*
X7885579Y-35126474D01*
X7889353Y-35150302D01*
X7889353Y-35150303D01*
X7889354Y-35150304D01*
X7900305Y-35171796D01*
X7906247Y-35186141D01*
X7913704Y-35209090D01*
X7927885Y-35228610D01*
X7935998Y-35241850D01*
X7946949Y-35263342D01*
X9139103Y-36455496D01*
X9166197Y-36506186D01*
X9160563Y-36563386D01*
X9124100Y-36607815D01*
X9069099Y-36624500D01*
X8946545Y-36624500D01*
X8908659Y-36616964D01*
X8876541Y-36595504D01*
X7404496Y-35123458D01*
X7383036Y-35091340D01*
X7375500Y-35053454D01*
X7375500Y-16259044D01*
X7383036Y-16221159D01*
X7404496Y-16189041D01*
X7428363Y-16165174D01*
X7500835Y-16092700D01*
X7535357Y-16070282D01*
X7576017Y-16063842D01*
X7615780Y-16074495D01*
X7662196Y-16098146D01*
X7755981Y-16113000D01*
X8119018Y-16112999D01*
X8119021Y-16112999D01*
X8212803Y-16098147D01*
X8280129Y-16063842D01*
X8325842Y-16040550D01*
X8355221Y-16011170D01*
X8398349Y-15985892D01*
X8448332Y-15984910D01*
X8492423Y-16008476D01*
G37*
%TD.AperFunction*%
M02*
