%TF.GenerationSoftware,KiCad,Pcbnew,7.0.1*%
%TF.CreationDate,2023-04-27T15:41:12+07:00*%
%TF.ProjectId,BMP,424d502e-6b69-4636-9164-5f7063625858,rev?*%
%TF.SameCoordinates,Original*%
%TF.FileFunction,Copper,L1,Top*%
%TF.FilePolarity,Positive*%
%FSLAX46Y46*%
G04 Gerber Fmt 4.6, Leading zero omitted, Abs format (unit mm)*
G04 Created by KiCad (PCBNEW 7.0.1) date 2023-04-27 15:41:12*
%MOMM*%
%LPD*%
G01*
G04 APERTURE LIST*
G04 Aperture macros list*
%AMRoundRect*
0 Rectangle with rounded corners*
0 $1 Rounding radius*
0 $2 $3 $4 $5 $6 $7 $8 $9 X,Y pos of 4 corners*
0 Add a 4 corners polygon primitive as box body*
4,1,4,$2,$3,$4,$5,$6,$7,$8,$9,$2,$3,0*
0 Add four circle primitives for the rounded corners*
1,1,$1+$1,$2,$3*
1,1,$1+$1,$4,$5*
1,1,$1+$1,$6,$7*
1,1,$1+$1,$8,$9*
0 Add four rect primitives between the rounded corners*
20,1,$1+$1,$2,$3,$4,$5,0*
20,1,$1+$1,$4,$5,$6,$7,0*
20,1,$1+$1,$6,$7,$8,$9,0*
20,1,$1+$1,$8,$9,$2,$3,0*%
G04 Aperture macros list end*
%TA.AperFunction,NonConductor*%
%ADD10C,0.200000*%
%TD*%
%TA.AperFunction,ComponentPad*%
%ADD11O,1.700000X1.700000*%
%TD*%
%TA.AperFunction,ComponentPad*%
%ADD12R,1.700000X1.700000*%
%TD*%
%TA.AperFunction,SMDPad,CuDef*%
%ADD13RoundRect,0.237500X0.237500X-0.250000X0.237500X0.250000X-0.237500X0.250000X-0.237500X-0.250000X0*%
%TD*%
%TA.AperFunction,SMDPad,CuDef*%
%ADD14RoundRect,0.237500X-0.237500X0.250000X-0.237500X-0.250000X0.237500X-0.250000X0.237500X0.250000X0*%
%TD*%
%TA.AperFunction,SMDPad,CuDef*%
%ADD15RoundRect,0.237500X0.300000X0.237500X-0.300000X0.237500X-0.300000X-0.237500X0.300000X-0.237500X0*%
%TD*%
%TA.AperFunction,ComponentPad*%
%ADD16C,1.700000*%
%TD*%
%TA.AperFunction,ComponentPad*%
%ADD17RoundRect,0.250000X-0.600000X0.600000X-0.600000X-0.600000X0.600000X-0.600000X0.600000X0.600000X0*%
%TD*%
%TA.AperFunction,SMDPad,CuDef*%
%ADD18RoundRect,0.250000X0.337500X0.475000X-0.337500X0.475000X-0.337500X-0.475000X0.337500X-0.475000X0*%
%TD*%
%TA.AperFunction,ComponentPad*%
%ADD19C,1.524000*%
%TD*%
%TA.AperFunction,SMDPad,CuDef*%
%ADD20RoundRect,0.237500X0.250000X0.237500X-0.250000X0.237500X-0.250000X-0.237500X0.250000X-0.237500X0*%
%TD*%
%TA.AperFunction,SMDPad,CuDef*%
%ADD21RoundRect,0.075000X-0.662500X0.075000X-0.662500X-0.075000X0.662500X-0.075000X0.662500X0.075000X0*%
%TD*%
%TA.AperFunction,SMDPad,CuDef*%
%ADD22RoundRect,0.075000X-0.075000X0.662500X-0.075000X-0.662500X0.075000X-0.662500X0.075000X0.662500X0*%
%TD*%
%TA.AperFunction,SMDPad,CuDef*%
%ADD23R,1.700000X2.000000*%
%TD*%
%TA.AperFunction,SMDPad,CuDef*%
%ADD24R,2.000000X0.500000*%
%TD*%
%TA.AperFunction,SMDPad,CuDef*%
%ADD25RoundRect,0.150000X-0.150000X0.512500X-0.150000X-0.512500X0.150000X-0.512500X0.150000X0.512500X0*%
%TD*%
%TA.AperFunction,ComponentPad*%
%ADD26C,1.500000*%
%TD*%
%TA.AperFunction,SMDPad,CuDef*%
%ADD27RoundRect,0.100000X-0.100000X0.637500X-0.100000X-0.637500X0.100000X-0.637500X0.100000X0.637500X0*%
%TD*%
%TA.AperFunction,SMDPad,CuDef*%
%ADD28RoundRect,0.237500X-0.237500X0.300000X-0.237500X-0.300000X0.237500X-0.300000X0.237500X0.300000X0*%
%TD*%
%TA.AperFunction,SMDPad,CuDef*%
%ADD29RoundRect,0.237500X0.237500X-0.300000X0.237500X0.300000X-0.237500X0.300000X-0.237500X-0.300000X0*%
%TD*%
%TA.AperFunction,SMDPad,CuDef*%
%ADD30RoundRect,0.150000X0.150000X-0.587500X0.150000X0.587500X-0.150000X0.587500X-0.150000X-0.587500X0*%
%TD*%
%TA.AperFunction,ViaPad*%
%ADD31C,1.300000*%
%TD*%
%TA.AperFunction,ViaPad*%
%ADD32C,1.500000*%
%TD*%
%TA.AperFunction,ViaPad*%
%ADD33C,1.200000*%
%TD*%
%TA.AperFunction,Conductor*%
%ADD34C,0.300000*%
%TD*%
%TA.AperFunction,Conductor*%
%ADD35C,0.500000*%
%TD*%
%TA.AperFunction,Conductor*%
%ADD36C,0.250000*%
%TD*%
G04 APERTURE END LIST*
D10*
X25500000Y-25000000D02*
G75*
G03*
X25500000Y-25000000I-500000J0D01*
G01*
X30625000Y-46187500D02*
G75*
G03*
X30625000Y-46187500I-1587500J0D01*
G01*
X29537500Y-46187500D02*
G75*
G03*
X29537500Y-46187500I-500000J0D01*
G01*
X30625000Y-88687500D02*
G75*
G03*
X30625000Y-88687500I-1587500J0D01*
G01*
X29537500Y-88687500D02*
G75*
G03*
X29537500Y-88687500I-500000J0D01*
G01*
X69125000Y-78687500D02*
G75*
G03*
X69125000Y-78687500I-1587500J0D01*
G01*
X68037500Y-78687500D02*
G75*
G03*
X68037500Y-78687500I-500000J0D01*
G01*
X30625000Y-46187500D02*
G75*
G03*
X30625000Y-46187500I-1587500J0D01*
G01*
X29537500Y-46187500D02*
G75*
G03*
X29537500Y-46187500I-500000J0D01*
G01*
X30625000Y-88687500D02*
G75*
G03*
X30625000Y-88687500I-1587500J0D01*
G01*
X29537500Y-88687500D02*
G75*
G03*
X29537500Y-88687500I-500000J0D01*
G01*
X69125000Y-78687500D02*
G75*
G03*
X69125000Y-78687500I-1587500J0D01*
G01*
X68037500Y-78687500D02*
G75*
G03*
X68037500Y-78687500I-500000J0D01*
G01*
X68037500Y-46187500D02*
G75*
G03*
X68037500Y-46187500I-500000J0D01*
G01*
X69125000Y-46187500D02*
G75*
G03*
X69125000Y-46187500I-1587500J0D01*
G01*
D11*
%TO.P,J1,4,Pin_4*%
%TO.N,+3.3V*%
X60112500Y-77007500D03*
%TO.P,J1,3,Pin_3*%
%TO.N,/RXD*%
X60112500Y-74467500D03*
%TO.P,J1,2,Pin_2*%
%TO.N,/TXD*%
X60112500Y-71927500D03*
D12*
%TO.P,J1,1,Pin_1*%
%TO.N,GND*%
X60112500Y-69387500D03*
%TD*%
D13*
%TO.P,R4,2*%
%TO.N,/VBUS*%
X45612500Y-77225000D03*
%TO.P,R4,1*%
%TO.N,GND*%
X45612500Y-79050000D03*
%TD*%
D14*
%TO.P,R1,2*%
%TO.N,Net-(CN1-D-)*%
X50112500Y-79050000D03*
%TO.P,R1,1*%
%TO.N,/USB_DM*%
X50112500Y-77225000D03*
%TD*%
D15*
%TO.P,C7,2*%
%TO.N,Net-(U1-PD0)*%
X53712500Y-55337500D03*
%TO.P,C7,1*%
%TO.N,GND*%
X55437500Y-55337500D03*
%TD*%
D16*
%TO.P,J2,10,Pin_10*%
%TO.N,/TARGET_RST*%
X43282500Y-39177500D03*
%TO.P,J2,9,Pin_9*%
%TO.N,GND*%
X43282500Y-36637500D03*
%TO.P,J2,8,Pin_8*%
%TO.N,/TARGET_TDI*%
X45822500Y-39177500D03*
%TO.P,J2,7,Pin_7*%
%TO.N,unconnected-(J2-Pin_7-Pad7)*%
X45822500Y-36637500D03*
%TO.P,J2,6,Pin_6*%
%TO.N,/TARGET_TDO*%
X48362500Y-39177500D03*
%TO.P,J2,5,Pin_5*%
%TO.N,GND*%
X48362500Y-36637500D03*
%TO.P,J2,4,Pin_4*%
%TO.N,/TARGET_TCK*%
X50902500Y-39177500D03*
%TO.P,J2,3,Pin_3*%
%TO.N,GND*%
X50902500Y-36637500D03*
%TO.P,J2,2,Pin_2*%
%TO.N,/TARGET_TMS*%
X53442500Y-39177500D03*
D17*
%TO.P,J2,1,Pin_1*%
%TO.N,/TPWR*%
X53442500Y-36637500D03*
%TD*%
D14*
%TO.P,R11,2*%
%TO.N,Net-(D3-A)*%
X38579166Y-85587500D03*
%TO.P,R11,1*%
%TO.N,/LED1*%
X38579166Y-83762500D03*
%TD*%
D13*
%TO.P,D3,2,A*%
%TO.N,Net-(D3-A)*%
X38579166Y-88050000D03*
%TO.P,D3,1,K*%
%TO.N,GND*%
X38579166Y-89875000D03*
%TD*%
D18*
%TO.P,C1,2*%
%TO.N,+5V*%
X45075000Y-82887500D03*
%TO.P,C1,1*%
%TO.N,GND*%
X47150000Y-82887500D03*
%TD*%
D19*
%TO.P,SW1,2,2*%
%TO.N,/FORCE_BOOTLOADER*%
X40402500Y-76637500D03*
%TO.P,SW1,1,1*%
%TO.N,GND*%
X35322500Y-76637500D03*
%TD*%
D20*
%TO.P,R13,2*%
%TO.N,Net-(U1-BOOT0)*%
X54287500Y-66887500D03*
%TO.P,R13,1*%
%TO.N,GND*%
X56112500Y-66887500D03*
%TD*%
D21*
%TO.P,U1,48,VDD*%
%TO.N,+3.3V*%
X51025000Y-65137500D03*
%TO.P,U1,47,VSS*%
%TO.N,GND*%
X51025000Y-65637500D03*
%TO.P,U1,46,PB9*%
%TO.N,unconnected-(U1-PB9-Pad46)*%
X51025000Y-66137500D03*
%TO.P,U1,45,PB8*%
%TO.N,unconnected-(U1-PB8-Pad45)*%
X51025000Y-66637500D03*
%TO.P,U1,44,BOOT0*%
%TO.N,Net-(U1-BOOT0)*%
X51025000Y-67137500D03*
%TO.P,U1,43,PB7*%
%TO.N,unconnected-(U1-PB7-Pad43)*%
X51025000Y-67637500D03*
%TO.P,U1,42,PB6*%
%TO.N,unconnected-(U1-PB6-Pad42)*%
X51025000Y-68137500D03*
%TO.P,U1,41,PB5*%
%TO.N,+3.3V*%
X51025000Y-68637500D03*
%TO.P,U1,40,PB4*%
X51025000Y-69137500D03*
%TO.P,U1,39,PB3*%
%TO.N,unconnected-(U1-PB3-Pad39)*%
X51025000Y-69637500D03*
%TO.P,U1,38,PA15*%
%TO.N,unconnected-(U1-PA15-Pad38)*%
X51025000Y-70137500D03*
%TO.P,U1,37,PA14*%
%TO.N,/TXD*%
X51025000Y-70637500D03*
D22*
%TO.P,U1,36,VDD*%
%TO.N,+3.3V*%
X49612500Y-72050000D03*
%TO.P,U1,35,VSS*%
%TO.N,GND*%
X49112500Y-72050000D03*
%TO.P,U1,34,PA13*%
%TO.N,/RXD*%
X48612500Y-72050000D03*
%TO.P,U1,33,PA12*%
%TO.N,/USB_PM*%
X48112500Y-72050000D03*
%TO.P,U1,32,PA11*%
%TO.N,/USB_DM*%
X47612500Y-72050000D03*
%TO.P,U1,31,PA10*%
%TO.N,/RXD*%
X47112500Y-72050000D03*
%TO.P,U1,30,PA9*%
%TO.N,/TXD*%
X46612500Y-72050000D03*
%TO.P,U1,29,PA8*%
%TO.N,/USB_ENUMERATE*%
X46112500Y-72050000D03*
%TO.P,U1,28,PB15*%
%TO.N,unconnected-(U1-PB15-Pad28)*%
X45612500Y-72050000D03*
%TO.P,U1,27,PB14*%
%TO.N,unconnected-(U1-PB14-Pad27)*%
X45112500Y-72050000D03*
%TO.P,U1,26,PB13*%
%TO.N,/VBUS*%
X44612500Y-72050000D03*
%TO.P,U1,25,PB12*%
%TO.N,/FORCE_BOOTLOADER*%
X44112500Y-72050000D03*
D21*
%TO.P,U1,24,VDD*%
%TO.N,+3.3V*%
X42700000Y-70637500D03*
%TO.P,U1,23,VSS*%
%TO.N,GND*%
X42700000Y-70137500D03*
%TO.P,U1,22,PB11*%
%TO.N,/LED2*%
X42700000Y-69637500D03*
%TO.P,U1,21,PB10*%
%TO.N,/LED1*%
X42700000Y-69137500D03*
%TO.P,U1,20,PB2*%
%TO.N,/LED0*%
X42700000Y-68637500D03*
%TO.P,U1,19,PB1*%
%TO.N,/PWR_BR*%
X42700000Y-68137500D03*
%TO.P,U1,18,PB0*%
%TO.N,/TARGET_POWER_ADC*%
X42700000Y-67637500D03*
%TO.P,U1,17,PA7*%
%TO.N,unconnected-(U1-PA7-Pad17)*%
X42700000Y-67137500D03*
%TO.P,U1,16,PA6*%
%TO.N,/TDO*%
X42700000Y-66637500D03*
%TO.P,U1,15,PA5*%
%TO.N,/TCK*%
X42700000Y-66137500D03*
%TO.P,U1,14,PA4*%
%TO.N,/TMS*%
X42700000Y-65637500D03*
%TO.P,U1,13,PA3*%
%TO.N,/TDI*%
X42700000Y-65137500D03*
D22*
%TO.P,U1,12,PA2*%
%TO.N,/RST*%
X44112500Y-63725000D03*
%TO.P,U1,11,PA1*%
%TO.N,unconnected-(U1-PA1-Pad11)*%
X44612500Y-63725000D03*
%TO.P,U1,10,PA0*%
%TO.N,unconnected-(U1-PA0-Pad10)*%
X45112500Y-63725000D03*
%TO.P,U1,9,VDDA*%
%TO.N,+3.3V*%
X45612500Y-63725000D03*
%TO.P,U1,8,VSSA*%
%TO.N,GND*%
X46112500Y-63725000D03*
%TO.P,U1,7,NRST*%
%TO.N,unconnected-(U1-NRST-Pad7)*%
X46612500Y-63725000D03*
%TO.P,U1,6,PD1*%
%TO.N,Net-(U1-PD1)*%
X47112500Y-63725000D03*
%TO.P,U1,5,PD0*%
%TO.N,Net-(U1-PD0)*%
X47612500Y-63725000D03*
%TO.P,U1,4,PC15*%
%TO.N,unconnected-(U1-PC15-Pad4)*%
X48112500Y-63725000D03*
%TO.P,U1,3,PC14*%
%TO.N,unconnected-(U1-PC14-Pad3)*%
X48612500Y-63725000D03*
%TO.P,U1,2,PC13*%
%TO.N,unconnected-(U1-PC13-Pad2)*%
X49112500Y-63725000D03*
%TO.P,U1,1,VBAT*%
%TO.N,+3.3V*%
X49612500Y-63725000D03*
%TD*%
D20*
%TO.P,R8,2*%
%TO.N,/TARGET_POWER_ADC*%
X39950000Y-54387500D03*
%TO.P,R8,1*%
%TO.N,/TPWR*%
X41775000Y-54387500D03*
%TD*%
D23*
%TO.P,CN1,6,Shield*%
%TO.N,GND*%
X61887500Y-81687500D03*
X56437500Y-81687500D03*
X61887500Y-90587500D03*
X56437500Y-90587500D03*
D24*
%TO.P,CN1,5,GND*%
X56337500Y-84537500D03*
%TO.P,CN1,4,ID*%
X56337500Y-85337500D03*
%TO.P,CN1,3,D+*%
%TO.N,Net-(CN1-D+)*%
X56337500Y-86137500D03*
%TO.P,CN1,2,D-*%
%TO.N,Net-(CN1-D-)*%
X56337500Y-86937500D03*
%TO.P,CN1,1,VBUS*%
%TO.N,+5V*%
X56337500Y-87737500D03*
%TD*%
D15*
%TO.P,C6,2*%
%TO.N,/TARGET_POWER_ADC*%
X40000000Y-52512500D03*
%TO.P,C6,1*%
%TO.N,GND*%
X41725000Y-52512500D03*
%TD*%
D25*
%TO.P,U3,5,OUT*%
%TO.N,+3.3V*%
X48112500Y-88275000D03*
%TO.P,U3,4,NC*%
%TO.N,unconnected-(U3-NC-Pad4)*%
X46212500Y-88275000D03*
%TO.P,U3,3,EN*%
%TO.N,+5V*%
X46212500Y-86000000D03*
%TO.P,U3,2,GND*%
%TO.N,GND*%
X47162500Y-86000000D03*
%TO.P,U3,1,IN*%
%TO.N,+5V*%
X48112500Y-86000000D03*
%TD*%
D13*
%TO.P,D2,2,A*%
%TO.N,Net-(D2-A)*%
X40295834Y-88050000D03*
%TO.P,D2,1,K*%
%TO.N,GND*%
X40295834Y-89875000D03*
%TD*%
D14*
%TO.P,R12,2*%
%TO.N,Net-(D4-A)*%
X36862500Y-85587500D03*
%TO.P,R12,1*%
%TO.N,/LED0*%
X36862500Y-83762500D03*
%TD*%
D26*
%TO.P,Y1,2,2*%
%TO.N,Net-(U1-PD0)*%
X59862500Y-52512500D03*
%TO.P,Y1,1,1*%
%TO.N,Net-(U1-PD1)*%
X59862500Y-47612500D03*
%TD*%
D27*
%TO.P,U2,20,B1*%
%TO.N,GND*%
X50037500Y-53000000D03*
%TO.P,U2,19,VCCB*%
%TO.N,+3.3V*%
X49387500Y-53000000D03*
%TO.P,U2,18,B2*%
%TO.N,GND*%
X48737500Y-53000000D03*
%TO.P,U2,17,B3*%
%TO.N,/TMS*%
X48087500Y-53000000D03*
%TO.P,U2,16,B4*%
%TO.N,/TCK*%
X47437500Y-53000000D03*
%TO.P,U2,15,B5*%
%TO.N,/TDO*%
X46787500Y-53000000D03*
%TO.P,U2,14,B6*%
%TO.N,/TDI*%
X46137500Y-53000000D03*
%TO.P,U2,13,B7*%
%TO.N,/RST*%
X45487500Y-53000000D03*
%TO.P,U2,12,B8*%
%TO.N,GND*%
X44837500Y-53000000D03*
%TO.P,U2,11,GND*%
X44187500Y-53000000D03*
%TO.P,U2,10,OE*%
%TO.N,/TPWR*%
X44187500Y-47275000D03*
%TO.P,U2,9,A8*%
%TO.N,unconnected-(U2-A8-Pad9)*%
X44837500Y-47275000D03*
%TO.P,U2,8,A7*%
%TO.N,/TARGET_RST*%
X45487500Y-47275000D03*
%TO.P,U2,7,A6*%
%TO.N,/TARGET_TDI*%
X46137500Y-47275000D03*
%TO.P,U2,6,A5*%
%TO.N,/TARGET_TDO*%
X46787500Y-47275000D03*
%TO.P,U2,5,A4*%
%TO.N,/TARGET_TCK*%
X47437500Y-47275000D03*
%TO.P,U2,4,A3*%
%TO.N,/TARGET_TMS*%
X48087500Y-47275000D03*
%TO.P,U2,3,A2*%
%TO.N,unconnected-(U2-A2-Pad3)*%
X48737500Y-47275000D03*
%TO.P,U2,2,VCCA*%
%TO.N,/TPWR*%
X49387500Y-47275000D03*
%TO.P,U2,1,A1*%
%TO.N,unconnected-(U2-A1-Pad1)*%
X50037500Y-47275000D03*
%TD*%
D15*
%TO.P,C5,2*%
%TO.N,+3.3V*%
X53675000Y-72137500D03*
%TO.P,C5,1*%
%TO.N,GND*%
X55400000Y-72137500D03*
%TD*%
D20*
%TO.P,R6,2*%
%TO.N,/TARGET_POWER_ADC*%
X39950000Y-50637500D03*
%TO.P,R6,1*%
%TO.N,GND*%
X41775000Y-50637500D03*
%TD*%
D19*
%TO.P,SW2,2,2*%
%TO.N,+3.3V*%
X62402500Y-61637500D03*
%TO.P,SW2,1,1*%
%TO.N,Net-(U1-BOOT0)*%
X57322500Y-61637500D03*
%TD*%
D28*
%TO.P,C3,2*%
%TO.N,+3.3V*%
X53112500Y-65137500D03*
%TO.P,C3,1*%
%TO.N,GND*%
X53112500Y-63412500D03*
%TD*%
D29*
%TO.P,C8,2*%
%TO.N,Net-(U1-PD1)*%
X53687500Y-47612500D03*
%TO.P,C8,1*%
%TO.N,GND*%
X53687500Y-49337500D03*
%TD*%
D14*
%TO.P,R5,2*%
%TO.N,+3.3V*%
X42112500Y-80800000D03*
%TO.P,R5,1*%
%TO.N,/FORCE_BOOTLOADER*%
X42112500Y-78975000D03*
%TD*%
%TO.P,R2,2*%
%TO.N,Net-(CN1-D+)*%
X51862500Y-79050000D03*
%TO.P,R2,1*%
%TO.N,/USB_PM*%
X51862500Y-77225000D03*
%TD*%
D13*
%TO.P,D1,2,A*%
%TO.N,Net-(D1-A)*%
X42045834Y-88075000D03*
%TO.P,D1,1,K*%
%TO.N,GND*%
X42045834Y-89900000D03*
%TD*%
D30*
%TO.P,Q1,3,D*%
%TO.N,/TPWR*%
X39500000Y-44387500D03*
%TO.P,Q1,2,S*%
%TO.N,+3.3V*%
X40450000Y-46262500D03*
%TO.P,Q1,1,G*%
%TO.N,/PWR_BR*%
X38550000Y-46262500D03*
%TD*%
D14*
%TO.P,R7,2*%
%TO.N,+5V*%
X43862500Y-79050000D03*
%TO.P,R7,1*%
%TO.N,/VBUS*%
X43862500Y-77225000D03*
%TD*%
D13*
%TO.P,D4,2,A*%
%TO.N,Net-(D4-A)*%
X36862500Y-88050000D03*
%TO.P,D4,1,K*%
%TO.N,GND*%
X36862500Y-89875000D03*
%TD*%
D14*
%TO.P,R9,2*%
%TO.N,Net-(D1-A)*%
X42045834Y-85612500D03*
%TO.P,R9,1*%
%TO.N,+3.3V*%
X42045834Y-83787500D03*
%TD*%
%TO.P,R3,2*%
%TO.N,Net-(CN1-D+)*%
X47362500Y-79050000D03*
%TO.P,R3,1*%
%TO.N,/USB_ENUMERATE*%
X47362500Y-77225000D03*
%TD*%
D29*
%TO.P,C4,2*%
%TO.N,+3.3V*%
X42362500Y-72775000D03*
%TO.P,C4,1*%
%TO.N,GND*%
X42362500Y-74500000D03*
%TD*%
D14*
%TO.P,R10,2*%
%TO.N,Net-(D2-A)*%
X40295834Y-85587500D03*
%TO.P,R10,1*%
%TO.N,/LED2*%
X40295834Y-83762500D03*
%TD*%
D18*
%TO.P,C2,2*%
%TO.N,+3.3V*%
X49825000Y-90387500D03*
%TO.P,C2,1*%
%TO.N,GND*%
X51900000Y-90387500D03*
%TD*%
D31*
%TO.N,GND*%
X48937500Y-84087500D03*
D32*
X41437500Y-43837500D03*
D33*
X40612500Y-73137500D03*
D32*
X38687500Y-48887500D03*
D31*
X57362500Y-69137500D03*
D33*
X45612500Y-80887500D03*
D31*
X57362500Y-73887500D03*
D32*
%TO.N,+3.3V*%
X45612500Y-60137500D03*
D31*
X48112500Y-90387500D03*
X51650000Y-73387500D03*
X55112500Y-68887500D03*
D32*
X55112500Y-60137500D03*
X42279815Y-46264802D03*
%TO.N,Net-(U1-PD0)*%
X55437500Y-52512500D03*
%TO.N,Net-(U1-PD1)*%
X55687500Y-47612500D03*
%TO.N,Net-(CN1-D+)*%
X53679426Y-79049239D03*
D33*
X48862500Y-81387500D03*
%TO.N,/TPWR*%
X51862500Y-43887500D03*
%TO.N,/TARGET_TMS*%
X50112500Y-43887500D03*
%TO.N,/TARGET_TCK*%
X48425000Y-43887500D03*
%TO.N,/TARGET_TDO*%
X46737500Y-43887500D03*
%TO.N,/TARGET_TDI*%
X45050000Y-43887500D03*
%TO.N,/TARGET_RST*%
X43362500Y-43887500D03*
D32*
%TO.N,/RST*%
X44187500Y-61587500D03*
X41650000Y-56637500D03*
%TO.N,/TDI*%
X41937500Y-63587500D03*
X39862500Y-58637500D03*
%TD*%
D34*
%TO.N,/TXD*%
X51025000Y-70637500D02*
X48819606Y-70637500D01*
X48819606Y-70637500D02*
X48319606Y-70137500D01*
X48319606Y-70137500D02*
X47405394Y-70137500D01*
X47405394Y-70137500D02*
X46612500Y-70930394D01*
X46612500Y-70930394D02*
X46612500Y-72050000D01*
%TO.N,/RXD*%
X47112500Y-71137500D02*
X47112500Y-72050000D01*
X48612500Y-71137500D02*
X48112500Y-70637500D01*
X48612500Y-72050000D02*
X48612500Y-71137500D01*
X48112500Y-70637500D02*
X47612500Y-70637500D01*
X47612500Y-70637500D02*
X47112500Y-71137500D01*
%TO.N,+3.3V*%
X51650000Y-72050000D02*
X51650000Y-73387500D01*
X53587500Y-72050000D02*
X53675000Y-72137500D01*
X51150000Y-72050000D02*
X53587500Y-72050000D01*
%TO.N,GND*%
X49112500Y-74012500D02*
X49737500Y-74637500D01*
X49112500Y-72050000D02*
X49112500Y-74012500D01*
%TO.N,+3.3V*%
X49612500Y-72050000D02*
X51150000Y-72050000D01*
%TO.N,/TDI*%
X41650000Y-58637500D02*
X39862500Y-58637500D01*
X46137500Y-54150000D02*
X41650000Y-58637500D01*
X46137500Y-53000000D02*
X46137500Y-54150000D01*
%TO.N,/RST*%
X45487500Y-53723896D02*
X45487500Y-53000000D01*
X41650000Y-56637500D02*
X42573896Y-56637500D01*
X42573896Y-56637500D02*
X45487500Y-53723896D01*
%TO.N,/TPWR*%
X49387500Y-46112500D02*
X49387500Y-47275000D01*
X51862500Y-44412500D02*
X50937500Y-45337500D01*
X50937500Y-45337500D02*
X50162500Y-45337500D01*
X50162500Y-45337500D02*
X49387500Y-46112500D01*
X51862500Y-43887500D02*
X51862500Y-44412500D01*
%TO.N,GND*%
X46112500Y-61412500D02*
X47687500Y-59837500D01*
X46112500Y-63725000D02*
X46112500Y-61412500D01*
X50037500Y-51687500D02*
X49937500Y-51587500D01*
X50037500Y-53000000D02*
X50037500Y-51687500D01*
X44837500Y-51987500D02*
X44687500Y-51837500D01*
X44837500Y-53000000D02*
X44837500Y-51987500D01*
%TO.N,Net-(U1-PD1)*%
X52912500Y-47612500D02*
X55687500Y-47612500D01*
X51937500Y-48587500D02*
X52912500Y-47612500D01*
X51937500Y-56837500D02*
X51937500Y-48587500D01*
X47112500Y-61662500D02*
X51937500Y-56837500D01*
X47112500Y-63725000D02*
X47112500Y-61662500D01*
%TO.N,Net-(U1-PD0)*%
X53687500Y-53587500D02*
X54762500Y-52512500D01*
X54762500Y-52512500D02*
X55437500Y-52512500D01*
X47612500Y-62886459D02*
X53687500Y-56811459D01*
X47612500Y-63725000D02*
X47612500Y-62886459D01*
X53687500Y-56811459D02*
X53687500Y-53587500D01*
%TO.N,/RST*%
X44112500Y-63725000D02*
X44112500Y-61662500D01*
X44112500Y-61662500D02*
X44187500Y-61587500D01*
%TO.N,/TDI*%
X41362500Y-64887500D02*
X41612500Y-65137500D01*
X41612500Y-65137500D02*
X42700000Y-65137500D01*
X41362500Y-64162500D02*
X41362500Y-64887500D01*
X41937500Y-63587500D02*
X41362500Y-64162500D01*
D35*
%TO.N,GND*%
X41775000Y-50637500D02*
X40725000Y-49587500D01*
D34*
X48737500Y-53000000D02*
X48737500Y-51637500D01*
%TO.N,/TMS*%
X40187500Y-64962500D02*
X40862500Y-65637500D01*
X40187500Y-63312500D02*
X40187500Y-64962500D01*
X40862500Y-65637500D02*
X42700000Y-65637500D01*
X48087500Y-53000000D02*
X48087500Y-55412500D01*
X48087500Y-55412500D02*
X40187500Y-63312500D01*
%TO.N,/TCK*%
X47437500Y-55062500D02*
X47437500Y-53000000D01*
X39187500Y-63312500D02*
X47437500Y-55062500D01*
X40237500Y-66137500D02*
X39187500Y-65087500D01*
X39187500Y-65087500D02*
X39187500Y-63312500D01*
X42700000Y-66137500D02*
X40237500Y-66137500D01*
%TO.N,/TDO*%
X39487500Y-66637500D02*
X42700000Y-66637500D01*
X38187500Y-65337500D02*
X39487500Y-66637500D01*
X38187500Y-63175521D02*
X38187500Y-65337500D01*
X46787500Y-54575521D02*
X38187500Y-63175521D01*
X46787500Y-53000000D02*
X46787500Y-54575521D01*
%TO.N,/TARGET_POWER_ADC*%
X40000000Y-50687500D02*
X39950000Y-50637500D01*
X37437500Y-58640749D02*
X40000000Y-56078249D01*
X37437500Y-65837500D02*
X37437500Y-58640749D01*
X40000000Y-56078249D02*
X40000000Y-50687500D01*
X42700000Y-67637500D02*
X39237500Y-67637500D01*
X39237500Y-67637500D02*
X37437500Y-65837500D01*
%TO.N,/PWR_BR*%
X36687500Y-48125000D02*
X38550000Y-46262500D01*
X36687500Y-66337500D02*
X36687500Y-48125000D01*
X38487500Y-68137500D02*
X36687500Y-66337500D01*
X42700000Y-68137500D02*
X38487500Y-68137500D01*
%TO.N,/LED1*%
X38579166Y-82479166D02*
X38579166Y-83762500D01*
X37612500Y-81512500D02*
X38579166Y-82479166D01*
X37612500Y-71662500D02*
X37612500Y-81512500D01*
X40137500Y-69137500D02*
X37612500Y-71662500D01*
X42700000Y-69137500D02*
X40137500Y-69137500D01*
%TO.N,/LED2*%
X40295834Y-82570834D02*
X40295834Y-83762500D01*
X38243519Y-72281481D02*
X38243519Y-80518519D01*
X38243519Y-80518519D02*
X40295834Y-82570834D01*
X40887500Y-69637500D02*
X38243519Y-72281481D01*
X42700000Y-69637500D02*
X40887500Y-69637500D01*
D35*
%TO.N,+3.3V*%
X38979621Y-79004621D02*
X40775000Y-80800000D01*
X42362500Y-71637500D02*
X40250000Y-71637500D01*
X39556250Y-72331250D02*
X38979621Y-72907879D01*
X40250000Y-71637500D02*
X39556250Y-72331250D01*
X38979621Y-72907879D02*
X38979621Y-79004621D01*
X40775000Y-80800000D02*
X42112500Y-80800000D01*
X42112500Y-80800000D02*
X42112500Y-83720834D01*
%TO.N,Net-(CN1-D+)*%
X53678665Y-79050000D02*
X53679426Y-79049239D01*
X51862500Y-79050000D02*
X53678665Y-79050000D01*
%TO.N,GND*%
X45612500Y-79050000D02*
X45612500Y-80637500D01*
X41725000Y-52512500D02*
X41725000Y-50687500D01*
X47162500Y-86000000D02*
X47162500Y-82687500D01*
D34*
X46112500Y-63725000D02*
X46112500Y-65137500D01*
D36*
X41725000Y-50687500D02*
X41775000Y-50637500D01*
D34*
X42700000Y-70137500D02*
X44362500Y-70137500D01*
X51025000Y-65637500D02*
X49612500Y-65637500D01*
D35*
X45362500Y-80637500D02*
X45612500Y-80887500D01*
X47162500Y-82687500D02*
X47112500Y-82637500D01*
D34*
%TO.N,+5V*%
X46625000Y-87012500D02*
X47600000Y-87012500D01*
D35*
X45725000Y-86000000D02*
X45037500Y-85312500D01*
X44112500Y-82887500D02*
X43862500Y-82637500D01*
X56337500Y-87737500D02*
X50712500Y-87737500D01*
X48975000Y-86000000D02*
X48112500Y-86000000D01*
X46212500Y-86000000D02*
X45725000Y-86000000D01*
X45075000Y-82887500D02*
X44112500Y-82887500D01*
X45037500Y-82925000D02*
X45075000Y-82887500D01*
D34*
X46212500Y-86600000D02*
X46625000Y-87012500D01*
X47600000Y-87012500D02*
X48112500Y-86500000D01*
D35*
X43862500Y-82637500D02*
X43862500Y-79050000D01*
X50712500Y-87737500D02*
X48975000Y-86000000D01*
X45037500Y-85312500D02*
X45037500Y-82925000D01*
%TO.N,+3.3V*%
X41487500Y-46262500D02*
X40450000Y-46262500D01*
X42279815Y-46264802D02*
X41489802Y-46264802D01*
X42684046Y-70793343D02*
X42684046Y-71315954D01*
X42362500Y-71637500D02*
X42362500Y-72775000D01*
D34*
X53112500Y-65137500D02*
X51025000Y-65137500D01*
D35*
X53862500Y-65137500D02*
X53112500Y-65137500D01*
X42112500Y-83720834D02*
X42045834Y-83787500D01*
X62402500Y-74717500D02*
X62402500Y-61637500D01*
D34*
X50112500Y-65137500D02*
X51025000Y-65137500D01*
D35*
X43262500Y-83787500D02*
X42045834Y-83787500D01*
X44112500Y-84637500D02*
X43262500Y-83787500D01*
D34*
X49612500Y-64637500D02*
X50112500Y-65137500D01*
D35*
X55112500Y-60137500D02*
X55112500Y-63887500D01*
X48112500Y-90387500D02*
X46112500Y-90387500D01*
X42684046Y-71315954D02*
X42362500Y-71637500D01*
X55112500Y-68887500D02*
X51112500Y-68887500D01*
X48112500Y-88275000D02*
X48112500Y-90387500D01*
D34*
X49612500Y-63725000D02*
X49612500Y-64637500D01*
D35*
X55112500Y-63887500D02*
X53862500Y-65137500D01*
X46112500Y-90387500D02*
X44112500Y-88387500D01*
X41489802Y-46264802D02*
X41487500Y-46262500D01*
X44112500Y-88387500D02*
X44112500Y-84637500D01*
D34*
X45612500Y-60137500D02*
X45612500Y-59137500D01*
D35*
X49825000Y-90387500D02*
X48112500Y-90387500D01*
D34*
X45612500Y-59137500D02*
X49387500Y-55362500D01*
X45612500Y-60137500D02*
X45612500Y-63725000D01*
X49387500Y-55362500D02*
X49387500Y-53000000D01*
D35*
X60112500Y-77007500D02*
X62402500Y-74717500D01*
%TO.N,Net-(CN1-D-)*%
X50112500Y-85462500D02*
X50112500Y-79050000D01*
X56337500Y-86937500D02*
X51587500Y-86937500D01*
X51587500Y-86937500D02*
X50112500Y-85462500D01*
%TO.N,Net-(CN1-D+)*%
X51862500Y-79050000D02*
X51862500Y-85137500D01*
D34*
X47362500Y-80137500D02*
X47362500Y-79050000D01*
D35*
X51862500Y-85137500D02*
X52862500Y-86137500D01*
D36*
X48862500Y-81387500D02*
X48612500Y-81387500D01*
D34*
X48612500Y-81387500D02*
X47362500Y-80137500D01*
D35*
X52862500Y-86137500D02*
X56337500Y-86137500D01*
D34*
%TO.N,Net-(D1-A)*%
X42045834Y-85612500D02*
X42045834Y-88075000D01*
%TO.N,Net-(D2-A)*%
X40295834Y-85587500D02*
X40295834Y-88050000D01*
%TO.N,Net-(D3-A)*%
X38579166Y-85587500D02*
X38579166Y-88050000D01*
%TO.N,Net-(D4-A)*%
X36862500Y-85587500D02*
X36862500Y-88050000D01*
%TO.N,/TXD*%
X51025000Y-70637500D02*
X56112500Y-70637500D01*
X56112500Y-70637500D02*
X57402500Y-71927500D01*
X57402500Y-71927500D02*
X60112500Y-71927500D01*
%TO.N,/RXD*%
X58942500Y-75637500D02*
X60112500Y-74467500D01*
X48612500Y-72050000D02*
X48612500Y-74695648D01*
X49554352Y-75637500D02*
X58942500Y-75637500D01*
X48612500Y-74695648D02*
X49554352Y-75637500D01*
%TO.N,/TPWR*%
X44187500Y-47275000D02*
X44187500Y-49812500D01*
X39500000Y-47025000D02*
X39500000Y-44387500D01*
X51862500Y-43887500D02*
X51862500Y-42887500D01*
X44187500Y-49812500D02*
X43112500Y-50887500D01*
X44187500Y-48887500D02*
X41362500Y-48887500D01*
X43112500Y-50887500D02*
X43112500Y-53637500D01*
X41362500Y-48887500D02*
X39500000Y-47025000D01*
X39500000Y-42750000D02*
X39500000Y-44387500D01*
X40362500Y-41887500D02*
X39500000Y-42750000D01*
X42362500Y-54387500D02*
X41775000Y-54387500D01*
X43112500Y-53637500D02*
X42362500Y-54387500D01*
X51862500Y-42887500D02*
X50862500Y-41887500D01*
X50862500Y-41887500D02*
X40362500Y-41887500D01*
%TO.N,/TARGET_TMS*%
X50112500Y-43887500D02*
X48087500Y-45912500D01*
X48087500Y-45912500D02*
X48087500Y-47275000D01*
%TO.N,/TARGET_TCK*%
X47437500Y-44875000D02*
X47437500Y-47275000D01*
X48425000Y-43887500D02*
X47437500Y-44875000D01*
%TO.N,/TARGET_TDO*%
X46787500Y-43937500D02*
X46787500Y-47275000D01*
D36*
X46737500Y-43887500D02*
X46787500Y-43937500D01*
D34*
%TO.N,/TARGET_TDI*%
X45050000Y-43887500D02*
X46137500Y-44975000D01*
X46137500Y-44975000D02*
X46137500Y-47275000D01*
%TO.N,/TARGET_RST*%
X45487500Y-46012500D02*
X45487500Y-47275000D01*
X43362500Y-43887500D02*
X45487500Y-46012500D01*
%TO.N,/USB_DM*%
X47612500Y-75637500D02*
X47612500Y-72050000D01*
X49200000Y-77225000D02*
X47612500Y-75637500D01*
X50112500Y-77225000D02*
X49200000Y-77225000D01*
%TO.N,/USB_PM*%
X48112500Y-75137500D02*
X48112500Y-72050000D01*
X49312500Y-76337500D02*
X48112500Y-75137500D01*
X50975000Y-76337500D02*
X49312500Y-76337500D01*
X51862500Y-77225000D02*
X50975000Y-76337500D01*
%TO.N,/USB_ENUMERATE*%
X46612500Y-76475000D02*
X46612500Y-75012500D01*
X46612500Y-75012500D02*
X46112500Y-74512500D01*
X46112500Y-74512500D02*
X46112500Y-72050000D01*
X47362500Y-77225000D02*
X46612500Y-76475000D01*
%TO.N,/VBUS*%
X44612500Y-75723376D02*
X43862500Y-76473376D01*
X45612500Y-77225000D02*
X43862500Y-77225000D01*
X43862500Y-76473376D02*
X43862500Y-77225000D01*
X44612500Y-72050000D02*
X44612500Y-75723376D01*
%TO.N,/FORCE_BOOTLOADER*%
X42362500Y-76637500D02*
X44112500Y-74887500D01*
X40402500Y-76637500D02*
X42362500Y-76637500D01*
X42112500Y-78975000D02*
X42112500Y-76637500D01*
X44112500Y-74887500D02*
X44112500Y-72050000D01*
%TO.N,/LED0*%
X36862500Y-71137500D02*
X36862500Y-83762500D01*
X39362500Y-68637500D02*
X36862500Y-71137500D01*
X42700000Y-68637500D02*
X39362500Y-68637500D01*
%TO.N,Net-(U1-BOOT0)*%
X54287500Y-65962500D02*
X54287500Y-66887500D01*
X57322500Y-62927500D02*
X54287500Y-65962500D01*
X52862500Y-67137500D02*
X51025000Y-67137500D01*
X57322500Y-61637500D02*
X57322500Y-62927500D01*
X53112500Y-66887500D02*
X52862500Y-67137500D01*
X53112500Y-66887500D02*
X54287500Y-66887500D01*
%TD*%
%TA.AperFunction,Conductor*%
%TO.N,GND*%
G36*
X45770520Y-78811342D02*
G01*
X45818859Y-78843641D01*
X45851158Y-78891980D01*
X45862500Y-78949000D01*
X45862500Y-80037499D01*
X45899142Y-80037499D01*
X46000153Y-80027180D01*
X46163802Y-79972953D01*
X46310536Y-79882445D01*
X46381787Y-79811195D01*
X46430126Y-79778896D01*
X46487146Y-79767554D01*
X46544166Y-79778896D01*
X46592505Y-79811195D01*
X46668359Y-79887049D01*
X46700658Y-79935388D01*
X46712000Y-79992408D01*
X46712000Y-80049235D01*
X46709590Y-80071060D01*
X46711926Y-80145348D01*
X46712000Y-80150030D01*
X46712000Y-80178434D01*
X46712406Y-80181651D01*
X46713505Y-80195625D01*
X46714902Y-80240069D01*
X46720274Y-80258561D01*
X46725014Y-80281447D01*
X46727429Y-80300560D01*
X46743800Y-80341910D01*
X46748346Y-80355186D01*
X46760756Y-80397900D01*
X46770556Y-80414470D01*
X46780842Y-80435466D01*
X46787930Y-80453369D01*
X46814069Y-80489347D01*
X46821773Y-80501075D01*
X46844418Y-80539364D01*
X46858034Y-80552980D01*
X46873218Y-80570759D01*
X46884534Y-80586334D01*
X46884536Y-80586335D01*
X46884537Y-80586337D01*
X46918803Y-80614684D01*
X46929186Y-80624132D01*
X47720337Y-81415283D01*
X47757594Y-81477493D01*
X47761073Y-81549923D01*
X47729950Y-81615418D01*
X47671597Y-81658465D01*
X47599835Y-81668870D01*
X47537484Y-81662500D01*
X47400000Y-81662500D01*
X47400000Y-82637500D01*
X48237499Y-82637500D01*
X48237499Y-82543083D01*
X48254689Y-82473605D01*
X48302293Y-82420159D01*
X48369327Y-82395076D01*
X48440322Y-82404143D01*
X48560044Y-82450524D01*
X48760524Y-82488000D01*
X48964476Y-82488000D01*
X49164956Y-82450524D01*
X49164956Y-82450523D01*
X49178527Y-82447987D01*
X49178947Y-82450237D01*
X49230174Y-82443695D01*
X49297207Y-82468779D01*
X49344810Y-82522225D01*
X49362000Y-82591702D01*
X49362000Y-85130667D01*
X49347578Y-85194618D01*
X49307104Y-85246189D01*
X49248413Y-85275398D01*
X49182867Y-85276588D01*
X49139546Y-85267642D01*
X49135319Y-85266705D01*
X49059554Y-85248749D01*
X49044106Y-85247170D01*
X48966802Y-85249420D01*
X48914725Y-85241627D01*
X48868611Y-85216205D01*
X48834219Y-85176330D01*
X48780583Y-85085637D01*
X48664365Y-84969419D01*
X48651002Y-84961516D01*
X48522898Y-84885756D01*
X48365069Y-84839902D01*
X48328194Y-84837000D01*
X47896806Y-84837000D01*
X47867305Y-84839321D01*
X47859930Y-84839902D01*
X47807112Y-84855247D01*
X47702102Y-84885756D01*
X47702100Y-84885757D01*
X47684027Y-84891008D01*
X47683793Y-84890204D01*
X47663386Y-84897792D01*
X47610624Y-84897790D01*
X47591051Y-84890511D01*
X47590773Y-84891470D01*
X47414989Y-84840400D01*
X47412500Y-84840204D01*
X47412500Y-85098845D01*
X47407219Y-85138161D01*
X47391751Y-85174691D01*
X47360757Y-85227099D01*
X47314902Y-85384930D01*
X47312000Y-85421810D01*
X47312000Y-86101000D01*
X47300658Y-86158020D01*
X47268359Y-86206359D01*
X47220020Y-86238658D01*
X47163000Y-86250000D01*
X47162000Y-86250000D01*
X47104980Y-86238658D01*
X47056641Y-86206359D01*
X47024342Y-86158020D01*
X47013000Y-86101000D01*
X47013000Y-85421810D01*
X47013000Y-85421806D01*
X47010098Y-85384931D01*
X46964244Y-85227102D01*
X46940674Y-85187247D01*
X46933249Y-85174691D01*
X46917781Y-85138161D01*
X46912500Y-85098845D01*
X46912500Y-84840204D01*
X46912499Y-84840204D01*
X46910008Y-84840400D01*
X46734227Y-84891469D01*
X46733948Y-84890511D01*
X46714368Y-84897792D01*
X46661604Y-84897790D01*
X46641206Y-84890204D01*
X46640973Y-84891008D01*
X46622900Y-84885757D01*
X46622898Y-84885756D01*
X46465069Y-84839902D01*
X46428194Y-84837000D01*
X45996806Y-84837000D01*
X45959931Y-84839902D01*
X45959929Y-84839902D01*
X45948690Y-84840787D01*
X45888183Y-84833022D01*
X45835859Y-84801660D01*
X45800488Y-84751958D01*
X45788000Y-84692246D01*
X45788000Y-84095831D01*
X45806893Y-84023215D01*
X45858779Y-83969014D01*
X45881156Y-83955212D01*
X46005212Y-83831156D01*
X46005213Y-83831153D01*
X46007494Y-83828873D01*
X46055833Y-83796574D01*
X46112853Y-83785232D01*
X46169873Y-83796574D01*
X46218212Y-83828873D01*
X46344155Y-83954816D01*
X46493379Y-84046858D01*
X46659805Y-84102006D01*
X46762517Y-84112500D01*
X46900000Y-84112500D01*
X46900000Y-83137500D01*
X47400000Y-83137500D01*
X47400000Y-84112499D01*
X47537474Y-84112499D01*
X47640198Y-84102005D01*
X47806620Y-84046858D01*
X47955844Y-83954816D01*
X48079816Y-83830844D01*
X48171858Y-83681620D01*
X48227006Y-83515194D01*
X48237500Y-83412483D01*
X48237500Y-83137500D01*
X47400000Y-83137500D01*
X46900000Y-83137500D01*
X46900000Y-81662501D01*
X46762526Y-81662501D01*
X46659801Y-81672994D01*
X46493379Y-81728141D01*
X46344155Y-81820183D01*
X46218212Y-81946126D01*
X46151417Y-81984690D01*
X46074289Y-81984690D01*
X46007494Y-81946126D01*
X45881156Y-81819788D01*
X45731834Y-81727686D01*
X45565297Y-81672501D01*
X45565295Y-81672500D01*
X45565293Y-81672500D01*
X45462513Y-81662000D01*
X45462509Y-81662000D01*
X44761999Y-81662000D01*
X44704980Y-81650659D01*
X44656641Y-81618360D01*
X44624342Y-81570021D01*
X44613000Y-81513001D01*
X44613000Y-79940700D01*
X44629240Y-79873055D01*
X44674420Y-79820156D01*
X44738691Y-79793534D01*
X44808044Y-79798993D01*
X44867359Y-79835341D01*
X44914463Y-79882445D01*
X45061197Y-79972953D01*
X45224849Y-80027181D01*
X45325849Y-80037500D01*
X45362500Y-80037500D01*
X45362500Y-78949000D01*
X45373842Y-78891980D01*
X45406141Y-78843641D01*
X45454480Y-78811342D01*
X45511500Y-78800000D01*
X45713500Y-78800000D01*
X45770520Y-78811342D01*
G37*
%TD.AperFunction*%
%TA.AperFunction,Conductor*%
G36*
X41312500Y-72407962D02*
G01*
X41367038Y-72462500D01*
X41387000Y-72537000D01*
X41387000Y-73124172D01*
X41397326Y-73225254D01*
X41451591Y-73389015D01*
X41551303Y-73550673D01*
X41549825Y-73551584D01*
X41577367Y-73599286D01*
X41577369Y-73676411D01*
X41550097Y-73723653D01*
X41551697Y-73724640D01*
X41452046Y-73886197D01*
X41397818Y-74049849D01*
X41387500Y-74150849D01*
X41387500Y-74250000D01*
X42463500Y-74250000D01*
X42520520Y-74261342D01*
X42568859Y-74293641D01*
X42601158Y-74341980D01*
X42612500Y-74399000D01*
X42612500Y-74601000D01*
X42601158Y-74658020D01*
X42568859Y-74706359D01*
X42520520Y-74738658D01*
X42463500Y-74750000D01*
X41387501Y-74750000D01*
X41387501Y-74849142D01*
X41397819Y-74950153D01*
X41452046Y-75113802D01*
X41542554Y-75260536D01*
X41664463Y-75382445D01*
X41811197Y-75472953D01*
X41974849Y-75527181D01*
X42075848Y-75537499D01*
X42182834Y-75537499D01*
X42250479Y-75553739D01*
X42303378Y-75598918D01*
X42330000Y-75663189D01*
X42324543Y-75732542D01*
X42288194Y-75791858D01*
X42136694Y-75943359D01*
X42088355Y-75975658D01*
X42031335Y-75987000D01*
X41565808Y-75987000D01*
X41497007Y-75970164D01*
X41443754Y-75923462D01*
X41373327Y-75822881D01*
X41217120Y-75666674D01*
X41120354Y-75598918D01*
X41036162Y-75539966D01*
X41036160Y-75539965D01*
X40835950Y-75446605D01*
X40622567Y-75389429D01*
X40402500Y-75370177D01*
X40182432Y-75389429D01*
X39969049Y-75446606D01*
X39942091Y-75459177D01*
X39869376Y-75472818D01*
X39799063Y-75449802D01*
X39748489Y-75395804D01*
X39730121Y-75324137D01*
X39730121Y-73280465D01*
X39741463Y-73223446D01*
X39773761Y-73175107D01*
X39873421Y-73075446D01*
X40012637Y-72936228D01*
X40012642Y-72936225D01*
X40024904Y-72923962D01*
X40024906Y-72923962D01*
X40517226Y-72431640D01*
X40565565Y-72399342D01*
X40622585Y-72388000D01*
X41238000Y-72388000D01*
X41312500Y-72407962D01*
G37*
%TD.AperFunction*%
%TA.AperFunction,Conductor*%
G36*
X56437856Y-71898842D02*
G01*
X56486195Y-71931141D01*
X56880115Y-72325061D01*
X56893843Y-72342195D01*
X56897297Y-72345438D01*
X56897298Y-72345440D01*
X56948054Y-72393103D01*
X56951383Y-72396329D01*
X56971465Y-72416411D01*
X56974023Y-72418395D01*
X56984678Y-72427495D01*
X57017107Y-72457948D01*
X57033991Y-72467230D01*
X57053514Y-72480054D01*
X57068736Y-72491862D01*
X57109555Y-72509525D01*
X57122145Y-72515693D01*
X57161132Y-72537127D01*
X57179790Y-72541917D01*
X57201904Y-72549488D01*
X57219573Y-72557135D01*
X57263498Y-72564091D01*
X57277239Y-72566938D01*
X57320321Y-72578000D01*
X57320323Y-72578000D01*
X57339579Y-72578000D01*
X57362886Y-72579834D01*
X57366516Y-72580408D01*
X57381904Y-72582846D01*
X57423512Y-72578912D01*
X57426178Y-72578661D01*
X57440199Y-72578000D01*
X58841764Y-72578000D01*
X58910565Y-72594835D01*
X58963816Y-72641535D01*
X59074005Y-72798901D01*
X59241099Y-72965995D01*
X59299590Y-73006951D01*
X59397411Y-73075446D01*
X59444113Y-73128700D01*
X59460948Y-73197500D01*
X59444113Y-73266300D01*
X59397411Y-73319554D01*
X59241098Y-73429005D01*
X59074005Y-73596098D01*
X58938464Y-73789672D01*
X58838597Y-74003836D01*
X58777436Y-74232092D01*
X58756841Y-74467499D01*
X58777436Y-74702909D01*
X58793148Y-74761546D01*
X58793148Y-74838672D01*
X58754587Y-74905465D01*
X58716698Y-74943356D01*
X58668358Y-74975657D01*
X58611336Y-74987000D01*
X49885516Y-74987000D01*
X49828496Y-74975658D01*
X49780157Y-74943359D01*
X49306641Y-74469843D01*
X49274342Y-74421504D01*
X49263000Y-74364484D01*
X49263000Y-73426729D01*
X49276281Y-73365236D01*
X49313758Y-73314705D01*
X49368748Y-73284145D01*
X49431449Y-73279004D01*
X49499779Y-73288000D01*
X49499780Y-73288000D01*
X49725220Y-73288000D01*
X49725223Y-73288000D01*
X49793551Y-73279004D01*
X49837736Y-73273187D01*
X49977733Y-73215198D01*
X50097951Y-73122951D01*
X50190198Y-73002733D01*
X50248187Y-72862736D01*
X50252489Y-72830053D01*
X50278161Y-72764038D01*
X50331414Y-72717336D01*
X50400215Y-72700500D01*
X50466201Y-72700500D01*
X50538705Y-72719330D01*
X50592883Y-72771061D01*
X50615042Y-72842618D01*
X50599581Y-72915914D01*
X50572594Y-72970110D01*
X50514243Y-73175192D01*
X50494570Y-73387499D01*
X50514243Y-73599807D01*
X50572595Y-73804891D01*
X50667633Y-73995754D01*
X50796127Y-74165906D01*
X50953699Y-74309553D01*
X51134975Y-74421795D01*
X51134978Y-74421796D01*
X51134981Y-74421798D01*
X51333802Y-74498821D01*
X51543390Y-74538000D01*
X51756610Y-74538000D01*
X51966198Y-74498821D01*
X52165019Y-74421798D01*
X52346302Y-74309552D01*
X52503872Y-74165907D01*
X52632366Y-73995755D01*
X52727405Y-73804889D01*
X52785756Y-73599810D01*
X52805429Y-73387500D01*
X52785756Y-73175190D01*
X52785755Y-73175189D01*
X52784482Y-73161442D01*
X52787542Y-73161158D01*
X52785775Y-73113727D01*
X52816144Y-73049705D01*
X52872651Y-73006951D01*
X52942517Y-72995134D01*
X53009941Y-73016924D01*
X53060984Y-73048408D01*
X53224747Y-73102674D01*
X53325823Y-73113000D01*
X54024176Y-73112999D01*
X54125253Y-73102674D01*
X54289016Y-73048408D01*
X54435850Y-72957840D01*
X54435850Y-72957839D01*
X54450673Y-72948697D01*
X54450826Y-72948946D01*
X54480822Y-72928900D01*
X54537845Y-72917553D01*
X54594869Y-72928893D01*
X54624429Y-72948643D01*
X54624640Y-72948302D01*
X54786197Y-73047953D01*
X54949849Y-73102181D01*
X55050849Y-73112500D01*
X55150000Y-73112500D01*
X55150000Y-72387500D01*
X55650000Y-72387500D01*
X55650000Y-73112499D01*
X55749142Y-73112499D01*
X55850153Y-73102180D01*
X56013802Y-73047953D01*
X56160536Y-72957445D01*
X56282445Y-72835536D01*
X56372953Y-72688802D01*
X56427181Y-72525150D01*
X56437500Y-72424151D01*
X56437500Y-72387500D01*
X55650000Y-72387500D01*
X55150000Y-72387500D01*
X55150000Y-72036500D01*
X55161342Y-71979480D01*
X55193641Y-71931141D01*
X55241980Y-71898842D01*
X55299000Y-71887500D01*
X56380836Y-71887500D01*
X56437856Y-71898842D01*
G37*
%TD.AperFunction*%
%TA.AperFunction,Conductor*%
G36*
X46203252Y-64856424D02*
G01*
X46204256Y-64857194D01*
X46247148Y-64909492D01*
X46257292Y-64953021D01*
X46262499Y-64957587D01*
X46341133Y-64947235D01*
X46380030Y-64947235D01*
X46499777Y-64963000D01*
X46499780Y-64963000D01*
X46725220Y-64963000D01*
X46725221Y-64963000D01*
X46754442Y-64959152D01*
X46837736Y-64948187D01*
X46837737Y-64948186D01*
X46843050Y-64947487D01*
X46881948Y-64947487D01*
X46887263Y-64948186D01*
X46887264Y-64948187D01*
X46923982Y-64953021D01*
X46999779Y-64963000D01*
X46999780Y-64963000D01*
X47225220Y-64963000D01*
X47225221Y-64963000D01*
X47254442Y-64959152D01*
X47337736Y-64948187D01*
X47337737Y-64948186D01*
X47343050Y-64947487D01*
X47381948Y-64947487D01*
X47387263Y-64948186D01*
X47387264Y-64948187D01*
X47423982Y-64953021D01*
X47499779Y-64963000D01*
X47499780Y-64963000D01*
X47725220Y-64963000D01*
X47725221Y-64963000D01*
X47754442Y-64959152D01*
X47837736Y-64948187D01*
X47837737Y-64948186D01*
X47843050Y-64947487D01*
X47881948Y-64947487D01*
X47887263Y-64948186D01*
X47887264Y-64948187D01*
X47923982Y-64953021D01*
X47999779Y-64963000D01*
X47999780Y-64963000D01*
X48225220Y-64963000D01*
X48225221Y-64963000D01*
X48254442Y-64959152D01*
X48337736Y-64948187D01*
X48337737Y-64948186D01*
X48343050Y-64947487D01*
X48381948Y-64947487D01*
X48387263Y-64948186D01*
X48387264Y-64948187D01*
X48423982Y-64953021D01*
X48499779Y-64963000D01*
X48499780Y-64963000D01*
X48725220Y-64963000D01*
X48725221Y-64963000D01*
X48754442Y-64959152D01*
X48837736Y-64948187D01*
X48837737Y-64948186D01*
X48843050Y-64947487D01*
X48881948Y-64947487D01*
X48887263Y-64948186D01*
X48887264Y-64948187D01*
X48981543Y-64960599D01*
X49044222Y-64984002D01*
X49090342Y-65032473D01*
X49094417Y-65039363D01*
X49108034Y-65052980D01*
X49123216Y-65070756D01*
X49134536Y-65086336D01*
X49168799Y-65114681D01*
X49179182Y-65124128D01*
X49590114Y-65535059D01*
X49603841Y-65552194D01*
X49607298Y-65555440D01*
X49658084Y-65603132D01*
X49661382Y-65606328D01*
X49681465Y-65626410D01*
X49681467Y-65626412D01*
X49684010Y-65628384D01*
X49694677Y-65637494D01*
X49727107Y-65667948D01*
X49740830Y-65680835D01*
X49738750Y-65683049D01*
X49765667Y-65707469D01*
X49790385Y-65772106D01*
X49802764Y-65866137D01*
X49802764Y-65905033D01*
X49787000Y-66024777D01*
X49787000Y-66250223D01*
X49802512Y-66368052D01*
X49802512Y-66406948D01*
X49787000Y-66524777D01*
X49787000Y-66750223D01*
X49802512Y-66868052D01*
X49802512Y-66906948D01*
X49787000Y-67024777D01*
X49787000Y-67250223D01*
X49802512Y-67368052D01*
X49802512Y-67406948D01*
X49787000Y-67524777D01*
X49787000Y-67750223D01*
X49802512Y-67868051D01*
X49802512Y-67906947D01*
X49787000Y-68024777D01*
X49787000Y-68250223D01*
X49802512Y-68368052D01*
X49802512Y-68406948D01*
X49787000Y-68524777D01*
X49787000Y-68750223D01*
X49802512Y-68868052D01*
X49802512Y-68906948D01*
X49787000Y-69024777D01*
X49787000Y-69250223D01*
X49802512Y-69368052D01*
X49802512Y-69406948D01*
X49787000Y-69524777D01*
X49787000Y-69750221D01*
X49795996Y-69818551D01*
X49790855Y-69881252D01*
X49760295Y-69936242D01*
X49709764Y-69973719D01*
X49648271Y-69987000D01*
X49150770Y-69987000D01*
X49093750Y-69975658D01*
X49045411Y-69943359D01*
X48841990Y-69739938D01*
X48828265Y-69722806D01*
X48774067Y-69671911D01*
X48770706Y-69668654D01*
X48750641Y-69648589D01*
X48748091Y-69646611D01*
X48737420Y-69637497D01*
X48704998Y-69607051D01*
X48688127Y-69597776D01*
X48668588Y-69584941D01*
X48653370Y-69573137D01*
X48612558Y-69555476D01*
X48599953Y-69549302D01*
X48560974Y-69527873D01*
X48560971Y-69527872D01*
X48542315Y-69523082D01*
X48520197Y-69515509D01*
X48502531Y-69507864D01*
X48458614Y-69500908D01*
X48444873Y-69498062D01*
X48401786Y-69487000D01*
X48401783Y-69487000D01*
X48382527Y-69487000D01*
X48359217Y-69485165D01*
X48350054Y-69483713D01*
X48340202Y-69482153D01*
X48340201Y-69482153D01*
X48314422Y-69484590D01*
X48295920Y-69486339D01*
X48281898Y-69487000D01*
X47493658Y-69487000D01*
X47471832Y-69484590D01*
X47398564Y-69486893D01*
X47397543Y-69486926D01*
X47392863Y-69487000D01*
X47364461Y-69487000D01*
X47361244Y-69487406D01*
X47347270Y-69488505D01*
X47302823Y-69489902D01*
X47284328Y-69495275D01*
X47261449Y-69500013D01*
X47242339Y-69502428D01*
X47242336Y-69502428D01*
X47242336Y-69502429D01*
X47200975Y-69518804D01*
X47187705Y-69523347D01*
X47144994Y-69535755D01*
X47128414Y-69545561D01*
X47107426Y-69555843D01*
X47089523Y-69562932D01*
X47089522Y-69562932D01*
X47089521Y-69562933D01*
X47053543Y-69589071D01*
X47041817Y-69596774D01*
X47003527Y-69619419D01*
X46989906Y-69633040D01*
X46972136Y-69648217D01*
X46956557Y-69659536D01*
X46928208Y-69693803D01*
X46918763Y-69704183D01*
X46214933Y-70408013D01*
X46197802Y-70421738D01*
X46146896Y-70475947D01*
X46143642Y-70479305D01*
X46123583Y-70499364D01*
X46121595Y-70501927D01*
X46112495Y-70512581D01*
X46082051Y-70545002D01*
X46072774Y-70561876D01*
X46059942Y-70581410D01*
X46048138Y-70596628D01*
X46030475Y-70637443D01*
X46024303Y-70650043D01*
X46002871Y-70689029D01*
X45998080Y-70707688D01*
X45990510Y-70729798D01*
X45987231Y-70737376D01*
X45949994Y-70789105D01*
X45894547Y-70820541D01*
X45831036Y-70825930D01*
X45725223Y-70812000D01*
X45725220Y-70812000D01*
X45499780Y-70812000D01*
X45499777Y-70812000D01*
X45381948Y-70827512D01*
X45343052Y-70827512D01*
X45225223Y-70812000D01*
X45225220Y-70812000D01*
X44999780Y-70812000D01*
X44999777Y-70812000D01*
X44881948Y-70827512D01*
X44843052Y-70827512D01*
X44725223Y-70812000D01*
X44725220Y-70812000D01*
X44499780Y-70812000D01*
X44499777Y-70812000D01*
X44381948Y-70827512D01*
X44343052Y-70827512D01*
X44225223Y-70812000D01*
X44225220Y-70812000D01*
X44087000Y-70812000D01*
X44029980Y-70800658D01*
X43981641Y-70768359D01*
X43949342Y-70720020D01*
X43938000Y-70663000D01*
X43938000Y-70524777D01*
X43922235Y-70405030D01*
X43922235Y-70366133D01*
X43932587Y-70287499D01*
X43928021Y-70282292D01*
X43884492Y-70272148D01*
X43832194Y-70229256D01*
X43831424Y-70228252D01*
X43804133Y-70169770D01*
X43804133Y-70105230D01*
X43831424Y-70046747D01*
X43832194Y-70045743D01*
X43884492Y-70002852D01*
X43928021Y-69992707D01*
X43932587Y-69987500D01*
X43922235Y-69908864D01*
X43922235Y-69869966D01*
X43938000Y-69750221D01*
X43938000Y-69524779D01*
X43922487Y-69406949D01*
X43922487Y-69368051D01*
X43938000Y-69250221D01*
X43938000Y-69024779D01*
X43932884Y-68985921D01*
X43923187Y-68912264D01*
X43923186Y-68912263D01*
X43922487Y-68906949D01*
X43922487Y-68868051D01*
X43938000Y-68750221D01*
X43938000Y-68524779D01*
X43930802Y-68470108D01*
X43923187Y-68412264D01*
X43923186Y-68412263D01*
X43922487Y-68406949D01*
X43922487Y-68368051D01*
X43938000Y-68250221D01*
X43938000Y-68024779D01*
X43929004Y-67956450D01*
X43923187Y-67912264D01*
X43923186Y-67912263D01*
X43922487Y-67906949D01*
X43922487Y-67868051D01*
X43924512Y-67852674D01*
X43938000Y-67750220D01*
X43938000Y-67524780D01*
X43923187Y-67412264D01*
X43923186Y-67412263D01*
X43922487Y-67406949D01*
X43922487Y-67368051D01*
X43938000Y-67250221D01*
X43938000Y-67024779D01*
X43922487Y-66906949D01*
X43922487Y-66868051D01*
X43938000Y-66750221D01*
X43938000Y-66524779D01*
X43928052Y-66449217D01*
X43923187Y-66412264D01*
X43923186Y-66412263D01*
X43922487Y-66406949D01*
X43922487Y-66368051D01*
X43924883Y-66349856D01*
X43938000Y-66250220D01*
X43938000Y-66024780D01*
X43937415Y-66020340D01*
X43922487Y-65906948D01*
X43922487Y-65868050D01*
X43938000Y-65750221D01*
X43938000Y-65524779D01*
X43922487Y-65406948D01*
X43922487Y-65368050D01*
X43938000Y-65250221D01*
X43938000Y-65112000D01*
X43949342Y-65054980D01*
X43981641Y-65006641D01*
X44029980Y-64974342D01*
X44087000Y-64963000D01*
X44225221Y-64963000D01*
X44254442Y-64959152D01*
X44337736Y-64948187D01*
X44337737Y-64948186D01*
X44343050Y-64947487D01*
X44381948Y-64947487D01*
X44387263Y-64948186D01*
X44387264Y-64948187D01*
X44423982Y-64953021D01*
X44499779Y-64963000D01*
X44499780Y-64963000D01*
X44725220Y-64963000D01*
X44725221Y-64963000D01*
X44754442Y-64959152D01*
X44837736Y-64948187D01*
X44837737Y-64948186D01*
X44843050Y-64947487D01*
X44881948Y-64947487D01*
X44887263Y-64948186D01*
X44887264Y-64948187D01*
X44923982Y-64953021D01*
X44999779Y-64963000D01*
X44999780Y-64963000D01*
X45225220Y-64963000D01*
X45225221Y-64963000D01*
X45254442Y-64959152D01*
X45337736Y-64948187D01*
X45337737Y-64948186D01*
X45343050Y-64947487D01*
X45381948Y-64947487D01*
X45387263Y-64948186D01*
X45387264Y-64948187D01*
X45423982Y-64953021D01*
X45499779Y-64963000D01*
X45499780Y-64963000D01*
X45725220Y-64963000D01*
X45725221Y-64963000D01*
X45801018Y-64953021D01*
X45837736Y-64948187D01*
X45837736Y-64948186D01*
X45844966Y-64947235D01*
X45883864Y-64947235D01*
X45962500Y-64957587D01*
X45967707Y-64953021D01*
X45977852Y-64909492D01*
X46020744Y-64857194D01*
X46021747Y-64856424D01*
X46080230Y-64829133D01*
X46144770Y-64829133D01*
X46203252Y-64856424D01*
G37*
%TD.AperFunction*%
%TA.AperFunction,Conductor*%
G36*
X39047033Y-47494516D02*
G01*
X39056298Y-47502180D01*
X39066686Y-47511632D01*
X39954198Y-48399144D01*
X40840114Y-49285059D01*
X40853841Y-49302193D01*
X40857296Y-49305438D01*
X40857298Y-49305440D01*
X40908070Y-49353118D01*
X40911399Y-49356344D01*
X40931465Y-49376410D01*
X40934011Y-49378385D01*
X40944687Y-49387504D01*
X40977105Y-49417947D01*
X40993973Y-49427220D01*
X41013521Y-49440060D01*
X41028737Y-49451863D01*
X41069550Y-49469524D01*
X41082152Y-49475697D01*
X41121132Y-49497127D01*
X41137630Y-49506197D01*
X41136330Y-49508560D01*
X41169534Y-49526059D01*
X41209544Y-49582310D01*
X41219909Y-49650556D01*
X41198404Y-49716150D01*
X41149645Y-49765012D01*
X41064463Y-49817553D01*
X40968211Y-49913805D01*
X40901416Y-49952368D01*
X40824289Y-49952368D01*
X40757494Y-49913804D01*
X40660850Y-49817160D01*
X40514015Y-49726591D01*
X40393483Y-49686651D01*
X40350253Y-49672326D01*
X40350251Y-49672325D01*
X40350249Y-49672325D01*
X40249181Y-49662000D01*
X39650827Y-49662000D01*
X39549745Y-49672326D01*
X39385984Y-49726591D01*
X39239149Y-49817160D01*
X39117160Y-49939149D01*
X39026591Y-50085984D01*
X38972325Y-50249750D01*
X38962000Y-50350818D01*
X38962000Y-50924172D01*
X38972326Y-51025254D01*
X39026591Y-51189015D01*
X39117160Y-51335850D01*
X39250951Y-51469641D01*
X39283250Y-51517980D01*
X39294592Y-51575000D01*
X39283250Y-51632020D01*
X39250951Y-51680359D01*
X39117160Y-51814149D01*
X39026591Y-51960984D01*
X38972325Y-52124750D01*
X38962000Y-52225818D01*
X38962000Y-52799172D01*
X38972326Y-52900254D01*
X39026591Y-53064015D01*
X39117160Y-53210850D01*
X39250951Y-53344641D01*
X39283250Y-53392980D01*
X39294592Y-53450000D01*
X39283250Y-53507020D01*
X39250951Y-53555359D01*
X39117160Y-53689149D01*
X39026591Y-53835984D01*
X38972325Y-53999750D01*
X38962000Y-54100818D01*
X38962000Y-54674172D01*
X38972326Y-54775254D01*
X39026591Y-54939015D01*
X39117160Y-55085850D01*
X39239151Y-55207841D01*
X39278720Y-55232247D01*
X39330607Y-55286448D01*
X39349500Y-55359064D01*
X39349500Y-55747085D01*
X39338158Y-55804105D01*
X39305859Y-55852444D01*
X37592359Y-57565944D01*
X37533044Y-57602292D01*
X37463691Y-57607751D01*
X37399420Y-57581129D01*
X37354240Y-57528230D01*
X37338000Y-57460585D01*
X37338000Y-48456164D01*
X37349342Y-48399144D01*
X37381641Y-48350805D01*
X37513464Y-48218982D01*
X38190844Y-47541599D01*
X38244630Y-47507170D01*
X38307892Y-47498421D01*
X38324805Y-47499752D01*
X38334303Y-47500500D01*
X38334306Y-47500500D01*
X38765690Y-47500500D01*
X38765694Y-47500500D01*
X38802569Y-47497598D01*
X38910492Y-47466242D01*
X38982274Y-47463422D01*
X39047033Y-47494516D01*
G37*
%TD.AperFunction*%
%TA.AperFunction,Conductor*%
G36*
X41933020Y-50398842D02*
G01*
X41981359Y-50431141D01*
X42013658Y-50479480D01*
X42025000Y-50536500D01*
X42025000Y-51540782D01*
X42013658Y-51597802D01*
X41981359Y-51646141D01*
X41975000Y-51652500D01*
X41975000Y-52613500D01*
X41963658Y-52670520D01*
X41931359Y-52718859D01*
X41883020Y-52751158D01*
X41826000Y-52762500D01*
X41624000Y-52762500D01*
X41566980Y-52751158D01*
X41518641Y-52718859D01*
X41486342Y-52670520D01*
X41475000Y-52613500D01*
X41475000Y-51609218D01*
X41486342Y-51552198D01*
X41518641Y-51503859D01*
X41525000Y-51497500D01*
X41525000Y-50536500D01*
X41536342Y-50479480D01*
X41568641Y-50431141D01*
X41616980Y-50398842D01*
X41674000Y-50387500D01*
X41876000Y-50387500D01*
X41933020Y-50398842D01*
G37*
%TD.AperFunction*%
%TA.AperFunction,Conductor*%
G36*
X43068859Y-42553621D02*
G01*
X43121349Y-42597208D01*
X43148907Y-42659621D01*
X43145756Y-42727776D01*
X43112556Y-42787381D01*
X43056269Y-42825938D01*
X42869862Y-42898151D01*
X42696461Y-43005517D01*
X42545735Y-43142920D01*
X42422826Y-43305680D01*
X42331918Y-43488247D01*
X42276102Y-43684419D01*
X42257284Y-43887500D01*
X42276102Y-44090580D01*
X42331918Y-44286752D01*
X42422826Y-44469319D01*
X42422827Y-44469321D01*
X42464356Y-44524314D01*
X42545735Y-44632079D01*
X42671978Y-44747164D01*
X42696459Y-44769481D01*
X42726044Y-44787799D01*
X42775283Y-44837675D01*
X42796273Y-44904545D01*
X42784369Y-44973614D01*
X42742204Y-45029599D01*
X42679107Y-45060113D01*
X42609041Y-45058404D01*
X42497791Y-45028594D01*
X42279815Y-45009525D01*
X42061838Y-45028594D01*
X41850484Y-45085226D01*
X41652178Y-45177699D01*
X41472937Y-45303204D01*
X41396954Y-45379187D01*
X41339859Y-45414794D01*
X41272920Y-45421652D01*
X41209791Y-45398362D01*
X41163345Y-45349673D01*
X41118081Y-45273135D01*
X41001865Y-45156919D01*
X40922630Y-45110060D01*
X40860398Y-45073256D01*
X40702569Y-45027402D01*
X40665694Y-45024500D01*
X40665690Y-45024500D01*
X40449500Y-45024500D01*
X40392480Y-45013158D01*
X40344141Y-44980859D01*
X40311842Y-44932520D01*
X40300500Y-44875500D01*
X40300500Y-43734310D01*
X40300500Y-43734306D01*
X40297598Y-43697431D01*
X40251744Y-43539602D01*
X40171248Y-43403491D01*
X40155781Y-43366962D01*
X40150500Y-43327645D01*
X40150500Y-43081164D01*
X40161842Y-43024144D01*
X40194141Y-42975805D01*
X40588305Y-42581641D01*
X40636644Y-42549342D01*
X40693664Y-42538000D01*
X43002444Y-42538000D01*
X43068859Y-42553621D01*
G37*
%TD.AperFunction*%
%TA.AperFunction,Conductor*%
G36*
X64020020Y-32649342D02*
G01*
X64068359Y-32681641D01*
X64100658Y-32729980D01*
X64112000Y-32787000D01*
X64112000Y-96738000D01*
X64100658Y-96795020D01*
X64068359Y-96843359D01*
X64020020Y-96875658D01*
X63963000Y-96887000D01*
X32762000Y-96887000D01*
X32704980Y-96875658D01*
X32656641Y-96843359D01*
X32624342Y-96795020D01*
X32613000Y-96738000D01*
X32613000Y-94137500D01*
X33507051Y-94137500D01*
X33526817Y-94388651D01*
X33585626Y-94633610D01*
X33682033Y-94866358D01*
X33813662Y-95081156D01*
X33813664Y-95081159D01*
X33977276Y-95272724D01*
X34168841Y-95436336D01*
X34383641Y-95567966D01*
X34616389Y-95664373D01*
X34861352Y-95723183D01*
X35112500Y-95742949D01*
X35363648Y-95723183D01*
X35608611Y-95664373D01*
X35841359Y-95567966D01*
X36056159Y-95436336D01*
X36247724Y-95272724D01*
X36411336Y-95081159D01*
X36542966Y-94866359D01*
X36639373Y-94633611D01*
X36698183Y-94388648D01*
X36717949Y-94137500D01*
X36717949Y-94137499D01*
X59857051Y-94137499D01*
X59876817Y-94388651D01*
X59935626Y-94633610D01*
X60032033Y-94866358D01*
X60163662Y-95081156D01*
X60163664Y-95081159D01*
X60327276Y-95272724D01*
X60518841Y-95436336D01*
X60733641Y-95567966D01*
X60966389Y-95664373D01*
X61211352Y-95723183D01*
X61462500Y-95742949D01*
X61713648Y-95723183D01*
X61958611Y-95664373D01*
X62191359Y-95567966D01*
X62406159Y-95436336D01*
X62597724Y-95272724D01*
X62761336Y-95081159D01*
X62892966Y-94866359D01*
X62989373Y-94633611D01*
X63048183Y-94388648D01*
X63067949Y-94137500D01*
X63048183Y-93886352D01*
X62989373Y-93641389D01*
X62892966Y-93408641D01*
X62761336Y-93193841D01*
X62597724Y-93002276D01*
X62406159Y-92838664D01*
X62406156Y-92838662D01*
X62191358Y-92707033D01*
X61958610Y-92610626D01*
X61713651Y-92551817D01*
X61462500Y-92532051D01*
X61211348Y-92551817D01*
X60966389Y-92610626D01*
X60733641Y-92707033D01*
X60518843Y-92838662D01*
X60327276Y-93002276D01*
X60163662Y-93193843D01*
X60032033Y-93408641D01*
X59935626Y-93641389D01*
X59876817Y-93886348D01*
X59857051Y-94137499D01*
X36717949Y-94137499D01*
X36698183Y-93886352D01*
X36639373Y-93641389D01*
X36542966Y-93408641D01*
X36411336Y-93193841D01*
X36247724Y-93002276D01*
X36056159Y-92838664D01*
X36056156Y-92838662D01*
X35841358Y-92707033D01*
X35608610Y-92610626D01*
X35363651Y-92551817D01*
X35112500Y-92532051D01*
X34861348Y-92551817D01*
X34616389Y-92610626D01*
X34383641Y-92707033D01*
X34168843Y-92838662D01*
X33977276Y-93002276D01*
X33813662Y-93193843D01*
X33682033Y-93408641D01*
X33585626Y-93641389D01*
X33526817Y-93886348D01*
X33507051Y-94137500D01*
X32613000Y-94137500D01*
X32613000Y-90125000D01*
X35887501Y-90125000D01*
X35887501Y-90174142D01*
X35897819Y-90275153D01*
X35952046Y-90438802D01*
X36042554Y-90585536D01*
X36164463Y-90707445D01*
X36311197Y-90797953D01*
X36474849Y-90852181D01*
X36575849Y-90862500D01*
X36612500Y-90862500D01*
X36612500Y-90125000D01*
X37112500Y-90125000D01*
X37112500Y-90862499D01*
X37149142Y-90862499D01*
X37250153Y-90852180D01*
X37413802Y-90797953D01*
X37560536Y-90707445D01*
X37615474Y-90652508D01*
X37663813Y-90620209D01*
X37720833Y-90608867D01*
X37777853Y-90620209D01*
X37826192Y-90652508D01*
X37881129Y-90707445D01*
X38027863Y-90797953D01*
X38191515Y-90852181D01*
X38292515Y-90862500D01*
X38329166Y-90862500D01*
X38329166Y-90125000D01*
X38829166Y-90125000D01*
X38829166Y-90862499D01*
X38865808Y-90862499D01*
X38966819Y-90852180D01*
X39130468Y-90797953D01*
X39277202Y-90707445D01*
X39332141Y-90652507D01*
X39380480Y-90620208D01*
X39437500Y-90608866D01*
X39494520Y-90620208D01*
X39542859Y-90652507D01*
X39597797Y-90707445D01*
X39744531Y-90797953D01*
X39908183Y-90852181D01*
X40009183Y-90862500D01*
X40045834Y-90862500D01*
X40045834Y-90125000D01*
X40545834Y-90125000D01*
X40545834Y-90862499D01*
X40582476Y-90862499D01*
X40683487Y-90852180D01*
X40847136Y-90797953D01*
X40993870Y-90707445D01*
X41052975Y-90648341D01*
X41101314Y-90616042D01*
X41158334Y-90604700D01*
X41215354Y-90616042D01*
X41263693Y-90648341D01*
X41347797Y-90732445D01*
X41494531Y-90822953D01*
X41658183Y-90877181D01*
X41759183Y-90887500D01*
X41795834Y-90887500D01*
X41795834Y-90150000D01*
X42295834Y-90150000D01*
X42295834Y-90887499D01*
X42332476Y-90887499D01*
X42433487Y-90877180D01*
X42597136Y-90822953D01*
X42743870Y-90732445D01*
X42865779Y-90610536D01*
X42956287Y-90463802D01*
X43010515Y-90300150D01*
X43020834Y-90199151D01*
X43020834Y-90150000D01*
X42295834Y-90150000D01*
X41795834Y-90150000D01*
X41117552Y-90150000D01*
X41060532Y-90138658D01*
X41040091Y-90125000D01*
X40545834Y-90125000D01*
X40045834Y-90125000D01*
X38829166Y-90125000D01*
X38329166Y-90125000D01*
X37112500Y-90125000D01*
X36612500Y-90125000D01*
X35887501Y-90125000D01*
X32613000Y-90125000D01*
X32613000Y-77689241D01*
X34624311Y-77689241D01*
X34689089Y-77734599D01*
X34889221Y-77827921D01*
X35102518Y-77885075D01*
X35322500Y-77904320D01*
X35542481Y-77885075D01*
X35755778Y-77827921D01*
X35955910Y-77734599D01*
X35977536Y-77719457D01*
X36037125Y-77694774D01*
X36101563Y-77697587D01*
X36158775Y-77727369D01*
X36198040Y-77778540D01*
X36212000Y-77841510D01*
X36212000Y-82820092D01*
X36200658Y-82877112D01*
X36168359Y-82925451D01*
X36042160Y-83051649D01*
X35951591Y-83198484D01*
X35897325Y-83362250D01*
X35887000Y-83463318D01*
X35887000Y-84061672D01*
X35897326Y-84162754D01*
X35951591Y-84326515D01*
X36042160Y-84473350D01*
X36138451Y-84569641D01*
X36170750Y-84617980D01*
X36182092Y-84675000D01*
X36170750Y-84732020D01*
X36138451Y-84780359D01*
X36042160Y-84876649D01*
X35951591Y-85023484D01*
X35897325Y-85187250D01*
X35887000Y-85288318D01*
X35887000Y-85886672D01*
X35897326Y-85987754D01*
X35951591Y-86151515D01*
X36042160Y-86298350D01*
X36168359Y-86424549D01*
X36200658Y-86472888D01*
X36212000Y-86529908D01*
X36212000Y-87107592D01*
X36200658Y-87164612D01*
X36168359Y-87212951D01*
X36042160Y-87339149D01*
X35951591Y-87485984D01*
X35897325Y-87649750D01*
X35887000Y-87750818D01*
X35887000Y-88349172D01*
X35897326Y-88450254D01*
X35951591Y-88614015D01*
X36042160Y-88760850D01*
X36138804Y-88857494D01*
X36177368Y-88924289D01*
X36177368Y-89001416D01*
X36138805Y-89068211D01*
X36042555Y-89164462D01*
X35952046Y-89311197D01*
X35897818Y-89474849D01*
X35887500Y-89575849D01*
X35887500Y-89625000D01*
X41224116Y-89625000D01*
X41281136Y-89636342D01*
X41301577Y-89650000D01*
X43020833Y-89650000D01*
X43020833Y-89600858D01*
X43010514Y-89499846D01*
X42956287Y-89336197D01*
X42865779Y-89189463D01*
X42769529Y-89093213D01*
X42737230Y-89044874D01*
X42725888Y-88987854D01*
X42737230Y-88930834D01*
X42769529Y-88882495D01*
X42798834Y-88853190D01*
X42866174Y-88785850D01*
X42956742Y-88639016D01*
X43011008Y-88475253D01*
X43021334Y-88374177D01*
X43021333Y-87775824D01*
X43011008Y-87674747D01*
X42956742Y-87510984D01*
X42866174Y-87364150D01*
X42744184Y-87242160D01*
X42744183Y-87242159D01*
X42739975Y-87237951D01*
X42707676Y-87189612D01*
X42696334Y-87132592D01*
X42696334Y-86554908D01*
X42707676Y-86497888D01*
X42739975Y-86449549D01*
X42777604Y-86411920D01*
X42866174Y-86323350D01*
X42956742Y-86176516D01*
X43011008Y-86012753D01*
X43021334Y-85911677D01*
X43021333Y-85313324D01*
X43011008Y-85212247D01*
X42956742Y-85048484D01*
X42866174Y-84901650D01*
X42769883Y-84805359D01*
X42737584Y-84757020D01*
X42726242Y-84700000D01*
X42737584Y-84642980D01*
X42769883Y-84594641D01*
X42782883Y-84581641D01*
X42831222Y-84549342D01*
X42888242Y-84538000D01*
X42889914Y-84538000D01*
X42946934Y-84549342D01*
X42995273Y-84581641D01*
X43318359Y-84904726D01*
X43350658Y-84953065D01*
X43362000Y-85010085D01*
X43362000Y-88321973D01*
X43360427Y-88343568D01*
X43357210Y-88365524D01*
X43361433Y-88413783D01*
X43362000Y-88426769D01*
X43362000Y-88431210D01*
X43365555Y-88461632D01*
X43365995Y-88465938D01*
X43372783Y-88543522D01*
X43376149Y-88558705D01*
X43377258Y-88561754D01*
X43377259Y-88561755D01*
X43400507Y-88625632D01*
X43402780Y-88631875D01*
X43404202Y-88635966D01*
X43428706Y-88709913D01*
X43435482Y-88723909D01*
X43437262Y-88726616D01*
X43437263Y-88726617D01*
X43478294Y-88789003D01*
X43480578Y-88792588D01*
X43519788Y-88856156D01*
X43519789Y-88856157D01*
X43521494Y-88858921D01*
X43531306Y-88870965D01*
X43533668Y-88873194D01*
X43533670Y-88873196D01*
X43579388Y-88916329D01*
X43587944Y-88924401D01*
X43591052Y-88927420D01*
X45535482Y-90871849D01*
X45549638Y-90888230D01*
X45562890Y-90906030D01*
X45600000Y-90937169D01*
X45609583Y-90945950D01*
X45612722Y-90949089D01*
X45636748Y-90968086D01*
X45640078Y-90970798D01*
X45697286Y-91018802D01*
X45697288Y-91018803D01*
X45699780Y-91020894D01*
X45712875Y-91029236D01*
X45715822Y-91030610D01*
X45715823Y-91030611D01*
X45759091Y-91050787D01*
X45783488Y-91062164D01*
X45787389Y-91064053D01*
X45856978Y-91099002D01*
X45871646Y-91104100D01*
X45874826Y-91104756D01*
X45874827Y-91104757D01*
X45947929Y-91119850D01*
X45952131Y-91120781D01*
X46024779Y-91138000D01*
X46024782Y-91138000D01*
X46027938Y-91138748D01*
X46043389Y-91140327D01*
X46046641Y-91140232D01*
X46046644Y-91140233D01*
X46121232Y-91138063D01*
X46125565Y-91138000D01*
X47170293Y-91138000D01*
X47224119Y-91148062D01*
X47270672Y-91176887D01*
X47276099Y-91181834D01*
X47416199Y-91309554D01*
X47597475Y-91421795D01*
X47597478Y-91421796D01*
X47597481Y-91421798D01*
X47796302Y-91498821D01*
X48005890Y-91538000D01*
X48219110Y-91538000D01*
X48428698Y-91498821D01*
X48627519Y-91421798D01*
X48748223Y-91347060D01*
X48810628Y-91325609D01*
X48876180Y-91333214D01*
X48932018Y-91368386D01*
X49018841Y-91455210D01*
X49018843Y-91455211D01*
X49018844Y-91455212D01*
X49168166Y-91547314D01*
X49334703Y-91602499D01*
X49437491Y-91613000D01*
X50212508Y-91612999D01*
X50315297Y-91602499D01*
X50481834Y-91547314D01*
X50631156Y-91455212D01*
X50755212Y-91331156D01*
X50755213Y-91331153D01*
X50757494Y-91328873D01*
X50805833Y-91296574D01*
X50862853Y-91285232D01*
X50919873Y-91296574D01*
X50968212Y-91328873D01*
X51094155Y-91454816D01*
X51243379Y-91546858D01*
X51409805Y-91602006D01*
X51512517Y-91612500D01*
X51650000Y-91612500D01*
X51650000Y-90637500D01*
X52150000Y-90637500D01*
X52150000Y-91612499D01*
X52287474Y-91612499D01*
X52390198Y-91602005D01*
X52556620Y-91546858D01*
X52705844Y-91454816D01*
X52829816Y-91330844D01*
X52921858Y-91181620D01*
X52977006Y-91015194D01*
X52987500Y-90912483D01*
X52987500Y-90837500D01*
X55087500Y-90837500D01*
X55087500Y-91635331D01*
X55093901Y-91694873D01*
X55144147Y-91829588D01*
X55230311Y-91944688D01*
X55345411Y-92030852D01*
X55480126Y-92081098D01*
X55539669Y-92087500D01*
X56187500Y-92087500D01*
X56187500Y-90837500D01*
X56687500Y-90837500D01*
X56687500Y-92087500D01*
X57335331Y-92087500D01*
X57394873Y-92081098D01*
X57529588Y-92030852D01*
X57644688Y-91944688D01*
X57730852Y-91829588D01*
X57781098Y-91694873D01*
X57787500Y-91635331D01*
X57787500Y-90837500D01*
X60537500Y-90837500D01*
X60537500Y-91635331D01*
X60543901Y-91694873D01*
X60594147Y-91829588D01*
X60680311Y-91944688D01*
X60795411Y-92030852D01*
X60930126Y-92081098D01*
X60989669Y-92087500D01*
X61637500Y-92087500D01*
X61637500Y-90837500D01*
X62137500Y-90837500D01*
X62137500Y-92087500D01*
X62785331Y-92087500D01*
X62844873Y-92081098D01*
X62979588Y-92030852D01*
X63094688Y-91944688D01*
X63180852Y-91829588D01*
X63231098Y-91694873D01*
X63237500Y-91635331D01*
X63237500Y-90837500D01*
X62137500Y-90837500D01*
X61637500Y-90837500D01*
X60537500Y-90837500D01*
X57787500Y-90837500D01*
X56687500Y-90837500D01*
X56187500Y-90837500D01*
X55087500Y-90837500D01*
X52987500Y-90837500D01*
X52987500Y-90637500D01*
X52150000Y-90637500D01*
X51650000Y-90637500D01*
X51650000Y-90337500D01*
X55087500Y-90337500D01*
X56187500Y-90337500D01*
X56187500Y-89087500D01*
X56687500Y-89087500D01*
X56687500Y-90337500D01*
X57787500Y-90337500D01*
X60537500Y-90337500D01*
X61637500Y-90337500D01*
X61637500Y-89087500D01*
X62137500Y-89087500D01*
X62137500Y-90337500D01*
X63237500Y-90337500D01*
X63237500Y-89539669D01*
X63231098Y-89480126D01*
X63180852Y-89345411D01*
X63094688Y-89230311D01*
X62979588Y-89144147D01*
X62844873Y-89093901D01*
X62785331Y-89087500D01*
X62137500Y-89087500D01*
X61637500Y-89087500D01*
X60989669Y-89087500D01*
X60930126Y-89093901D01*
X60795411Y-89144147D01*
X60680311Y-89230311D01*
X60594147Y-89345411D01*
X60543901Y-89480126D01*
X60537500Y-89539669D01*
X60537500Y-90337500D01*
X57787500Y-90337500D01*
X57787500Y-89539669D01*
X57781098Y-89480126D01*
X57730852Y-89345411D01*
X57644688Y-89230311D01*
X57529588Y-89144147D01*
X57394873Y-89093901D01*
X57335331Y-89087500D01*
X56687500Y-89087500D01*
X56187500Y-89087500D01*
X55539669Y-89087500D01*
X55480126Y-89093901D01*
X55345411Y-89144147D01*
X55230311Y-89230311D01*
X55144147Y-89345411D01*
X55093901Y-89480126D01*
X55087500Y-89539669D01*
X55087500Y-90337500D01*
X51650000Y-90337500D01*
X51650000Y-89162501D01*
X51512526Y-89162501D01*
X51409801Y-89172994D01*
X51243379Y-89228141D01*
X51094155Y-89320183D01*
X50968212Y-89446126D01*
X50901417Y-89484690D01*
X50824289Y-89484690D01*
X50757494Y-89446126D01*
X50631156Y-89319788D01*
X50617228Y-89311197D01*
X50481834Y-89227686D01*
X50315297Y-89172501D01*
X50315295Y-89172500D01*
X50315293Y-89172500D01*
X50217407Y-89162500D01*
X52150000Y-89162500D01*
X52150000Y-90137500D01*
X52987499Y-90137500D01*
X52987499Y-89862526D01*
X52977005Y-89759801D01*
X52921858Y-89593379D01*
X52829816Y-89444155D01*
X52705844Y-89320183D01*
X52556620Y-89228141D01*
X52390194Y-89172993D01*
X52287483Y-89162500D01*
X52150000Y-89162500D01*
X50217407Y-89162500D01*
X50212513Y-89162000D01*
X49437495Y-89162000D01*
X49334701Y-89172501D01*
X49168166Y-89227685D01*
X49168166Y-89227686D01*
X49090219Y-89275763D01*
X49031018Y-89296727D01*
X48968436Y-89291435D01*
X48913594Y-89260827D01*
X48876237Y-89210341D01*
X48863000Y-89148946D01*
X48863000Y-89073386D01*
X48868916Y-89031816D01*
X48910098Y-88890069D01*
X48913000Y-88853194D01*
X48913000Y-87696806D01*
X48910098Y-87659931D01*
X48864244Y-87502102D01*
X48780581Y-87360635D01*
X48664365Y-87244419D01*
X48662805Y-87242859D01*
X48630506Y-87194520D01*
X48619164Y-87137500D01*
X48630506Y-87080480D01*
X48662805Y-87032141D01*
X48698930Y-86996016D01*
X48747269Y-86963717D01*
X48804289Y-86952375D01*
X48861309Y-86963717D01*
X48909648Y-86996016D01*
X50135485Y-88221853D01*
X50149641Y-88238234D01*
X50162889Y-88256029D01*
X50199994Y-88287164D01*
X50209577Y-88295945D01*
X50212722Y-88299090D01*
X50236763Y-88318099D01*
X50240125Y-88320838D01*
X50299775Y-88370891D01*
X50312875Y-88379236D01*
X50315822Y-88380610D01*
X50315823Y-88380611D01*
X50328362Y-88386458D01*
X50383488Y-88412164D01*
X50387389Y-88414053D01*
X50456980Y-88449003D01*
X50471643Y-88454100D01*
X50518502Y-88463775D01*
X50547969Y-88469859D01*
X50552155Y-88470787D01*
X50624779Y-88488000D01*
X50624781Y-88488000D01*
X50627945Y-88488750D01*
X50643391Y-88490328D01*
X50646641Y-88490233D01*
X50646644Y-88490234D01*
X50721252Y-88488062D01*
X50725586Y-88488000D01*
X56399548Y-88488000D01*
X56399556Y-88487999D01*
X57385376Y-88487999D01*
X57425112Y-88483727D01*
X57444983Y-88481591D01*
X57579831Y-88431296D01*
X57646435Y-88381436D01*
X58283168Y-88381436D01*
X58313634Y-88554211D01*
X58348019Y-88633923D01*
X58383123Y-88715304D01*
X58487890Y-88856030D01*
X58622286Y-88968802D01*
X58779067Y-89047540D01*
X58949779Y-89088000D01*
X59081204Y-89088000D01*
X59081209Y-89088000D01*
X59211755Y-89072741D01*
X59266890Y-89052674D01*
X59376614Y-89012738D01*
X59376613Y-89012738D01*
X59376617Y-89012737D01*
X59523196Y-88916330D01*
X59643592Y-88788718D01*
X59731312Y-88636781D01*
X59781630Y-88468710D01*
X59791831Y-88293565D01*
X59790702Y-88287164D01*
X59761365Y-88120788D01*
X59740291Y-88071934D01*
X59691877Y-87959696D01*
X59587110Y-87818970D01*
X59452714Y-87706198D01*
X59452713Y-87706197D01*
X59295935Y-87627461D01*
X59295934Y-87627460D01*
X59295933Y-87627460D01*
X59125221Y-87587000D01*
X58993791Y-87587000D01*
X58921265Y-87595477D01*
X58863241Y-87602259D01*
X58698385Y-87662261D01*
X58551804Y-87758670D01*
X58431408Y-87886282D01*
X58343686Y-88038220D01*
X58293370Y-88206288D01*
X58283168Y-88381436D01*
X57646435Y-88381436D01*
X57695046Y-88345046D01*
X57781296Y-88229831D01*
X57831591Y-88094983D01*
X57838000Y-88035373D01*
X57837999Y-87439628D01*
X57837999Y-87439623D01*
X57829591Y-87361409D01*
X57830064Y-87361358D01*
X57825759Y-87337497D01*
X57830064Y-87313641D01*
X57829591Y-87313591D01*
X57837270Y-87242160D01*
X57838000Y-87235373D01*
X57837999Y-86639628D01*
X57837999Y-86639623D01*
X57829591Y-86561409D01*
X57830064Y-86561358D01*
X57825759Y-86537494D01*
X57830064Y-86513642D01*
X57829591Y-86513592D01*
X57834026Y-86472334D01*
X57838000Y-86435373D01*
X57837999Y-85839628D01*
X57837999Y-85839622D01*
X57829591Y-85761407D01*
X57829929Y-85761370D01*
X57825493Y-85736785D01*
X57829686Y-85713548D01*
X57829098Y-85713485D01*
X57837500Y-85635331D01*
X57837500Y-85587500D01*
X57812708Y-85587500D01*
X57746013Y-85571740D01*
X57704339Y-85536911D01*
X57695046Y-85529954D01*
X57579831Y-85443704D01*
X57444983Y-85393409D01*
X57444982Y-85393408D01*
X57444980Y-85393408D01*
X57385376Y-85387000D01*
X57385373Y-85387000D01*
X56425222Y-85387000D01*
X56425221Y-85387000D01*
X53235085Y-85387000D01*
X53178065Y-85375658D01*
X53129726Y-85343359D01*
X52656641Y-84870273D01*
X52624342Y-84821934D01*
X52617493Y-84787500D01*
X54837500Y-84787500D01*
X54837500Y-84835331D01*
X54845902Y-84913483D01*
X54845449Y-84913531D01*
X54849773Y-84937500D01*
X54845449Y-84961468D01*
X54845902Y-84961517D01*
X54837500Y-85039669D01*
X54837500Y-85087500D01*
X56087500Y-85087500D01*
X56087500Y-84787500D01*
X56587500Y-84787500D01*
X56587500Y-85087500D01*
X57837500Y-85087500D01*
X57837500Y-85039669D01*
X57829098Y-84961516D01*
X57829551Y-84961467D01*
X57825226Y-84937500D01*
X57829551Y-84913532D01*
X57829098Y-84913484D01*
X57837500Y-84835331D01*
X57837500Y-84787500D01*
X56587500Y-84787500D01*
X56087500Y-84787500D01*
X54837500Y-84787500D01*
X52617493Y-84787500D01*
X52613000Y-84764914D01*
X52613000Y-84287500D01*
X54837500Y-84287500D01*
X56087500Y-84287500D01*
X56087500Y-83787500D01*
X56587500Y-83787500D01*
X56587500Y-84287500D01*
X57837500Y-84287500D01*
X57837500Y-84239669D01*
X57831098Y-84180126D01*
X57780852Y-84045411D01*
X57732960Y-83981436D01*
X58283168Y-83981436D01*
X58313634Y-84154211D01*
X58362181Y-84266756D01*
X58383123Y-84315304D01*
X58487890Y-84456030D01*
X58622286Y-84568802D01*
X58779067Y-84647540D01*
X58949779Y-84688000D01*
X59081204Y-84688000D01*
X59081209Y-84688000D01*
X59211755Y-84672741D01*
X59376617Y-84612737D01*
X59523196Y-84516330D01*
X59643592Y-84388718D01*
X59731312Y-84236781D01*
X59781630Y-84068710D01*
X59791831Y-83893565D01*
X59780826Y-83831156D01*
X59761365Y-83720788D01*
X59740423Y-83672241D01*
X59691877Y-83559696D01*
X59587110Y-83418970D01*
X59452714Y-83306198D01*
X59452713Y-83306197D01*
X59295935Y-83227461D01*
X59295934Y-83227460D01*
X59295933Y-83227460D01*
X59125221Y-83187000D01*
X58993791Y-83187000D01*
X58921265Y-83195477D01*
X58863241Y-83202259D01*
X58698385Y-83262261D01*
X58551804Y-83358670D01*
X58431408Y-83486282D01*
X58343686Y-83638220D01*
X58293370Y-83806288D01*
X58283168Y-83981436D01*
X57732960Y-83981436D01*
X57694688Y-83930311D01*
X57579588Y-83844147D01*
X57444873Y-83793901D01*
X57385331Y-83787500D01*
X56587500Y-83787500D01*
X56087500Y-83787500D01*
X55289669Y-83787500D01*
X55230126Y-83793901D01*
X55095411Y-83844147D01*
X54980311Y-83930311D01*
X54894147Y-84045411D01*
X54843901Y-84180126D01*
X54837500Y-84239669D01*
X54837500Y-84287500D01*
X52613000Y-84287500D01*
X52613000Y-81937500D01*
X55087500Y-81937500D01*
X55087500Y-82735331D01*
X55093901Y-82794873D01*
X55144147Y-82929588D01*
X55230311Y-83044688D01*
X55345411Y-83130852D01*
X55480126Y-83181098D01*
X55539669Y-83187500D01*
X56187500Y-83187500D01*
X56187500Y-81937500D01*
X56687500Y-81937500D01*
X56687500Y-83187500D01*
X57335331Y-83187500D01*
X57394873Y-83181098D01*
X57529588Y-83130852D01*
X57644688Y-83044688D01*
X57730852Y-82929588D01*
X57781098Y-82794873D01*
X57787500Y-82735331D01*
X57787500Y-81937500D01*
X60537500Y-81937500D01*
X60537500Y-82735331D01*
X60543901Y-82794873D01*
X60594147Y-82929588D01*
X60680311Y-83044688D01*
X60795411Y-83130852D01*
X60930126Y-83181098D01*
X60989669Y-83187500D01*
X61637500Y-83187500D01*
X61637500Y-81937500D01*
X62137500Y-81937500D01*
X62137500Y-83187500D01*
X62785331Y-83187500D01*
X62844873Y-83181098D01*
X62979588Y-83130852D01*
X63094688Y-83044688D01*
X63180852Y-82929588D01*
X63231098Y-82794873D01*
X63237500Y-82735331D01*
X63237500Y-81937500D01*
X62137500Y-81937500D01*
X61637500Y-81937500D01*
X60537500Y-81937500D01*
X57787500Y-81937500D01*
X56687500Y-81937500D01*
X56187500Y-81937500D01*
X55087500Y-81937500D01*
X52613000Y-81937500D01*
X52613000Y-81437500D01*
X55087500Y-81437500D01*
X56187500Y-81437500D01*
X56187500Y-80187500D01*
X56687500Y-80187500D01*
X56687500Y-81437500D01*
X57787500Y-81437500D01*
X60537500Y-81437500D01*
X61637500Y-81437500D01*
X61637500Y-80187500D01*
X62137500Y-80187500D01*
X62137500Y-81437500D01*
X63237500Y-81437500D01*
X63237500Y-80639669D01*
X63231098Y-80580126D01*
X63180852Y-80445411D01*
X63094688Y-80330311D01*
X62979588Y-80244147D01*
X62844873Y-80193901D01*
X62785331Y-80187500D01*
X62137500Y-80187500D01*
X61637500Y-80187500D01*
X60989669Y-80187500D01*
X60930126Y-80193901D01*
X60795411Y-80244147D01*
X60680311Y-80330311D01*
X60594147Y-80445411D01*
X60543901Y-80580126D01*
X60537500Y-80639669D01*
X60537500Y-81437500D01*
X57787500Y-81437500D01*
X57787500Y-80639669D01*
X57781098Y-80580126D01*
X57730852Y-80445411D01*
X57644688Y-80330311D01*
X57529588Y-80244147D01*
X57394873Y-80193901D01*
X57335331Y-80187500D01*
X56687500Y-80187500D01*
X56187500Y-80187500D01*
X55539669Y-80187500D01*
X55480126Y-80193901D01*
X55345411Y-80244147D01*
X55230311Y-80330311D01*
X55144147Y-80445411D01*
X55093901Y-80580126D01*
X55087500Y-80639669D01*
X55087500Y-81437500D01*
X52613000Y-81437500D01*
X52613000Y-80111006D01*
X52629240Y-80043361D01*
X52674420Y-79990462D01*
X52738691Y-79963840D01*
X52808044Y-79969299D01*
X52867359Y-80005647D01*
X52872551Y-80010839D01*
X53051783Y-80136339D01*
X53051786Y-80136340D01*
X53051787Y-80136341D01*
X53250096Y-80228814D01*
X53461449Y-80285446D01*
X53679426Y-80304516D01*
X53897403Y-80285446D01*
X54108756Y-80228814D01*
X54307065Y-80136341D01*
X54486303Y-80010837D01*
X54641024Y-79856116D01*
X54766528Y-79676878D01*
X54859001Y-79478569D01*
X54915633Y-79267216D01*
X54934703Y-79049239D01*
X54915633Y-78831262D01*
X54907256Y-78800000D01*
X54859001Y-78619908D01*
X54766528Y-78421602D01*
X54766528Y-78421601D01*
X54641024Y-78242362D01*
X54486303Y-78087641D01*
X54486300Y-78087638D01*
X54307068Y-77962138D01*
X54108756Y-77869664D01*
X53897402Y-77813031D01*
X53698495Y-77795630D01*
X53679426Y-77793962D01*
X53679425Y-77793962D01*
X53461449Y-77813031D01*
X53250095Y-77869663D01*
X53051785Y-77962137D01*
X52964917Y-78022963D01*
X52902477Y-78048120D01*
X52835338Y-78043228D01*
X52777204Y-78009287D01*
X52739941Y-77953224D01*
X52731155Y-77886483D01*
X52752638Y-77822688D01*
X52773408Y-77789016D01*
X52827674Y-77625253D01*
X52838000Y-77524177D01*
X52837999Y-76925824D01*
X52827674Y-76824747D01*
X52773408Y-76660984D01*
X52749000Y-76621412D01*
X52683501Y-76515221D01*
X52662536Y-76456018D01*
X52667828Y-76393436D01*
X52698436Y-76338595D01*
X52748922Y-76301237D01*
X52810317Y-76288000D01*
X58724013Y-76288000D01*
X58795681Y-76306368D01*
X58849679Y-76356943D01*
X58872694Y-76427256D01*
X58859052Y-76499971D01*
X58838597Y-76543834D01*
X58777436Y-76772092D01*
X58756841Y-77007500D01*
X58777436Y-77242907D01*
X58838597Y-77471163D01*
X58877302Y-77554167D01*
X58938465Y-77685330D01*
X59074005Y-77878901D01*
X59241099Y-78045995D01*
X59434670Y-78181535D01*
X59648837Y-78281403D01*
X59877092Y-78342563D01*
X60112500Y-78363159D01*
X60347908Y-78342563D01*
X60576163Y-78281403D01*
X60790330Y-78181535D01*
X60983901Y-78045995D01*
X61150995Y-77878901D01*
X61286535Y-77685330D01*
X61386403Y-77471163D01*
X61447563Y-77242908D01*
X61468159Y-77007500D01*
X61450538Y-76806098D01*
X61458957Y-76742152D01*
X61493610Y-76687756D01*
X62886859Y-75294507D01*
X62903234Y-75280357D01*
X62921030Y-75267110D01*
X62952160Y-75230010D01*
X62960947Y-75220420D01*
X62964091Y-75217277D01*
X62983092Y-75193245D01*
X62985833Y-75189880D01*
X62987557Y-75187825D01*
X63033802Y-75132714D01*
X63033804Y-75132708D01*
X63035893Y-75130220D01*
X63044233Y-75117130D01*
X63045608Y-75114180D01*
X63045611Y-75114177D01*
X63077178Y-75046478D01*
X63079047Y-75042621D01*
X63112540Y-74975933D01*
X63112540Y-74975931D01*
X63114003Y-74973019D01*
X63119098Y-74958360D01*
X63119755Y-74955176D01*
X63119757Y-74955173D01*
X63134865Y-74881999D01*
X63135773Y-74877902D01*
X63153000Y-74805221D01*
X63153000Y-74805215D01*
X63153750Y-74802051D01*
X63155328Y-74786608D01*
X63155233Y-74783358D01*
X63155234Y-74783356D01*
X63153062Y-74708747D01*
X63153000Y-74704414D01*
X63153000Y-62730788D01*
X63169835Y-62661987D01*
X63208386Y-62618028D01*
X63207902Y-62617544D01*
X63215289Y-62610156D01*
X63216537Y-62608734D01*
X63217120Y-62608326D01*
X63373326Y-62452120D01*
X63500034Y-62271162D01*
X63593394Y-62070950D01*
X63650570Y-61857568D01*
X63669823Y-61637500D01*
X63650570Y-61417432D01*
X63593394Y-61204050D01*
X63500034Y-61003839D01*
X63451859Y-60935038D01*
X63373327Y-60822881D01*
X63217120Y-60666674D01*
X63180358Y-60640933D01*
X63036162Y-60539966D01*
X63036158Y-60539964D01*
X62835950Y-60446605D01*
X62622567Y-60389429D01*
X62402500Y-60370177D01*
X62182432Y-60389429D01*
X61969050Y-60446605D01*
X61768837Y-60539966D01*
X61587881Y-60666672D01*
X61431672Y-60822881D01*
X61304966Y-61003837D01*
X61211605Y-61204050D01*
X61154429Y-61417432D01*
X61135177Y-61637499D01*
X61154429Y-61857567D01*
X61211605Y-62070950D01*
X61279827Y-62217251D01*
X61304966Y-62271162D01*
X61391240Y-62394374D01*
X61431674Y-62452120D01*
X61587879Y-62608325D01*
X61588463Y-62608734D01*
X61589710Y-62610156D01*
X61597098Y-62617544D01*
X61596613Y-62618028D01*
X61635165Y-62661987D01*
X61652000Y-62730788D01*
X61652000Y-68176552D01*
X61633774Y-68247960D01*
X61583556Y-68301898D01*
X61513630Y-68325172D01*
X61441104Y-68312088D01*
X61383720Y-68265845D01*
X61319690Y-68180312D01*
X61204588Y-68094147D01*
X61069873Y-68043901D01*
X61010331Y-68037500D01*
X60362500Y-68037500D01*
X60362500Y-69488500D01*
X60351158Y-69545520D01*
X60318859Y-69593859D01*
X60270520Y-69626158D01*
X60213500Y-69637500D01*
X58762500Y-69637500D01*
X58762500Y-70285331D01*
X58768901Y-70344873D01*
X58819147Y-70479588D01*
X58905311Y-70594688D01*
X59020411Y-70680852D01*
X59115522Y-70716327D01*
X59176058Y-70758358D01*
X59209047Y-70824260D01*
X59206417Y-70897911D01*
X59168811Y-70961291D01*
X59074006Y-71056096D01*
X58963819Y-71213462D01*
X58910566Y-71260164D01*
X58841765Y-71277000D01*
X57733664Y-71277000D01*
X57676644Y-71265658D01*
X57628305Y-71233359D01*
X56634884Y-70239938D01*
X56621159Y-70222806D01*
X56566961Y-70171911D01*
X56563600Y-70168654D01*
X56543535Y-70148589D01*
X56540985Y-70146611D01*
X56530314Y-70137497D01*
X56497892Y-70107051D01*
X56481021Y-70097776D01*
X56461482Y-70084941D01*
X56446264Y-70073137D01*
X56405452Y-70055476D01*
X56392847Y-70049302D01*
X56386375Y-70045744D01*
X56353868Y-70027873D01*
X56353865Y-70027872D01*
X56335209Y-70023082D01*
X56313091Y-70015509D01*
X56295425Y-70007864D01*
X56251508Y-70000908D01*
X56237767Y-69998062D01*
X56194680Y-69987000D01*
X56194677Y-69987000D01*
X56175421Y-69987000D01*
X56152111Y-69985165D01*
X56142948Y-69983713D01*
X56133096Y-69982153D01*
X56133095Y-69982153D01*
X56101233Y-69985165D01*
X56088814Y-69986339D01*
X56074792Y-69987000D01*
X55998764Y-69987000D01*
X55929896Y-69970129D01*
X55876623Y-69923338D01*
X55851009Y-69857221D01*
X55858855Y-69786752D01*
X55898383Y-69727888D01*
X55918510Y-69709538D01*
X55966372Y-69665907D01*
X56094866Y-69495755D01*
X56189905Y-69304889D01*
X56237532Y-69137500D01*
X58762500Y-69137500D01*
X59862500Y-69137500D01*
X59862500Y-68037500D01*
X59214669Y-68037500D01*
X59155126Y-68043901D01*
X59020411Y-68094147D01*
X58905311Y-68180311D01*
X58819147Y-68295411D01*
X58768901Y-68430126D01*
X58762500Y-68489669D01*
X58762500Y-69137500D01*
X56237532Y-69137500D01*
X56248256Y-69099810D01*
X56267929Y-68887500D01*
X56248256Y-68675190D01*
X56189905Y-68470111D01*
X56158454Y-68406949D01*
X56094866Y-68279245D01*
X55966370Y-68109090D01*
X55898359Y-68047090D01*
X55863138Y-67998731D01*
X55849779Y-67940417D01*
X55860433Y-67881548D01*
X55862500Y-67878416D01*
X55862500Y-67137500D01*
X56362500Y-67137500D01*
X56362500Y-67862499D01*
X56411642Y-67862499D01*
X56512653Y-67852180D01*
X56676302Y-67797953D01*
X56823036Y-67707445D01*
X56944945Y-67585536D01*
X57035453Y-67438802D01*
X57089681Y-67275150D01*
X57100000Y-67174151D01*
X57100000Y-67137500D01*
X56362500Y-67137500D01*
X55862500Y-67137500D01*
X55862500Y-65912501D01*
X55813358Y-65912501D01*
X55712345Y-65922820D01*
X55613340Y-65955626D01*
X55547741Y-65962007D01*
X55485808Y-65939464D01*
X55459361Y-65912500D01*
X56362500Y-65912500D01*
X56362500Y-66637500D01*
X57099999Y-66637500D01*
X57099999Y-66600858D01*
X57089680Y-66499846D01*
X57035453Y-66336197D01*
X56944945Y-66189463D01*
X56823036Y-66067554D01*
X56676302Y-65977046D01*
X56512650Y-65922818D01*
X56411651Y-65912500D01*
X56362500Y-65912500D01*
X55459361Y-65912500D01*
X55439657Y-65892410D01*
X55418321Y-65830051D01*
X55425972Y-65764588D01*
X55461113Y-65708832D01*
X57720063Y-63449881D01*
X57737187Y-63436164D01*
X57740434Y-63432705D01*
X57740440Y-63432702D01*
X57788152Y-63381892D01*
X57791284Y-63378660D01*
X57811411Y-63358535D01*
X57813392Y-63355980D01*
X57822497Y-63345318D01*
X57852948Y-63312893D01*
X57862222Y-63296021D01*
X57875063Y-63276474D01*
X57886862Y-63261264D01*
X57892150Y-63249043D01*
X57904525Y-63220443D01*
X57910689Y-63207860D01*
X57932127Y-63168868D01*
X57936915Y-63150216D01*
X57944490Y-63128092D01*
X57952135Y-63110426D01*
X57959091Y-63066501D01*
X57961938Y-63052759D01*
X57973000Y-63009678D01*
X57973000Y-62990420D01*
X57974834Y-62967113D01*
X57975982Y-62959862D01*
X57977846Y-62948095D01*
X57973661Y-62903822D01*
X57973000Y-62889801D01*
X57973000Y-62800809D01*
X57989835Y-62732009D01*
X58036537Y-62678755D01*
X58074678Y-62652048D01*
X58137120Y-62608326D01*
X58293326Y-62452120D01*
X58420034Y-62271162D01*
X58513394Y-62070950D01*
X58570570Y-61857568D01*
X58589823Y-61637500D01*
X58570570Y-61417432D01*
X58513394Y-61204050D01*
X58420034Y-61003839D01*
X58371859Y-60935038D01*
X58293327Y-60822881D01*
X58137120Y-60666674D01*
X58100358Y-60640933D01*
X57956162Y-60539966D01*
X57956158Y-60539964D01*
X57755950Y-60446605D01*
X57542567Y-60389429D01*
X57322500Y-60370177D01*
X57102432Y-60389429D01*
X56889050Y-60446605D01*
X56688841Y-60539964D01*
X56544641Y-60640933D01*
X56477336Y-60666768D01*
X56405781Y-60657981D01*
X56346726Y-60616630D01*
X56313998Y-60552395D01*
X56315255Y-60480317D01*
X56348707Y-60355477D01*
X56367777Y-60137500D01*
X56348707Y-59919523D01*
X56296478Y-59724602D01*
X56292075Y-59708169D01*
X56199602Y-59509863D01*
X56199602Y-59509862D01*
X56074098Y-59330623D01*
X55919377Y-59175902D01*
X55919374Y-59175899D01*
X55740142Y-59050399D01*
X55541830Y-58957925D01*
X55330476Y-58901292D01*
X55112500Y-58882223D01*
X54894523Y-58901292D01*
X54683169Y-58957924D01*
X54484863Y-59050397D01*
X54305622Y-59175902D01*
X54150902Y-59330622D01*
X54025397Y-59509863D01*
X53932924Y-59708169D01*
X53876292Y-59919523D01*
X53857223Y-60137499D01*
X53876292Y-60355476D01*
X53932925Y-60566830D01*
X54025399Y-60765142D01*
X54144363Y-60935038D01*
X54150902Y-60944377D01*
X54305623Y-61099098D01*
X54305626Y-61099100D01*
X54314841Y-61108315D01*
X54312763Y-61110392D01*
X54345162Y-61147332D01*
X54362000Y-61216137D01*
X54362000Y-62898528D01*
X54345825Y-62966044D01*
X54300813Y-63018902D01*
X54236737Y-63045625D01*
X54167506Y-63040413D01*
X54108153Y-63004396D01*
X54071563Y-62945395D01*
X54022953Y-62798697D01*
X53932445Y-62651963D01*
X53810536Y-62530054D01*
X53663802Y-62439546D01*
X53500150Y-62385318D01*
X53399151Y-62375000D01*
X53362500Y-62375000D01*
X53362500Y-63513500D01*
X53351158Y-63570520D01*
X53318859Y-63618859D01*
X53270520Y-63651158D01*
X53213500Y-63662500D01*
X52137501Y-63662500D01*
X52137501Y-63761642D01*
X52147819Y-63862653D01*
X52202046Y-64026302D01*
X52301698Y-64187860D01*
X52300098Y-64188846D01*
X52327369Y-64236085D01*
X52327369Y-64313207D01*
X52299826Y-64360915D01*
X52301303Y-64361826D01*
X52267753Y-64416220D01*
X52213552Y-64468107D01*
X52140936Y-64487000D01*
X51725220Y-64487000D01*
X51107177Y-64487000D01*
X50443664Y-64487000D01*
X50386644Y-64475658D01*
X50338305Y-64443359D01*
X50306641Y-64411695D01*
X50274342Y-64363356D01*
X50263000Y-64306336D01*
X50263000Y-63162500D01*
X52137500Y-63162500D01*
X52862500Y-63162500D01*
X52862500Y-62375001D01*
X52825858Y-62375001D01*
X52724846Y-62385319D01*
X52561197Y-62439546D01*
X52414463Y-62530054D01*
X52292554Y-62651963D01*
X52202046Y-62798697D01*
X52147818Y-62962349D01*
X52137500Y-63063349D01*
X52137500Y-63162500D01*
X50263000Y-63162500D01*
X50263000Y-63024777D01*
X50248187Y-62912265D01*
X50238882Y-62889801D01*
X50190198Y-62772267D01*
X50122195Y-62683644D01*
X50097951Y-62652048D01*
X49977733Y-62559802D01*
X49837734Y-62501812D01*
X49725223Y-62487000D01*
X49725220Y-62487000D01*
X49499780Y-62487000D01*
X49499777Y-62487000D01*
X49381948Y-62502512D01*
X49343051Y-62502512D01*
X49265584Y-62492313D01*
X49203881Y-62469550D01*
X49157989Y-62422440D01*
X49136849Y-62360163D01*
X49144579Y-62294851D01*
X49179672Y-62239231D01*
X54085063Y-57333840D01*
X54102187Y-57320123D01*
X54105434Y-57316664D01*
X54105440Y-57316661D01*
X54153152Y-57265851D01*
X54156284Y-57262619D01*
X54176411Y-57242494D01*
X54178392Y-57239939D01*
X54187497Y-57229277D01*
X54217948Y-57196852D01*
X54227222Y-57179980D01*
X54240063Y-57160433D01*
X54251862Y-57145223D01*
X54269522Y-57104410D01*
X54275689Y-57091819D01*
X54297127Y-57052827D01*
X54301915Y-57034175D01*
X54309490Y-57012051D01*
X54317135Y-56994385D01*
X54324090Y-56950469D01*
X54326938Y-56936718D01*
X54338000Y-56893637D01*
X54338000Y-56874379D01*
X54339834Y-56851072D01*
X54340332Y-56847921D01*
X54342846Y-56832054D01*
X54338661Y-56787781D01*
X54338000Y-56773760D01*
X54338000Y-56324484D01*
X54356892Y-56251869D01*
X54408776Y-56197669D01*
X54473350Y-56157840D01*
X54473351Y-56157838D01*
X54488172Y-56148697D01*
X54488325Y-56148945D01*
X54518327Y-56128897D01*
X54575349Y-56117553D01*
X54632371Y-56128894D01*
X54661929Y-56148643D01*
X54662140Y-56148302D01*
X54823697Y-56247953D01*
X54987349Y-56302181D01*
X55088349Y-56312500D01*
X55187500Y-56312500D01*
X55187500Y-55587500D01*
X55687500Y-55587500D01*
X55687500Y-56312499D01*
X55786642Y-56312499D01*
X55887653Y-56302180D01*
X56051302Y-56247953D01*
X56198036Y-56157445D01*
X56319945Y-56035536D01*
X56410453Y-55888802D01*
X56464681Y-55725150D01*
X56475000Y-55624151D01*
X56475000Y-55587500D01*
X55687500Y-55587500D01*
X55187500Y-55587500D01*
X55187500Y-54362501D01*
X55088358Y-54362501D01*
X54987346Y-54372819D01*
X54823697Y-54427046D01*
X54662140Y-54526697D01*
X54661153Y-54525097D01*
X54613911Y-54552369D01*
X54536786Y-54552367D01*
X54489084Y-54524826D01*
X54488174Y-54526303D01*
X54436898Y-54494676D01*
X54408779Y-54477332D01*
X54356893Y-54423132D01*
X54341118Y-54362500D01*
X55687500Y-54362500D01*
X55687500Y-55087500D01*
X56474999Y-55087500D01*
X56474999Y-55050858D01*
X56464680Y-54949846D01*
X56410453Y-54786197D01*
X56319945Y-54639463D01*
X56198036Y-54517554D01*
X56051302Y-54427046D01*
X55887650Y-54372818D01*
X55786651Y-54362500D01*
X55687500Y-54362500D01*
X54341118Y-54362500D01*
X54338000Y-54350516D01*
X54338000Y-53918664D01*
X54349342Y-53861644D01*
X54381641Y-53813306D01*
X54595282Y-53599663D01*
X54653774Y-53563584D01*
X54722236Y-53557594D01*
X54786106Y-53582968D01*
X54809861Y-53599602D01*
X55008170Y-53692075D01*
X55219523Y-53748707D01*
X55437500Y-53767777D01*
X55655477Y-53748707D01*
X55866830Y-53692075D01*
X56065139Y-53599602D01*
X56244377Y-53474098D01*
X56399098Y-53319377D01*
X56481211Y-53202108D01*
X56524600Y-53140142D01*
X56524600Y-53140141D01*
X56524602Y-53140139D01*
X56617075Y-52941830D01*
X56673707Y-52730477D01*
X56692777Y-52512500D01*
X56692777Y-52512499D01*
X58607223Y-52512499D01*
X58626292Y-52730476D01*
X58682925Y-52941830D01*
X58775399Y-53140142D01*
X58900899Y-53319374D01*
X59055625Y-53474100D01*
X59234857Y-53599600D01*
X59234860Y-53599601D01*
X59234861Y-53599602D01*
X59433170Y-53692075D01*
X59644523Y-53748707D01*
X59862500Y-53767777D01*
X60080477Y-53748707D01*
X60291830Y-53692075D01*
X60490139Y-53599602D01*
X60669377Y-53474098D01*
X60824098Y-53319377D01*
X60906211Y-53202108D01*
X60949600Y-53140142D01*
X60949600Y-53140141D01*
X60949602Y-53140139D01*
X61042075Y-52941830D01*
X61098707Y-52730477D01*
X61117777Y-52512500D01*
X61098707Y-52294523D01*
X61054061Y-52127901D01*
X61042075Y-52083169D01*
X60974750Y-51938792D01*
X60949602Y-51884862D01*
X60824098Y-51705623D01*
X60669377Y-51550902D01*
X60669376Y-51550901D01*
X60669374Y-51550899D01*
X60490142Y-51425399D01*
X60291830Y-51332925D01*
X60080476Y-51276292D01*
X59862500Y-51257223D01*
X59644523Y-51276292D01*
X59433169Y-51332924D01*
X59234863Y-51425397D01*
X59055622Y-51550902D01*
X58900902Y-51705622D01*
X58775397Y-51884863D01*
X58682924Y-52083169D01*
X58626292Y-52294523D01*
X58607223Y-52512499D01*
X56692777Y-52512499D01*
X56673707Y-52294523D01*
X56629061Y-52127901D01*
X56617075Y-52083169D01*
X56549750Y-51938792D01*
X56524602Y-51884862D01*
X56399098Y-51705623D01*
X56244377Y-51550902D01*
X56244376Y-51550901D01*
X56244374Y-51550899D01*
X56065142Y-51425399D01*
X55866830Y-51332925D01*
X55655476Y-51276292D01*
X55437500Y-51257223D01*
X55219523Y-51276292D01*
X55008169Y-51332924D01*
X54809863Y-51425397D01*
X54630622Y-51550902D01*
X54475902Y-51705622D01*
X54350398Y-51884861D01*
X54256832Y-52085513D01*
X54227151Y-52127901D01*
X53289933Y-53065119D01*
X53272802Y-53078844D01*
X53221896Y-53133053D01*
X53218642Y-53136411D01*
X53198583Y-53156470D01*
X53196595Y-53159033D01*
X53187495Y-53169687D01*
X53157051Y-53202108D01*
X53147774Y-53218982D01*
X53134942Y-53238516D01*
X53123138Y-53253734D01*
X53105475Y-53294549D01*
X53099303Y-53307149D01*
X53077871Y-53346135D01*
X53073080Y-53364794D01*
X53065511Y-53386902D01*
X53057864Y-53404573D01*
X53050908Y-53448493D01*
X53048062Y-53462235D01*
X53037000Y-53505321D01*
X53037000Y-53524579D01*
X53035165Y-53547888D01*
X53032153Y-53566905D01*
X53035244Y-53599600D01*
X53036339Y-53611186D01*
X53037000Y-53625208D01*
X53037000Y-54381356D01*
X53018107Y-54453972D01*
X52966220Y-54508173D01*
X52951650Y-54517159D01*
X52842359Y-54626451D01*
X52783044Y-54662799D01*
X52713691Y-54668258D01*
X52649420Y-54641636D01*
X52604240Y-54588737D01*
X52588000Y-54521092D01*
X52588000Y-50170197D01*
X52607531Y-50096449D01*
X52661004Y-50042035D01*
X52734400Y-50021220D01*
X52808477Y-50039461D01*
X52863817Y-50091976D01*
X52867556Y-50098038D01*
X52989463Y-50219945D01*
X53136197Y-50310453D01*
X53299849Y-50364681D01*
X53400849Y-50375000D01*
X53437500Y-50375000D01*
X53437500Y-49587500D01*
X53937500Y-49587500D01*
X53937500Y-50374999D01*
X53974142Y-50374999D01*
X54075153Y-50364680D01*
X54238802Y-50310453D01*
X54385536Y-50219945D01*
X54507445Y-50098036D01*
X54597953Y-49951302D01*
X54652181Y-49787650D01*
X54662500Y-49686651D01*
X54662500Y-49587500D01*
X53937500Y-49587500D01*
X53437500Y-49587500D01*
X53437500Y-49236500D01*
X53448842Y-49179480D01*
X53481141Y-49131141D01*
X53529480Y-49098842D01*
X53586500Y-49087500D01*
X54662499Y-49087500D01*
X54662499Y-48988358D01*
X54652180Y-48887346D01*
X54597952Y-48723696D01*
X54571371Y-48680602D01*
X54549529Y-48612486D01*
X54561950Y-48542040D01*
X54605770Y-48485502D01*
X54670890Y-48455901D01*
X54742301Y-48460060D01*
X54803545Y-48497020D01*
X54880625Y-48574100D01*
X55059857Y-48699600D01*
X55059860Y-48699601D01*
X55059861Y-48699602D01*
X55258170Y-48792075D01*
X55469523Y-48848707D01*
X55687500Y-48867777D01*
X55905477Y-48848707D01*
X56116830Y-48792075D01*
X56315139Y-48699602D01*
X56494377Y-48574098D01*
X56649098Y-48419377D01*
X56774602Y-48240139D01*
X56867075Y-48041830D01*
X56923707Y-47830477D01*
X56942777Y-47612500D01*
X58607223Y-47612500D01*
X58608891Y-47631569D01*
X58626292Y-47830476D01*
X58682925Y-48041830D01*
X58775399Y-48240142D01*
X58900899Y-48419374D01*
X59055625Y-48574100D01*
X59234857Y-48699600D01*
X59234860Y-48699601D01*
X59234861Y-48699602D01*
X59433170Y-48792075D01*
X59644523Y-48848707D01*
X59862500Y-48867777D01*
X60080477Y-48848707D01*
X60291830Y-48792075D01*
X60490139Y-48699602D01*
X60669377Y-48574098D01*
X60824098Y-48419377D01*
X60949602Y-48240139D01*
X61042075Y-48041830D01*
X61098707Y-47830477D01*
X61117777Y-47612500D01*
X61098707Y-47394523D01*
X61087287Y-47351902D01*
X61042075Y-47183169D01*
X60977226Y-47044102D01*
X60949602Y-46984862D01*
X60824098Y-46805623D01*
X60669377Y-46650902D01*
X60669374Y-46650899D01*
X60490142Y-46525399D01*
X60291830Y-46432925D01*
X60080476Y-46376292D01*
X59862500Y-46357223D01*
X59644523Y-46376292D01*
X59433169Y-46432924D01*
X59234863Y-46525397D01*
X59055622Y-46650902D01*
X58900902Y-46805622D01*
X58775397Y-46984863D01*
X58682924Y-47183169D01*
X58626292Y-47394523D01*
X58608958Y-47592666D01*
X58607223Y-47612500D01*
X56942777Y-47612500D01*
X56923707Y-47394523D01*
X56912287Y-47351902D01*
X56867075Y-47183169D01*
X56802226Y-47044102D01*
X56774602Y-46984862D01*
X56649098Y-46805623D01*
X56494377Y-46650902D01*
X56494374Y-46650899D01*
X56315142Y-46525399D01*
X56116830Y-46432925D01*
X55905476Y-46376292D01*
X55687500Y-46357223D01*
X55469523Y-46376292D01*
X55258169Y-46432924D01*
X55059863Y-46525397D01*
X54880622Y-46650902D01*
X54725898Y-46805626D01*
X54718988Y-46815495D01*
X54671434Y-46859068D01*
X54609921Y-46878462D01*
X54545975Y-46870043D01*
X54491578Y-46835388D01*
X54385850Y-46729660D01*
X54239015Y-46639091D01*
X54115432Y-46598140D01*
X54075253Y-46584826D01*
X54075251Y-46584825D01*
X54075249Y-46584825D01*
X53974181Y-46574500D01*
X53400827Y-46574500D01*
X53299745Y-46584826D01*
X53135984Y-46639091D01*
X52989149Y-46729660D01*
X52867158Y-46851652D01*
X52828515Y-46914301D01*
X52797407Y-46950276D01*
X52756549Y-46974615D01*
X52708089Y-46993801D01*
X52694811Y-46998347D01*
X52652100Y-47010755D01*
X52635520Y-47020561D01*
X52614532Y-47030843D01*
X52596629Y-47037932D01*
X52596628Y-47037932D01*
X52596627Y-47037933D01*
X52560649Y-47064071D01*
X52548923Y-47071774D01*
X52510633Y-47094419D01*
X52497012Y-47108040D01*
X52479242Y-47123217D01*
X52463663Y-47134536D01*
X52435314Y-47168803D01*
X52425869Y-47179183D01*
X51539933Y-48065119D01*
X51522802Y-48078844D01*
X51471896Y-48133053D01*
X51468642Y-48136411D01*
X51448583Y-48156470D01*
X51446595Y-48159033D01*
X51437495Y-48169687D01*
X51407051Y-48202108D01*
X51397774Y-48218982D01*
X51384942Y-48238516D01*
X51373138Y-48253734D01*
X51355475Y-48294549D01*
X51349303Y-48307149D01*
X51327871Y-48346135D01*
X51323080Y-48364794D01*
X51315511Y-48386902D01*
X51307864Y-48404573D01*
X51300908Y-48448493D01*
X51298062Y-48462235D01*
X51287000Y-48505321D01*
X51287000Y-48524579D01*
X51285165Y-48547888D01*
X51282153Y-48566905D01*
X51284634Y-48593149D01*
X51286339Y-48611186D01*
X51287000Y-48625208D01*
X51287000Y-56506336D01*
X51275658Y-56563356D01*
X51243359Y-56611695D01*
X46956092Y-60898960D01*
X46897600Y-60935038D01*
X46829138Y-60941028D01*
X46765270Y-60915655D01*
X46719583Y-60864316D01*
X46701796Y-60797934D01*
X46715693Y-60730631D01*
X46745518Y-60666672D01*
X46792075Y-60566830D01*
X46848707Y-60355477D01*
X46867777Y-60137500D01*
X46848707Y-59919523D01*
X46796478Y-59724602D01*
X46792075Y-59708169D01*
X46699602Y-59509863D01*
X46699602Y-59509862D01*
X46574098Y-59330623D01*
X46562068Y-59318593D01*
X46523505Y-59251799D01*
X46523505Y-59174671D01*
X46562069Y-59107876D01*
X48165883Y-57504062D01*
X49785063Y-55884881D01*
X49802187Y-55871164D01*
X49805434Y-55867705D01*
X49805440Y-55867702D01*
X49853152Y-55816892D01*
X49856284Y-55813660D01*
X49876411Y-55793535D01*
X49878392Y-55790980D01*
X49887497Y-55780318D01*
X49917948Y-55747893D01*
X49927222Y-55731021D01*
X49940063Y-55711474D01*
X49951862Y-55696264D01*
X49960673Y-55675902D01*
X49969525Y-55655443D01*
X49975689Y-55642860D01*
X49997127Y-55603868D01*
X50001915Y-55585216D01*
X50009490Y-55563092D01*
X50009751Y-55562488D01*
X50017135Y-55545427D01*
X50024091Y-55501501D01*
X50026938Y-55487759D01*
X50038000Y-55444678D01*
X50038000Y-55425420D01*
X50039834Y-55402113D01*
X50040332Y-55398962D01*
X50042846Y-55383095D01*
X50038661Y-55338822D01*
X50038000Y-55324801D01*
X50038000Y-54386445D01*
X50054836Y-54317644D01*
X50101538Y-54264391D01*
X50167552Y-54238720D01*
X50294131Y-54222056D01*
X50440085Y-54161600D01*
X50565424Y-54065424D01*
X50661599Y-53940087D01*
X50722056Y-53794130D01*
X50737500Y-53676826D01*
X50737500Y-53200000D01*
X50237000Y-53200000D01*
X50179980Y-53188658D01*
X50131641Y-53156359D01*
X50099342Y-53108020D01*
X50088000Y-53051000D01*
X50088000Y-52949000D01*
X50099342Y-52891980D01*
X50131641Y-52843641D01*
X50179980Y-52811342D01*
X50237000Y-52800000D01*
X50737499Y-52800000D01*
X50737499Y-52323175D01*
X50722056Y-52205869D01*
X50661600Y-52059914D01*
X50565424Y-51934575D01*
X50440087Y-51838400D01*
X50294130Y-51777943D01*
X50237499Y-51770487D01*
X50237500Y-51770488D01*
X50237500Y-51914550D01*
X50219444Y-51985647D01*
X50169651Y-52039512D01*
X50100190Y-52063091D01*
X50027896Y-52050668D01*
X49970290Y-52005255D01*
X49964020Y-51997084D01*
X49915782Y-51934218D01*
X49895792Y-51918879D01*
X49852866Y-51866571D01*
X49837500Y-51800671D01*
X49837500Y-51770489D01*
X49837499Y-51770488D01*
X49780868Y-51777943D01*
X49770169Y-51782375D01*
X49713152Y-51793715D01*
X49656135Y-51782374D01*
X49655481Y-51782103D01*
X49644262Y-51777456D01*
X49644261Y-51777455D01*
X49644259Y-51777455D01*
X49526863Y-51762000D01*
X49248136Y-51762000D01*
X49130737Y-51777455D01*
X49118860Y-51782375D01*
X49061843Y-51793715D01*
X49004827Y-51782374D01*
X48994130Y-51777943D01*
X48937500Y-51770488D01*
X48937500Y-51800671D01*
X48922134Y-51866571D01*
X48879207Y-51918880D01*
X48859217Y-51934219D01*
X48855708Y-51938792D01*
X48803400Y-51981719D01*
X48737500Y-51997084D01*
X48671600Y-51981719D01*
X48619292Y-51938792D01*
X48618413Y-51937647D01*
X48615782Y-51934218D01*
X48595792Y-51918879D01*
X48552866Y-51866571D01*
X48537500Y-51800671D01*
X48537500Y-51770489D01*
X48537499Y-51770488D01*
X48480868Y-51777943D01*
X48470169Y-51782375D01*
X48413152Y-51793715D01*
X48356135Y-51782374D01*
X48355481Y-51782103D01*
X48344262Y-51777456D01*
X48344261Y-51777455D01*
X48344259Y-51777455D01*
X48226863Y-51762000D01*
X47948136Y-51762000D01*
X47830735Y-51777455D01*
X47819516Y-51782103D01*
X47762499Y-51793444D01*
X47705482Y-51782103D01*
X47694261Y-51777455D01*
X47576863Y-51762000D01*
X47298136Y-51762000D01*
X47180735Y-51777455D01*
X47169516Y-51782103D01*
X47112499Y-51793444D01*
X47055482Y-51782103D01*
X47044261Y-51777455D01*
X46926863Y-51762000D01*
X46648136Y-51762000D01*
X46530735Y-51777455D01*
X46519516Y-51782103D01*
X46462499Y-51793444D01*
X46405482Y-51782103D01*
X46394261Y-51777455D01*
X46276863Y-51762000D01*
X45998136Y-51762000D01*
X45880735Y-51777455D01*
X45869516Y-51782103D01*
X45812499Y-51793444D01*
X45755482Y-51782103D01*
X45744261Y-51777455D01*
X45626863Y-51762000D01*
X45348136Y-51762000D01*
X45230737Y-51777455D01*
X45218860Y-51782375D01*
X45161843Y-51793715D01*
X45104827Y-51782374D01*
X45094130Y-51777943D01*
X45037499Y-51770487D01*
X45037500Y-51770488D01*
X45037500Y-51800671D01*
X45022134Y-51866571D01*
X44979207Y-51918880D01*
X44959217Y-51934218D01*
X44922769Y-51981719D01*
X44910980Y-51997084D01*
X44904710Y-52005255D01*
X44847104Y-52050668D01*
X44774810Y-52063091D01*
X44705349Y-52039512D01*
X44655556Y-51985647D01*
X44637500Y-51914550D01*
X44637500Y-51770489D01*
X44637499Y-51770488D01*
X44580868Y-51777943D01*
X44569515Y-51782646D01*
X44512499Y-51793986D01*
X44455483Y-51782645D01*
X44444132Y-51777943D01*
X44387500Y-51770488D01*
X44387500Y-52800000D01*
X44638000Y-52800000D01*
X44695020Y-52811342D01*
X44743359Y-52843641D01*
X44775658Y-52891980D01*
X44787000Y-52949000D01*
X44787000Y-53051000D01*
X44775658Y-53108020D01*
X44743359Y-53156359D01*
X44695020Y-53188658D01*
X44638000Y-53200000D01*
X44136500Y-53200000D01*
X44079480Y-53188658D01*
X44031141Y-53156359D01*
X43998842Y-53108020D01*
X43987500Y-53051000D01*
X43987500Y-51770489D01*
X43987499Y-51770488D01*
X43931448Y-51777868D01*
X43868747Y-51772727D01*
X43813757Y-51742167D01*
X43776281Y-51691636D01*
X43763000Y-51630143D01*
X43763000Y-51218664D01*
X43774342Y-51161644D01*
X43806641Y-51113305D01*
X43995774Y-50924172D01*
X44585063Y-50334881D01*
X44602187Y-50321164D01*
X44605434Y-50317705D01*
X44605440Y-50317702D01*
X44653152Y-50266892D01*
X44656284Y-50263660D01*
X44676412Y-50243534D01*
X44678391Y-50240982D01*
X44687500Y-50230316D01*
X44717948Y-50197893D01*
X44727222Y-50181020D01*
X44740058Y-50161480D01*
X44751863Y-50146263D01*
X44769532Y-50105429D01*
X44775692Y-50092855D01*
X44797127Y-50053868D01*
X44801914Y-50035218D01*
X44809490Y-50013092D01*
X44817136Y-49995425D01*
X44824093Y-49951496D01*
X44826938Y-49937756D01*
X44838000Y-49894677D01*
X44838000Y-49875421D01*
X44839835Y-49852110D01*
X44842847Y-49833095D01*
X44838661Y-49788811D01*
X44838000Y-49774790D01*
X44838000Y-48963074D01*
X44840639Y-48935154D01*
X44841876Y-48928669D01*
X44838294Y-48871736D01*
X44838000Y-48862380D01*
X44838000Y-48661950D01*
X44854836Y-48593149D01*
X44901538Y-48539896D01*
X44967553Y-48514225D01*
X45063195Y-48501633D01*
X45094262Y-48497544D01*
X45105476Y-48492898D01*
X45162498Y-48481555D01*
X45219521Y-48492898D01*
X45225417Y-48495340D01*
X45230738Y-48497544D01*
X45348139Y-48513000D01*
X45626860Y-48512999D01*
X45626863Y-48512999D01*
X45697301Y-48503726D01*
X45744262Y-48497544D01*
X45755476Y-48492898D01*
X45812498Y-48481555D01*
X45869521Y-48492898D01*
X45875417Y-48495340D01*
X45880738Y-48497544D01*
X45998139Y-48513000D01*
X46276860Y-48512999D01*
X46276863Y-48512999D01*
X46347301Y-48503726D01*
X46394262Y-48497544D01*
X46405476Y-48492898D01*
X46462498Y-48481555D01*
X46519521Y-48492898D01*
X46525417Y-48495340D01*
X46530738Y-48497544D01*
X46648139Y-48513000D01*
X46926860Y-48512999D01*
X46926863Y-48512999D01*
X46997301Y-48503726D01*
X47044262Y-48497544D01*
X47055476Y-48492898D01*
X47112498Y-48481555D01*
X47169521Y-48492898D01*
X47175417Y-48495340D01*
X47180738Y-48497544D01*
X47298139Y-48513000D01*
X47576860Y-48512999D01*
X47576863Y-48512999D01*
X47647301Y-48503726D01*
X47694262Y-48497544D01*
X47705476Y-48492898D01*
X47762498Y-48481555D01*
X47819521Y-48492898D01*
X47825417Y-48495340D01*
X47830738Y-48497544D01*
X47948139Y-48513000D01*
X48226860Y-48512999D01*
X48226863Y-48512999D01*
X48297301Y-48503726D01*
X48344262Y-48497544D01*
X48355476Y-48492898D01*
X48412498Y-48481555D01*
X48469521Y-48492898D01*
X48475417Y-48495340D01*
X48480738Y-48497544D01*
X48598139Y-48513000D01*
X48876860Y-48512999D01*
X48876863Y-48512999D01*
X48947301Y-48503726D01*
X48994262Y-48497544D01*
X49005476Y-48492898D01*
X49062498Y-48481555D01*
X49119521Y-48492898D01*
X49125417Y-48495340D01*
X49130738Y-48497544D01*
X49248139Y-48513000D01*
X49526860Y-48512999D01*
X49526863Y-48512999D01*
X49597301Y-48503726D01*
X49644262Y-48497544D01*
X49655476Y-48492898D01*
X49712498Y-48481555D01*
X49769521Y-48492898D01*
X49775417Y-48495340D01*
X49780738Y-48497544D01*
X49898139Y-48513000D01*
X50176860Y-48512999D01*
X50176863Y-48512999D01*
X50247301Y-48503726D01*
X50294262Y-48497544D01*
X50440341Y-48437036D01*
X50565782Y-48340782D01*
X50662036Y-48215341D01*
X50722544Y-48069262D01*
X50738000Y-47951861D01*
X50737999Y-46598140D01*
X50737999Y-46598139D01*
X50737999Y-46598136D01*
X50722544Y-46480739D01*
X50722544Y-46480738D01*
X50662036Y-46334659D01*
X50579965Y-46227701D01*
X50552433Y-46167979D01*
X50553294Y-46102217D01*
X50582382Y-46043231D01*
X50634031Y-46002515D01*
X50698177Y-45988000D01*
X50849235Y-45988000D01*
X50871060Y-45990409D01*
X50938009Y-45988304D01*
X50945349Y-45988073D01*
X50950030Y-45988000D01*
X50978422Y-45988000D01*
X50978425Y-45988000D01*
X50981626Y-45987595D01*
X50995624Y-45986494D01*
X51034791Y-45985262D01*
X51040069Y-45985097D01*
X51058560Y-45979724D01*
X51081440Y-45974985D01*
X51100558Y-45972571D01*
X51141911Y-45956197D01*
X51155195Y-45951650D01*
X51197892Y-45939246D01*
X51197892Y-45939245D01*
X51197898Y-45939244D01*
X51214479Y-45929436D01*
X51235461Y-45919158D01*
X51253371Y-45912068D01*
X51289358Y-45885921D01*
X51301077Y-45878224D01*
X51339365Y-45855581D01*
X51352984Y-45841960D01*
X51370765Y-45826776D01*
X51386337Y-45815463D01*
X51414691Y-45781187D01*
X51424119Y-45770825D01*
X52260062Y-44934882D01*
X52285589Y-44914434D01*
X52296344Y-44907610D01*
X52297037Y-44908703D01*
X52329624Y-44886731D01*
X52355137Y-44876848D01*
X52528541Y-44769481D01*
X52679264Y-44632079D01*
X52802173Y-44469321D01*
X52893082Y-44286750D01*
X52948897Y-44090583D01*
X52967715Y-43887500D01*
X52948897Y-43684417D01*
X52893082Y-43488250D01*
X52802173Y-43305679D01*
X52706250Y-43178656D01*
X52679264Y-43142920D01*
X52563257Y-43037167D01*
X52528295Y-42989372D01*
X52514711Y-42931734D01*
X52513074Y-42879637D01*
X52513000Y-42874957D01*
X52513000Y-42846578D01*
X52512597Y-42843390D01*
X52511495Y-42829385D01*
X52510098Y-42784931D01*
X52504725Y-42766438D01*
X52499983Y-42743538D01*
X52497571Y-42724443D01*
X52481200Y-42683094D01*
X52476653Y-42669813D01*
X52476075Y-42667823D01*
X52464245Y-42627102D01*
X52454439Y-42610521D01*
X52444155Y-42589528D01*
X52441032Y-42581641D01*
X52437068Y-42571629D01*
X52410927Y-42535650D01*
X52403225Y-42523925D01*
X52380581Y-42485635D01*
X52366963Y-42472017D01*
X52351777Y-42454236D01*
X52340462Y-42438661D01*
X52306201Y-42410319D01*
X52295817Y-42400871D01*
X51384884Y-41489938D01*
X51371159Y-41472806D01*
X51316961Y-41421911D01*
X51313600Y-41418654D01*
X51293535Y-41398589D01*
X51290985Y-41396611D01*
X51280314Y-41387497D01*
X51247892Y-41357051D01*
X51231021Y-41347776D01*
X51211482Y-41334941D01*
X51196264Y-41323137D01*
X51155452Y-41305476D01*
X51142847Y-41299302D01*
X51103868Y-41277873D01*
X51103865Y-41277872D01*
X51085209Y-41273082D01*
X51063091Y-41265509D01*
X51045425Y-41257864D01*
X51001508Y-41250908D01*
X50987767Y-41248062D01*
X50944680Y-41237000D01*
X50944677Y-41237000D01*
X50925421Y-41237000D01*
X50902111Y-41235165D01*
X50892948Y-41233713D01*
X50883096Y-41232153D01*
X50883095Y-41232153D01*
X50857316Y-41234590D01*
X50838814Y-41236339D01*
X50824792Y-41237000D01*
X40450764Y-41237000D01*
X40428938Y-41234590D01*
X40355670Y-41236893D01*
X40354649Y-41236926D01*
X40349969Y-41237000D01*
X40321567Y-41237000D01*
X40318350Y-41237406D01*
X40304376Y-41238505D01*
X40259929Y-41239902D01*
X40241434Y-41245275D01*
X40218555Y-41250013D01*
X40199445Y-41252428D01*
X40199442Y-41252428D01*
X40199442Y-41252429D01*
X40158081Y-41268804D01*
X40144811Y-41273347D01*
X40102100Y-41285755D01*
X40085520Y-41295561D01*
X40064532Y-41305843D01*
X40046629Y-41312932D01*
X40046628Y-41312932D01*
X40046627Y-41312933D01*
X40010649Y-41339071D01*
X39998923Y-41346774D01*
X39960633Y-41369419D01*
X39947012Y-41383040D01*
X39929242Y-41398217D01*
X39913663Y-41409536D01*
X39885314Y-41443803D01*
X39875869Y-41454183D01*
X39102433Y-42227619D01*
X39085302Y-42241344D01*
X39034396Y-42295553D01*
X39031142Y-42298911D01*
X39011083Y-42318970D01*
X39009095Y-42321533D01*
X38999995Y-42332187D01*
X38969551Y-42364608D01*
X38960274Y-42381482D01*
X38947442Y-42401016D01*
X38935638Y-42416234D01*
X38917975Y-42457049D01*
X38911803Y-42469649D01*
X38890371Y-42508635D01*
X38885580Y-42527294D01*
X38878011Y-42549402D01*
X38870364Y-42567073D01*
X38863408Y-42610993D01*
X38860562Y-42624735D01*
X38849500Y-42667821D01*
X38849500Y-42687079D01*
X38847665Y-42710390D01*
X38844653Y-42729403D01*
X38848839Y-42773686D01*
X38849500Y-42787708D01*
X38849500Y-43327645D01*
X38844219Y-43366962D01*
X38828751Y-43403492D01*
X38748256Y-43539602D01*
X38702402Y-43697430D01*
X38699500Y-43734310D01*
X38699500Y-44875500D01*
X38688158Y-44932520D01*
X38655859Y-44980859D01*
X38607520Y-45013158D01*
X38550500Y-45024500D01*
X38334306Y-45024500D01*
X38304806Y-45026821D01*
X38297430Y-45027402D01*
X38139602Y-45073256D01*
X37998134Y-45156919D01*
X37881919Y-45273134D01*
X37798256Y-45414602D01*
X37752402Y-45572430D01*
X37749500Y-45609310D01*
X37749500Y-46081336D01*
X37738158Y-46138356D01*
X37705859Y-46186695D01*
X36289933Y-47602619D01*
X36272802Y-47616344D01*
X36221896Y-47670553D01*
X36218642Y-47673911D01*
X36198583Y-47693970D01*
X36196595Y-47696533D01*
X36187495Y-47707187D01*
X36157051Y-47739608D01*
X36147774Y-47756482D01*
X36134942Y-47776016D01*
X36123138Y-47791234D01*
X36105475Y-47832049D01*
X36099303Y-47844649D01*
X36077871Y-47883635D01*
X36073080Y-47902294D01*
X36065511Y-47924402D01*
X36057864Y-47942073D01*
X36050908Y-47985993D01*
X36048062Y-47999735D01*
X36037000Y-48042821D01*
X36037000Y-48062079D01*
X36035165Y-48085390D01*
X36032153Y-48104403D01*
X36036339Y-48148686D01*
X36037000Y-48162708D01*
X36037000Y-66249235D01*
X36034590Y-66271060D01*
X36036926Y-66345348D01*
X36037000Y-66350030D01*
X36037000Y-66378434D01*
X36037406Y-66381651D01*
X36038505Y-66395625D01*
X36039902Y-66440069D01*
X36045274Y-66458561D01*
X36050014Y-66481447D01*
X36052429Y-66500560D01*
X36068800Y-66541910D01*
X36073346Y-66555186D01*
X36085756Y-66597900D01*
X36095556Y-66614470D01*
X36105842Y-66635466D01*
X36112930Y-66653369D01*
X36139069Y-66689347D01*
X36146773Y-66701075D01*
X36169418Y-66739364D01*
X36183034Y-66752980D01*
X36198218Y-66770759D01*
X36209534Y-66786334D01*
X36209536Y-66786335D01*
X36209537Y-66786337D01*
X36243803Y-66814684D01*
X36254186Y-66824132D01*
X37965115Y-68535061D01*
X37978843Y-68552195D01*
X37982297Y-68555438D01*
X37982298Y-68555440D01*
X38033054Y-68603103D01*
X38036383Y-68606329D01*
X38056465Y-68626411D01*
X38059023Y-68628395D01*
X38069678Y-68637495D01*
X38102107Y-68667948D01*
X38118991Y-68677230D01*
X38138508Y-68690050D01*
X38146603Y-68696329D01*
X38186957Y-68744337D01*
X38203982Y-68804703D01*
X38194657Y-68866726D01*
X38160635Y-68919417D01*
X36464933Y-70615119D01*
X36447802Y-70628844D01*
X36396896Y-70683053D01*
X36393642Y-70686411D01*
X36373583Y-70706470D01*
X36371595Y-70709033D01*
X36362495Y-70719687D01*
X36332051Y-70752108D01*
X36322774Y-70768982D01*
X36309942Y-70788516D01*
X36298138Y-70803734D01*
X36280475Y-70844549D01*
X36274303Y-70857149D01*
X36252871Y-70896135D01*
X36248080Y-70914794D01*
X36240511Y-70936902D01*
X36232864Y-70954573D01*
X36225908Y-70998493D01*
X36223062Y-71012235D01*
X36212000Y-71055321D01*
X36212000Y-71074579D01*
X36210165Y-71097890D01*
X36207153Y-71116903D01*
X36211339Y-71161186D01*
X36212000Y-71175208D01*
X36212000Y-75433490D01*
X36198040Y-75496460D01*
X36158775Y-75547631D01*
X36101563Y-75577413D01*
X36037125Y-75580226D01*
X35977536Y-75555543D01*
X35955910Y-75540400D01*
X35755778Y-75447078D01*
X35542481Y-75389924D01*
X35322500Y-75370679D01*
X35102518Y-75389924D01*
X34889221Y-75447077D01*
X34689092Y-75540399D01*
X34624311Y-75585758D01*
X35570694Y-76532141D01*
X35609258Y-76598936D01*
X35609258Y-76676064D01*
X35570694Y-76742859D01*
X34624311Y-77689241D01*
X32613000Y-77689241D01*
X32613000Y-76637500D01*
X34055679Y-76637500D01*
X34074924Y-76857481D01*
X34132078Y-77070778D01*
X34225400Y-77270911D01*
X34270757Y-77335686D01*
X34968946Y-76637500D01*
X34270758Y-75939312D01*
X34225399Y-76004092D01*
X34132077Y-76204221D01*
X34074924Y-76417518D01*
X34055679Y-76637500D01*
X32613000Y-76637500D01*
X32613000Y-39177500D01*
X41926841Y-39177500D01*
X41947436Y-39412907D01*
X42008597Y-39641163D01*
X42108465Y-39855330D01*
X42244005Y-40048901D01*
X42411099Y-40215995D01*
X42604670Y-40351535D01*
X42818837Y-40451403D01*
X43047092Y-40512563D01*
X43282500Y-40533159D01*
X43517908Y-40512563D01*
X43746163Y-40451403D01*
X43960330Y-40351535D01*
X44153901Y-40215995D01*
X44320995Y-40048901D01*
X44430445Y-39892589D01*
X44483700Y-39845887D01*
X44552500Y-39829052D01*
X44621300Y-39845887D01*
X44674554Y-39892589D01*
X44784005Y-40048901D01*
X44951099Y-40215995D01*
X45144670Y-40351535D01*
X45358837Y-40451403D01*
X45587092Y-40512563D01*
X45822500Y-40533159D01*
X46057908Y-40512563D01*
X46286163Y-40451403D01*
X46500330Y-40351535D01*
X46693901Y-40215995D01*
X46860995Y-40048901D01*
X46970445Y-39892589D01*
X47023700Y-39845887D01*
X47092500Y-39829052D01*
X47161300Y-39845887D01*
X47214554Y-39892589D01*
X47324005Y-40048901D01*
X47491099Y-40215995D01*
X47684670Y-40351535D01*
X47898837Y-40451403D01*
X48127092Y-40512563D01*
X48362500Y-40533159D01*
X48597908Y-40512563D01*
X48826163Y-40451403D01*
X49040330Y-40351535D01*
X49233901Y-40215995D01*
X49400995Y-40048901D01*
X49510445Y-39892589D01*
X49563700Y-39845887D01*
X49632500Y-39829052D01*
X49701300Y-39845887D01*
X49754554Y-39892589D01*
X49864005Y-40048901D01*
X50031099Y-40215995D01*
X50224670Y-40351535D01*
X50438837Y-40451403D01*
X50667092Y-40512563D01*
X50902500Y-40533159D01*
X51137908Y-40512563D01*
X51366163Y-40451403D01*
X51580330Y-40351535D01*
X51773901Y-40215995D01*
X51940995Y-40048901D01*
X52050445Y-39892589D01*
X52103700Y-39845887D01*
X52172500Y-39829052D01*
X52241300Y-39845887D01*
X52294554Y-39892589D01*
X52404005Y-40048901D01*
X52571099Y-40215995D01*
X52764670Y-40351535D01*
X52978837Y-40451403D01*
X53207092Y-40512563D01*
X53442500Y-40533159D01*
X53677908Y-40512563D01*
X53906163Y-40451403D01*
X54120330Y-40351535D01*
X54313901Y-40215995D01*
X54480995Y-40048901D01*
X54616535Y-39855330D01*
X54716403Y-39641163D01*
X54777563Y-39412908D01*
X54798159Y-39177500D01*
X54777563Y-38942092D01*
X54716403Y-38713837D01*
X54616535Y-38499671D01*
X54480995Y-38306099D01*
X54331411Y-38156515D01*
X54296029Y-38100075D01*
X54288778Y-38033857D01*
X54311105Y-37971097D01*
X54358550Y-37924339D01*
X54361831Y-37922314D01*
X54361834Y-37922314D01*
X54511156Y-37830212D01*
X54635212Y-37706156D01*
X54727314Y-37556834D01*
X54782499Y-37390297D01*
X54793000Y-37287509D01*
X54792999Y-35987492D01*
X54782499Y-35884703D01*
X54727314Y-35718166D01*
X54677559Y-35637500D01*
X59857051Y-35637500D01*
X59876817Y-35888651D01*
X59935626Y-36133610D01*
X60032033Y-36366358D01*
X60163662Y-36581156D01*
X60163664Y-36581159D01*
X60327276Y-36772724D01*
X60518841Y-36936336D01*
X60733641Y-37067966D01*
X60966389Y-37164373D01*
X61211352Y-37223183D01*
X61462500Y-37242949D01*
X61713648Y-37223183D01*
X61958611Y-37164373D01*
X62191359Y-37067966D01*
X62406159Y-36936336D01*
X62597724Y-36772724D01*
X62761336Y-36581159D01*
X62892966Y-36366359D01*
X62989373Y-36133611D01*
X63048183Y-35888648D01*
X63067949Y-35637500D01*
X63048183Y-35386352D01*
X62989373Y-35141389D01*
X62892966Y-34908641D01*
X62761336Y-34693841D01*
X62597724Y-34502276D01*
X62406159Y-34338664D01*
X62406156Y-34338662D01*
X62191358Y-34207033D01*
X61958610Y-34110626D01*
X61713651Y-34051817D01*
X61462500Y-34032051D01*
X61211348Y-34051817D01*
X60966389Y-34110626D01*
X60733641Y-34207033D01*
X60518843Y-34338662D01*
X60327276Y-34502276D01*
X60163662Y-34693843D01*
X60032033Y-34908641D01*
X59935626Y-35141389D01*
X59876817Y-35386348D01*
X59857051Y-35637500D01*
X54677559Y-35637500D01*
X54635212Y-35568844D01*
X54511156Y-35444788D01*
X54361834Y-35352686D01*
X54195297Y-35297501D01*
X54195295Y-35297500D01*
X54195293Y-35297500D01*
X54092513Y-35287000D01*
X52792495Y-35287000D01*
X52689701Y-35297501D01*
X52523166Y-35352686D01*
X52373843Y-35444788D01*
X52249788Y-35568843D01*
X52157686Y-35718165D01*
X52139924Y-35771768D01*
X52105869Y-35828195D01*
X52050804Y-35864412D01*
X52025712Y-35867839D01*
X51099694Y-36793859D01*
X51051355Y-36826158D01*
X50994335Y-36837500D01*
X50810665Y-36837500D01*
X50753645Y-36826158D01*
X50705306Y-36793859D01*
X49787573Y-35876126D01*
X49787572Y-35876126D01*
X49754553Y-35923283D01*
X49701300Y-35969985D01*
X49632499Y-35986821D01*
X49563698Y-35969985D01*
X49510445Y-35923283D01*
X49477425Y-35876127D01*
X48559694Y-36793859D01*
X48511355Y-36826158D01*
X48454335Y-36837500D01*
X48270665Y-36837500D01*
X48213645Y-36826158D01*
X48165306Y-36793859D01*
X47247573Y-35876126D01*
X47247572Y-35876126D01*
X47214859Y-35922846D01*
X47161606Y-35969548D01*
X47092806Y-35986384D01*
X47024005Y-35969549D01*
X46970751Y-35922847D01*
X46860994Y-35766098D01*
X46693901Y-35599005D01*
X46584745Y-35522573D01*
X47601126Y-35522573D01*
X48362499Y-36283946D01*
X49123872Y-35522573D01*
X50141126Y-35522573D01*
X50902499Y-36283946D01*
X51663872Y-35522573D01*
X51580077Y-35463899D01*
X51365991Y-35364069D01*
X51137820Y-35302930D01*
X50902500Y-35282343D01*
X50667179Y-35302930D01*
X50439009Y-35364068D01*
X50224921Y-35463900D01*
X50141126Y-35522573D01*
X49123872Y-35522573D01*
X49040077Y-35463899D01*
X48825991Y-35364069D01*
X48597820Y-35302930D01*
X48362500Y-35282343D01*
X48127179Y-35302930D01*
X47899009Y-35364068D01*
X47684921Y-35463900D01*
X47601126Y-35522573D01*
X46584745Y-35522573D01*
X46500951Y-35463900D01*
X46500330Y-35463465D01*
X46286163Y-35363597D01*
X46057907Y-35302436D01*
X45822500Y-35281841D01*
X45587092Y-35302436D01*
X45358836Y-35363597D01*
X45144672Y-35463464D01*
X44951098Y-35599005D01*
X44784005Y-35766098D01*
X44674248Y-35922848D01*
X44620994Y-35969550D01*
X44552194Y-35986385D01*
X44483393Y-35969549D01*
X44430140Y-35922847D01*
X44397425Y-35876126D01*
X43282500Y-36991053D01*
X42521125Y-37752426D01*
X42567848Y-37785141D01*
X42614550Y-37838394D01*
X42631385Y-37907195D01*
X42614550Y-37975996D01*
X42567848Y-38029248D01*
X42561267Y-38033857D01*
X42411098Y-38139005D01*
X42244005Y-38306098D01*
X42108464Y-38499672D01*
X42008597Y-38713836D01*
X41947436Y-38942092D01*
X41926841Y-39177500D01*
X32613000Y-39177500D01*
X32613000Y-35637500D01*
X33507051Y-35637500D01*
X33526817Y-35888651D01*
X33585626Y-36133610D01*
X33682033Y-36366358D01*
X33813662Y-36581156D01*
X33813664Y-36581159D01*
X33977276Y-36772724D01*
X34168841Y-36936336D01*
X34383641Y-37067966D01*
X34616389Y-37164373D01*
X34861352Y-37223183D01*
X35112500Y-37242949D01*
X35363648Y-37223183D01*
X35608611Y-37164373D01*
X35841359Y-37067966D01*
X36056159Y-36936336D01*
X36247724Y-36772724D01*
X36363216Y-36637500D01*
X41927343Y-36637500D01*
X41947930Y-36872820D01*
X42009069Y-37100991D01*
X42108899Y-37315077D01*
X42167573Y-37398872D01*
X42928947Y-36637500D01*
X42167573Y-35876126D01*
X42108900Y-35959921D01*
X42009068Y-36174009D01*
X41947930Y-36402179D01*
X41927343Y-36637500D01*
X36363216Y-36637500D01*
X36411336Y-36581159D01*
X36542966Y-36366359D01*
X36639373Y-36133611D01*
X36698183Y-35888648D01*
X36717949Y-35637500D01*
X36708904Y-35522573D01*
X42521126Y-35522573D01*
X43282499Y-36283946D01*
X44043872Y-35522573D01*
X43960077Y-35463899D01*
X43745991Y-35364069D01*
X43517820Y-35302930D01*
X43282500Y-35282343D01*
X43047179Y-35302930D01*
X42819009Y-35364068D01*
X42604921Y-35463900D01*
X42521126Y-35522573D01*
X36708904Y-35522573D01*
X36698183Y-35386352D01*
X36639373Y-35141389D01*
X36542966Y-34908641D01*
X36411336Y-34693841D01*
X36247724Y-34502276D01*
X36056159Y-34338664D01*
X36056156Y-34338662D01*
X35841358Y-34207033D01*
X35608610Y-34110626D01*
X35363651Y-34051817D01*
X35112500Y-34032051D01*
X34861348Y-34051817D01*
X34616389Y-34110626D01*
X34383641Y-34207033D01*
X34168843Y-34338662D01*
X33977276Y-34502276D01*
X33813662Y-34693843D01*
X33682033Y-34908641D01*
X33585626Y-35141389D01*
X33526817Y-35386348D01*
X33507051Y-35637500D01*
X32613000Y-35637500D01*
X32613000Y-32787000D01*
X32624342Y-32729980D01*
X32656641Y-32681641D01*
X32704980Y-32649342D01*
X32762000Y-32638000D01*
X63963000Y-32638000D01*
X64020020Y-32649342D01*
G37*
%TD.AperFunction*%
%TD*%
M02*
