M48
; DRILL file {KiCad 7.0.1} date Sat Mar 18 13:39:13 2023
; FORMAT={-:-/ absolute / inch / decimal}
; #@! TF.CreationDate,2023-03-18T13:39:13+07:00
; #@! TF.GenerationSoftware,Kicad,Pcbnew,7.0.1
; #@! TF.FileFunction,Plated,1,2,PTH
FMAT,2
INCH
; #@! TA.AperFunction,Plated,PTH,ComponentDrill
T1C0.0300
; #@! TA.AperFunction,Plated,PTH,ViaDrill
T2C0.0315
; #@! TA.AperFunction,Plated,PTH,ComponentDrill
T3C0.0315
; #@! TA.AperFunction,Plated,PTH,ComponentDrill
T4C0.0394
%
G90
G05
T1
X0.1854Y-1.7913
X0.3854Y-1.7913
X1.0516Y-1.2008
X1.2516Y-1.2008
T2
X0.3346Y-0.6988
X0.3642Y-1.0827
X0.3937Y-1.6535
X0.4331Y-0.502
X0.4429Y-1.0138
X0.4429Y-1.2697
X0.4593Y-0.5956
X0.502Y-0.502
X0.5315Y-1.1909
X0.5684Y-0.502
X0.5906Y-1.1417
X0.5906Y-1.9587
X0.6348Y-0.502
X0.689Y-2.3327
X0.7013Y-0.502
X0.7185Y-1.9783
X0.7185Y-2.0571
X0.7677Y-0.502
X0.8169Y-1.6831
X0.8366Y-0.502
X0.9081Y-1.8863
X0.9646Y-1.1417
X0.9646Y-1.4862
X1.0079Y-0.6496
X1.0079Y-0.8425
X1.0531Y-1.4961
X1.0531Y-1.6831
T3
X1.1516Y-0.6486
X1.1516Y-0.8415
T4
X0.4988Y-0.2165
X0.4988Y-0.3165
X0.5988Y-0.2165
X0.5988Y-0.3165
X0.6988Y-0.2165
X0.6988Y-0.3165
X0.7988Y-0.2165
X0.7988Y-0.3165
X0.8988Y-0.2165
X0.8988Y-0.3165
X1.1614Y-1.5059
X1.1614Y-1.6059
X1.1614Y-1.7059
X1.1614Y-1.8059
T0
M30
